<?xml version="1.0" encoding="UTF-8"?>
<svg xmlns="http://www.w3.org/2000/svg" viewBox="-222.62 -1911.01 899.93 422.64" width="900mm" height="423mm">
<g transform="scale(1,-1)">
<circle cx="-184.624" cy="1690.419" r="8.000" fill="#c00000" fill-opacity="0.18" stroke="#c00000" stroke-width="0.4" stroke-opacity="0.6"/>
<circle cx="-174.262" cy="1606.026" r="8.000" fill="#2ca02c" fill-opacity="0.18" stroke="#2ca02c" stroke-width="0.4" stroke-opacity="0.6"/>
<circle cx="-164.481" cy="1526.370" r="8.000" fill="#1060d0" fill-opacity="0.18" stroke="#1060d0" stroke-width="0.4" stroke-opacity="0.6"/>
<circle cx="-181.222" cy="1729.230" r="8.000" fill="#e0a020" fill-opacity="0.18" stroke="#e0a020" stroke-width="0.4" stroke-opacity="0.6"/>
<circle cx="-167.097" cy="1708.562" r="8.000" fill="#c00000" fill-opacity="0.18" stroke="#c00000" stroke-width="0.4" stroke-opacity="0.6"/>
<circle cx="-156.907" cy="1625.575" r="8.000" fill="#2ca02c" fill-opacity="0.18" stroke="#2ca02c" stroke-width="0.4" stroke-opacity="0.6"/>
<circle cx="-147.290" cy="1547.247" r="8.000" fill="#1060d0" fill-opacity="0.18" stroke="#1060d0" stroke-width="0.4" stroke-opacity="0.6"/>
<circle cx="-163.695" cy="1747.373" r="8.000" fill="#e0a020" fill-opacity="0.18" stroke="#e0a020" stroke-width="0.4" stroke-opacity="0.6"/>
<circle cx="-149.660" cy="1726.556" r="8.000" fill="#c00000" fill-opacity="0.18" stroke="#c00000" stroke-width="0.4" stroke-opacity="0.6"/>
<circle cx="-139.643" cy="1644.976" r="8.000" fill="#2ca02c" fill-opacity="0.18" stroke="#2ca02c" stroke-width="0.4" stroke-opacity="0.6"/>
<circle cx="-130.189" cy="1567.975" r="8.000" fill="#1060d0" fill-opacity="0.18" stroke="#1060d0" stroke-width="0.4" stroke-opacity="0.6"/>
<circle cx="-146.258" cy="1765.367" r="8.000" fill="#e0a020" fill-opacity="0.18" stroke="#e0a020" stroke-width="0.4" stroke-opacity="0.6"/>
<circle cx="-132.293" cy="1744.455" r="8.000" fill="#c00000" fill-opacity="0.18" stroke="#c00000" stroke-width="0.4" stroke-opacity="0.6"/>
<circle cx="-122.449" cy="1664.281" r="8.000" fill="#2ca02c" fill-opacity="0.18" stroke="#2ca02c" stroke-width="0.4" stroke-opacity="0.6"/>
<circle cx="-113.157" cy="1588.608" r="8.000" fill="#1060d0" fill-opacity="0.18" stroke="#1060d0" stroke-width="0.4" stroke-opacity="0.6"/>
<circle cx="-128.891" cy="1783.266" r="8.000" fill="#e0a020" fill-opacity="0.18" stroke="#e0a020" stroke-width="0.4" stroke-opacity="0.6"/>
<circle cx="-114.370" cy="1757.261" r="8.000" fill="#c00000" fill-opacity="0.18" stroke="#c00000" stroke-width="0.4" stroke-opacity="0.6"/>
<circle cx="-104.733" cy="1678.775" r="8.000" fill="#2ca02c" fill-opacity="0.18" stroke="#2ca02c" stroke-width="0.4" stroke-opacity="0.6"/>
<circle cx="-95.637" cy="1604.695" r="8.000" fill="#1060d0" fill-opacity="0.18" stroke="#1060d0" stroke-width="0.4" stroke-opacity="0.6"/>
<circle cx="-110.968" cy="1796.072" r="8.000" fill="#e0a020" fill-opacity="0.18" stroke="#e0a020" stroke-width="0.4" stroke-opacity="0.6"/>
<circle cx="-96.507" cy="1769.978" r="8.000" fill="#c00000" fill-opacity="0.18" stroke="#c00000" stroke-width="0.4" stroke-opacity="0.6"/>
<circle cx="-87.078" cy="1693.181" r="8.000" fill="#2ca02c" fill-opacity="0.18" stroke="#2ca02c" stroke-width="0.4" stroke-opacity="0.6"/>
<circle cx="-78.177" cy="1620.694" r="8.000" fill="#1060d0" fill-opacity="0.18" stroke="#1060d0" stroke-width="0.4" stroke-opacity="0.6"/>
<circle cx="-93.105" cy="1808.790" r="8.000" fill="#e0a020" fill-opacity="0.18" stroke="#e0a020" stroke-width="0.4" stroke-opacity="0.6"/>
<circle cx="-78.694" cy="1782.627" r="8.000" fill="#c00000" fill-opacity="0.18" stroke="#c00000" stroke-width="0.4" stroke-opacity="0.6"/>
<circle cx="-69.472" cy="1707.518" r="8.000" fill="#2ca02c" fill-opacity="0.18" stroke="#2ca02c" stroke-width="0.4" stroke-opacity="0.6"/>
<circle cx="-60.767" cy="1636.624" r="8.000" fill="#1060d0" fill-opacity="0.18" stroke="#1060d0" stroke-width="0.4" stroke-opacity="0.6"/>
<circle cx="-75.292" cy="1821.438" r="8.000" fill="#e0a020" fill-opacity="0.18" stroke="#e0a020" stroke-width="0.4" stroke-opacity="0.6"/>
<circle cx="-60.931" cy="1795.189" r="8.000" fill="#c00000" fill-opacity="0.18" stroke="#c00000" stroke-width="0.4" stroke-opacity="0.6"/>
<circle cx="-51.916" cy="1721.767" r="8.000" fill="#2ca02c" fill-opacity="0.18" stroke="#2ca02c" stroke-width="0.4" stroke-opacity="0.6"/>
<circle cx="-43.407" cy="1652.467" r="8.000" fill="#1060d0" fill-opacity="0.18" stroke="#1060d0" stroke-width="0.4" stroke-opacity="0.6"/>
<circle cx="-57.529" cy="1834.000" r="8.000" fill="#e0a020" fill-opacity="0.18" stroke="#e0a020" stroke-width="0.4" stroke-opacity="0.6"/>
<circle cx="-42.593" cy="1802.657" r="8.000" fill="#c00000" fill-opacity="0.18" stroke="#c00000" stroke-width="0.4" stroke-opacity="0.6"/>
<circle cx="-33.819" cy="1731.206" r="8.000" fill="#2ca02c" fill-opacity="0.18" stroke="#2ca02c" stroke-width="0.4" stroke-opacity="0.6"/>
<circle cx="-25.539" cy="1663.764" r="8.000" fill="#1060d0" fill-opacity="0.18" stroke="#1060d0" stroke-width="0.4" stroke-opacity="0.6"/>
<circle cx="-39.191" cy="1841.468" r="8.000" fill="#e0a020" fill-opacity="0.18" stroke="#e0a020" stroke-width="0.4" stroke-opacity="0.6"/>
<circle cx="-23.701" cy="1804.974" r="8.000" fill="#c00000" fill-opacity="0.18" stroke="#c00000" stroke-width="0.4" stroke-opacity="0.6"/>
<circle cx="-15.204" cy="1735.773" r="8.000" fill="#2ca02c" fill-opacity="0.18" stroke="#2ca02c" stroke-width="0.4" stroke-opacity="0.6"/>
<circle cx="-7.184" cy="1670.455" r="8.000" fill="#1060d0" fill-opacity="0.18" stroke="#1060d0" stroke-width="0.4" stroke-opacity="0.6"/>
<circle cx="-20.299" cy="1843.785" r="8.000" fill="#e0a020" fill-opacity="0.18" stroke="#e0a020" stroke-width="0.4" stroke-opacity="0.6"/>
<circle cx="-7.310" cy="1827.207" r="8.000" fill="#c00000" fill-opacity="0.18" stroke="#c00000" stroke-width="0.4" stroke-opacity="0.6"/>
<circle cx="1.049" cy="1759.130" r="8.000" fill="#2ca02c" fill-opacity="0.18" stroke="#2ca02c" stroke-width="0.4" stroke-opacity="0.6"/>
<circle cx="8.939" cy="1694.874" r="8.000" fill="#1060d0" fill-opacity="0.18" stroke="#1060d0" stroke-width="0.4" stroke-opacity="0.6"/>
<circle cx="-3.908" cy="1866.019" r="8.000" fill="#e0a020" fill-opacity="0.18" stroke="#e0a020" stroke-width="0.4" stroke-opacity="0.6"/>
<circle cx="10.879" cy="1834.199" r="8.000" fill="#c00000" fill-opacity="0.18" stroke="#c00000" stroke-width="0.4" stroke-opacity="0.6"/>
<circle cx="18.996" cy="1768.091" r="8.000" fill="#2ca02c" fill-opacity="0.18" stroke="#2ca02c" stroke-width="0.4" stroke-opacity="0.6"/>
<circle cx="26.657" cy="1705.694" r="8.000" fill="#1060d0" fill-opacity="0.18" stroke="#1060d0" stroke-width="0.4" stroke-opacity="0.6"/>
<circle cx="14.281" cy="1873.010" r="8.000" fill="#e0a020" fill-opacity="0.18" stroke="#e0a020" stroke-width="0.4" stroke-opacity="0.6"/>
<circle cx="34.470" cy="1802.476" r="8.000" fill="#c00000" fill-opacity="0.18" stroke="#c00000" stroke-width="0.4" stroke-opacity="0.6"/>
<circle cx="42.069" cy="1740.589" r="8.000" fill="#2ca02c" fill-opacity="0.18" stroke="#2ca02c" stroke-width="0.4" stroke-opacity="0.6"/>
<circle cx="49.241" cy="1682.174" r="8.000" fill="#1060d0" fill-opacity="0.18" stroke="#1060d0" stroke-width="0.4" stroke-opacity="0.6"/>
<circle cx="37.872" cy="1841.287" r="8.000" fill="#e0a020" fill-opacity="0.18" stroke="#e0a020" stroke-width="0.4" stroke-opacity="0.6"/>
<circle cx="56.040" cy="1791.983" r="8.000" fill="#c00000" fill-opacity="0.18" stroke="#c00000" stroke-width="0.4" stroke-opacity="0.6"/>
<circle cx="63.259" cy="1733.189" r="8.000" fill="#2ca02c" fill-opacity="0.18" stroke="#2ca02c" stroke-width="0.4" stroke-opacity="0.6"/>
<circle cx="70.072" cy="1677.696" r="8.000" fill="#1060d0" fill-opacity="0.18" stroke="#1060d0" stroke-width="0.4" stroke-opacity="0.6"/>
<circle cx="59.442" cy="1830.794" r="8.000" fill="#e0a020" fill-opacity="0.18" stroke="#e0a020" stroke-width="0.4" stroke-opacity="0.6"/>
<circle cx="78.788" cy="1771.116" r="8.000" fill="#c00000" fill-opacity="0.18" stroke="#c00000" stroke-width="0.4" stroke-opacity="0.6"/>
<circle cx="85.558" cy="1715.979" r="8.000" fill="#2ca02c" fill-opacity="0.18" stroke="#2ca02c" stroke-width="0.4" stroke-opacity="0.6"/>
<circle cx="91.948" cy="1663.937" r="8.000" fill="#1060d0" fill-opacity="0.18" stroke="#1060d0" stroke-width="0.4" stroke-opacity="0.6"/>
<circle cx="82.190" cy="1809.927" r="8.000" fill="#e0a020" fill-opacity="0.18" stroke="#e0a020" stroke-width="0.4" stroke-opacity="0.6"/>
<circle cx="101.490" cy="1749.780" r="8.000" fill="#c00000" fill-opacity="0.18" stroke="#c00000" stroke-width="0.4" stroke-opacity="0.6"/>
<circle cx="107.811" cy="1698.300" r="8.000" fill="#2ca02c" fill-opacity="0.18" stroke="#2ca02c" stroke-width="0.4" stroke-opacity="0.6"/>
<circle cx="113.777" cy="1649.710" r="8.000" fill="#1060d0" fill-opacity="0.18" stroke="#1060d0" stroke-width="0.4" stroke-opacity="0.6"/>
<circle cx="104.892" cy="1788.591" r="8.000" fill="#e0a020" fill-opacity="0.18" stroke="#e0a020" stroke-width="0.4" stroke-opacity="0.6"/>
<circle cx="123.436" cy="1732.660" r="8.000" fill="#c00000" fill-opacity="0.18" stroke="#c00000" stroke-width="0.4" stroke-opacity="0.6"/>
<circle cx="129.342" cy="1684.557" r="8.000" fill="#2ca02c" fill-opacity="0.18" stroke="#2ca02c" stroke-width="0.4" stroke-opacity="0.6"/>
<circle cx="134.917" cy="1639.153" r="8.000" fill="#1060d0" fill-opacity="0.18" stroke="#1060d0" stroke-width="0.4" stroke-opacity="0.6"/>
<circle cx="126.838" cy="1771.471" r="8.000" fill="#e0a020" fill-opacity="0.18" stroke="#e0a020" stroke-width="0.4" stroke-opacity="0.6"/>
<circle cx="146.521" cy="1704.786" r="8.000" fill="#c00000" fill-opacity="0.18" stroke="#c00000" stroke-width="0.4" stroke-opacity="0.6"/>
<circle cx="151.944" cy="1660.620" r="8.000" fill="#2ca02c" fill-opacity="0.18" stroke="#2ca02c" stroke-width="0.4" stroke-opacity="0.6"/>
<circle cx="157.062" cy="1618.934" r="8.000" fill="#1060d0" fill-opacity="0.18" stroke="#1060d0" stroke-width="0.4" stroke-opacity="0.6"/>
<circle cx="149.923" cy="1743.597" r="8.000" fill="#e0a020" fill-opacity="0.18" stroke="#e0a020" stroke-width="0.4" stroke-opacity="0.6"/>
<circle cx="168.337" cy="1686.209" r="8.000" fill="#c00000" fill-opacity="0.18" stroke="#c00000" stroke-width="0.4" stroke-opacity="0.6"/>
<circle cx="173.345" cy="1645.420" r="8.000" fill="#2ca02c" fill-opacity="0.18" stroke="#2ca02c" stroke-width="0.4" stroke-opacity="0.6"/>
<circle cx="178.072" cy="1606.920" r="8.000" fill="#1060d0" fill-opacity="0.18" stroke="#1060d0" stroke-width="0.4" stroke-opacity="0.6"/>
<circle cx="171.739" cy="1725.020" r="8.000" fill="#e0a020" fill-opacity="0.18" stroke="#e0a020" stroke-width="0.4" stroke-opacity="0.6"/>
<circle cx="190.695" cy="1661.726" r="8.000" fill="#c00000" fill-opacity="0.18" stroke="#c00000" stroke-width="0.4" stroke-opacity="0.6"/>
<circle cx="195.255" cy="1624.593" r="8.000" fill="#2ca02c" fill-opacity="0.18" stroke="#2ca02c" stroke-width="0.4" stroke-opacity="0.6"/>
<circle cx="199.558" cy="1589.544" r="8.000" fill="#1060d0" fill-opacity="0.18" stroke="#1060d0" stroke-width="0.4" stroke-opacity="0.6"/>
<circle cx="194.097" cy="1700.537" r="8.000" fill="#e0a020" fill-opacity="0.18" stroke="#e0a020" stroke-width="0.4" stroke-opacity="0.6"/>
<circle cx="210.493" cy="1656.166" r="8.000" fill="#c00000" fill-opacity="0.18" stroke="#c00000" stroke-width="0.4" stroke-opacity="0.6"/>
<circle cx="214.742" cy="1621.564" r="8.000" fill="#2ca02c" fill-opacity="0.18" stroke="#2ca02c" stroke-width="0.4" stroke-opacity="0.6"/>
<circle cx="218.752" cy="1588.905" r="8.000" fill="#1060d0" fill-opacity="0.18" stroke="#1060d0" stroke-width="0.4" stroke-opacity="0.6"/>
<circle cx="213.895" cy="1694.978" r="8.000" fill="#e0a020" fill-opacity="0.18" stroke="#e0a020" stroke-width="0.4" stroke-opacity="0.6"/>
<circle cx="230.840" cy="1644.412" r="8.000" fill="#c00000" fill-opacity="0.18" stroke="#c00000" stroke-width="0.4" stroke-opacity="0.6"/>
<circle cx="234.743" cy="1612.625" r="8.000" fill="#2ca02c" fill-opacity="0.18" stroke="#2ca02c" stroke-width="0.4" stroke-opacity="0.6"/>
<circle cx="238.427" cy="1582.621" r="8.000" fill="#1060d0" fill-opacity="0.18" stroke="#1060d0" stroke-width="0.4" stroke-opacity="0.6"/>
<circle cx="234.242" cy="1683.223" r="8.000" fill="#e0a020" fill-opacity="0.18" stroke="#e0a020" stroke-width="0.4" stroke-opacity="0.6"/>
<circle cx="250.518" cy="1636.485" r="8.000" fill="#c00000" fill-opacity="0.18" stroke="#c00000" stroke-width="0.4" stroke-opacity="0.6"/>
<circle cx="254.110" cy="1607.229" r="8.000" fill="#2ca02c" fill-opacity="0.18" stroke="#2ca02c" stroke-width="0.4" stroke-opacity="0.6"/>
<circle cx="257.501" cy="1579.615" r="8.000" fill="#1060d0" fill-opacity="0.18" stroke="#1060d0" stroke-width="0.4" stroke-opacity="0.6"/>
<circle cx="253.920" cy="1675.296" r="8.000" fill="#e0a020" fill-opacity="0.18" stroke="#e0a020" stroke-width="0.4" stroke-opacity="0.6"/>
<circle cx="269.490" cy="1632.155" r="8.000" fill="#c00000" fill-opacity="0.18" stroke="#c00000" stroke-width="0.4" stroke-opacity="0.6"/>
<circle cx="272.806" cy="1605.149" r="8.000" fill="#2ca02c" fill-opacity="0.18" stroke="#2ca02c" stroke-width="0.4" stroke-opacity="0.6"/>
<circle cx="275.935" cy="1579.659" r="8.000" fill="#1060d0" fill-opacity="0.18" stroke="#1060d0" stroke-width="0.4" stroke-opacity="0.6"/>
<circle cx="272.892" cy="1670.967" r="8.000" fill="#e0a020" fill-opacity="0.18" stroke="#e0a020" stroke-width="0.4" stroke-opacity="0.6"/>
<circle cx="287.819" cy="1631.468" r="8.000" fill="#c00000" fill-opacity="0.18" stroke="#c00000" stroke-width="0.4" stroke-opacity="0.6"/>
<circle cx="290.893" cy="1606.431" r="8.000" fill="#2ca02c" fill-opacity="0.18" stroke="#2ca02c" stroke-width="0.4" stroke-opacity="0.6"/>
<circle cx="293.794" cy="1582.800" r="8.000" fill="#1060d0" fill-opacity="0.18" stroke="#1060d0" stroke-width="0.4" stroke-opacity="0.6"/>
<circle cx="291.221" cy="1670.279" r="8.000" fill="#e0a020" fill-opacity="0.18" stroke="#e0a020" stroke-width="0.4" stroke-opacity="0.6"/>
<circle cx="306.117" cy="1629.363" r="8.000" fill="#c00000" fill-opacity="0.18" stroke="#c00000" stroke-width="0.4" stroke-opacity="0.6"/>
<circle cx="308.950" cy="1606.297" r="8.000" fill="#2ca02c" fill-opacity="0.18" stroke="#2ca02c" stroke-width="0.4" stroke-opacity="0.6"/>
<circle cx="311.623" cy="1584.524" r="8.000" fill="#1060d0" fill-opacity="0.18" stroke="#1060d0" stroke-width="0.4" stroke-opacity="0.6"/>
<circle cx="309.519" cy="1668.174" r="8.000" fill="#e0a020" fill-opacity="0.18" stroke="#e0a020" stroke-width="0.4" stroke-opacity="0.6"/>
<circle cx="323.750" cy="1630.776" r="8.000" fill="#c00000" fill-opacity="0.18" stroke="#c00000" stroke-width="0.4" stroke-opacity="0.6"/>
<circle cx="326.375" cy="1609.397" r="8.000" fill="#2ca02c" fill-opacity="0.18" stroke="#2ca02c" stroke-width="0.4" stroke-opacity="0.6"/>
<circle cx="328.853" cy="1589.218" r="8.000" fill="#1060d0" fill-opacity="0.18" stroke="#1060d0" stroke-width="0.4" stroke-opacity="0.6"/>
<circle cx="327.152" cy="1669.588" r="8.000" fill="#e0a020" fill-opacity="0.18" stroke="#e0a020" stroke-width="0.4" stroke-opacity="0.6"/>
<circle cx="341.320" cy="1630.693" r="8.000" fill="#c00000" fill-opacity="0.18" stroke="#c00000" stroke-width="0.4" stroke-opacity="0.6"/>
<circle cx="343.738" cy="1611.001" r="8.000" fill="#2ca02c" fill-opacity="0.18" stroke="#2ca02c" stroke-width="0.4" stroke-opacity="0.6"/>
<circle cx="346.020" cy="1592.414" r="8.000" fill="#1060d0" fill-opacity="0.18" stroke="#1060d0" stroke-width="0.4" stroke-opacity="0.6"/>
<circle cx="344.722" cy="1669.504" r="8.000" fill="#e0a020" fill-opacity="0.18" stroke="#e0a020" stroke-width="0.4" stroke-opacity="0.6"/>
<circle cx="358.227" cy="1634.130" r="8.000" fill="#c00000" fill-opacity="0.18" stroke="#c00000" stroke-width="0.4" stroke-opacity="0.6"/>
<circle cx="360.472" cy="1615.844" r="8.000" fill="#2ca02c" fill-opacity="0.18" stroke="#2ca02c" stroke-width="0.4" stroke-opacity="0.6"/>
<circle cx="362.591" cy="1598.585" r="8.000" fill="#1060d0" fill-opacity="0.18" stroke="#1060d0" stroke-width="0.4" stroke-opacity="0.6"/>
<circle cx="361.629" cy="1672.941" r="8.000" fill="#e0a020" fill-opacity="0.18" stroke="#e0a020" stroke-width="0.4" stroke-opacity="0.6"/>
<circle cx="375.114" cy="1636.202" r="8.000" fill="#c00000" fill-opacity="0.18" stroke="#c00000" stroke-width="0.4" stroke-opacity="0.6"/>
<circle cx="377.187" cy="1619.323" r="8.000" fill="#2ca02c" fill-opacity="0.18" stroke="#2ca02c" stroke-width="0.4" stroke-opacity="0.6"/>
<circle cx="379.143" cy="1603.391" r="8.000" fill="#1060d0" fill-opacity="0.18" stroke="#1060d0" stroke-width="0.4" stroke-opacity="0.6"/>
<circle cx="378.516" cy="1675.013" r="8.000" fill="#e0a020" fill-opacity="0.18" stroke="#e0a020" stroke-width="0.4" stroke-opacity="0.6"/>
<circle cx="391.984" cy="1636.950" r="8.000" fill="#c00000" fill-opacity="0.18" stroke="#c00000" stroke-width="0.4" stroke-opacity="0.6"/>
<circle cx="393.884" cy="1621.479" r="8.000" fill="#2ca02c" fill-opacity="0.18" stroke="#2ca02c" stroke-width="0.4" stroke-opacity="0.6"/>
<circle cx="395.677" cy="1606.876" r="8.000" fill="#1060d0" fill-opacity="0.18" stroke="#1060d0" stroke-width="0.4" stroke-opacity="0.6"/>
<circle cx="395.386" cy="1675.761" r="8.000" fill="#e0a020" fill-opacity="0.18" stroke="#e0a020" stroke-width="0.4" stroke-opacity="0.6"/>
<circle cx="407.589" cy="1646.519" r="8.000" fill="#c00000" fill-opacity="0.18" stroke="#c00000" stroke-width="0.4" stroke-opacity="0.6"/>
<circle cx="409.385" cy="1631.891" r="8.000" fill="#2ca02c" fill-opacity="0.18" stroke="#2ca02c" stroke-width="0.4" stroke-opacity="0.6"/>
<circle cx="411.080" cy="1618.084" r="8.000" fill="#1060d0" fill-opacity="0.18" stroke="#1060d0" stroke-width="0.4" stroke-opacity="0.6"/>
<circle cx="410.991" cy="1685.330" r="8.000" fill="#e0a020" fill-opacity="0.18" stroke="#e0a020" stroke-width="0.4" stroke-opacity="0.6"/>
<circle cx="424.406" cy="1644.922" r="8.000" fill="#c00000" fill-opacity="0.18" stroke="#c00000" stroke-width="0.4" stroke-opacity="0.6"/>
<circle cx="426.029" cy="1631.700" r="8.000" fill="#2ca02c" fill-opacity="0.18" stroke="#2ca02c" stroke-width="0.4" stroke-opacity="0.6"/>
<circle cx="427.561" cy="1619.221" r="8.000" fill="#1060d0" fill-opacity="0.18" stroke="#1060d0" stroke-width="0.4" stroke-opacity="0.6"/>
<circle cx="427.808" cy="1683.734" r="8.000" fill="#e0a020" fill-opacity="0.18" stroke="#e0a020" stroke-width="0.4" stroke-opacity="0.6"/>
<circle cx="439.931" cy="1652.255" r="8.000" fill="#c00000" fill-opacity="0.18" stroke="#c00000" stroke-width="0.4" stroke-opacity="0.6"/>
<circle cx="441.451" cy="1639.877" r="8.000" fill="#2ca02c" fill-opacity="0.18" stroke="#2ca02c" stroke-width="0.4" stroke-opacity="0.6"/>
<circle cx="442.885" cy="1628.193" r="8.000" fill="#1060d0" fill-opacity="0.18" stroke="#1060d0" stroke-width="0.4" stroke-opacity="0.6"/>
<circle cx="443.333" cy="1691.066" r="8.000" fill="#e0a020" fill-opacity="0.18" stroke="#e0a020" stroke-width="0.4" stroke-opacity="0.6"/>
<circle cx="455.429" cy="1658.606" r="8.000" fill="#c00000" fill-opacity="0.18" stroke="#c00000" stroke-width="0.4" stroke-opacity="0.6"/>
<circle cx="456.845" cy="1647.073" r="8.000" fill="#2ca02c" fill-opacity="0.18" stroke="#2ca02c" stroke-width="0.4" stroke-opacity="0.6"/>
<circle cx="458.181" cy="1636.187" r="8.000" fill="#1060d0" fill-opacity="0.18" stroke="#1060d0" stroke-width="0.4" stroke-opacity="0.6"/>
<circle cx="458.831" cy="1697.417" r="8.000" fill="#e0a020" fill-opacity="0.18" stroke="#e0a020" stroke-width="0.4" stroke-opacity="0.6"/>
<circle cx="470.954" cy="1664.206" r="8.000" fill="#c00000" fill-opacity="0.18" stroke="#c00000" stroke-width="0.4" stroke-opacity="0.6"/>
<circle cx="472.266" cy="1653.516" r="8.000" fill="#2ca02c" fill-opacity="0.18" stroke="#2ca02c" stroke-width="0.4" stroke-opacity="0.6"/>
<circle cx="473.505" cy="1643.425" r="8.000" fill="#1060d0" fill-opacity="0.18" stroke="#1060d0" stroke-width="0.4" stroke-opacity="0.6"/>
<circle cx="474.356" cy="1703.017" r="8.000" fill="#e0a020" fill-opacity="0.18" stroke="#e0a020" stroke-width="0.4" stroke-opacity="0.6"/>
<circle cx="486.482" cy="1669.037" r="8.000" fill="#c00000" fill-opacity="0.18" stroke="#c00000" stroke-width="0.4" stroke-opacity="0.6"/>
<circle cx="487.690" cy="1659.192" r="8.000" fill="#2ca02c" fill-opacity="0.18" stroke="#2ca02c" stroke-width="0.4" stroke-opacity="0.6"/>
<circle cx="488.832" cy="1649.899" r="8.000" fill="#1060d0" fill-opacity="0.18" stroke="#1060d0" stroke-width="0.4" stroke-opacity="0.6"/>
<circle cx="489.884" cy="1707.848" r="8.000" fill="#e0a020" fill-opacity="0.18" stroke="#e0a020" stroke-width="0.4" stroke-opacity="0.6"/>
<circle cx="501.977" cy="1673.184" r="8.000" fill="#c00000" fill-opacity="0.18" stroke="#c00000" stroke-width="0.4" stroke-opacity="0.6"/>
<circle cx="503.082" cy="1664.182" r="8.000" fill="#2ca02c" fill-opacity="0.18" stroke="#2ca02c" stroke-width="0.4" stroke-opacity="0.6"/>
<circle cx="504.125" cy="1655.686" r="8.000" fill="#1060d0" fill-opacity="0.18" stroke="#1060d0" stroke-width="0.4" stroke-opacity="0.6"/>
<circle cx="505.379" cy="1711.996" r="8.000" fill="#e0a020" fill-opacity="0.18" stroke="#e0a020" stroke-width="0.4" stroke-opacity="0.6"/>
<circle cx="517.475" cy="1676.715" r="8.000" fill="#c00000" fill-opacity="0.18" stroke="#c00000" stroke-width="0.4" stroke-opacity="0.6"/>
<circle cx="518.476" cy="1668.557" r="8.000" fill="#2ca02c" fill-opacity="0.18" stroke="#2ca02c" stroke-width="0.4" stroke-opacity="0.6"/>
<circle cx="519.422" cy="1660.858" r="8.000" fill="#1060d0" fill-opacity="0.18" stroke="#1060d0" stroke-width="0.4" stroke-opacity="0.6"/>
<circle cx="520.877" cy="1715.527" r="8.000" fill="#e0a020" fill-opacity="0.18" stroke="#e0a020" stroke-width="0.4" stroke-opacity="0.6"/>
<circle cx="532.939" cy="1679.703" r="8.000" fill="#c00000" fill-opacity="0.18" stroke="#c00000" stroke-width="0.4" stroke-opacity="0.6"/>
<circle cx="533.837" cy="1672.389" r="8.000" fill="#2ca02c" fill-opacity="0.18" stroke="#2ca02c" stroke-width="0.4" stroke-opacity="0.6"/>
<circle cx="534.685" cy="1665.486" r="8.000" fill="#1060d0" fill-opacity="0.18" stroke="#1060d0" stroke-width="0.4" stroke-opacity="0.6"/>
<circle cx="536.341" cy="1718.514" r="8.000" fill="#e0a020" fill-opacity="0.18" stroke="#e0a020" stroke-width="0.4" stroke-opacity="0.6"/>
<circle cx="547.751" cy="1687.162" r="8.000" fill="#c00000" fill-opacity="0.18" stroke="#c00000" stroke-width="0.4" stroke-opacity="0.6"/>
<circle cx="548.580" cy="1680.411" r="8.000" fill="#2ca02c" fill-opacity="0.18" stroke="#2ca02c" stroke-width="0.4" stroke-opacity="0.6"/>
<circle cx="549.363" cy="1674.039" r="8.000" fill="#1060d0" fill-opacity="0.18" stroke="#1060d0" stroke-width="0.4" stroke-opacity="0.6"/>
<circle cx="551.153" cy="1725.974" r="8.000" fill="#e0a020" fill-opacity="0.18" stroke="#e0a020" stroke-width="0.4" stroke-opacity="0.6"/>
<circle cx="562.510" cy="1694.170" r="8.000" fill="#c00000" fill-opacity="0.18" stroke="#c00000" stroke-width="0.4" stroke-opacity="0.6"/>
<circle cx="563.270" cy="1687.981" r="8.000" fill="#2ca02c" fill-opacity="0.18" stroke="#2ca02c" stroke-width="0.4" stroke-opacity="0.6"/>
<circle cx="563.988" cy="1682.140" r="8.000" fill="#1060d0" fill-opacity="0.18" stroke="#1060d0" stroke-width="0.4" stroke-opacity="0.6"/>
<circle cx="565.912" cy="1732.982" r="8.000" fill="#e0a020" fill-opacity="0.18" stroke="#e0a020" stroke-width="0.4" stroke-opacity="0.6"/>
<circle cx="577.242" cy="1700.752" r="8.000" fill="#c00000" fill-opacity="0.18" stroke="#c00000" stroke-width="0.4" stroke-opacity="0.6"/>
<circle cx="577.933" cy="1695.126" r="8.000" fill="#2ca02c" fill-opacity="0.18" stroke="#2ca02c" stroke-width="0.4" stroke-opacity="0.6"/>
<circle cx="578.585" cy="1689.816" r="8.000" fill="#1060d0" fill-opacity="0.18" stroke="#1060d0" stroke-width="0.4" stroke-opacity="0.6"/>
<circle cx="580.644" cy="1739.563" r="8.000" fill="#e0a020" fill-opacity="0.18" stroke="#e0a020" stroke-width="0.4" stroke-opacity="0.6"/>
<circle cx="591.931" cy="1706.986" r="8.000" fill="#c00000" fill-opacity="0.18" stroke="#c00000" stroke-width="0.4" stroke-opacity="0.6"/>
<circle cx="592.553" cy="1701.922" r="8.000" fill="#2ca02c" fill-opacity="0.18" stroke="#2ca02c" stroke-width="0.4" stroke-opacity="0.6"/>
<circle cx="593.140" cy="1697.142" r="8.000" fill="#1060d0" fill-opacity="0.18" stroke="#1060d0" stroke-width="0.4" stroke-opacity="0.6"/>
<circle cx="595.333" cy="1745.797" r="8.000" fill="#e0a020" fill-opacity="0.18" stroke="#e0a020" stroke-width="0.4" stroke-opacity="0.6"/>
<circle cx="606.603" cy="1712.886" r="8.000" fill="#c00000" fill-opacity="0.18" stroke="#c00000" stroke-width="0.4" stroke-opacity="0.6"/>
<circle cx="607.156" cy="1708.385" r="8.000" fill="#2ca02c" fill-opacity="0.18" stroke="#2ca02c" stroke-width="0.4" stroke-opacity="0.6"/>
<circle cx="607.678" cy="1704.137" r="8.000" fill="#1060d0" fill-opacity="0.18" stroke="#1060d0" stroke-width="0.4" stroke-opacity="0.6"/>
<circle cx="610.005" cy="1751.697" r="8.000" fill="#e0a020" fill-opacity="0.18" stroke="#e0a020" stroke-width="0.4" stroke-opacity="0.6"/>
<circle cx="621.255" cy="1718.508" r="8.000" fill="#c00000" fill-opacity="0.18" stroke="#c00000" stroke-width="0.4" stroke-opacity="0.6"/>
<circle cx="621.739" cy="1714.570" r="8.000" fill="#2ca02c" fill-opacity="0.18" stroke="#2ca02c" stroke-width="0.4" stroke-opacity="0.6"/>
<circle cx="622.195" cy="1710.854" r="8.000" fill="#1060d0" fill-opacity="0.18" stroke="#1060d0" stroke-width="0.4" stroke-opacity="0.6"/>
<circle cx="624.657" cy="1757.319" r="8.000" fill="#e0a020" fill-opacity="0.18" stroke="#e0a020" stroke-width="0.4" stroke-opacity="0.6"/>
<circle cx="635.904" cy="1723.932" r="8.000" fill="#c00000" fill-opacity="0.18" stroke="#c00000" stroke-width="0.4" stroke-opacity="0.6"/>
<circle cx="636.319" cy="1720.556" r="8.000" fill="#2ca02c" fill-opacity="0.18" stroke="#2ca02c" stroke-width="0.4" stroke-opacity="0.6"/>
<circle cx="636.710" cy="1717.369" r="8.000" fill="#1060d0" fill-opacity="0.18" stroke="#1060d0" stroke-width="0.4" stroke-opacity="0.6"/>
<circle cx="639.306" cy="1762.743" r="8.000" fill="#e0a020" fill-opacity="0.18" stroke="#e0a020" stroke-width="0.4" stroke-opacity="0.6"/>
<path d="M 647.293,1762.286 C 647.525,1766.335 644.690,1769.917 640.696,1770.621 L 15.671,1880.888 C 14.240,1881.141 12.767,1880.999 11.411,1880.477 L -6.778,1873.486 C -7.205,1873.322 -7.617,1873.122 -8.009,1872.887 L -61.630,1840.869 C -61.807,1840.763 -61.980,1840.651 -62.148,1840.532 L -79.911,1827.970 C -79.915,1827.967 -79.919,1827.964 -79.923,1827.961 L -97.736,1815.312 C -97.739,1815.310 -97.742,1815.308 -97.745,1815.307 L -115.608,1802.589 C -115.611,1802.586 -115.615,1802.584 -115.618,1802.581 L -133.541,1789.775 C -133.932,1789.496 -134.297,1789.182 -134.632,1788.837 L -151.999,1770.938 C -152.000,1770.937 -152.002,1770.936 -152.003,1770.935 L -169.440,1752.941 C -169.443,1752.938 -169.446,1752.935 -169.448,1752.932 L -186.975,1734.788 C -188.249,1733.470 -189.031,1731.754 -189.191,1729.929 L -192.593,1691.117 C -192.642,1690.560 -192.633,1689.999 -192.564,1689.444 L -182.202,1605.051 C -182.202,1605.051 -182.202,1605.051 -182.202,1605.051 L -172.421,1525.395 C -171.884,1521.015 -167.901,1517.898 -163.520,1518.428 L 276.896,1571.717 C 276.936,1571.722 276.976,1571.727 277.015,1571.733 L 312.703,1576.597 C 312.941,1576.629 313.178,1576.672 313.412,1576.726 L 347.809,1584.617 C 347.959,1584.651 348.109,1584.690 348.257,1584.733 L 397.914,1599.195 C 398.134,1599.259 398.352,1599.333 398.566,1599.416 L 430.450,1611.761 C 430.545,1611.798 430.639,1611.837 430.733,1611.877 L 537.857,1658.141 C 538.011,1658.208 538.162,1658.279 538.311,1658.355 L 640.336,1710.238 C 642.874,1711.528 644.534,1714.070 644.697,1716.912 L 647.293,1762.286 Z" fill="none" stroke="#0a8" stroke-width="1.0" stroke-dasharray="4,3"/>
</g>
</svg>