<?xml version="1.0" encoding="UTF-8"?>
<svg xmlns="http://www.w3.org/2000/svg" viewBox="0 0 2171.9 4389.7" width="1600" height="3233" font-family="sans-serif" font-size="12">
<rect x="0" y="0" width="2171.9" height="4389.7" fill="#fff"/>
<g transform="translate(0.0, 0.0)">
<rect x="0" y="50.0" width="1085.9" height="2144.8" fill="none" stroke="#ccc" stroke-width="0.6"/>
<text x="10" y="32" font-family="sans-serif" font-size="22" font-weight="bold" fill="#000">Side view (xz, project along +y)</text>
<g transform="translate(295.3, 2104.8)">
<g transform="scale(1,-1)">
<line x1="-255.3" y1="0" x2="750.6" y2="0" stroke="#888" stroke-width="0.6" stroke-dasharray="4,3" opacity="0.7"/>
<path d="M -28.24 39.39 L 381.76 39.39 L 381.76 41.16 L 381.77 42.92 L 381.79 44.69 L 381.81 46.45 L 381.84 48.22 L 381.87 49.98 L 381.92 51.75 L 381.97 53.51 L 382.02 55.28 L 382.09 57.04 L 382.16 58.80 L 382.23 60.57 L 382.31 62.33 L 382.40 64.09 L 382.50 65.85 L 382.60 67.62 L 382.71 69.38 L 382.82 71.14 L 382.95 72.90 L 383.07 74.66 L 383.21 76.42 L 383.35 78.18 L 383.50 79.94 L 383.65 81.69 L 383.82 83.45 L 383.98 85.21 L 384.16 86.97 L 384.34 88.72 L 384.53 90.48 L 384.72 92.23 L 384.92 93.98 L 385.13 95.74 L 385.34 97.49 L 385.56 99.24 L 385.79 100.99 L 386.02 102.74 L 386.26 104.49 L 386.51 106.23 L 386.76 107.98 L 387.02 109.73 L 387.29 111.47 L 387.56 113.21 L 387.84 114.96 L 388.13 116.70 L 388.42 118.44 L 388.72 120.18 L 389.02 121.92 L 389.34 123.65 L 389.65 125.39 L 389.98 127.12 L 390.31 128.86 L 390.65 130.59 L 390.99 132.32 L 391.34 134.05 L 391.70 135.78 L 392.06 137.51 L 392.43 139.23 L 392.81 140.96 L 393.19 142.68 L -6.88 232.37 L -7.59 229.15 L -8.30 225.93 L -8.99 222.70 L -9.67 219.48 L -10.33 216.25 L -10.99 213.01 L -11.63 209.78 L -12.26 206.54 L -12.88 203.31 L -13.49 200.06 L -14.08 196.82 L -14.67 193.58 L -15.24 190.33 L -15.79 187.08 L -16.34 183.83 L -16.87 180.57 L -17.40 177.32 L -17.90 174.06 L -18.40 170.80 L -18.89 167.54 L -19.36 164.27 L -19.82 161.01 L -20.27 157.74 L -20.71 154.47 L -21.13 151.20 L -21.54 147.93 L -21.94 144.66 L -22.33 141.38 L -22.70 138.11 L -23.07 134.83 L -23.42 131.55 L -23.76 128.27 L -24.08 124.99 L -24.40 121.71 L -24.70 118.43 L -24.99 115.14 L -25.26 111.86 L -25.53 108.57 L -25.78 105.28 L -26.02 101.99 L -26.25 98.70 L -26.46 95.41 L -26.67 92.12 L -26.86 88.83 L -27.04 85.54 L -27.20 82.24 L -27.36 78.95 L -27.50 75.66 L -27.63 72.36 L -27.74 69.07 L -27.85 65.77 L -27.94 62.47 L -28.02 59.18 L -28.09 55.88 L -28.15 52.58 L -28.19 49.29 L -28.22 45.99 L -28.24 42.69 Z" fill="#a000a0" fill-opacity="0.18" stroke="#a000a0" stroke-width="1.5" stroke-linejoin="round"/>
<circle cx="-28.24" cy="39.39" r="2.0" fill="#5d4037"/>
<text transform="matrix(1,0,0,-1,-46.2,53.4)" font-family="sans-serif" font-size="11" font-weight="700" fill="#5d4037">P0</text>
<circle cx="381.76" cy="39.39" r="2.0" fill="#5d4037"/>
<text transform="matrix(1,0,0,-1,387.8,43.4)" font-family="sans-serif" font-size="11" font-weight="700" fill="#5d4037">P1</text>
<circle cx="393.19" cy="142.68" r="2.0" fill="#5d4037"/>
<text transform="matrix(1,0,0,-1,401.2,158.7)" font-family="sans-serif" font-size="11" font-weight="700" fill="#5d4037">P2</text>
<circle cx="-6.88" cy="232.37" r="2.0" fill="#5d4037"/>
<text transform="matrix(1,0,0,-1,-28.9,248.4)" font-family="sans-serif" font-size="11" font-weight="700" fill="#5d4037">P3</text>
<path d="M -6.88 232.37 L -6.35 234.67 L -5.81 236.97 L -5.25 239.27 L -4.67 241.56 L -4.07 243.84 L -3.45 246.13 L -2.80 248.40 L -2.14 250.67 L -1.45 252.93 L -0.74 255.18 L 0.00 257.43 L 12.21 293.92 L 24.14 329.66 L 35.79 364.66 L 47.18 398.92 L 58.30 432.46 L 69.17 465.28 L 79.80 497.41 L 90.18 528.86 L 100.33 559.62 L 110.25 589.73 L 119.96 619.18 L 129.45 647.99 L 138.74 676.18 L 147.83 703.75 L 156.72 730.71 L 165.43 757.08 L 173.97 782.87 L 182.33 808.09 L 190.53 832.75 L 198.57 856.86 L 206.46 880.44 L 214.21 903.50 L 221.82 926.05 L 229.30 948.09 L 236.66 969.65 L 243.90 990.74 L 251.03 1011.35 L 258.06 1031.52 L 265.00 1051.25 L 271.85 1070.54 L 278.62 1089.42 L 285.31 1107.90 L 291.93 1125.98 L 298.50 1143.67 L 305.01 1161.00 L 311.47 1177.97 L 317.90 1194.59 L 324.29 1210.88 L 330.66 1226.84 L 337.00 1242.49 L 343.34 1257.84 L 349.67 1272.90 L 356.00 1287.69 L 362.34 1302.21 L 368.69 1316.47 L 375.07 1330.50 L 381.48 1344.29 L 387.92 1357.87 L 394.41 1371.24 L 400.94 1384.41 L 407.54 1397.41 L 414.19 1410.23 L 420.92 1422.89 L 427.72 1435.40 L 434.61 1447.78 L 441.60 1460.03 L 448.67 1472.17 L 455.86 1484.21 L 463.16 1496.16 L 470.57 1508.03 L 478.11 1519.84 L 485.79 1531.59 L 493.60 1543.30 L 501.57 1554.98 L 509.68 1566.64 L 517.96 1578.29 L 526.40 1589.95 L 535.02 1601.62 L 543.81 1613.32 L 552.80 1625.06 L 561.98 1636.85 L 571.37 1648.70 L 580.96 1660.63 L 590.77 1672.65 L 600.80 1684.76 L 611.06 1696.98 L 621.56 1709.33 L 632.30 1721.81 L 643.29 1734.43 L 660.42 1753.99 L 720.61 1701.29 L 720.61 1701.29 L 705.27 1661.34 L 691.49 1621.72 L 679.08 1582.02 L 668.16 1542.38 L 658.84 1502.93 L 651.20 1463.75 L 645.25 1424.93 L 640.93 1386.45 L 638.11 1348.25 L 636.60 1310.21 L 636.18 1272.17 L 636.63 1233.99 L 637.74 1195.53 L 639.33 1156.70 L 641.22 1117.47 L 643.27 1077.82 L 645.36 1037.77 L 647.37 997.36 L 649.18 956.64 L 650.69 915.67 L 651.79 874.50 L 652.37 833.21 L 652.32 791.86 L 651.50 750.51 L 649.79 709.23 L 647.01 668.11 L 642.97 627.24 L 637.42 586.70 L 630.07 546.61 L 620.54 507.12 L 608.04 468.50 L 592.66 430.74 L 574.82 393.72 L 554.84 357.35 L 533.01 321.54 L 509.64 286.21 L 485.03 251.28 L 459.53 216.63 L 433.64 182.11 L 408.21 147.43 L 393.19 142.68 C 259.83,172.58 126.48,202.47 -6.88,232.37 Z" fill="#0a7" fill-opacity="0.18" stroke="#0a7" stroke-width="1.5" stroke-linejoin="round"/>
<circle cx="126.48" cy="202.47" r="2.0" fill="#0a8"/>
<text transform="matrix(1,0,0,-1,131.5,197.5)" font-family="sans-serif" font-size="10" font-weight="700" fill="#066">B0i</text>
<circle cx="259.83" cy="172.58" r="2.0" fill="#0a8"/>
<text transform="matrix(1,0,0,-1,264.8,167.6)" font-family="sans-serif" font-size="10" font-weight="700" fill="#066">B1o</text>
<circle cx="518.54" cy="299.36" r="27.18" fill="#fff" fill-opacity="0.85" stroke="#222" stroke-width="0.8"/>
<circle cx="518.54" cy="299.36" r="23.95" fill="none" stroke="#222" stroke-width="0.6" stroke-dasharray="2,2"/>
<text transform="matrix(1,0,0,-1,548.7,302.4)" font-family="sans-serif" font-size="9" fill="#222">1</text>
<circle cx="637.13" cy="584.93" r="23.28" fill="#fff" fill-opacity="0.85" stroke="#222" stroke-width="0.8"/>
<circle cx="637.13" cy="584.93" r="20.05" fill="none" stroke="#222" stroke-width="0.6" stroke-dasharray="2,2"/>
<text transform="matrix(1,0,0,-1,663.4,587.9)" font-family="sans-serif" font-size="9" fill="#222">2</text>
<circle cx="648.65" cy="969.34" r="19.38" fill="#fff" fill-opacity="0.85" stroke="#222" stroke-width="0.8"/>
<circle cx="648.65" cy="969.34" r="16.15" fill="none" stroke="#222" stroke-width="0.6" stroke-dasharray="2,2"/>
<text transform="matrix(1,0,0,-1,671.0,972.3)" font-family="sans-serif" font-size="9" fill="#222">3</text>
<circle cx="638.18" cy="1183.92" r="15.78" fill="#fff" fill-opacity="0.85" stroke="#222" stroke-width="0.8"/>
<circle cx="638.18" cy="1183.92" r="12.55" fill="none" stroke="#222" stroke-width="0.6" stroke-dasharray="2,2"/>
<text transform="matrix(1,0,0,-1,657.0,1186.9)" font-family="sans-serif" font-size="9" fill="#222">4</text>
<circle cx="642.43" cy="1401.39" r="12.23" fill="#fff" fill-opacity="0.85" stroke="#222" stroke-width="0.8"/>
<circle cx="642.43" cy="1401.39" r="9.00" fill="none" stroke="#222" stroke-width="0.6" stroke-dasharray="2,2"/>
<text transform="matrix(1,0,0,-1,657.7,1404.4)" font-family="sans-serif" font-size="9" fill="#222">5</text>
<path d="m -225.34,1761.07 c -7.422,62.964 179.17,195.00 240.291,191.696 61.12,-3.30 94.31993,-85.5633 199.55142,-173.3561 105.23148,-87.7927 398.97426,69.4028 448.50507,70.3018 49.53082,0.899 129.56387,-79.684 57.60,-148.42 -14.62,12.80 -39.01,34.17 -60.19,52.70 52.07,45.07 -58.16,11.44 -78.21,-0.65 -479.77,-278.49 -413.13,-4.77 -551.36,-12.96 -90.474523,-5.3586 -199.366303,-187.3312 -213.67835,-175.24 -4.02116,65.28019 -7.52527,130.59429 -10.51165,195.93 z" fill="#5d4037" fill-opacity="0.18" stroke="#5d4037" stroke-width="1.2"/>
<line x1="-232.76" y1="1824.03" x2="-225.34" y2="1761.07" stroke="#0080a0" stroke-width="0.4" stroke-dasharray="2,2" opacity="0.7"/>
<circle cx="-232.76" cy="1824.03" r="1.8" fill="#0080a0"/>
<text transform="matrix(1,0,0,-1,-233.5,1830.0)" font-family="sans-serif" font-size="9" fill="#003040">N0o</text>
<line x1="-46.17" y1="1956.07" x2="14.95" y2="1952.77" stroke="#0080a0" stroke-width="0.4" stroke-dasharray="2,2" opacity="0.7"/>
<circle cx="-46.17" cy="1956.07" r="1.8" fill="#0080a0"/>
<text transform="matrix(1,0,0,-1,-52.2,1956.4)" font-family="sans-serif" font-size="9" fill="#003040">N9i</text>
<line x1="76.07" y1="1949.47" x2="14.95" y2="1952.77" stroke="#0080a0" stroke-width="0.4" stroke-dasharray="2,2" opacity="0.7"/>
<circle cx="76.07" cy="1949.47" r="1.8" fill="#0080a0"/>
<text transform="matrix(1,0,0,-1,82.1,1949.1)" font-family="sans-serif" font-size="9" fill="#003040">N9o</text>
<line x1="109.27" y1="1867.20" x2="214.50" y2="1779.41" stroke="#0080a0" stroke-width="0.4" stroke-dasharray="2,2" opacity="0.7"/>
<circle cx="109.27" cy="1867.20" r="1.8" fill="#0080a0"/>
<text transform="matrix(1,0,0,-1,104.7,1871.0)" font-family="sans-serif" font-size="9" fill="#003040">N8i</text>
<line x1="319.73" y1="1691.62" x2="214.50" y2="1779.41" stroke="#0080a0" stroke-width="0.4" stroke-dasharray="2,2" opacity="0.7"/>
<circle cx="319.73" cy="1691.62" r="1.8" fill="#0080a0"/>
<text transform="matrix(1,0,0,-1,324.3,1687.8)" font-family="sans-serif" font-size="9" fill="#003040">N8o</text>
<line x1="613.48" y1="1848.81" x2="663.01" y2="1849.71" stroke="#0080a0" stroke-width="0.4" stroke-dasharray="2,2" opacity="0.7"/>
<circle cx="613.48" cy="1848.81" r="1.8" fill="#0080a0"/>
<text transform="matrix(1,0,0,-1,607.5,1848.7)" font-family="sans-serif" font-size="9" fill="#003040">N7i</text>
<line x1="712.54" y1="1850.61" x2="663.01" y2="1849.71" stroke="#0080a0" stroke-width="0.4" stroke-dasharray="2,2" opacity="0.7"/>
<circle cx="712.54" cy="1850.61" r="1.8" fill="#0080a0"/>
<text transform="matrix(1,0,0,-1,718.5,1850.7)" font-family="sans-serif" font-size="9" fill="#003040">N7o</text>
<line x1="792.57" y1="1770.03" x2="720.61" y2="1701.29" stroke="#0080a0" stroke-width="0.4" stroke-dasharray="2,2" opacity="0.7"/>
<circle cx="792.57" cy="1770.03" r="1.8" fill="#0080a0"/>
<text transform="matrix(1,0,0,-1,796.9,1774.2)" font-family="sans-serif" font-size="9" fill="#003040">N6i</text>
<line x1="705.99" y1="1714.09" x2="720.61" y2="1701.29" stroke="#0080a0" stroke-width="0.4" stroke-dasharray="2,2" opacity="0.7"/>
<circle cx="705.99" cy="1714.09" r="1.8" fill="#0080a0"/>
<text transform="matrix(1,0,0,-1,701.5,1718.0)" font-family="sans-serif" font-size="9" fill="#003040">N6o</text>
<line x1="681.60" y1="1735.46" x2="660.42" y2="1753.99" stroke="#0080a0" stroke-width="0.4" stroke-dasharray="2,2" opacity="0.7"/>
<circle cx="681.60" cy="1735.46" r="1.8" fill="#0080a0"/>
<text transform="matrix(1,0,0,-1,686.1,1731.5)" font-family="sans-serif" font-size="9" fill="#003040">N5i</text>
<line x1="712.49" y1="1799.06" x2="660.42" y2="1753.99" stroke="#0080a0" stroke-width="0.4" stroke-dasharray="2,2" opacity="0.7"/>
<circle cx="712.49" cy="1799.06" r="1.8" fill="#0080a0"/>
<text transform="matrix(1,0,0,-1,717.0,1803.0)" font-family="sans-serif" font-size="9" fill="#003040">N5o</text>
<line x1="602.26" y1="1765.43" x2="582.21" y2="1753.34" stroke="#0080a0" stroke-width="0.4" stroke-dasharray="2,2" opacity="0.7"/>
<circle cx="602.26" cy="1765.43" r="1.8" fill="#0080a0"/>
<text transform="matrix(1,0,0,-1,607.4,1768.5)" font-family="sans-serif" font-size="9" fill="#003040">N4i</text>
<line x1="102.44" y1="1474.85" x2="582.21" y2="1753.34" stroke="#0080a0" stroke-width="0.4" stroke-dasharray="2,2" opacity="0.7"/>
<circle cx="102.44" cy="1474.85" r="1.8" fill="#0080a0"/>
<text transform="matrix(1,0,0,-1,97.2,1471.8)" font-family="sans-serif" font-size="9" fill="#003040">N4o</text>
<line x1="169.08" y1="1748.57" x2="30.85" y2="1740.38" stroke="#0080a0" stroke-width="0.4" stroke-dasharray="2,2" opacity="0.7"/>
<circle cx="169.08" cy="1748.57" r="1.8" fill="#0080a0"/>
<text transform="matrix(1,0,0,-1,175.1,1748.9)" font-family="sans-serif" font-size="9" fill="#003040">N3i</text>
<line x1="-59.63" y1="1735.02" x2="30.85" y2="1740.38" stroke="#0080a0" stroke-width="0.4" stroke-dasharray="2,2" opacity="0.7"/>
<circle cx="-59.63" cy="1735.02" r="1.8" fill="#0080a0"/>
<text transform="matrix(1,0,0,-1,-65.6,1734.7)" font-family="sans-serif" font-size="9" fill="#003040">N3o</text>
<line x1="-168.52" y1="1553.05" x2="-182.83" y2="1565.14" stroke="#0080a0" stroke-width="0.4" stroke-dasharray="2,2" opacity="0.7"/>
<circle cx="-168.52" cy="1553.05" r="1.8" fill="#0080a0"/>
<text transform="matrix(1,0,0,-1,-163.9,1549.2)" font-family="sans-serif" font-size="9" fill="#003040">N2i</text>
<line x1="-186.85" y1="1630.42" x2="-182.83" y2="1565.14" stroke="#0080a0" stroke-width="0.4" stroke-dasharray="2,2" opacity="0.7"/>
<circle cx="-186.85" cy="1630.42" r="1.8" fill="#0080a0"/>
<text transform="matrix(1,0,0,-1,-187.2,1636.4)" font-family="sans-serif" font-size="9" fill="#003040">N2o</text>
<line x1="-190.36" y1="1695.74" x2="-193.34" y2="1761.07" stroke="#0080a0" stroke-width="0.4" stroke-dasharray="2,2" opacity="0.7"/>
<circle cx="-190.36" cy="1695.74" r="1.8" fill="#0080a0"/>
<text transform="matrix(1,0,0,-1,-190.1,1689.7)" font-family="sans-serif" font-size="9" fill="#003040">N1i</text>
<line x1="-2.00" y1="231.27" x2="227.33" y2="-0.43" stroke="#a000a0" stroke-width="1.6"/>
<line x1="-2.00" y1="231.27" x2="-2.00" y2="231.27" stroke="#a000a0" stroke-width="1.2"/>
<line x1="227.33" y1="-0.43" x2="375.84" y2="146.57" stroke="#a000a0" stroke-width="1.2"/>
<circle cx="-2.00" cy="231.27" r="2.0" fill="#a000a0"/>
<text transform="matrix(1,0,0,-1,3.0,225.3)" font-family="sans-serif" font-size="11" font-weight="700" fill="#a000a0">Pe1</text>
<circle cx="227.33" cy="-0.43" r="2.0" fill="#a000a0"/>
<text transform="matrix(1,0,0,-1,232.3,11.6)" font-family="sans-serif" font-size="11" font-weight="700" fill="#a000a0">Pe2</text>
<circle cx="-2.00" cy="231.27" r="2.0" fill="#a000a0"/>
<circle cx="375.84" cy="146.57" r="2.0" fill="#a000a0"/>
<text transform="matrix(1,0,0,-1,-24.0,225.3)" font-family="sans-serif" font-size="14" font-weight="700" fill="#a000a0">R1</text>
<text transform="matrix(1,0,0,-1,380.8,154.6)" font-family="sans-serif" font-size="14" font-weight="700" fill="#a000a0">R2</text>
<line x1="-6.88" y1="232.37" x2="393.19" y2="142.68" stroke="#a000a0" stroke-width="1.0" stroke-dasharray="4,3" opacity="0.7"/>
<path d="M 393.19,142.68 L 392.81,140.96 L 392.43,139.23 L 392.06,137.51 L 391.70,135.78 L 391.34,134.05 L 390.99,132.32 L 390.65,130.59 L 390.31,128.86 L 389.98,127.12 L 389.65,125.39 L 389.34,123.65 L 389.02,121.92 L 388.72,120.18 L 388.42,118.44 L 388.13,116.70 L 387.84,114.96 L 387.56,113.21 L 387.29,111.47 L 387.02,109.73 L 386.76,107.98 L 386.51,106.23 L 386.26,104.49 L 386.02,102.74 L 385.79,100.99 L 385.56,99.24 L 385.34,97.49 L 385.13,95.74 L 384.92,93.98 L 384.72,92.23 L 384.53,90.48 L 384.34,88.72 L 384.16,86.97 L 383.98,85.21 L 383.82,83.45 L 383.65,81.69 L 383.50,79.94 L 383.35,78.18 L 383.21,76.42 L 383.07,74.66 L 382.95,72.90 L 382.82,71.14 L 382.71,69.38 L 382.60,67.62 L 382.50,65.85 L 382.40,64.09 L 382.31,62.33 L 382.23,60.57 L 382.16,58.80 L 382.09,57.04 L 382.02,55.28 L 381.97,53.51 L 381.92,51.75 L 381.87,49.98 L 381.84,48.22 L 381.81,46.45 L 381.79,44.69 L 381.77,42.92 L 381.76,41.16 L 381.76,39.39" fill="none" stroke="#a000a0" stroke-width="1.2" opacity="0.85"/>
<path d="M -6.88,232.37 L -7.59,229.15 L -8.30,225.93 L -8.99,222.70 L -9.67,219.48 L -10.33,216.25 L -10.99,213.01 L -11.63,209.78 L -12.26,206.54 L -12.88,203.31 L -13.49,200.06 L -14.08,196.82 L -14.67,193.58 L -15.24,190.33 L -15.79,187.08 L -16.34,183.83 L -16.87,180.57 L -17.40,177.32 L -17.90,174.06 L -18.40,170.80 L -18.89,167.54 L -19.36,164.27 L -19.82,161.01 L -20.27,157.74 L -20.71,154.47 L -21.13,151.20 L -21.54,147.93 L -21.94,144.66 L -22.33,141.38 L -22.70,138.11 L -23.07,134.83 L -23.42,131.55 L -23.76,128.27 L -24.08,124.99 L -24.40,121.71 L -24.70,118.43 L -24.99,115.14 L -25.26,111.86 L -25.53,108.57 L -25.78,105.28 L -26.02,101.99 L -26.25,98.70 L -26.46,95.41 L -26.67,92.12 L -26.86,88.83 L -27.04,85.54 L -27.20,82.24 L -27.36,78.95 L -27.50,75.66 L -27.63,72.36 L -27.74,69.07 L -27.85,65.77 L -27.94,62.47 L -28.02,59.18 L -28.09,55.88 L -28.15,52.58 L -28.19,49.29 L -28.22,45.99 L -28.24,42.69 L -28.24,39.39" fill="none" stroke="#a000a0" stroke-width="1.2" opacity="0.85"/>
<circle cx="853.91" cy="39.39" r="2.5" fill="#a000a0"/>
<text transform="matrix(1,0,0,-1,858.9,43.4)" font-family="sans-serif" font-size="11" font-weight="700" fill="#a000a0">ARC_CENTER</text>
<line x1="853.91" y1="39.39" x2="-28.24" y2="39.39" stroke="#a000a0" stroke-width="0.9" stroke-dasharray="6,3" opacity="0.85"/>
<line x1="853.91" y1="39.39" x2="-6.88" y2="232.37" stroke="#a000a0" stroke-width="0.9" stroke-dasharray="6,3" opacity="0.85"/>
<text transform="matrix(1,0,0,-1,118.7,119.4)" font-family="sans-serif" font-size="12" font-weight="700" fill="#a000a0">rc</text>
<circle cx="70.02" cy="73.22" r="2.0" fill="#a000a0"/>
<text transform="matrix(1,0,0,-1,76.0,77.2)" font-family="sans-serif" font-size="12" font-weight="700" fill="#a000a0">v</text>
<path d="M -2.00,231.27 L -2.00,231.27 -2.00,231.27 L -0.42,221.37 L 1.36,211.67 L 3.37,202.18 L 5.58,192.91 L 8.01,183.84 L 10.65,174.99 L 13.51,166.35 L 16.57,157.92 L 19.85,149.70 L 23.35,141.69 L 27.06,133.90 L 30.98,126.31 L 35.11,118.93 L 39.46,111.77 L 44.02,104.82 L 48.79,98.07 L 53.78,91.54 L 58.98,85.22 L 64.39,79.11 L 70.02,73.22 L 75.86,67.53 L 81.91,62.05 L 88.18,56.79 L 94.66,51.73 L 101.35,46.89 L 108.26,42.26 L 115.38,37.84 L 122.71,33.63 L 130.25,29.63 L 138.01,25.84 L 145.98,22.27 L 154.17,18.90 L 162.57,15.75 L 171.18,12.80 L 180.00,10.07 L 189.04,7.55 L 198.29,5.24 L 207.76,3.14 L 217.44,1.25 L 227.33,-0.43 L 375.84,146.57 Z" fill="#fff" stroke="#a000a0" stroke-width="1.0" opacity="1.0"/>
<line x1="70.02" y1="73.22" x2="675.45" y2="672.44" stroke="#a000a0" stroke-width="0.6" stroke-dasharray="3,2" opacity="0.8"/>
<circle cx="112.66" cy="115.42" r="2.0" fill="#a000a0"/>
<circle cx="675.45" cy="672.44" r="2.5" fill="#a000a0"/>
<line x1="660.42" y1="1753.99" x2="720.61" y2="1701.29" stroke="#cc0000" stroke-width="1.0" stroke-dasharray="4,3" opacity="0.7"/>
<line x1="664.18" y1="1750.70" x2="739.50" y2="1740.55" stroke="#a000a0" stroke-width="1.6"/>
<line x1="664.18" y1="1750.70" x2="664.18" y2="1750.70" stroke="#a000a0" stroke-width="1.2"/>
<line x1="739.50" y1="1740.55" x2="732.78" y2="1690.64" stroke="#a000a0" stroke-width="1.2"/>
<circle cx="664.18" cy="1750.70" r="2.0" fill="#a000a0"/>
<text transform="matrix(1,0,0,-1,669.2,1744.7)" font-family="sans-serif" font-size="11" font-weight="700" fill="#a000a0">Pe3</text>
<circle cx="739.50" cy="1740.55" r="2.0" fill="#a000a0"/>
<text transform="matrix(1,0,0,-1,744.5,1752.6)" font-family="sans-serif" font-size="11" font-weight="700" fill="#a000a0">Pe4</text>
<circle cx="664.18" cy="1750.70" r="2.0" fill="#a000a0"/>
<circle cx="732.78" cy="1690.64" r="2.0" fill="#a000a0"/>
<text transform="matrix(1,0,0,-1,642.2,1744.7)" font-family="sans-serif" font-size="14" font-weight="700" fill="#a000a0">R3</text>
<text transform="matrix(1,0,0,-1,737.8,1698.6)" font-family="sans-serif" font-size="14" font-weight="700" fill="#a000a0">R4</text>
<circle cx="704.78" cy="1767.43" r="2.0" fill="#a000a0"/>
<text transform="matrix(1,0,0,-1,710.8,1771.4)" font-family="sans-serif" font-size="12" font-weight="700" fill="#a000a0">vt</text>
<path d="M 664.18,1750.70 L 664.18,1750.70 664.18,1750.70 L 666.35,1752.57 L 668.51,1754.33 L 670.65,1755.99 L 672.77,1757.53 L 674.88,1758.97 L 676.98,1760.29 L 679.06,1761.51 L 681.13,1762.62 L 683.18,1763.62 L 685.21,1764.51 L 687.24,1765.29 L 689.24,1765.97 L 691.24,1766.53 L 693.22,1766.99 L 695.18,1767.33 L 697.13,1767.57 L 699.06,1767.70 L 700.98,1767.72 L 702.89,1767.63 L 704.78,1767.43 L 706.65,1767.12 L 708.52,1766.70 L 710.36,1766.17 L 712.19,1765.54 L 714.01,1764.80 L 715.81,1763.94 L 717.60,1762.98 L 719.37,1761.91 L 721.13,1760.73 L 722.87,1759.44 L 724.60,1758.04 L 726.32,1756.53 L 728.02,1754.92 L 729.70,1753.19 L 731.37,1751.36 L 733.03,1749.41 L 734.67,1747.36 L 736.29,1745.20 L 737.90,1742.93 L 739.50,1740.55 L 732.78,1690.64 Z" fill="#fff" stroke="#a000a0" stroke-width="1.0" opacity="1.0"/>
<line x1="704.78" y1="1767.43" x2="513.15" y2="344.84" stroke="#a000a0" stroke-width="0.6" stroke-dasharray="3,2" opacity="0.8"/>
<circle cx="701.84" cy="1745.62" r="2.0" fill="#a000a0"/>
<circle cx="513.15" cy="344.84" r="2.5" fill="#a000a0"/>
<text transform="matrix(1,0,0,-1,707.8,1749.6)" font-family="sans-serif" font-size="12" font-weight="700" fill="#a000a0">rct</text>
<path d="M -17.76 39.39 L -21.95 60.96 L -26.11 82.53 L -30.23 104.12 L -34.31 125.70 L -38.35 147.30 L -42.35 168.90 L -46.31 190.52 L -50.23 212.13 L -54.11 233.76 L -57.95 255.39 L -61.74 277.03 L -65.50 298.68 L -69.22 320.33 L -72.90 341.99 L -76.54 363.66 L -80.14 385.34 L -83.69 407.02 L -87.21 428.70 L -90.69 450.40 L -94.13 472.10 L -97.52 493.81 L -100.88 515.52 L -104.19 537.24 L -107.47 558.96 L -110.71 580.69 L -113.90 602.43 L -117.06 624.17 L -120.17 645.92 L -123.25 667.68 L -126.28 689.44 L -129.27 711.20 L -132.23 732.98 L -135.14 754.75 L -138.01 776.53 L -140.84 798.32 L -143.64 820.11 L -146.39 841.91 L -149.10 863.72 L -151.77 885.52 L -154.40 907.34 L -156.99 929.15 L -159.54 950.98 L -162.05 972.80 L -164.51 994.64 L -166.94 1016.47 L -169.33 1038.31 L -171.68 1060.16 L -173.98 1082.01 L -176.25 1103.86 L -178.47 1125.72 L -180.66 1147.58 L -182.80 1169.45 L -184.90 1191.32 L -186.97 1213.19 L -188.99 1235.07 L -190.97 1256.95 L -192.91 1278.83 L -194.81 1300.72 L -196.67 1322.61 L -198.49 1344.51 L -200.27 1366.41 L -202.01 1388.31 L -203.71 1410.22 L -205.36 1432.12 L -206.98 1454.04 L -208.56 1475.95 L -210.09 1497.87 L -211.59 1519.79 L -213.04 1541.71 L -214.45 1563.63 L -215.82 1585.56 L -217.16 1607.49 L -218.45 1629.43 L -219.70 1651.36 L -220.91 1673.30 L -222.08 1695.24 L -223.21 1717.18 L -224.29 1739.12 L -225.34 1761.07 L -193.34 1761.07 L -192.29 1739.12 L -191.21 1717.18 L -190.08 1695.24 L -188.91 1673.30 L -187.70 1651.36 L -186.45 1629.43 L -185.16 1607.49 L -183.82 1585.56 L -182.45 1563.63 L -181.04 1541.71 L -179.59 1519.79 L -178.09 1497.87 L -176.56 1475.95 L -174.98 1454.04 L -173.36 1432.12 L -171.71 1410.22 L -170.01 1388.31 L -168.27 1366.41 L -166.49 1344.51 L -164.67 1322.61 L -162.81 1300.72 L -160.91 1278.83 L -158.97 1256.95 L -156.99 1235.07 L -154.97 1213.19 L -152.90 1191.32 L -150.80 1169.45 L -148.66 1147.58 L -146.47 1125.72 L -144.25 1103.86 L -141.98 1082.01 L -139.68 1060.16 L -137.33 1038.31 L -134.94 1016.47 L -132.51 994.64 L -130.05 972.80 L -127.54 950.98 L -124.99 929.15 L -122.40 907.34 L -119.77 885.52 L -117.10 863.72 L -114.39 841.91 L -111.64 820.11 L -108.84 798.32 L -106.01 776.53 L -103.14 754.75 L -100.23 732.98 L -97.27 711.20 L -94.28 689.44 L -91.25 667.68 L -88.17 645.92 L -85.06 624.17 L -81.90 602.43 L -78.71 580.69 L -75.47 558.96 L -72.19 537.24 L -68.88 515.52 L -65.52 493.81 L -62.13 472.10 L -58.69 450.40 L -55.21 428.70 L -51.69 407.02 L -48.14 385.34 L -44.54 363.66 L -40.90 341.99 L -37.22 320.33 L -33.50 298.68 L -29.74 277.03 L -25.95 255.39 L -22.11 233.76 L -18.23 212.13 L -14.31 190.52 L -10.35 168.90 L -6.35 147.30 L -2.31 125.70 L 1.77 104.12 L 5.89 82.53 L 10.05 60.96 L 14.24 39.39 Z" fill="#1060d0" fill-opacity="0.25" stroke="#1060d0" stroke-width="1.0" stroke-linejoin="round"/>
<circle cx="-17.75" cy="39.39" r="2.0" fill="#5d4037"/>
<text transform="matrix(1,0,0,-1,-39.8,43.4)" font-family="sans-serif" font-size="11" font-weight="700" fill="#5d4037">C0</text>
<circle cx="14.24" cy="39.39" r="2.0" fill="#5d4037"/>
<text transform="matrix(1,0,0,-1,18.2,43.4)" font-family="sans-serif" font-size="11" font-weight="700" fill="#5d4037">C1</text>
<circle cx="-193.34" cy="1761.07" r="2.0" fill="#5d4037"/>
<text transform="matrix(1,0,0,-1,-187.3,1757.1)" font-family="sans-serif" font-size="11" font-weight="700" fill="#5d4037">C2</text>
<circle cx="-225.34" cy="1761.07" r="2.0" fill="#5d4037"/>
<text transform="matrix(1,0,0,-1,-247.3,1757.1)" font-family="sans-serif" font-size="11" font-weight="700" fill="#5d4037">C3</text>
<line x1="0.00" y1="257.43" x2="-184.62" y2="1761.07" stroke="#c00000" stroke-width="2.550" stroke-linecap="round"/>
<line x1="14.45" y1="300.63" x2="-167.10" y2="1779.21" stroke="#888" stroke-width="2.380" stroke-linecap="round"/>
<line x1="28.81" y1="343.69" x2="-149.66" y2="1797.21" stroke="#888" stroke-width="2.244" stroke-linecap="round"/>
<line x1="43.10" y1="386.64" x2="-132.29" y2="1815.10" stroke="#1060d0" stroke-width="2.159" stroke-linecap="round"/>
<line x1="57.33" y1="429.52" x2="-114.37" y2="1827.91" stroke="#888" stroke-width="2.023" stroke-linecap="round"/>
<line x1="71.50" y1="472.32" x2="-96.51" y2="1840.63" stroke="#888" stroke-width="1.938" stroke-linecap="round"/>
<line x1="85.62" y1="515.04" x2="-78.69" y2="1853.28" stroke="#888" stroke-width="1.853" stroke-linecap="round"/>
<line x1="99.69" y1="557.68" x2="-60.93" y2="1865.84" stroke="#c00000" stroke-width="1.785" stroke-linecap="round"/>
<line x1="113.72" y1="600.24" x2="-42.59" y2="1873.31" stroke="#888" stroke-width="1.700" stroke-linecap="round"/>
<line x1="127.69" y1="642.65" x2="-23.70" y2="1875.62" stroke="#888" stroke-width="1.615" stroke-linecap="round"/>
<line x1="141.62" y1="684.92" x2="-7.31" y2="1897.86" stroke="#1060d0" stroke-width="1.547" stroke-linecap="round"/>
<line x1="155.50" y1="727.01" x2="10.88" y2="1904.85" stroke="#888" stroke-width="1.462" stroke-linecap="round"/>
<line x1="169.86" y1="770.46" x2="34.47" y2="1873.13" stroke="#888" stroke-width="2.700" stroke-linecap="round"/>
<line x1="184.66" y1="815.10" x2="56.04" y2="1862.63" stroke="#888" stroke-width="2.700" stroke-linecap="round"/>
<line x1="199.41" y1="859.38" x2="78.79" y2="1841.77" stroke="#c00000" stroke-width="2.700" stroke-linecap="round"/>
<line x1="214.11" y1="903.21" x2="101.49" y2="1820.43" stroke="#888" stroke-width="2.700" stroke-linecap="round"/>
<line x1="228.67" y1="946.25" x2="123.44" y2="1803.31" stroke="#888" stroke-width="2.499" stroke-linecap="round"/>
<line x1="243.14" y1="988.53" x2="146.52" y2="1775.44" stroke="#1060d0" stroke-width="2.499" stroke-linecap="round"/>
<line x1="257.57" y1="1030.11" x2="168.34" y2="1756.86" stroke="#888" stroke-width="2.380" stroke-linecap="round"/>
<line x1="271.93" y1="1070.77" x2="190.69" y2="1732.38" stroke="#888" stroke-width="2.244" stroke-linecap="round"/>
<line x1="286.19" y1="1110.31" x2="210.49" y2="1726.82" stroke="#888" stroke-width="2.023" stroke-linecap="round"/>
<line x1="300.38" y1="1148.70" x2="230.84" y2="1715.06" stroke="#c00000" stroke-width="2.023" stroke-linecap="round"/>
<line x1="314.52" y1="1185.88" x2="250.52" y2="1707.13" stroke="#888" stroke-width="1.853" stroke-linecap="round"/>
<line x1="328.57" y1="1221.63" x2="269.49" y2="1702.81" stroke="#888" stroke-width="1.734" stroke-linecap="round"/>
<line x1="342.59" y1="1256.04" x2="287.82" y2="1702.12" stroke="#1060d0" stroke-width="1.734" stroke-linecap="round"/>
<line x1="356.58" y1="1289.03" x2="306.12" y2="1700.01" stroke="#888" stroke-width="1.649" stroke-linecap="round"/>
<line x1="370.52" y1="1320.52" x2="323.75" y2="1701.43" stroke="#888" stroke-width="1.547" stroke-linecap="round"/>
<line x1="384.40" y1="1350.49" x2="341.32" y2="1701.34" stroke="#888" stroke-width="1.462" stroke-linecap="round"/>
<line x1="398.23" y1="1378.98" x2="358.23" y2="1704.78" stroke="#c00000" stroke-width="1.377" stroke-linecap="round"/>
<line x1="412.04" y1="1406.11" x2="375.11" y2="1706.85" stroke="#888" stroke-width="1.377" stroke-linecap="round"/>
<line x1="425.83" y1="1431.95" x2="391.98" y2="1707.60" stroke="#888" stroke-width="1.292" stroke-linecap="round"/>
<line x1="439.59" y1="1456.54" x2="407.59" y2="1717.17" stroke="#1060d0" stroke-width="1.292" stroke-linecap="round"/>
<line x1="453.33" y1="1480.00" x2="424.41" y2="1715.57" stroke="#888" stroke-width="1.207" stroke-linecap="round"/>
<line x1="467.01" y1="1502.36" x2="439.93" y2="1722.91" stroke="#888" stroke-width="1.105" stroke-linecap="round"/>
<line x1="480.66" y1="1523.76" x2="455.43" y2="1729.26" stroke="#888" stroke-width="1.105" stroke-linecap="round"/>
<line x1="494.34" y1="1544.39" x2="470.95" y2="1734.86" stroke="#c00000" stroke-width="1.207" stroke-linecap="round"/>
<line x1="508.02" y1="1564.27" x2="486.48" y2="1739.69" stroke="#888" stroke-width="1.105" stroke-linecap="round"/>
<line x1="521.67" y1="1583.44" x2="501.98" y2="1743.83" stroke="#888" stroke-width="1.105" stroke-linecap="round"/>
<line x1="535.32" y1="1602.03" x2="517.48" y2="1747.37" stroke="#1060d0" stroke-width="1.105" stroke-linecap="round"/>
<line x1="548.94" y1="1620.04" x2="532.94" y2="1750.35" stroke="#888" stroke-width="1.020" stroke-linecap="round"/>
<line x1="562.52" y1="1637.53" x2="547.75" y2="1757.81" stroke="#888" stroke-width="0.935" stroke-linecap="round"/>
<line x1="576.05" y1="1654.55" x2="562.51" y2="1764.82" stroke="#888" stroke-width="0.867" stroke-linecap="round"/>
<line x1="589.55" y1="1671.16" x2="577.24" y2="1771.40" stroke="#c00000" stroke-width="0.816" stroke-linecap="round"/>
<line x1="603.01" y1="1687.41" x2="591.93" y2="1777.64" stroke="#888" stroke-width="0.765" stroke-linecap="round"/>
<line x1="616.45" y1="1703.34" x2="606.60" y2="1783.54" stroke="#888" stroke-width="0.714" stroke-linecap="round"/>
<line x1="629.87" y1="1719.00" x2="621.25" y2="1789.16" stroke="#1060d0" stroke-width="0.714" stroke-linecap="round"/>
<line x1="643.29" y1="1734.43" x2="635.90" y2="1794.58" stroke="#888" stroke-width="0.714" stroke-linecap="round"/>
<circle cx="-181.22" cy="1799.88" r="8.0" fill="#e0a020" fill-opacity="0.30"/>
<line x1="-184.62" y1="1761.07" x2="-181.22" y2="1799.88" stroke="#444" stroke-width="0.6" stroke-linecap="round"/>
<circle cx="-163.69" cy="1818.02" r="8.0" fill="#e0a020" fill-opacity="0.30"/>
<line x1="-167.10" y1="1779.21" x2="-163.69" y2="1818.02" stroke="#444" stroke-width="0.6" stroke-linecap="round"/>
<circle cx="-146.26" cy="1836.02" r="8.0" fill="#e0a020" fill-opacity="0.30"/>
<line x1="-149.66" y1="1797.21" x2="-146.26" y2="1836.02" stroke="#444" stroke-width="0.6" stroke-linecap="round"/>
<circle cx="-128.89" cy="1853.92" r="8.0" fill="#e0a020" fill-opacity="0.30"/>
<line x1="-132.29" y1="1815.10" x2="-128.89" y2="1853.92" stroke="#444" stroke-width="0.6" stroke-linecap="round"/>
<circle cx="-110.97" cy="1866.72" r="8.0" fill="#e0a020" fill-opacity="0.30"/>
<line x1="-114.37" y1="1827.91" x2="-110.97" y2="1866.72" stroke="#444" stroke-width="0.6" stroke-linecap="round"/>
<circle cx="-93.10" cy="1879.44" r="8.0" fill="#e0a020" fill-opacity="0.30"/>
<line x1="-96.51" y1="1840.63" x2="-93.10" y2="1879.44" stroke="#444" stroke-width="0.6" stroke-linecap="round"/>
<circle cx="-75.29" cy="1892.09" r="8.0" fill="#e0a020" fill-opacity="0.30"/>
<line x1="-78.69" y1="1853.28" x2="-75.29" y2="1892.09" stroke="#444" stroke-width="0.6" stroke-linecap="round"/>
<circle cx="-57.53" cy="1904.65" r="8.0" fill="#e0a020" fill-opacity="0.30"/>
<line x1="-60.93" y1="1865.84" x2="-57.53" y2="1904.65" stroke="#444" stroke-width="0.6" stroke-linecap="round"/>
<circle cx="-39.19" cy="1912.12" r="8.0" fill="#e0a020" fill-opacity="0.30"/>
<line x1="-42.59" y1="1873.31" x2="-39.19" y2="1912.12" stroke="#444" stroke-width="0.6" stroke-linecap="round"/>
<circle cx="-20.30" cy="1914.44" r="8.0" fill="#e0a020" fill-opacity="0.30"/>
<line x1="-23.70" y1="1875.62" x2="-20.30" y2="1914.44" stroke="#444" stroke-width="0.6" stroke-linecap="round"/>
<circle cx="-3.91" cy="1936.67" r="8.0" fill="#e0a020" fill-opacity="0.30"/>
<line x1="-7.31" y1="1897.86" x2="-3.91" y2="1936.67" stroke="#444" stroke-width="0.6" stroke-linecap="round"/>
<circle cx="14.28" cy="1943.66" r="8.0" fill="#e0a020" fill-opacity="0.30"/>
<line x1="10.88" y1="1904.85" x2="14.28" y2="1943.66" stroke="#444" stroke-width="0.6" stroke-linecap="round"/>
<circle cx="37.87" cy="1911.94" r="8.0" fill="#e0a020" fill-opacity="0.30"/>
<line x1="34.47" y1="1873.13" x2="37.87" y2="1911.94" stroke="#444" stroke-width="0.6" stroke-linecap="round"/>
<circle cx="59.44" cy="1901.44" r="8.0" fill="#e0a020" fill-opacity="0.30"/>
<line x1="56.04" y1="1862.63" x2="59.44" y2="1901.44" stroke="#444" stroke-width="0.6" stroke-linecap="round"/>
<circle cx="82.19" cy="1880.58" r="8.0" fill="#e0a020" fill-opacity="0.30"/>
<line x1="78.79" y1="1841.77" x2="82.19" y2="1880.58" stroke="#444" stroke-width="0.6" stroke-linecap="round"/>
<circle cx="104.89" cy="1859.24" r="8.0" fill="#e0a020" fill-opacity="0.30"/>
<line x1="101.49" y1="1820.43" x2="104.89" y2="1859.24" stroke="#444" stroke-width="0.6" stroke-linecap="round"/>
<circle cx="126.84" cy="1842.12" r="8.0" fill="#e0a020" fill-opacity="0.30"/>
<line x1="123.44" y1="1803.31" x2="126.84" y2="1842.12" stroke="#444" stroke-width="0.6" stroke-linecap="round"/>
<circle cx="149.92" cy="1814.25" r="8.0" fill="#e0a020" fill-opacity="0.30"/>
<line x1="146.52" y1="1775.44" x2="149.92" y2="1814.25" stroke="#444" stroke-width="0.6" stroke-linecap="round"/>
<circle cx="171.74" cy="1795.67" r="8.0" fill="#e0a020" fill-opacity="0.30"/>
<line x1="168.34" y1="1756.86" x2="171.74" y2="1795.67" stroke="#444" stroke-width="0.6" stroke-linecap="round"/>
<circle cx="194.10" cy="1771.19" r="8.0" fill="#e0a020" fill-opacity="0.30"/>
<line x1="190.69" y1="1732.38" x2="194.10" y2="1771.19" stroke="#444" stroke-width="0.6" stroke-linecap="round"/>
<circle cx="213.90" cy="1765.63" r="8.0" fill="#e0a020" fill-opacity="0.30"/>
<line x1="210.49" y1="1726.82" x2="213.90" y2="1765.63" stroke="#444" stroke-width="0.6" stroke-linecap="round"/>
<circle cx="234.24" cy="1753.87" r="8.0" fill="#e0a020" fill-opacity="0.30"/>
<line x1="230.84" y1="1715.06" x2="234.24" y2="1753.87" stroke="#444" stroke-width="0.6" stroke-linecap="round"/>
<circle cx="253.92" cy="1745.95" r="8.0" fill="#e0a020" fill-opacity="0.30"/>
<line x1="250.52" y1="1707.13" x2="253.92" y2="1745.95" stroke="#444" stroke-width="0.6" stroke-linecap="round"/>
<circle cx="272.89" cy="1741.62" r="8.0" fill="#e0a020" fill-opacity="0.30"/>
<line x1="269.49" y1="1702.81" x2="272.89" y2="1741.62" stroke="#444" stroke-width="0.6" stroke-linecap="round"/>
<circle cx="291.22" cy="1740.93" r="8.0" fill="#e0a020" fill-opacity="0.30"/>
<line x1="287.82" y1="1702.12" x2="291.22" y2="1740.93" stroke="#444" stroke-width="0.6" stroke-linecap="round"/>
<circle cx="309.52" cy="1738.82" r="8.0" fill="#e0a020" fill-opacity="0.30"/>
<line x1="306.12" y1="1700.01" x2="309.52" y2="1738.82" stroke="#444" stroke-width="0.6" stroke-linecap="round"/>
<circle cx="327.15" cy="1740.24" r="8.0" fill="#e0a020" fill-opacity="0.30"/>
<line x1="323.75" y1="1701.43" x2="327.15" y2="1740.24" stroke="#444" stroke-width="0.6" stroke-linecap="round"/>
<circle cx="344.72" cy="1740.15" r="8.0" fill="#e0a020" fill-opacity="0.30"/>
<line x1="341.32" y1="1701.34" x2="344.72" y2="1740.15" stroke="#444" stroke-width="0.6" stroke-linecap="round"/>
<circle cx="361.63" cy="1743.59" r="8.0" fill="#e0a020" fill-opacity="0.30"/>
<line x1="358.23" y1="1704.78" x2="361.63" y2="1743.59" stroke="#444" stroke-width="0.6" stroke-linecap="round"/>
<circle cx="378.52" cy="1745.66" r="8.0" fill="#e0a020" fill-opacity="0.30"/>
<line x1="375.11" y1="1706.85" x2="378.52" y2="1745.66" stroke="#444" stroke-width="0.6" stroke-linecap="round"/>
<circle cx="395.39" cy="1746.41" r="8.0" fill="#e0a020" fill-opacity="0.30"/>
<line x1="391.98" y1="1707.60" x2="395.39" y2="1746.41" stroke="#444" stroke-width="0.6" stroke-linecap="round"/>
<circle cx="410.99" cy="1755.98" r="8.0" fill="#e0a020" fill-opacity="0.30"/>
<line x1="407.59" y1="1717.17" x2="410.99" y2="1755.98" stroke="#444" stroke-width="0.6" stroke-linecap="round"/>
<circle cx="427.81" cy="1754.38" r="8.0" fill="#e0a020" fill-opacity="0.30"/>
<line x1="424.41" y1="1715.57" x2="427.81" y2="1754.38" stroke="#444" stroke-width="0.6" stroke-linecap="round"/>
<circle cx="443.33" cy="1761.72" r="8.0" fill="#e0a020" fill-opacity="0.30"/>
<line x1="439.93" y1="1722.91" x2="443.33" y2="1761.72" stroke="#444" stroke-width="0.6" stroke-linecap="round"/>
<circle cx="458.83" cy="1768.07" r="8.0" fill="#e0a020" fill-opacity="0.30"/>
<line x1="455.43" y1="1729.26" x2="458.83" y2="1768.07" stroke="#444" stroke-width="0.6" stroke-linecap="round"/>
<circle cx="474.36" cy="1773.67" r="8.0" fill="#e0a020" fill-opacity="0.30"/>
<line x1="470.95" y1="1734.86" x2="474.36" y2="1773.67" stroke="#444" stroke-width="0.6" stroke-linecap="round"/>
<circle cx="489.88" cy="1778.50" r="8.0" fill="#e0a020" fill-opacity="0.30"/>
<line x1="486.48" y1="1739.69" x2="489.88" y2="1778.50" stroke="#444" stroke-width="0.6" stroke-linecap="round"/>
<circle cx="505.38" cy="1782.65" r="8.0" fill="#e0a020" fill-opacity="0.30"/>
<line x1="501.98" y1="1743.83" x2="505.38" y2="1782.65" stroke="#444" stroke-width="0.6" stroke-linecap="round"/>
<circle cx="520.88" cy="1786.18" r="8.0" fill="#e0a020" fill-opacity="0.30"/>
<line x1="517.48" y1="1747.37" x2="520.88" y2="1786.18" stroke="#444" stroke-width="0.6" stroke-linecap="round"/>
<circle cx="536.34" cy="1789.16" r="8.0" fill="#e0a020" fill-opacity="0.30"/>
<line x1="532.94" y1="1750.35" x2="536.34" y2="1789.16" stroke="#444" stroke-width="0.6" stroke-linecap="round"/>
<circle cx="551.15" cy="1796.62" r="8.0" fill="#e0a020" fill-opacity="0.30"/>
<line x1="547.75" y1="1757.81" x2="551.15" y2="1796.62" stroke="#444" stroke-width="0.6" stroke-linecap="round"/>
<circle cx="565.91" cy="1803.63" r="8.0" fill="#e0a020" fill-opacity="0.30"/>
<line x1="562.51" y1="1764.82" x2="565.91" y2="1803.63" stroke="#444" stroke-width="0.6" stroke-linecap="round"/>
<circle cx="580.64" cy="1810.21" r="8.0" fill="#e0a020" fill-opacity="0.30"/>
<line x1="577.24" y1="1771.40" x2="580.64" y2="1810.21" stroke="#444" stroke-width="0.6" stroke-linecap="round"/>
<circle cx="595.33" cy="1816.45" r="8.0" fill="#e0a020" fill-opacity="0.30"/>
<line x1="591.93" y1="1777.64" x2="595.33" y2="1816.45" stroke="#444" stroke-width="0.6" stroke-linecap="round"/>
<circle cx="610.01" cy="1822.35" r="8.0" fill="#e0a020" fill-opacity="0.30"/>
<line x1="606.60" y1="1783.54" x2="610.01" y2="1822.35" stroke="#444" stroke-width="0.6" stroke-linecap="round"/>
<circle cx="624.66" cy="1827.97" r="8.0" fill="#e0a020" fill-opacity="0.30"/>
<line x1="621.25" y1="1789.16" x2="624.66" y2="1827.97" stroke="#444" stroke-width="0.6" stroke-linecap="round"/>
<circle cx="639.31" cy="1833.39" r="8.0" fill="#e0a020" fill-opacity="0.30"/>
<line x1="635.90" y1="1794.58" x2="639.31" y2="1833.39" stroke="#444" stroke-width="0.6" stroke-linecap="round"/>
<circle cx="-184.62" cy="1761.07" r="8.0" fill="#c00000" fill-opacity="0.30"/>
<circle cx="-174.26" cy="1676.68" r="8.0" fill="#2ca02c" fill-opacity="0.30"/>
<circle cx="-164.48" cy="1597.02" r="8.0" fill="#1060d0" fill-opacity="0.30"/>
<circle cx="-167.10" cy="1779.21" r="8.0" fill="#c00000" fill-opacity="0.30"/>
<circle cx="-156.91" cy="1696.23" r="8.0" fill="#2ca02c" fill-opacity="0.30"/>
<circle cx="-147.29" cy="1617.90" r="8.0" fill="#1060d0" fill-opacity="0.30"/>
<circle cx="-149.66" cy="1797.21" r="8.0" fill="#c00000" fill-opacity="0.30"/>
<circle cx="-139.64" cy="1715.63" r="8.0" fill="#2ca02c" fill-opacity="0.30"/>
<circle cx="-130.19" cy="1638.63" r="8.0" fill="#1060d0" fill-opacity="0.30"/>
<circle cx="-132.29" cy="1815.10" r="8.0" fill="#c00000" fill-opacity="0.30"/>
<circle cx="-122.45" cy="1734.93" r="8.0" fill="#2ca02c" fill-opacity="0.30"/>
<circle cx="-113.16" cy="1659.26" r="8.0" fill="#1060d0" fill-opacity="0.30"/>
<circle cx="-114.37" cy="1827.91" r="8.0" fill="#c00000" fill-opacity="0.30"/>
<circle cx="-104.73" cy="1749.42" r="8.0" fill="#2ca02c" fill-opacity="0.30"/>
<circle cx="-95.64" cy="1675.34" r="8.0" fill="#1060d0" fill-opacity="0.30"/>
<circle cx="-96.51" cy="1840.63" r="8.0" fill="#c00000" fill-opacity="0.30"/>
<circle cx="-87.08" cy="1763.83" r="8.0" fill="#2ca02c" fill-opacity="0.30"/>
<circle cx="-78.18" cy="1691.34" r="8.0" fill="#1060d0" fill-opacity="0.30"/>
<circle cx="-78.69" cy="1853.28" r="8.0" fill="#c00000" fill-opacity="0.30"/>
<circle cx="-69.47" cy="1778.17" r="8.0" fill="#2ca02c" fill-opacity="0.30"/>
<circle cx="-60.77" cy="1707.27" r="8.0" fill="#1060d0" fill-opacity="0.30"/>
<circle cx="-60.93" cy="1865.84" r="8.0" fill="#c00000" fill-opacity="0.30"/>
<circle cx="-51.92" cy="1792.42" r="8.0" fill="#2ca02c" fill-opacity="0.30"/>
<circle cx="-43.41" cy="1723.12" r="8.0" fill="#1060d0" fill-opacity="0.30"/>
<circle cx="-42.59" cy="1873.31" r="8.0" fill="#c00000" fill-opacity="0.30"/>
<circle cx="-33.82" cy="1801.86" r="8.0" fill="#2ca02c" fill-opacity="0.30"/>
<circle cx="-25.54" cy="1734.41" r="8.0" fill="#1060d0" fill-opacity="0.30"/>
<circle cx="-23.70" cy="1875.62" r="8.0" fill="#c00000" fill-opacity="0.30"/>
<circle cx="-15.20" cy="1806.42" r="8.0" fill="#2ca02c" fill-opacity="0.30"/>
<circle cx="-7.18" cy="1741.11" r="8.0" fill="#1060d0" fill-opacity="0.30"/>
<circle cx="-7.31" cy="1897.86" r="8.0" fill="#c00000" fill-opacity="0.30"/>
<circle cx="1.05" cy="1829.78" r="8.0" fill="#2ca02c" fill-opacity="0.30"/>
<circle cx="8.94" cy="1765.52" r="8.0" fill="#1060d0" fill-opacity="0.30"/>
<circle cx="10.88" cy="1904.85" r="8.0" fill="#c00000" fill-opacity="0.30"/>
<circle cx="19.00" cy="1838.74" r="8.0" fill="#2ca02c" fill-opacity="0.30"/>
<circle cx="26.66" cy="1776.34" r="8.0" fill="#1060d0" fill-opacity="0.30"/>
<circle cx="34.47" cy="1873.13" r="8.0" fill="#c00000" fill-opacity="0.30"/>
<circle cx="42.07" cy="1811.24" r="8.0" fill="#2ca02c" fill-opacity="0.30"/>
<circle cx="49.24" cy="1752.82" r="8.0" fill="#1060d0" fill-opacity="0.30"/>
<circle cx="56.04" cy="1862.63" r="8.0" fill="#c00000" fill-opacity="0.30"/>
<circle cx="63.26" cy="1803.84" r="8.0" fill="#2ca02c" fill-opacity="0.30"/>
<circle cx="70.07" cy="1748.35" r="8.0" fill="#1060d0" fill-opacity="0.30"/>
<circle cx="78.79" cy="1841.77" r="8.0" fill="#c00000" fill-opacity="0.30"/>
<circle cx="85.56" cy="1786.63" r="8.0" fill="#2ca02c" fill-opacity="0.30"/>
<circle cx="91.95" cy="1734.59" r="8.0" fill="#1060d0" fill-opacity="0.30"/>
<circle cx="101.49" cy="1820.43" r="8.0" fill="#c00000" fill-opacity="0.30"/>
<circle cx="107.81" cy="1768.95" r="8.0" fill="#2ca02c" fill-opacity="0.30"/>
<circle cx="113.78" cy="1720.36" r="8.0" fill="#1060d0" fill-opacity="0.30"/>
<circle cx="123.44" cy="1803.31" r="8.0" fill="#c00000" fill-opacity="0.30"/>
<circle cx="129.34" cy="1755.21" r="8.0" fill="#2ca02c" fill-opacity="0.30"/>
<circle cx="134.92" cy="1709.80" r="8.0" fill="#1060d0" fill-opacity="0.30"/>
<circle cx="146.52" cy="1775.44" r="8.0" fill="#c00000" fill-opacity="0.30"/>
<circle cx="151.94" cy="1731.27" r="8.0" fill="#2ca02c" fill-opacity="0.30"/>
<circle cx="157.06" cy="1689.58" r="8.0" fill="#1060d0" fill-opacity="0.30"/>
<circle cx="168.34" cy="1756.86" r="8.0" fill="#c00000" fill-opacity="0.30"/>
<circle cx="173.34" cy="1716.07" r="8.0" fill="#2ca02c" fill-opacity="0.30"/>
<circle cx="178.07" cy="1677.57" r="8.0" fill="#1060d0" fill-opacity="0.30"/>
<circle cx="190.69" cy="1732.38" r="8.0" fill="#c00000" fill-opacity="0.30"/>
<circle cx="195.25" cy="1695.24" r="8.0" fill="#2ca02c" fill-opacity="0.30"/>
<circle cx="199.56" cy="1660.19" r="8.0" fill="#1060d0" fill-opacity="0.30"/>
<circle cx="210.49" cy="1726.82" r="8.0" fill="#c00000" fill-opacity="0.30"/>
<circle cx="214.74" cy="1692.21" r="8.0" fill="#2ca02c" fill-opacity="0.30"/>
<circle cx="218.75" cy="1659.56" r="8.0" fill="#1060d0" fill-opacity="0.30"/>
<circle cx="230.84" cy="1715.06" r="8.0" fill="#c00000" fill-opacity="0.30"/>
<circle cx="234.74" cy="1683.27" r="8.0" fill="#2ca02c" fill-opacity="0.30"/>
<circle cx="238.43" cy="1653.27" r="8.0" fill="#1060d0" fill-opacity="0.30"/>
<circle cx="250.52" cy="1707.13" r="8.0" fill="#c00000" fill-opacity="0.30"/>
<circle cx="254.11" cy="1677.88" r="8.0" fill="#2ca02c" fill-opacity="0.30"/>
<circle cx="257.50" cy="1650.26" r="8.0" fill="#1060d0" fill-opacity="0.30"/>
<circle cx="269.49" cy="1702.81" r="8.0" fill="#c00000" fill-opacity="0.30"/>
<circle cx="272.81" cy="1675.80" r="8.0" fill="#2ca02c" fill-opacity="0.30"/>
<circle cx="275.94" cy="1650.31" r="8.0" fill="#1060d0" fill-opacity="0.30"/>
<circle cx="287.82" cy="1702.12" r="8.0" fill="#c00000" fill-opacity="0.30"/>
<circle cx="290.89" cy="1677.08" r="8.0" fill="#2ca02c" fill-opacity="0.30"/>
<circle cx="293.79" cy="1653.45" r="8.0" fill="#1060d0" fill-opacity="0.30"/>
<circle cx="306.12" cy="1700.01" r="8.0" fill="#c00000" fill-opacity="0.30"/>
<circle cx="308.95" cy="1676.95" r="8.0" fill="#2ca02c" fill-opacity="0.30"/>
<circle cx="311.62" cy="1655.17" r="8.0" fill="#1060d0" fill-opacity="0.30"/>
<circle cx="323.75" cy="1701.43" r="8.0" fill="#c00000" fill-opacity="0.30"/>
<circle cx="326.38" cy="1680.05" r="8.0" fill="#2ca02c" fill-opacity="0.30"/>
<circle cx="328.85" cy="1659.87" r="8.0" fill="#1060d0" fill-opacity="0.30"/>
<circle cx="341.32" cy="1701.34" r="8.0" fill="#c00000" fill-opacity="0.30"/>
<circle cx="343.74" cy="1681.65" r="8.0" fill="#2ca02c" fill-opacity="0.30"/>
<circle cx="346.02" cy="1663.06" r="8.0" fill="#1060d0" fill-opacity="0.30"/>
<circle cx="358.23" cy="1704.78" r="8.0" fill="#c00000" fill-opacity="0.30"/>
<circle cx="360.47" cy="1686.49" r="8.0" fill="#2ca02c" fill-opacity="0.30"/>
<circle cx="362.59" cy="1669.23" r="8.0" fill="#1060d0" fill-opacity="0.30"/>
<circle cx="375.11" cy="1706.85" r="8.0" fill="#c00000" fill-opacity="0.30"/>
<circle cx="377.19" cy="1689.97" r="8.0" fill="#2ca02c" fill-opacity="0.30"/>
<circle cx="379.14" cy="1674.04" r="8.0" fill="#1060d0" fill-opacity="0.30"/>
<circle cx="391.98" cy="1707.60" r="8.0" fill="#c00000" fill-opacity="0.30"/>
<circle cx="393.88" cy="1692.13" r="8.0" fill="#2ca02c" fill-opacity="0.30"/>
<circle cx="395.68" cy="1677.53" r="8.0" fill="#1060d0" fill-opacity="0.30"/>
<circle cx="407.59" cy="1717.17" r="8.0" fill="#c00000" fill-opacity="0.30"/>
<circle cx="409.38" cy="1702.54" r="8.0" fill="#2ca02c" fill-opacity="0.30"/>
<circle cx="411.08" cy="1688.73" r="8.0" fill="#1060d0" fill-opacity="0.30"/>
<circle cx="424.41" cy="1715.57" r="8.0" fill="#c00000" fill-opacity="0.30"/>
<circle cx="426.03" cy="1702.35" r="8.0" fill="#2ca02c" fill-opacity="0.30"/>
<circle cx="427.56" cy="1689.87" r="8.0" fill="#1060d0" fill-opacity="0.30"/>
<circle cx="439.93" cy="1722.91" r="8.0" fill="#c00000" fill-opacity="0.30"/>
<circle cx="441.45" cy="1710.53" r="8.0" fill="#2ca02c" fill-opacity="0.30"/>
<circle cx="442.88" cy="1698.84" r="8.0" fill="#1060d0" fill-opacity="0.30"/>
<circle cx="455.43" cy="1729.26" r="8.0" fill="#c00000" fill-opacity="0.30"/>
<circle cx="456.85" cy="1717.72" r="8.0" fill="#2ca02c" fill-opacity="0.30"/>
<circle cx="458.18" cy="1706.84" r="8.0" fill="#1060d0" fill-opacity="0.30"/>
<circle cx="470.95" cy="1734.86" r="8.0" fill="#c00000" fill-opacity="0.30"/>
<circle cx="472.27" cy="1724.17" r="8.0" fill="#2ca02c" fill-opacity="0.30"/>
<circle cx="473.50" cy="1714.07" r="8.0" fill="#1060d0" fill-opacity="0.30"/>
<circle cx="486.48" cy="1739.69" r="8.0" fill="#c00000" fill-opacity="0.30"/>
<circle cx="487.69" cy="1729.84" r="8.0" fill="#2ca02c" fill-opacity="0.30"/>
<circle cx="488.83" cy="1720.55" r="8.0" fill="#1060d0" fill-opacity="0.30"/>
<circle cx="501.98" cy="1743.83" r="8.0" fill="#c00000" fill-opacity="0.30"/>
<circle cx="503.08" cy="1734.83" r="8.0" fill="#2ca02c" fill-opacity="0.30"/>
<circle cx="504.12" cy="1726.34" r="8.0" fill="#1060d0" fill-opacity="0.30"/>
<circle cx="517.48" cy="1747.37" r="8.0" fill="#c00000" fill-opacity="0.30"/>
<circle cx="518.48" cy="1739.21" r="8.0" fill="#2ca02c" fill-opacity="0.30"/>
<circle cx="519.42" cy="1731.51" r="8.0" fill="#1060d0" fill-opacity="0.30"/>
<circle cx="532.94" cy="1750.35" r="8.0" fill="#c00000" fill-opacity="0.30"/>
<circle cx="533.84" cy="1743.04" r="8.0" fill="#2ca02c" fill-opacity="0.30"/>
<circle cx="534.69" cy="1736.14" r="8.0" fill="#1060d0" fill-opacity="0.30"/>
<circle cx="547.75" cy="1757.81" r="8.0" fill="#c00000" fill-opacity="0.30"/>
<circle cx="548.58" cy="1751.06" r="8.0" fill="#2ca02c" fill-opacity="0.30"/>
<circle cx="549.36" cy="1744.69" r="8.0" fill="#1060d0" fill-opacity="0.30"/>
<circle cx="562.51" cy="1764.82" r="8.0" fill="#c00000" fill-opacity="0.30"/>
<circle cx="563.27" cy="1758.63" r="8.0" fill="#2ca02c" fill-opacity="0.30"/>
<circle cx="563.99" cy="1752.79" r="8.0" fill="#1060d0" fill-opacity="0.30"/>
<circle cx="577.24" cy="1771.40" r="8.0" fill="#c00000" fill-opacity="0.30"/>
<circle cx="577.93" cy="1765.78" r="8.0" fill="#2ca02c" fill-opacity="0.30"/>
<circle cx="578.58" cy="1760.47" r="8.0" fill="#1060d0" fill-opacity="0.30"/>
<circle cx="591.93" cy="1777.64" r="8.0" fill="#c00000" fill-opacity="0.30"/>
<circle cx="592.55" cy="1772.57" r="8.0" fill="#2ca02c" fill-opacity="0.30"/>
<circle cx="593.14" cy="1767.79" r="8.0" fill="#1060d0" fill-opacity="0.30"/>
<circle cx="606.60" cy="1783.54" r="8.0" fill="#c00000" fill-opacity="0.30"/>
<circle cx="607.16" cy="1779.03" r="8.0" fill="#2ca02c" fill-opacity="0.30"/>
<circle cx="607.68" cy="1774.79" r="8.0" fill="#1060d0" fill-opacity="0.30"/>
<circle cx="621.25" cy="1789.16" r="8.0" fill="#c00000" fill-opacity="0.30"/>
<circle cx="621.74" cy="1785.22" r="8.0" fill="#2ca02c" fill-opacity="0.30"/>
<circle cx="622.20" cy="1781.50" r="8.0" fill="#1060d0" fill-opacity="0.30"/>
<circle cx="635.90" cy="1794.58" r="8.0" fill="#c00000" fill-opacity="0.30"/>
<circle cx="636.32" cy="1791.21" r="8.0" fill="#2ca02c" fill-opacity="0.30"/>
<circle cx="636.71" cy="1788.02" r="8.0" fill="#1060d0" fill-opacity="0.30"/>
<path d="M 647.299,1762.286 C 647.525,1766.335 644.690,1769.917 640.699,1770.691 C 629.118,1771.530 619.429,1763.565 605.113,1758.777 C 590.960,1754.045 576.733,1746.415 559.683,1740.235 C 541.942,1733.806 521.303,1728.775 502.876,1721.120 C 472.904,1708.669 440.838,1705.436 409.818,1694.640 C 360.636,1677.524 315.343,1674.320 274.310,1680.183 C 254.244,1683.026 233.910,1688.801 218.571,1703.999 C 201.486,1720.926 183.884,1726.626 176.086,1732.249 C 161.478,1744.559 143.393,1761.018 132.254,1778.518 C 116.897,1802.683 84.167,1811.529 63.932,1838.018 C 51.362,1854.345 31.457,1864.558 16.951,1882.116 C 14.240,1881.143 12.767,1881.000 11.409,1880.482 L -6.778,1873.486 C -7.205,1873.322 -7.618,1873.124 -8.016,1872.899 L -61.630,1840.869 C -61.807,1840.763 -61.980,1840.651 -62.148,1840.532 L -79.916,1827.976 L -79.930,1827.970 L -97.745,1815.323 C -97.743,1815.317 -97.743,1815.312 -97.745,1815.311 L -115.608,1802.593 C -115.611,1802.593 -115.615,1802.593 -115.618,1802.583 L -133.541,1789.777 C -133.932,1789.498 -134.297,1789.184 -134.632,1788.839 L -151.999,1770.940 C -152.000,1770.940 -152.002,1770.940 -152.003,1770.940 L -169.440,1752.946 C -169.443,1752.946 -169.446,1752.936 -169.448,1752.936 L -186.975,1734.792 C -188.249,1733.474 -189.031,1731.758 -189.191,1729.933 L -192.599,1691.121 C -192.650,1690.564 -192.641,1690.003 -192.571,1689.448 L -182.212,1605.054 L -182.212,1605.054 L -172.604,1525.238 C -172.156,1520.738 -165.867,1516.717 -161.362,1517.387 C -161.327,1517.433 -72.547,1629.039 -1.189,1663.197 C 28.542,1677.428 62.461,1675.628 88.335,1656.677 C 109.169,1642.537 134.736,1614.744 153.399,1610.538 C 177.488,1605.110 177.666,1587.253 197.015,1581.219 C 244.548,1566.396 276.896,1571.720 276.897,1571.714 C 276.937,1571.712 276.977,1571.722 277.016,1571.730 L 312.704,1576.593 C 312.943,1576.623 313.180,1576.666 313.414,1576.723 L 347.811,1584.614 C 347.961,1584.646 348.111,1584.685 348.259,1584.730 L 397.916,1599.192 C 398.137,1599.254 398.355,1599.328 398.569,1599.413 L 430.453,1611.758 C 430.549,1611.793 430.643,1611.832 430.743,1611.860 L 477.304,1635.143 L 537.860,1658.138 C 538.015,1658.203 538.166,1658.274 538.314,1658.352 L 640.341,1710.237 C 642.881,1711.526 644.542,1714.070 644.703,1716.914 Z" fill="none" stroke="#0a8" stroke-width="0.8" stroke-dasharray="4,3" opacity="0.85"/>
<circle cx="-225.34" cy="1761.07" r="2.0" fill="#202020"/>
<text transform="matrix(1,0,0,-1,-217.3,1769.1)" font-family="sans-serif" font-size="14" font-weight="700" fill="#202020">N0</text>
<circle cx="-193.34" cy="1761.07" r="2.0" fill="#202020"/>
<text transform="matrix(1,0,0,-1,-185.3,1753.1)" font-family="sans-serif" font-size="14" font-weight="700" fill="#202020">N1</text>
<circle cx="-182.83" cy="1565.14" r="2.0" fill="#202020"/>
<text transform="matrix(1,0,0,-1,-207.8,1557.1)" font-family="sans-serif" font-size="14" font-weight="700" fill="#202020">N2</text>
<circle cx="30.85" cy="1740.38" r="2.0" fill="#202020"/>
<text transform="matrix(1,0,0,-1,36.8,1748.4)" font-family="sans-serif" font-size="14" font-weight="700" fill="#202020">N3</text>
<circle cx="582.21" cy="1753.34" r="2.0" fill="#202020"/>
<text transform="matrix(1,0,0,-1,588.2,1761.3)" font-family="sans-serif" font-size="14" font-weight="700" fill="#202020">N4</text>
<circle cx="660.42" cy="1753.99" r="2.0" fill="#202020"/>
<text transform="matrix(1,0,0,-1,668.4,1764.0)" font-family="sans-serif" font-size="14" font-weight="700" fill="#202020">N5</text>
<circle cx="720.61" cy="1701.29" r="2.0" fill="#202020"/>
<text transform="matrix(1,0,0,-1,726.6,1709.3)" font-family="sans-serif" font-size="14" font-weight="700" fill="#202020">N6</text>
<circle cx="663.01" cy="1849.71" r="2.0" fill="#202020"/>
<text transform="matrix(1,0,0,-1,669.0,1841.7)" font-family="sans-serif" font-size="14" font-weight="700" fill="#202020">N7</text>
<circle cx="214.50" cy="1779.41" r="2.0" fill="#202020"/>
<text transform="matrix(1,0,0,-1,220.5,1787.4)" font-family="sans-serif" font-size="14" font-weight="700" fill="#202020">N8</text>
<circle cx="14.95" cy="1952.77" r="2.0" fill="#202020"/>
<text transform="matrix(1,0,0,-1,21.0,1960.8)" font-family="sans-serif" font-size="14" font-weight="700" fill="#202020">N9</text>
<circle cx="-6.88" cy="232.37" r="2.0" fill="#202020"/>
<text transform="matrix(1,0,0,-1,-28.9,220.4)" font-family="sans-serif" font-size="14" font-weight="700" fill="#202020">B0</text>
<circle cx="393.19" cy="142.68" r="2.0" fill="#202020"/>
<text transform="matrix(1,0,0,-1,401.2,130.7)" font-family="sans-serif" font-size="14" font-weight="700" fill="#202020">B1</text>
<circle cx="720.61" cy="1701.29" r="2.0" fill="#202020"/>
<text transform="matrix(1,0,0,-1,728.6,1691.3)" font-family="sans-serif" font-size="14" font-weight="700" fill="#202020">B2</text>
<circle cx="660.42" cy="1753.99" r="2.0" fill="#202020"/>
<text transform="matrix(1,0,0,-1,642.4,1744.0)" font-family="sans-serif" font-size="14" font-weight="700" fill="#202020">B3</text>
</g></g></g>
<g transform="translate(1085.9, 0.0)">
<rect x="0" y="50.0" width="1085.9" height="2144.8" fill="none" stroke="#ccc" stroke-width="0.6"/>
<text x="10" y="32" font-family="sans-serif" font-size="22" font-weight="bold" fill="#000">Top view (xy, project along -z)</text>
<g transform="translate(207.3, 1122.4)">
<g transform="scale(1,-1)">
<path d="M 178.21 225.63 L 177.77 225.63 L 177.31 225.63 L 176.94 225.63 L 176.69 225.63 L 176.59 225.63 L 176.63 225.63 L 176.85 225.63 L 177.25 225.63 L 177.83 225.63 L 178.62 225.63 L 179.61 225.63 L 180.79 225.63 L 182.14 225.63 L 183.58 225.63 L 185.41 226.20 L 187.75 228.02 L 194.03 230.36 L 201.30 233.00 L 208.72 235.81 L 216.22 238.72 L 223.76 241.68 L 231.30 244.66 L 238.82 247.61 L 246.31 250.53 L 253.74 253.39 L 261.11 256.18 L 268.40 258.88 L 275.61 261.48 L 282.72 263.96 L 289.72 266.32 L 296.61 268.55 L 303.38 270.64 L 310.02 272.57 L 316.52 274.34 L 322.87 275.93 L 329.06 277.34 L 335.09 278.55 L 340.94 279.55 L 346.61 280.33 L 352.09 280.87 L 357.36 281.17 L 362.40 281.21 L 367.22 280.96 L 371.79 280.42 L 376.18 279.66 L 380.39 278.69 L 384.44 277.53 L 388.36 276.20 L 392.15 274.71 L 395.80 273.06 L 399.35 271.28 L 402.79 269.36 L 406.13 267.33 L 409.38 265.18 L 412.55 262.92 L 415.64 260.55 L 418.65 258.10 L 421.60 255.55 L 424.49 252.92 L 427.32 250.21 L 430.11 247.43 L 432.84 244.57 L 435.54 241.65 L 438.19 238.67 L 440.82 235.62 L 443.41 232.52 L 445.98 229.36 L 448.54 226.16 L 451.08 222.91 L 453.60 219.61 L 456.13 216.27 L 458.65 212.89 L 461.18 209.48 L 463.72 206.03 L 466.27 202.54 L 468.85 199.03 L 471.45 195.49 L 474.08 191.92 L 476.75 188.33 L 479.46 184.72 L 482.22 181.08 L 485.05 177.43 L 487.93 173.76 L 490.89 170.07 L 493.92 166.37 L 497.05 162.65 L 500.27 158.93 L 503.59 155.20 L 507.02 151.46 L 510.58 147.72 L 514.27 143.97 L 518.09 140.22 L 522.06 136.46 L 526.19 132.71 L 530.49 128.96 L 534.95 125.22 L 539.60 121.47 L 544.43 117.74 L 549.45 114.02 L 554.67 110.30 L 560.09 106.60 L 565.71 102.91 L 571.53 99.23 L 577.55 95.57 L 583.77 91.94 L 590.19 88.32 L 596.81 84.72 L 603.61 81.15 L 610.59 77.60 L 617.76 74.08 L 625.09 70.59 L 632.59 67.13 L 640.24 63.71 L 648.04 60.32 L 655.99 56.98 L 664.07 53.67 L 672.28 50.41 L 680.69 47.19 L 689.19 44.03 L 689.19 -44.03 L 680.69 -47.19 L 672.28 -50.41 L 664.07 -53.67 L 655.99 -56.98 L 648.04 -60.32 L 640.24 -63.71 L 632.59 -67.13 L 625.09 -70.59 L 617.76 -74.08 L 610.59 -77.60 L 603.61 -81.15 L 596.81 -84.72 L 590.19 -88.32 L 583.77 -91.94 L 577.55 -95.57 L 571.53 -99.23 L 565.71 -102.91 L 560.09 -106.60 L 554.67 -110.30 L 549.45 -114.02 L 544.43 -117.74 L 539.60 -121.47 L 534.95 -125.22 L 530.49 -128.96 L 526.19 -132.71 L 522.06 -136.46 L 518.09 -140.22 L 514.27 -143.97 L 510.58 -147.72 L 507.02 -151.46 L 503.59 -155.20 L 500.27 -158.93 L 497.05 -162.65 L 493.92 -166.37 L 490.89 -170.07 L 487.93 -173.76 L 485.05 -177.43 L 482.22 -181.08 L 479.46 -184.72 L 476.75 -188.33 L 474.08 -191.92 L 471.45 -195.49 L 468.85 -199.03 L 466.27 -202.54 L 463.72 -206.03 L 461.18 -209.48 L 458.65 -212.89 L 456.13 -216.27 L 453.60 -219.61 L 451.08 -222.91 L 448.54 -226.16 L 445.98 -229.36 L 443.41 -232.52 L 440.82 -235.62 L 438.19 -238.67 L 435.54 -241.65 L 432.84 -244.57 L 430.11 -247.43 L 427.32 -250.21 L 424.49 -252.92 L 421.60 -255.55 L 418.65 -258.10 L 415.64 -260.55 L 412.55 -262.92 L 409.38 -265.18 L 406.13 -267.33 L 402.79 -269.36 L 399.35 -271.28 L 395.80 -273.06 L 392.15 -274.71 L 388.36 -276.20 L 384.44 -277.53 L 380.39 -278.69 L 376.18 -279.66 L 371.79 -280.42 L 367.22 -280.96 L 362.40 -281.21 L 357.36 -281.17 L 352.09 -280.87 L 346.61 -280.33 L 340.94 -279.55 L 335.09 -278.55 L 329.06 -277.34 L 322.87 -275.93 L 316.52 -274.34 L 310.02 -272.57 L 303.38 -270.64 L 296.61 -268.55 L 289.72 -266.32 L 282.72 -263.96 L 275.61 -261.48 L 268.40 -258.88 L 261.11 -256.18 L 253.74 -253.39 L 246.31 -250.53 L 238.82 -247.61 L 231.30 -244.66 L 223.76 -241.68 L 216.22 -238.72 L 208.72 -235.81 L 201.30 -233.00 L 194.03 -230.36 L 187.75 -228.02 L 185.41 -226.20 L 183.58 -225.63 L 182.14 -225.63 L 180.79 -225.63 L 179.61 -225.63 L 178.62 -225.63 L 177.83 -225.63 L 177.25 -225.63 L 176.85 -225.63 L 176.63 -225.63 L 176.59 -225.63 L 176.69 -225.63 L 176.94 -225.63 L 177.31 -225.63 L 177.77 -225.63 L 178.21 -225.63 L 178.21 225.63" fill="#e4d4b5" fill-opacity="0.7" stroke="#222" stroke-width="1.5"/>
<path d="M 323.77 0.00 L 322.72 20.08 L 319.58 39.91 L 314.40 59.25 L 307.26 77.86 L 298.27 95.54 L 287.56 112.06 L 275.30 127.26 L 261.66 140.97 L 246.85 153.07 L 231.07 163.44 L 214.54 172.02 L 197.50 178.75 L 180.16 183.64 L 162.75 186.69 L 145.48 187.95 L 128.55 187.50 L 112.14 185.43 L 96.43 181.85 L 81.55 176.92 L 67.63 170.76 L 54.75 163.56 L 43.00 155.47 L 32.42 146.66 L 23.01 137.31 L 14.78 127.58 L 7.70 117.61 L 1.71 107.56 L -3.25 97.55 L -7.26 87.68 L -10.43 78.06 L -12.85 68.74 L -14.64 59.77 L -15.90 51.19 L -16.74 42.99 L -17.26 35.16 L -17.55 27.68 L -17.69 20.48 L -17.74 13.52 L -17.75 6.72 L -17.75 0.00 L -17.75 -6.72 L -17.74 -13.52 L -17.69 -20.48 L -17.55 -27.68 L -17.26 -35.16 L -16.74 -42.99 L -15.90 -51.19 L -14.64 -59.77 L -12.85 -68.74 L -10.43 -78.06 L -7.26 -87.68 L -3.25 -97.55 L 1.71 -107.56 L 7.70 -117.61 L 14.78 -127.58 L 23.01 -137.31 L 32.42 -146.66 L 43.00 -155.47 L 54.75 -163.56 L 67.63 -170.76 L 81.55 -176.92 L 96.43 -181.85 L 112.14 -185.43 L 128.55 -187.50 L 145.48 -187.95 L 162.75 -186.69 L 180.16 -183.64 L 197.50 -178.75 L 214.54 -172.02 L 231.07 -163.44 L 246.85 -153.07 L 261.66 -140.97 L 275.30 -127.26 L 287.56 -112.06 L 298.27 -95.54 L 307.26 -77.86 L 314.40 -59.25 L 319.58 -39.91 L 322.72 -20.08 L 323.77 0.00" fill="none" stroke="#b8862b" stroke-width="1.0" stroke-dasharray="4,3"/>
<line x1="0.00" y1="0" x2="643.29" y2="0" stroke="#0a7" stroke-width="1.0"/>
<circle cx="0.00" cy="0" r="0.9" fill="#c00000"/>
<circle cx="14.45" cy="0" r="0.9" fill="#888"/>
<circle cx="28.81" cy="0" r="0.9" fill="#888"/>
<circle cx="43.10" cy="0" r="0.9" fill="#1060d0"/>
<circle cx="57.33" cy="0" r="0.9" fill="#888"/>
<circle cx="71.50" cy="0" r="0.9" fill="#888"/>
<circle cx="85.62" cy="0" r="0.9" fill="#888"/>
<circle cx="99.69" cy="0" r="0.9" fill="#c00000"/>
<circle cx="113.72" cy="0" r="0.9" fill="#888"/>
<circle cx="127.69" cy="0" r="0.9" fill="#888"/>
<circle cx="141.62" cy="0" r="0.9" fill="#1060d0"/>
<circle cx="155.50" cy="0" r="0.9" fill="#888"/>
<circle cx="169.86" cy="0" r="0.9" fill="#888"/>
<circle cx="184.66" cy="0" r="0.9" fill="#888"/>
<circle cx="199.41" cy="0" r="0.9" fill="#c00000"/>
<circle cx="214.11" cy="0" r="0.9" fill="#888"/>
<circle cx="228.67" cy="0" r="0.9" fill="#888"/>
<circle cx="243.14" cy="0" r="0.9" fill="#1060d0"/>
<circle cx="257.57" cy="0" r="0.9" fill="#888"/>
<circle cx="271.93" cy="0" r="0.9" fill="#888"/>
<circle cx="286.19" cy="0" r="0.9" fill="#888"/>
<circle cx="300.38" cy="0" r="0.9" fill="#c00000"/>
<circle cx="314.52" cy="0" r="0.9" fill="#888"/>
<circle cx="328.57" cy="0" r="0.9" fill="#888"/>
<circle cx="342.59" cy="0" r="0.9" fill="#1060d0"/>
<circle cx="356.58" cy="0" r="0.9" fill="#888"/>
<circle cx="370.52" cy="0" r="0.9" fill="#888"/>
<circle cx="384.40" cy="0" r="0.9" fill="#888"/>
<circle cx="398.23" cy="0" r="0.9" fill="#c00000"/>
<circle cx="412.04" cy="0" r="0.9" fill="#888"/>
<circle cx="425.83" cy="0" r="0.9" fill="#888"/>
<circle cx="439.59" cy="0" r="0.9" fill="#1060d0"/>
<circle cx="453.33" cy="0" r="0.9" fill="#888"/>
<circle cx="467.01" cy="0" r="0.9" fill="#888"/>
<circle cx="480.66" cy="0" r="0.9" fill="#888"/>
<circle cx="494.34" cy="0" r="0.9" fill="#c00000"/>
<circle cx="508.02" cy="0" r="0.9" fill="#888"/>
<circle cx="521.67" cy="0" r="0.9" fill="#888"/>
<circle cx="535.32" cy="0" r="0.9" fill="#1060d0"/>
<circle cx="548.94" cy="0" r="0.9" fill="#888"/>
<circle cx="562.52" cy="0" r="0.9" fill="#888"/>
<circle cx="576.05" cy="0" r="0.9" fill="#888"/>
<circle cx="589.55" cy="0" r="0.9" fill="#c00000"/>
<circle cx="603.01" cy="0" r="0.9" fill="#888"/>
<circle cx="616.45" cy="0" r="0.9" fill="#888"/>
<circle cx="629.87" cy="0" r="0.9" fill="#1060d0"/>
<circle cx="643.29" cy="0" r="0.9" fill="#888"/>
<rect x="-17.75" y="-16.00" width="32.00" height="32.00" fill="#666" fill-opacity="0.3" stroke="#5d4037" stroke-width="0.6"/>
<ellipse cx="112.66" cy="0" rx="114.66" ry="163.00" fill="none" stroke="#a000a0" stroke-width="0.9" stroke-dasharray="3,2" opacity="0.85"/>
</g></g></g>
<g transform="translate(0.0, 2194.8)">
<rect x="0" y="50.0" width="1085.9" height="2144.8" fill="none" stroke="#ccc" stroke-width="0.6"/>
<text x="10" y="32" font-family="sans-serif" font-size="22" font-weight="bold" fill="#000">Front view (yz, project along +x)</text>
<g transform="translate(543.0, 2104.8)">
<g transform="scale(1,-1)">
<path d="M 225.63 7.37 L 225.63 22.11 L 225.63 36.85 L 225.63 51.59 L 225.63 66.33 L 225.63 81.07 L 225.63 95.81 L 225.63 110.55 L 225.63 125.29 L 225.63 140.02 L 225.63 154.76 L 225.63 169.50 L 226.49 184.24 L 228.82 198.98 L 231.43 213.72 L 235.81 228.46 L 238.72 243.20 L 241.68 257.94 L 244.66 272.68 L 247.61 287.42 L 250.53 302.16 L 253.39 316.90 L 256.18 331.64 L 258.88 346.38 L 261.48 361.12 L 263.96 375.86 L 266.32 390.59 L 268.55 405.33 L 270.64 420.07 L 272.57 434.81 L 274.34 449.55 L 275.93 464.29 L 277.34 479.03 L 278.55 493.77 L 279.55 508.51 L 280.33 523.25 L 280.87 537.99 L 281.17 552.73 L 281.21 567.47 L 280.53 582.21 L 280.96 596.95 L 280.42 611.69 L 279.66 626.43 L 278.69 641.16 L 277.53 655.90 L 276.20 670.64 L 274.71 685.38 L 273.06 700.12 L 271.28 714.86 L 269.36 729.60 L 268.71 744.34 L 266.68 759.08 L 264.54 773.82 L 262.28 788.56 L 259.93 803.30 L 257.47 818.04 L 254.93 832.78 L 252.31 847.52 L 250.21 862.26 L 247.43 877.00 L 244.57 891.73 L 241.65 906.47 L 238.67 921.21 L 235.62 935.95 L 232.52 950.69 L 229.40 965.43 L 226.28 980.17 L 225.61 994.91 L 222.37 1009.65 L 219.08 1024.39 L 215.75 1039.13 L 212.38 1053.87 L 208.97 1068.61 L 205.53 1083.35 L 202.06 1098.09 L 199.03 1112.83 L 195.49 1127.57 L 191.92 1142.30 L 188.33 1157.04 L 184.72 1171.78 L 181.08 1186.52 L 178.65 1201.26 L 175.04 1216.00 L 171.42 1230.74 L 167.78 1245.48 L 164.13 1260.22 L 160.47 1274.96 L 156.80 1289.70 L 153.11 1304.44 L 149.43 1319.18 L 145.73 1333.92 L 142.03 1348.66 L 138.33 1363.40 L 134.63 1378.14 L 130.93 1392.87 L 127.23 1407.61 L 123.53 1422.35 L 117.74 1437.09 L 114.02 1451.83 L 110.32 1466.57 L 106.72 1481.31 L 103.14 1496.05 L 99.57 1510.79 L 96.01 1525.53 L 92.47 1540.27 L 88.10 1555.01 L 84.51 1569.75 L 80.95 1584.49 L 77.41 1599.23 L 73.90 1613.97 L 70.42 1628.71 L 66.23 1643.44 L 62.85 1658.18 L 59.51 1672.92 L 55.13 1687.66 L 51.93 1702.40 L 47.45 1717.14 L 44.42 1731.88 L 40.00 1746.62 L -40.00 1746.62 L -44.42 1731.88 L -47.45 1717.14 L -51.93 1702.40 L -55.13 1687.66 L -59.51 1672.92 L -62.85 1658.18 L -66.23 1643.44 L -70.42 1628.71 L -73.90 1613.97 L -77.41 1599.23 L -80.95 1584.49 L -84.51 1569.75 L -88.10 1555.01 L -92.47 1540.27 L -96.01 1525.53 L -99.57 1510.79 L -103.14 1496.05 L -106.72 1481.31 L -110.32 1466.57 L -114.02 1451.83 L -117.74 1437.09 L -123.53 1422.35 L -127.23 1407.61 L -130.93 1392.87 L -134.63 1378.14 L -138.33 1363.40 L -142.03 1348.66 L -145.73 1333.92 L -149.43 1319.18 L -153.11 1304.44 L -156.80 1289.70 L -160.47 1274.96 L -164.13 1260.22 L -167.78 1245.48 L -171.42 1230.74 L -175.04 1216.00 L -178.65 1201.26 L -181.08 1186.52 L -184.72 1171.78 L -188.33 1157.04 L -191.92 1142.30 L -195.49 1127.57 L -199.03 1112.83 L -202.06 1098.09 L -205.53 1083.35 L -208.97 1068.61 L -212.38 1053.87 L -215.75 1039.13 L -219.08 1024.39 L -222.37 1009.65 L -225.61 994.91 L -226.28 980.17 L -229.40 965.43 L -232.52 950.69 L -235.62 935.95 L -238.67 921.21 L -241.65 906.47 L -244.57 891.73 L -247.43 877.00 L -250.21 862.26 L -252.31 847.52 L -254.93 832.78 L -257.47 818.04 L -259.93 803.30 L -262.28 788.56 L -264.54 773.82 L -266.68 759.08 L -268.71 744.34 L -269.36 729.60 L -271.28 714.86 L -273.06 700.12 L -274.71 685.38 L -276.20 670.64 L -277.53 655.90 L -278.69 641.16 L -279.66 626.43 L -280.42 611.69 L -280.96 596.95 L -280.53 582.21 L -281.21 567.47 L -281.17 552.73 L -280.87 537.99 L -280.33 523.25 L -279.55 508.51 L -278.55 493.77 L -277.34 479.03 L -275.93 464.29 L -274.34 449.55 L -272.57 434.81 L -270.64 420.07 L -268.55 405.33 L -266.32 390.59 L -263.96 375.86 L -261.48 361.12 L -258.88 346.38 L -256.18 331.64 L -253.39 316.90 L -250.53 302.16 L -247.61 287.42 L -244.66 272.68 L -241.68 257.94 L -238.72 243.20 L -235.81 228.46 L -231.43 213.72 L -228.82 198.98 L -226.49 184.24 L -225.63 169.50 L -225.63 154.76 L -225.63 140.02 L -225.63 125.29 L -225.63 110.55 L -225.63 95.81 L -225.63 81.07 L -225.63 66.33 L -225.63 51.59 L -225.63 36.85 L -225.63 22.11 L -225.63 7.37 L 225.63 7.37" fill="#e4d4b5" fill-opacity="0.7" stroke="#222" stroke-width="1.5"/>
<path d="M 0.00 0.00 L 20.08 0.00 L 39.91 0.00 L 59.25 0.00 L 77.86 0.00 L 95.54 0.00 L 112.06 0.00 L 127.26 0.00 L 140.97 0.00 L 153.07 0.00 L 163.44 0.00 L 172.02 0.00 L 178.75 0.00 L 183.64 0.00 L 186.69 0.00 L 187.95 0.00 L 187.50 0.00 L 185.43 0.00 L 181.85 0.00 L 176.92 0.00 L 170.76 0.00 L 163.56 0.00 L 155.47 0.00 L 146.66 0.00 L 137.31 0.00 L 127.58 0.00 L 117.61 0.00 L 107.56 0.00 L 97.55 0.00 L 87.68 0.00 L 78.06 0.00 L 68.74 0.00 L 59.77 0.00 L 51.19 0.00 L 42.99 0.00 L 35.16 0.00 L 27.68 0.00 L 20.48 0.00 L 13.52 0.00 L 6.72 0.00 L 0.00 0.00 L -6.72 0.00 L -13.52 0.00 L -20.48 0.00 L -27.68 0.00 L -35.16 0.00 L -42.99 0.00 L -51.19 0.00 L -59.77 0.00 L -68.74 0.00 L -78.06 0.00 L -87.68 0.00 L -97.55 0.00 L -107.56 0.00 L -117.61 0.00 L -127.58 0.00 L -137.31 0.00 L -146.66 0.00 L -155.47 0.00 L -163.56 0.00 L -170.76 0.00 L -176.92 0.00 L -181.85 0.00 L -185.43 0.00 L -187.50 0.00 L -187.95 0.00 L -186.69 0.00 L -183.64 0.00 L -178.75 0.00 L -172.02 0.00 L -163.44 0.00 L -153.07 0.00 L -140.97 0.00 L -127.26 0.00 L -112.06 0.00 L -95.54 0.00 L -77.86 0.00 L -59.25 0.00 L -39.91 0.00 L -20.08 0.00 L 0.00 0.00" fill="none" stroke="#b8862b" stroke-width="1.0" stroke-dasharray="4,3"/>
<line x1="-311.2" y1="0" x2="311.2" y2="0" stroke="#888" stroke-width="0.6" stroke-dasharray="4,3" opacity="0.7"/>
<line x1="0" y1="257.43" x2="0" y2="1761.07" stroke="#c00000" stroke-width="2.550" opacity="0.6" stroke-linecap="round"/>
<line x1="0" y1="472.32" x2="0" y2="1840.63" stroke="#888" stroke-width="1.938" opacity="0.6" stroke-linecap="round"/>
<line x1="0" y1="684.92" x2="0" y2="1897.86" stroke="#1060d0" stroke-width="1.547" opacity="0.6" stroke-linecap="round"/>
<line x1="0" y1="903.21" x2="0" y2="1820.43" stroke="#888" stroke-width="2.700" opacity="0.6" stroke-linecap="round"/>
<line x1="0" y1="1110.31" x2="0" y2="1726.82" stroke="#888" stroke-width="2.023" opacity="0.6" stroke-linecap="round"/>
<line x1="0" y1="1289.03" x2="0" y2="1700.01" stroke="#888" stroke-width="1.649" opacity="0.6" stroke-linecap="round"/>
<line x1="0" y1="1431.95" x2="0" y2="1707.60" stroke="#888" stroke-width="1.292" opacity="0.6" stroke-linecap="round"/>
<line x1="0" y1="1544.39" x2="0" y2="1734.86" stroke="#c00000" stroke-width="1.207" opacity="0.6" stroke-linecap="round"/>
<line x1="0" y1="1637.53" x2="0" y2="1757.81" stroke="#888" stroke-width="0.935" opacity="0.6" stroke-linecap="round"/>
<line x1="0" y1="1719.00" x2="0" y2="1789.16" stroke="#1060d0" stroke-width="0.714" opacity="0.6" stroke-linecap="round"/>
</g></g></g>
<g transform="translate(1085.9, 2194.8)">
<rect x="0" y="50.0" width="1085.9" height="2144.8" fill="none" stroke="#ccc" stroke-width="0.6"/>
<text x="10" y="32" font-family="sans-serif" font-size="22" font-weight="bold" fill="#000">Soundboard face-on (u, y)</text>
<g transform="translate(543.0, 2193.6)">
<g transform="scale(1,-1)">
<path d="M 228.36 259.19 L 229.67 268.26 L 231.10 277.33 L 232.60 286.41 L 234.16 295.48 L 235.76 304.55 L 237.40 313.62 L 239.06 322.70 L 240.73 331.77 L 242.41 340.84 L 244.09 349.91 L 245.77 358.99 L 247.44 368.06 L 249.10 377.13 L 250.74 386.20 L 252.36 395.28 L 253.97 404.35 L 255.54 413.42 L 257.09 422.49 L 258.61 431.56 L 260.10 440.64 L 261.56 449.71 L 262.97 458.78 L 264.35 467.85 L 265.69 476.93 L 266.99 486.00 L 268.25 495.07 L 269.46 504.14 L 270.62 513.22 L 271.73 522.29 L 272.79 531.36 L 273.80 540.43 L 274.75 549.51 L 275.65 558.58 L 276.49 567.65 L 277.27 576.72 L 277.99 585.80 L 278.63 594.87 L 279.21 603.94 L 279.73 613.01 L 280.17 622.08 L 280.54 631.16 L 280.83 640.23 L 281.05 649.30 L 281.18 658.37 L 281.22 667.45 L 281.19 676.52 L 281.06 685.59 L 280.84 694.66 L 280.51 703.74 L 280.13 712.81 L 279.67 721.88 L 279.14 730.95 L 278.55 740.03 L 277.92 749.10 L 277.20 758.17 L 276.44 767.24 L 275.64 776.31 L 274.78 785.39 L 273.87 794.46 L 272.91 803.53 L 271.92 812.60 L 270.87 821.68 L 269.79 830.75 L 268.68 839.82 L 267.51 848.89 L 266.31 857.97 L 265.08 867.04 L 263.81 876.11 L 262.51 885.18 L 261.18 894.26 L 259.81 903.33 L 258.42 912.40 L 257.00 921.47 L 255.54 930.54 L 254.07 939.62 L 252.56 948.69 L 251.03 957.76 L 249.49 966.83 L 247.90 975.91 L 246.31 984.98 L 244.69 994.05 L 243.04 1003.12 L 241.38 1012.20 L 239.69 1021.27 L 237.99 1030.34 L 236.27 1039.41 L 234.53 1048.49 L 232.77 1057.56 L 230.99 1066.63 L 229.20 1075.70 L 227.40 1084.78 L 225.57 1093.85 L 223.74 1102.92 L 221.88 1111.99 L 220.02 1121.06 L 218.13 1130.14 L 216.24 1139.21 L 214.34 1148.28 L 212.42 1157.35 L 210.49 1166.43 L 208.55 1175.50 L 206.60 1184.57 L 204.63 1193.64 L 202.66 1202.72 L 200.68 1211.79 L 198.68 1220.86 L 196.69 1229.93 L 194.67 1239.01 L 192.66 1248.08 L 190.63 1257.15 L 188.60 1266.22 L 186.56 1275.29 L 184.51 1284.37 L 182.46 1293.44 L 180.40 1302.51 L 178.33 1311.58 L 176.26 1320.66 L 174.18 1329.73 L 172.10 1338.80 L 170.01 1347.87 L 167.92 1356.95 L 165.83 1366.02 L 163.73 1375.09 L 161.62 1384.16 L 159.52 1393.24 L 157.41 1402.31 L 155.30 1411.38 L 153.18 1420.45 L 151.07 1429.52 L 148.95 1438.60 L 146.83 1447.67 L 144.71 1456.74 L 142.59 1465.81 L 140.47 1474.89 L 138.35 1483.96 L 136.23 1493.03 L 134.10 1502.10 L 131.98 1511.18 L 129.86 1520.25 L 127.74 1529.32 L 125.62 1538.39 L 123.51 1547.47 L 121.39 1556.54 L 119.28 1565.61 L 117.17 1574.68 L 115.07 1583.75 L 112.96 1592.83 L 110.86 1601.90 L 108.76 1610.97 L 106.67 1620.04 L 104.58 1629.12 L 102.50 1638.19 L 100.42 1647.26 L 98.35 1656.33 L 96.28 1665.41 L 94.21 1674.48 L 92.16 1683.55 L 90.11 1692.62 L 88.06 1701.70 L 86.03 1710.77 L 84.00 1719.84 L 81.98 1728.91 L 79.97 1737.99 L 77.96 1747.06 L 75.97 1756.13 L 73.98 1765.20 L 72.01 1774.27 L 70.04 1783.35 L 68.08 1792.42 L 66.14 1801.49 L 64.20 1810.56 L 62.28 1819.64 L 60.37 1828.71 L 58.47 1837.78 L 56.58 1846.85 L 54.72 1855.93 L 52.86 1865.00 L 51.01 1874.07 L 49.19 1883.14 L -49.19 1883.14 L -51.01 1874.07 L -52.86 1865.00 L -54.72 1855.93 L -56.58 1846.85 L -58.47 1837.78 L -60.37 1828.71 L -62.28 1819.64 L -64.20 1810.56 L -66.14 1801.49 L -68.08 1792.42 L -70.04 1783.35 L -72.01 1774.27 L -73.98 1765.20 L -75.97 1756.13 L -77.96 1747.06 L -79.97 1737.99 L -81.98 1728.91 L -84.00 1719.84 L -86.03 1710.77 L -88.06 1701.70 L -90.11 1692.62 L -92.16 1683.55 L -94.21 1674.48 L -96.28 1665.41 L -98.35 1656.33 L -100.42 1647.26 L -102.50 1638.19 L -104.58 1629.12 L -106.67 1620.04 L -108.76 1610.97 L -110.86 1601.90 L -112.96 1592.83 L -115.07 1583.75 L -117.17 1574.68 L -119.28 1565.61 L -121.39 1556.54 L -123.51 1547.47 L -125.62 1538.39 L -127.74 1529.32 L -129.86 1520.25 L -131.98 1511.18 L -134.10 1502.10 L -136.23 1493.03 L -138.35 1483.96 L -140.47 1474.89 L -142.59 1465.81 L -144.71 1456.74 L -146.83 1447.67 L -148.95 1438.60 L -151.07 1429.52 L -153.18 1420.45 L -155.30 1411.38 L -157.41 1402.31 L -159.52 1393.24 L -161.62 1384.16 L -163.73 1375.09 L -165.83 1366.02 L -167.92 1356.95 L -170.01 1347.87 L -172.10 1338.80 L -174.18 1329.73 L -176.26 1320.66 L -178.33 1311.58 L -180.40 1302.51 L -182.46 1293.44 L -184.51 1284.37 L -186.56 1275.29 L -188.60 1266.22 L -190.63 1257.15 L -192.66 1248.08 L -194.67 1239.01 L -196.69 1229.93 L -198.68 1220.86 L -200.68 1211.79 L -202.66 1202.72 L -204.63 1193.64 L -206.60 1184.57 L -208.55 1175.50 L -210.49 1166.43 L -212.42 1157.35 L -214.34 1148.28 L -216.24 1139.21 L -218.13 1130.14 L -220.02 1121.06 L -221.88 1111.99 L -223.74 1102.92 L -225.57 1093.85 L -227.40 1084.78 L -229.20 1075.70 L -230.99 1066.63 L -232.77 1057.56 L -234.53 1048.49 L -236.27 1039.41 L -237.99 1030.34 L -239.69 1021.27 L -241.38 1012.20 L -243.04 1003.12 L -244.69 994.05 L -246.31 984.98 L -247.90 975.91 L -249.49 966.83 L -251.03 957.76 L -252.56 948.69 L -254.07 939.62 L -255.54 930.54 L -257.00 921.47 L -258.42 912.40 L -259.81 903.33 L -261.18 894.26 L -262.51 885.18 L -263.81 876.11 L -265.08 867.04 L -266.31 857.97 L -267.51 848.89 L -268.68 839.82 L -269.79 830.75 L -270.87 821.68 L -271.92 812.60 L -272.91 803.53 L -273.87 794.46 L -274.78 785.39 L -275.64 776.31 L -276.44 767.24 L -277.20 758.17 L -277.92 749.10 L -278.55 740.03 L -279.14 730.95 L -279.67 721.88 L -280.13 712.81 L -280.51 703.74 L -280.84 694.66 L -281.06 685.59 L -281.19 676.52 L -281.22 667.45 L -281.18 658.37 L -281.05 649.30 L -280.83 640.23 L -280.54 631.16 L -280.17 622.08 L -279.73 613.01 L -279.21 603.94 L -278.63 594.87 L -277.99 585.80 L -277.27 576.72 L -276.49 567.65 L -275.65 558.58 L -274.75 549.51 L -273.80 540.43 L -272.79 531.36 L -271.73 522.29 L -270.62 513.22 L -269.46 504.14 L -268.25 495.07 L -266.99 486.00 L -265.69 476.93 L -264.35 467.85 L -262.97 458.78 L -261.56 449.71 L -260.10 440.64 L -258.61 431.56 L -257.09 422.49 L -255.54 413.42 L -253.97 404.35 L -252.36 395.28 L -250.74 386.20 L -249.10 377.13 L -247.44 368.06 L -245.77 358.99 L -244.09 349.91 L -242.41 340.84 L -240.73 331.77 L -239.06 322.70 L -237.40 313.62 L -235.76 304.55 L -234.16 295.48 L -232.60 286.41 L -231.10 277.33 L -229.67 268.26 L -228.36 259.19 L 228.36 259.19" fill="#e4d4b5" fill-opacity="0.7" stroke="#222" stroke-width="1.5"/>
<line x1="0" y1="259.19" x2="0" y2="1883.14" stroke="#0a7" stroke-width="1.0"/>
<circle cx="0" cy="259.19" r="0.9" fill="#c00000"/>
<circle cx="0" cy="304.75" r="0.9" fill="#888"/>
<circle cx="0" cy="350.13" r="0.9" fill="#888"/>
<circle cx="0" cy="395.40" r="0.9" fill="#1060d0"/>
<circle cx="0" cy="440.58" r="0.9" fill="#888"/>
<circle cx="0" cy="485.66" r="0.9" fill="#888"/>
<circle cx="0" cy="530.66" r="0.9" fill="#888"/>
<circle cx="0" cy="575.56" r="0.9" fill="#c00000"/>
<circle cx="0" cy="620.38" r="0.9" fill="#888"/>
<circle cx="0" cy="665.02" r="0.9" fill="#888"/>
<circle cx="0" cy="709.53" r="0.9" fill="#1060d0"/>
<circle cx="0" cy="753.84" r="0.9" fill="#888"/>
<circle cx="0" cy="799.61" r="0.9" fill="#888"/>
<circle cx="0" cy="846.64" r="0.9" fill="#888"/>
<circle cx="0" cy="893.31" r="0.9" fill="#c00000"/>
<circle cx="0" cy="939.55" r="0.9" fill="#888"/>
<circle cx="0" cy="984.98" r="0.9" fill="#888"/>
<circle cx="0" cy="1029.67" r="0.9" fill="#1060d0"/>
<circle cx="0" cy="1073.68" r="0.9" fill="#888"/>
<circle cx="0" cy="1116.80" r="0.9" fill="#888"/>
<circle cx="0" cy="1158.84" r="0.9" fill="#888"/>
<circle cx="0" cy="1199.76" r="0.9" fill="#c00000"/>
<circle cx="0" cy="1239.54" r="0.9" fill="#888"/>
<circle cx="0" cy="1277.96" r="0.9" fill="#888"/>
<circle cx="0" cy="1315.11" r="0.9" fill="#1060d0"/>
<circle cx="0" cy="1350.94" r="0.9" fill="#888"/>
<circle cx="0" cy="1385.38" r="0.9" fill="#888"/>
<circle cx="0" cy="1418.41" r="0.9" fill="#888"/>
<circle cx="0" cy="1450.08" r="0.9" fill="#c00000"/>
<circle cx="0" cy="1480.52" r="0.9" fill="#888"/>
<circle cx="0" cy="1509.81" r="0.9" fill="#888"/>
<circle cx="0" cy="1537.99" r="0.9" fill="#1060d0"/>
<circle cx="0" cy="1565.18" r="0.9" fill="#888"/>
<circle cx="0" cy="1591.39" r="0.9" fill="#888"/>
<circle cx="0" cy="1616.78" r="0.9" fill="#888"/>
<circle cx="0" cy="1641.53" r="0.9" fill="#c00000"/>
<circle cx="0" cy="1665.66" r="0.9" fill="#888"/>
<circle cx="0" cy="1689.20" r="0.9" fill="#888"/>
<circle cx="0" cy="1712.25" r="0.9" fill="#1060d0"/>
<circle cx="0" cy="1734.84" r="0.9" fill="#888"/>
<circle cx="0" cy="1756.98" r="0.9" fill="#888"/>
<circle cx="0" cy="1778.72" r="0.9" fill="#888"/>
<circle cx="0" cy="1800.13" r="0.9" fill="#c00000"/>
<circle cx="0" cy="1821.23" r="0.9" fill="#888"/>
<circle cx="0" cy="1842.07" r="0.9" fill="#888"/>
<circle cx="0" cy="1862.69" r="0.9" fill="#1060d0"/>
<circle cx="0" cy="1883.14" r="0.9" fill="#888"/>
</g></g></g>
</svg>