<?xml version="1.0" encoding="UTF-8"?>
<svg xmlns="http://www.w3.org/2000/svg" viewBox="-105.5 -366.3 809.5 704.7" width="900" height="783" font-family="sans-serif" font-size="12">
<rect x="-105.5" y="-366.3" width="809.5" height="704.7" fill="#fff"/>
<rect x="-93.5" y="-326.3" width="785.5" height="652.7" fill="none" stroke="#ccc" stroke-width="0.6"/>
<text x="-83.5" y="-338.3" font-family="sans-serif" font-size="22" font-weight="bold" fill="#000">TOP (xy, look -z)</text>
<g transform="scale(1,-1)">
<path d="M 226.60 275.16 L 229.25 273.09 L 231.89 271.02 L 234.53 268.95 L 237.16 266.88 L 239.80 264.81 L 242.42 262.73 L 245.05 260.66 L 247.66 258.59 L 250.28 256.52 L 252.89 254.45 L 255.50 252.37 L 258.11 250.30 L 260.71 248.23 L 263.31 246.16 L 265.90 244.09 L 268.49 242.02 L 271.08 239.94 L 273.67 237.87 L 276.25 235.80 L 278.83 233.73 L 281.41 231.66 L 283.99 229.59 L 286.56 227.51 L 289.13 225.44 L 291.70 223.37 L 294.26 221.30 L 296.83 219.23 L 299.39 217.15 L 301.95 215.08 L 304.51 213.01 L 307.07 210.94 L 309.63 208.87 L 312.19 206.80 L 314.75 204.72 L 317.31 202.65 L 319.87 200.58 L 322.43 198.51 L 324.99 196.44 L 327.55 194.36 L 330.11 192.29 L 332.68 190.22 L 335.25 188.15 L 337.82 186.08 L 340.40 184.01 L 342.98 181.93 L 345.56 179.86 L 348.15 177.79 L 350.74 175.72 L 353.35 173.65 L 355.96 171.58 L 358.57 169.50 L 361.20 167.43 L 363.83 165.36 L 366.48 163.29 L 369.14 161.22 L 371.81 159.14 L 374.49 157.07 L 377.19 155.00 L 379.91 152.93 L 382.64 150.86 L 385.39 148.79 L 388.16 146.71 L 390.95 144.64 L 393.77 142.57 L 396.61 140.50 L 399.48 138.43 L 402.37 136.36 L 405.30 134.28 L 408.26 132.21 L 411.26 130.14 L 414.29 128.07 L 417.37 126.00 L 420.48 123.92 L 423.65 121.85 L 426.86 119.78 L 430.13 117.71 L 433.45 115.64 L 436.83 113.57 L 440.27 111.49 L 443.78 109.42 L 447.36 107.35 L 451.01 105.28 L 454.74 103.21 L 458.55 101.13 L 462.45 99.06 L 466.44 96.99 L 470.52 94.92 L 474.70 92.85 L 478.99 90.78 L 483.38 88.70 L 487.88 86.63 L 492.50 84.56 L 497.23 82.49 L 502.09 80.42 L 507.06 78.35 L 512.17 76.27 L 517.40 74.20 L 522.76 72.13 L 528.24 70.06 L 533.86 67.99 L 539.61 65.91 L 545.49 63.84 L 551.49 61.77 L 557.61 59.70 L 563.86 57.63 L 570.23 55.56 L 576.71 53.48 L 583.31 51.41 L 590.01 49.34 L 596.82 47.27 L 603.72 45.20 L 610.73 43.13 L 617.82 41.05 L 624.99 38.98 L 632.25 36.91 L 639.58 34.84 L 646.99 32.77 L 654.46 30.69 L 661.99 28.62 L 661.99 -28.62 L 654.46 -30.69 L 646.99 -32.77 L 639.58 -34.84 L 632.25 -36.91 L 624.99 -38.98 L 617.82 -41.05 L 610.73 -43.13 L 603.72 -45.20 L 596.82 -47.27 L 590.01 -49.34 L 583.31 -51.41 L 576.71 -53.48 L 570.23 -55.56 L 563.86 -57.63 L 557.61 -59.70 L 551.49 -61.77 L 545.49 -63.84 L 539.61 -65.91 L 533.86 -67.99 L 528.24 -70.06 L 522.76 -72.13 L 517.40 -74.20 L 512.17 -76.27 L 507.06 -78.35 L 502.09 -80.42 L 497.23 -82.49 L 492.50 -84.56 L 487.88 -86.63 L 483.38 -88.70 L 478.99 -90.78 L 474.70 -92.85 L 470.52 -94.92 L 466.44 -96.99 L 462.45 -99.06 L 458.55 -101.13 L 454.74 -103.21 L 451.01 -105.28 L 447.36 -107.35 L 443.78 -109.42 L 440.27 -111.49 L 436.83 -113.57 L 433.45 -115.64 L 430.13 -117.71 L 426.86 -119.78 L 423.65 -121.85 L 420.48 -123.92 L 417.37 -126.00 L 414.29 -128.07 L 411.26 -130.14 L 408.26 -132.21 L 405.30 -134.28 L 402.37 -136.36 L 399.48 -138.43 L 396.61 -140.50 L 393.77 -142.57 L 390.95 -144.64 L 388.16 -146.71 L 385.39 -148.79 L 382.64 -150.86 L 379.91 -152.93 L 377.19 -155.00 L 374.49 -157.07 L 371.81 -159.14 L 369.14 -161.22 L 366.48 -163.29 L 363.83 -165.36 L 361.20 -167.43 L 358.57 -169.50 L 355.96 -171.58 L 353.35 -173.65 L 350.74 -175.72 L 348.15 -177.79 L 345.56 -179.86 L 342.98 -181.93 L 340.40 -184.01 L 337.82 -186.08 L 335.25 -188.15 L 332.68 -190.22 L 330.11 -192.29 L 327.55 -194.36 L 324.99 -196.44 L 322.43 -198.51 L 319.87 -200.58 L 317.31 -202.65 L 314.75 -204.72 L 312.19 -206.80 L 309.63 -208.87 L 307.07 -210.94 L 304.51 -213.01 L 301.95 -215.08 L 299.39 -217.15 L 296.83 -219.23 L 294.26 -221.30 L 291.70 -223.37 L 289.13 -225.44 L 286.56 -227.51 L 283.99 -229.59 L 281.41 -231.66 L 278.83 -233.73 L 276.25 -235.80 L 273.67 -237.87 L 271.08 -239.94 L 268.49 -242.02 L 265.90 -244.09 L 263.31 -246.16 L 260.71 -248.23 L 258.11 -250.30 L 255.50 -252.37 L 252.89 -254.45 L 250.28 -256.52 L 247.66 -258.59 L 245.05 -260.66 L 242.42 -262.73 L 239.80 -264.81 L 237.16 -266.88 L 234.53 -268.95 L 231.89 -271.02 L 229.25 -273.09 L 226.60 -275.16 L 226.60 275.16" fill="#e4d4b5" fill-opacity="0.7" stroke="#222" stroke-width="1.5"/>
<path d="M 474.94 0.00 L 473.28 31.65 L 468.33 62.92 L 460.16 93.41 L 448.91 122.76 L 434.73 150.62 L 417.85 176.68 L 398.51 200.64 L 377.01 222.26 L 353.65 241.33 L 328.77 257.68 L 302.72 271.20 L 275.85 281.82 L 248.52 289.53 L 221.07 294.34 L 193.84 296.33 L 167.14 295.62 L 141.28 292.35 L 116.50 286.71 L 93.04 278.93 L 71.09 269.23 L 50.80 257.87 L 32.27 245.12 L 15.58 231.23 L 0.75 216.49 L -12.22 201.14 L -23.39 185.43 L -32.83 169.58 L -40.65 153.80 L -46.98 138.25 L -51.97 123.07 L -55.79 108.37 L -58.61 94.24 L -60.60 80.70 L -61.92 67.77 L -62.74 55.44 L -63.20 43.63 L -63.42 32.29 L -63.50 21.32 L -63.52 10.59 L -63.52 0.00 L -63.52 -10.59 L -63.50 -21.32 L -63.42 -32.29 L -63.20 -43.63 L -62.74 -55.44 L -61.92 -67.77 L -60.60 -80.70 L -58.61 -94.24 L -55.79 -108.37 L -51.97 -123.07 L -46.98 -138.25 L -40.65 -153.80 L -32.83 -169.58 L -23.39 -185.43 L -12.22 -201.14 L 0.75 -216.49 L 15.58 -231.23 L 32.27 -245.12 L 50.80 -257.87 L 71.09 -269.23 L 93.04 -278.93 L 116.50 -286.71 L 141.28 -292.35 L 167.14 -295.62 L 193.84 -296.33 L 221.07 -294.34 L 248.52 -289.53 L 275.85 -281.82 L 302.72 -271.20 L 328.77 -257.68 L 353.65 -241.33 L 377.01 -222.26 L 398.51 -200.64 L 417.85 -176.68 L 434.73 -150.62 L 448.91 -122.76 L 460.16 -93.41 L 468.33 -62.92 L 473.28 -31.65 L 474.94 0.00" fill="none" stroke="#b8862b" stroke-width="1.0" stroke-dasharray="4,3"/>
<line x1="0.00" y1="0" x2="643.29" y2="0" stroke="#0a7" stroke-width="1.0"/>
<circle cx="0.00" cy="0" r="0.9" fill="#c00000"/>
<circle cx="14.45" cy="0" r="0.9" fill="#888"/>
<circle cx="28.81" cy="0" r="0.9" fill="#888"/>
<circle cx="43.10" cy="0" r="0.9" fill="#1060d0"/>
<circle cx="57.33" cy="0" r="0.9" fill="#888"/>
<circle cx="71.50" cy="0" r="0.9" fill="#888"/>
<circle cx="85.62" cy="0" r="0.9" fill="#888"/>
<circle cx="99.69" cy="0" r="0.9" fill="#c00000"/>
<circle cx="113.72" cy="0" r="0.9" fill="#888"/>
<circle cx="127.69" cy="0" r="0.9" fill="#888"/>
<circle cx="141.62" cy="0" r="0.9" fill="#1060d0"/>
<circle cx="155.50" cy="0" r="0.9" fill="#888"/>
<circle cx="169.86" cy="0" r="0.9" fill="#888"/>
<circle cx="184.66" cy="0" r="0.9" fill="#888"/>
<circle cx="199.41" cy="0" r="0.9" fill="#c00000"/>
<circle cx="214.11" cy="0" r="0.9" fill="#888"/>
<circle cx="228.67" cy="0" r="0.9" fill="#888"/>
<circle cx="243.14" cy="0" r="0.9" fill="#1060d0"/>
<circle cx="257.57" cy="0" r="0.9" fill="#888"/>
<circle cx="271.93" cy="0" r="0.9" fill="#888"/>
<circle cx="286.19" cy="0" r="0.9" fill="#888"/>
<circle cx="300.38" cy="0" r="0.9" fill="#c00000"/>
<circle cx="314.52" cy="0" r="0.9" fill="#888"/>
<circle cx="328.57" cy="0" r="0.9" fill="#888"/>
<circle cx="342.59" cy="0" r="0.9" fill="#1060d0"/>
<circle cx="356.58" cy="0" r="0.9" fill="#888"/>
<circle cx="370.52" cy="0" r="0.9" fill="#888"/>
<circle cx="384.40" cy="0" r="0.9" fill="#888"/>
<circle cx="398.23" cy="0" r="0.9" fill="#c00000"/>
<circle cx="412.04" cy="0" r="0.9" fill="#888"/>
<circle cx="425.83" cy="0" r="0.9" fill="#888"/>
<circle cx="439.59" cy="0" r="0.9" fill="#1060d0"/>
<circle cx="453.33" cy="0" r="0.9" fill="#888"/>
<circle cx="467.01" cy="0" r="0.9" fill="#888"/>
<circle cx="480.66" cy="0" r="0.9" fill="#888"/>
<circle cx="494.34" cy="0" r="0.9" fill="#c00000"/>
<circle cx="508.02" cy="0" r="0.9" fill="#888"/>
<circle cx="521.67" cy="0" r="0.9" fill="#888"/>
<circle cx="535.32" cy="0" r="0.9" fill="#1060d0"/>
<circle cx="548.94" cy="0" r="0.9" fill="#888"/>
<circle cx="562.52" cy="0" r="0.9" fill="#888"/>
<circle cx="576.05" cy="0" r="0.9" fill="#888"/>
<circle cx="589.55" cy="0" r="0.9" fill="#c00000"/>
<circle cx="603.01" cy="0" r="0.9" fill="#888"/>
<circle cx="616.45" cy="0" r="0.9" fill="#888"/>
<circle cx="629.87" cy="0" r="0.9" fill="#1060d0"/>
<circle cx="643.29" cy="0" r="0.9" fill="#888"/>
<rect x="-43.74" y="-16.00" width="27.99" height="32.00" fill="#666" fill-opacity="0.3" stroke="#3a2a14" stroke-width="0.6"/>
</g>
</svg>