<?xml version="1.0" encoding="UTF-8"?>
<svg xmlns="http://www.w3.org/2000/svg" viewBox="-59.8 -351.2 790.9 674.4" width="900" height="767" font-family="sans-serif" font-size="12">
<rect x="-59.8" y="-351.2" width="790.9" height="674.4" fill="#fff"/>
<rect x="-47.8" y="-311.2" width="766.9" height="622.4" fill="none" stroke="#ccc" stroke-width="0.6"/>
<text x="-37.8" y="-323.2" font-family="sans-serif" font-size="22" font-weight="bold" fill="#000">TOP (xy, look -z)</text>
<g transform="scale(1,-1)">
<path d="M 178.21 225.63 L 177.77 225.63 L 177.31 225.63 L 176.94 225.63 L 176.69 225.63 L 176.59 225.63 L 176.63 225.63 L 176.85 225.63 L 177.25 225.63 L 177.83 225.63 L 178.62 225.63 L 179.61 225.63 L 180.79 225.63 L 182.14 225.63 L 183.58 225.63 L 185.41 226.20 L 187.75 228.02 L 194.03 230.36 L 201.30 233.00 L 208.72 235.81 L 216.22 238.72 L 223.76 241.68 L 231.30 244.66 L 238.82 247.61 L 246.31 250.53 L 253.74 253.39 L 261.11 256.18 L 268.40 258.88 L 275.61 261.48 L 282.72 263.96 L 289.72 266.32 L 296.61 268.55 L 303.38 270.64 L 310.02 272.57 L 316.52 274.34 L 322.87 275.93 L 329.06 277.34 L 335.09 278.55 L 340.94 279.55 L 346.61 280.33 L 352.09 280.87 L 357.36 281.17 L 362.40 281.21 L 367.22 280.96 L 371.79 280.42 L 376.18 279.66 L 380.39 278.69 L 384.44 277.53 L 388.36 276.20 L 392.15 274.71 L 395.80 273.06 L 399.35 271.28 L 402.79 269.36 L 406.13 267.33 L 409.38 265.18 L 412.55 262.92 L 415.64 260.55 L 418.65 258.10 L 421.60 255.55 L 424.49 252.92 L 427.32 250.21 L 430.11 247.43 L 432.84 244.57 L 435.54 241.65 L 438.19 238.67 L 440.82 235.62 L 443.41 232.52 L 445.98 229.36 L 448.54 226.16 L 451.08 222.91 L 453.60 219.61 L 456.13 216.27 L 458.65 212.89 L 461.18 209.48 L 463.72 206.03 L 466.27 202.54 L 468.85 199.03 L 471.45 195.49 L 474.08 191.92 L 476.75 188.33 L 479.46 184.72 L 482.22 181.08 L 485.05 177.43 L 487.93 173.76 L 490.89 170.07 L 493.92 166.37 L 497.05 162.65 L 500.27 158.93 L 503.59 155.20 L 507.02 151.46 L 510.58 147.72 L 514.27 143.97 L 518.09 140.22 L 522.06 136.46 L 526.19 132.71 L 530.49 128.96 L 534.95 125.22 L 539.60 121.47 L 544.43 117.74 L 549.45 114.02 L 554.67 110.30 L 560.09 106.60 L 565.71 102.91 L 571.53 99.23 L 577.55 95.57 L 583.77 91.94 L 590.19 88.32 L 596.81 84.72 L 603.61 81.15 L 610.59 77.60 L 617.76 74.08 L 625.09 70.59 L 632.59 67.13 L 640.24 63.71 L 648.04 60.32 L 655.99 56.98 L 664.07 53.67 L 672.28 50.41 L 680.69 47.19 L 689.19 44.03 L 689.19 -44.03 L 680.69 -47.19 L 672.28 -50.41 L 664.07 -53.67 L 655.99 -56.98 L 648.04 -60.32 L 640.24 -63.71 L 632.59 -67.13 L 625.09 -70.59 L 617.76 -74.08 L 610.59 -77.60 L 603.61 -81.15 L 596.81 -84.72 L 590.19 -88.32 L 583.77 -91.94 L 577.55 -95.57 L 571.53 -99.23 L 565.71 -102.91 L 560.09 -106.60 L 554.67 -110.30 L 549.45 -114.02 L 544.43 -117.74 L 539.60 -121.47 L 534.95 -125.22 L 530.49 -128.96 L 526.19 -132.71 L 522.06 -136.46 L 518.09 -140.22 L 514.27 -143.97 L 510.58 -147.72 L 507.02 -151.46 L 503.59 -155.20 L 500.27 -158.93 L 497.05 -162.65 L 493.92 -166.37 L 490.89 -170.07 L 487.93 -173.76 L 485.05 -177.43 L 482.22 -181.08 L 479.46 -184.72 L 476.75 -188.33 L 474.08 -191.92 L 471.45 -195.49 L 468.85 -199.03 L 466.27 -202.54 L 463.72 -206.03 L 461.18 -209.48 L 458.65 -212.89 L 456.13 -216.27 L 453.60 -219.61 L 451.08 -222.91 L 448.54 -226.16 L 445.98 -229.36 L 443.41 -232.52 L 440.82 -235.62 L 438.19 -238.67 L 435.54 -241.65 L 432.84 -244.57 L 430.11 -247.43 L 427.32 -250.21 L 424.49 -252.92 L 421.60 -255.55 L 418.65 -258.10 L 415.64 -260.55 L 412.55 -262.92 L 409.38 -265.18 L 406.13 -267.33 L 402.79 -269.36 L 399.35 -271.28 L 395.80 -273.06 L 392.15 -274.71 L 388.36 -276.20 L 384.44 -277.53 L 380.39 -278.69 L 376.18 -279.66 L 371.79 -280.42 L 367.22 -280.96 L 362.40 -281.21 L 357.36 -281.17 L 352.09 -280.87 L 346.61 -280.33 L 340.94 -279.55 L 335.09 -278.55 L 329.06 -277.34 L 322.87 -275.93 L 316.52 -274.34 L 310.02 -272.57 L 303.38 -270.64 L 296.61 -268.55 L 289.72 -266.32 L 282.72 -263.96 L 275.61 -261.48 L 268.40 -258.88 L 261.11 -256.18 L 253.74 -253.39 L 246.31 -250.53 L 238.82 -247.61 L 231.30 -244.66 L 223.76 -241.68 L 216.22 -238.72 L 208.72 -235.81 L 201.30 -233.00 L 194.03 -230.36 L 187.75 -228.02 L 185.41 -226.20 L 183.58 -225.63 L 182.14 -225.63 L 180.79 -225.63 L 179.61 -225.63 L 178.62 -225.63 L 177.83 -225.63 L 177.25 -225.63 L 176.85 -225.63 L 176.63 -225.63 L 176.59 -225.63 L 176.69 -225.63 L 176.94 -225.63 L 177.31 -225.63 L 177.77 -225.63 L 178.21 -225.63 L 178.21 225.63" fill="#e4d4b5" fill-opacity="0.7" stroke="#222" stroke-width="1.5"/>
<path d="M 323.77 0.00 L 322.72 20.08 L 319.58 39.91 L 314.40 59.25 L 307.26 77.86 L 298.27 95.54 L 287.56 112.06 L 275.30 127.26 L 261.66 140.97 L 246.85 153.07 L 231.07 163.44 L 214.54 172.02 L 197.50 178.75 L 180.16 183.64 L 162.75 186.69 L 145.48 187.95 L 128.55 187.50 L 112.14 185.43 L 96.43 181.85 L 81.55 176.92 L 67.63 170.76 L 54.75 163.56 L 43.00 155.47 L 32.42 146.66 L 23.01 137.31 L 14.78 127.58 L 7.70 117.61 L 1.71 107.56 L -3.25 97.55 L -7.26 87.68 L -10.43 78.06 L -12.85 68.74 L -14.64 59.77 L -15.90 51.19 L -16.74 42.99 L -17.26 35.16 L -17.55 27.68 L -17.69 20.48 L -17.74 13.52 L -17.75 6.72 L -17.75 0.00 L -17.75 -6.72 L -17.74 -13.52 L -17.69 -20.48 L -17.55 -27.68 L -17.26 -35.16 L -16.74 -42.99 L -15.90 -51.19 L -14.64 -59.77 L -12.85 -68.74 L -10.43 -78.06 L -7.26 -87.68 L -3.25 -97.55 L 1.71 -107.56 L 7.70 -117.61 L 14.78 -127.58 L 23.01 -137.31 L 32.42 -146.66 L 43.00 -155.47 L 54.75 -163.56 L 67.63 -170.76 L 81.55 -176.92 L 96.43 -181.85 L 112.14 -185.43 L 128.55 -187.50 L 145.48 -187.95 L 162.75 -186.69 L 180.16 -183.64 L 197.50 -178.75 L 214.54 -172.02 L 231.07 -163.44 L 246.85 -153.07 L 261.66 -140.97 L 275.30 -127.26 L 287.56 -112.06 L 298.27 -95.54 L 307.26 -77.86 L 314.40 -59.25 L 319.58 -39.91 L 322.72 -20.08 L 323.77 0.00" fill="none" stroke="#b8862b" stroke-width="1.0" stroke-dasharray="4,3"/>
<line x1="0.00" y1="0" x2="643.29" y2="0" stroke="#0a7" stroke-width="1.0"/>
<circle cx="0.00" cy="0" r="0.9" fill="#c00000"/>
<circle cx="14.45" cy="0" r="0.9" fill="#888"/>
<circle cx="28.81" cy="0" r="0.9" fill="#888"/>
<circle cx="43.10" cy="0" r="0.9" fill="#1060d0"/>
<circle cx="57.33" cy="0" r="0.9" fill="#888"/>
<circle cx="71.50" cy="0" r="0.9" fill="#888"/>
<circle cx="85.62" cy="0" r="0.9" fill="#888"/>
<circle cx="99.69" cy="0" r="0.9" fill="#c00000"/>
<circle cx="113.72" cy="0" r="0.9" fill="#888"/>
<circle cx="127.69" cy="0" r="0.9" fill="#888"/>
<circle cx="141.62" cy="0" r="0.9" fill="#1060d0"/>
<circle cx="155.50" cy="0" r="0.9" fill="#888"/>
<circle cx="169.86" cy="0" r="0.9" fill="#888"/>
<circle cx="184.66" cy="0" r="0.9" fill="#888"/>
<circle cx="199.41" cy="0" r="0.9" fill="#c00000"/>
<circle cx="214.11" cy="0" r="0.9" fill="#888"/>
<circle cx="228.67" cy="0" r="0.9" fill="#888"/>
<circle cx="243.14" cy="0" r="0.9" fill="#1060d0"/>
<circle cx="257.57" cy="0" r="0.9" fill="#888"/>
<circle cx="271.93" cy="0" r="0.9" fill="#888"/>
<circle cx="286.19" cy="0" r="0.9" fill="#888"/>
<circle cx="300.38" cy="0" r="0.9" fill="#c00000"/>
<circle cx="314.52" cy="0" r="0.9" fill="#888"/>
<circle cx="328.57" cy="0" r="0.9" fill="#888"/>
<circle cx="342.59" cy="0" r="0.9" fill="#1060d0"/>
<circle cx="356.58" cy="0" r="0.9" fill="#888"/>
<circle cx="370.52" cy="0" r="0.9" fill="#888"/>
<circle cx="384.40" cy="0" r="0.9" fill="#888"/>
<circle cx="398.23" cy="0" r="0.9" fill="#c00000"/>
<circle cx="412.04" cy="0" r="0.9" fill="#888"/>
<circle cx="425.83" cy="0" r="0.9" fill="#888"/>
<circle cx="439.59" cy="0" r="0.9" fill="#1060d0"/>
<circle cx="453.33" cy="0" r="0.9" fill="#888"/>
<circle cx="467.01" cy="0" r="0.9" fill="#888"/>
<circle cx="480.66" cy="0" r="0.9" fill="#888"/>
<circle cx="494.34" cy="0" r="0.9" fill="#c00000"/>
<circle cx="508.02" cy="0" r="0.9" fill="#888"/>
<circle cx="521.67" cy="0" r="0.9" fill="#888"/>
<circle cx="535.32" cy="0" r="0.9" fill="#1060d0"/>
<circle cx="548.94" cy="0" r="0.9" fill="#888"/>
<circle cx="562.52" cy="0" r="0.9" fill="#888"/>
<circle cx="576.05" cy="0" r="0.9" fill="#888"/>
<circle cx="589.55" cy="0" r="0.9" fill="#c00000"/>
<circle cx="603.01" cy="0" r="0.9" fill="#888"/>
<circle cx="616.45" cy="0" r="0.9" fill="#888"/>
<circle cx="629.87" cy="0" r="0.9" fill="#1060d0"/>
<circle cx="643.29" cy="0" r="0.9" fill="#888"/>
<rect x="-17.75" y="-16.00" width="32.00" height="32.00" fill="#666" fill-opacity="0.3" stroke="#5d4037" stroke-width="0.6"/>
<ellipse cx="112.66" cy="0" rx="114.66" ry="163.00" fill="none" stroke="#a000a0" stroke-width="0.9" stroke-dasharray="3,2" opacity="0.85"/>
</g>
</svg>