<?xml version="1.0" encoding="UTF-8"?>
<svg xmlns="http://www.w3.org/2000/svg" viewBox="-57.8 -259.1 793.6 490.1" width="900" height="555" font-family="sans-serif" font-size="12">
<rect x="-57.8" y="-259.1" width="793.6" height="490.1" fill="#fff"/>
<rect x="-45.8" y="-219.1" width="769.6" height="438.1" fill="none" stroke="#ccc" stroke-width="0.6"/>
<text x="-35.8" y="-231.1" font-family="sans-serif" font-size="22" font-weight="bold" fill="#000">TOP (xy, look -z)</text>
<g transform="scale(1,-1)">
<path d="M 148.46 189.07 L 148.29 189.07 L 148.14 189.07 L 148.12 189.07 L 148.26 189.07 L 148.59 189.07 L 149.13 189.07 L 149.90 189.07 L 150.88 189.07 L 152.08 189.07 L 153.43 189.07 L 154.53 188.80 L 154.91 188.17 L 158.38 187.46 L 162.66 186.69 L 166.91 185.88 L 171.12 185.04 L 175.30 184.16 L 179.46 183.27 L 183.60 182.35 L 187.72 181.42 L 191.82 180.47 L 195.91 179.51 L 199.98 178.53 L 204.04 177.54 L 208.08 176.54 L 212.11 175.52 L 216.13 174.50 L 220.13 173.46 L 224.12 172.42 L 228.11 171.36 L 232.08 170.30 L 236.04 169.23 L 239.99 168.15 L 243.93 167.06 L 247.86 165.96 L 251.79 164.85 L 255.70 163.73 L 259.61 162.61 L 263.50 161.47 L 267.39 160.33 L 271.27 159.18 L 275.15 158.02 L 279.01 156.84 L 282.87 155.66 L 286.72 154.47 L 290.57 153.27 L 294.40 152.05 L 298.22 150.82 L 302.04 149.57 L 305.85 148.31 L 309.65 147.04 L 313.46 145.76 L 317.26 144.47 L 321.05 143.17 L 324.85 141.86 L 328.66 140.54 L 332.46 139.21 L 336.27 137.87 L 340.08 136.53 L 343.91 135.18 L 347.74 133.82 L 351.58 132.46 L 355.44 131.09 L 359.31 129.71 L 363.20 128.33 L 367.11 126.95 L 371.04 125.56 L 375.00 124.16 L 378.98 122.76 L 382.99 121.36 L 387.03 119.95 L 391.11 118.54 L 395.23 117.13 L 399.39 115.71 L 403.59 114.29 L 407.84 112.86 L 412.15 111.44 L 416.51 110.01 L 420.94 108.58 L 425.43 107.15 L 429.99 105.71 L 434.62 104.27 L 439.34 102.83 L 444.14 101.39 L 449.04 99.95 L 454.03 98.51 L 459.12 97.07 L 464.33 95.62 L 469.64 94.18 L 475.08 92.73 L 480.64 91.28 L 486.33 89.84 L 492.15 88.39 L 498.12 86.94 L 504.23 85.50 L 510.49 84.05 L 516.89 82.60 L 523.46 81.16 L 530.18 79.71 L 537.05 78.27 L 544.08 76.83 L 551.27 75.38 L 558.61 73.94 L 566.11 72.50 L 573.75 71.06 L 581.54 69.63 L 589.48 68.19 L 597.54 66.76 L 605.75 65.33 L 614.07 63.90 L 622.52 62.47 L 631.08 61.05 L 639.75 59.63 L 648.52 58.21 L 657.39 56.80 L 666.35 55.39 L 675.39 53.98 L 684.60 52.58 L 693.86 51.18 L 693.86 -51.18 L 684.60 -52.58 L 675.39 -53.98 L 666.35 -55.39 L 657.39 -56.80 L 648.52 -58.21 L 639.75 -59.63 L 631.08 -61.05 L 622.52 -62.47 L 614.07 -63.90 L 605.75 -65.33 L 597.54 -66.76 L 589.48 -68.19 L 581.54 -69.63 L 573.75 -71.06 L 566.11 -72.50 L 558.61 -73.94 L 551.27 -75.38 L 544.08 -76.83 L 537.05 -78.27 L 530.18 -79.71 L 523.46 -81.16 L 516.89 -82.60 L 510.49 -84.05 L 504.23 -85.50 L 498.12 -86.94 L 492.15 -88.39 L 486.33 -89.84 L 480.64 -91.28 L 475.08 -92.73 L 469.64 -94.18 L 464.33 -95.62 L 459.12 -97.07 L 454.03 -98.51 L 449.04 -99.95 L 444.14 -101.39 L 439.34 -102.83 L 434.62 -104.27 L 429.99 -105.71 L 425.43 -107.15 L 420.94 -108.58 L 416.51 -110.01 L 412.15 -111.44 L 407.84 -112.86 L 403.59 -114.29 L 399.39 -115.71 L 395.23 -117.13 L 391.11 -118.54 L 387.03 -119.95 L 382.99 -121.36 L 378.98 -122.76 L 375.00 -124.16 L 371.04 -125.56 L 367.11 -126.95 L 363.20 -128.33 L 359.31 -129.71 L 355.44 -131.09 L 351.58 -132.46 L 347.74 -133.82 L 343.91 -135.18 L 340.08 -136.53 L 336.27 -137.87 L 332.46 -139.21 L 328.66 -140.54 L 324.85 -141.86 L 321.05 -143.17 L 317.26 -144.47 L 313.46 -145.76 L 309.65 -147.04 L 305.85 -148.31 L 302.04 -149.57 L 298.22 -150.82 L 294.40 -152.05 L 290.57 -153.27 L 286.72 -154.47 L 282.87 -155.66 L 279.01 -156.84 L 275.15 -158.02 L 271.27 -159.18 L 267.39 -160.33 L 263.50 -161.47 L 259.61 -162.61 L 255.70 -163.73 L 251.79 -164.85 L 247.86 -165.96 L 243.93 -167.06 L 239.99 -168.15 L 236.04 -169.23 L 232.08 -170.30 L 228.11 -171.36 L 224.12 -172.42 L 220.13 -173.46 L 216.13 -174.50 L 212.11 -175.52 L 208.08 -176.54 L 204.04 -177.54 L 199.98 -178.53 L 195.91 -179.51 L 191.82 -180.47 L 187.72 -181.42 L 183.60 -182.35 L 179.46 -183.27 L 175.30 -184.16 L 171.12 -185.04 L 166.91 -185.88 L 162.66 -186.69 L 158.38 -187.46 L 154.91 -188.17 L 154.53 -188.80 L 153.43 -189.07 L 152.08 -189.07 L 150.88 -189.07 L 149.90 -189.07 L 149.13 -189.07 L 148.59 -189.07 L 148.26 -189.07 L 148.12 -189.07 L 148.14 -189.07 L 148.29 -189.07 L 148.46 -189.07 L 148.46 189.07" fill="#e4d4b5" fill-opacity="0.7" stroke="#222" stroke-width="1.5"/>
<path d="M 237.44 0.00 L 236.66 14.88 L 234.33 29.58 L 230.49 43.92 L 225.20 57.72 L 218.53 70.82 L 210.59 83.08 L 201.50 94.34 L 191.39 104.51 L 180.41 113.47 L 168.71 121.16 L 156.46 127.52 L 143.83 132.52 L 130.97 136.14 L 118.07 138.40 L 105.26 139.34 L 92.71 139.00 L 80.55 137.46 L 68.90 134.81 L 57.87 131.15 L 47.55 126.59 L 38.00 121.25 L 29.29 115.26 L 21.44 108.73 L 14.47 101.80 L 8.37 94.58 L 3.12 87.19 L -1.32 79.74 L -4.99 72.32 L -7.97 65.00 L -10.32 57.87 L -12.12 50.96 L -13.44 44.31 L -14.38 37.95 L -15.00 31.87 L -15.38 26.07 L -15.60 20.52 L -15.70 15.18 L -15.74 10.02 L -15.75 4.98 L -15.75 0.00 L -15.75 -4.98 L -15.74 -10.02 L -15.70 -15.18 L -15.60 -20.52 L -15.38 -26.07 L -15.00 -31.87 L -14.38 -37.95 L -13.44 -44.31 L -12.12 -50.96 L -10.32 -57.87 L -7.97 -65.00 L -4.99 -72.32 L -1.32 -79.74 L 3.12 -87.19 L 8.37 -94.58 L 14.47 -101.80 L 21.44 -108.73 L 29.29 -115.26 L 38.00 -121.25 L 47.55 -126.59 L 57.87 -131.15 L 68.90 -134.81 L 80.55 -137.46 L 92.71 -139.00 L 105.26 -139.34 L 118.07 -138.40 L 130.97 -136.14 L 143.83 -132.52 L 156.46 -127.52 L 168.71 -121.16 L 180.41 -113.47 L 191.39 -104.51 L 201.50 -94.34 L 210.59 -83.08 L 218.53 -70.82 L 225.20 -57.72 L 230.49 -43.92 L 234.33 -29.58 L 236.66 -14.88 L 237.44 0.00" fill="none" stroke="#b8862b" stroke-width="1.0" stroke-dasharray="4,3"/>
<line x1="0.00" y1="0" x2="643.29" y2="0" stroke="#0a7" stroke-width="1.0"/>
<circle cx="0.00" cy="0" r="0.9" fill="#c00000"/>
<circle cx="14.45" cy="0" r="0.9" fill="#888"/>
<circle cx="28.81" cy="0" r="0.9" fill="#888"/>
<circle cx="43.10" cy="0" r="0.9" fill="#1060d0"/>
<circle cx="57.33" cy="0" r="0.9" fill="#888"/>
<circle cx="71.50" cy="0" r="0.9" fill="#888"/>
<circle cx="85.62" cy="0" r="0.9" fill="#888"/>
<circle cx="99.69" cy="0" r="0.9" fill="#c00000"/>
<circle cx="113.72" cy="0" r="0.9" fill="#888"/>
<circle cx="127.69" cy="0" r="0.9" fill="#888"/>
<circle cx="141.62" cy="0" r="0.9" fill="#1060d0"/>
<circle cx="155.50" cy="0" r="0.9" fill="#888"/>
<circle cx="169.86" cy="0" r="0.9" fill="#888"/>
<circle cx="184.66" cy="0" r="0.9" fill="#888"/>
<circle cx="199.41" cy="0" r="0.9" fill="#c00000"/>
<circle cx="214.11" cy="0" r="0.9" fill="#888"/>
<circle cx="228.67" cy="0" r="0.9" fill="#888"/>
<circle cx="243.14" cy="0" r="0.9" fill="#1060d0"/>
<circle cx="257.57" cy="0" r="0.9" fill="#888"/>
<circle cx="271.93" cy="0" r="0.9" fill="#888"/>
<circle cx="286.19" cy="0" r="0.9" fill="#888"/>
<circle cx="300.38" cy="0" r="0.9" fill="#c00000"/>
<circle cx="314.52" cy="0" r="0.9" fill="#888"/>
<circle cx="328.57" cy="0" r="0.9" fill="#888"/>
<circle cx="342.59" cy="0" r="0.9" fill="#1060d0"/>
<circle cx="356.58" cy="0" r="0.9" fill="#888"/>
<circle cx="370.52" cy="0" r="0.9" fill="#888"/>
<circle cx="384.40" cy="0" r="0.9" fill="#888"/>
<circle cx="398.23" cy="0" r="0.9" fill="#c00000"/>
<circle cx="412.04" cy="0" r="0.9" fill="#888"/>
<circle cx="425.83" cy="0" r="0.9" fill="#888"/>
<circle cx="439.59" cy="0" r="0.9" fill="#1060d0"/>
<circle cx="453.33" cy="0" r="0.9" fill="#888"/>
<circle cx="467.01" cy="0" r="0.9" fill="#888"/>
<circle cx="480.66" cy="0" r="0.9" fill="#888"/>
<circle cx="494.34" cy="0" r="0.9" fill="#c00000"/>
<circle cx="508.02" cy="0" r="0.9" fill="#888"/>
<circle cx="521.67" cy="0" r="0.9" fill="#888"/>
<circle cx="535.32" cy="0" r="0.9" fill="#1060d0"/>
<circle cx="548.94" cy="0" r="0.9" fill="#888"/>
<circle cx="562.52" cy="0" r="0.9" fill="#888"/>
<circle cx="576.05" cy="0" r="0.9" fill="#888"/>
<circle cx="589.55" cy="0" r="0.9" fill="#c00000"/>
<circle cx="603.01" cy="0" r="0.9" fill="#888"/>
<circle cx="616.45" cy="0" r="0.9" fill="#888"/>
<circle cx="629.87" cy="0" r="0.9" fill="#1060d0"/>
<circle cx="643.29" cy="0" r="0.9" fill="#888"/>
<rect x="-15.75" y="-16.00" width="27.99" height="32.00" fill="#666" fill-opacity="0.3" stroke="#3a2a14" stroke-width="0.6"/>
<ellipse cx="90.28" cy="0" rx="98.00" ry="120.00" fill="none" stroke="#a000a0" stroke-width="0.9" stroke-dasharray="3,2" opacity="0.85"/>
</g>
</svg>