<?xml version="1.0" encoding="UTF-8"?>
<svg xmlns="http://www.w3.org/2000/svg" viewBox="-242.3 -1956.8 984.2 2021.6" width="900" height="1848" font-family="sans-serif" font-size="12">
<rect x="-242.3" y="-1956.8" width="984.2" height="2021.6" fill="#fff"/>
<rect x="-230.3" y="-1916.8" width="960.2" height="1969.6" fill="none" stroke="#ccc" stroke-width="0.6"/>
<text x="-220.3" y="-1928.8" font-family="sans-serif" font-size="22" font-weight="bold" fill="#000">SIDE (xz, look +y)</text>
<g transform="scale(1,-1)">
<line x1="-230.3" y1="0" x2="729.9" y2="0" stroke="#888" stroke-width="0.6" stroke-dasharray="4,3" opacity="0.7"/>
<path d="M 0.00 186.78 L 12.21 223.27 L 24.14 259.01 L 35.79 294.01 L 47.18 328.27 L 58.30 361.81 L 69.17 394.63 L 79.80 426.76 L 90.18 458.21 L 100.33 488.97 L 110.25 519.08 L 119.96 548.53 L 129.45 577.34 L 138.74 605.53 L 147.83 633.10 L 156.72 660.06 L 165.43 686.43 L 173.97 712.22 L 182.33 737.44 L 190.53 762.10 L 198.57 786.21 L 206.46 809.79 L 214.21 832.85 L 221.82 855.40 L 229.30 877.44 L 236.66 899.00 L 243.90 920.09 L 251.03 940.70 L 258.06 960.87 L 265.00 980.60 L 271.85 999.89 L 278.62 1018.77 L 285.31 1037.25 L 291.93 1055.33 L 298.50 1073.02 L 305.01 1090.35 L 311.47 1107.32 L 317.90 1123.94 L 324.29 1140.23 L 330.66 1156.19 L 337.00 1171.84 L 343.34 1187.19 L 349.67 1202.25 L 356.00 1217.04 L 362.34 1231.56 L 368.69 1245.82 L 375.07 1259.85 L 381.48 1273.64 L 387.92 1287.22 L 394.41 1300.59 L 400.94 1313.76 L 407.54 1326.76 L 414.19 1339.58 L 420.92 1352.24 L 427.72 1364.75 L 434.61 1377.13 L 441.60 1389.38 L 448.67 1401.52 L 455.86 1413.56 L 463.16 1425.51 L 470.57 1437.38 L 478.11 1449.19 L 485.79 1460.94 L 493.60 1472.65 L 501.57 1484.33 L 509.68 1495.99 L 517.96 1507.64 L 526.40 1519.30 L 535.02 1530.97 L 543.81 1542.67 L 552.80 1554.41 L 561.98 1566.20 L 571.37 1578.05 L 580.96 1589.98 L 590.77 1602.00 L 600.80 1614.11 L 611.06 1626.33 L 621.56 1638.68 L 632.30 1651.16 L 643.29 1663.78 L 682.42 1629.52 L 652.45 1564.42 L 625.24 1499.38 L 601.51 1434.56 L 581.69 1370.00 L 565.76 1305.53 L 553.24 1240.71 L 543.43 1175.09 L 535.64 1108.34 L 529.31 1040.41 L 524.00 971.35 L 519.40 901.33 L 515.27 830.51 L 511.44 759.05 L 507.79 687.08 L 504.23 614.70 L 500.70 541.99 L 497.15 469.02 L 493.55 395.84 L 489.87 322.49 L 486.10 249.01 L 482.22 175.41 L 478.22 101.73 L 474.11 27.97 L 474.94 0.00 L -63.52 0.00 Z" fill="#e4d4b5" stroke="#222" stroke-width="1.5" stroke-linejoin="round"/>
<path d="M 0.00 186.78 C 325.29 1157.92, 350.50 1329.37, 643.29 1663.78" fill="none" stroke="#0a7" stroke-width="1.5"/>
<path d="M 643.29 1663.78 C 670.20 1694.52, 684.14 1725.06, 643.29 1725.06" fill="none" stroke="#0a7" stroke-width="1.0" stroke-dasharray="4,3" opacity="0.7"/>
<path d="M 0.00 186.78 C -21.17 123.56, -63.52 27.13, -63.52 -2.87" fill="none" stroke="#222" stroke-width="1.0"/>
<line x1="-63.52" y1="0" x2="474.94" y2="0" stroke="#b8862b" stroke-width="1.2" stroke-dasharray="6,4" opacity="0.85"/>
<line x1="0.00" y1="186.78" x2="474.11" y2="27.97" stroke="#b8862b" stroke-width="0.4" opacity="0.35"/>
<line x1="22.38" y1="253.74" x2="478.22" y2="101.73" stroke="#b8862b" stroke-width="0.4" opacity="0.35"/>
<line x1="44.68" y1="320.74" x2="482.22" y2="175.41" stroke="#b8862b" stroke-width="0.4" opacity="0.35"/>
<line x1="66.90" y1="387.76" x2="486.10" y2="249.01" stroke="#b8862b" stroke-width="0.4" opacity="0.35"/>
<line x1="89.05" y1="454.80" x2="489.87" y2="322.49" stroke="#b8862b" stroke-width="0.4" opacity="0.35"/>
<line x1="111.17" y1="521.85" x2="493.55" y2="395.84" stroke="#b8862b" stroke-width="0.4" opacity="0.35"/>
<line x1="133.26" y1="588.91" x2="497.15" y2="469.02" stroke="#b8862b" stroke-width="0.4" opacity="0.35"/>
<line x1="155.37" y1="655.97" x2="500.70" y2="541.99" stroke="#b8862b" stroke-width="0.4" opacity="0.35"/>
<line x1="177.54" y1="723.00" x2="504.23" y2="614.70" stroke="#b8862b" stroke-width="0.4" opacity="0.35"/>
<line x1="199.83" y1="790.00" x2="507.79" y2="687.08" stroke="#b8862b" stroke-width="0.4" opacity="0.35"/>
<line x1="222.33" y1="856.92" x2="511.44" y2="759.05" stroke="#b8862b" stroke-width="0.4" opacity="0.35"/>
<line x1="245.16" y1="923.74" x2="515.27" y2="830.51" stroke="#b8862b" stroke-width="0.4" opacity="0.35"/>
<line x1="268.47" y1="990.39" x2="519.40" y2="901.33" stroke="#b8862b" stroke-width="0.4" opacity="0.35"/>
<line x1="292.47" y1="1056.79" x2="524.00" y2="971.35" stroke="#b8862b" stroke-width="0.4" opacity="0.35"/>
<line x1="317.46" y1="1122.82" x2="529.31" y2="1040.41" stroke="#b8862b" stroke-width="0.4" opacity="0.35"/>
<line x1="343.81" y1="1188.33" x2="535.64" y2="1108.34" stroke="#b8862b" stroke-width="0.4" opacity="0.35"/>
<line x1="371.97" y1="1253.07" x2="543.43" y2="1175.09" stroke="#b8862b" stroke-width="0.4" opacity="0.35"/>
<line x1="402.45" y1="1316.76" x2="553.24" y2="1240.71" stroke="#b8862b" stroke-width="0.4" opacity="0.35"/>
<line x1="435.69" y1="1379.04" x2="565.76" y2="1305.53" stroke="#b8862b" stroke-width="0.4" opacity="0.35"/>
<line x1="471.98" y1="1439.60" x2="581.69" y2="1370.00" stroke="#b8862b" stroke-width="0.4" opacity="0.35"/>
<line x1="511.28" y1="1498.25" x2="601.51" y2="1434.56" stroke="#b8862b" stroke-width="0.4" opacity="0.35"/>
<line x1="553.27" y1="1555.01" x2="625.24" y2="1499.38" stroke="#b8862b" stroke-width="0.4" opacity="0.35"/>
<line x1="597.45" y1="1610.08" x2="652.45" y2="1564.42" stroke="#b8862b" stroke-width="0.4" opacity="0.35"/>
<line x1="643.29" y1="1663.78" x2="682.42" y2="1629.52" stroke="#b8862b" stroke-width="0.4" opacity="0.35"/>
<path d="M -263.13 1786.78 C -269.51 1838.72, -191.00 1865.55, -139.22 1866.78" fill="none" stroke="#3a2a14" stroke-width="1.0"/>
<path d="M -139.22 1866.78 C -40.08 1869.13, 59.55 1816.81, 159.43 1796.78" fill="none" stroke="#3a2a14" stroke-width="1.0"/>
<path d="M 159.43 1796.78 C 248.76 1778.87, 339.09 1753.04, 428.04 1753.04" fill="none" stroke="#3a2a14" stroke-width="1.0"/>
<path d="M 431.48 1725.06 C 391.93 1712.30, 354.44 1693.79, 312.82 1686.78" fill="none" stroke="#3a2a14" stroke-width="1.0"/>
<path d="M 312.82 1686.78 C 228.68 1672.60, 139.51 1677.96, 55.97 1661.78" fill="none" stroke="#3a2a14" stroke-width="1.0"/>
<path d="M 55.97 1661.78 C -62.50 1638.83, -236.93 1573.43, -221.78 1450.00" fill="none" stroke="#3a2a14" stroke-width="1.0"/>
<path d="M -221.78 1450.00 C -235.56 1562.26, -249.35 1674.52, -263.13 1786.78" fill="none" stroke="#3a2a14" stroke-width="1.0"/>
<polygon points="-43.74,-2.87 -15.75,-2.87 -235.14,1786.78 -263.13,1786.78" fill="#666" fill-opacity="0.35" stroke="#3a2a14" stroke-width="0.8"/>
<line x1="0.00" y1="186.78" x2="-200.26" y2="1817.73" stroke="#c00000" stroke-width="2.550" stroke-linecap="round"/>
<line x1="14.45" y1="229.98" x2="-177.29" y2="1791.55" stroke="#888" stroke-width="2.380" stroke-linecap="round"/>
<line x1="28.81" y1="273.04" x2="-154.53" y2="1766.22" stroke="#888" stroke-width="2.244" stroke-linecap="round"/>
<line x1="43.10" y1="315.99" x2="-136.38" y2="1777.72" stroke="#1060d0" stroke-width="2.159" stroke-linecap="round"/>
<line x1="57.33" y1="358.87" x2="-115.69" y2="1767.99" stroke="#888" stroke-width="2.023" stroke-linecap="round"/>
<line x1="71.50" y1="401.67" x2="-95.06" y2="1758.18" stroke="#888" stroke-width="1.938" stroke-linecap="round"/>
<line x1="85.62" y1="444.39" x2="-83.52" y2="1821.95" stroke="#888" stroke-width="1.853" stroke-linecap="round"/>
<line x1="99.69" y1="487.03" x2="-68.16" y2="1854.07" stroke="#c00000" stroke-width="1.785" stroke-linecap="round"/>
<line x1="113.72" y1="529.59" x2="-45.73" y2="1828.24" stroke="#888" stroke-width="1.700" stroke-linecap="round"/>
<line x1="127.69" y1="572.00" x2="-23.38" y2="1802.36" stroke="#888" stroke-width="1.615" stroke-linecap="round"/>
<line x1="141.62" y1="614.27" x2="-5.57" y2="1813.07" stroke="#1060d0" stroke-width="1.547" stroke-linecap="round"/>
<line x1="155.50" y1="656.36" x2="14.76" y2="1802.55" stroke="#888" stroke-width="1.462" stroke-linecap="round"/>
<line x1="169.86" y1="699.81" x2="34.94" y2="1798.66" stroke="#888" stroke-width="2.700" stroke-linecap="round"/>
<line x1="184.66" y1="744.45" x2="55.54" y2="1796.06" stroke="#888" stroke-width="2.700" stroke-linecap="round"/>
<line x1="199.41" y1="788.73" x2="76.75" y2="1787.73" stroke="#c00000" stroke-width="2.700" stroke-linecap="round"/>
<line x1="214.11" y1="832.56" x2="97.26" y2="1784.22" stroke="#888" stroke-width="2.700" stroke-linecap="round"/>
<line x1="228.67" y1="875.60" x2="117.63" y2="1779.91" stroke="#888" stroke-width="2.499" stroke-linecap="round"/>
<line x1="243.14" y1="917.88" x2="137.91" y2="1774.95" stroke="#1060d0" stroke-width="2.499" stroke-linecap="round"/>
<line x1="257.57" y1="959.46" x2="158.15" y2="1769.18" stroke="#888" stroke-width="2.380" stroke-linecap="round"/>
<line x1="271.93" y1="1000.12" x2="177.68" y2="1767.76" stroke="#888" stroke-width="2.244" stroke-linecap="round"/>
<line x1="286.19" y1="1039.66" x2="195.81" y2="1775.74" stroke="#888" stroke-width="2.023" stroke-linecap="round"/>
<line x1="300.38" y1="1078.05" x2="215.17" y2="1772.04" stroke="#c00000" stroke-width="2.023" stroke-linecap="round"/>
<line x1="314.52" y1="1115.23" x2="233.82" y2="1772.49" stroke="#888" stroke-width="1.853" stroke-linecap="round"/>
<line x1="328.57" y1="1150.98" x2="252.39" y2="1771.43" stroke="#888" stroke-width="1.734" stroke-linecap="round"/>
<line x1="342.59" y1="1185.39" x2="270.93" y2="1769.01" stroke="#1060d0" stroke-width="1.734" stroke-linecap="round"/>
<line x1="356.58" y1="1218.38" x2="288.80" y2="1770.43" stroke="#888" stroke-width="1.649" stroke-linecap="round"/>
<line x1="370.52" y1="1249.87" x2="306.61" y2="1770.36" stroke="#888" stroke-width="1.547" stroke-linecap="round"/>
<line x1="384.40" y1="1279.84" x2="323.72" y2="1774.03" stroke="#888" stroke-width="1.462" stroke-linecap="round"/>
<line x1="398.23" y1="1308.33" x2="343.35" y2="1755.28" stroke="#c00000" stroke-width="1.377" stroke-linecap="round"/>
<line x1="412.04" y1="1335.46" x2="361.04" y2="1750.85" stroke="#888" stroke-width="1.377" stroke-linecap="round"/>
<line x1="425.83" y1="1361.30" x2="378.70" y2="1745.11" stroke="#888" stroke-width="1.292" stroke-linecap="round"/>
<line x1="439.59" y1="1385.89" x2="395.69" y2="1743.41" stroke="#1060d0" stroke-width="1.292" stroke-linecap="round"/>
<line x1="453.33" y1="1409.35" x2="412.02" y2="1745.83" stroke="#888" stroke-width="1.207" stroke-linecap="round"/>
<line x1="467.01" y1="1431.71" x2="428.93" y2="1741.88" stroke="#888" stroke-width="1.105" stroke-linecap="round"/>
<line x1="480.66" y1="1453.11" x2="445.79" y2="1737.08" stroke="#888" stroke-width="1.105" stroke-linecap="round"/>
<line x1="494.34" y1="1473.74" x2="463.35" y2="1726.14" stroke="#c00000" stroke-width="1.207" stroke-linecap="round"/>
<line x1="508.02" y1="1493.62" x2="480.26" y2="1719.72" stroke="#888" stroke-width="1.105" stroke-linecap="round"/>
<line x1="521.67" y1="1512.79" x2="496.49" y2="1717.85" stroke="#888" stroke-width="1.105" stroke-linecap="round"/>
<line x1="535.32" y1="1531.38" x2="512.34" y2="1718.57" stroke="#1060d0" stroke-width="1.105" stroke-linecap="round"/>
<line x1="548.94" y1="1549.39" x2="527.64" y2="1722.89" stroke="#888" stroke-width="1.020" stroke-linecap="round"/>
<line x1="562.52" y1="1566.88" x2="542.90" y2="1726.68" stroke="#888" stroke-width="0.935" stroke-linecap="round"/>
<line x1="576.05" y1="1583.90" x2="557.72" y2="1733.18" stroke="#888" stroke-width="0.867" stroke-linecap="round"/>
<line x1="589.55" y1="1600.51" x2="572.77" y2="1737.19" stroke="#c00000" stroke-width="0.816" stroke-linecap="round"/>
<line x1="603.01" y1="1616.76" x2="587.78" y2="1740.83" stroke="#888" stroke-width="0.765" stroke-linecap="round"/>
<line x1="616.45" y1="1632.69" x2="602.90" y2="1743.06" stroke="#888" stroke-width="0.714" stroke-linecap="round"/>
<line x1="629.87" y1="1648.35" x2="617.99" y2="1745.12" stroke="#1060d0" stroke-width="0.714" stroke-linecap="round"/>
<line x1="643.29" y1="1663.78" x2="633.74" y2="1741.59" stroke="#888" stroke-width="0.714" stroke-linecap="round"/>
<circle cx="-200.26" cy="1817.73" r="8.0" fill="#c00000" fill-opacity="0.13"/>
<circle cx="-178.41" cy="1639.77" r="8.0" fill="#1060d0" fill-opacity="0.13"/>
<circle cx="-177.29" cy="1791.55" r="8.0" fill="#c00000" fill-opacity="0.13"/>
<circle cx="-156.37" cy="1621.23" r="8.0" fill="#1060d0" fill-opacity="0.13"/>
<circle cx="-154.53" cy="1766.22" r="8.0" fill="#c00000" fill-opacity="0.13"/>
<circle cx="-134.53" cy="1603.34" r="8.0" fill="#1060d0" fill-opacity="0.13"/>
<circle cx="-136.38" cy="1777.72" r="8.0" fill="#c00000" fill-opacity="0.13"/>
<circle cx="-116.79" cy="1618.21" r="8.0" fill="#1060d0" fill-opacity="0.13"/>
<circle cx="-115.69" cy="1767.99" r="8.0" fill="#c00000" fill-opacity="0.13"/>
<circle cx="-96.81" cy="1614.25" r="8.0" fill="#1060d0" fill-opacity="0.13"/>
<circle cx="-95.06" cy="1758.18" r="8.0" fill="#c00000" fill-opacity="0.13"/>
<circle cx="-76.89" cy="1610.19" r="8.0" fill="#1060d0" fill-opacity="0.13"/>
<circle cx="-83.52" cy="1821.95" r="8.0" fill="#c00000" fill-opacity="0.13"/>
<circle cx="-65.07" cy="1671.68" r="8.0" fill="#1060d0" fill-opacity="0.13"/>
<circle cx="-68.16" cy="1854.07" r="8.0" fill="#c00000" fill-opacity="0.13"/>
<circle cx="-49.84" cy="1704.89" r="8.0" fill="#1060d0" fill-opacity="0.13"/>
<circle cx="-45.73" cy="1828.24" r="8.0" fill="#c00000" fill-opacity="0.13"/>
<circle cx="-28.34" cy="1686.60" r="8.0" fill="#1060d0" fill-opacity="0.13"/>
<circle cx="-23.38" cy="1802.36" r="8.0" fill="#c00000" fill-opacity="0.13"/>
<circle cx="-6.89" cy="1668.07" r="8.0" fill="#1060d0" fill-opacity="0.13"/>
<circle cx="-5.57" cy="1813.07" r="8.0" fill="#c00000" fill-opacity="0.13"/>
<circle cx="10.49" cy="1682.25" r="8.0" fill="#1060d0" fill-opacity="0.13"/>
<circle cx="14.76" cy="1802.55" r="8.0" fill="#c00000" fill-opacity="0.13"/>
<circle cx="30.12" cy="1677.49" r="8.0" fill="#1060d0" fill-opacity="0.13"/>
<circle cx="34.94" cy="1798.66" r="8.0" fill="#c00000" fill-opacity="0.13"/>
<circle cx="49.66" cy="1678.76" r="8.0" fill="#1060d0" fill-opacity="0.13"/>
<circle cx="55.54" cy="1796.06" r="8.0" fill="#c00000" fill-opacity="0.13"/>
<circle cx="69.63" cy="1681.32" r="8.0" fill="#1060d0" fill-opacity="0.13"/>
<circle cx="76.75" cy="1787.73" r="8.0" fill="#c00000" fill-opacity="0.13"/>
<circle cx="90.13" cy="1678.75" r="8.0" fill="#1060d0" fill-opacity="0.13"/>
<circle cx="97.26" cy="1784.22" r="8.0" fill="#c00000" fill-opacity="0.13"/>
<circle cx="110.01" cy="1680.40" r="8.0" fill="#1060d0" fill-opacity="0.13"/>
<circle cx="117.63" cy="1779.91" r="8.0" fill="#c00000" fill-opacity="0.13"/>
<circle cx="129.75" cy="1681.25" r="8.0" fill="#1060d0" fill-opacity="0.13"/>
<circle cx="137.91" cy="1774.95" r="8.0" fill="#c00000" fill-opacity="0.13"/>
<circle cx="149.39" cy="1681.45" r="8.0" fill="#1060d0" fill-opacity="0.13"/>
<circle cx="158.15" cy="1769.18" r="8.0" fill="#c00000" fill-opacity="0.13"/>
<circle cx="169.00" cy="1680.84" r="8.0" fill="#1060d0" fill-opacity="0.13"/>
<circle cx="177.68" cy="1767.76" r="8.0" fill="#c00000" fill-opacity="0.13"/>
<circle cx="187.96" cy="1683.99" r="8.0" fill="#1060d0" fill-opacity="0.13"/>
<circle cx="195.81" cy="1775.74" r="8.0" fill="#c00000" fill-opacity="0.13"/>
<circle cx="205.67" cy="1695.44" r="8.0" fill="#1060d0" fill-opacity="0.13"/>
<circle cx="215.17" cy="1772.04" r="8.0" fill="#c00000" fill-opacity="0.13"/>
<circle cx="224.45" cy="1696.41" r="8.0" fill="#1060d0" fill-opacity="0.13"/>
<circle cx="233.82" cy="1772.49" r="8.0" fill="#c00000" fill-opacity="0.13"/>
<circle cx="242.63" cy="1700.73" r="8.0" fill="#1060d0" fill-opacity="0.13"/>
<circle cx="252.39" cy="1771.43" r="8.0" fill="#c00000" fill-opacity="0.13"/>
<circle cx="260.70" cy="1703.73" r="8.0" fill="#1060d0" fill-opacity="0.13"/>
<circle cx="270.93" cy="1769.01" r="8.0" fill="#c00000" fill-opacity="0.13"/>
<circle cx="278.74" cy="1705.38" r="8.0" fill="#1060d0" fill-opacity="0.13"/>
<circle cx="288.80" cy="1770.43" r="8.0" fill="#c00000" fill-opacity="0.13"/>
<circle cx="296.19" cy="1710.19" r="8.0" fill="#1060d0" fill-opacity="0.13"/>
<circle cx="306.61" cy="1770.36" r="8.0" fill="#c00000" fill-opacity="0.13"/>
<circle cx="313.58" cy="1713.59" r="8.0" fill="#1060d0" fill-opacity="0.13"/>
<circle cx="323.72" cy="1774.03" r="8.0" fill="#c00000" fill-opacity="0.13"/>
<circle cx="330.34" cy="1720.13" r="8.0" fill="#1060d0" fill-opacity="0.13"/>
<circle cx="343.35" cy="1755.28" r="8.0" fill="#c00000" fill-opacity="0.13"/>
<circle cx="349.35" cy="1706.44" r="8.0" fill="#1060d0" fill-opacity="0.13"/>
<circle cx="361.04" cy="1750.85" r="8.0" fill="#c00000" fill-opacity="0.13"/>
<circle cx="366.61" cy="1705.49" r="8.0" fill="#1060d0" fill-opacity="0.13"/>
<circle cx="378.70" cy="1745.11" r="8.0" fill="#c00000" fill-opacity="0.13"/>
<circle cx="383.85" cy="1703.23" r="8.0" fill="#1060d0" fill-opacity="0.13"/>
<circle cx="395.69" cy="1743.41" r="8.0" fill="#c00000" fill-opacity="0.13"/>
<circle cx="400.48" cy="1704.40" r="8.0" fill="#1060d0" fill-opacity="0.13"/>
<circle cx="412.02" cy="1745.83" r="8.0" fill="#c00000" fill-opacity="0.13"/>
<circle cx="416.52" cy="1709.10" r="8.0" fill="#1060d0" fill-opacity="0.13"/>
<circle cx="428.93" cy="1741.88" r="8.0" fill="#c00000" fill-opacity="0.13"/>
<circle cx="433.08" cy="1708.04" r="8.0" fill="#1060d0" fill-opacity="0.13"/>
<circle cx="445.79" cy="1737.08" r="8.0" fill="#c00000" fill-opacity="0.13"/>
<circle cx="449.61" cy="1706.02" r="8.0" fill="#1060d0" fill-opacity="0.13"/>
<circle cx="463.35" cy="1726.14" r="8.0" fill="#c00000" fill-opacity="0.13"/>
<circle cx="466.74" cy="1698.55" r="8.0" fill="#1060d0" fill-opacity="0.13"/>
<circle cx="480.26" cy="1719.72" r="8.0" fill="#c00000" fill-opacity="0.13"/>
<circle cx="483.29" cy="1695.01" r="8.0" fill="#1060d0" fill-opacity="0.13"/>
<circle cx="496.49" cy="1717.85" r="8.0" fill="#c00000" fill-opacity="0.13"/>
<circle cx="499.23" cy="1695.52" r="8.0" fill="#1060d0" fill-opacity="0.13"/>
<circle cx="512.34" cy="1718.57" r="8.0" fill="#c00000" fill-opacity="0.13"/>
<circle cx="514.85" cy="1698.12" r="8.0" fill="#1060d0" fill-opacity="0.13"/>
<circle cx="527.64" cy="1722.89" r="8.0" fill="#c00000" fill-opacity="0.13"/>
<circle cx="529.97" cy="1703.93" r="8.0" fill="#1060d0" fill-opacity="0.13"/>
<circle cx="542.90" cy="1726.68" r="8.0" fill="#c00000" fill-opacity="0.13"/>
<circle cx="545.03" cy="1709.31" r="8.0" fill="#1060d0" fill-opacity="0.13"/>
<circle cx="557.72" cy="1733.18" r="8.0" fill="#c00000" fill-opacity="0.13"/>
<circle cx="559.72" cy="1716.90" r="8.0" fill="#1060d0" fill-opacity="0.13"/>
<circle cx="572.77" cy="1737.19" r="8.0" fill="#c00000" fill-opacity="0.13"/>
<circle cx="574.60" cy="1722.30" r="8.0" fill="#1060d0" fill-opacity="0.13"/>
<circle cx="587.78" cy="1740.83" r="8.0" fill="#c00000" fill-opacity="0.13"/>
<circle cx="589.43" cy="1727.33" r="8.0" fill="#1060d0" fill-opacity="0.13"/>
<circle cx="602.90" cy="1743.06" r="8.0" fill="#c00000" fill-opacity="0.13"/>
<circle cx="604.37" cy="1731.05" r="8.0" fill="#1060d0" fill-opacity="0.13"/>
<circle cx="617.99" cy="1745.12" r="8.0" fill="#c00000" fill-opacity="0.13"/>
<circle cx="619.29" cy="1734.50" r="8.0" fill="#1060d0" fill-opacity="0.13"/>
<circle cx="633.74" cy="1741.59" r="8.0" fill="#c00000" fill-opacity="0.13"/>
<circle cx="634.78" cy="1733.06" r="8.0" fill="#1060d0" fill-opacity="0.13"/>
<circle cx="0.00" cy="186.78" r="2.0" fill="#222"/>
<circle cx="643.29" cy="1663.78" r="2.0" fill="#222"/>
<circle cx="-63.52" cy="-2.87" r="2.0" fill="#222"/>
<circle cx="474.94" cy="-2.87" r="2.0" fill="#222"/>
<circle cx="-263.13" cy="1786.78" r="2.0" fill="#222"/>
<circle cx="-139.22" cy="1866.78" r="2.0" fill="#222"/>
<circle cx="159.43" cy="1796.78" r="2.0" fill="#222"/>
<circle cx="428.04" cy="1753.04" r="2.0" fill="#222"/>
<circle cx="489.76" cy="1711.78" r="2.0" fill="#222"/>
<circle cx="431.48" cy="1725.06" r="2.0" fill="#222"/>
<circle cx="312.82" cy="1686.78" r="2.0" fill="#222"/>
<circle cx="55.97" cy="1661.78" r="2.0" fill="#222"/>
<circle cx="-221.78" cy="1450.00" r="2.0" fill="#222"/>
</g>
</svg>