<?xml version="1.0" encoding="UTF-8"?>
<svg xmlns="http://www.w3.org/2000/svg" viewBox="-265.3 -1984.2 1037.7 2046.2" width="900" height="1774" font-family="sans-serif" font-size="12">
<rect x="-265.3" y="-1984.2" width="1037.7" height="2046.2" fill="#fff"/>
<rect x="-253.3" y="-1944.2" width="1013.7" height="1994.2" fill="none" stroke="#ccc" stroke-width="0.6"/>
<text x="-243.3" y="-1956.2" font-family="sans-serif" font-size="22" font-weight="bold" fill="#000">SIDE (xz, look +y)</text>
<g transform="scale(1,-1)">
<line x1="-253.3" y1="0" x2="760.4" y2="0" stroke="#888" stroke-width="0.6" stroke-dasharray="4,3" opacity="0.7"/>
<path d="M -23.28 0.00 L 320.28 0.00 L 320.28 1.57 L 320.29 3.13 L 320.30 4.70 L 320.32 6.26 L 320.35 7.83 L 320.38 9.39 L 320.41 10.96 L 320.45 12.52 L 320.50 14.09 L 320.55 15.65 L 320.61 17.22 L 320.67 18.78 L 320.74 20.34 L 320.81 21.91 L 320.89 23.47 L 320.98 25.03 L 321.06 26.60 L 321.16 28.16 L 321.26 29.72 L 321.37 31.28 L 321.48 32.84 L 321.59 34.41 L 321.72 35.97 L 321.84 37.53 L 321.98 39.09 L 322.12 40.65 L 322.26 42.20 L 322.41 43.76 L 322.56 45.32 L 322.72 46.88 L 322.89 48.43 L 323.06 49.99 L 323.24 51.55 L 323.42 53.10 L 323.61 54.66 L 323.80 56.21 L 324.00 57.76 L 324.20 59.31 L 324.41 60.87 L 324.62 62.42 L 324.84 63.97 L 325.07 65.52 L 325.30 67.06 L 325.53 68.61 L 325.78 70.16 L 326.02 71.70 L 326.27 73.25 L 326.53 74.79 L 326.79 76.34 L 327.06 77.88 L 327.34 79.42 L 327.61 80.96 L 327.90 82.50 L 328.19 84.04 L 328.48 85.58 L 328.78 87.11 L 329.09 88.65 L 329.40 90.18 L 329.71 91.71 L -6.65 161.66 L -7.21 158.96 L -7.76 156.25 L -8.29 153.55 L -8.82 150.84 L -9.34 148.13 L -9.85 145.42 L -10.35 142.70 L -10.84 139.99 L -11.33 137.27 L -11.80 134.55 L -12.26 131.83 L -12.71 129.11 L -13.16 126.39 L -13.59 123.66 L -14.02 120.94 L -14.43 118.21 L -14.84 115.48 L -15.24 112.75 L -15.62 110.02 L -16.00 107.28 L -16.37 104.55 L -16.73 101.81 L -17.08 99.08 L -17.42 96.34 L -17.75 93.60 L -18.07 90.86 L -18.38 88.12 L -18.68 85.37 L -18.97 82.63 L -19.25 79.88 L -19.53 77.14 L -19.79 74.39 L -20.04 71.64 L -20.29 68.90 L -20.52 66.15 L -20.75 63.40 L -20.96 60.65 L -21.17 57.89 L -21.36 55.14 L -21.55 52.39 L -21.73 49.63 L -21.90 46.88 L -22.05 44.13 L -22.20 41.37 L -22.34 38.61 L -22.47 35.86 L -22.59 33.10 L -22.70 30.34 L -22.80 27.59 L -22.89 24.83 L -22.97 22.07 L -23.05 19.31 L -23.11 16.55 L -23.16 13.80 L -23.20 11.04 L -23.24 8.28 L -23.26 5.52 L -23.28 2.76 Z" fill="#a000a0" fill-opacity="0.18" stroke="#a000a0" stroke-width="1.5" stroke-linejoin="round"/>
<circle cx="-23.28" cy="0.00" r="2.0" fill="#3a2a14"/>
<text transform="matrix(1,0,0,-1,-41.3,14.0)" font-family="sans-serif" font-size="11" font-weight="700" fill="#3a2a14">P0</text>
<circle cx="320.28" cy="0.00" r="2.0" fill="#3a2a14"/>
<text transform="matrix(1,0,0,-1,326.3,4.0)" font-family="sans-serif" font-size="11" font-weight="700" fill="#3a2a14">P1</text>
<circle cx="329.71" cy="91.71" r="2.0" fill="#3a2a14"/>
<text transform="matrix(1,0,0,-1,337.7,107.7)" font-family="sans-serif" font-size="11" font-weight="700" fill="#3a2a14">P2</text>
<circle cx="-6.65" cy="161.66" r="2.0" fill="#3a2a14"/>
<text transform="matrix(1,0,0,-1,-28.7,177.7)" font-family="sans-serif" font-size="11" font-weight="700" fill="#3a2a14">P3</text>
<path d="M -6.65 161.66 L -6.16 163.97 L -5.65 166.28 L -5.12 168.58 L -4.57 170.88 L -3.99 173.17 L -3.39 175.46 L -2.77 177.74 L -2.12 180.01 L -1.44 182.28 L -0.74 184.53 L 0.00 186.78 L 12.21 223.27 L 24.14 259.01 L 35.79 294.01 L 47.18 328.27 L 58.30 361.81 L 69.17 394.63 L 79.80 426.76 L 90.18 458.21 L 100.33 488.97 L 110.25 519.08 L 119.96 548.53 L 129.45 577.34 L 138.74 605.53 L 147.83 633.10 L 156.72 660.06 L 165.43 686.43 L 173.97 712.22 L 182.33 737.44 L 190.53 762.10 L 198.57 786.21 L 206.46 809.79 L 214.21 832.85 L 221.82 855.40 L 229.30 877.44 L 236.66 899.00 L 243.90 920.09 L 251.03 940.70 L 258.06 960.87 L 265.00 980.60 L 271.85 999.89 L 278.62 1018.77 L 285.31 1037.25 L 291.93 1055.33 L 298.50 1073.02 L 305.01 1090.35 L 311.47 1107.32 L 317.90 1123.94 L 324.29 1140.23 L 330.66 1156.19 L 337.00 1171.84 L 343.34 1187.19 L 349.67 1202.25 L 356.00 1217.04 L 362.34 1231.56 L 368.69 1245.82 L 375.07 1259.85 L 381.48 1273.64 L 387.92 1287.22 L 394.41 1300.59 L 400.94 1313.76 L 407.54 1326.76 L 414.19 1339.58 L 420.92 1352.24 L 427.72 1364.75 L 434.61 1377.13 L 441.60 1389.38 L 448.67 1401.52 L 455.86 1413.56 L 463.16 1425.51 L 470.57 1437.38 L 478.11 1449.19 L 485.79 1460.94 L 493.60 1472.65 L 501.57 1484.33 L 509.68 1495.99 L 517.96 1507.64 L 526.40 1519.30 L 535.02 1530.97 L 543.81 1542.67 L 552.80 1554.41 L 561.98 1566.20 L 571.37 1578.05 L 580.96 1589.98 L 590.77 1602.00 L 600.80 1614.11 L 611.06 1626.33 L 621.56 1638.68 L 632.30 1651.16 L 643.29 1663.78 L 660.42 1683.34 L 730.39 1622.08 L 730.39 1622.08 L 709.78 1588.71 L 690.24 1555.89 L 671.49 1523.05 L 653.64 1490.17 L 636.77 1457.27 L 620.98 1424.34 L 606.29 1391.36 L 592.72 1358.28 L 580.23 1325.03 L 568.72 1291.53 L 558.12 1257.70 L 548.31 1223.47 L 539.18 1188.79 L 530.62 1153.63 L 522.55 1118.00 L 514.88 1081.93 L 507.53 1045.43 L 500.45 1008.55 L 493.57 971.34 L 486.86 933.84 L 480.25 896.08 L 473.72 858.11 L 467.23 819.96 L 460.74 781.65 L 454.24 743.22 L 447.69 704.69 L 441.06 666.09 L 434.32 627.42 L 427.44 588.73 L 420.43 550.01 L 413.30 511.26 L 406.05 472.49 L 398.69 433.72 L 391.22 394.93 L 383.63 356.15 L 375.91 317.37 L 368.05 278.61 L 360.04 239.87 L 351.86 201.16 L 343.48 162.50 L 334.82 123.91 L 325.76 85.43 L 329.71 91.71 Z" fill="#0a7" fill-opacity="0.18" stroke="#0a7" stroke-width="1.5" stroke-linejoin="round"/>
<circle cx="435.52" cy="634.25" r="8.00" fill="#fff" fill-opacity="0.85" stroke="#664400" stroke-width="0.9"/>
<circle cx="435.52" cy="634.25" r="5.00" fill="none" stroke="#664400" stroke-width="0.6" stroke-dasharray="2,2" opacity="0.85"/>
<line x1="423.52" y1="634.25" x2="447.52" y2="634.25" stroke="#664400" stroke-width="0.5" stroke-dasharray="3,2" opacity="0.85"/>
<line x1="435.52" y1="622.25" x2="435.52" y2="646.25" stroke="#664400" stroke-width="0.5" stroke-dasharray="3,2" opacity="0.85"/>
<circle cx="469.11" cy="831.05" r="8.00" fill="#fff" fill-opacity="0.85" stroke="#664400" stroke-width="0.9"/>
<circle cx="469.11" cy="831.05" r="5.00" fill="none" stroke="#664400" stroke-width="0.6" stroke-dasharray="2,2" opacity="0.85"/>
<line x1="457.11" y1="831.05" x2="481.11" y2="831.05" stroke="#664400" stroke-width="0.5" stroke-dasharray="3,2" opacity="0.85"/>
<line x1="469.11" y1="819.05" x2="469.11" y2="843.05" stroke="#664400" stroke-width="0.5" stroke-dasharray="3,2" opacity="0.85"/>
<circle cx="503.28" cy="1023.50" r="8.00" fill="#fff" fill-opacity="0.85" stroke="#664400" stroke-width="0.9"/>
<circle cx="503.28" cy="1023.50" r="5.00" fill="none" stroke="#664400" stroke-width="0.6" stroke-dasharray="2,2" opacity="0.85"/>
<line x1="491.28" y1="1023.50" x2="515.28" y2="1023.50" stroke="#664400" stroke-width="0.5" stroke-dasharray="3,2" opacity="0.85"/>
<line x1="503.28" y1="1011.50" x2="503.28" y2="1035.50" stroke="#664400" stroke-width="0.5" stroke-dasharray="3,2" opacity="0.85"/>
<path d="m -223.34,1690.42 c -15.3923,61.4799 209.726195,193.3476 240.291,191.696 30.564805,-1.6516 94.31993,-85.5633 199.55142,-173.3561 105.23148,-87.7927 398.97426,69.4028 448.50507,70.3018 49.53082,0.899 129.56387,-79.684 65.38047,-156.9836 -24.4,21.36 -48.79,42.73 -73.19,64.09 -16.53,14.47 -54.94124,8.6148 -79.20147,-3.8162 -475.55375,-248.155 -408.91804,-4.4362 -547.145837,-12.623 -90.474523,-5.3586 -199.366303,-187.3312 -213.807583,-175.2389 -4.60441,65.2792 -8.73554,130.5909 -12.39307,195.93 z" fill="none" stroke="#3a2a14" stroke-width="1.2"/>
<line x1="-7.72" y1="136.20" x2="188.28" y2="-2.30" stroke="#a000a0" stroke-width="1.6"/>
<circle cx="188.28" cy="-2.30" r="2.0" fill="#a000a0"/>
<circle cx="-7.72" cy="136.20" r="2.0" fill="#a000a0"/>
<text transform="matrix(1,0,0,-1,193.3,-16.3)" font-family="sans-serif" font-size="14" font-weight="700" fill="#a000a0">R1</text>
<text transform="matrix(1,0,0,-1,-2.7,144.2)" font-family="sans-serif" font-size="14" font-weight="700" fill="#a000a0">R2</text>
<path d="M -7.72,136.20 L 188.28,-2.30 L 329.71,91.71 L -6.65,161.66 Z" fill="#fff" stroke="#a000a0" stroke-width="1.2" stroke-linejoin="round"/>
<line x1="-6.65" y1="161.66" x2="329.71" y2="91.71" stroke="#a000a0" stroke-width="1.0" stroke-dasharray="4,3" opacity="0.7"/>
<path d="M 329.71,91.71 L 329.40,90.18 L 329.09,88.65 L 328.78,87.11 L 328.48,85.58 L 328.19,84.04 L 327.90,82.50 L 327.61,80.96 L 327.34,79.42 L 327.06,77.88 L 326.79,76.34 L 326.53,74.79 L 326.27,73.25 L 326.02,71.70 L 325.78,70.16 L 325.53,68.61 L 325.30,67.06 L 325.07,65.52 L 324.84,63.97 L 324.62,62.42 L 324.41,60.87 L 324.20,59.31 L 324.00,57.76 L 323.80,56.21 L 323.61,54.66 L 323.42,53.10 L 323.24,51.55 L 323.06,49.99 L 322.89,48.43 L 322.72,46.88 L 322.56,45.32 L 322.41,43.76 L 322.26,42.20 L 322.12,40.65 L 321.98,39.09 L 321.84,37.53 L 321.72,35.97 L 321.59,34.41 L 321.48,32.84 L 321.37,31.28 L 321.26,29.72 L 321.16,28.16 L 321.06,26.60 L 320.98,25.03 L 320.89,23.47 L 320.81,21.91 L 320.74,20.34 L 320.67,18.78 L 320.61,17.22 L 320.55,15.65 L 320.50,14.09 L 320.45,12.52 L 320.41,10.96 L 320.38,9.39 L 320.35,7.83 L 320.32,6.26 L 320.30,4.70 L 320.29,3.13 L 320.28,1.57 L 320.28,0.00" fill="none" stroke="#a000a0" stroke-width="1.2" opacity="0.85"/>
<path d="M -6.65,161.66 L -7.21,158.96 L -7.76,156.25 L -8.29,153.55 L -8.82,150.84 L -9.34,148.13 L -9.85,145.42 L -10.35,142.70 L -10.84,139.99 L -11.33,137.27 L -11.80,134.55 L -12.26,131.83 L -12.71,129.11 L -13.16,126.39 L -13.59,123.66 L -14.02,120.94 L -14.43,118.21 L -14.84,115.48 L -15.24,112.75 L -15.62,110.02 L -16.00,107.28 L -16.37,104.55 L -16.73,101.81 L -17.08,99.08 L -17.42,96.34 L -17.75,93.60 L -18.07,90.86 L -18.38,88.12 L -18.68,85.37 L -18.97,82.63 L -19.25,79.88 L -19.53,77.14 L -19.79,74.39 L -20.04,71.64 L -20.29,68.90 L -20.52,66.15 L -20.75,63.40 L -20.96,60.65 L -21.17,57.89 L -21.36,55.14 L -21.55,52.39 L -21.73,49.63 L -21.90,46.88 L -22.05,44.13 L -22.20,41.37 L -22.34,38.61 L -22.47,35.86 L -22.59,33.10 L -22.70,30.34 L -22.80,27.59 L -22.89,24.83 L -22.97,22.07 L -23.05,19.31 L -23.11,16.55 L -23.16,13.80 L -23.20,11.04 L -23.24,8.28 L -23.26,5.52 L -23.28,2.76 L -23.28,0.00" fill="none" stroke="#a000a0" stroke-width="1.2" opacity="0.85"/>
<circle cx="770.77" cy="0.00" r="2.5" fill="#a000a0"/>
<text transform="matrix(1,0,0,-1,775.8,4.0)" font-family="sans-serif" font-size="11" font-weight="700" fill="#a000a0">ARC_CENTER</text>
<line x1="770.77" y1="0.00" x2="-23.28" y2="0.00" stroke="#a000a0" stroke-width="0.9" stroke-dasharray="6,3" opacity="0.85"/>
<line x1="770.77" y1="0.00" x2="-6.65" y2="161.66" stroke="#a000a0" stroke-width="0.9" stroke-dasharray="6,3" opacity="0.85"/>
<text transform="matrix(1,0,0,-1,96.3,71.0)" font-family="sans-serif" font-size="12" font-weight="700" fill="#a000a0">rc</text>
<circle cx="55.65" cy="17.95" r="2.0" fill="#a000a0"/>
<text transform="matrix(1,0,0,-1,61.7,21.9)" font-family="sans-serif" font-size="12" font-weight="700" fill="#a000a0">v</text>
<path d="M 188.28,-2.30 L 180.01,-3.61 L 171.90,-4.68 L 163.97,-5.51 L 156.22,-6.09 L 148.63,-6.42 L 141.22,-6.51 L 133.98,-6.36 L 126.92,-5.96 L 120.03,-5.32 L 113.31,-4.43 L 106.77,-3.29 L 100.39,-1.91 L 94.20,-0.29 L 88.17,1.58 L 82.32,3.70 L 76.64,6.06 L 71.13,8.66 L 65.80,11.51 L 60.64,14.61 L 55.65,17.95 L 50.84,21.53 L 46.20,25.36 L 41.73,29.44 L 37.44,33.76 L 33.32,38.32 L 29.37,43.13 L 25.59,48.19 L 21.99,53.49 L 18.56,59.03 L 15.31,64.82 L 12.23,70.86 L 9.32,77.14 L 6.58,83.67 L 4.02,90.44 L 1.63,97.45 L -0.59,104.71 L -2.63,112.22 L -4.50,119.97 L -6.20,127.96 L -7.72,136.20 Z" fill="#fff" stroke="#a000a0" stroke-width="1.0" opacity="1.0"/>
<line x1="90.28" y1="66.95" x2="469.11" y2="831.05" stroke="#a000a0" stroke-width="0.6" stroke-dasharray="3,2" opacity="0.8"/>
<circle cx="90.28" cy="66.95" r="2.0" fill="#a000a0"/>
<circle cx="469.11" cy="831.05" r="2.0" fill="#a000a0"/>
<line x1="660.42" y1="1683.34" x2="730.39" y2="1622.08" stroke="#cc0000" stroke-width="1.0" stroke-dasharray="4,3" opacity="0.7"/>
<path d="M -15.75 0.00 L -19.75 21.20 L -23.72 42.41 L -27.65 63.62 L -31.55 84.84 L -35.41 106.06 L -39.24 127.29 L -43.03 148.53 L -46.79 169.78 L -50.51 191.03 L -54.19 212.28 L -57.85 233.54 L -61.46 254.81 L -65.04 276.09 L -68.59 297.37 L -72.10 318.65 L -75.58 339.95 L -79.02 361.24 L -82.42 382.55 L -85.79 403.86 L -89.13 425.17 L -92.43 446.49 L -95.69 467.82 L -98.92 489.15 L -102.12 510.48 L -105.28 531.82 L -108.40 553.17 L -111.49 574.52 L -114.54 595.88 L -117.56 617.24 L -120.54 638.61 L -123.49 659.98 L -126.40 681.35 L -129.28 702.73 L -132.12 724.12 L -134.93 745.51 L -137.70 766.91 L -140.43 788.31 L -143.14 809.71 L -145.80 831.12 L -148.43 852.53 L -151.02 873.95 L -153.58 895.37 L -156.11 916.80 L -158.59 938.22 L -161.05 959.66 L -163.46 981.10 L -165.85 1002.54 L -168.19 1023.98 L -170.50 1045.43 L -172.78 1066.89 L -175.02 1088.34 L -177.22 1109.81 L -179.39 1131.27 L -181.53 1152.74 L -183.63 1174.21 L -185.69 1195.68 L -187.72 1217.16 L -189.71 1238.64 L -191.67 1260.13 L -193.59 1281.62 L -195.47 1303.11 L -197.32 1324.60 L -199.14 1346.10 L -200.92 1367.60 L -202.66 1389.10 L -204.37 1410.61 L -206.04 1432.12 L -207.68 1453.63 L -209.28 1475.14 L -210.85 1496.66 L -212.38 1518.18 L -213.87 1539.70 L -215.33 1561.23 L -216.75 1582.75 L -218.14 1604.28 L -219.49 1625.81 L -220.81 1647.35 L -222.09 1668.88 L -223.34 1690.42 L -195.35 1690.42 L -194.10 1668.88 L -192.82 1647.35 L -191.50 1625.81 L -190.15 1604.28 L -188.76 1582.75 L -187.34 1561.23 L -185.88 1539.70 L -184.39 1518.18 L -182.86 1496.66 L -181.29 1475.14 L -179.69 1453.63 L -178.05 1432.12 L -176.38 1410.61 L -174.67 1389.10 L -172.93 1367.60 L -171.15 1346.10 L -169.33 1324.60 L -167.48 1303.11 L -165.60 1281.62 L -163.68 1260.13 L -161.72 1238.64 L -159.73 1217.16 L -157.70 1195.68 L -155.64 1174.21 L -153.54 1152.74 L -151.40 1131.27 L -149.23 1109.81 L -147.03 1088.34 L -144.79 1066.89 L -142.51 1045.43 L -140.20 1023.98 L -137.86 1002.54 L -135.47 981.10 L -133.06 959.66 L -130.60 938.22 L -128.12 916.80 L -125.59 895.37 L -123.03 873.95 L -120.44 852.53 L -117.81 831.12 L -115.15 809.71 L -112.44 788.31 L -109.71 766.91 L -106.94 745.51 L -104.13 724.12 L -101.29 702.73 L -98.41 681.35 L -95.50 659.98 L -92.55 638.61 L -89.57 617.24 L -86.55 595.88 L -83.50 574.52 L -80.41 553.17 L -77.29 531.82 L -74.13 510.48 L -70.93 489.15 L -67.70 467.82 L -64.44 446.49 L -61.14 425.17 L -57.80 403.86 L -54.43 382.55 L -51.03 361.24 L -47.59 339.95 L -44.11 318.65 L -40.60 297.37 L -37.05 276.09 L -33.47 254.81 L -29.86 233.54 L -26.20 212.28 L -22.52 191.03 L -18.80 169.78 L -15.04 148.53 L -11.25 127.29 L -7.42 106.06 L -3.56 84.84 L 0.34 63.62 L 4.27 42.41 L 8.24 21.20 L 12.24 0.00 Z" fill="#1060d0" fill-opacity="0.25" stroke="#1060d0" stroke-width="1.0" stroke-linejoin="round"/>
<circle cx="-15.75" cy="0.00" r="2.0" fill="#3a2a14"/>
<text transform="matrix(1,0,0,-1,-37.8,4.0)" font-family="sans-serif" font-size="11" font-weight="700" fill="#3a2a14">C0</text>
<circle cx="12.24" cy="0.00" r="2.0" fill="#3a2a14"/>
<text transform="matrix(1,0,0,-1,16.2,4.0)" font-family="sans-serif" font-size="11" font-weight="700" fill="#3a2a14">C1</text>
<circle cx="-195.35" cy="1690.42" r="2.0" fill="#3a2a14"/>
<text transform="matrix(1,0,0,-1,-189.3,1686.4)" font-family="sans-serif" font-size="11" font-weight="700" fill="#3a2a14">C2</text>
<circle cx="-223.34" cy="1690.42" r="2.0" fill="#3a2a14"/>
<text transform="matrix(1,0,0,-1,-245.3,1686.4)" font-family="sans-serif" font-size="11" font-weight="700" fill="#3a2a14">C3</text>
<line x1="0.00" y1="186.78" x2="-184.62" y2="1690.42" stroke="#c00000" stroke-width="2.550" stroke-linecap="round"/>
<line x1="14.45" y1="229.98" x2="-167.10" y2="1708.56" stroke="#888" stroke-width="2.380" stroke-linecap="round"/>
<line x1="28.81" y1="273.04" x2="-149.66" y2="1726.56" stroke="#888" stroke-width="2.244" stroke-linecap="round"/>
<line x1="43.10" y1="315.99" x2="-132.29" y2="1744.45" stroke="#1060d0" stroke-width="2.159" stroke-linecap="round"/>
<line x1="57.33" y1="358.87" x2="-114.37" y2="1757.26" stroke="#888" stroke-width="2.023" stroke-linecap="round"/>
<line x1="71.50" y1="401.67" x2="-96.51" y2="1769.98" stroke="#888" stroke-width="1.938" stroke-linecap="round"/>
<line x1="85.62" y1="444.39" x2="-78.69" y2="1782.63" stroke="#888" stroke-width="1.853" stroke-linecap="round"/>
<line x1="99.69" y1="487.03" x2="-60.93" y2="1795.19" stroke="#c00000" stroke-width="1.785" stroke-linecap="round"/>
<line x1="113.72" y1="529.59" x2="-42.59" y2="1802.66" stroke="#888" stroke-width="1.700" stroke-linecap="round"/>
<line x1="127.69" y1="572.00" x2="-23.70" y2="1804.97" stroke="#888" stroke-width="1.615" stroke-linecap="round"/>
<line x1="141.62" y1="614.27" x2="-7.31" y2="1827.21" stroke="#1060d0" stroke-width="1.547" stroke-linecap="round"/>
<line x1="155.50" y1="656.36" x2="10.88" y2="1834.20" stroke="#888" stroke-width="1.462" stroke-linecap="round"/>
<line x1="169.86" y1="699.81" x2="34.47" y2="1802.48" stroke="#888" stroke-width="2.700" stroke-linecap="round"/>
<line x1="184.66" y1="744.45" x2="56.04" y2="1791.98" stroke="#888" stroke-width="2.700" stroke-linecap="round"/>
<line x1="199.41" y1="788.73" x2="78.79" y2="1771.12" stroke="#c00000" stroke-width="2.700" stroke-linecap="round"/>
<line x1="214.11" y1="832.56" x2="101.49" y2="1749.78" stroke="#888" stroke-width="2.700" stroke-linecap="round"/>
<line x1="228.67" y1="875.60" x2="123.44" y2="1732.66" stroke="#888" stroke-width="2.499" stroke-linecap="round"/>
<line x1="243.14" y1="917.88" x2="146.52" y2="1704.79" stroke="#1060d0" stroke-width="2.499" stroke-linecap="round"/>
<line x1="257.57" y1="959.46" x2="168.34" y2="1686.21" stroke="#888" stroke-width="2.380" stroke-linecap="round"/>
<line x1="271.93" y1="1000.12" x2="190.69" y2="1661.73" stroke="#888" stroke-width="2.244" stroke-linecap="round"/>
<line x1="286.19" y1="1039.66" x2="210.49" y2="1656.17" stroke="#888" stroke-width="2.023" stroke-linecap="round"/>
<line x1="300.38" y1="1078.05" x2="230.84" y2="1644.41" stroke="#c00000" stroke-width="2.023" stroke-linecap="round"/>
<line x1="314.52" y1="1115.23" x2="250.52" y2="1636.48" stroke="#888" stroke-width="1.853" stroke-linecap="round"/>
<line x1="328.57" y1="1150.98" x2="269.49" y2="1632.16" stroke="#888" stroke-width="1.734" stroke-linecap="round"/>
<line x1="342.59" y1="1185.39" x2="287.82" y2="1631.47" stroke="#1060d0" stroke-width="1.734" stroke-linecap="round"/>
<line x1="356.58" y1="1218.38" x2="306.12" y2="1629.36" stroke="#888" stroke-width="1.649" stroke-linecap="round"/>
<line x1="370.52" y1="1249.87" x2="323.75" y2="1630.78" stroke="#888" stroke-width="1.547" stroke-linecap="round"/>
<line x1="384.40" y1="1279.84" x2="341.32" y2="1630.69" stroke="#888" stroke-width="1.462" stroke-linecap="round"/>
<line x1="398.23" y1="1308.33" x2="358.23" y2="1634.13" stroke="#c00000" stroke-width="1.377" stroke-linecap="round"/>
<line x1="412.04" y1="1335.46" x2="375.11" y2="1636.20" stroke="#888" stroke-width="1.377" stroke-linecap="round"/>
<line x1="425.83" y1="1361.30" x2="391.98" y2="1636.95" stroke="#888" stroke-width="1.292" stroke-linecap="round"/>
<line x1="439.59" y1="1385.89" x2="407.59" y2="1646.52" stroke="#1060d0" stroke-width="1.292" stroke-linecap="round"/>
<line x1="453.33" y1="1409.35" x2="424.41" y2="1644.92" stroke="#888" stroke-width="1.207" stroke-linecap="round"/>
<line x1="467.01" y1="1431.71" x2="439.93" y2="1652.26" stroke="#888" stroke-width="1.105" stroke-linecap="round"/>
<line x1="480.66" y1="1453.11" x2="455.43" y2="1658.61" stroke="#888" stroke-width="1.105" stroke-linecap="round"/>
<line x1="494.34" y1="1473.74" x2="470.95" y2="1664.21" stroke="#c00000" stroke-width="1.207" stroke-linecap="round"/>
<line x1="508.02" y1="1493.62" x2="486.48" y2="1669.04" stroke="#888" stroke-width="1.105" stroke-linecap="round"/>
<line x1="521.67" y1="1512.79" x2="501.98" y2="1673.18" stroke="#888" stroke-width="1.105" stroke-linecap="round"/>
<line x1="535.32" y1="1531.38" x2="517.48" y2="1676.72" stroke="#1060d0" stroke-width="1.105" stroke-linecap="round"/>
<line x1="548.94" y1="1549.39" x2="532.94" y2="1679.70" stroke="#888" stroke-width="1.020" stroke-linecap="round"/>
<line x1="562.52" y1="1566.88" x2="547.75" y2="1687.16" stroke="#888" stroke-width="0.935" stroke-linecap="round"/>
<line x1="576.05" y1="1583.90" x2="562.51" y2="1694.17" stroke="#888" stroke-width="0.867" stroke-linecap="round"/>
<line x1="589.55" y1="1600.51" x2="577.24" y2="1700.75" stroke="#c00000" stroke-width="0.816" stroke-linecap="round"/>
<line x1="603.01" y1="1616.76" x2="591.93" y2="1706.99" stroke="#888" stroke-width="0.765" stroke-linecap="round"/>
<line x1="616.45" y1="1632.69" x2="606.60" y2="1712.89" stroke="#888" stroke-width="0.714" stroke-linecap="round"/>
<line x1="629.87" y1="1648.35" x2="621.25" y2="1718.51" stroke="#1060d0" stroke-width="0.714" stroke-linecap="round"/>
<line x1="643.29" y1="1663.78" x2="635.90" y2="1723.93" stroke="#888" stroke-width="0.714" stroke-linecap="round"/>
<circle cx="-181.22" cy="1729.23" r="8.0" fill="#e0a020" fill-opacity="0.13"/>
<line x1="-184.62" y1="1690.42" x2="-181.22" y2="1729.23" stroke="#444" stroke-width="0.6" stroke-linecap="round"/>
<circle cx="-163.69" cy="1747.37" r="8.0" fill="#e0a020" fill-opacity="0.13"/>
<line x1="-167.10" y1="1708.56" x2="-163.69" y2="1747.37" stroke="#444" stroke-width="0.6" stroke-linecap="round"/>
<circle cx="-146.26" cy="1765.37" r="8.0" fill="#e0a020" fill-opacity="0.13"/>
<line x1="-149.66" y1="1726.56" x2="-146.26" y2="1765.37" stroke="#444" stroke-width="0.6" stroke-linecap="round"/>
<circle cx="-128.89" cy="1783.27" r="8.0" fill="#e0a020" fill-opacity="0.13"/>
<line x1="-132.29" y1="1744.45" x2="-128.89" y2="1783.27" stroke="#444" stroke-width="0.6" stroke-linecap="round"/>
<circle cx="-110.97" cy="1796.07" r="8.0" fill="#e0a020" fill-opacity="0.13"/>
<line x1="-114.37" y1="1757.26" x2="-110.97" y2="1796.07" stroke="#444" stroke-width="0.6" stroke-linecap="round"/>
<circle cx="-93.10" cy="1808.79" r="8.0" fill="#e0a020" fill-opacity="0.13"/>
<line x1="-96.51" y1="1769.98" x2="-93.10" y2="1808.79" stroke="#444" stroke-width="0.6" stroke-linecap="round"/>
<circle cx="-75.29" cy="1821.44" r="8.0" fill="#e0a020" fill-opacity="0.13"/>
<line x1="-78.69" y1="1782.63" x2="-75.29" y2="1821.44" stroke="#444" stroke-width="0.6" stroke-linecap="round"/>
<circle cx="-57.53" cy="1834.00" r="8.0" fill="#e0a020" fill-opacity="0.13"/>
<line x1="-60.93" y1="1795.19" x2="-57.53" y2="1834.00" stroke="#444" stroke-width="0.6" stroke-linecap="round"/>
<circle cx="-39.19" cy="1841.47" r="8.0" fill="#e0a020" fill-opacity="0.13"/>
<line x1="-42.59" y1="1802.66" x2="-39.19" y2="1841.47" stroke="#444" stroke-width="0.6" stroke-linecap="round"/>
<circle cx="-20.30" cy="1843.79" r="8.0" fill="#e0a020" fill-opacity="0.13"/>
<line x1="-23.70" y1="1804.97" x2="-20.30" y2="1843.79" stroke="#444" stroke-width="0.6" stroke-linecap="round"/>
<circle cx="-3.91" cy="1866.02" r="8.0" fill="#e0a020" fill-opacity="0.13"/>
<line x1="-7.31" y1="1827.21" x2="-3.91" y2="1866.02" stroke="#444" stroke-width="0.6" stroke-linecap="round"/>
<circle cx="14.28" cy="1873.01" r="8.0" fill="#e0a020" fill-opacity="0.13"/>
<line x1="10.88" y1="1834.20" x2="14.28" y2="1873.01" stroke="#444" stroke-width="0.6" stroke-linecap="round"/>
<circle cx="37.87" cy="1841.29" r="8.0" fill="#e0a020" fill-opacity="0.13"/>
<line x1="34.47" y1="1802.48" x2="37.87" y2="1841.29" stroke="#444" stroke-width="0.6" stroke-linecap="round"/>
<circle cx="59.44" cy="1830.79" r="8.0" fill="#e0a020" fill-opacity="0.13"/>
<line x1="56.04" y1="1791.98" x2="59.44" y2="1830.79" stroke="#444" stroke-width="0.6" stroke-linecap="round"/>
<circle cx="82.19" cy="1809.93" r="8.0" fill="#e0a020" fill-opacity="0.13"/>
<line x1="78.79" y1="1771.12" x2="82.19" y2="1809.93" stroke="#444" stroke-width="0.6" stroke-linecap="round"/>
<circle cx="104.89" cy="1788.59" r="8.0" fill="#e0a020" fill-opacity="0.13"/>
<line x1="101.49" y1="1749.78" x2="104.89" y2="1788.59" stroke="#444" stroke-width="0.6" stroke-linecap="round"/>
<circle cx="126.84" cy="1771.47" r="8.0" fill="#e0a020" fill-opacity="0.13"/>
<line x1="123.44" y1="1732.66" x2="126.84" y2="1771.47" stroke="#444" stroke-width="0.6" stroke-linecap="round"/>
<circle cx="149.92" cy="1743.60" r="8.0" fill="#e0a020" fill-opacity="0.13"/>
<line x1="146.52" y1="1704.79" x2="149.92" y2="1743.60" stroke="#444" stroke-width="0.6" stroke-linecap="round"/>
<circle cx="171.74" cy="1725.02" r="8.0" fill="#e0a020" fill-opacity="0.13"/>
<line x1="168.34" y1="1686.21" x2="171.74" y2="1725.02" stroke="#444" stroke-width="0.6" stroke-linecap="round"/>
<circle cx="194.10" cy="1700.54" r="8.0" fill="#e0a020" fill-opacity="0.13"/>
<line x1="190.69" y1="1661.73" x2="194.10" y2="1700.54" stroke="#444" stroke-width="0.6" stroke-linecap="round"/>
<circle cx="213.90" cy="1694.98" r="8.0" fill="#e0a020" fill-opacity="0.13"/>
<line x1="210.49" y1="1656.17" x2="213.90" y2="1694.98" stroke="#444" stroke-width="0.6" stroke-linecap="round"/>
<circle cx="234.24" cy="1683.22" r="8.0" fill="#e0a020" fill-opacity="0.13"/>
<line x1="230.84" y1="1644.41" x2="234.24" y2="1683.22" stroke="#444" stroke-width="0.6" stroke-linecap="round"/>
<circle cx="253.92" cy="1675.30" r="8.0" fill="#e0a020" fill-opacity="0.13"/>
<line x1="250.52" y1="1636.48" x2="253.92" y2="1675.30" stroke="#444" stroke-width="0.6" stroke-linecap="round"/>
<circle cx="272.89" cy="1670.97" r="8.0" fill="#e0a020" fill-opacity="0.13"/>
<line x1="269.49" y1="1632.16" x2="272.89" y2="1670.97" stroke="#444" stroke-width="0.6" stroke-linecap="round"/>
<circle cx="291.22" cy="1670.28" r="8.0" fill="#e0a020" fill-opacity="0.13"/>
<line x1="287.82" y1="1631.47" x2="291.22" y2="1670.28" stroke="#444" stroke-width="0.6" stroke-linecap="round"/>
<circle cx="309.52" cy="1668.17" r="8.0" fill="#e0a020" fill-opacity="0.13"/>
<line x1="306.12" y1="1629.36" x2="309.52" y2="1668.17" stroke="#444" stroke-width="0.6" stroke-linecap="round"/>
<circle cx="327.15" cy="1669.59" r="8.0" fill="#e0a020" fill-opacity="0.13"/>
<line x1="323.75" y1="1630.78" x2="327.15" y2="1669.59" stroke="#444" stroke-width="0.6" stroke-linecap="round"/>
<circle cx="344.72" cy="1669.50" r="8.0" fill="#e0a020" fill-opacity="0.13"/>
<line x1="341.32" y1="1630.69" x2="344.72" y2="1669.50" stroke="#444" stroke-width="0.6" stroke-linecap="round"/>
<circle cx="361.63" cy="1672.94" r="8.0" fill="#e0a020" fill-opacity="0.13"/>
<line x1="358.23" y1="1634.13" x2="361.63" y2="1672.94" stroke="#444" stroke-width="0.6" stroke-linecap="round"/>
<circle cx="378.52" cy="1675.01" r="8.0" fill="#e0a020" fill-opacity="0.13"/>
<line x1="375.11" y1="1636.20" x2="378.52" y2="1675.01" stroke="#444" stroke-width="0.6" stroke-linecap="round"/>
<circle cx="395.39" cy="1675.76" r="8.0" fill="#e0a020" fill-opacity="0.13"/>
<line x1="391.98" y1="1636.95" x2="395.39" y2="1675.76" stroke="#444" stroke-width="0.6" stroke-linecap="round"/>
<circle cx="410.99" cy="1685.33" r="8.0" fill="#e0a020" fill-opacity="0.13"/>
<line x1="407.59" y1="1646.52" x2="410.99" y2="1685.33" stroke="#444" stroke-width="0.6" stroke-linecap="round"/>
<circle cx="427.81" cy="1683.73" r="8.0" fill="#e0a020" fill-opacity="0.13"/>
<line x1="424.41" y1="1644.92" x2="427.81" y2="1683.73" stroke="#444" stroke-width="0.6" stroke-linecap="round"/>
<circle cx="443.33" cy="1691.07" r="8.0" fill="#e0a020" fill-opacity="0.13"/>
<line x1="439.93" y1="1652.26" x2="443.33" y2="1691.07" stroke="#444" stroke-width="0.6" stroke-linecap="round"/>
<circle cx="458.83" cy="1697.42" r="8.0" fill="#e0a020" fill-opacity="0.13"/>
<line x1="455.43" y1="1658.61" x2="458.83" y2="1697.42" stroke="#444" stroke-width="0.6" stroke-linecap="round"/>
<circle cx="474.36" cy="1703.02" r="8.0" fill="#e0a020" fill-opacity="0.13"/>
<line x1="470.95" y1="1664.21" x2="474.36" y2="1703.02" stroke="#444" stroke-width="0.6" stroke-linecap="round"/>
<circle cx="489.88" cy="1707.85" r="8.0" fill="#e0a020" fill-opacity="0.13"/>
<line x1="486.48" y1="1669.04" x2="489.88" y2="1707.85" stroke="#444" stroke-width="0.6" stroke-linecap="round"/>
<circle cx="505.38" cy="1712.00" r="8.0" fill="#e0a020" fill-opacity="0.13"/>
<line x1="501.98" y1="1673.18" x2="505.38" y2="1712.00" stroke="#444" stroke-width="0.6" stroke-linecap="round"/>
<circle cx="520.88" cy="1715.53" r="8.0" fill="#e0a020" fill-opacity="0.13"/>
<line x1="517.48" y1="1676.72" x2="520.88" y2="1715.53" stroke="#444" stroke-width="0.6" stroke-linecap="round"/>
<circle cx="536.34" cy="1718.51" r="8.0" fill="#e0a020" fill-opacity="0.13"/>
<line x1="532.94" y1="1679.70" x2="536.34" y2="1718.51" stroke="#444" stroke-width="0.6" stroke-linecap="round"/>
<circle cx="551.15" cy="1725.97" r="8.0" fill="#e0a020" fill-opacity="0.13"/>
<line x1="547.75" y1="1687.16" x2="551.15" y2="1725.97" stroke="#444" stroke-width="0.6" stroke-linecap="round"/>
<circle cx="565.91" cy="1732.98" r="8.0" fill="#e0a020" fill-opacity="0.13"/>
<line x1="562.51" y1="1694.17" x2="565.91" y2="1732.98" stroke="#444" stroke-width="0.6" stroke-linecap="round"/>
<circle cx="580.64" cy="1739.56" r="8.0" fill="#e0a020" fill-opacity="0.13"/>
<line x1="577.24" y1="1700.75" x2="580.64" y2="1739.56" stroke="#444" stroke-width="0.6" stroke-linecap="round"/>
<circle cx="595.33" cy="1745.80" r="8.0" fill="#e0a020" fill-opacity="0.13"/>
<line x1="591.93" y1="1706.99" x2="595.33" y2="1745.80" stroke="#444" stroke-width="0.6" stroke-linecap="round"/>
<circle cx="610.01" cy="1751.70" r="8.0" fill="#e0a020" fill-opacity="0.13"/>
<line x1="606.60" y1="1712.89" x2="610.01" y2="1751.70" stroke="#444" stroke-width="0.6" stroke-linecap="round"/>
<circle cx="624.66" cy="1757.32" r="8.0" fill="#e0a020" fill-opacity="0.13"/>
<line x1="621.25" y1="1718.51" x2="624.66" y2="1757.32" stroke="#444" stroke-width="0.6" stroke-linecap="round"/>
<circle cx="639.31" cy="1762.74" r="8.0" fill="#e0a020" fill-opacity="0.13"/>
<line x1="635.90" y1="1723.93" x2="639.31" y2="1762.74" stroke="#444" stroke-width="0.6" stroke-linecap="round"/>
<circle cx="-184.62" cy="1690.42" r="8.0" fill="#c00000" fill-opacity="0.13"/>
<circle cx="-174.26" cy="1606.03" r="8.0" fill="#2ca02c" fill-opacity="0.13"/>
<circle cx="-164.48" cy="1526.37" r="8.0" fill="#1060d0" fill-opacity="0.13"/>
<circle cx="-167.10" cy="1708.56" r="8.0" fill="#c00000" fill-opacity="0.13"/>
<circle cx="-156.91" cy="1625.58" r="8.0" fill="#2ca02c" fill-opacity="0.13"/>
<circle cx="-147.29" cy="1547.25" r="8.0" fill="#1060d0" fill-opacity="0.13"/>
<circle cx="-149.66" cy="1726.56" r="8.0" fill="#c00000" fill-opacity="0.13"/>
<circle cx="-139.64" cy="1644.98" r="8.0" fill="#2ca02c" fill-opacity="0.13"/>
<circle cx="-130.19" cy="1567.98" r="8.0" fill="#1060d0" fill-opacity="0.13"/>
<circle cx="-132.29" cy="1744.45" r="8.0" fill="#c00000" fill-opacity="0.13"/>
<circle cx="-122.45" cy="1664.28" r="8.0" fill="#2ca02c" fill-opacity="0.13"/>
<circle cx="-113.16" cy="1588.61" r="8.0" fill="#1060d0" fill-opacity="0.13"/>
<circle cx="-114.37" cy="1757.26" r="8.0" fill="#c00000" fill-opacity="0.13"/>
<circle cx="-104.73" cy="1678.77" r="8.0" fill="#2ca02c" fill-opacity="0.13"/>
<circle cx="-95.64" cy="1604.69" r="8.0" fill="#1060d0" fill-opacity="0.13"/>
<circle cx="-96.51" cy="1769.98" r="8.0" fill="#c00000" fill-opacity="0.13"/>
<circle cx="-87.08" cy="1693.18" r="8.0" fill="#2ca02c" fill-opacity="0.13"/>
<circle cx="-78.18" cy="1620.69" r="8.0" fill="#1060d0" fill-opacity="0.13"/>
<circle cx="-78.69" cy="1782.63" r="8.0" fill="#c00000" fill-opacity="0.13"/>
<circle cx="-69.47" cy="1707.52" r="8.0" fill="#2ca02c" fill-opacity="0.13"/>
<circle cx="-60.77" cy="1636.62" r="8.0" fill="#1060d0" fill-opacity="0.13"/>
<circle cx="-60.93" cy="1795.19" r="8.0" fill="#c00000" fill-opacity="0.13"/>
<circle cx="-51.92" cy="1721.77" r="8.0" fill="#2ca02c" fill-opacity="0.13"/>
<circle cx="-43.41" cy="1652.47" r="8.0" fill="#1060d0" fill-opacity="0.13"/>
<circle cx="-42.59" cy="1802.66" r="8.0" fill="#c00000" fill-opacity="0.13"/>
<circle cx="-33.82" cy="1731.21" r="8.0" fill="#2ca02c" fill-opacity="0.13"/>
<circle cx="-25.54" cy="1663.76" r="8.0" fill="#1060d0" fill-opacity="0.13"/>
<circle cx="-23.70" cy="1804.97" r="8.0" fill="#c00000" fill-opacity="0.13"/>
<circle cx="-15.20" cy="1735.77" r="8.0" fill="#2ca02c" fill-opacity="0.13"/>
<circle cx="-7.18" cy="1670.46" r="8.0" fill="#1060d0" fill-opacity="0.13"/>
<circle cx="-7.31" cy="1827.21" r="8.0" fill="#c00000" fill-opacity="0.13"/>
<circle cx="1.05" cy="1759.13" r="8.0" fill="#2ca02c" fill-opacity="0.13"/>
<circle cx="8.94" cy="1694.87" r="8.0" fill="#1060d0" fill-opacity="0.13"/>
<circle cx="10.88" cy="1834.20" r="8.0" fill="#c00000" fill-opacity="0.13"/>
<circle cx="19.00" cy="1768.09" r="8.0" fill="#2ca02c" fill-opacity="0.13"/>
<circle cx="26.66" cy="1705.69" r="8.0" fill="#1060d0" fill-opacity="0.13"/>
<circle cx="34.47" cy="1802.48" r="8.0" fill="#c00000" fill-opacity="0.13"/>
<circle cx="42.07" cy="1740.59" r="8.0" fill="#2ca02c" fill-opacity="0.13"/>
<circle cx="49.24" cy="1682.17" r="8.0" fill="#1060d0" fill-opacity="0.13"/>
<circle cx="56.04" cy="1791.98" r="8.0" fill="#c00000" fill-opacity="0.13"/>
<circle cx="63.26" cy="1733.19" r="8.0" fill="#2ca02c" fill-opacity="0.13"/>
<circle cx="70.07" cy="1677.70" r="8.0" fill="#1060d0" fill-opacity="0.13"/>
<circle cx="78.79" cy="1771.12" r="8.0" fill="#c00000" fill-opacity="0.13"/>
<circle cx="85.56" cy="1715.98" r="8.0" fill="#2ca02c" fill-opacity="0.13"/>
<circle cx="91.95" cy="1663.94" r="8.0" fill="#1060d0" fill-opacity="0.13"/>
<circle cx="101.49" cy="1749.78" r="8.0" fill="#c00000" fill-opacity="0.13"/>
<circle cx="107.81" cy="1698.30" r="8.0" fill="#2ca02c" fill-opacity="0.13"/>
<circle cx="113.78" cy="1649.71" r="8.0" fill="#1060d0" fill-opacity="0.13"/>
<circle cx="123.44" cy="1732.66" r="8.0" fill="#c00000" fill-opacity="0.13"/>
<circle cx="129.34" cy="1684.56" r="8.0" fill="#2ca02c" fill-opacity="0.13"/>
<circle cx="134.92" cy="1639.15" r="8.0" fill="#1060d0" fill-opacity="0.13"/>
<circle cx="146.52" cy="1704.79" r="8.0" fill="#c00000" fill-opacity="0.13"/>
<circle cx="151.94" cy="1660.62" r="8.0" fill="#2ca02c" fill-opacity="0.13"/>
<circle cx="157.06" cy="1618.93" r="8.0" fill="#1060d0" fill-opacity="0.13"/>
<circle cx="168.34" cy="1686.21" r="8.0" fill="#c00000" fill-opacity="0.13"/>
<circle cx="173.34" cy="1645.42" r="8.0" fill="#2ca02c" fill-opacity="0.13"/>
<circle cx="178.07" cy="1606.92" r="8.0" fill="#1060d0" fill-opacity="0.13"/>
<circle cx="190.69" cy="1661.73" r="8.0" fill="#c00000" fill-opacity="0.13"/>
<circle cx="195.25" cy="1624.59" r="8.0" fill="#2ca02c" fill-opacity="0.13"/>
<circle cx="199.56" cy="1589.54" r="8.0" fill="#1060d0" fill-opacity="0.13"/>
<circle cx="210.49" cy="1656.17" r="8.0" fill="#c00000" fill-opacity="0.13"/>
<circle cx="214.74" cy="1621.56" r="8.0" fill="#2ca02c" fill-opacity="0.13"/>
<circle cx="218.75" cy="1588.91" r="8.0" fill="#1060d0" fill-opacity="0.13"/>
<circle cx="230.84" cy="1644.41" r="8.0" fill="#c00000" fill-opacity="0.13"/>
<circle cx="234.74" cy="1612.62" r="8.0" fill="#2ca02c" fill-opacity="0.13"/>
<circle cx="238.43" cy="1582.62" r="8.0" fill="#1060d0" fill-opacity="0.13"/>
<circle cx="250.52" cy="1636.48" r="8.0" fill="#c00000" fill-opacity="0.13"/>
<circle cx="254.11" cy="1607.23" r="8.0" fill="#2ca02c" fill-opacity="0.13"/>
<circle cx="257.50" cy="1579.61" r="8.0" fill="#1060d0" fill-opacity="0.13"/>
<circle cx="269.49" cy="1632.16" r="8.0" fill="#c00000" fill-opacity="0.13"/>
<circle cx="272.81" cy="1605.15" r="8.0" fill="#2ca02c" fill-opacity="0.13"/>
<circle cx="275.94" cy="1579.66" r="8.0" fill="#1060d0" fill-opacity="0.13"/>
<circle cx="287.82" cy="1631.47" r="8.0" fill="#c00000" fill-opacity="0.13"/>
<circle cx="290.89" cy="1606.43" r="8.0" fill="#2ca02c" fill-opacity="0.13"/>
<circle cx="293.79" cy="1582.80" r="8.0" fill="#1060d0" fill-opacity="0.13"/>
<circle cx="306.12" cy="1629.36" r="8.0" fill="#c00000" fill-opacity="0.13"/>
<circle cx="308.95" cy="1606.30" r="8.0" fill="#2ca02c" fill-opacity="0.13"/>
<circle cx="311.62" cy="1584.52" r="8.0" fill="#1060d0" fill-opacity="0.13"/>
<circle cx="323.75" cy="1630.78" r="8.0" fill="#c00000" fill-opacity="0.13"/>
<circle cx="326.38" cy="1609.40" r="8.0" fill="#2ca02c" fill-opacity="0.13"/>
<circle cx="328.85" cy="1589.22" r="8.0" fill="#1060d0" fill-opacity="0.13"/>
<circle cx="341.32" cy="1630.69" r="8.0" fill="#c00000" fill-opacity="0.13"/>
<circle cx="343.74" cy="1611.00" r="8.0" fill="#2ca02c" fill-opacity="0.13"/>
<circle cx="346.02" cy="1592.41" r="8.0" fill="#1060d0" fill-opacity="0.13"/>
<circle cx="358.23" cy="1634.13" r="8.0" fill="#c00000" fill-opacity="0.13"/>
<circle cx="360.47" cy="1615.84" r="8.0" fill="#2ca02c" fill-opacity="0.13"/>
<circle cx="362.59" cy="1598.58" r="8.0" fill="#1060d0" fill-opacity="0.13"/>
<circle cx="375.11" cy="1636.20" r="8.0" fill="#c00000" fill-opacity="0.13"/>
<circle cx="377.19" cy="1619.32" r="8.0" fill="#2ca02c" fill-opacity="0.13"/>
<circle cx="379.14" cy="1603.39" r="8.0" fill="#1060d0" fill-opacity="0.13"/>
<circle cx="391.98" cy="1636.95" r="8.0" fill="#c00000" fill-opacity="0.13"/>
<circle cx="393.88" cy="1621.48" r="8.0" fill="#2ca02c" fill-opacity="0.13"/>
<circle cx="395.68" cy="1606.88" r="8.0" fill="#1060d0" fill-opacity="0.13"/>
<circle cx="407.59" cy="1646.52" r="8.0" fill="#c00000" fill-opacity="0.13"/>
<circle cx="409.38" cy="1631.89" r="8.0" fill="#2ca02c" fill-opacity="0.13"/>
<circle cx="411.08" cy="1618.08" r="8.0" fill="#1060d0" fill-opacity="0.13"/>
<circle cx="424.41" cy="1644.92" r="8.0" fill="#c00000" fill-opacity="0.13"/>
<circle cx="426.03" cy="1631.70" r="8.0" fill="#2ca02c" fill-opacity="0.13"/>
<circle cx="427.56" cy="1619.22" r="8.0" fill="#1060d0" fill-opacity="0.13"/>
<circle cx="439.93" cy="1652.26" r="8.0" fill="#c00000" fill-opacity="0.13"/>
<circle cx="441.45" cy="1639.88" r="8.0" fill="#2ca02c" fill-opacity="0.13"/>
<circle cx="442.88" cy="1628.19" r="8.0" fill="#1060d0" fill-opacity="0.13"/>
<circle cx="455.43" cy="1658.61" r="8.0" fill="#c00000" fill-opacity="0.13"/>
<circle cx="456.85" cy="1647.07" r="8.0" fill="#2ca02c" fill-opacity="0.13"/>
<circle cx="458.18" cy="1636.19" r="8.0" fill="#1060d0" fill-opacity="0.13"/>
<circle cx="470.95" cy="1664.21" r="8.0" fill="#c00000" fill-opacity="0.13"/>
<circle cx="472.27" cy="1653.52" r="8.0" fill="#2ca02c" fill-opacity="0.13"/>
<circle cx="473.50" cy="1643.42" r="8.0" fill="#1060d0" fill-opacity="0.13"/>
<circle cx="486.48" cy="1669.04" r="8.0" fill="#c00000" fill-opacity="0.13"/>
<circle cx="487.69" cy="1659.19" r="8.0" fill="#2ca02c" fill-opacity="0.13"/>
<circle cx="488.83" cy="1649.90" r="8.0" fill="#1060d0" fill-opacity="0.13"/>
<circle cx="501.98" cy="1673.18" r="8.0" fill="#c00000" fill-opacity="0.13"/>
<circle cx="503.08" cy="1664.18" r="8.0" fill="#2ca02c" fill-opacity="0.13"/>
<circle cx="504.12" cy="1655.69" r="8.0" fill="#1060d0" fill-opacity="0.13"/>
<circle cx="517.48" cy="1676.72" r="8.0" fill="#c00000" fill-opacity="0.13"/>
<circle cx="518.48" cy="1668.56" r="8.0" fill="#2ca02c" fill-opacity="0.13"/>
<circle cx="519.42" cy="1660.86" r="8.0" fill="#1060d0" fill-opacity="0.13"/>
<circle cx="532.94" cy="1679.70" r="8.0" fill="#c00000" fill-opacity="0.13"/>
<circle cx="533.84" cy="1672.39" r="8.0" fill="#2ca02c" fill-opacity="0.13"/>
<circle cx="534.69" cy="1665.49" r="8.0" fill="#1060d0" fill-opacity="0.13"/>
<circle cx="547.75" cy="1687.16" r="8.0" fill="#c00000" fill-opacity="0.13"/>
<circle cx="548.58" cy="1680.41" r="8.0" fill="#2ca02c" fill-opacity="0.13"/>
<circle cx="549.36" cy="1674.04" r="8.0" fill="#1060d0" fill-opacity="0.13"/>
<circle cx="562.51" cy="1694.17" r="8.0" fill="#c00000" fill-opacity="0.13"/>
<circle cx="563.27" cy="1687.98" r="8.0" fill="#2ca02c" fill-opacity="0.13"/>
<circle cx="563.99" cy="1682.14" r="8.0" fill="#1060d0" fill-opacity="0.13"/>
<circle cx="577.24" cy="1700.75" r="8.0" fill="#c00000" fill-opacity="0.13"/>
<circle cx="577.93" cy="1695.13" r="8.0" fill="#2ca02c" fill-opacity="0.13"/>
<circle cx="578.58" cy="1689.82" r="8.0" fill="#1060d0" fill-opacity="0.13"/>
<circle cx="591.93" cy="1706.99" r="8.0" fill="#c00000" fill-opacity="0.13"/>
<circle cx="592.55" cy="1701.92" r="8.0" fill="#2ca02c" fill-opacity="0.13"/>
<circle cx="593.14" cy="1697.14" r="8.0" fill="#1060d0" fill-opacity="0.13"/>
<circle cx="606.60" cy="1712.89" r="8.0" fill="#c00000" fill-opacity="0.13"/>
<circle cx="607.16" cy="1708.38" r="8.0" fill="#2ca02c" fill-opacity="0.13"/>
<circle cx="607.68" cy="1704.14" r="8.0" fill="#1060d0" fill-opacity="0.13"/>
<circle cx="621.25" cy="1718.51" r="8.0" fill="#c00000" fill-opacity="0.13"/>
<circle cx="621.74" cy="1714.57" r="8.0" fill="#2ca02c" fill-opacity="0.13"/>
<circle cx="622.20" cy="1710.85" r="8.0" fill="#1060d0" fill-opacity="0.13"/>
<circle cx="635.90" cy="1723.93" r="8.0" fill="#c00000" fill-opacity="0.13"/>
<circle cx="636.32" cy="1720.56" r="8.0" fill="#2ca02c" fill-opacity="0.13"/>
<circle cx="636.71" cy="1717.37" r="8.0" fill="#1060d0" fill-opacity="0.13"/>
<path d="M 647.293,1762.286 C 647.525,1766.335 644.690,1769.917 640.696,1770.621 L 15.671,1880.888 C 14.240,1881.141 12.767,1880.999 11.411,1880.477 L -6.778,1873.486 C -7.205,1873.322 -7.617,1873.122 -8.009,1872.887 L -61.630,1840.869 C -61.807,1840.763 -61.980,1840.651 -62.148,1840.532 L -79.911,1827.970 C -79.915,1827.967 -79.919,1827.964 -79.923,1827.961 L -97.736,1815.312 C -97.739,1815.310 -97.742,1815.308 -97.745,1815.307 L -115.608,1802.589 C -115.611,1802.586 -115.615,1802.584 -115.618,1802.581 L -133.541,1789.775 C -133.932,1789.496 -134.297,1789.182 -134.632,1788.837 L -151.999,1770.938 C -152.000,1770.937 -152.002,1770.936 -152.003,1770.935 L -169.440,1752.941 C -169.443,1752.938 -169.446,1752.935 -169.448,1752.932 L -186.975,1734.788 C -188.249,1733.470 -189.031,1731.754 -189.191,1729.929 L -192.593,1691.117 C -192.642,1690.560 -192.633,1689.999 -192.564,1689.444 L -182.202,1605.051 C -182.202,1605.051 -182.202,1605.051 -182.202,1605.051 L -172.421,1525.395 C -171.884,1521.015 -167.901,1517.898 -163.520,1518.428 L 276.896,1571.717 C 276.936,1571.722 276.976,1571.727 277.015,1571.733 L 312.703,1576.597 C 312.941,1576.629 313.178,1576.672 313.412,1576.726 L 347.809,1584.617 C 347.959,1584.651 348.109,1584.690 348.257,1584.733 L 397.914,1599.195 C 398.134,1599.259 398.352,1599.333 398.566,1599.416 L 430.450,1611.761 C 430.545,1611.798 430.639,1611.837 430.733,1611.877 L 537.857,1658.141 C 538.011,1658.208 538.162,1658.279 538.311,1658.355 L 640.336,1710.238 C 642.874,1711.528 644.534,1714.070 644.697,1716.912 L 647.293,1762.286 Z" fill="none" stroke="#0a8" stroke-width="0.8" stroke-dasharray="4,3" opacity="0.85"/>
<circle cx="-223.34" cy="1690.42" r="2.0" fill="#202020"/>
<text transform="matrix(1,0,0,-1,-215.3,1698.4)" font-family="sans-serif" font-size="14" font-weight="700" fill="#202020">N0</text>
<circle cx="-195.35" cy="1690.42" r="2.0" fill="#202020"/>
<text transform="matrix(1,0,0,-1,-187.3,1682.4)" font-family="sans-serif" font-size="14" font-weight="700" fill="#202020">N1</text>
<circle cx="-171.55" cy="1494.49" r="2.0" fill="#202020"/>
<text transform="matrix(1,0,0,-1,-196.6,1486.5)" font-family="sans-serif" font-size="14" font-weight="700" fill="#202020">N2</text>
<circle cx="265.05" cy="1562.88" r="2.0" fill="#202020"/>
<text transform="matrix(1,0,0,-1,271.1,1570.9)" font-family="sans-serif" font-size="14" font-weight="700" fill="#202020">N3</text>
<circle cx="596.29" cy="1668.12" r="2.0" fill="#202020"/>
<text transform="matrix(1,0,0,-1,602.3,1676.1)" font-family="sans-serif" font-size="14" font-weight="700" fill="#202020">N4</text>
<circle cx="660.42" cy="1683.34" r="2.0" fill="#202020"/>
<text transform="matrix(1,0,0,-1,668.4,1693.3)" font-family="sans-serif" font-size="14" font-weight="700" fill="#202020">N5</text>
<circle cx="730.39" cy="1622.08" r="2.0" fill="#202020"/>
<text transform="matrix(1,0,0,-1,736.4,1630.1)" font-family="sans-serif" font-size="14" font-weight="700" fill="#202020">N6</text>
<circle cx="613.08" cy="1861.49" r="2.0" fill="#202020"/>
<text transform="matrix(1,0,0,-1,619.1,1853.5)" font-family="sans-serif" font-size="14" font-weight="700" fill="#202020">N7</text>
<circle cx="405.59" cy="1693.28" r="2.0" fill="#202020"/>
<text transform="matrix(1,0,0,-1,411.6,1701.3)" font-family="sans-serif" font-size="14" font-weight="700" fill="#202020">N8</text>
<circle cx="87.98" cy="1894.18" r="2.0" fill="#202020"/>
<text transform="matrix(1,0,0,-1,94.0,1902.2)" font-family="sans-serif" font-size="14" font-weight="700" fill="#202020">N9</text>
<circle cx="-6.65" cy="161.66" r="2.0" fill="#202020"/>
<text transform="matrix(1,0,0,-1,-28.7,149.7)" font-family="sans-serif" font-size="14" font-weight="700" fill="#202020">B0</text>
<circle cx="329.71" cy="91.71" r="2.0" fill="#202020"/>
<text transform="matrix(1,0,0,-1,337.7,79.7)" font-family="sans-serif" font-size="14" font-weight="700" fill="#202020">B1</text>
<circle cx="733.61" cy="1619.26" r="2.0" fill="#202020"/>
<text transform="matrix(1,0,0,-1,741.6,1609.3)" font-family="sans-serif" font-size="14" font-weight="700" fill="#202020">B2</text>
<circle cx="660.42" cy="1683.34" r="2.0" fill="#202020"/>
<text transform="matrix(1,0,0,-1,642.4,1673.3)" font-family="sans-serif" font-size="14" font-weight="700" fill="#202020">B3</text>
</g>
</svg>