<?xml version="1.0" encoding="UTF-8"?>
<svg xmlns="http://www.w3.org/2000/svg" viewBox="-277.3 -1975.8 554.5 1756.0" width="900" height="2849" font-family="sans-serif" font-size="12">
<rect x="-277.3" y="-1975.8" width="554.5" height="1756.0" fill="#fff"/>
<rect x="-265.3" y="-1935.8" width="530.5" height="1704.0" fill="none" stroke="#ccc" stroke-width="0.6"/>
<text x="-255.3" y="-1947.8" font-family="sans-serif" font-size="22" font-weight="bold" fill="#000">SBF (u,y soundboard)</text>
<g transform="scale(1,-1)">
<path d="M 225.27 271.81 L 225.17 280.88 L 225.07 289.95 L 224.97 299.03 L 224.87 308.10 L 224.77 317.17 L 224.66 326.24 L 224.55 335.32 L 224.43 344.39 L 224.30 353.46 L 224.17 362.53 L 224.02 371.60 L 223.87 380.68 L 223.71 389.75 L 223.53 398.82 L 223.35 407.89 L 223.15 416.97 L 222.94 426.04 L 222.72 435.11 L 222.49 444.18 L 222.24 453.26 L 221.98 462.33 L 221.71 471.40 L 221.42 480.47 L 221.12 489.55 L 220.80 498.62 L 220.47 507.69 L 220.13 516.76 L 219.76 525.83 L 219.39 534.91 L 218.99 543.98 L 218.58 553.05 L 218.15 562.12 L 217.70 571.20 L 217.24 580.27 L 216.75 589.34 L 216.25 598.41 L 215.72 607.49 L 215.18 616.56 L 214.61 625.63 L 214.03 634.70 L 213.42 643.78 L 212.79 652.85 L 212.13 661.92 L 211.46 670.99 L 210.76 680.07 L 210.03 689.14 L 209.27 698.21 L 208.49 707.28 L 207.69 716.35 L 206.87 725.43 L 206.03 734.50 L 205.17 743.57 L 204.29 752.64 L 203.39 761.72 L 202.47 770.79 L 201.54 779.86 L 200.60 788.93 L 199.64 798.01 L 198.66 807.08 L 197.67 816.15 L 196.67 825.22 L 195.65 834.30 L 194.62 843.37 L 193.59 852.44 L 192.53 861.51 L 191.47 870.58 L 190.40 879.66 L 189.32 888.73 L 188.23 897.80 L 187.13 906.87 L 186.02 915.95 L 184.90 925.02 L 183.77 934.09 L 182.63 943.16 L 181.49 952.24 L 180.34 961.31 L 179.18 970.38 L 178.01 979.45 L 176.84 988.53 L 175.66 997.60 L 174.47 1006.67 L 173.28 1015.74 L 172.08 1024.81 L 170.87 1033.89 L 169.67 1042.96 L 168.45 1052.03 L 167.23 1061.10 L 166.00 1070.18 L 164.77 1079.25 L 163.53 1088.32 L 162.29 1097.39 L 161.04 1106.47 L 159.79 1115.54 L 158.54 1124.61 L 157.28 1133.68 L 156.02 1142.76 L 154.75 1151.83 L 153.48 1160.90 L 152.21 1169.97 L 150.93 1179.05 L 149.65 1188.12 L 148.37 1197.19 L 147.08 1206.26 L 145.79 1215.33 L 144.50 1224.41 L 143.20 1233.48 L 141.90 1242.55 L 140.60 1251.62 L 139.30 1260.70 L 137.99 1269.77 L 136.69 1278.84 L 135.38 1287.91 L 134.07 1296.99 L 132.75 1306.06 L 131.44 1315.13 L 130.12 1324.20 L 128.80 1333.28 L 127.48 1342.35 L 126.16 1351.42 L 124.84 1360.49 L 123.51 1369.56 L 122.19 1378.64 L 120.86 1387.71 L 119.53 1396.78 L 118.20 1405.85 L 116.87 1414.93 L 115.54 1424.00 L 114.21 1433.07 L 112.88 1442.14 L 111.55 1451.22 L 110.22 1460.29 L 108.89 1469.36 L 107.55 1478.43 L 106.22 1487.51 L 104.89 1496.58 L 103.56 1505.65 L 102.22 1514.72 L 100.89 1523.79 L 99.56 1532.87 L 98.23 1541.94 L 96.90 1551.01 L 95.57 1560.08 L 94.24 1569.16 L 92.91 1578.23 L 91.58 1587.30 L 90.25 1596.37 L 88.92 1605.45 L 87.60 1614.52 L 86.27 1623.59 L 84.95 1632.66 L 83.63 1641.74 L 82.31 1650.81 L 80.99 1659.88 L 79.67 1668.95 L 78.36 1678.02 L 77.04 1687.10 L 75.73 1696.17 L 74.42 1705.24 L 73.11 1714.31 L 71.81 1723.39 L 70.50 1732.46 L 69.20 1741.53 L 67.90 1750.60 L 66.61 1759.68 L 65.31 1768.75 L 64.02 1777.82 L 62.74 1786.89 L 61.45 1795.97 L 60.17 1805.04 L 58.89 1814.11 L 57.62 1823.18 L 56.35 1832.26 L 55.08 1841.33 L 53.82 1850.40 L 52.56 1859.47 L 51.30 1868.54 L 50.05 1877.62 L 48.80 1886.69 L 47.56 1895.76 L -47.56 1895.76 L -48.80 1886.69 L -50.05 1877.62 L -51.30 1868.54 L -52.56 1859.47 L -53.82 1850.40 L -55.08 1841.33 L -56.35 1832.26 L -57.62 1823.18 L -58.89 1814.11 L -60.17 1805.04 L -61.45 1795.97 L -62.74 1786.89 L -64.02 1777.82 L -65.31 1768.75 L -66.61 1759.68 L -67.90 1750.60 L -69.20 1741.53 L -70.50 1732.46 L -71.81 1723.39 L -73.11 1714.31 L -74.42 1705.24 L -75.73 1696.17 L -77.04 1687.10 L -78.36 1678.02 L -79.67 1668.95 L -80.99 1659.88 L -82.31 1650.81 L -83.63 1641.74 L -84.95 1632.66 L -86.27 1623.59 L -87.60 1614.52 L -88.92 1605.45 L -90.25 1596.37 L -91.58 1587.30 L -92.91 1578.23 L -94.24 1569.16 L -95.57 1560.08 L -96.90 1551.01 L -98.23 1541.94 L -99.56 1532.87 L -100.89 1523.79 L -102.22 1514.72 L -103.56 1505.65 L -104.89 1496.58 L -106.22 1487.51 L -107.55 1478.43 L -108.89 1469.36 L -110.22 1460.29 L -111.55 1451.22 L -112.88 1442.14 L -114.21 1433.07 L -115.54 1424.00 L -116.87 1414.93 L -118.20 1405.85 L -119.53 1396.78 L -120.86 1387.71 L -122.19 1378.64 L -123.51 1369.56 L -124.84 1360.49 L -126.16 1351.42 L -127.48 1342.35 L -128.80 1333.28 L -130.12 1324.20 L -131.44 1315.13 L -132.75 1306.06 L -134.07 1296.99 L -135.38 1287.91 L -136.69 1278.84 L -137.99 1269.77 L -139.30 1260.70 L -140.60 1251.62 L -141.90 1242.55 L -143.20 1233.48 L -144.50 1224.41 L -145.79 1215.33 L -147.08 1206.26 L -148.37 1197.19 L -149.65 1188.12 L -150.93 1179.05 L -152.21 1169.97 L -153.48 1160.90 L -154.75 1151.83 L -156.02 1142.76 L -157.28 1133.68 L -158.54 1124.61 L -159.79 1115.54 L -161.04 1106.47 L -162.29 1097.39 L -163.53 1088.32 L -164.77 1079.25 L -166.00 1070.18 L -167.23 1061.10 L -168.45 1052.03 L -169.67 1042.96 L -170.87 1033.89 L -172.08 1024.81 L -173.28 1015.74 L -174.47 1006.67 L -175.66 997.60 L -176.84 988.53 L -178.01 979.45 L -179.18 970.38 L -180.34 961.31 L -181.49 952.24 L -182.63 943.16 L -183.77 934.09 L -184.90 925.02 L -186.02 915.95 L -187.13 906.87 L -188.23 897.80 L -189.32 888.73 L -190.40 879.66 L -191.47 870.58 L -192.53 861.51 L -193.59 852.44 L -194.62 843.37 L -195.65 834.30 L -196.67 825.22 L -197.67 816.15 L -198.66 807.08 L -199.64 798.01 L -200.60 788.93 L -201.54 779.86 L -202.47 770.79 L -203.39 761.72 L -204.29 752.64 L -205.17 743.57 L -206.03 734.50 L -206.87 725.43 L -207.69 716.35 L -208.49 707.28 L -209.27 698.21 L -210.03 689.14 L -210.76 680.07 L -211.46 670.99 L -212.13 661.92 L -212.79 652.85 L -213.42 643.78 L -214.03 634.70 L -214.61 625.63 L -215.18 616.56 L -215.72 607.49 L -216.25 598.41 L -216.75 589.34 L -217.24 580.27 L -217.70 571.20 L -218.15 562.12 L -218.58 553.05 L -218.99 543.98 L -219.39 534.91 L -219.76 525.83 L -220.13 516.76 L -220.47 507.69 L -220.80 498.62 L -221.12 489.55 L -221.42 480.47 L -221.71 471.40 L -221.98 462.33 L -222.24 453.26 L -222.49 444.18 L -222.72 435.11 L -222.94 426.04 L -223.15 416.97 L -223.35 407.89 L -223.53 398.82 L -223.71 389.75 L -223.87 380.68 L -224.02 371.60 L -224.17 362.53 L -224.30 353.46 L -224.43 344.39 L -224.55 335.32 L -224.66 326.24 L -224.77 317.17 L -224.87 308.10 L -224.97 299.03 L -225.07 289.95 L -225.17 280.88 L -225.27 271.81 L 225.27 271.81" fill="#e4d4b5" fill-opacity="0.7" stroke="#222" stroke-width="1.5"/>
<line x1="0" y1="271.81" x2="0" y2="1895.76" stroke="#0a7" stroke-width="1.0"/>
<circle cx="0" cy="271.81" r="0.9" fill="#c00000"/>
<circle cx="0" cy="317.36" r="0.9" fill="#888"/>
<circle cx="0" cy="362.75" r="0.9" fill="#888"/>
<circle cx="0" cy="408.02" r="0.9" fill="#1060d0"/>
<circle cx="0" cy="453.20" r="0.9" fill="#888"/>
<circle cx="0" cy="498.28" r="0.9" fill="#888"/>
<circle cx="0" cy="543.28" r="0.9" fill="#888"/>
<circle cx="0" cy="588.18" r="0.9" fill="#c00000"/>
<circle cx="0" cy="632.99" r="0.9" fill="#888"/>
<circle cx="0" cy="677.64" r="0.9" fill="#888"/>
<circle cx="0" cy="722.15" r="0.9" fill="#1060d0"/>
<circle cx="0" cy="766.46" r="0.9" fill="#888"/>
<circle cx="0" cy="812.23" r="0.9" fill="#888"/>
<circle cx="0" cy="859.26" r="0.9" fill="#888"/>
<circle cx="0" cy="905.93" r="0.9" fill="#c00000"/>
<circle cx="0" cy="952.16" r="0.9" fill="#888"/>
<circle cx="0" cy="997.59" r="0.9" fill="#888"/>
<circle cx="0" cy="1042.29" r="0.9" fill="#1060d0"/>
<circle cx="0" cy="1086.30" r="0.9" fill="#888"/>
<circle cx="0" cy="1129.42" r="0.9" fill="#888"/>
<circle cx="0" cy="1171.45" r="0.9" fill="#888"/>
<circle cx="0" cy="1212.38" r="0.9" fill="#c00000"/>
<circle cx="0" cy="1252.16" r="0.9" fill="#888"/>
<circle cx="0" cy="1290.57" r="0.9" fill="#888"/>
<circle cx="0" cy="1327.73" r="0.9" fill="#1060d0"/>
<circle cx="0" cy="1363.56" r="0.9" fill="#888"/>
<circle cx="0" cy="1398.00" r="0.9" fill="#888"/>
<circle cx="0" cy="1431.02" r="0.9" fill="#888"/>
<circle cx="0" cy="1462.70" r="0.9" fill="#c00000"/>
<circle cx="0" cy="1493.14" r="0.9" fill="#888"/>
<circle cx="0" cy="1522.43" r="0.9" fill="#888"/>
<circle cx="0" cy="1550.61" r="0.9" fill="#1060d0"/>
<circle cx="0" cy="1577.80" r="0.9" fill="#888"/>
<circle cx="0" cy="1604.01" r="0.9" fill="#888"/>
<circle cx="0" cy="1629.40" r="0.9" fill="#888"/>
<circle cx="0" cy="1654.15" r="0.9" fill="#c00000"/>
<circle cx="0" cy="1678.28" r="0.9" fill="#888"/>
<circle cx="0" cy="1701.82" r="0.9" fill="#888"/>
<circle cx="0" cy="1724.87" r="0.9" fill="#1060d0"/>
<circle cx="0" cy="1747.46" r="0.9" fill="#888"/>
<circle cx="0" cy="1769.60" r="0.9" fill="#888"/>
<circle cx="0" cy="1791.34" r="0.9" fill="#888"/>
<circle cx="0" cy="1812.75" r="0.9" fill="#c00000"/>
<circle cx="0" cy="1833.85" r="0.9" fill="#888"/>
<circle cx="0" cy="1854.69" r="0.9" fill="#888"/>
<circle cx="0" cy="1875.31" r="0.9" fill="#1060d0"/>
<circle cx="0" cy="1895.76" r="0.9" fill="#888"/>
</g>
</svg>