<?xml version="1.0" encoding="UTF-8"?>
<svg xmlns="http://www.w3.org/2000/svg" viewBox="-240.0 -1892.2 480.1 1756.0" width="900" height="3291" font-family="sans-serif" font-size="12">
<rect x="-240.0" y="-1892.2" width="480.1" height="1756.0" fill="#fff"/>
<rect x="-228.0" y="-1852.2" width="456.1" height="1704.0" fill="none" stroke="#ccc" stroke-width="0.6"/>
<text x="-218.0" y="-1864.2" font-family="sans-serif" font-size="22" font-weight="bold" fill="#000">SBF (u,y soundboard)</text>
<g transform="scale(1,-1)">
<path d="M 188.04 188.23 L 187.63 197.30 L 187.19 206.37 L 186.73 215.45 L 186.26 224.52 L 185.78 233.59 L 185.28 242.66 L 184.78 251.74 L 184.27 260.81 L 183.74 269.88 L 183.22 278.95 L 182.68 288.03 L 182.14 297.10 L 181.59 306.17 L 181.03 315.24 L 180.47 324.32 L 179.91 333.39 L 179.34 342.46 L 178.77 351.53 L 178.19 360.60 L 177.61 369.68 L 177.02 378.75 L 176.43 387.82 L 175.83 396.89 L 175.23 405.97 L 174.63 415.04 L 174.03 424.11 L 173.42 433.18 L 172.81 442.26 L 172.19 451.33 L 171.57 460.40 L 170.95 469.47 L 170.32 478.55 L 169.69 487.62 L 169.06 496.69 L 168.43 505.76 L 167.79 514.83 L 167.15 523.91 L 166.50 532.98 L 165.86 542.05 L 165.21 551.12 L 164.55 560.20 L 163.90 569.27 L 163.24 578.34 L 162.58 587.41 L 161.91 596.49 L 161.24 605.56 L 160.57 614.63 L 159.90 623.70 L 159.22 632.78 L 158.54 641.85 L 157.85 650.92 L 157.17 659.99 L 156.47 669.07 L 155.78 678.14 L 155.08 687.21 L 154.38 696.28 L 153.67 705.35 L 152.96 714.43 L 152.25 723.50 L 151.53 732.57 L 150.80 741.64 L 150.07 750.72 L 149.34 759.79 L 148.60 768.86 L 147.85 777.93 L 147.11 787.01 L 146.36 796.08 L 145.60 805.15 L 144.84 814.22 L 144.08 823.30 L 143.32 832.37 L 142.55 841.44 L 141.78 850.51 L 141.00 859.58 L 140.22 868.66 L 139.44 877.73 L 138.66 886.80 L 137.88 895.87 L 137.09 904.95 L 136.30 914.02 L 135.50 923.09 L 134.71 932.16 L 133.91 941.24 L 133.11 950.31 L 132.31 959.38 L 131.51 968.45 L 130.70 977.53 L 129.89 986.60 L 129.08 995.67 L 128.27 1004.74 L 127.46 1013.81 L 126.64 1022.89 L 125.82 1031.96 L 125.01 1041.03 L 124.19 1050.10 L 123.37 1059.18 L 122.54 1068.25 L 121.72 1077.32 L 120.89 1086.39 L 120.07 1095.47 L 119.24 1104.54 L 118.41 1113.61 L 117.58 1122.68 L 116.75 1131.76 L 115.91 1140.83 L 115.08 1149.90 L 114.25 1158.97 L 113.41 1168.05 L 112.57 1177.12 L 111.74 1186.19 L 110.90 1195.26 L 110.06 1204.33 L 109.22 1213.41 L 108.38 1222.48 L 107.54 1231.55 L 106.69 1240.62 L 105.85 1249.70 L 105.01 1258.77 L 104.16 1267.84 L 103.32 1276.91 L 102.47 1285.99 L 101.63 1295.06 L 100.78 1304.13 L 99.93 1313.20 L 99.09 1322.28 L 98.24 1331.35 L 97.39 1340.42 L 96.54 1349.49 L 95.69 1358.56 L 94.85 1367.64 L 94.00 1376.71 L 93.15 1385.78 L 92.30 1394.85 L 91.45 1403.93 L 90.60 1413.00 L 89.75 1422.07 L 88.90 1431.14 L 88.05 1440.22 L 87.20 1449.29 L 86.35 1458.36 L 85.50 1467.43 L 84.65 1476.51 L 83.80 1485.58 L 82.95 1494.65 L 82.10 1503.72 L 81.25 1512.79 L 80.40 1521.87 L 79.55 1530.94 L 78.71 1540.01 L 77.86 1549.08 L 77.01 1558.16 L 76.16 1567.23 L 75.32 1576.30 L 74.47 1585.37 L 73.62 1594.45 L 72.78 1603.52 L 71.93 1612.59 L 71.09 1621.66 L 70.24 1630.74 L 69.40 1639.81 L 68.56 1648.88 L 67.72 1657.95 L 66.87 1667.02 L 66.03 1676.10 L 65.19 1685.17 L 64.35 1694.24 L 63.52 1703.31 L 62.68 1712.39 L 61.84 1721.46 L 61.01 1730.53 L 60.17 1739.60 L 59.34 1748.68 L 58.51 1757.75 L 57.68 1766.82 L 56.85 1775.89 L 56.02 1784.97 L 55.19 1794.04 L 54.36 1803.11 L 53.54 1812.18 L -53.54 1812.18 L -54.36 1803.11 L -55.19 1794.04 L -56.02 1784.97 L -56.85 1775.89 L -57.68 1766.82 L -58.51 1757.75 L -59.34 1748.68 L -60.17 1739.60 L -61.01 1730.53 L -61.84 1721.46 L -62.68 1712.39 L -63.52 1703.31 L -64.35 1694.24 L -65.19 1685.17 L -66.03 1676.10 L -66.87 1667.02 L -67.72 1657.95 L -68.56 1648.88 L -69.40 1639.81 L -70.24 1630.74 L -71.09 1621.66 L -71.93 1612.59 L -72.78 1603.52 L -73.62 1594.45 L -74.47 1585.37 L -75.32 1576.30 L -76.16 1567.23 L -77.01 1558.16 L -77.86 1549.08 L -78.71 1540.01 L -79.55 1530.94 L -80.40 1521.87 L -81.25 1512.79 L -82.10 1503.72 L -82.95 1494.65 L -83.80 1485.58 L -84.65 1476.51 L -85.50 1467.43 L -86.35 1458.36 L -87.20 1449.29 L -88.05 1440.22 L -88.90 1431.14 L -89.75 1422.07 L -90.60 1413.00 L -91.45 1403.93 L -92.30 1394.85 L -93.15 1385.78 L -94.00 1376.71 L -94.85 1367.64 L -95.69 1358.56 L -96.54 1349.49 L -97.39 1340.42 L -98.24 1331.35 L -99.09 1322.28 L -99.93 1313.20 L -100.78 1304.13 L -101.63 1295.06 L -102.47 1285.99 L -103.32 1276.91 L -104.16 1267.84 L -105.01 1258.77 L -105.85 1249.70 L -106.69 1240.62 L -107.54 1231.55 L -108.38 1222.48 L -109.22 1213.41 L -110.06 1204.33 L -110.90 1195.26 L -111.74 1186.19 L -112.57 1177.12 L -113.41 1168.05 L -114.25 1158.97 L -115.08 1149.90 L -115.91 1140.83 L -116.75 1131.76 L -117.58 1122.68 L -118.41 1113.61 L -119.24 1104.54 L -120.07 1095.47 L -120.89 1086.39 L -121.72 1077.32 L -122.54 1068.25 L -123.37 1059.18 L -124.19 1050.10 L -125.01 1041.03 L -125.82 1031.96 L -126.64 1022.89 L -127.46 1013.81 L -128.27 1004.74 L -129.08 995.67 L -129.89 986.60 L -130.70 977.53 L -131.51 968.45 L -132.31 959.38 L -133.11 950.31 L -133.91 941.24 L -134.71 932.16 L -135.50 923.09 L -136.30 914.02 L -137.09 904.95 L -137.88 895.87 L -138.66 886.80 L -139.44 877.73 L -140.22 868.66 L -141.00 859.58 L -141.78 850.51 L -142.55 841.44 L -143.32 832.37 L -144.08 823.30 L -144.84 814.22 L -145.60 805.15 L -146.36 796.08 L -147.11 787.01 L -147.85 777.93 L -148.60 768.86 L -149.34 759.79 L -150.07 750.72 L -150.80 741.64 L -151.53 732.57 L -152.25 723.50 L -152.96 714.43 L -153.67 705.35 L -154.38 696.28 L -155.08 687.21 L -155.78 678.14 L -156.47 669.07 L -157.17 659.99 L -157.85 650.92 L -158.54 641.85 L -159.22 632.78 L -159.90 623.70 L -160.57 614.63 L -161.24 605.56 L -161.91 596.49 L -162.58 587.41 L -163.24 578.34 L -163.90 569.27 L -164.55 560.20 L -165.21 551.12 L -165.86 542.05 L -166.50 532.98 L -167.15 523.91 L -167.79 514.83 L -168.43 505.76 L -169.06 496.69 L -169.69 487.62 L -170.32 478.55 L -170.95 469.47 L -171.57 460.40 L -172.19 451.33 L -172.81 442.26 L -173.42 433.18 L -174.03 424.11 L -174.63 415.04 L -175.23 405.97 L -175.83 396.89 L -176.43 387.82 L -177.02 378.75 L -177.61 369.68 L -178.19 360.60 L -178.77 351.53 L -179.34 342.46 L -179.91 333.39 L -180.47 324.32 L -181.03 315.24 L -181.59 306.17 L -182.14 297.10 L -182.68 288.03 L -183.22 278.95 L -183.74 269.88 L -184.27 260.81 L -184.78 251.74 L -185.28 242.66 L -185.78 233.59 L -186.26 224.52 L -186.73 215.45 L -187.19 206.37 L -187.63 197.30 L -188.04 188.23 L 188.04 188.23" fill="#e4d4b5" fill-opacity="0.7" stroke="#222" stroke-width="1.5"/>
<line x1="0" y1="188.23" x2="0" y2="1812.18" stroke="#0a7" stroke-width="1.0"/>
<circle cx="0" cy="188.23" r="0.9" fill="#c00000"/>
<circle cx="0" cy="233.78" r="0.9" fill="#888"/>
<circle cx="0" cy="279.17" r="0.9" fill="#888"/>
<circle cx="0" cy="324.44" r="0.9" fill="#1060d0"/>
<circle cx="0" cy="369.62" r="0.9" fill="#888"/>
<circle cx="0" cy="414.70" r="0.9" fill="#888"/>
<circle cx="0" cy="459.70" r="0.9" fill="#888"/>
<circle cx="0" cy="504.60" r="0.9" fill="#c00000"/>
<circle cx="0" cy="549.42" r="0.9" fill="#888"/>
<circle cx="0" cy="594.06" r="0.9" fill="#888"/>
<circle cx="0" cy="638.57" r="0.9" fill="#1060d0"/>
<circle cx="0" cy="682.88" r="0.9" fill="#888"/>
<circle cx="0" cy="728.65" r="0.9" fill="#888"/>
<circle cx="0" cy="775.68" r="0.9" fill="#888"/>
<circle cx="0" cy="822.35" r="0.9" fill="#c00000"/>
<circle cx="0" cy="868.59" r="0.9" fill="#888"/>
<circle cx="0" cy="914.02" r="0.9" fill="#888"/>
<circle cx="0" cy="958.71" r="0.9" fill="#1060d0"/>
<circle cx="0" cy="1002.72" r="0.9" fill="#888"/>
<circle cx="0" cy="1045.84" r="0.9" fill="#888"/>
<circle cx="0" cy="1087.88" r="0.9" fill="#888"/>
<circle cx="0" cy="1128.80" r="0.9" fill="#c00000"/>
<circle cx="0" cy="1168.58" r="0.9" fill="#888"/>
<circle cx="0" cy="1206.99" r="0.9" fill="#888"/>
<circle cx="0" cy="1244.15" r="0.9" fill="#1060d0"/>
<circle cx="0" cy="1279.98" r="0.9" fill="#888"/>
<circle cx="0" cy="1314.42" r="0.9" fill="#888"/>
<circle cx="0" cy="1347.44" r="0.9" fill="#888"/>
<circle cx="0" cy="1379.12" r="0.9" fill="#c00000"/>
<circle cx="0" cy="1409.56" r="0.9" fill="#888"/>
<circle cx="0" cy="1438.85" r="0.9" fill="#888"/>
<circle cx="0" cy="1467.03" r="0.9" fill="#1060d0"/>
<circle cx="0" cy="1494.22" r="0.9" fill="#888"/>
<circle cx="0" cy="1520.43" r="0.9" fill="#888"/>
<circle cx="0" cy="1545.82" r="0.9" fill="#888"/>
<circle cx="0" cy="1570.57" r="0.9" fill="#c00000"/>
<circle cx="0" cy="1594.70" r="0.9" fill="#888"/>
<circle cx="0" cy="1618.24" r="0.9" fill="#888"/>
<circle cx="0" cy="1641.29" r="0.9" fill="#1060d0"/>
<circle cx="0" cy="1663.88" r="0.9" fill="#888"/>
<circle cx="0" cy="1686.02" r="0.9" fill="#888"/>
<circle cx="0" cy="1707.76" r="0.9" fill="#888"/>
<circle cx="0" cy="1729.17" r="0.9" fill="#c00000"/>
<circle cx="0" cy="1750.27" r="0.9" fill="#888"/>
<circle cx="0" cy="1771.11" r="0.9" fill="#888"/>
<circle cx="0" cy="1791.73" r="0.9" fill="#1060d0"/>
<circle cx="0" cy="1812.18" r="0.9" fill="#888"/>
</g>
</svg>