<?xml version="1.0" encoding="UTF-8"?>
<svg xmlns="http://www.w3.org/2000/svg" viewBox="-267.3 -2067.4 1029.9 2129.4" width="900" height="1860" font-family="sans-serif" font-size="12">
<rect x="-267.3" y="-2067.4" width="1029.9" height="2129.4" fill="#fff"/>
<rect x="-255.3" y="-2027.4" width="1005.9" height="2077.4" fill="none" stroke="#ccc" stroke-width="0.6"/>
<text x="-245.3" y="-2039.4" font-family="sans-serif" font-size="22" font-weight="bold" fill="#000">SIDE (xz, look +y)</text>
<g transform="scale(1,-1)">
<line x1="-255.3" y1="0" x2="750.6" y2="0" stroke="#888" stroke-width="0.6" stroke-dasharray="4,3" opacity="0.7"/>
<path d="M -29.87 39.39 L 380.13 39.39 L 380.14 41.36 L 380.15 43.33 L 380.17 45.30 L 380.19 47.26 L 380.23 49.23 L 380.27 51.19 L 380.31 53.16 L 380.37 55.13 L 380.43 57.09 L 380.50 59.06 L 380.58 61.02 L 380.67 62.99 L 380.76 64.95 L 380.86 66.92 L 380.97 68.88 L 381.08 70.84 L 381.20 72.81 L 381.33 74.77 L 381.47 76.73 L 381.61 78.69 L 381.77 80.65 L 381.93 82.61 L 382.09 84.57 L 382.27 86.53 L 382.45 88.49 L 382.64 90.45 L 382.83 92.41 L 383.04 94.36 L 383.25 96.32 L 383.47 98.27 L 383.69 100.23 L 383.93 102.18 L 384.17 104.13 L 384.41 106.08 L 384.67 108.03 L 384.93 109.98 L 385.20 111.93 L 385.48 113.88 L 385.76 115.82 L 386.05 117.77 L 386.35 119.71 L 386.66 121.66 L 386.97 123.60 L 387.30 125.54 L 387.62 127.48 L 387.96 129.41 L 388.30 131.35 L 388.65 133.29 L 389.01 135.22 L 389.38 137.15 L 389.75 139.08 L 390.13 141.01 L 390.51 142.94 L 390.91 144.87 L 391.31 146.80 L 391.72 148.72 L 392.13 150.64 L 392.56 152.56 L 392.99 154.48 L -6.91 244.95 L -7.68 241.52 L -8.43 238.09 L -9.17 234.65 L -9.90 231.22 L -10.62 227.78 L -11.33 224.34 L -12.02 220.89 L -12.69 217.45 L -13.36 214.00 L -14.01 210.55 L -14.65 207.09 L -15.28 203.63 L -15.89 200.18 L -16.49 196.71 L -17.07 193.25 L -17.65 189.79 L -18.21 186.32 L -18.76 182.85 L -19.29 179.38 L -19.81 175.90 L -20.32 172.43 L -20.82 168.95 L -21.30 165.47 L -21.77 161.99 L -22.22 158.50 L -22.66 155.02 L -23.09 151.53 L -23.51 148.04 L -23.91 144.55 L -24.30 141.06 L -24.68 137.57 L -25.04 134.08 L -25.39 130.58 L -25.73 127.09 L -26.06 123.59 L -26.37 120.09 L -26.66 116.59 L -26.95 113.09 L -27.22 109.58 L -27.48 106.08 L -27.72 102.58 L -27.95 99.07 L -28.17 95.57 L -28.38 92.06 L -28.57 88.55 L -28.75 85.04 L -28.91 81.53 L -29.07 78.02 L -29.21 74.51 L -29.33 71.00 L -29.44 67.49 L -29.54 63.98 L -29.63 60.47 L -29.70 56.96 L -29.76 53.45 L -29.81 49.93 L -29.84 46.42 L -29.86 42.91 Z" fill="#a000a0" fill-opacity="0.18" stroke="#a000a0" stroke-width="1.5" stroke-linejoin="round"/>
<circle cx="-29.87" cy="39.39" r="2.0" fill="#5d4037"/>
<text transform="matrix(1,0,0,-1,-47.9,53.4)" font-family="sans-serif" font-size="11" font-weight="700" fill="#5d4037">P0</text>
<circle cx="380.13" cy="39.39" r="2.0" fill="#5d4037"/>
<text transform="matrix(1,0,0,-1,386.1,43.4)" font-family="sans-serif" font-size="11" font-weight="700" fill="#5d4037">P1</text>
<circle cx="392.99" cy="154.48" r="2.0" fill="#5d4037"/>
<text transform="matrix(1,0,0,-1,401.0,170.5)" font-family="sans-serif" font-size="11" font-weight="700" fill="#5d4037">P2</text>
<circle cx="-6.91" cy="244.95" r="2.0" fill="#5d4037"/>
<text transform="matrix(1,0,0,-1,-28.9,260.9)" font-family="sans-serif" font-size="11" font-weight="700" fill="#5d4037">P3</text>
<path d="M -6.91 244.95 L -6.38 247.25 L -5.83 249.55 L -5.26 251.84 L -4.68 254.13 L -4.08 256.42 L -3.45 258.70 L -2.81 260.97 L -2.14 263.24 L -1.45 265.50 L -0.74 267.75 L 0.00 270.00 L 12.21 306.50 L 24.14 342.24 L 35.79 377.23 L 47.18 411.49 L 58.30 445.03 L 69.17 477.86 L 79.80 509.99 L 90.18 541.43 L 100.33 572.20 L 110.25 602.30 L 119.96 631.75 L 129.45 660.56 L 138.74 688.75 L 147.83 716.32 L 156.72 743.28 L 165.43 769.65 L 173.97 795.44 L 182.33 820.66 L 190.53 845.32 L 198.57 869.43 L 206.46 893.01 L 214.21 916.07 L 221.82 938.62 L 229.30 960.66 L 236.66 982.22 L 243.90 1003.31 L 251.03 1023.93 L 258.06 1044.09 L 265.00 1063.82 L 271.85 1083.11 L 278.62 1101.99 L 285.31 1120.47 L 291.93 1138.55 L 298.50 1156.25 L 305.01 1173.57 L 311.47 1190.54 L 317.90 1207.16 L 324.29 1223.45 L 330.66 1239.41 L 337.00 1255.06 L 343.34 1270.41 L 349.67 1285.47 L 356.00 1300.26 L 362.34 1314.78 L 368.69 1329.04 L 375.07 1343.07 L 381.48 1356.86 L 387.92 1370.44 L 394.41 1383.81 L 400.94 1396.99 L 407.54 1409.98 L 414.19 1422.80 L 420.92 1435.46 L 427.72 1447.97 L 434.61 1460.35 L 441.60 1472.60 L 448.67 1484.74 L 455.86 1496.78 L 463.16 1508.73 L 470.57 1520.60 L 478.11 1532.41 L 485.79 1544.16 L 493.60 1555.87 L 501.57 1567.55 L 509.68 1579.21 L 517.96 1590.86 L 526.40 1602.52 L 535.02 1614.19 L 543.81 1625.89 L 552.80 1637.63 L 561.98 1649.42 L 571.37 1661.27 L 580.96 1673.20 L 590.77 1685.22 L 600.80 1697.33 L 611.06 1709.55 L 621.56 1721.90 L 632.30 1734.38 L 643.29 1747.00 L 660.42 1766.56 L 720.61 1713.86 L 720.61 1713.86 L 701.61 1676.73 L 683.83 1640.06 L 667.05 1603.36 L 651.42 1566.69 L 637.06 1530.08 L 624.03 1493.56 L 612.40 1457.14 L 602.12 1420.77 L 593.12 1384.38 L 585.28 1347.86 L 578.43 1311.09 L 572.43 1273.99 L 567.13 1236.47 L 562.39 1198.49 L 558.09 1160.05 L 554.13 1121.16 L 550.42 1081.86 L 546.87 1042.18 L 543.42 1002.17 L 540.00 961.88 L 536.56 921.36 L 533.04 880.64 L 529.39 839.76 L 525.54 798.78 L 521.45 757.71 L 517.05 716.62 L 512.28 675.52 L 507.05 634.46 L 501.26 593.49 L 494.78 552.66 L 487.43 512.04 L 479.25 471.63 L 470.32 431.40 L 460.71 391.35 L 450.50 351.46 L 439.74 311.71 L 428.48 272.09 L 416.79 232.60 L 404.75 193.20 L 392.99 154.48 C 259.69,184.64 126.39,214.79 -6.91,244.95 Z" fill="#0a7" fill-opacity="0.18" stroke="#0a7" stroke-width="1.5" stroke-linejoin="round"/>
<circle cx="126.39" cy="214.79" r="2.0" fill="#0a8"/>
<text transform="matrix(1,0,0,-1,131.4,209.8)" font-family="sans-serif" font-size="10" font-weight="700" fill="#066">B0i</text>
<circle cx="259.69" cy="184.64" r="2.0" fill="#0a8"/>
<text transform="matrix(1,0,0,-1,264.7,179.6)" font-family="sans-serif" font-size="10" font-weight="700" fill="#066">B1o</text>
<circle cx="443.01" cy="323.58" r="27.18" fill="#fff" fill-opacity="0.85" stroke="#222" stroke-width="0.8"/>
<circle cx="443.01" cy="323.58" r="23.95" fill="none" stroke="#222" stroke-width="0.6" stroke-dasharray="2,2"/>
<text transform="matrix(1,0,0,-1,473.2,326.6)" font-family="sans-serif" font-size="9" fill="#222">1</text>
<circle cx="506.12" cy="627.56" r="23.28" fill="#fff" fill-opacity="0.85" stroke="#222" stroke-width="0.8"/>
<circle cx="506.12" cy="627.56" r="20.05" fill="none" stroke="#222" stroke-width="0.6" stroke-dasharray="2,2"/>
<text transform="matrix(1,0,0,-1,532.4,630.6)" font-family="sans-serif" font-size="9" fill="#222">2</text>
<circle cx="543.85" cy="1007.20" r="19.38" fill="#fff" fill-opacity="0.85" stroke="#222" stroke-width="0.8"/>
<circle cx="543.85" cy="1007.20" r="16.15" fill="none" stroke="#222" stroke-width="0.6" stroke-dasharray="2,2"/>
<text transform="matrix(1,0,0,-1,566.2,1010.2)" font-family="sans-serif" font-size="9" fill="#222">3</text>
<circle cx="564.60" cy="1216.73" r="15.78" fill="#fff" fill-opacity="0.85" stroke="#222" stroke-width="0.8"/>
<circle cx="564.60" cy="1216.73" r="12.55" fill="none" stroke="#222" stroke-width="0.6" stroke-dasharray="2,2"/>
<text transform="matrix(1,0,0,-1,583.4,1219.7)" font-family="sans-serif" font-size="9" fill="#222">4</text>
<circle cx="603.39" cy="1425.53" r="12.23" fill="#fff" fill-opacity="0.85" stroke="#222" stroke-width="0.8"/>
<circle cx="603.39" cy="1425.53" r="9.00" fill="none" stroke="#222" stroke-width="0.6" stroke-dasharray="2,2"/>
<text transform="matrix(1,0,0,-1,618.6,1428.5)" font-family="sans-serif" font-size="9" fill="#222">5</text>
<path d="m -225.34,1773.64 c -7.422,62.964 179.17,195.00 240.291,191.696 61.12,-3.30 94.31993,-85.5633 199.55142,-173.3561 105.23148,-87.7927 398.97426,69.4028 448.50507,70.3018 49.53082,0.899 129.56387,-79.684 57.60,-148.42 -14.62,12.80 -39.01,34.17 -60.19,52.70 -51.80,45.36 -58.16,11.44 -78.21,-0.65 -479.77,-278.49 -413.13,-4.77 -551.36,-12.96 -90.474523,-5.3586 -199.366303,-187.3312 -213.67835,-175.24 -4.02116,65.28019 -7.52527,130.59429 -10.51165,195.93 z" fill="#5d4037" fill-opacity="0.18" stroke="#5d4037" stroke-width="1.2"/>
<line x1="-232.76" y1="1836.60" x2="-225.34" y2="1773.64" stroke="#0080a0" stroke-width="0.4" stroke-dasharray="2,2" opacity="0.7"/>
<circle cx="-232.76" cy="1836.60" r="1.8" fill="#0080a0"/>
<text transform="matrix(1,0,0,-1,-233.5,1842.6)" font-family="sans-serif" font-size="9" fill="#003040">N0o</text>
<line x1="-46.17" y1="1968.64" x2="14.95" y2="1965.34" stroke="#0080a0" stroke-width="0.4" stroke-dasharray="2,2" opacity="0.7"/>
<circle cx="-46.17" cy="1968.64" r="1.8" fill="#0080a0"/>
<text transform="matrix(1,0,0,-1,-52.2,1969.0)" font-family="sans-serif" font-size="9" fill="#003040">N9i</text>
<line x1="76.07" y1="1962.04" x2="14.95" y2="1965.34" stroke="#0080a0" stroke-width="0.4" stroke-dasharray="2,2" opacity="0.7"/>
<circle cx="76.07" cy="1962.04" r="1.8" fill="#0080a0"/>
<text transform="matrix(1,0,0,-1,82.1,1961.7)" font-family="sans-serif" font-size="9" fill="#003040">N9o</text>
<line x1="109.27" y1="1879.77" x2="214.50" y2="1791.98" stroke="#0080a0" stroke-width="0.4" stroke-dasharray="2,2" opacity="0.7"/>
<circle cx="109.27" cy="1879.77" r="1.8" fill="#0080a0"/>
<text transform="matrix(1,0,0,-1,104.7,1883.6)" font-family="sans-serif" font-size="9" fill="#003040">N8i</text>
<line x1="319.73" y1="1704.19" x2="214.50" y2="1791.98" stroke="#0080a0" stroke-width="0.4" stroke-dasharray="2,2" opacity="0.7"/>
<circle cx="319.73" cy="1704.19" r="1.8" fill="#0080a0"/>
<text transform="matrix(1,0,0,-1,324.3,1700.3)" font-family="sans-serif" font-size="9" fill="#003040">N8o</text>
<line x1="613.48" y1="1861.38" x2="663.01" y2="1862.28" stroke="#0080a0" stroke-width="0.4" stroke-dasharray="2,2" opacity="0.7"/>
<circle cx="613.48" cy="1861.38" r="1.8" fill="#0080a0"/>
<text transform="matrix(1,0,0,-1,607.5,1861.3)" font-family="sans-serif" font-size="9" fill="#003040">N7i</text>
<line x1="712.54" y1="1863.18" x2="663.01" y2="1862.28" stroke="#0080a0" stroke-width="0.4" stroke-dasharray="2,2" opacity="0.7"/>
<circle cx="712.54" cy="1863.18" r="1.8" fill="#0080a0"/>
<text transform="matrix(1,0,0,-1,718.5,1863.3)" font-family="sans-serif" font-size="9" fill="#003040">N7o</text>
<line x1="792.57" y1="1782.60" x2="720.61" y2="1713.86" stroke="#0080a0" stroke-width="0.4" stroke-dasharray="2,2" opacity="0.7"/>
<circle cx="792.57" cy="1782.60" r="1.8" fill="#0080a0"/>
<text transform="matrix(1,0,0,-1,796.9,1786.7)" font-family="sans-serif" font-size="9" fill="#003040">N6i</text>
<line x1="705.99" y1="1726.66" x2="720.61" y2="1713.86" stroke="#0080a0" stroke-width="0.4" stroke-dasharray="2,2" opacity="0.7"/>
<circle cx="705.99" cy="1726.66" r="1.8" fill="#0080a0"/>
<text transform="matrix(1,0,0,-1,701.5,1730.6)" font-family="sans-serif" font-size="9" fill="#003040">N6o</text>
<line x1="681.60" y1="1748.03" x2="660.42" y2="1766.56" stroke="#0080a0" stroke-width="0.4" stroke-dasharray="2,2" opacity="0.7"/>
<circle cx="681.60" cy="1748.03" r="1.8" fill="#0080a0"/>
<text transform="matrix(1,0,0,-1,686.1,1744.1)" font-family="sans-serif" font-size="9" fill="#003040">N5i</text>
<line x1="608.62" y1="1811.92" x2="660.42" y2="1766.56" stroke="#0080a0" stroke-width="0.4" stroke-dasharray="2,2" opacity="0.7"/>
<circle cx="608.62" cy="1811.92" r="1.8" fill="#0080a0"/>
<text transform="matrix(1,0,0,-1,604.1,1815.9)" font-family="sans-serif" font-size="9" fill="#003040">N5o</text>
<line x1="602.26" y1="1778.00" x2="582.21" y2="1765.91" stroke="#0080a0" stroke-width="0.4" stroke-dasharray="2,2" opacity="0.7"/>
<circle cx="602.26" cy="1778.00" r="1.8" fill="#0080a0"/>
<text transform="matrix(1,0,0,-1,607.4,1781.1)" font-family="sans-serif" font-size="9" fill="#003040">N4i</text>
<line x1="102.44" y1="1487.42" x2="582.21" y2="1765.91" stroke="#0080a0" stroke-width="0.4" stroke-dasharray="2,2" opacity="0.7"/>
<circle cx="102.44" cy="1487.42" r="1.8" fill="#0080a0"/>
<text transform="matrix(1,0,0,-1,97.2,1484.4)" font-family="sans-serif" font-size="9" fill="#003040">N4o</text>
<line x1="169.08" y1="1761.14" x2="30.85" y2="1752.95" stroke="#0080a0" stroke-width="0.4" stroke-dasharray="2,2" opacity="0.7"/>
<circle cx="169.08" cy="1761.14" r="1.8" fill="#0080a0"/>
<text transform="matrix(1,0,0,-1,175.1,1761.5)" font-family="sans-serif" font-size="9" fill="#003040">N3i</text>
<line x1="-59.63" y1="1747.59" x2="30.85" y2="1752.95" stroke="#0080a0" stroke-width="0.4" stroke-dasharray="2,2" opacity="0.7"/>
<circle cx="-59.63" cy="1747.59" r="1.8" fill="#0080a0"/>
<text transform="matrix(1,0,0,-1,-65.6,1747.2)" font-family="sans-serif" font-size="9" fill="#003040">N3o</text>
<line x1="-168.52" y1="1565.62" x2="-182.83" y2="1577.71" stroke="#0080a0" stroke-width="0.4" stroke-dasharray="2,2" opacity="0.7"/>
<circle cx="-168.52" cy="1565.62" r="1.8" fill="#0080a0"/>
<text transform="matrix(1,0,0,-1,-163.9,1561.7)" font-family="sans-serif" font-size="9" fill="#003040">N2i</text>
<line x1="-186.85" y1="1642.99" x2="-182.83" y2="1577.71" stroke="#0080a0" stroke-width="0.4" stroke-dasharray="2,2" opacity="0.7"/>
<circle cx="-186.85" cy="1642.99" r="1.8" fill="#0080a0"/>
<text transform="matrix(1,0,0,-1,-187.2,1649.0)" font-family="sans-serif" font-size="9" fill="#003040">N2o</text>
<line x1="-190.36" y1="1708.31" x2="-193.34" y2="1773.64" stroke="#0080a0" stroke-width="0.4" stroke-dasharray="2,2" opacity="0.7"/>
<circle cx="-190.36" cy="1708.31" r="1.8" fill="#0080a0"/>
<text transform="matrix(1,0,0,-1,-190.1,1702.3)" font-family="sans-serif" font-size="9" fill="#003040">N1i</text>
<line x1="-2.03" y1="243.84" x2="296.20" y2="42.20" stroke="#a000a0" stroke-width="1.6"/>
<line x1="-2.03" y1="243.84" x2="-2.03" y2="243.84" stroke="#a000a0" stroke-width="1.2"/>
<line x1="296.20" y1="42.20" x2="374.89" y2="158.58" stroke="#a000a0" stroke-width="1.2"/>
<circle cx="-2.03" cy="243.84" r="2.0" fill="#a000a0"/>
<text transform="matrix(1,0,0,-1,3.0,237.8)" font-family="sans-serif" font-size="11" font-weight="700" fill="#a000a0">Pe1</text>
<circle cx="296.20" cy="42.20" r="2.0" fill="#a000a0"/>
<text transform="matrix(1,0,0,-1,301.2,54.2)" font-family="sans-serif" font-size="11" font-weight="700" fill="#a000a0">Pe2</text>
<circle cx="-2.03" cy="243.84" r="2.0" fill="#a000a0"/>
<circle cx="374.89" cy="158.58" r="2.0" fill="#a000a0"/>
<text transform="matrix(1,0,0,-1,-24.0,237.8)" font-family="sans-serif" font-size="14" font-weight="700" fill="#a000a0">R1</text>
<text transform="matrix(1,0,0,-1,379.9,166.6)" font-family="sans-serif" font-size="14" font-weight="700" fill="#a000a0">R2</text>
<line x1="-6.91" y1="244.95" x2="392.99" y2="154.48" stroke="#a000a0" stroke-width="1.0" stroke-dasharray="4,3" opacity="0.7"/>
<path d="M 392.99,154.48 L 392.56,152.56 L 392.13,150.64 L 391.72,148.72 L 391.31,146.80 L 390.91,144.87 L 390.51,142.94 L 390.13,141.01 L 389.75,139.08 L 389.38,137.15 L 389.01,135.22 L 388.65,133.29 L 388.30,131.35 L 387.96,129.41 L 387.62,127.48 L 387.30,125.54 L 386.97,123.60 L 386.66,121.66 L 386.35,119.71 L 386.05,117.77 L 385.76,115.82 L 385.48,113.88 L 385.20,111.93 L 384.93,109.98 L 384.67,108.03 L 384.41,106.08 L 384.17,104.13 L 383.93,102.18 L 383.69,100.23 L 383.47,98.27 L 383.25,96.32 L 383.04,94.36 L 382.83,92.41 L 382.64,90.45 L 382.45,88.49 L 382.27,86.53 L 382.09,84.57 L 381.93,82.61 L 381.77,80.65 L 381.61,78.69 L 381.47,76.73 L 381.33,74.77 L 381.20,72.81 L 381.08,70.84 L 380.97,68.88 L 380.86,66.92 L 380.76,64.95 L 380.67,62.99 L 380.58,61.02 L 380.50,59.06 L 380.43,57.09 L 380.37,55.13 L 380.31,53.16 L 380.27,51.19 L 380.23,49.23 L 380.19,47.26 L 380.17,45.30 L 380.15,43.33 L 380.14,41.36 L 380.13,39.39" fill="none" stroke="#a000a0" stroke-width="1.2" opacity="0.85"/>
<path d="M -6.91,244.95 L -7.68,241.52 L -8.43,238.09 L -9.17,234.65 L -9.90,231.22 L -10.62,227.78 L -11.33,224.34 L -12.02,220.89 L -12.69,217.45 L -13.36,214.00 L -14.01,210.55 L -14.65,207.09 L -15.28,203.63 L -15.89,200.18 L -16.49,196.71 L -17.07,193.25 L -17.65,189.79 L -18.21,186.32 L -18.76,182.85 L -19.29,179.38 L -19.81,175.90 L -20.32,172.43 L -20.82,168.95 L -21.30,165.47 L -21.77,161.99 L -22.22,158.50 L -22.66,155.02 L -23.09,151.53 L -23.51,148.04 L -23.91,144.55 L -24.30,141.06 L -24.68,137.57 L -25.04,134.08 L -25.39,130.58 L -25.73,127.09 L -26.06,123.59 L -26.37,120.09 L -26.66,116.59 L -26.95,113.09 L -27.22,109.58 L -27.48,106.08 L -27.72,102.58 L -27.95,99.07 L -28.17,95.57 L -28.38,92.06 L -28.57,88.55 L -28.75,85.04 L -28.91,81.53 L -29.07,78.02 L -29.21,74.51 L -29.33,71.00 L -29.44,67.49 L -29.54,63.98 L -29.63,60.47 L -29.70,56.96 L -29.76,53.45 L -29.81,49.93 L -29.84,46.42 L -29.86,42.91 L -29.87,39.39" fill="none" stroke="#a000a0" stroke-width="1.2" opacity="0.85"/>
<circle cx="901.73" cy="39.39" r="2.5" fill="#a000a0"/>
<text transform="matrix(1,0,0,-1,906.7,43.4)" font-family="sans-serif" font-size="11" font-weight="700" fill="#a000a0">ARC_CENTER</text>
<line x1="901.73" y1="39.39" x2="-29.87" y2="39.39" stroke="#a000a0" stroke-width="0.9" stroke-dasharray="6,3" opacity="0.85"/>
<line x1="901.73" y1="39.39" x2="-6.91" y2="244.95" stroke="#a000a0" stroke-width="0.9" stroke-dasharray="6,3" opacity="0.85"/>
<text transform="matrix(1,0,0,-1,153.1,147.0)" font-family="sans-serif" font-size="12" font-weight="700" fill="#a000a0">rc</text>
<circle cx="113.47" cy="93.32" r="2.0" fill="#a000a0"/>
<text transform="matrix(1,0,0,-1,119.5,97.3)" font-family="sans-serif" font-size="12" font-weight="700" fill="#a000a0">v</text>
<path d="M -2.03,243.84 L -2.03,243.84 -2.03,243.84 L 2.15,233.96 L 6.49,224.32 L 11.01,214.93 L 15.69,205.78 L 20.54,196.89 L 25.56,188.25 L 30.75,179.85 L 36.11,171.70 L 41.63,163.80 L 47.32,156.15 L 53.18,148.75 L 59.21,141.60 L 65.40,134.69 L 71.77,128.04 L 78.30,121.63 L 85.00,115.47 L 91.86,109.56 L 98.90,103.89 L 106.10,98.48 L 113.47,93.32 L 121.01,88.40 L 128.72,83.73 L 136.60,79.31 L 144.64,75.14 L 152.85,71.22 L 161.23,67.54 L 169.78,64.12 L 178.50,60.94 L 187.38,58.01 L 196.43,55.33 L 205.65,52.90 L 215.04,50.72 L 224.60,48.78 L 234.32,47.09 L 244.21,45.66 L 254.27,44.47 L 264.50,43.53 L 274.90,42.84 L 285.46,42.39 L 296.20,42.20 L 374.89,158.58 Z" fill="#fff" stroke="#a000a0" stroke-width="1.0" opacity="1.0"/>
<line x1="113.47" y1="93.32" x2="563.60" y2="759.04" stroke="#a000a0" stroke-width="0.6" stroke-dasharray="3,2" opacity="0.8"/>
<circle cx="147.08" cy="143.02" r="2.0" fill="#a000a0"/>
<circle cx="563.60" cy="759.04" r="2.5" fill="#a000a0"/>
<line x1="660.42" y1="1766.56" x2="720.61" y2="1713.86" stroke="#cc0000" stroke-width="1.0" stroke-dasharray="4,3" opacity="0.7"/>
<line x1="664.18" y1="1763.27" x2="722.34" y2="1748.50" stroke="#a000a0" stroke-width="1.6"/>
<line x1="664.18" y1="1763.27" x2="664.18" y2="1763.27" stroke="#a000a0" stroke-width="1.2"/>
<line x1="722.34" y1="1748.50" x2="714.83" y2="1718.92" stroke="#a000a0" stroke-width="1.2"/>
<circle cx="664.18" cy="1763.27" r="2.0" fill="#a000a0"/>
<text transform="matrix(1,0,0,-1,669.2,1757.3)" font-family="sans-serif" font-size="11" font-weight="700" fill="#a000a0">Pe3</text>
<circle cx="722.34" cy="1748.50" r="2.0" fill="#a000a0"/>
<text transform="matrix(1,0,0,-1,727.3,1760.5)" font-family="sans-serif" font-size="11" font-weight="700" fill="#a000a0">Pe4</text>
<circle cx="664.18" cy="1763.27" r="2.0" fill="#a000a0"/>
<circle cx="714.83" cy="1718.92" r="2.0" fill="#a000a0"/>
<text transform="matrix(1,0,0,-1,642.2,1757.3)" font-family="sans-serif" font-size="14" font-weight="700" fill="#a000a0">R3</text>
<text transform="matrix(1,0,0,-1,719.8,1726.9)" font-family="sans-serif" font-size="14" font-weight="700" fill="#a000a0">R4</text>
<circle cx="698.67" cy="1777.21" r="2.0" fill="#a000a0"/>
<text transform="matrix(1,0,0,-1,704.7,1781.2)" font-family="sans-serif" font-size="12" font-weight="700" fill="#a000a0">vt</text>
<path d="M 664.18,1763.27 L 664.18,1763.27 664.18,1763.27 L 666.16,1764.98 L 668.12,1766.58 L 670.05,1768.08 L 671.95,1769.47 L 673.82,1770.75 L 675.67,1771.93 L 677.49,1773.00 L 679.28,1773.96 L 681.04,1774.82 L 682.78,1775.57 L 684.49,1776.21 L 686.18,1776.75 L 687.83,1777.18 L 689.46,1777.50 L 691.07,1777.72 L 692.64,1777.83 L 694.19,1777.84 L 695.71,1777.73 L 697.21,1777.52 L 698.67,1777.21 L 700.11,1776.79 L 701.53,1776.26 L 702.91,1775.62 L 704.27,1774.88 L 705.60,1774.03 L 706.91,1773.07 L 708.19,1772.01 L 709.44,1770.84 L 710.66,1769.57 L 711.86,1768.19 L 713.03,1766.70 L 714.17,1765.10 L 715.29,1763.40 L 716.37,1761.59 L 717.44,1759.68 L 718.47,1757.65 L 719.48,1755.53 L 720.46,1753.29 L 721.41,1750.95 L 722.34,1748.50 L 714.83,1718.92 Z" fill="#fff" stroke="#a000a0" stroke-width="1.0" opacity="1.0"/>
<line x1="698.67" y1="1777.21" x2="551.03" y2="1195.66" stroke="#a000a0" stroke-width="0.6" stroke-dasharray="3,2" opacity="0.8"/>
<circle cx="693.26" cy="1755.88" r="2.0" fill="#a000a0"/>
<circle cx="551.03" cy="1195.66" r="2.5" fill="#a000a0"/>
<text transform="matrix(1,0,0,-1,699.3,1759.9)" font-family="sans-serif" font-size="12" font-weight="700" fill="#a000a0">rct</text>
<path d="M -17.76 39.39 L -21.95 61.12 L -26.11 82.86 L -30.23 104.60 L -34.31 126.35 L -38.35 148.10 L -42.35 169.87 L -46.31 191.64 L -50.23 213.42 L -54.11 235.20 L -57.95 257.00 L -61.75 278.80 L -65.51 300.60 L -69.23 322.42 L -72.90 344.24 L -76.54 366.07 L -80.14 387.90 L -83.70 409.74 L -87.22 431.59 L -90.69 453.44 L -94.13 475.30 L -97.53 497.17 L -100.88 519.04 L -104.20 540.92 L -107.48 562.81 L -110.71 584.70 L -113.91 606.59 L -117.06 628.50 L -120.18 650.40 L -123.25 672.32 L -126.29 694.24 L -129.28 716.16 L -132.23 738.09 L -135.15 760.03 L -138.02 781.97 L -140.85 803.92 L -143.64 825.87 L -146.39 847.83 L -149.11 869.79 L -151.78 891.76 L -154.41 913.73 L -156.99 935.70 L -159.54 957.69 L -162.05 979.67 L -164.52 1001.66 L -166.95 1023.66 L -169.34 1045.66 L -171.68 1067.66 L -173.99 1089.67 L -176.25 1111.68 L -178.48 1133.70 L -180.66 1155.72 L -182.81 1177.74 L -184.91 1199.77 L -186.97 1221.80 L -188.99 1243.84 L -190.98 1265.88 L -192.92 1287.92 L -194.82 1309.97 L -196.68 1332.02 L -198.50 1354.07 L -200.28 1376.13 L -202.01 1398.19 L -203.71 1420.26 L -205.37 1442.32 L -206.98 1464.39 L -208.56 1486.46 L -210.09 1508.54 L -211.59 1530.62 L -213.04 1552.70 L -214.45 1574.78 L -215.83 1596.87 L -217.16 1618.96 L -218.45 1641.05 L -219.70 1663.14 L -220.91 1685.24 L -222.08 1707.33 L -223.21 1729.43 L -224.29 1751.54 L -225.34 1773.64 L -193.34 1773.64 L -192.29 1751.54 L -191.21 1729.43 L -190.08 1707.33 L -188.91 1685.24 L -187.70 1663.14 L -186.45 1641.05 L -185.16 1618.96 L -183.83 1596.87 L -182.45 1574.78 L -181.04 1552.70 L -179.59 1530.62 L -178.09 1508.54 L -176.56 1486.46 L -174.98 1464.39 L -173.37 1442.32 L -171.71 1420.26 L -170.01 1398.19 L -168.28 1376.13 L -166.50 1354.07 L -164.68 1332.02 L -162.82 1309.97 L -160.92 1287.92 L -158.98 1265.88 L -156.99 1243.84 L -154.97 1221.80 L -152.91 1199.77 L -150.81 1177.74 L -148.66 1155.72 L -146.48 1133.70 L -144.25 1111.68 L -141.99 1089.67 L -139.68 1067.66 L -137.34 1045.66 L -134.95 1023.66 L -132.52 1001.66 L -130.05 979.67 L -127.54 957.69 L -124.99 935.70 L -122.41 913.73 L -119.78 891.76 L -117.11 869.79 L -114.39 847.83 L -111.64 825.87 L -108.85 803.92 L -106.02 781.97 L -103.15 760.03 L -100.23 738.09 L -97.28 716.16 L -94.29 694.24 L -91.25 672.32 L -88.18 650.40 L -85.06 628.50 L -81.91 606.59 L -78.71 584.70 L -75.48 562.81 L -72.20 540.92 L -68.88 519.04 L -65.53 497.17 L -62.13 475.30 L -58.69 453.44 L -55.22 431.59 L -51.70 409.74 L -48.14 387.90 L -44.54 366.07 L -40.90 344.24 L -37.23 322.42 L -33.51 300.60 L -29.75 278.80 L -25.95 257.00 L -22.11 235.20 L -18.23 213.42 L -14.31 191.64 L -10.35 169.87 L -6.35 148.10 L -2.31 126.35 L 1.77 104.60 L 5.89 82.86 L 10.05 61.12 L 14.24 39.39 Z" fill="#1060d0" fill-opacity="0.25" stroke="#1060d0" stroke-width="1.0" stroke-linejoin="round"/>
<circle cx="-17.75" cy="39.39" r="2.0" fill="#5d4037"/>
<text transform="matrix(1,0,0,-1,-39.8,43.4)" font-family="sans-serif" font-size="11" font-weight="700" fill="#5d4037">C0</text>
<circle cx="14.24" cy="39.39" r="2.0" fill="#5d4037"/>
<text transform="matrix(1,0,0,-1,18.2,43.4)" font-family="sans-serif" font-size="11" font-weight="700" fill="#5d4037">C1</text>
<circle cx="-193.34" cy="1773.64" r="2.0" fill="#5d4037"/>
<text transform="matrix(1,0,0,-1,-187.3,1769.6)" font-family="sans-serif" font-size="11" font-weight="700" fill="#5d4037">C2</text>
<circle cx="-225.34" cy="1773.64" r="2.0" fill="#5d4037"/>
<text transform="matrix(1,0,0,-1,-247.3,1769.6)" font-family="sans-serif" font-size="11" font-weight="700" fill="#5d4037">C3</text>
<line x1="0.00" y1="270.00" x2="-184.62" y2="1773.64" stroke="#c00000" stroke-width="2.550" stroke-linecap="round"/>
<line x1="14.45" y1="313.20" x2="-167.10" y2="1791.78" stroke="#888" stroke-width="2.380" stroke-linecap="round"/>
<line x1="28.81" y1="356.26" x2="-149.66" y2="1809.78" stroke="#888" stroke-width="2.244" stroke-linecap="round"/>
<line x1="43.10" y1="399.21" x2="-132.29" y2="1827.68" stroke="#1060d0" stroke-width="2.159" stroke-linecap="round"/>
<line x1="57.33" y1="442.10" x2="-114.37" y2="1840.48" stroke="#888" stroke-width="2.023" stroke-linecap="round"/>
<line x1="71.50" y1="484.89" x2="-96.51" y2="1853.20" stroke="#888" stroke-width="1.938" stroke-linecap="round"/>
<line x1="85.62" y1="527.62" x2="-78.69" y2="1865.85" stroke="#888" stroke-width="1.853" stroke-linecap="round"/>
<line x1="99.69" y1="570.25" x2="-60.93" y2="1878.41" stroke="#c00000" stroke-width="1.785" stroke-linecap="round"/>
<line x1="113.72" y1="612.82" x2="-42.59" y2="1885.88" stroke="#888" stroke-width="1.700" stroke-linecap="round"/>
<line x1="127.69" y1="655.22" x2="-23.70" y2="1888.20" stroke="#888" stroke-width="1.615" stroke-linecap="round"/>
<line x1="141.62" y1="697.49" x2="-7.31" y2="1910.43" stroke="#1060d0" stroke-width="1.547" stroke-linecap="round"/>
<line x1="155.50" y1="739.58" x2="10.88" y2="1917.42" stroke="#888" stroke-width="1.462" stroke-linecap="round"/>
<line x1="169.86" y1="783.03" x2="34.47" y2="1885.70" stroke="#888" stroke-width="2.700" stroke-linecap="round"/>
<line x1="184.66" y1="827.68" x2="56.04" y2="1875.20" stroke="#888" stroke-width="2.700" stroke-linecap="round"/>
<line x1="199.41" y1="871.95" x2="78.79" y2="1854.34" stroke="#c00000" stroke-width="2.700" stroke-linecap="round"/>
<line x1="214.11" y1="915.79" x2="101.49" y2="1833.00" stroke="#888" stroke-width="2.700" stroke-linecap="round"/>
<line x1="228.67" y1="958.82" x2="123.44" y2="1815.88" stroke="#888" stroke-width="2.499" stroke-linecap="round"/>
<line x1="243.14" y1="1001.11" x2="146.52" y2="1788.01" stroke="#1060d0" stroke-width="2.499" stroke-linecap="round"/>
<line x1="257.57" y1="1042.68" x2="168.34" y2="1769.43" stroke="#888" stroke-width="2.380" stroke-linecap="round"/>
<line x1="271.93" y1="1083.34" x2="190.69" y2="1744.95" stroke="#888" stroke-width="2.244" stroke-linecap="round"/>
<line x1="286.19" y1="1122.89" x2="210.49" y2="1739.39" stroke="#888" stroke-width="2.023" stroke-linecap="round"/>
<line x1="300.38" y1="1161.28" x2="230.84" y2="1727.63" stroke="#c00000" stroke-width="2.023" stroke-linecap="round"/>
<line x1="314.52" y1="1198.45" x2="250.52" y2="1719.71" stroke="#888" stroke-width="1.853" stroke-linecap="round"/>
<line x1="328.57" y1="1234.21" x2="269.49" y2="1715.38" stroke="#888" stroke-width="1.734" stroke-linecap="round"/>
<line x1="342.59" y1="1268.61" x2="287.82" y2="1714.69" stroke="#1060d0" stroke-width="1.734" stroke-linecap="round"/>
<line x1="356.58" y1="1301.60" x2="306.12" y2="1712.58" stroke="#888" stroke-width="1.649" stroke-linecap="round"/>
<line x1="370.52" y1="1333.09" x2="323.75" y2="1714.00" stroke="#888" stroke-width="1.547" stroke-linecap="round"/>
<line x1="384.40" y1="1363.06" x2="341.32" y2="1713.91" stroke="#888" stroke-width="1.462" stroke-linecap="round"/>
<line x1="398.23" y1="1391.55" x2="358.23" y2="1717.35" stroke="#c00000" stroke-width="1.377" stroke-linecap="round"/>
<line x1="412.04" y1="1418.69" x2="375.11" y2="1719.42" stroke="#888" stroke-width="1.377" stroke-linecap="round"/>
<line x1="425.83" y1="1444.52" x2="391.98" y2="1720.17" stroke="#888" stroke-width="1.292" stroke-linecap="round"/>
<line x1="439.59" y1="1469.11" x2="407.59" y2="1729.74" stroke="#1060d0" stroke-width="1.292" stroke-linecap="round"/>
<line x1="453.33" y1="1492.57" x2="424.41" y2="1728.14" stroke="#888" stroke-width="1.207" stroke-linecap="round"/>
<line x1="467.01" y1="1514.93" x2="439.93" y2="1735.48" stroke="#888" stroke-width="1.105" stroke-linecap="round"/>
<line x1="480.66" y1="1536.34" x2="455.43" y2="1741.83" stroke="#888" stroke-width="1.105" stroke-linecap="round"/>
<line x1="494.34" y1="1556.96" x2="470.95" y2="1747.43" stroke="#c00000" stroke-width="1.207" stroke-linecap="round"/>
<line x1="508.02" y1="1576.84" x2="486.48" y2="1752.26" stroke="#888" stroke-width="1.105" stroke-linecap="round"/>
<line x1="521.67" y1="1596.02" x2="501.98" y2="1756.41" stroke="#888" stroke-width="1.105" stroke-linecap="round"/>
<line x1="535.32" y1="1614.60" x2="517.48" y2="1759.94" stroke="#1060d0" stroke-width="1.105" stroke-linecap="round"/>
<line x1="548.94" y1="1632.61" x2="532.94" y2="1762.92" stroke="#888" stroke-width="1.020" stroke-linecap="round"/>
<line x1="562.52" y1="1650.10" x2="547.75" y2="1770.38" stroke="#888" stroke-width="0.935" stroke-linecap="round"/>
<line x1="576.05" y1="1667.12" x2="562.51" y2="1777.39" stroke="#888" stroke-width="0.867" stroke-linecap="round"/>
<line x1="589.55" y1="1683.74" x2="577.24" y2="1783.97" stroke="#c00000" stroke-width="0.816" stroke-linecap="round"/>
<line x1="603.01" y1="1699.98" x2="591.93" y2="1790.21" stroke="#888" stroke-width="0.765" stroke-linecap="round"/>
<line x1="616.45" y1="1715.91" x2="606.60" y2="1796.11" stroke="#888" stroke-width="0.714" stroke-linecap="round"/>
<line x1="629.87" y1="1731.57" x2="621.25" y2="1801.73" stroke="#1060d0" stroke-width="0.714" stroke-linecap="round"/>
<line x1="643.29" y1="1747.00" x2="635.90" y2="1807.15" stroke="#888" stroke-width="0.714" stroke-linecap="round"/>
<circle cx="-181.22" cy="1812.45" r="8.0" fill="#e0a020" fill-opacity="0.30"/>
<line x1="-184.62" y1="1773.64" x2="-181.22" y2="1812.45" stroke="#444" stroke-width="0.6" stroke-linecap="round"/>
<circle cx="-163.69" cy="1830.59" r="8.0" fill="#e0a020" fill-opacity="0.30"/>
<line x1="-167.10" y1="1791.78" x2="-163.69" y2="1830.59" stroke="#444" stroke-width="0.6" stroke-linecap="round"/>
<circle cx="-146.26" cy="1848.59" r="8.0" fill="#e0a020" fill-opacity="0.30"/>
<line x1="-149.66" y1="1809.78" x2="-146.26" y2="1848.59" stroke="#444" stroke-width="0.6" stroke-linecap="round"/>
<circle cx="-128.89" cy="1866.49" r="8.0" fill="#e0a020" fill-opacity="0.30"/>
<line x1="-132.29" y1="1827.68" x2="-128.89" y2="1866.49" stroke="#444" stroke-width="0.6" stroke-linecap="round"/>
<circle cx="-110.97" cy="1879.29" r="8.0" fill="#e0a020" fill-opacity="0.30"/>
<line x1="-114.37" y1="1840.48" x2="-110.97" y2="1879.29" stroke="#444" stroke-width="0.6" stroke-linecap="round"/>
<circle cx="-93.10" cy="1892.01" r="8.0" fill="#e0a020" fill-opacity="0.30"/>
<line x1="-96.51" y1="1853.20" x2="-93.10" y2="1892.01" stroke="#444" stroke-width="0.6" stroke-linecap="round"/>
<circle cx="-75.29" cy="1904.66" r="8.0" fill="#e0a020" fill-opacity="0.30"/>
<line x1="-78.69" y1="1865.85" x2="-75.29" y2="1904.66" stroke="#444" stroke-width="0.6" stroke-linecap="round"/>
<circle cx="-57.53" cy="1917.22" r="8.0" fill="#e0a020" fill-opacity="0.30"/>
<line x1="-60.93" y1="1878.41" x2="-57.53" y2="1917.22" stroke="#444" stroke-width="0.6" stroke-linecap="round"/>
<circle cx="-39.19" cy="1924.69" r="8.0" fill="#e0a020" fill-opacity="0.30"/>
<line x1="-42.59" y1="1885.88" x2="-39.19" y2="1924.69" stroke="#444" stroke-width="0.6" stroke-linecap="round"/>
<circle cx="-20.30" cy="1927.01" r="8.0" fill="#e0a020" fill-opacity="0.30"/>
<line x1="-23.70" y1="1888.20" x2="-20.30" y2="1927.01" stroke="#444" stroke-width="0.6" stroke-linecap="round"/>
<circle cx="-3.91" cy="1949.24" r="8.0" fill="#e0a020" fill-opacity="0.30"/>
<line x1="-7.31" y1="1910.43" x2="-3.91" y2="1949.24" stroke="#444" stroke-width="0.6" stroke-linecap="round"/>
<circle cx="14.28" cy="1956.23" r="8.0" fill="#e0a020" fill-opacity="0.30"/>
<line x1="10.88" y1="1917.42" x2="14.28" y2="1956.23" stroke="#444" stroke-width="0.6" stroke-linecap="round"/>
<circle cx="37.87" cy="1924.51" r="8.0" fill="#e0a020" fill-opacity="0.30"/>
<line x1="34.47" y1="1885.70" x2="37.87" y2="1924.51" stroke="#444" stroke-width="0.6" stroke-linecap="round"/>
<circle cx="59.44" cy="1914.02" r="8.0" fill="#e0a020" fill-opacity="0.30"/>
<line x1="56.04" y1="1875.20" x2="59.44" y2="1914.02" stroke="#444" stroke-width="0.6" stroke-linecap="round"/>
<circle cx="82.19" cy="1893.15" r="8.0" fill="#e0a020" fill-opacity="0.30"/>
<line x1="78.79" y1="1854.34" x2="82.19" y2="1893.15" stroke="#444" stroke-width="0.6" stroke-linecap="round"/>
<circle cx="104.89" cy="1871.81" r="8.0" fill="#e0a020" fill-opacity="0.30"/>
<line x1="101.49" y1="1833.00" x2="104.89" y2="1871.81" stroke="#444" stroke-width="0.6" stroke-linecap="round"/>
<circle cx="126.84" cy="1854.69" r="8.0" fill="#e0a020" fill-opacity="0.30"/>
<line x1="123.44" y1="1815.88" x2="126.84" y2="1854.69" stroke="#444" stroke-width="0.6" stroke-linecap="round"/>
<circle cx="149.92" cy="1826.82" r="8.0" fill="#e0a020" fill-opacity="0.30"/>
<line x1="146.52" y1="1788.01" x2="149.92" y2="1826.82" stroke="#444" stroke-width="0.6" stroke-linecap="round"/>
<circle cx="171.74" cy="1808.24" r="8.0" fill="#e0a020" fill-opacity="0.30"/>
<line x1="168.34" y1="1769.43" x2="171.74" y2="1808.24" stroke="#444" stroke-width="0.6" stroke-linecap="round"/>
<circle cx="194.10" cy="1783.76" r="8.0" fill="#e0a020" fill-opacity="0.30"/>
<line x1="190.69" y1="1744.95" x2="194.10" y2="1783.76" stroke="#444" stroke-width="0.6" stroke-linecap="round"/>
<circle cx="213.90" cy="1778.20" r="8.0" fill="#e0a020" fill-opacity="0.30"/>
<line x1="210.49" y1="1739.39" x2="213.90" y2="1778.20" stroke="#444" stroke-width="0.6" stroke-linecap="round"/>
<circle cx="234.24" cy="1766.44" r="8.0" fill="#e0a020" fill-opacity="0.30"/>
<line x1="230.84" y1="1727.63" x2="234.24" y2="1766.44" stroke="#444" stroke-width="0.6" stroke-linecap="round"/>
<circle cx="253.92" cy="1758.52" r="8.0" fill="#e0a020" fill-opacity="0.30"/>
<line x1="250.52" y1="1719.71" x2="253.92" y2="1758.52" stroke="#444" stroke-width="0.6" stroke-linecap="round"/>
<circle cx="272.89" cy="1754.19" r="8.0" fill="#e0a020" fill-opacity="0.30"/>
<line x1="269.49" y1="1715.38" x2="272.89" y2="1754.19" stroke="#444" stroke-width="0.6" stroke-linecap="round"/>
<circle cx="291.22" cy="1753.50" r="8.0" fill="#e0a020" fill-opacity="0.30"/>
<line x1="287.82" y1="1714.69" x2="291.22" y2="1753.50" stroke="#444" stroke-width="0.6" stroke-linecap="round"/>
<circle cx="309.52" cy="1751.40" r="8.0" fill="#e0a020" fill-opacity="0.30"/>
<line x1="306.12" y1="1712.58" x2="309.52" y2="1751.40" stroke="#444" stroke-width="0.6" stroke-linecap="round"/>
<circle cx="327.15" cy="1752.81" r="8.0" fill="#e0a020" fill-opacity="0.30"/>
<line x1="323.75" y1="1714.00" x2="327.15" y2="1752.81" stroke="#444" stroke-width="0.6" stroke-linecap="round"/>
<circle cx="344.72" cy="1752.73" r="8.0" fill="#e0a020" fill-opacity="0.30"/>
<line x1="341.32" y1="1713.91" x2="344.72" y2="1752.73" stroke="#444" stroke-width="0.6" stroke-linecap="round"/>
<circle cx="361.63" cy="1756.16" r="8.0" fill="#e0a020" fill-opacity="0.30"/>
<line x1="358.23" y1="1717.35" x2="361.63" y2="1756.16" stroke="#444" stroke-width="0.6" stroke-linecap="round"/>
<circle cx="378.52" cy="1758.23" r="8.0" fill="#e0a020" fill-opacity="0.30"/>
<line x1="375.11" y1="1719.42" x2="378.52" y2="1758.23" stroke="#444" stroke-width="0.6" stroke-linecap="round"/>
<circle cx="395.39" cy="1758.98" r="8.0" fill="#e0a020" fill-opacity="0.30"/>
<line x1="391.98" y1="1720.17" x2="395.39" y2="1758.98" stroke="#444" stroke-width="0.6" stroke-linecap="round"/>
<circle cx="410.99" cy="1768.55" r="8.0" fill="#e0a020" fill-opacity="0.30"/>
<line x1="407.59" y1="1729.74" x2="410.99" y2="1768.55" stroke="#444" stroke-width="0.6" stroke-linecap="round"/>
<circle cx="427.81" cy="1766.95" r="8.0" fill="#e0a020" fill-opacity="0.30"/>
<line x1="424.41" y1="1728.14" x2="427.81" y2="1766.95" stroke="#444" stroke-width="0.6" stroke-linecap="round"/>
<circle cx="443.33" cy="1774.29" r="8.0" fill="#e0a020" fill-opacity="0.30"/>
<line x1="439.93" y1="1735.48" x2="443.33" y2="1774.29" stroke="#444" stroke-width="0.6" stroke-linecap="round"/>
<circle cx="458.83" cy="1780.64" r="8.0" fill="#e0a020" fill-opacity="0.30"/>
<line x1="455.43" y1="1741.83" x2="458.83" y2="1780.64" stroke="#444" stroke-width="0.6" stroke-linecap="round"/>
<circle cx="474.36" cy="1786.24" r="8.0" fill="#e0a020" fill-opacity="0.30"/>
<line x1="470.95" y1="1747.43" x2="474.36" y2="1786.24" stroke="#444" stroke-width="0.6" stroke-linecap="round"/>
<circle cx="489.88" cy="1791.07" r="8.0" fill="#e0a020" fill-opacity="0.30"/>
<line x1="486.48" y1="1752.26" x2="489.88" y2="1791.07" stroke="#444" stroke-width="0.6" stroke-linecap="round"/>
<circle cx="505.38" cy="1795.22" r="8.0" fill="#e0a020" fill-opacity="0.30"/>
<line x1="501.98" y1="1756.41" x2="505.38" y2="1795.22" stroke="#444" stroke-width="0.6" stroke-linecap="round"/>
<circle cx="520.88" cy="1798.75" r="8.0" fill="#e0a020" fill-opacity="0.30"/>
<line x1="517.48" y1="1759.94" x2="520.88" y2="1798.75" stroke="#444" stroke-width="0.6" stroke-linecap="round"/>
<circle cx="536.34" cy="1801.74" r="8.0" fill="#e0a020" fill-opacity="0.30"/>
<line x1="532.94" y1="1762.92" x2="536.34" y2="1801.74" stroke="#444" stroke-width="0.6" stroke-linecap="round"/>
<circle cx="551.15" cy="1809.19" r="8.0" fill="#e0a020" fill-opacity="0.30"/>
<line x1="547.75" y1="1770.38" x2="551.15" y2="1809.19" stroke="#444" stroke-width="0.6" stroke-linecap="round"/>
<circle cx="565.91" cy="1816.20" r="8.0" fill="#e0a020" fill-opacity="0.30"/>
<line x1="562.51" y1="1777.39" x2="565.91" y2="1816.20" stroke="#444" stroke-width="0.6" stroke-linecap="round"/>
<circle cx="580.64" cy="1822.78" r="8.0" fill="#e0a020" fill-opacity="0.30"/>
<line x1="577.24" y1="1783.97" x2="580.64" y2="1822.78" stroke="#444" stroke-width="0.6" stroke-linecap="round"/>
<circle cx="595.33" cy="1829.02" r="8.0" fill="#e0a020" fill-opacity="0.30"/>
<line x1="591.93" y1="1790.21" x2="595.33" y2="1829.02" stroke="#444" stroke-width="0.6" stroke-linecap="round"/>
<circle cx="610.01" cy="1834.92" r="8.0" fill="#e0a020" fill-opacity="0.30"/>
<line x1="606.60" y1="1796.11" x2="610.01" y2="1834.92" stroke="#444" stroke-width="0.6" stroke-linecap="round"/>
<circle cx="624.66" cy="1840.54" r="8.0" fill="#e0a020" fill-opacity="0.30"/>
<line x1="621.25" y1="1801.73" x2="624.66" y2="1840.54" stroke="#444" stroke-width="0.6" stroke-linecap="round"/>
<circle cx="639.31" cy="1845.96" r="8.0" fill="#e0a020" fill-opacity="0.30"/>
<line x1="635.90" y1="1807.15" x2="639.31" y2="1845.96" stroke="#444" stroke-width="0.6" stroke-linecap="round"/>
<circle cx="-184.62" cy="1773.64" r="8.0" fill="#c00000" fill-opacity="0.30"/>
<circle cx="-174.26" cy="1689.25" r="8.0" fill="#2ca02c" fill-opacity="0.30"/>
<circle cx="-164.48" cy="1609.59" r="8.0" fill="#1060d0" fill-opacity="0.30"/>
<circle cx="-167.10" cy="1791.78" r="8.0" fill="#c00000" fill-opacity="0.30"/>
<circle cx="-156.91" cy="1708.80" r="8.0" fill="#2ca02c" fill-opacity="0.30"/>
<circle cx="-147.29" cy="1630.47" r="8.0" fill="#1060d0" fill-opacity="0.30"/>
<circle cx="-149.66" cy="1809.78" r="8.0" fill="#c00000" fill-opacity="0.30"/>
<circle cx="-139.64" cy="1728.20" r="8.0" fill="#2ca02c" fill-opacity="0.30"/>
<circle cx="-130.19" cy="1651.20" r="8.0" fill="#1060d0" fill-opacity="0.30"/>
<circle cx="-132.29" cy="1827.68" r="8.0" fill="#c00000" fill-opacity="0.30"/>
<circle cx="-122.45" cy="1747.50" r="8.0" fill="#2ca02c" fill-opacity="0.30"/>
<circle cx="-113.16" cy="1671.83" r="8.0" fill="#1060d0" fill-opacity="0.30"/>
<circle cx="-114.37" cy="1840.48" r="8.0" fill="#c00000" fill-opacity="0.30"/>
<circle cx="-104.73" cy="1762.00" r="8.0" fill="#2ca02c" fill-opacity="0.30"/>
<circle cx="-95.64" cy="1687.92" r="8.0" fill="#1060d0" fill-opacity="0.30"/>
<circle cx="-96.51" cy="1853.20" r="8.0" fill="#c00000" fill-opacity="0.30"/>
<circle cx="-87.08" cy="1776.40" r="8.0" fill="#2ca02c" fill-opacity="0.30"/>
<circle cx="-78.18" cy="1703.92" r="8.0" fill="#1060d0" fill-opacity="0.30"/>
<circle cx="-78.69" cy="1865.85" r="8.0" fill="#c00000" fill-opacity="0.30"/>
<circle cx="-69.47" cy="1790.74" r="8.0" fill="#2ca02c" fill-opacity="0.30"/>
<circle cx="-60.77" cy="1719.85" r="8.0" fill="#1060d0" fill-opacity="0.30"/>
<circle cx="-60.93" cy="1878.41" r="8.0" fill="#c00000" fill-opacity="0.30"/>
<circle cx="-51.92" cy="1804.99" r="8.0" fill="#2ca02c" fill-opacity="0.30"/>
<circle cx="-43.41" cy="1735.69" r="8.0" fill="#1060d0" fill-opacity="0.30"/>
<circle cx="-42.59" cy="1885.88" r="8.0" fill="#c00000" fill-opacity="0.30"/>
<circle cx="-33.82" cy="1814.43" r="8.0" fill="#2ca02c" fill-opacity="0.30"/>
<circle cx="-25.54" cy="1746.99" r="8.0" fill="#1060d0" fill-opacity="0.30"/>
<circle cx="-23.70" cy="1888.20" r="8.0" fill="#c00000" fill-opacity="0.30"/>
<circle cx="-15.20" cy="1818.99" r="8.0" fill="#2ca02c" fill-opacity="0.30"/>
<circle cx="-7.18" cy="1753.68" r="8.0" fill="#1060d0" fill-opacity="0.30"/>
<circle cx="-7.31" cy="1910.43" r="8.0" fill="#c00000" fill-opacity="0.30"/>
<circle cx="1.05" cy="1842.35" r="8.0" fill="#2ca02c" fill-opacity="0.30"/>
<circle cx="8.94" cy="1778.10" r="8.0" fill="#1060d0" fill-opacity="0.30"/>
<circle cx="10.88" cy="1917.42" r="8.0" fill="#c00000" fill-opacity="0.30"/>
<circle cx="19.00" cy="1851.31" r="8.0" fill="#2ca02c" fill-opacity="0.30"/>
<circle cx="26.66" cy="1788.92" r="8.0" fill="#1060d0" fill-opacity="0.30"/>
<circle cx="34.47" cy="1885.70" r="8.0" fill="#c00000" fill-opacity="0.30"/>
<circle cx="42.07" cy="1823.81" r="8.0" fill="#2ca02c" fill-opacity="0.30"/>
<circle cx="49.24" cy="1765.39" r="8.0" fill="#1060d0" fill-opacity="0.30"/>
<circle cx="56.04" cy="1875.20" r="8.0" fill="#c00000" fill-opacity="0.30"/>
<circle cx="63.26" cy="1816.41" r="8.0" fill="#2ca02c" fill-opacity="0.30"/>
<circle cx="70.07" cy="1760.92" r="8.0" fill="#1060d0" fill-opacity="0.30"/>
<circle cx="78.79" cy="1854.34" r="8.0" fill="#c00000" fill-opacity="0.30"/>
<circle cx="85.56" cy="1799.20" r="8.0" fill="#2ca02c" fill-opacity="0.30"/>
<circle cx="91.95" cy="1747.16" r="8.0" fill="#1060d0" fill-opacity="0.30"/>
<circle cx="101.49" cy="1833.00" r="8.0" fill="#c00000" fill-opacity="0.30"/>
<circle cx="107.81" cy="1781.52" r="8.0" fill="#2ca02c" fill-opacity="0.30"/>
<circle cx="113.78" cy="1732.93" r="8.0" fill="#1060d0" fill-opacity="0.30"/>
<circle cx="123.44" cy="1815.88" r="8.0" fill="#c00000" fill-opacity="0.30"/>
<circle cx="129.34" cy="1767.78" r="8.0" fill="#2ca02c" fill-opacity="0.30"/>
<circle cx="134.92" cy="1722.37" r="8.0" fill="#1060d0" fill-opacity="0.30"/>
<circle cx="146.52" cy="1788.01" r="8.0" fill="#c00000" fill-opacity="0.30"/>
<circle cx="151.94" cy="1743.84" r="8.0" fill="#2ca02c" fill-opacity="0.30"/>
<circle cx="157.06" cy="1702.16" r="8.0" fill="#1060d0" fill-opacity="0.30"/>
<circle cx="168.34" cy="1769.43" r="8.0" fill="#c00000" fill-opacity="0.30"/>
<circle cx="173.34" cy="1728.64" r="8.0" fill="#2ca02c" fill-opacity="0.30"/>
<circle cx="178.07" cy="1690.14" r="8.0" fill="#1060d0" fill-opacity="0.30"/>
<circle cx="190.69" cy="1744.95" r="8.0" fill="#c00000" fill-opacity="0.30"/>
<circle cx="195.25" cy="1707.81" r="8.0" fill="#2ca02c" fill-opacity="0.30"/>
<circle cx="199.56" cy="1672.77" r="8.0" fill="#1060d0" fill-opacity="0.30"/>
<circle cx="210.49" cy="1739.39" r="8.0" fill="#c00000" fill-opacity="0.30"/>
<circle cx="214.74" cy="1704.79" r="8.0" fill="#2ca02c" fill-opacity="0.30"/>
<circle cx="218.75" cy="1672.13" r="8.0" fill="#1060d0" fill-opacity="0.30"/>
<circle cx="230.84" cy="1727.63" r="8.0" fill="#c00000" fill-opacity="0.30"/>
<circle cx="234.74" cy="1695.85" r="8.0" fill="#2ca02c" fill-opacity="0.30"/>
<circle cx="238.43" cy="1665.84" r="8.0" fill="#1060d0" fill-opacity="0.30"/>
<circle cx="250.52" cy="1719.71" r="8.0" fill="#c00000" fill-opacity="0.30"/>
<circle cx="254.11" cy="1690.45" r="8.0" fill="#2ca02c" fill-opacity="0.30"/>
<circle cx="257.50" cy="1662.84" r="8.0" fill="#1060d0" fill-opacity="0.30"/>
<circle cx="269.49" cy="1715.38" r="8.0" fill="#c00000" fill-opacity="0.30"/>
<circle cx="272.81" cy="1688.37" r="8.0" fill="#2ca02c" fill-opacity="0.30"/>
<circle cx="275.94" cy="1662.88" r="8.0" fill="#1060d0" fill-opacity="0.30"/>
<circle cx="287.82" cy="1714.69" r="8.0" fill="#c00000" fill-opacity="0.30"/>
<circle cx="290.89" cy="1689.65" r="8.0" fill="#2ca02c" fill-opacity="0.30"/>
<circle cx="293.79" cy="1666.02" r="8.0" fill="#1060d0" fill-opacity="0.30"/>
<circle cx="306.12" cy="1712.58" r="8.0" fill="#c00000" fill-opacity="0.30"/>
<circle cx="308.95" cy="1689.52" r="8.0" fill="#2ca02c" fill-opacity="0.30"/>
<circle cx="311.62" cy="1667.74" r="8.0" fill="#1060d0" fill-opacity="0.30"/>
<circle cx="323.75" cy="1714.00" r="8.0" fill="#c00000" fill-opacity="0.30"/>
<circle cx="326.38" cy="1692.62" r="8.0" fill="#2ca02c" fill-opacity="0.30"/>
<circle cx="328.85" cy="1672.44" r="8.0" fill="#1060d0" fill-opacity="0.30"/>
<circle cx="341.32" cy="1713.91" r="8.0" fill="#c00000" fill-opacity="0.30"/>
<circle cx="343.74" cy="1694.22" r="8.0" fill="#2ca02c" fill-opacity="0.30"/>
<circle cx="346.02" cy="1675.64" r="8.0" fill="#1060d0" fill-opacity="0.30"/>
<circle cx="358.23" cy="1717.35" r="8.0" fill="#c00000" fill-opacity="0.30"/>
<circle cx="360.47" cy="1699.07" r="8.0" fill="#2ca02c" fill-opacity="0.30"/>
<circle cx="362.59" cy="1681.81" r="8.0" fill="#1060d0" fill-opacity="0.30"/>
<circle cx="375.11" cy="1719.42" r="8.0" fill="#c00000" fill-opacity="0.30"/>
<circle cx="377.19" cy="1702.54" r="8.0" fill="#2ca02c" fill-opacity="0.30"/>
<circle cx="379.14" cy="1686.61" r="8.0" fill="#1060d0" fill-opacity="0.30"/>
<circle cx="391.98" cy="1720.17" r="8.0" fill="#c00000" fill-opacity="0.30"/>
<circle cx="393.88" cy="1704.70" r="8.0" fill="#2ca02c" fill-opacity="0.30"/>
<circle cx="395.68" cy="1690.10" r="8.0" fill="#1060d0" fill-opacity="0.30"/>
<circle cx="407.59" cy="1729.74" r="8.0" fill="#c00000" fill-opacity="0.30"/>
<circle cx="409.38" cy="1715.11" r="8.0" fill="#2ca02c" fill-opacity="0.30"/>
<circle cx="411.08" cy="1701.31" r="8.0" fill="#1060d0" fill-opacity="0.30"/>
<circle cx="424.41" cy="1728.14" r="8.0" fill="#c00000" fill-opacity="0.30"/>
<circle cx="426.03" cy="1714.92" r="8.0" fill="#2ca02c" fill-opacity="0.30"/>
<circle cx="427.56" cy="1702.44" r="8.0" fill="#1060d0" fill-opacity="0.30"/>
<circle cx="439.93" cy="1735.48" r="8.0" fill="#c00000" fill-opacity="0.30"/>
<circle cx="441.45" cy="1723.10" r="8.0" fill="#2ca02c" fill-opacity="0.30"/>
<circle cx="442.88" cy="1711.41" r="8.0" fill="#1060d0" fill-opacity="0.30"/>
<circle cx="455.43" cy="1741.83" r="8.0" fill="#c00000" fill-opacity="0.30"/>
<circle cx="456.85" cy="1730.29" r="8.0" fill="#2ca02c" fill-opacity="0.30"/>
<circle cx="458.18" cy="1719.41" r="8.0" fill="#1060d0" fill-opacity="0.30"/>
<circle cx="470.95" cy="1747.43" r="8.0" fill="#c00000" fill-opacity="0.30"/>
<circle cx="472.27" cy="1736.74" r="8.0" fill="#2ca02c" fill-opacity="0.30"/>
<circle cx="473.50" cy="1726.65" r="8.0" fill="#1060d0" fill-opacity="0.30"/>
<circle cx="486.48" cy="1752.26" r="8.0" fill="#c00000" fill-opacity="0.30"/>
<circle cx="487.69" cy="1742.41" r="8.0" fill="#2ca02c" fill-opacity="0.30"/>
<circle cx="488.83" cy="1733.12" r="8.0" fill="#1060d0" fill-opacity="0.30"/>
<circle cx="501.98" cy="1756.41" r="8.0" fill="#c00000" fill-opacity="0.30"/>
<circle cx="503.08" cy="1747.40" r="8.0" fill="#2ca02c" fill-opacity="0.30"/>
<circle cx="504.12" cy="1738.91" r="8.0" fill="#1060d0" fill-opacity="0.30"/>
<circle cx="517.48" cy="1759.94" r="8.0" fill="#c00000" fill-opacity="0.30"/>
<circle cx="518.48" cy="1751.78" r="8.0" fill="#2ca02c" fill-opacity="0.30"/>
<circle cx="519.42" cy="1744.08" r="8.0" fill="#1060d0" fill-opacity="0.30"/>
<circle cx="532.94" cy="1762.92" r="8.0" fill="#c00000" fill-opacity="0.30"/>
<circle cx="533.84" cy="1755.61" r="8.0" fill="#2ca02c" fill-opacity="0.30"/>
<circle cx="534.69" cy="1748.71" r="8.0" fill="#1060d0" fill-opacity="0.30"/>
<circle cx="547.75" cy="1770.38" r="8.0" fill="#c00000" fill-opacity="0.30"/>
<circle cx="548.58" cy="1763.63" r="8.0" fill="#2ca02c" fill-opacity="0.30"/>
<circle cx="549.36" cy="1757.26" r="8.0" fill="#1060d0" fill-opacity="0.30"/>
<circle cx="562.51" cy="1777.39" r="8.0" fill="#c00000" fill-opacity="0.30"/>
<circle cx="563.27" cy="1771.20" r="8.0" fill="#2ca02c" fill-opacity="0.30"/>
<circle cx="563.99" cy="1765.36" r="8.0" fill="#1060d0" fill-opacity="0.30"/>
<circle cx="577.24" cy="1783.97" r="8.0" fill="#c00000" fill-opacity="0.30"/>
<circle cx="577.93" cy="1778.35" r="8.0" fill="#2ca02c" fill-opacity="0.30"/>
<circle cx="578.58" cy="1773.04" r="8.0" fill="#1060d0" fill-opacity="0.30"/>
<circle cx="591.93" cy="1790.21" r="8.0" fill="#c00000" fill-opacity="0.30"/>
<circle cx="592.55" cy="1785.14" r="8.0" fill="#2ca02c" fill-opacity="0.30"/>
<circle cx="593.14" cy="1780.36" r="8.0" fill="#1060d0" fill-opacity="0.30"/>
<circle cx="606.60" cy="1796.11" r="8.0" fill="#c00000" fill-opacity="0.30"/>
<circle cx="607.16" cy="1791.61" r="8.0" fill="#2ca02c" fill-opacity="0.30"/>
<circle cx="607.68" cy="1787.36" r="8.0" fill="#1060d0" fill-opacity="0.30"/>
<circle cx="621.25" cy="1801.73" r="8.0" fill="#c00000" fill-opacity="0.30"/>
<circle cx="621.74" cy="1797.79" r="8.0" fill="#2ca02c" fill-opacity="0.30"/>
<circle cx="622.20" cy="1794.08" r="8.0" fill="#1060d0" fill-opacity="0.30"/>
<circle cx="635.90" cy="1807.15" r="8.0" fill="#c00000" fill-opacity="0.30"/>
<circle cx="636.32" cy="1803.78" r="8.0" fill="#2ca02c" fill-opacity="0.30"/>
<circle cx="636.71" cy="1800.59" r="8.0" fill="#1060d0" fill-opacity="0.30"/>
<path d="M 647.299,1845.506 C 647.525,1849.555 644.69,1853.137 640.699,1853.911 C 629.118,1854.750 619.429,1846.785 605.113,1841.997 C 590.96,1837.265 576.733,1829.635 559.683,1823.455 C 541.942,1817.026 521.303,1811.995 502.876,1804.340 C 472.904,1791.889 440.838,1788.656 409.818,1777.860 C 360.636,1760.744 315.343,1757.540 274.31,1763.403 C 254.244,1766.246 233.91,1772.021 218.571,1787.219 C 201.486,1804.146 183.884,1809.846 176.086,1815.469 C 161.478,1827.779 143.393,1844.238 132.254,1861.738 C 116.897,1885.903 84.167,1894.749 63.932,1921.238 C 51.362,1937.565 31.457,1947.778 16.951,1965.336 C 14.24,1964.363 12.767,1964.220 11.409,1963.702 L -6.778,1956.706 C -7.205,1956.542 -7.618,1956.344 -8.016,1956.119 L -61.63,1924.089 C -61.807,1923.983 -61.98,1923.871 -62.148,1923.752 L -79.916,1911.196 L -79.93,1911.190 L -97.745,1898.543 C -97.743,1898.537 -97.743,1898.532 -97.745,1898.531 L -115.608,1885.813 C -115.611,1885.813 -115.615,1885.813 -115.618,1885.803 L -133.541,1872.997 C -133.932,1872.718 -134.297,1872.404 -134.632,1872.059 L -151.999,1854.160 C -152.0,1854.160 -152.002,1854.160 -152.003,1854.160 L -169.44,1836.166 C -169.443,1836.166 -169.446,1836.156 -169.448,1836.156 L -186.975,1818.012 C -188.249,1816.694 -189.031,1814.978 -189.191,1813.153 L -192.599,1774.341 C -192.65,1773.784 -192.641,1773.223 -192.571,1772.668 L -182.212,1688.274 L -182.212,1688.274 L -172.604,1608.458 C -172.156,1603.958 -165.867,1599.937 -161.362,1600.607 C -161.327,1600.653 -72.547,1712.259 -1.189,1746.417 C 28.542,1760.648 62.461,1758.848 88.335,1739.897 C 109.169,1725.757 134.736,1697.964 153.399,1693.758 C 177.488,1688.330 177.666,1670.473 197.015,1664.439 C 244.548,1649.616 276.896,1654.940 276.897,1654.934 C 276.937,1654.932 276.977,1654.942 277.016,1654.950 L 312.704,1659.813 C 312.943,1659.843 313.18,1659.886 313.414,1659.943 L 347.811,1667.834 C 347.961,1667.866 348.111,1667.905 348.259,1667.950 L 397.916,1682.412 C 398.137,1682.474 398.355,1682.548 398.569,1682.633 L 430.453,1694.978 C 430.549,1695.013 430.643,1695.052 430.743,1695.080 L 477.304,1718.363 L 537.86,1741.358 C 538.015,1741.423 538.166,1741.494 538.314,1741.572 L 640.341,1793.457 C 642.881,1794.746 644.542,1797.290 644.703,1800.134 Z" fill="none" stroke="#0a8" stroke-width="0.8" stroke-dasharray="4,3" opacity="0.85"/>
<circle cx="-225.34" cy="1773.64" r="2.0" fill="#202020"/>
<text transform="matrix(1,0,0,-1,-217.3,1781.6)" font-family="sans-serif" font-size="14" font-weight="700" fill="#202020">N0</text>
<circle cx="-193.34" cy="1773.64" r="2.0" fill="#202020"/>
<text transform="matrix(1,0,0,-1,-185.3,1765.6)" font-family="sans-serif" font-size="14" font-weight="700" fill="#202020">N1</text>
<circle cx="-182.83" cy="1577.71" r="2.0" fill="#202020"/>
<text transform="matrix(1,0,0,-1,-207.8,1569.7)" font-family="sans-serif" font-size="14" font-weight="700" fill="#202020">N2</text>
<circle cx="30.85" cy="1752.95" r="2.0" fill="#202020"/>
<text transform="matrix(1,0,0,-1,36.8,1761.0)" font-family="sans-serif" font-size="14" font-weight="700" fill="#202020">N3</text>
<circle cx="582.21" cy="1765.91" r="2.0" fill="#202020"/>
<text transform="matrix(1,0,0,-1,588.2,1773.9)" font-family="sans-serif" font-size="14" font-weight="700" fill="#202020">N4</text>
<circle cx="660.42" cy="1766.56" r="2.0" fill="#202020"/>
<text transform="matrix(1,0,0,-1,668.4,1776.6)" font-family="sans-serif" font-size="14" font-weight="700" fill="#202020">N5</text>
<circle cx="720.61" cy="1713.86" r="2.0" fill="#202020"/>
<text transform="matrix(1,0,0,-1,726.6,1721.9)" font-family="sans-serif" font-size="14" font-weight="700" fill="#202020">N6</text>
<circle cx="663.01" cy="1862.28" r="2.0" fill="#202020"/>
<text transform="matrix(1,0,0,-1,669.0,1854.3)" font-family="sans-serif" font-size="14" font-weight="700" fill="#202020">N7</text>
<circle cx="214.50" cy="1791.98" r="2.0" fill="#202020"/>
<text transform="matrix(1,0,0,-1,220.5,1800.0)" font-family="sans-serif" font-size="14" font-weight="700" fill="#202020">N8</text>
<circle cx="14.95" cy="1965.34" r="2.0" fill="#202020"/>
<text transform="matrix(1,0,0,-1,21.0,1973.3)" font-family="sans-serif" font-size="14" font-weight="700" fill="#202020">N9</text>
<circle cx="-6.91" cy="244.95" r="2.0" fill="#202020"/>
<text transform="matrix(1,0,0,-1,-28.9,232.9)" font-family="sans-serif" font-size="14" font-weight="700" fill="#202020">B0</text>
<circle cx="392.99" cy="154.48" r="2.0" fill="#202020"/>
<text transform="matrix(1,0,0,-1,401.0,142.5)" font-family="sans-serif" font-size="14" font-weight="700" fill="#202020">B1</text>
<circle cx="720.61" cy="1713.86" r="2.0" fill="#202020"/>
<text transform="matrix(1,0,0,-1,728.6,1703.9)" font-family="sans-serif" font-size="14" font-weight="700" fill="#202020">B2</text>
<circle cx="660.42" cy="1766.56" r="2.0" fill="#202020"/>
<text transform="matrix(1,0,0,-1,642.4,1756.6)" font-family="sans-serif" font-size="14" font-weight="700" fill="#202020">B3</text>
</g>
</svg>