<?xml version="1.0" encoding="UTF-8"?>
<svg xmlns="http://www.w3.org/2000/svg" viewBox="-267.6 -2067.4 535.3 2129.4" width="900" height="3580" font-family="sans-serif" font-size="12">
<rect x="-267.6" y="-2067.4" width="535.3" height="2129.4" fill="#fff"/>
<rect x="-255.6" y="-2027.4" width="511.3" height="2077.4" fill="none" stroke="#ccc" stroke-width="0.6"/>
<text x="-245.6" y="-2039.4" font-family="sans-serif" font-size="22" font-weight="bold" fill="#000">REAR (yz, look -x)</text>
<g transform="scale(1,-1)">
<g transform="scale(-1,1)">
<path d="M 225.63 7.42 L 225.63 22.27 L 225.63 37.11 L 225.63 51.96 L 225.63 66.80 L 225.63 81.65 L 225.63 96.49 L 225.63 111.34 L 225.63 126.18 L 225.63 141.03 L 225.63 155.87 L 225.63 170.72 L 225.63 185.56 L 225.63 200.41 L 225.24 215.25 L 225.06 230.10 L 224.89 244.94 L 224.70 259.79 L 224.50 274.63 L 224.28 289.48 L 224.03 304.32 L 223.75 319.17 L 223.43 334.01 L 223.08 348.86 L 222.70 363.70 L 222.27 378.55 L 221.80 393.39 L 221.29 408.24 L 220.76 423.08 L 220.20 437.93 L 219.60 452.77 L 218.94 467.62 L 218.23 482.46 L 217.47 497.31 L 216.65 512.15 L 216.30 527.00 L 215.35 541.84 L 214.35 556.69 L 213.27 571.53 L 212.12 586.38 L 210.90 601.22 L 209.59 616.07 L 208.21 630.91 L 206.75 645.76 L 205.23 660.61 L 203.66 675.45 L 202.03 690.30 L 201.54 705.14 L 199.86 719.99 L 198.14 734.83 L 196.37 749.68 L 194.57 764.52 L 192.72 779.37 L 191.30 794.21 L 189.38 809.06 L 187.43 823.90 L 185.45 838.75 L 183.45 853.59 L 181.42 868.44 L 179.36 883.28 L 177.28 898.13 L 175.18 912.97 L 173.06 927.82 L 170.92 942.66 L 168.76 957.51 L 168.35 972.35 L 166.18 987.20 L 164.00 1002.04 L 161.79 1016.89 L 159.58 1031.73 L 157.35 1046.58 L 155.11 1061.42 L 153.22 1076.27 L 150.95 1091.11 L 148.67 1105.96 L 146.38 1120.80 L 144.08 1135.65 L 141.77 1150.49 L 139.45 1165.34 L 137.13 1180.18 L 134.79 1195.03 L 132.46 1209.87 L 130.11 1224.72 L 127.77 1239.56 L 125.41 1254.41 L 123.06 1269.25 L 120.69 1284.10 L 118.33 1298.94 L 115.96 1313.79 L 113.60 1328.63 L 111.23 1343.48 L 108.85 1358.32 L 106.48 1373.17 L 104.11 1388.01 L 101.74 1402.86 L 99.37 1417.70 L 97.00 1432.55 L 94.63 1447.39 L 92.26 1462.24 L 89.68 1477.08 L 87.33 1491.93 L 84.98 1506.77 L 82.63 1521.62 L 80.29 1536.46 L 77.09 1551.31 L 74.78 1566.15 L 72.48 1581.00 L 68.84 1595.84 L 66.60 1610.69 L 64.22 1625.53 L 61.93 1640.38 L 59.65 1655.22 L 57.24 1670.07 L 54.99 1684.91 L 52.17 1699.76 L 49.96 1714.60 L 46.85 1729.45 L 44.03 1744.29 L 40.00 1759.14 L -40.00 1759.14 L -44.03 1744.29 L -46.85 1729.45 L -49.96 1714.60 L -52.17 1699.76 L -54.99 1684.91 L -57.24 1670.07 L -59.65 1655.22 L -61.93 1640.38 L -64.22 1625.53 L -66.60 1610.69 L -68.84 1595.84 L -72.48 1581.00 L -74.78 1566.15 L -77.09 1551.31 L -80.29 1536.46 L -82.63 1521.62 L -84.98 1506.77 L -87.33 1491.93 L -89.68 1477.08 L -92.26 1462.24 L -94.63 1447.39 L -97.00 1432.55 L -99.37 1417.70 L -101.74 1402.86 L -104.11 1388.01 L -106.48 1373.17 L -108.85 1358.32 L -111.23 1343.48 L -113.60 1328.63 L -115.96 1313.79 L -118.33 1298.94 L -120.69 1284.10 L -123.06 1269.25 L -125.41 1254.41 L -127.77 1239.56 L -130.11 1224.72 L -132.46 1209.87 L -134.79 1195.03 L -137.13 1180.18 L -139.45 1165.34 L -141.77 1150.49 L -144.08 1135.65 L -146.38 1120.80 L -148.67 1105.96 L -150.95 1091.11 L -153.22 1076.27 L -155.11 1061.42 L -157.35 1046.58 L -159.58 1031.73 L -161.79 1016.89 L -164.00 1002.04 L -166.18 987.20 L -168.35 972.35 L -168.76 957.51 L -170.92 942.66 L -173.06 927.82 L -175.18 912.97 L -177.28 898.13 L -179.36 883.28 L -181.42 868.44 L -183.45 853.59 L -185.45 838.75 L -187.43 823.90 L -189.38 809.06 L -191.30 794.21 L -192.72 779.37 L -194.57 764.52 L -196.37 749.68 L -198.14 734.83 L -199.86 719.99 L -201.54 705.14 L -202.03 690.30 L -203.66 675.45 L -205.23 660.61 L -206.75 645.76 L -208.21 630.91 L -209.59 616.07 L -210.90 601.22 L -212.12 586.38 L -213.27 571.53 L -214.35 556.69 L -215.35 541.84 L -216.30 527.00 L -216.65 512.15 L -217.47 497.31 L -218.23 482.46 L -218.94 467.62 L -219.60 452.77 L -220.20 437.93 L -220.76 423.08 L -221.29 408.24 L -221.80 393.39 L -222.27 378.55 L -222.70 363.70 L -223.08 348.86 L -223.43 334.01 L -223.75 319.17 L -224.03 304.32 L -224.28 289.48 L -224.50 274.63 L -224.70 259.79 L -224.89 244.94 L -225.06 230.10 L -225.24 215.25 L -225.63 200.41 L -225.63 185.56 L -225.63 170.72 L -225.63 155.87 L -225.63 141.03 L -225.63 126.18 L -225.63 111.34 L -225.63 96.49 L -225.63 81.65 L -225.63 66.80 L -225.63 51.96 L -225.63 37.11 L -225.63 22.27 L -225.63 7.42 L 225.63 7.42" fill="#e4d4b5" fill-opacity="0.7" stroke="#222" stroke-width="1.5"/>
<path d="M 0.00 0.00 L 19.83 0.00 L 39.41 0.00 L 58.51 0.00 L 76.90 0.00 L 94.36 0.00 L 110.68 0.00 L 125.69 0.00 L 139.24 0.00 L 151.18 0.00 L 161.42 0.00 L 169.89 0.00 L 176.55 0.00 L 181.37 0.00 L 184.39 0.00 L 185.63 0.00 L 185.19 0.00 L 183.14 0.00 L 179.61 0.00 L 174.73 0.00 L 168.66 0.00 L 161.54 0.00 L 153.55 0.00 L 144.86 0.00 L 135.62 0.00 L 126.01 0.00 L 116.16 0.00 L 106.24 0.00 L 96.35 0.00 L 86.60 0.00 L 77.09 0.00 L 67.89 0.00 L 59.03 0.00 L 50.55 0.00 L 42.46 0.00 L 34.73 0.00 L 27.33 0.00 L 20.23 0.00 L 13.35 0.00 L 6.64 0.00 L 0.00 0.00 L -6.64 0.00 L -13.35 0.00 L -20.23 0.00 L -27.33 0.00 L -34.73 0.00 L -42.46 0.00 L -50.55 0.00 L -59.03 0.00 L -67.89 0.00 L -77.09 0.00 L -86.60 0.00 L -96.35 0.00 L -106.24 0.00 L -116.16 0.00 L -126.01 0.00 L -135.62 0.00 L -144.86 0.00 L -153.55 0.00 L -161.54 0.00 L -168.66 0.00 L -174.73 0.00 L -179.61 0.00 L -183.14 0.00 L -185.19 0.00 L -185.63 0.00 L -184.39 0.00 L -181.37 0.00 L -176.55 0.00 L -169.89 0.00 L -161.42 0.00 L -151.18 0.00 L -139.24 0.00 L -125.69 0.00 L -110.68 0.00 L -94.36 0.00 L -76.90 0.00 L -58.51 0.00 L -39.41 0.00 L -19.83 0.00 L 0.00 0.00" fill="none" stroke="#b8862b" stroke-width="1.0" stroke-dasharray="4,3"/>
<line x1="-255.6" y1="0" x2="255.6" y2="0" stroke="#888" stroke-width="0.6" stroke-dasharray="4,3" opacity="0.7"/>
<line x1="0" y1="270.00" x2="0" y2="1773.64" stroke="#c00000" stroke-width="2.550" opacity="0.6" stroke-linecap="round"/>
<line x1="0" y1="484.89" x2="0" y2="1853.20" stroke="#888" stroke-width="1.938" opacity="0.6" stroke-linecap="round"/>
<line x1="0" y1="697.49" x2="0" y2="1910.43" stroke="#1060d0" stroke-width="1.547" opacity="0.6" stroke-linecap="round"/>
<line x1="0" y1="915.79" x2="0" y2="1833.00" stroke="#888" stroke-width="2.700" opacity="0.6" stroke-linecap="round"/>
<line x1="0" y1="1122.89" x2="0" y2="1739.39" stroke="#888" stroke-width="2.023" opacity="0.6" stroke-linecap="round"/>
<line x1="0" y1="1301.60" x2="0" y2="1712.58" stroke="#888" stroke-width="1.649" opacity="0.6" stroke-linecap="round"/>
<line x1="0" y1="1444.52" x2="0" y2="1720.17" stroke="#888" stroke-width="1.292" opacity="0.6" stroke-linecap="round"/>
<line x1="0" y1="1556.96" x2="0" y2="1747.43" stroke="#c00000" stroke-width="1.207" opacity="0.6" stroke-linecap="round"/>
<line x1="0" y1="1650.10" x2="0" y2="1770.38" stroke="#888" stroke-width="0.935" opacity="0.6" stroke-linecap="round"/>
<line x1="0" y1="1731.57" x2="0" y2="1801.73" stroke="#1060d0" stroke-width="0.714" opacity="0.6" stroke-linecap="round"/>
</g>
</g>
</svg>