<svg xmlns="http://www.w3.org/2000/svg" width="470" height="741" viewBox="0 0 470 741">
  <path d="M 123.33,711.02 C 123.33,691.31 134.88,683.58 145.67,667.09 C 155.71,651.75 162.87,641.04 172.49,625.44 C 181.16,611.38 189.41,597.03 196.95,582.33 C 204.46,567.68 211.28,552.67 217.37,537.39 C 223.46,522.10 228.82,506.52 233.61,490.79 C 238.42,475.00 242.66,459.04 246.61,443.02 C 250.56,426.97 254.23,410.85 257.91,394.74 C 261.58,378.64 265.27,362.55 269.24,346.53 C 273.19,330.53 277.41,314.59 282.06,298.78 C 286.71,282.95 291.79,267.23 297.48,251.74 C 303.18,236.25 309.50,220.96 316.66,206.09 C 323.81,191.25 331.85,176.80 340.92,163.06 C 349.97,149.33 360.12,136.27 371.22,124.14 C 383.57,110.62 393.09,101.85 407.12,90.08 C 422.02,77.57 440.39,74.05 440.39,54.59" fill="none" stroke="purple" stroke-width="0.7"/>
  <path d="M 30.0,711.0 L 30.5,711.0 L 32.0,711.0 L 34.5,711.0 L 37.9,711.0 L 42.1,711.0 L 47.0,711.0 L 52.4,711.0 L 58.3,711.0 L 64.5,711.0 L 70.8,711.0 L 77.2,711.0 L 83.4,711.0 L 89.3,711.0 L 94.9,711.0 L 100.0,711.0 L 104.6,711.0 L 108.7,711.0 L 112.2,711.0 L 115.1,711.0 L 117.5,711.0 L 119.4,711.0 L 120.8,711.0 L 121.8,711.0 L 122.5,711.0 L 122.9,711.0 L 123.2,711.0 L 123.3,711.0 L 123.3,711.0 L 123.3,711.0 L 123.3,711.0 L 123.3,711.0 L 123.3,711.0 L 123.3,711.0 L 123.2,711.0 L 122.9,711.0 L 122.5,711.0 L 121.8,711.0 L 120.8,711.0 L 119.4,711.0 L 117.5,711.0 L 115.1,711.0 L 112.2,711.0 L 108.7,711.0 L 104.6,711.0 L 100.0,711.0 L 94.9,711.0 L 89.3,711.0 L 83.4,711.0 L 77.2,711.0 L 70.8,711.0 L 64.5,711.0 L 58.3,711.0 L 52.4,711.0 L 47.0,711.0 L 42.1,711.0 L 37.9,711.0 L 34.5,711.0 L 32.0,711.0 L 30.5,711.0 L 30.0,711.0" fill="none" stroke="purple" stroke-width="0.6"/>
  <path d="M 413.7,54.6 L 413.9,54.6 L 414.3,54.6 L 415.0,54.6 L 416.0,54.6 L 417.2,54.6 L 418.6,54.6 L 420.1,54.6 L 421.8,54.6 L 423.6,54.6 L 425.4,54.6 L 427.2,54.6 L 429.0,54.6 L 430.7,54.6 L 432.3,54.6 L 433.7,54.6 L 435.0,54.6 L 436.2,54.6 L 437.2,54.6 L 438.0,54.6 L 438.7,54.6 L 439.3,54.6 L 439.7,54.6 L 439.9,54.6 L 440.1,54.6 L 440.3,54.6 L 440.3,54.6 L 440.4,54.6 L 440.4,54.6 L 440.4,54.6 L 440.4,54.6 L 440.4,54.6 L 440.4,54.6 L 440.4,54.6 L 440.3,54.6 L 440.3,54.6 L 440.1,54.6 L 439.9,54.6 L 439.7,54.6 L 439.3,54.6 L 438.7,54.6 L 438.0,54.6 L 437.2,54.6 L 436.2,54.6 L 435.0,54.6 L 433.7,54.6 L 432.3,54.6 L 430.7,54.6 L 429.0,54.6 L 427.2,54.6 L 425.4,54.6 L 423.6,54.6 L 421.8,54.6 L 420.1,54.6 L 418.6,54.6 L 417.2,54.6 L 416.0,54.6 L 415.0,54.6 L 414.3,54.6 L 413.9,54.6 L 413.7,54.6" fill="none" stroke="purple" stroke-width="0.6"/>
  <path d="M 78.7,608.2 L 79.1,608.5 L 80.2,609.4 L 82.0,610.8 L 84.5,612.7 L 87.6,615.2 L 91.2,618.0 L 95.2,621.1 L 99.6,624.5 L 104.1,628.1 L 108.8,631.8 L 113.4,635.4 L 118.0,639.0 L 122.3,642.4 L 126.4,645.6 L 130.2,648.6 L 133.6,651.3 L 136.6,653.6 L 139.2,655.6 L 141.4,657.3 L 143.1,658.7 L 144.5,659.8 L 145.5,660.6 L 146.3,661.2 L 146.8,661.6 L 147.1,661.8 L 147.3,662.0 L 147.4,662.0 L 147.4,662.1 L 147.4,662.1 L 147.4,662.1 L 147.4,662.1 L 147.4,662.1 L 147.4,662.0 L 147.3,662.0 L 147.1,661.8 L 146.8,661.6 L 146.3,661.2 L 145.5,660.6 L 144.5,659.8 L 143.1,658.7 L 141.4,657.3 L 139.2,655.6 L 136.6,653.6 L 133.6,651.3 L 130.2,648.6 L 126.4,645.6 L 122.3,642.4 L 118.0,639.0 L 113.4,635.4 L 108.8,631.8 L 104.1,628.1 L 99.6,624.5 L 95.2,621.1 L 91.2,618.0 L 87.6,615.2 L 84.5,612.7 L 82.0,610.8 L 80.2,609.4 L 79.1,608.5 L 78.7,608.2" fill="none" stroke="purple" stroke-width="0.4" opacity="0.5"/>
  <path d="M 121.5,557.1 L 121.8,557.4 L 122.9,558.0 L 124.7,559.1 L 127.2,560.5 L 130.3,562.3 L 133.8,564.4 L 137.8,566.7 L 142.1,569.3 L 146.6,571.9 L 151.2,574.6 L 155.8,577.3 L 160.3,580.0 L 164.6,582.5 L 168.7,584.9 L 172.4,587.1 L 175.8,589.1 L 178.8,590.8 L 181.3,592.3 L 183.4,593.6 L 185.2,594.6 L 186.5,595.4 L 187.6,596.0 L 188.3,596.5 L 188.8,596.8 L 189.1,596.9 L 189.3,597.0 L 189.4,597.1 L 189.4,597.1 L 189.4,597.1 L 189.4,597.1 L 189.4,597.1 L 189.4,597.1 L 189.4,597.1 L 189.3,597.0 L 189.1,596.9 L 188.8,596.8 L 188.3,596.5 L 187.6,596.0 L 186.5,595.4 L 185.2,594.6 L 183.4,593.6 L 181.3,592.3 L 178.8,590.8 L 175.8,589.1 L 172.4,587.1 L 168.7,584.9 L 164.6,582.5 L 160.3,580.0 L 155.8,577.3 L 151.2,574.6 L 146.6,571.9 L 142.1,569.3 L 137.8,566.7 L 133.8,564.4 L 130.3,562.3 L 127.2,560.5 L 124.7,559.1 L 122.9,558.0 L 121.8,557.4 L 121.5,557.1" fill="none" stroke="purple" stroke-width="0.4" opacity="0.5"/>
  <path d="M 164.3,475.9 L 164.7,476.0 L 165.8,476.4 L 167.5,477.0 L 170.0,477.8 L 173.0,478.7 L 176.5,479.9 L 180.4,481.2 L 184.6,482.6 L 189.1,484.0 L 193.6,485.5 L 198.1,487.0 L 202.6,488.5 L 206.8,489.9 L 210.8,491.2 L 214.5,492.4 L 217.8,493.5 L 220.7,494.5 L 223.2,495.3 L 225.3,496.0 L 227.0,496.6 L 228.4,497.0 L 229.4,497.3 L 230.1,497.6 L 230.6,497.7 L 230.9,497.8 L 231.1,497.9 L 231.2,497.9 L 231.2,497.9 L 231.2,497.9 L 231.2,497.9 L 231.2,497.9 L 231.2,497.9 L 231.2,497.9 L 231.1,497.9 L 230.9,497.8 L 230.6,497.7 L 230.1,497.6 L 229.4,497.3 L 228.4,497.0 L 227.0,496.6 L 225.3,496.0 L 223.2,495.3 L 220.7,494.5 L 217.8,493.5 L 214.5,492.4 L 210.8,491.2 L 206.8,489.9 L 202.6,488.5 L 198.1,487.0 L 193.6,485.5 L 189.1,484.0 L 184.6,482.6 L 180.4,481.2 L 176.5,479.9 L 173.0,478.7 L 170.0,477.8 L 167.5,477.0 L 165.8,476.4 L 164.7,476.0 L 164.3,475.9" fill="none" stroke="purple" stroke-width="0.4" opacity="0.5"/>
  <path d="M 209.2,329.4 L 209.5,329.5 L 210.5,329.8 L 212.1,330.2 L 214.3,330.8 L 217.0,331.5 L 220.2,332.3 L 223.7,333.2 L 227.5,334.2 L 231.5,335.3 L 235.6,336.3 L 239.7,337.4 L 243.7,338.5 L 247.6,339.5 L 251.2,340.4 L 254.5,341.3 L 257.5,342.1 L 260.1,342.8 L 262.4,343.4 L 264.3,343.8 L 265.8,344.2 L 267.0,344.6 L 268.0,344.8 L 268.6,345.0 L 269.1,345.1 L 269.3,345.2 L 269.5,345.2 L 269.6,345.2 L 269.6,345.2 L 269.6,345.2 L 269.6,345.2 L 269.6,345.2 L 269.6,345.2 L 269.6,345.2 L 269.5,345.2 L 269.3,345.2 L 269.1,345.1 L 268.6,345.0 L 268.0,344.8 L 267.0,344.6 L 265.8,344.2 L 264.3,343.8 L 262.4,343.4 L 260.1,342.8 L 257.5,342.1 L 254.5,341.3 L 251.2,340.4 L 247.6,339.5 L 243.7,338.5 L 239.7,337.4 L 235.6,336.3 L 231.5,335.3 L 227.5,334.2 L 223.7,333.2 L 220.2,332.3 L 217.0,331.5 L 214.3,330.8 L 212.1,330.2 L 210.5,329.8 L 209.5,329.5 L 209.2,329.4" fill="none" stroke="purple" stroke-width="0.4" opacity="0.5"/>
  <path d="M 252.6,215.0 L 252.9,215.1 L 253.7,215.4 L 255.1,216.0 L 256.9,216.8 L 259.2,217.8 L 261.9,218.9 L 264.9,220.2 L 268.1,221.5 L 271.4,223.0 L 274.9,224.4 L 278.3,225.9 L 281.7,227.3 L 284.9,228.7 L 288.0,230.0 L 290.8,231.2 L 293.3,232.2 L 295.5,233.2 L 297.4,234.0 L 299.0,234.7 L 300.3,235.2 L 301.3,235.6 L 302.1,236.0 L 302.6,236.2 L 303.0,236.4 L 303.2,236.5 L 303.4,236.5 L 303.4,236.5 L 303.5,236.6 L 303.5,236.6 L 303.5,236.6 L 303.5,236.6 L 303.5,236.6 L 303.4,236.5 L 303.4,236.5 L 303.2,236.5 L 303.0,236.4 L 302.6,236.2 L 302.1,236.0 L 301.3,235.6 L 300.3,235.2 L 299.0,234.7 L 297.4,234.0 L 295.5,233.2 L 293.3,232.2 L 290.8,231.2 L 288.0,230.0 L 284.9,228.7 L 281.7,227.3 L 278.3,225.9 L 274.9,224.4 L 271.4,223.0 L 268.1,221.5 L 264.9,220.2 L 261.9,218.9 L 259.2,217.8 L 256.9,216.8 L 255.1,216.0 L 253.7,215.4 L 252.9,215.1 L 252.6,215.0" fill="none" stroke="purple" stroke-width="0.4" opacity="0.5"/>
  <path d="M 294.6,145.3 L 294.8,145.5 L 295.5,145.9 L 296.6,146.6 L 298.0,147.6 L 299.9,148.8 L 302.0,150.1 L 304.4,151.7 L 306.9,153.3 L 309.6,155.1 L 312.4,156.9 L 315.1,158.7 L 317.8,160.4 L 320.4,162.1 L 322.8,163.7 L 325.0,165.1 L 327.0,166.4 L 328.8,167.6 L 330.3,168.6 L 331.6,169.4 L 332.6,170.1 L 333.4,170.6 L 334.1,171.0 L 334.5,171.3 L 334.8,171.5 L 335.0,171.6 L 335.1,171.7 L 335.1,171.7 L 335.2,171.7 L 335.2,171.7 L 335.2,171.7 L 335.2,171.7 L 335.2,171.7 L 335.1,171.7 L 335.1,171.7 L 335.0,171.6 L 334.8,171.5 L 334.5,171.3 L 334.1,171.0 L 333.4,170.6 L 332.6,170.1 L 331.6,169.4 L 330.3,168.6 L 328.8,167.6 L 327.0,166.4 L 325.0,165.1 L 322.8,163.7 L 320.4,162.1 L 317.8,160.4 L 315.1,158.7 L 312.4,156.9 L 309.6,155.1 L 306.9,153.3 L 304.4,151.7 L 302.0,150.1 L 299.9,148.8 L 298.0,147.6 L 296.6,146.6 L 295.5,145.9 L 294.8,145.5 L 294.6,145.3" fill="none" stroke="purple" stroke-width="0.4" opacity="0.5"/>
  <path d="M 334.2,102.5 L 334.4,102.7 L 334.9,103.1 L 335.7,103.9 L 336.8,104.9 L 338.2,106.1 L 339.9,107.6 L 341.7,109.3 L 343.6,111.0 L 345.7,112.9 L 347.8,114.8 L 349.9,116.7 L 352.0,118.5 L 354.0,120.3 L 355.8,122.0 L 357.5,123.5 L 359.1,124.9 L 360.4,126.2 L 361.6,127.2 L 362.6,128.1 L 363.4,128.8 L 364.0,129.4 L 364.5,129.8 L 364.8,130.1 L 365.0,130.3 L 365.2,130.4 L 365.3,130.5 L 365.3,130.5 L 365.3,130.6 L 365.3,130.6 L 365.3,130.6 L 365.3,130.6 L 365.3,130.6 L 365.3,130.5 L 365.3,130.5 L 365.2,130.4 L 365.0,130.3 L 364.8,130.1 L 364.5,129.8 L 364.0,129.4 L 363.4,128.8 L 362.6,128.1 L 361.6,127.2 L 360.4,126.2 L 359.1,124.9 L 357.5,123.5 L 355.8,122.0 L 354.0,120.3 L 352.0,118.5 L 349.9,116.7 L 347.8,114.8 L 345.7,112.9 L 343.6,111.0 L 341.7,109.3 L 339.9,107.6 L 338.2,106.1 L 336.8,104.9 L 335.7,103.9 L 334.9,103.1 L 334.4,102.7 L 334.2,102.5" fill="none" stroke="purple" stroke-width="0.4" opacity="0.5"/>
  <path d="M 372.6,72.8 L 372.7,72.9 L 373.1,73.4 L 373.6,74.1 L 374.4,75.2 L 375.4,76.4 L 376.5,77.9 L 377.8,79.6 L 379.2,81.3 L 380.6,83.2 L 382.1,85.1 L 383.6,87.0 L 385.0,88.9 L 386.4,90.7 L 387.7,92.4 L 388.9,93.9 L 390.0,95.3 L 390.9,96.6 L 391.7,97.6 L 392.4,98.5 L 393.0,99.2 L 393.4,99.8 L 393.7,100.2 L 394.0,100.5 L 394.1,100.7 L 394.2,100.9 L 394.3,101.0 L 394.3,101.0 L 394.3,101.0 L 394.3,101.0 L 394.3,101.0 L 394.3,101.0 L 394.3,101.0 L 394.3,101.0 L 394.3,101.0 L 394.2,100.9 L 394.1,100.7 L 394.0,100.5 L 393.7,100.2 L 393.4,99.8 L 393.0,99.2 L 392.4,98.5 L 391.7,97.6 L 390.9,96.6 L 390.0,95.3 L 388.9,93.9 L 387.7,92.4 L 386.4,90.7 L 385.0,88.9 L 383.6,87.0 L 382.1,85.1 L 380.6,83.2 L 379.2,81.3 L 377.8,79.6 L 376.5,77.9 L 375.4,76.4 L 374.4,75.2 L 373.6,74.1 L 373.1,73.4 L 372.7,72.9 L 372.6,72.8" fill="none" stroke="purple" stroke-width="0.4" opacity="0.5"/>
  <line x1="130.0" y1="52.2" x2="130.0" y2="648.6" stroke="#666" stroke-width="0.5"/>
  <line x1="137.1" y1="53.7" x2="137.1" y2="640.2" stroke="#0044cc" stroke-width="0.5"/>
  <line x1="144.1" y1="53.7" x2="144.1" y2="630.3" stroke="#666" stroke-width="0.5"/>
  <line x1="151.2" y1="53.5" x2="151.2" y2="620.1" stroke="#666" stroke-width="0.5"/>
  <line x1="158.2" y1="55.1" x2="158.2" y2="609.7" stroke="#cc0000" stroke-width="0.5"/>
  <line x1="165.3" y1="56.2" x2="165.3" y2="598.9" stroke="#666" stroke-width="0.5"/>
  <line x1="172.4" y1="56.3" x2="172.4" y2="587.1" stroke="#666" stroke-width="0.5"/>
  <line x1="179.4" y1="55.9" x2="179.4" y2="574.8" stroke="#666" stroke-width="0.5"/>
  <line x1="186.5" y1="56.4" x2="186.5" y2="561.4" stroke="#0044cc" stroke-width="0.5"/>
  <line x1="193.6" y1="57.5" x2="193.6" y2="546.5" stroke="#666" stroke-width="0.5"/>
  <line x1="200.6" y1="49.1" x2="200.6" y2="530.2" stroke="#666" stroke-width="0.5"/>
  <line x1="207.7" y1="44.7" x2="207.7" y2="511.9" stroke="#cc0000" stroke-width="0.5"/>
  <line x1="214.5" y1="55.0" x2="214.5" y2="492.4" stroke="#666" stroke-width="0.5"/>
  <line x1="221.4" y1="54.6" x2="221.4" y2="470.1" stroke="#666" stroke-width="0.5"/>
  <line x1="228.3" y1="56.1" x2="228.3" y2="445.8" stroke="#666" stroke-width="0.5"/>
  <line x1="235.1" y1="55.7" x2="235.1" y2="419.6" stroke="#0044cc" stroke-width="0.5"/>
  <line x1="241.6" y1="53.2" x2="241.6" y2="393.2" stroke="#666" stroke-width="0.5"/>
  <line x1="248.0" y1="54.6" x2="248.0" y2="366.8" stroke="#666" stroke-width="0.5"/>
  <line x1="254.5" y1="53.0" x2="254.5" y2="341.3" stroke="#cc0000" stroke-width="0.5"/>
  <line x1="260.6" y1="56.6" x2="260.6" y2="319.0" stroke="#666" stroke-width="0.5"/>
  <line x1="266.6" y1="53.7" x2="266.6" y2="298.3" stroke="#666" stroke-width="0.5"/>
  <line x1="272.6" y1="54.8" x2="272.6" y2="279.4" stroke="#666" stroke-width="0.5"/>
  <line x1="278.7" y1="55.3" x2="278.7" y2="262.0" stroke="#0044cc" stroke-width="0.5"/>
  <line x1="284.8" y1="55.2" x2="284.8" y2="246.1" stroke="#666" stroke-width="0.5"/>
  <line x1="290.8" y1="54.2" x2="290.8" y2="231.2" stroke="#666" stroke-width="0.5"/>
  <line x1="296.9" y1="54.2" x2="296.9" y2="217.3" stroke="#cc0000" stroke-width="0.5"/>
  <line x1="302.5" y1="54.1" x2="302.5" y2="205.2" stroke="#666" stroke-width="0.5"/>
  <line x1="308.2" y1="55.0" x2="308.2" y2="194.1" stroke="#666" stroke-width="0.5"/>
  <line x1="313.8" y1="54.4" x2="313.8" y2="183.6" stroke="#666" stroke-width="0.5"/>
  <line x1="319.5" y1="54.8" x2="319.5" y2="174.1" stroke="#0044cc" stroke-width="0.5"/>
  <line x1="325.1" y1="55.8" x2="325.1" y2="165.1" stroke="#666" stroke-width="0.5"/>
  <line x1="330.8" y1="53.4" x2="330.8" y2="156.7" stroke="#666" stroke-width="0.5"/>
  <line x1="336.4" y1="55.5" x2="336.4" y2="149.0" stroke="#cc0000" stroke-width="0.5"/>
  <line x1="341.7" y1="54.6" x2="341.7" y2="142.1" stroke="#666" stroke-width="0.5"/>
  <line x1="346.9" y1="54.2" x2="346.9" y2="135.7" stroke="#666" stroke-width="0.5"/>
  <line x1="352.2" y1="54.2" x2="352.2" y2="129.7" stroke="#666" stroke-width="0.5"/>
  <line x1="357.4" y1="54.0" x2="357.4" y2="123.5" stroke="#0044cc" stroke-width="0.5"/>
  <line x1="362.6" y1="54.5" x2="362.6" y2="118.1" stroke="#666" stroke-width="0.5"/>
  <line x1="367.9" y1="54.9" x2="367.9" y2="112.5" stroke="#666" stroke-width="0.5"/>
  <line x1="373.1" y1="55.7" x2="373.1" y2="107.4" stroke="#cc0000" stroke-width="0.5"/>
  <line x1="378.4" y1="55.0" x2="378.4" y2="102.7" stroke="#666" stroke-width="0.5"/>
  <line x1="383.6" y1="54.5" x2="383.6" y2="98.2" stroke="#666" stroke-width="0.5"/>
  <line x1="388.9" y1="54.2" x2="388.9" y2="93.9" stroke="#666" stroke-width="0.5"/>
  <line x1="394.1" y1="54.6" x2="394.1" y2="90.4" stroke="#0044cc" stroke-width="0.5"/>
  <line x1="399.4" y1="55.3" x2="399.4" y2="87.1" stroke="#666" stroke-width="0.5"/>
  <line x1="404.6" y1="56.7" x2="404.6" y2="84.5" stroke="#666" stroke-width="0.5"/>
  <line x1="409.9" y1="57.7" x2="409.9" y2="81.6" stroke="#cc0000" stroke-width="0.5"/>
  <line x1="130.0" y1="52.2" x2="133.1" y2="37.5" stroke="#666" stroke-width="0.5"/>
  <line x1="137.1" y1="53.7" x2="140.2" y2="39.0" stroke="#0044cc" stroke-width="0.5"/>
  <line x1="144.1" y1="53.7" x2="147.2" y2="39.1" stroke="#666" stroke-width="0.5"/>
  <line x1="151.2" y1="53.5" x2="154.3" y2="38.8" stroke="#666" stroke-width="0.5"/>
  <line x1="158.2" y1="55.1" x2="161.4" y2="40.4" stroke="#cc0000" stroke-width="0.5"/>
  <line x1="165.3" y1="56.2" x2="168.4" y2="41.5" stroke="#666" stroke-width="0.5"/>
  <line x1="172.4" y1="56.3" x2="175.5" y2="41.6" stroke="#666" stroke-width="0.5"/>
  <line x1="179.4" y1="55.9" x2="182.5" y2="41.2" stroke="#666" stroke-width="0.5"/>
  <line x1="186.5" y1="56.4" x2="189.6" y2="41.8" stroke="#0044cc" stroke-width="0.5"/>
  <line x1="193.6" y1="57.5" x2="196.7" y2="42.8" stroke="#666" stroke-width="0.5"/>
  <line x1="200.6" y1="49.1" x2="203.7" y2="34.4" stroke="#666" stroke-width="0.5"/>
  <line x1="207.7" y1="44.7" x2="210.8" y2="30.0" stroke="#cc0000" stroke-width="0.5"/>
  <line x1="214.5" y1="55.0" x2="217.7" y2="40.4" stroke="#666" stroke-width="0.5"/>
  <line x1="221.4" y1="54.6" x2="224.5" y2="39.9" stroke="#666" stroke-width="0.5"/>
  <line x1="228.3" y1="56.1" x2="231.4" y2="41.5" stroke="#666" stroke-width="0.5"/>
  <line x1="235.1" y1="55.7" x2="238.2" y2="41.1" stroke="#0044cc" stroke-width="0.5"/>
  <line x1="241.6" y1="53.2" x2="244.7" y2="38.5" stroke="#666" stroke-width="0.5"/>
  <line x1="248.0" y1="54.6" x2="251.2" y2="40.0" stroke="#666" stroke-width="0.5"/>
  <line x1="254.5" y1="53.0" x2="257.6" y2="38.3" stroke="#cc0000" stroke-width="0.5"/>
  <line x1="260.6" y1="56.6" x2="263.7" y2="41.9" stroke="#666" stroke-width="0.5"/>
  <line x1="266.6" y1="53.7" x2="269.7" y2="39.1" stroke="#666" stroke-width="0.5"/>
  <line x1="272.6" y1="54.8" x2="275.8" y2="40.1" stroke="#666" stroke-width="0.5"/>
  <line x1="278.7" y1="55.3" x2="281.8" y2="40.6" stroke="#0044cc" stroke-width="0.5"/>
  <line x1="284.8" y1="55.2" x2="287.9" y2="40.5" stroke="#666" stroke-width="0.5"/>
  <line x1="290.8" y1="54.2" x2="293.9" y2="39.6" stroke="#666" stroke-width="0.5"/>
  <line x1="296.9" y1="54.2" x2="300.0" y2="39.6" stroke="#cc0000" stroke-width="0.5"/>
  <line x1="302.5" y1="54.1" x2="305.6" y2="39.4" stroke="#666" stroke-width="0.5"/>
  <line x1="308.2" y1="55.0" x2="311.3" y2="40.3" stroke="#666" stroke-width="0.5"/>
  <line x1="313.8" y1="54.4" x2="316.9" y2="39.7" stroke="#666" stroke-width="0.5"/>
  <line x1="319.5" y1="54.8" x2="322.6" y2="40.1" stroke="#0044cc" stroke-width="0.5"/>
  <line x1="325.1" y1="55.8" x2="328.2" y2="41.1" stroke="#666" stroke-width="0.5"/>
  <line x1="330.8" y1="53.4" x2="333.9" y2="38.7" stroke="#666" stroke-width="0.5"/>
  <line x1="336.4" y1="55.5" x2="339.5" y2="40.9" stroke="#cc0000" stroke-width="0.5"/>
  <line x1="341.7" y1="54.6" x2="344.8" y2="39.9" stroke="#666" stroke-width="0.5"/>
  <line x1="346.9" y1="54.2" x2="350.0" y2="39.5" stroke="#666" stroke-width="0.5"/>
  <line x1="352.2" y1="54.2" x2="355.3" y2="39.5" stroke="#666" stroke-width="0.5"/>
  <line x1="357.4" y1="54.0" x2="360.5" y2="39.3" stroke="#0044cc" stroke-width="0.5"/>
  <line x1="362.6" y1="54.5" x2="365.8" y2="39.8" stroke="#666" stroke-width="0.5"/>
  <line x1="367.9" y1="54.9" x2="371.0" y2="40.2" stroke="#666" stroke-width="0.5"/>
  <line x1="373.1" y1="55.7" x2="376.2" y2="41.0" stroke="#cc0000" stroke-width="0.5"/>
  <line x1="378.4" y1="55.0" x2="381.5" y2="40.4" stroke="#666" stroke-width="0.5"/>
  <line x1="383.6" y1="54.5" x2="386.7" y2="39.8" stroke="#666" stroke-width="0.5"/>
  <line x1="388.9" y1="54.2" x2="392.0" y2="39.5" stroke="#666" stroke-width="0.5"/>
  <line x1="394.1" y1="54.6" x2="397.2" y2="40.0" stroke="#0044cc" stroke-width="0.5"/>
  <line x1="399.4" y1="55.3" x2="402.5" y2="40.6" stroke="#666" stroke-width="0.5"/>
  <line x1="404.6" y1="56.7" x2="407.7" y2="42.0" stroke="#666" stroke-width="0.5"/>
  <line x1="409.9" y1="57.7" x2="413.0" y2="43.0" stroke="#cc0000" stroke-width="0.5"/>
  <circle cx="130.0" cy="85.7" r="0.7" fill="#00aa00"/>
  <circle cx="130.0" cy="117.2" r="0.7" fill="#8800aa"/>
  <circle cx="130.0" cy="648.6" r="0.7" fill="#ddaa00"/>
  <circle cx="137.1" cy="86.6" r="0.7" fill="#00aa00"/>
  <circle cx="137.1" cy="117.7" r="0.7" fill="#8800aa"/>
  <circle cx="137.1" cy="640.2" r="0.7" fill="#ddaa00"/>
  <circle cx="144.1" cy="86.1" r="0.7" fill="#00aa00"/>
  <circle cx="144.1" cy="116.6" r="0.7" fill="#8800aa"/>
  <circle cx="144.1" cy="630.3" r="0.7" fill="#ddaa00"/>
  <circle cx="151.2" cy="85.3" r="0.7" fill="#00aa00"/>
  <circle cx="151.2" cy="115.3" r="0.7" fill="#8800aa"/>
  <circle cx="151.2" cy="620.1" r="0.7" fill="#ddaa00"/>
  <circle cx="158.2" cy="86.2" r="0.7" fill="#00aa00"/>
  <circle cx="158.2" cy="115.6" r="0.7" fill="#8800aa"/>
  <circle cx="158.2" cy="609.7" r="0.7" fill="#ddaa00"/>
  <circle cx="165.3" cy="86.6" r="0.7" fill="#00aa00"/>
  <circle cx="165.3" cy="115.4" r="0.7" fill="#8800aa"/>
  <circle cx="165.3" cy="598.9" r="0.7" fill="#ddaa00"/>
  <circle cx="172.4" cy="86.1" r="0.7" fill="#00aa00"/>
  <circle cx="172.4" cy="114.2" r="0.7" fill="#8800aa"/>
  <circle cx="172.4" cy="587.1" r="0.7" fill="#ddaa00"/>
  <circle cx="179.4" cy="85.0" r="0.7" fill="#00aa00"/>
  <circle cx="179.4" cy="112.5" r="0.7" fill="#8800aa"/>
  <circle cx="179.4" cy="574.8" r="0.7" fill="#ddaa00"/>
  <circle cx="186.5" cy="84.8" r="0.7" fill="#00aa00"/>
  <circle cx="186.5" cy="111.5" r="0.7" fill="#8800aa"/>
  <circle cx="186.5" cy="561.4" r="0.7" fill="#ddaa00"/>
  <circle cx="193.6" cy="84.9" r="0.7" fill="#00aa00"/>
  <circle cx="193.6" cy="110.8" r="0.7" fill="#8800aa"/>
  <circle cx="193.6" cy="546.5" r="0.7" fill="#ddaa00"/>
  <circle cx="200.6" cy="76.1" r="0.7" fill="#00aa00"/>
  <circle cx="200.6" cy="101.6" r="0.7" fill="#8800aa"/>
  <circle cx="200.6" cy="530.2" r="0.7" fill="#ddaa00"/>
  <circle cx="207.7" cy="70.9" r="0.7" fill="#00aa00"/>
  <circle cx="207.7" cy="95.6" r="0.7" fill="#8800aa"/>
  <circle cx="207.7" cy="511.9" r="0.7" fill="#ddaa00"/>
  <circle cx="214.5" cy="79.6" r="0.7" fill="#00aa00"/>
  <circle cx="214.5" cy="102.8" r="0.7" fill="#8800aa"/>
  <circle cx="214.5" cy="492.4" r="0.7" fill="#ddaa00"/>
  <circle cx="221.4" cy="77.9" r="0.7" fill="#00aa00"/>
  <circle cx="221.4" cy="99.9" r="0.7" fill="#8800aa"/>
  <circle cx="221.4" cy="470.1" r="0.7" fill="#ddaa00"/>
  <circle cx="228.3" cy="78.0" r="0.7" fill="#00aa00"/>
  <circle cx="228.3" cy="98.7" r="0.7" fill="#8800aa"/>
  <circle cx="228.3" cy="445.8" r="0.7" fill="#ddaa00"/>
  <circle cx="235.1" cy="76.2" r="0.7" fill="#00aa00"/>
  <circle cx="235.1" cy="95.4" r="0.7" fill="#8800aa"/>
  <circle cx="235.1" cy="419.6" r="0.7" fill="#ddaa00"/>
  <circle cx="241.6" cy="72.3" r="0.7" fill="#00aa00"/>
  <circle cx="241.6" cy="90.3" r="0.7" fill="#8800aa"/>
  <circle cx="241.6" cy="393.2" r="0.7" fill="#ddaa00"/>
  <circle cx="248.0" cy="72.1" r="0.7" fill="#00aa00"/>
  <circle cx="248.0" cy="88.7" r="0.7" fill="#8800aa"/>
  <circle cx="248.0" cy="366.8" r="0.7" fill="#ddaa00"/>
  <circle cx="254.5" cy="69.2" r="0.7" fill="#00aa00"/>
  <circle cx="254.5" cy="84.5" r="0.7" fill="#8800aa"/>
  <circle cx="254.5" cy="341.3" r="0.7" fill="#ddaa00"/>
  <circle cx="260.6" cy="71.3" r="0.7" fill="#00aa00"/>
  <circle cx="260.6" cy="85.2" r="0.7" fill="#8800aa"/>
  <circle cx="260.6" cy="319.0" r="0.7" fill="#ddaa00"/>
  <circle cx="266.6" cy="67.5" r="0.7" fill="#00aa00"/>
  <circle cx="266.6" cy="80.4" r="0.7" fill="#8800aa"/>
  <circle cx="266.6" cy="298.3" r="0.7" fill="#ddaa00"/>
  <circle cx="272.6" cy="67.4" r="0.7" fill="#00aa00"/>
  <circle cx="272.6" cy="79.3" r="0.7" fill="#8800aa"/>
  <circle cx="272.6" cy="279.4" r="0.7" fill="#ddaa00"/>
  <circle cx="278.7" cy="66.9" r="0.7" fill="#00aa00"/>
  <circle cx="278.7" cy="77.8" r="0.7" fill="#8800aa"/>
  <circle cx="278.7" cy="262.0" r="0.7" fill="#ddaa00"/>
  <circle cx="284.8" cy="65.9" r="0.7" fill="#00aa00"/>
  <circle cx="284.8" cy="76.0" r="0.7" fill="#8800aa"/>
  <circle cx="284.8" cy="246.1" r="0.7" fill="#ddaa00"/>
  <circle cx="290.8" cy="64.2" r="0.7" fill="#00aa00"/>
  <circle cx="290.8" cy="73.5" r="0.7" fill="#8800aa"/>
  <circle cx="290.8" cy="231.2" r="0.7" fill="#ddaa00"/>
  <circle cx="296.9" cy="63.4" r="0.7" fill="#00aa00"/>
  <circle cx="296.9" cy="72.0" r="0.7" fill="#8800aa"/>
  <circle cx="296.9" cy="217.3" r="0.7" fill="#ddaa00"/>
  <circle cx="302.5" cy="62.6" r="0.7" fill="#00aa00"/>
  <circle cx="302.5" cy="70.6" r="0.7" fill="#8800aa"/>
  <circle cx="302.5" cy="205.2" r="0.7" fill="#ddaa00"/>
  <circle cx="308.2" cy="62.8" r="0.7" fill="#00aa00"/>
  <circle cx="308.2" cy="70.1" r="0.7" fill="#8800aa"/>
  <circle cx="308.2" cy="194.1" r="0.7" fill="#ddaa00"/>
  <circle cx="313.8" cy="61.6" r="0.7" fill="#00aa00"/>
  <circle cx="313.8" cy="68.5" r="0.7" fill="#8800aa"/>
  <circle cx="313.8" cy="183.6" r="0.7" fill="#ddaa00"/>
  <circle cx="319.5" cy="61.5" r="0.7" fill="#00aa00"/>
  <circle cx="319.5" cy="67.8" r="0.7" fill="#8800aa"/>
  <circle cx="319.5" cy="174.1" r="0.7" fill="#ddaa00"/>
  <circle cx="325.1" cy="61.9" r="0.7" fill="#00aa00"/>
  <circle cx="325.1" cy="67.7" r="0.7" fill="#8800aa"/>
  <circle cx="325.1" cy="165.1" r="0.7" fill="#ddaa00"/>
  <circle cx="330.8" cy="59.2" r="0.7" fill="#00aa00"/>
  <circle cx="330.8" cy="64.6" r="0.7" fill="#8800aa"/>
  <circle cx="330.8" cy="156.7" r="0.7" fill="#ddaa00"/>
  <circle cx="336.4" cy="60.8" r="0.7" fill="#00aa00"/>
  <circle cx="336.4" cy="65.7" r="0.7" fill="#8800aa"/>
  <circle cx="336.4" cy="149.0" r="0.7" fill="#ddaa00"/>
  <circle cx="341.7" cy="59.5" r="0.7" fill="#00aa00"/>
  <circle cx="341.7" cy="64.1" r="0.7" fill="#8800aa"/>
  <circle cx="341.7" cy="142.1" r="0.7" fill="#ddaa00"/>
  <circle cx="346.9" cy="58.7" r="0.7" fill="#00aa00"/>
  <circle cx="346.9" cy="63.1" r="0.7" fill="#8800aa"/>
  <circle cx="346.9" cy="135.7" r="0.7" fill="#ddaa00"/>
  <circle cx="352.2" cy="58.4" r="0.7" fill="#00aa00"/>
  <circle cx="352.2" cy="62.4" r="0.7" fill="#8800aa"/>
  <circle cx="352.2" cy="129.7" r="0.7" fill="#ddaa00"/>
  <circle cx="357.4" cy="57.9" r="0.7" fill="#00aa00"/>
  <circle cx="357.4" cy="61.6" r="0.7" fill="#8800aa"/>
  <circle cx="357.4" cy="123.5" r="0.7" fill="#ddaa00"/>
  <circle cx="362.6" cy="58.1" r="0.7" fill="#00aa00"/>
  <circle cx="362.6" cy="61.5" r="0.7" fill="#8800aa"/>
  <circle cx="362.6" cy="118.1" r="0.7" fill="#ddaa00"/>
  <circle cx="367.9" cy="58.1" r="0.7" fill="#00aa00"/>
  <circle cx="367.9" cy="61.2" r="0.7" fill="#8800aa"/>
  <circle cx="367.9" cy="112.5" r="0.7" fill="#ddaa00"/>
  <circle cx="373.1" cy="58.6" r="0.7" fill="#00aa00"/>
  <circle cx="373.1" cy="61.3" r="0.7" fill="#8800aa"/>
  <circle cx="373.1" cy="107.4" r="0.7" fill="#ddaa00"/>
  <circle cx="378.4" cy="57.7" r="0.7" fill="#00aa00"/>
  <circle cx="378.4" cy="60.2" r="0.7" fill="#8800aa"/>
  <circle cx="378.4" cy="102.7" r="0.7" fill="#ddaa00"/>
  <circle cx="383.6" cy="57.0" r="0.7" fill="#00aa00"/>
  <circle cx="383.6" cy="59.3" r="0.7" fill="#8800aa"/>
  <circle cx="383.6" cy="98.2" r="0.7" fill="#ddaa00"/>
  <circle cx="388.9" cy="56.4" r="0.7" fill="#00aa00"/>
  <circle cx="388.9" cy="58.5" r="0.7" fill="#8800aa"/>
  <circle cx="388.9" cy="93.9" r="0.7" fill="#ddaa00"/>
  <circle cx="394.1" cy="56.7" r="0.7" fill="#00aa00"/>
  <circle cx="394.1" cy="58.6" r="0.7" fill="#8800aa"/>
  <circle cx="394.1" cy="90.4" r="0.7" fill="#ddaa00"/>
  <circle cx="399.4" cy="57.1" r="0.7" fill="#00aa00"/>
  <circle cx="399.4" cy="58.8" r="0.7" fill="#8800aa"/>
  <circle cx="399.4" cy="87.1" r="0.7" fill="#ddaa00"/>
  <circle cx="404.6" cy="58.2" r="0.7" fill="#00aa00"/>
  <circle cx="404.6" cy="59.7" r="0.7" fill="#8800aa"/>
  <circle cx="404.6" cy="84.5" r="0.7" fill="#ddaa00"/>
  <circle cx="409.9" cy="59.1" r="0.7" fill="#00aa00"/>
  <circle cx="409.9" cy="60.3" r="0.7" fill="#8800aa"/>
  <circle cx="409.9" cy="81.6" r="0.7" fill="#ddaa00"/>
  <path d="M 130.0,52.2 L 137.1,53.7 L 144.1,53.7 L 151.2,53.5 L 158.2,55.1 L 165.3,56.2 L 172.4,56.3 L 179.4,55.9 L 186.5,56.4 L 193.6,57.5 L 200.6,49.1 L 207.7,44.7 L 214.5,55.0 L 221.4,54.6 L 228.3,56.1 L 235.1,55.7 L 241.6,53.2 L 248.0,54.6 L 254.5,53.0 L 260.6,56.6 L 266.6,53.7 L 272.6,54.8 L 278.7,55.3 L 284.8,55.2 L 290.8,54.2 L 296.9,54.2 L 302.5,54.1 L 308.2,55.0 L 313.8,54.4 L 319.5,54.8 L 325.1,55.8 L 330.8,53.4 L 336.4,55.5 L 341.7,54.6 L 346.9,54.2 L 352.2,54.2 L 357.4,54.0 L 362.6,54.5 L 367.9,54.9 L 373.1,55.7 L 378.4,55.0 L 383.6,54.5 L 388.9,54.2 L 394.1,54.6 L 399.4,55.3 L 404.6,56.7 L 409.9,57.7" fill="none" stroke="#aaa" stroke-width="0.4" stroke-dasharray="2,2"/>
  <circle cx="130.0" cy="52.2" r="0.8" fill="#cc0000"/>
  <circle cx="137.1" cy="53.7" r="0.8" fill="#cc0000"/>
  <circle cx="144.1" cy="53.7" r="0.8" fill="#cc0000"/>
  <circle cx="151.2" cy="53.5" r="0.8" fill="#cc0000"/>
  <circle cx="158.2" cy="55.1" r="0.8" fill="#cc0000"/>
  <circle cx="165.3" cy="56.2" r="0.8" fill="#cc0000"/>
  <circle cx="172.4" cy="56.3" r="0.8" fill="#cc0000"/>
  <circle cx="179.4" cy="55.9" r="0.8" fill="#cc0000"/>
  <circle cx="186.5" cy="56.4" r="0.8" fill="#cc0000"/>
  <circle cx="193.6" cy="57.5" r="0.8" fill="#cc0000"/>
  <circle cx="200.6" cy="49.1" r="0.8" fill="#cc0000"/>
  <circle cx="207.7" cy="44.7" r="0.8" fill="#cc0000"/>
  <circle cx="214.5" cy="55.0" r="0.8" fill="#cc0000"/>
  <circle cx="221.4" cy="54.6" r="0.8" fill="#cc0000"/>
  <circle cx="228.3" cy="56.1" r="0.8" fill="#cc0000"/>
  <circle cx="235.1" cy="55.7" r="0.8" fill="#cc0000"/>
  <circle cx="241.6" cy="53.2" r="0.8" fill="#cc0000"/>
  <circle cx="248.0" cy="54.6" r="0.8" fill="#cc0000"/>
  <circle cx="254.5" cy="53.0" r="0.8" fill="#cc0000"/>
  <circle cx="260.6" cy="56.6" r="0.8" fill="#cc0000"/>
  <circle cx="266.6" cy="53.7" r="0.8" fill="#cc0000"/>
  <circle cx="272.6" cy="54.8" r="0.8" fill="#cc0000"/>
  <circle cx="278.7" cy="55.3" r="0.8" fill="#cc0000"/>
  <circle cx="284.8" cy="55.2" r="0.8" fill="#cc0000"/>
  <circle cx="290.8" cy="54.2" r="0.8" fill="#cc0000"/>
  <circle cx="296.9" cy="54.2" r="0.8" fill="#cc0000"/>
  <circle cx="302.5" cy="54.1" r="0.8" fill="#cc0000"/>
  <circle cx="308.2" cy="55.0" r="0.8" fill="#cc0000"/>
  <circle cx="313.8" cy="54.4" r="0.8" fill="#cc0000"/>
  <circle cx="319.5" cy="54.8" r="0.8" fill="#cc0000"/>
  <circle cx="325.1" cy="55.8" r="0.8" fill="#cc0000"/>
  <circle cx="330.8" cy="53.4" r="0.8" fill="#cc0000"/>
  <circle cx="336.4" cy="55.5" r="0.8" fill="#cc0000"/>
  <circle cx="341.7" cy="54.6" r="0.8" fill="#cc0000"/>
  <circle cx="346.9" cy="54.2" r="0.8" fill="#cc0000"/>
  <circle cx="352.2" cy="54.2" r="0.8" fill="#cc0000"/>
  <circle cx="357.4" cy="54.0" r="0.8" fill="#cc0000"/>
  <circle cx="362.6" cy="54.5" r="0.8" fill="#cc0000"/>
  <circle cx="367.9" cy="54.9" r="0.8" fill="#cc0000"/>
  <circle cx="373.1" cy="55.7" r="0.8" fill="#cc0000"/>
  <circle cx="378.4" cy="55.0" r="0.8" fill="#cc0000"/>
  <circle cx="383.6" cy="54.5" r="0.8" fill="#cc0000"/>
  <circle cx="388.9" cy="54.2" r="0.8" fill="#cc0000"/>
  <circle cx="394.1" cy="54.6" r="0.8" fill="#cc0000"/>
  <circle cx="399.4" cy="55.3" r="0.8" fill="#cc0000"/>
  <circle cx="404.6" cy="56.7" r="0.8" fill="#cc0000"/>
  <circle cx="409.9" cy="57.7" r="0.8" fill="#cc0000"/>
  <path d="M 100.00,711.02 C 100.00,680.03 126.92,654.89 144.73,629.53 C 153.56,616.96 162.17,604.22 170.09,591.06 C 177.96,577.99 185.18,564.50 191.64,550.69 C 198.09,536.90 203.83,522.76 208.99,508.44 C 214.16,494.08 218.76,479.51 222.99,464.85 C 227.23,450.13 231.11,435.31 234.84,420.45 C 238.58,405.55 242.17,390.62 245.83,375.71 C 249.49,360.78 253.22,345.88 257.22,331.04 C 261.22,316.22 265.49,301.46 270.19,286.84 C 274.88,272.24 280.02,257.76 285.69,243.51 C 291.37,229.26 297.58,215.21 304.44,201.49 C 311.28,187.80 318.78,174.38 327.31,161.66 C 335.83,148.96 345.54,137.04 355.70,125.60 C 365.84,114.16 376.77,103.27 388.89,93.95 C 404.65,81.82 433.72,74.48 433.72,54.59" fill="none" stroke="black" stroke-width="0.7"/>
</svg>