<?xml version="1.0" encoding="UTF-8"?>
<svg xmlns="http://www.w3.org/2000/svg" viewBox="-323.2 -2054.8 646.4 2116.8" width="900" height="2947" font-family="sans-serif" font-size="12">
<rect x="-323.2" y="-2054.8" width="646.4" height="2116.8" fill="#fff"/>
<rect x="-311.2" y="-2014.8" width="622.4" height="2064.8" fill="none" stroke="#ccc" stroke-width="0.6"/>
<text x="-301.2" y="-2026.8" font-family="sans-serif" font-size="22" font-weight="bold" fill="#000">REAR (yz, look -x)</text>
<g transform="scale(1,-1)">
<g transform="scale(-1,1)">
<path d="M 225.63 7.37 L 225.63 22.11 L 225.63 36.85 L 225.63 51.59 L 225.63 66.33 L 225.63 81.07 L 225.63 95.81 L 225.63 110.55 L 225.63 125.29 L 225.63 140.02 L 225.63 154.76 L 225.63 169.50 L 226.49 184.24 L 228.82 198.98 L 231.43 213.72 L 235.81 228.46 L 238.72 243.20 L 241.68 257.94 L 244.66 272.68 L 247.61 287.42 L 250.53 302.16 L 253.39 316.90 L 256.18 331.64 L 258.88 346.38 L 261.48 361.12 L 263.96 375.86 L 266.32 390.59 L 268.55 405.33 L 270.64 420.07 L 272.57 434.81 L 274.34 449.55 L 275.93 464.29 L 277.34 479.03 L 278.55 493.77 L 279.55 508.51 L 280.33 523.25 L 280.87 537.99 L 281.17 552.73 L 281.21 567.47 L 280.53 582.21 L 280.96 596.95 L 280.42 611.69 L 279.66 626.43 L 278.69 641.16 L 277.53 655.90 L 276.20 670.64 L 274.71 685.38 L 273.06 700.12 L 271.28 714.86 L 269.36 729.60 L 268.71 744.34 L 266.68 759.08 L 264.54 773.82 L 262.28 788.56 L 259.93 803.30 L 257.47 818.04 L 254.93 832.78 L 252.31 847.52 L 250.21 862.26 L 247.43 877.00 L 244.57 891.73 L 241.65 906.47 L 238.67 921.21 L 235.62 935.95 L 232.52 950.69 L 229.40 965.43 L 226.28 980.17 L 225.61 994.91 L 222.37 1009.65 L 219.08 1024.39 L 215.75 1039.13 L 212.38 1053.87 L 208.97 1068.61 L 205.53 1083.35 L 202.06 1098.09 L 199.03 1112.83 L 195.49 1127.57 L 191.92 1142.30 L 188.33 1157.04 L 184.72 1171.78 L 181.08 1186.52 L 178.65 1201.26 L 175.04 1216.00 L 171.42 1230.74 L 167.78 1245.48 L 164.13 1260.22 L 160.47 1274.96 L 156.80 1289.70 L 153.11 1304.44 L 149.43 1319.18 L 145.73 1333.92 L 142.03 1348.66 L 138.33 1363.40 L 134.63 1378.14 L 130.93 1392.87 L 127.23 1407.61 L 123.53 1422.35 L 117.74 1437.09 L 114.02 1451.83 L 110.32 1466.57 L 106.72 1481.31 L 103.14 1496.05 L 99.57 1510.79 L 96.01 1525.53 L 92.47 1540.27 L 88.10 1555.01 L 84.51 1569.75 L 80.95 1584.49 L 77.41 1599.23 L 73.90 1613.97 L 70.42 1628.71 L 66.23 1643.44 L 62.85 1658.18 L 59.51 1672.92 L 55.13 1687.66 L 51.93 1702.40 L 47.45 1717.14 L 44.42 1731.88 L 40.00 1746.62 L -40.00 1746.62 L -44.42 1731.88 L -47.45 1717.14 L -51.93 1702.40 L -55.13 1687.66 L -59.51 1672.92 L -62.85 1658.18 L -66.23 1643.44 L -70.42 1628.71 L -73.90 1613.97 L -77.41 1599.23 L -80.95 1584.49 L -84.51 1569.75 L -88.10 1555.01 L -92.47 1540.27 L -96.01 1525.53 L -99.57 1510.79 L -103.14 1496.05 L -106.72 1481.31 L -110.32 1466.57 L -114.02 1451.83 L -117.74 1437.09 L -123.53 1422.35 L -127.23 1407.61 L -130.93 1392.87 L -134.63 1378.14 L -138.33 1363.40 L -142.03 1348.66 L -145.73 1333.92 L -149.43 1319.18 L -153.11 1304.44 L -156.80 1289.70 L -160.47 1274.96 L -164.13 1260.22 L -167.78 1245.48 L -171.42 1230.74 L -175.04 1216.00 L -178.65 1201.26 L -181.08 1186.52 L -184.72 1171.78 L -188.33 1157.04 L -191.92 1142.30 L -195.49 1127.57 L -199.03 1112.83 L -202.06 1098.09 L -205.53 1083.35 L -208.97 1068.61 L -212.38 1053.87 L -215.75 1039.13 L -219.08 1024.39 L -222.37 1009.65 L -225.61 994.91 L -226.28 980.17 L -229.40 965.43 L -232.52 950.69 L -235.62 935.95 L -238.67 921.21 L -241.65 906.47 L -244.57 891.73 L -247.43 877.00 L -250.21 862.26 L -252.31 847.52 L -254.93 832.78 L -257.47 818.04 L -259.93 803.30 L -262.28 788.56 L -264.54 773.82 L -266.68 759.08 L -268.71 744.34 L -269.36 729.60 L -271.28 714.86 L -273.06 700.12 L -274.71 685.38 L -276.20 670.64 L -277.53 655.90 L -278.69 641.16 L -279.66 626.43 L -280.42 611.69 L -280.96 596.95 L -280.53 582.21 L -281.21 567.47 L -281.17 552.73 L -280.87 537.99 L -280.33 523.25 L -279.55 508.51 L -278.55 493.77 L -277.34 479.03 L -275.93 464.29 L -274.34 449.55 L -272.57 434.81 L -270.64 420.07 L -268.55 405.33 L -266.32 390.59 L -263.96 375.86 L -261.48 361.12 L -258.88 346.38 L -256.18 331.64 L -253.39 316.90 L -250.53 302.16 L -247.61 287.42 L -244.66 272.68 L -241.68 257.94 L -238.72 243.20 L -235.81 228.46 L -231.43 213.72 L -228.82 198.98 L -226.49 184.24 L -225.63 169.50 L -225.63 154.76 L -225.63 140.02 L -225.63 125.29 L -225.63 110.55 L -225.63 95.81 L -225.63 81.07 L -225.63 66.33 L -225.63 51.59 L -225.63 36.85 L -225.63 22.11 L -225.63 7.37 L 225.63 7.37" fill="#e4d4b5" fill-opacity="0.7" stroke="#222" stroke-width="1.5"/>
<path d="M 0.00 0.00 L 20.08 0.00 L 39.91 0.00 L 59.25 0.00 L 77.86 0.00 L 95.54 0.00 L 112.06 0.00 L 127.26 0.00 L 140.97 0.00 L 153.07 0.00 L 163.44 0.00 L 172.02 0.00 L 178.75 0.00 L 183.64 0.00 L 186.69 0.00 L 187.95 0.00 L 187.50 0.00 L 185.43 0.00 L 181.85 0.00 L 176.92 0.00 L 170.76 0.00 L 163.56 0.00 L 155.47 0.00 L 146.66 0.00 L 137.31 0.00 L 127.58 0.00 L 117.61 0.00 L 107.56 0.00 L 97.55 0.00 L 87.68 0.00 L 78.06 0.00 L 68.74 0.00 L 59.77 0.00 L 51.19 0.00 L 42.99 0.00 L 35.16 0.00 L 27.68 0.00 L 20.48 0.00 L 13.52 0.00 L 6.72 0.00 L 0.00 0.00 L -6.72 0.00 L -13.52 0.00 L -20.48 0.00 L -27.68 0.00 L -35.16 0.00 L -42.99 0.00 L -51.19 0.00 L -59.77 0.00 L -68.74 0.00 L -78.06 0.00 L -87.68 0.00 L -97.55 0.00 L -107.56 0.00 L -117.61 0.00 L -127.58 0.00 L -137.31 0.00 L -146.66 0.00 L -155.47 0.00 L -163.56 0.00 L -170.76 0.00 L -176.92 0.00 L -181.85 0.00 L -185.43 0.00 L -187.50 0.00 L -187.95 0.00 L -186.69 0.00 L -183.64 0.00 L -178.75 0.00 L -172.02 0.00 L -163.44 0.00 L -153.07 0.00 L -140.97 0.00 L -127.26 0.00 L -112.06 0.00 L -95.54 0.00 L -77.86 0.00 L -59.25 0.00 L -39.91 0.00 L -20.08 0.00 L 0.00 0.00" fill="none" stroke="#b8862b" stroke-width="1.0" stroke-dasharray="4,3"/>
<line x1="-311.2" y1="0" x2="311.2" y2="0" stroke="#888" stroke-width="0.6" stroke-dasharray="4,3" opacity="0.7"/>
<line x1="0" y1="257.43" x2="0" y2="1761.07" stroke="#c00000" stroke-width="2.550" opacity="0.6" stroke-linecap="round"/>
<line x1="0" y1="472.32" x2="0" y2="1840.63" stroke="#888" stroke-width="1.938" opacity="0.6" stroke-linecap="round"/>
<line x1="0" y1="684.92" x2="0" y2="1897.86" stroke="#1060d0" stroke-width="1.547" opacity="0.6" stroke-linecap="round"/>
<line x1="0" y1="903.21" x2="0" y2="1820.43" stroke="#888" stroke-width="2.700" opacity="0.6" stroke-linecap="round"/>
<line x1="0" y1="1110.31" x2="0" y2="1726.82" stroke="#888" stroke-width="2.023" opacity="0.6" stroke-linecap="round"/>
<line x1="0" y1="1289.03" x2="0" y2="1700.01" stroke="#888" stroke-width="1.649" opacity="0.6" stroke-linecap="round"/>
<line x1="0" y1="1431.95" x2="0" y2="1707.60" stroke="#888" stroke-width="1.292" opacity="0.6" stroke-linecap="round"/>
<line x1="0" y1="1544.39" x2="0" y2="1734.86" stroke="#c00000" stroke-width="1.207" opacity="0.6" stroke-linecap="round"/>
<line x1="0" y1="1637.53" x2="0" y2="1757.81" stroke="#888" stroke-width="0.935" opacity="0.6" stroke-linecap="round"/>
<line x1="0" y1="1719.00" x2="0" y2="1789.16" stroke="#1060d0" stroke-width="0.714" opacity="0.6" stroke-linecap="round"/>
</g>
</g>
</svg>