<?xml version="1.0" encoding="UTF-8"?>
<svg xmlns="http://www.w3.org/2000/svg" viewBox="-231.1 -1984.2 462.1 2046.2" width="900" height="3984" font-family="sans-serif" font-size="12">
<rect x="-231.1" y="-1984.2" width="462.1" height="2046.2" fill="#fff"/>
<rect x="-219.1" y="-1944.2" width="438.1" height="1994.2" fill="none" stroke="#ccc" stroke-width="0.6"/>
<text x="-209.1" y="-1956.2" font-family="sans-serif" font-size="22" font-weight="bold" fill="#000">REAR (yz, look -x)</text>
<g transform="scale(1,-1)">
<g transform="scale(-1,1)">
<path d="M 189.07 7.07 L 189.07 21.22 L 189.07 35.36 L 189.07 49.51 L 189.07 63.66 L 189.07 77.80 L 189.07 91.95 L 189.07 106.09 L 189.07 120.24 L 188.81 134.38 L 187.46 148.53 L 186.70 162.68 L 185.88 176.82 L 185.04 190.97 L 184.17 205.11 L 183.27 219.26 L 182.83 233.40 L 181.92 247.55 L 180.99 261.70 L 180.04 275.84 L 179.08 289.99 L 178.10 304.13 L 177.54 318.28 L 176.54 332.42 L 175.52 346.57 L 174.50 360.72 L 173.46 374.86 L 172.42 389.01 L 171.37 403.15 L 170.30 417.30 L 169.23 431.44 L 168.15 445.59 L 167.06 459.74 L 165.96 473.88 L 164.85 488.03 L 164.45 502.17 L 163.34 516.32 L 162.21 530.46 L 161.08 544.61 L 159.94 558.76 L 159.17 572.90 L 158.01 587.05 L 156.84 601.19 L 155.66 615.34 L 154.47 629.48 L 153.26 643.63 L 152.04 657.78 L 150.81 671.92 L 149.57 686.07 L 148.31 700.21 L 147.04 714.36 L 145.76 728.50 L 144.46 742.65 L 143.16 756.80 L 142.82 770.94 L 141.51 785.09 L 140.19 799.23 L 138.87 813.38 L 137.53 827.52 L 136.52 841.67 L 135.17 855.82 L 133.82 869.96 L 132.45 884.11 L 131.08 898.25 L 129.71 912.40 L 128.33 926.54 L 126.94 940.69 L 125.55 954.84 L 124.16 968.98 L 122.76 983.13 L 121.35 997.27 L 119.95 1011.42 L 118.54 1025.56 L 117.12 1039.71 L 115.70 1053.86 L 114.28 1068.00 L 112.86 1082.15 L 111.43 1096.29 L 110.00 1110.44 L 108.57 1124.58 L 107.14 1138.73 L 106.88 1152.88 L 105.45 1167.02 L 104.02 1181.17 L 102.58 1195.31 L 101.15 1209.46 L 98.61 1223.60 L 97.18 1237.75 L 95.76 1251.90 L 94.33 1266.04 L 92.91 1280.19 L 91.48 1294.33 L 90.06 1308.48 L 88.63 1322.62 L 87.20 1336.77 L 85.49 1350.92 L 84.05 1365.06 L 82.60 1379.21 L 81.16 1393.35 L 79.71 1407.50 L 78.27 1421.64 L 76.64 1435.79 L 75.20 1449.94 L 73.76 1464.08 L 71.53 1478.23 L 70.11 1492.37 L 68.69 1506.52 L 66.76 1520.66 L 65.33 1534.81 L 63.90 1548.96 L 62.32 1563.10 L 60.90 1577.25 L 58.83 1591.39 L 57.43 1605.54 L 55.39 1619.68 L 53.98 1633.83 L 52.58 1647.98 L 51.06 1662.12 L 44.54 1676.27 L -44.54 1676.27 L -51.06 1662.12 L -52.58 1647.98 L -53.98 1633.83 L -55.39 1619.68 L -57.43 1605.54 L -58.83 1591.39 L -60.90 1577.25 L -62.32 1563.10 L -63.90 1548.96 L -65.33 1534.81 L -66.76 1520.66 L -68.69 1506.52 L -70.11 1492.37 L -71.53 1478.23 L -73.76 1464.08 L -75.20 1449.94 L -76.64 1435.79 L -78.27 1421.64 L -79.71 1407.50 L -81.16 1393.35 L -82.60 1379.21 L -84.05 1365.06 L -85.49 1350.92 L -87.20 1336.77 L -88.63 1322.62 L -90.06 1308.48 L -91.48 1294.33 L -92.91 1280.19 L -94.33 1266.04 L -95.76 1251.90 L -97.18 1237.75 L -98.61 1223.60 L -101.15 1209.46 L -102.58 1195.31 L -104.02 1181.17 L -105.45 1167.02 L -106.88 1152.88 L -107.14 1138.73 L -108.57 1124.58 L -110.00 1110.44 L -111.43 1096.29 L -112.86 1082.15 L -114.28 1068.00 L -115.70 1053.86 L -117.12 1039.71 L -118.54 1025.56 L -119.95 1011.42 L -121.35 997.27 L -122.76 983.13 L -124.16 968.98 L -125.55 954.84 L -126.94 940.69 L -128.33 926.54 L -129.71 912.40 L -131.08 898.25 L -132.45 884.11 L -133.82 869.96 L -135.17 855.82 L -136.52 841.67 L -137.53 827.52 L -138.87 813.38 L -140.19 799.23 L -141.51 785.09 L -142.82 770.94 L -143.16 756.80 L -144.46 742.65 L -145.76 728.50 L -147.04 714.36 L -148.31 700.21 L -149.57 686.07 L -150.81 671.92 L -152.04 657.78 L -153.26 643.63 L -154.47 629.48 L -155.66 615.34 L -156.84 601.19 L -158.01 587.05 L -159.17 572.90 L -159.94 558.76 L -161.08 544.61 L -162.21 530.46 L -163.34 516.32 L -164.45 502.17 L -164.85 488.03 L -165.96 473.88 L -167.06 459.74 L -168.15 445.59 L -169.23 431.44 L -170.30 417.30 L -171.37 403.15 L -172.42 389.01 L -173.46 374.86 L -174.50 360.72 L -175.52 346.57 L -176.54 332.42 L -177.54 318.28 L -178.10 304.13 L -179.08 289.99 L -180.04 275.84 L -180.99 261.70 L -181.92 247.55 L -182.83 233.40 L -183.27 219.26 L -184.17 205.11 L -185.04 190.97 L -185.88 176.82 L -186.70 162.68 L -187.46 148.53 L -188.81 134.38 L -189.07 120.24 L -189.07 106.09 L -189.07 91.95 L -189.07 77.80 L -189.07 63.66 L -189.07 49.51 L -189.07 35.36 L -189.07 21.22 L -189.07 7.07 L 189.07 7.07" fill="#e4d4b5" fill-opacity="0.7" stroke="#222" stroke-width="1.5"/>
<path d="M 0.00 0.00 L 15.00 0.00 L 29.82 0.00 L 44.27 0.00 L 58.18 0.00 L 71.38 0.00 L 83.73 0.00 L 95.09 0.00 L 105.34 0.00 L 114.37 0.00 L 122.12 0.00 L 128.53 0.00 L 133.57 0.00 L 137.22 0.00 L 139.50 0.00 L 140.44 0.00 L 140.10 0.00 L 138.55 0.00 L 135.88 0.00 L 132.19 0.00 L 127.60 0.00 L 122.21 0.00 L 116.17 0.00 L 109.59 0.00 L 102.60 0.00 L 95.33 0.00 L 87.88 0.00 L 80.37 0.00 L 72.89 0.00 L 65.52 0.00 L 58.33 0.00 L 51.36 0.00 L 44.66 0.00 L 38.25 0.00 L 32.12 0.00 L 26.27 0.00 L 20.68 0.00 L 15.30 0.00 L 10.10 0.00 L 5.02 0.00 L 0.00 0.00 L -5.02 0.00 L -10.10 0.00 L -15.30 0.00 L -20.68 0.00 L -26.27 0.00 L -32.12 0.00 L -38.25 0.00 L -44.66 0.00 L -51.36 0.00 L -58.33 0.00 L -65.52 0.00 L -72.89 0.00 L -80.37 0.00 L -87.88 0.00 L -95.33 0.00 L -102.60 0.00 L -109.59 0.00 L -116.17 0.00 L -122.21 0.00 L -127.60 0.00 L -132.19 0.00 L -135.88 0.00 L -138.55 0.00 L -140.10 0.00 L -140.44 0.00 L -139.50 0.00 L -137.22 0.00 L -133.57 0.00 L -128.53 0.00 L -122.12 0.00 L -114.37 0.00 L -105.34 0.00 L -95.09 0.00 L -83.73 0.00 L -71.38 0.00 L -58.18 0.00 L -44.27 0.00 L -29.82 0.00 L -15.00 0.00 L 0.00 0.00" fill="none" stroke="#b8862b" stroke-width="1.0" stroke-dasharray="4,3"/>
<line x1="-219.1" y1="0" x2="219.1" y2="0" stroke="#888" stroke-width="0.6" stroke-dasharray="4,3" opacity="0.7"/>
<line x1="0" y1="186.78" x2="0" y2="1690.42" stroke="#c00000" stroke-width="2.550" opacity="0.6" stroke-linecap="round"/>
<line x1="0" y1="401.67" x2="0" y2="1769.98" stroke="#888" stroke-width="1.938" opacity="0.6" stroke-linecap="round"/>
<line x1="0" y1="614.27" x2="0" y2="1827.21" stroke="#1060d0" stroke-width="1.547" opacity="0.6" stroke-linecap="round"/>
<line x1="0" y1="832.56" x2="0" y2="1749.78" stroke="#888" stroke-width="2.700" opacity="0.6" stroke-linecap="round"/>
<line x1="0" y1="1039.66" x2="0" y2="1656.17" stroke="#888" stroke-width="2.023" opacity="0.6" stroke-linecap="round"/>
<line x1="0" y1="1218.38" x2="0" y2="1629.36" stroke="#888" stroke-width="1.649" opacity="0.6" stroke-linecap="round"/>
<line x1="0" y1="1361.30" x2="0" y2="1636.95" stroke="#888" stroke-width="1.292" opacity="0.6" stroke-linecap="round"/>
<line x1="0" y1="1473.74" x2="0" y2="1664.21" stroke="#c00000" stroke-width="1.207" opacity="0.6" stroke-linecap="round"/>
<line x1="0" y1="1566.88" x2="0" y2="1687.16" stroke="#888" stroke-width="0.935" opacity="0.6" stroke-linecap="round"/>
<line x1="0" y1="1648.35" x2="0" y2="1718.51" stroke="#1060d0" stroke-width="0.714" opacity="0.6" stroke-linecap="round"/>
</g>
</g>
</svg>