<?xml version="1.0" encoding="UTF-8"?>
<svg xmlns="http://www.w3.org/2000/svg" viewBox="-333.2 -1963.1 666.4 1756.0" width="900" height="2371" font-family="sans-serif" font-size="12">
<rect x="-333.2" y="-1963.1" width="666.4" height="1756.0" fill="#fff"/>
<rect x="-321.2" y="-1923.1" width="642.4" height="1704.0" fill="none" stroke="#ccc" stroke-width="0.6"/>
<text x="-311.2" y="-1935.1" font-family="sans-serif" font-size="22" font-weight="bold" fill="#000">SBF (u,y soundboard)</text>
<g transform="scale(1,-1)">
<path d="M 228.36 259.19 L 229.67 268.26 L 231.10 277.33 L 232.60 286.41 L 234.16 295.48 L 235.76 304.55 L 237.40 313.62 L 239.06 322.70 L 240.73 331.77 L 242.41 340.84 L 244.09 349.91 L 245.77 358.99 L 247.44 368.06 L 249.10 377.13 L 250.74 386.20 L 252.36 395.28 L 253.97 404.35 L 255.54 413.42 L 257.09 422.49 L 258.61 431.56 L 260.10 440.64 L 261.56 449.71 L 262.97 458.78 L 264.35 467.85 L 265.69 476.93 L 266.99 486.00 L 268.25 495.07 L 269.46 504.14 L 270.62 513.22 L 271.73 522.29 L 272.79 531.36 L 273.80 540.43 L 274.75 549.51 L 275.65 558.58 L 276.49 567.65 L 277.27 576.72 L 277.99 585.80 L 278.63 594.87 L 279.21 603.94 L 279.73 613.01 L 280.17 622.08 L 280.54 631.16 L 280.83 640.23 L 281.05 649.30 L 281.18 658.37 L 281.22 667.45 L 281.19 676.52 L 281.06 685.59 L 280.84 694.66 L 280.51 703.74 L 280.13 712.81 L 279.67 721.88 L 279.14 730.95 L 278.55 740.03 L 277.92 749.10 L 277.20 758.17 L 276.44 767.24 L 275.64 776.31 L 274.78 785.39 L 273.87 794.46 L 272.91 803.53 L 271.92 812.60 L 270.87 821.68 L 269.79 830.75 L 268.68 839.82 L 267.51 848.89 L 266.31 857.97 L 265.08 867.04 L 263.81 876.11 L 262.51 885.18 L 261.18 894.26 L 259.81 903.33 L 258.42 912.40 L 257.00 921.47 L 255.54 930.54 L 254.07 939.62 L 252.56 948.69 L 251.03 957.76 L 249.49 966.83 L 247.90 975.91 L 246.31 984.98 L 244.69 994.05 L 243.04 1003.12 L 241.38 1012.20 L 239.69 1021.27 L 237.99 1030.34 L 236.27 1039.41 L 234.53 1048.49 L 232.77 1057.56 L 230.99 1066.63 L 229.20 1075.70 L 227.40 1084.78 L 225.57 1093.85 L 223.74 1102.92 L 221.88 1111.99 L 220.02 1121.06 L 218.13 1130.14 L 216.24 1139.21 L 214.34 1148.28 L 212.42 1157.35 L 210.49 1166.43 L 208.55 1175.50 L 206.60 1184.57 L 204.63 1193.64 L 202.66 1202.72 L 200.68 1211.79 L 198.68 1220.86 L 196.69 1229.93 L 194.67 1239.01 L 192.66 1248.08 L 190.63 1257.15 L 188.60 1266.22 L 186.56 1275.29 L 184.51 1284.37 L 182.46 1293.44 L 180.40 1302.51 L 178.33 1311.58 L 176.26 1320.66 L 174.18 1329.73 L 172.10 1338.80 L 170.01 1347.87 L 167.92 1356.95 L 165.83 1366.02 L 163.73 1375.09 L 161.62 1384.16 L 159.52 1393.24 L 157.41 1402.31 L 155.30 1411.38 L 153.18 1420.45 L 151.07 1429.52 L 148.95 1438.60 L 146.83 1447.67 L 144.71 1456.74 L 142.59 1465.81 L 140.47 1474.89 L 138.35 1483.96 L 136.23 1493.03 L 134.10 1502.10 L 131.98 1511.18 L 129.86 1520.25 L 127.74 1529.32 L 125.62 1538.39 L 123.51 1547.47 L 121.39 1556.54 L 119.28 1565.61 L 117.17 1574.68 L 115.07 1583.75 L 112.96 1592.83 L 110.86 1601.90 L 108.76 1610.97 L 106.67 1620.04 L 104.58 1629.12 L 102.50 1638.19 L 100.42 1647.26 L 98.35 1656.33 L 96.28 1665.41 L 94.21 1674.48 L 92.16 1683.55 L 90.11 1692.62 L 88.06 1701.70 L 86.03 1710.77 L 84.00 1719.84 L 81.98 1728.91 L 79.97 1737.99 L 77.96 1747.06 L 75.97 1756.13 L 73.98 1765.20 L 72.01 1774.27 L 70.04 1783.35 L 68.08 1792.42 L 66.14 1801.49 L 64.20 1810.56 L 62.28 1819.64 L 60.37 1828.71 L 58.47 1837.78 L 56.58 1846.85 L 54.72 1855.93 L 52.86 1865.00 L 51.01 1874.07 L 49.19 1883.14 L -49.19 1883.14 L -51.01 1874.07 L -52.86 1865.00 L -54.72 1855.93 L -56.58 1846.85 L -58.47 1837.78 L -60.37 1828.71 L -62.28 1819.64 L -64.20 1810.56 L -66.14 1801.49 L -68.08 1792.42 L -70.04 1783.35 L -72.01 1774.27 L -73.98 1765.20 L -75.97 1756.13 L -77.96 1747.06 L -79.97 1737.99 L -81.98 1728.91 L -84.00 1719.84 L -86.03 1710.77 L -88.06 1701.70 L -90.11 1692.62 L -92.16 1683.55 L -94.21 1674.48 L -96.28 1665.41 L -98.35 1656.33 L -100.42 1647.26 L -102.50 1638.19 L -104.58 1629.12 L -106.67 1620.04 L -108.76 1610.97 L -110.86 1601.90 L -112.96 1592.83 L -115.07 1583.75 L -117.17 1574.68 L -119.28 1565.61 L -121.39 1556.54 L -123.51 1547.47 L -125.62 1538.39 L -127.74 1529.32 L -129.86 1520.25 L -131.98 1511.18 L -134.10 1502.10 L -136.23 1493.03 L -138.35 1483.96 L -140.47 1474.89 L -142.59 1465.81 L -144.71 1456.74 L -146.83 1447.67 L -148.95 1438.60 L -151.07 1429.52 L -153.18 1420.45 L -155.30 1411.38 L -157.41 1402.31 L -159.52 1393.24 L -161.62 1384.16 L -163.73 1375.09 L -165.83 1366.02 L -167.92 1356.95 L -170.01 1347.87 L -172.10 1338.80 L -174.18 1329.73 L -176.26 1320.66 L -178.33 1311.58 L -180.40 1302.51 L -182.46 1293.44 L -184.51 1284.37 L -186.56 1275.29 L -188.60 1266.22 L -190.63 1257.15 L -192.66 1248.08 L -194.67 1239.01 L -196.69 1229.93 L -198.68 1220.86 L -200.68 1211.79 L -202.66 1202.72 L -204.63 1193.64 L -206.60 1184.57 L -208.55 1175.50 L -210.49 1166.43 L -212.42 1157.35 L -214.34 1148.28 L -216.24 1139.21 L -218.13 1130.14 L -220.02 1121.06 L -221.88 1111.99 L -223.74 1102.92 L -225.57 1093.85 L -227.40 1084.78 L -229.20 1075.70 L -230.99 1066.63 L -232.77 1057.56 L -234.53 1048.49 L -236.27 1039.41 L -237.99 1030.34 L -239.69 1021.27 L -241.38 1012.20 L -243.04 1003.12 L -244.69 994.05 L -246.31 984.98 L -247.90 975.91 L -249.49 966.83 L -251.03 957.76 L -252.56 948.69 L -254.07 939.62 L -255.54 930.54 L -257.00 921.47 L -258.42 912.40 L -259.81 903.33 L -261.18 894.26 L -262.51 885.18 L -263.81 876.11 L -265.08 867.04 L -266.31 857.97 L -267.51 848.89 L -268.68 839.82 L -269.79 830.75 L -270.87 821.68 L -271.92 812.60 L -272.91 803.53 L -273.87 794.46 L -274.78 785.39 L -275.64 776.31 L -276.44 767.24 L -277.20 758.17 L -277.92 749.10 L -278.55 740.03 L -279.14 730.95 L -279.67 721.88 L -280.13 712.81 L -280.51 703.74 L -280.84 694.66 L -281.06 685.59 L -281.19 676.52 L -281.22 667.45 L -281.18 658.37 L -281.05 649.30 L -280.83 640.23 L -280.54 631.16 L -280.17 622.08 L -279.73 613.01 L -279.21 603.94 L -278.63 594.87 L -277.99 585.80 L -277.27 576.72 L -276.49 567.65 L -275.65 558.58 L -274.75 549.51 L -273.80 540.43 L -272.79 531.36 L -271.73 522.29 L -270.62 513.22 L -269.46 504.14 L -268.25 495.07 L -266.99 486.00 L -265.69 476.93 L -264.35 467.85 L -262.97 458.78 L -261.56 449.71 L -260.10 440.64 L -258.61 431.56 L -257.09 422.49 L -255.54 413.42 L -253.97 404.35 L -252.36 395.28 L -250.74 386.20 L -249.10 377.13 L -247.44 368.06 L -245.77 358.99 L -244.09 349.91 L -242.41 340.84 L -240.73 331.77 L -239.06 322.70 L -237.40 313.62 L -235.76 304.55 L -234.16 295.48 L -232.60 286.41 L -231.10 277.33 L -229.67 268.26 L -228.36 259.19 L 228.36 259.19" fill="#e4d4b5" fill-opacity="0.7" stroke="#222" stroke-width="1.5"/>
<line x1="0" y1="259.19" x2="0" y2="1883.14" stroke="#0a7" stroke-width="1.0"/>
<circle cx="0" cy="259.19" r="0.9" fill="#c00000"/>
<circle cx="0" cy="304.75" r="0.9" fill="#888"/>
<circle cx="0" cy="350.13" r="0.9" fill="#888"/>
<circle cx="0" cy="395.40" r="0.9" fill="#1060d0"/>
<circle cx="0" cy="440.58" r="0.9" fill="#888"/>
<circle cx="0" cy="485.66" r="0.9" fill="#888"/>
<circle cx="0" cy="530.66" r="0.9" fill="#888"/>
<circle cx="0" cy="575.56" r="0.9" fill="#c00000"/>
<circle cx="0" cy="620.38" r="0.9" fill="#888"/>
<circle cx="0" cy="665.02" r="0.9" fill="#888"/>
<circle cx="0" cy="709.53" r="0.9" fill="#1060d0"/>
<circle cx="0" cy="753.84" r="0.9" fill="#888"/>
<circle cx="0" cy="799.61" r="0.9" fill="#888"/>
<circle cx="0" cy="846.64" r="0.9" fill="#888"/>
<circle cx="0" cy="893.31" r="0.9" fill="#c00000"/>
<circle cx="0" cy="939.55" r="0.9" fill="#888"/>
<circle cx="0" cy="984.98" r="0.9" fill="#888"/>
<circle cx="0" cy="1029.67" r="0.9" fill="#1060d0"/>
<circle cx="0" cy="1073.68" r="0.9" fill="#888"/>
<circle cx="0" cy="1116.80" r="0.9" fill="#888"/>
<circle cx="0" cy="1158.84" r="0.9" fill="#888"/>
<circle cx="0" cy="1199.76" r="0.9" fill="#c00000"/>
<circle cx="0" cy="1239.54" r="0.9" fill="#888"/>
<circle cx="0" cy="1277.96" r="0.9" fill="#888"/>
<circle cx="0" cy="1315.11" r="0.9" fill="#1060d0"/>
<circle cx="0" cy="1350.94" r="0.9" fill="#888"/>
<circle cx="0" cy="1385.38" r="0.9" fill="#888"/>
<circle cx="0" cy="1418.41" r="0.9" fill="#888"/>
<circle cx="0" cy="1450.08" r="0.9" fill="#c00000"/>
<circle cx="0" cy="1480.52" r="0.9" fill="#888"/>
<circle cx="0" cy="1509.81" r="0.9" fill="#888"/>
<circle cx="0" cy="1537.99" r="0.9" fill="#1060d0"/>
<circle cx="0" cy="1565.18" r="0.9" fill="#888"/>
<circle cx="0" cy="1591.39" r="0.9" fill="#888"/>
<circle cx="0" cy="1616.78" r="0.9" fill="#888"/>
<circle cx="0" cy="1641.53" r="0.9" fill="#c00000"/>
<circle cx="0" cy="1665.66" r="0.9" fill="#888"/>
<circle cx="0" cy="1689.20" r="0.9" fill="#888"/>
<circle cx="0" cy="1712.25" r="0.9" fill="#1060d0"/>
<circle cx="0" cy="1734.84" r="0.9" fill="#888"/>
<circle cx="0" cy="1756.98" r="0.9" fill="#888"/>
<circle cx="0" cy="1778.72" r="0.9" fill="#888"/>
<circle cx="0" cy="1800.13" r="0.9" fill="#c00000"/>
<circle cx="0" cy="1821.23" r="0.9" fill="#888"/>
<circle cx="0" cy="1842.07" r="0.9" fill="#888"/>
<circle cx="0" cy="1862.69" r="0.9" fill="#1060d0"/>
<circle cx="0" cy="1883.14" r="0.9" fill="#888"/>
</g>
</svg>