<?xml version="1.0" encoding="UTF-8"?>
<svg xmlns="http://www.w3.org/2000/svg" viewBox="-52.0 -355.2 1728.0 682.3" width="900" height="355" font-family="sans-serif" font-size="12">
<rect x="-52.0" y="-355.2" width="1728.0" height="682.3" fill="#fff"/>
<rect x="-40.0" y="-315.2" width="1704.0" height="630.3" fill="none" stroke="#ccc" stroke-width="0.6"/>
<text x="-30.0" y="-327.2" font-family="sans-serif" font-size="22" font-weight="bold" fill="#000">SBF (u,y soundboard)</text>
<g transform="scale(1,-1)">
<path d="M 0.00 275.16 L 9.07 273.79 L 18.14 272.41 L 27.22 271.03 L 36.29 269.65 L 45.36 268.28 L 54.43 266.90 L 63.51 265.52 L 72.58 264.15 L 81.65 262.77 L 90.72 261.39 L 99.80 260.01 L 108.87 258.64 L 117.94 257.26 L 127.01 255.88 L 136.09 254.50 L 145.16 253.13 L 154.23 251.75 L 163.30 250.37 L 172.37 248.99 L 181.45 247.62 L 190.52 246.24 L 199.59 244.86 L 208.66 243.49 L 217.74 242.11 L 226.81 240.73 L 235.88 239.35 L 244.95 237.98 L 254.03 236.60 L 263.10 235.22 L 272.17 233.84 L 281.24 232.47 L 290.32 231.09 L 299.39 229.71 L 308.46 228.34 L 317.53 226.96 L 326.61 225.58 L 335.68 224.20 L 344.75 222.83 L 353.82 221.45 L 362.89 220.07 L 371.97 218.69 L 381.04 217.32 L 390.11 215.94 L 399.18 214.56 L 408.26 213.18 L 417.33 211.81 L 426.40 210.43 L 435.47 209.05 L 444.55 207.68 L 453.62 206.30 L 462.69 204.92 L 471.76 203.54 L 480.84 202.17 L 489.91 200.79 L 498.98 199.41 L 508.05 198.03 L 517.12 196.66 L 526.20 195.28 L 535.27 193.90 L 544.34 192.52 L 553.41 191.15 L 562.49 189.77 L 571.56 188.39 L 580.63 187.02 L 589.70 185.64 L 598.78 184.26 L 607.85 182.88 L 616.92 181.51 L 625.99 180.13 L 635.07 178.75 L 644.14 177.37 L 653.21 176.00 L 662.28 174.62 L 671.35 173.24 L 680.43 171.86 L 689.50 170.49 L 698.57 169.11 L 707.64 167.73 L 716.72 166.36 L 725.79 164.98 L 734.86 163.60 L 743.93 162.22 L 753.01 160.85 L 762.08 159.47 L 771.15 158.09 L 780.22 156.71 L 789.30 155.34 L 798.37 153.96 L 807.44 152.58 L 816.51 151.20 L 825.58 149.83 L 834.66 148.45 L 843.73 147.07 L 852.80 145.70 L 861.87 144.32 L 870.95 142.94 L 880.02 141.56 L 889.09 140.19 L 898.16 138.81 L 907.24 137.43 L 916.31 136.05 L 925.38 134.68 L 934.45 133.30 L 943.53 131.92 L 952.60 130.54 L 961.67 129.17 L 970.74 127.79 L 979.82 126.41 L 988.89 125.04 L 997.96 123.66 L 1007.03 122.28 L 1016.10 120.90 L 1025.18 119.53 L 1034.25 118.15 L 1043.32 116.77 L 1052.39 115.39 L 1061.47 114.02 L 1070.54 112.64 L 1079.61 111.26 L 1088.68 109.89 L 1097.76 108.51 L 1106.83 107.13 L 1115.90 105.75 L 1124.97 104.38 L 1134.05 103.00 L 1143.12 101.62 L 1152.19 100.24 L 1161.26 98.87 L 1170.33 97.49 L 1179.41 96.11 L 1188.48 94.73 L 1197.55 93.36 L 1206.62 91.98 L 1215.70 90.60 L 1224.77 89.23 L 1233.84 87.85 L 1242.91 86.47 L 1251.99 85.09 L 1261.06 83.72 L 1270.13 82.34 L 1279.20 80.96 L 1288.28 79.58 L 1297.35 78.21 L 1306.42 76.83 L 1315.49 75.45 L 1324.56 74.07 L 1333.64 72.70 L 1342.71 71.32 L 1351.78 69.94 L 1360.85 68.57 L 1369.93 67.19 L 1379.00 65.81 L 1388.07 64.43 L 1397.14 63.06 L 1406.22 61.68 L 1415.29 60.30 L 1424.36 58.92 L 1433.43 57.55 L 1442.51 56.17 L 1451.58 54.79 L 1460.65 53.41 L 1469.72 52.04 L 1478.80 50.66 L 1487.87 49.28 L 1496.94 47.91 L 1506.01 46.53 L 1515.08 45.15 L 1524.16 43.77 L 1533.23 42.40 L 1542.30 41.02 L 1551.37 39.64 L 1560.45 38.26 L 1569.52 36.89 L 1578.59 35.51 L 1587.66 34.13 L 1596.74 32.75 L 1605.81 31.38 L 1614.88 30.00 L 1623.95 28.62 L 1623.95 -28.62 L 1614.88 -30.00 L 1605.81 -31.38 L 1596.74 -32.75 L 1587.66 -34.13 L 1578.59 -35.51 L 1569.52 -36.89 L 1560.45 -38.26 L 1551.37 -39.64 L 1542.30 -41.02 L 1533.23 -42.40 L 1524.16 -43.77 L 1515.08 -45.15 L 1506.01 -46.53 L 1496.94 -47.91 L 1487.87 -49.28 L 1478.80 -50.66 L 1469.72 -52.04 L 1460.65 -53.41 L 1451.58 -54.79 L 1442.51 -56.17 L 1433.43 -57.55 L 1424.36 -58.92 L 1415.29 -60.30 L 1406.22 -61.68 L 1397.14 -63.06 L 1388.07 -64.43 L 1379.00 -65.81 L 1369.93 -67.19 L 1360.85 -68.57 L 1351.78 -69.94 L 1342.71 -71.32 L 1333.64 -72.70 L 1324.56 -74.07 L 1315.49 -75.45 L 1306.42 -76.83 L 1297.35 -78.21 L 1288.28 -79.58 L 1279.20 -80.96 L 1270.13 -82.34 L 1261.06 -83.72 L 1251.99 -85.09 L 1242.91 -86.47 L 1233.84 -87.85 L 1224.77 -89.23 L 1215.70 -90.60 L 1206.62 -91.98 L 1197.55 -93.36 L 1188.48 -94.73 L 1179.41 -96.11 L 1170.33 -97.49 L 1161.26 -98.87 L 1152.19 -100.24 L 1143.12 -101.62 L 1134.05 -103.00 L 1124.97 -104.38 L 1115.90 -105.75 L 1106.83 -107.13 L 1097.76 -108.51 L 1088.68 -109.89 L 1079.61 -111.26 L 1070.54 -112.64 L 1061.47 -114.02 L 1052.39 -115.39 L 1043.32 -116.77 L 1034.25 -118.15 L 1025.18 -119.53 L 1016.10 -120.90 L 1007.03 -122.28 L 997.96 -123.66 L 988.89 -125.04 L 979.82 -126.41 L 970.74 -127.79 L 961.67 -129.17 L 952.60 -130.54 L 943.53 -131.92 L 934.45 -133.30 L 925.38 -134.68 L 916.31 -136.05 L 907.24 -137.43 L 898.16 -138.81 L 889.09 -140.19 L 880.02 -141.56 L 870.95 -142.94 L 861.87 -144.32 L 852.80 -145.70 L 843.73 -147.07 L 834.66 -148.45 L 825.58 -149.83 L 816.51 -151.20 L 807.44 -152.58 L 798.37 -153.96 L 789.30 -155.34 L 780.22 -156.71 L 771.15 -158.09 L 762.08 -159.47 L 753.01 -160.85 L 743.93 -162.22 L 734.86 -163.60 L 725.79 -164.98 L 716.72 -166.36 L 707.64 -167.73 L 698.57 -169.11 L 689.50 -170.49 L 680.43 -171.86 L 671.35 -173.24 L 662.28 -174.62 L 653.21 -176.00 L 644.14 -177.37 L 635.07 -178.75 L 625.99 -180.13 L 616.92 -181.51 L 607.85 -182.88 L 598.78 -184.26 L 589.70 -185.64 L 580.63 -187.02 L 571.56 -188.39 L 562.49 -189.77 L 553.41 -191.15 L 544.34 -192.52 L 535.27 -193.90 L 526.20 -195.28 L 517.12 -196.66 L 508.05 -198.03 L 498.98 -199.41 L 489.91 -200.79 L 480.84 -202.17 L 471.76 -203.54 L 462.69 -204.92 L 453.62 -206.30 L 444.55 -207.68 L 435.47 -209.05 L 426.40 -210.43 L 417.33 -211.81 L 408.26 -213.18 L 399.18 -214.56 L 390.11 -215.94 L 381.04 -217.32 L 371.97 -218.69 L 362.89 -220.07 L 353.82 -221.45 L 344.75 -222.83 L 335.68 -224.20 L 326.61 -225.58 L 317.53 -226.96 L 308.46 -228.34 L 299.39 -229.71 L 290.32 -231.09 L 281.24 -232.47 L 272.17 -233.84 L 263.10 -235.22 L 254.03 -236.60 L 244.95 -237.98 L 235.88 -239.35 L 226.81 -240.73 L 217.74 -242.11 L 208.66 -243.49 L 199.59 -244.86 L 190.52 -246.24 L 181.45 -247.62 L 172.37 -248.99 L 163.30 -250.37 L 154.23 -251.75 L 145.16 -253.13 L 136.09 -254.50 L 127.01 -255.88 L 117.94 -257.26 L 108.87 -258.64 L 99.80 -260.01 L 90.72 -261.39 L 81.65 -262.77 L 72.58 -264.15 L 63.51 -265.52 L 54.43 -266.90 L 45.36 -268.28 L 36.29 -269.65 L 27.22 -271.03 L 18.14 -272.41 L 9.07 -273.79 L 0.00 -275.16 L 0.00 275.16" fill="#e4d4b5" fill-opacity="0.7" stroke="#222" stroke-width="1.5"/>
<line x1="0.00" y1="0" x2="1623.95" y2="0" stroke="#0a7" stroke-width="1.0"/>
<circle cx="0.00" cy="0" r="0.9" fill="#c00000"/>
<circle cx="45.55" cy="0" r="0.9" fill="#888"/>
<circle cx="90.94" cy="0" r="0.9" fill="#888"/>
<circle cx="136.21" cy="0" r="0.9" fill="#1060d0"/>
<circle cx="181.39" cy="0" r="0.9" fill="#888"/>
<circle cx="226.47" cy="0" r="0.9" fill="#888"/>
<circle cx="271.47" cy="0" r="0.9" fill="#888"/>
<circle cx="316.37" cy="0" r="0.9" fill="#c00000"/>
<circle cx="361.19" cy="0" r="0.9" fill="#888"/>
<circle cx="405.83" cy="0" r="0.9" fill="#888"/>
<circle cx="450.34" cy="0" r="0.9" fill="#1060d0"/>
<circle cx="494.65" cy="0" r="0.9" fill="#888"/>
<circle cx="540.42" cy="0" r="0.9" fill="#888"/>
<circle cx="587.45" cy="0" r="0.9" fill="#888"/>
<circle cx="634.12" cy="0" r="0.9" fill="#c00000"/>
<circle cx="680.36" cy="0" r="0.9" fill="#888"/>
<circle cx="725.79" cy="0" r="0.9" fill="#888"/>
<circle cx="770.48" cy="0" r="0.9" fill="#1060d0"/>
<circle cx="814.49" cy="0" r="0.9" fill="#888"/>
<circle cx="857.61" cy="0" r="0.9" fill="#888"/>
<circle cx="899.65" cy="0" r="0.9" fill="#888"/>
<circle cx="940.57" cy="0" r="0.9" fill="#c00000"/>
<circle cx="980.35" cy="0" r="0.9" fill="#888"/>
<circle cx="1018.77" cy="0" r="0.9" fill="#888"/>
<circle cx="1055.92" cy="0" r="0.9" fill="#1060d0"/>
<circle cx="1091.75" cy="0" r="0.9" fill="#888"/>
<circle cx="1126.19" cy="0" r="0.9" fill="#888"/>
<circle cx="1159.21" cy="0" r="0.9" fill="#888"/>
<circle cx="1190.89" cy="0" r="0.9" fill="#c00000"/>
<circle cx="1221.33" cy="0" r="0.9" fill="#888"/>
<circle cx="1250.62" cy="0" r="0.9" fill="#888"/>
<circle cx="1278.80" cy="0" r="0.9" fill="#1060d0"/>
<circle cx="1305.99" cy="0" r="0.9" fill="#888"/>
<circle cx="1332.20" cy="0" r="0.9" fill="#888"/>
<circle cx="1357.59" cy="0" r="0.9" fill="#888"/>
<circle cx="1382.34" cy="0" r="0.9" fill="#c00000"/>
<circle cx="1406.47" cy="0" r="0.9" fill="#888"/>
<circle cx="1430.01" cy="0" r="0.9" fill="#888"/>
<circle cx="1453.06" cy="0" r="0.9" fill="#1060d0"/>
<circle cx="1475.65" cy="0" r="0.9" fill="#888"/>
<circle cx="1497.79" cy="0" r="0.9" fill="#888"/>
<circle cx="1519.53" cy="0" r="0.9" fill="#888"/>
<circle cx="1540.94" cy="0" r="0.9" fill="#c00000"/>
<circle cx="1562.04" cy="0" r="0.9" fill="#888"/>
<circle cx="1582.88" cy="0" r="0.9" fill="#888"/>
<circle cx="1603.50" cy="0" r="0.9" fill="#1060d0"/>
<circle cx="1623.95" cy="0" r="0.9" fill="#888"/>
</g>
</svg>