<svg xmlns="http://www.w3.org/2000/svg" viewBox="0 0 1147.8 2029.4" width="1147.8" height="2029.4">
  <polygon points="279.39,1969.39 307.38,1969.39 129.34,519.39 87.99,182.61 60.00,182.61 101.35,519.39" fill="#bbb" fill-opacity="0.30" stroke="#666" stroke-width="0.8"/>
  <circle cx="122.87" cy="151.66" r="8.0" fill="#c00000" fill-opacity="0.13" stroke="none"/>
  <circle cx="144.72" cy="329.62" r="8.0" fill="#1060d0" fill-opacity="0.13" stroke="none"/>
  <circle cx="145.84" cy="177.84" r="8.0" fill="#c00000" fill-opacity="0.13" stroke="none"/>
  <circle cx="166.76" cy="348.16" r="8.0" fill="#1060d0" fill-opacity="0.13" stroke="none"/>
  <circle cx="168.60" cy="203.17" r="8.0" fill="#c00000" fill-opacity="0.13" stroke="none"/>
  <circle cx="188.60" cy="366.04" r="8.0" fill="#1060d0" fill-opacity="0.13" stroke="none"/>
  <circle cx="186.75" cy="191.67" r="8.0" fill="#c00000" fill-opacity="0.13" stroke="none"/>
  <circle cx="206.34" cy="351.18" r="8.0" fill="#1060d0" fill-opacity="0.13" stroke="none"/>
  <circle cx="207.44" cy="201.40" r="8.0" fill="#c00000" fill-opacity="0.13" stroke="none"/>
  <circle cx="226.32" cy="355.14" r="8.0" fill="#1060d0" fill-opacity="0.13" stroke="none"/>
  <circle cx="228.07" cy="211.21" r="8.0" fill="#c00000" fill-opacity="0.13" stroke="none"/>
  <circle cx="246.24" cy="359.20" r="8.0" fill="#1060d0" fill-opacity="0.13" stroke="none"/>
  <circle cx="239.61" cy="147.44" r="8.0" fill="#c00000" fill-opacity="0.13" stroke="none"/>
  <circle cx="258.06" cy="297.71" r="8.0" fill="#1060d0" fill-opacity="0.13" stroke="none"/>
  <circle cx="254.97" cy="115.32" r="8.0" fill="#c00000" fill-opacity="0.13" stroke="none"/>
  <circle cx="273.29" cy="264.50" r="8.0" fill="#1060d0" fill-opacity="0.13" stroke="none"/>
  <circle cx="277.40" cy="141.15" r="8.0" fill="#c00000" fill-opacity="0.13" stroke="none"/>
  <circle cx="294.79" cy="282.78" r="8.0" fill="#1060d0" fill-opacity="0.13" stroke="none"/>
  <circle cx="299.75" cy="167.03" r="8.0" fill="#c00000" fill-opacity="0.13" stroke="none"/>
  <circle cx="316.24" cy="301.32" r="8.0" fill="#1060d0" fill-opacity="0.13" stroke="none"/>
  <circle cx="317.56" cy="156.32" r="8.0" fill="#c00000" fill-opacity="0.13" stroke="none"/>
  <circle cx="333.62" cy="287.14" r="8.0" fill="#1060d0" fill-opacity="0.13" stroke="none"/>
  <circle cx="337.89" cy="166.84" r="8.0" fill="#c00000" fill-opacity="0.13" stroke="none"/>
  <circle cx="353.25" cy="291.90" r="8.0" fill="#1060d0" fill-opacity="0.13" stroke="none"/>
  <circle cx="358.07" cy="170.73" r="8.0" fill="#c00000" fill-opacity="0.13" stroke="none"/>
  <circle cx="372.79" cy="290.63" r="8.0" fill="#1060d0" fill-opacity="0.13" stroke="none"/>
  <circle cx="378.67" cy="173.33" r="8.0" fill="#c00000" fill-opacity="0.13" stroke="none"/>
  <circle cx="392.76" cy="288.07" r="8.0" fill="#1060d0" fill-opacity="0.13" stroke="none"/>
  <circle cx="399.88" cy="181.66" r="8.0" fill="#c00000" fill-opacity="0.13" stroke="none"/>
  <circle cx="413.26" cy="290.64" r="8.0" fill="#1060d0" fill-opacity="0.13" stroke="none"/>
  <circle cx="420.39" cy="185.17" r="8.0" fill="#c00000" fill-opacity="0.13" stroke="none"/>
  <circle cx="433.14" cy="288.99" r="8.0" fill="#1060d0" fill-opacity="0.13" stroke="none"/>
  <circle cx="440.76" cy="189.48" r="8.0" fill="#c00000" fill-opacity="0.13" stroke="none"/>
  <circle cx="452.88" cy="288.14" r="8.0" fill="#1060d0" fill-opacity="0.13" stroke="none"/>
  <circle cx="461.04" cy="194.44" r="8.0" fill="#c00000" fill-opacity="0.13" stroke="none"/>
  <circle cx="472.52" cy="287.94" r="8.0" fill="#1060d0" fill-opacity="0.13" stroke="none"/>
  <circle cx="481.28" cy="200.21" r="8.0" fill="#c00000" fill-opacity="0.13" stroke="none"/>
  <circle cx="492.12" cy="288.55" r="8.0" fill="#1060d0" fill-opacity="0.13" stroke="none"/>
  <circle cx="500.81" cy="201.63" r="8.0" fill="#c00000" fill-opacity="0.13" stroke="none"/>
  <circle cx="511.09" cy="285.40" r="8.0" fill="#1060d0" fill-opacity="0.13" stroke="none"/>
  <circle cx="518.94" cy="193.65" r="8.0" fill="#c00000" fill-opacity="0.13" stroke="none"/>
  <circle cx="528.80" cy="273.95" r="8.0" fill="#1060d0" fill-opacity="0.13" stroke="none"/>
  <circle cx="538.30" cy="197.35" r="8.0" fill="#c00000" fill-opacity="0.13" stroke="none"/>
  <circle cx="547.59" cy="272.98" r="8.0" fill="#1060d0" fill-opacity="0.13" stroke="none"/>
  <circle cx="556.95" cy="196.90" r="8.0" fill="#c00000" fill-opacity="0.13" stroke="none"/>
  <circle cx="565.76" cy="268.66" r="8.0" fill="#1060d0" fill-opacity="0.13" stroke="none"/>
  <circle cx="575.52" cy="197.96" r="8.0" fill="#c00000" fill-opacity="0.13" stroke="none"/>
  <circle cx="583.83" cy="265.66" r="8.0" fill="#1060d0" fill-opacity="0.13" stroke="none"/>
  <circle cx="594.06" cy="200.38" r="8.0" fill="#c00000" fill-opacity="0.13" stroke="none"/>
  <circle cx="601.87" cy="264.00" r="8.0" fill="#1060d0" fill-opacity="0.13" stroke="none"/>
  <circle cx="611.93" cy="198.96" r="8.0" fill="#c00000" fill-opacity="0.13" stroke="none"/>
  <circle cx="619.32" cy="259.20" r="8.0" fill="#1060d0" fill-opacity="0.13" stroke="none"/>
  <circle cx="629.74" cy="199.03" r="8.0" fill="#c00000" fill-opacity="0.13" stroke="none"/>
  <circle cx="636.71" cy="255.80" r="8.0" fill="#1060d0" fill-opacity="0.13" stroke="none"/>
  <circle cx="646.85" cy="195.36" r="8.0" fill="#c00000" fill-opacity="0.13" stroke="none"/>
  <circle cx="653.47" cy="249.26" r="8.0" fill="#1060d0" fill-opacity="0.13" stroke="none"/>
  <circle cx="666.48" cy="214.11" r="8.0" fill="#c00000" fill-opacity="0.13" stroke="none"/>
  <circle cx="672.48" cy="262.95" r="8.0" fill="#1060d0" fill-opacity="0.13" stroke="none"/>
  <circle cx="684.17" cy="218.54" r="8.0" fill="#c00000" fill-opacity="0.13" stroke="none"/>
  <circle cx="689.74" cy="263.90" r="8.0" fill="#1060d0" fill-opacity="0.13" stroke="none"/>
  <circle cx="701.83" cy="224.28" r="8.0" fill="#c00000" fill-opacity="0.13" stroke="none"/>
  <circle cx="706.98" cy="266.16" r="8.0" fill="#1060d0" fill-opacity="0.13" stroke="none"/>
  <circle cx="718.82" cy="225.98" r="8.0" fill="#c00000" fill-opacity="0.13" stroke="none"/>
  <circle cx="723.61" cy="264.99" r="8.0" fill="#1060d0" fill-opacity="0.13" stroke="none"/>
  <circle cx="735.15" cy="223.56" r="8.0" fill="#c00000" fill-opacity="0.13" stroke="none"/>
  <circle cx="739.65" cy="260.29" r="8.0" fill="#1060d0" fill-opacity="0.13" stroke="none"/>
  <circle cx="752.06" cy="227.51" r="8.0" fill="#c00000" fill-opacity="0.13" stroke="none"/>
  <circle cx="756.21" cy="261.35" r="8.0" fill="#1060d0" fill-opacity="0.13" stroke="none"/>
  <circle cx="768.92" cy="232.31" r="8.0" fill="#c00000" fill-opacity="0.13" stroke="none"/>
  <circle cx="772.74" cy="263.37" r="8.0" fill="#1060d0" fill-opacity="0.13" stroke="none"/>
  <circle cx="786.48" cy="243.25" r="8.0" fill="#c00000" fill-opacity="0.13" stroke="none"/>
  <circle cx="789.87" cy="270.84" r="8.0" fill="#1060d0" fill-opacity="0.13" stroke="none"/>
  <circle cx="803.39" cy="249.67" r="8.0" fill="#c00000" fill-opacity="0.13" stroke="none"/>
  <circle cx="806.42" cy="274.38" r="8.0" fill="#1060d0" fill-opacity="0.13" stroke="none"/>
  <circle cx="819.62" cy="251.53" r="8.0" fill="#c00000" fill-opacity="0.13" stroke="none"/>
  <circle cx="822.36" cy="273.87" r="8.0" fill="#1060d0" fill-opacity="0.13" stroke="none"/>
  <circle cx="835.47" cy="250.82" r="8.0" fill="#c00000" fill-opacity="0.13" stroke="none"/>
  <circle cx="837.98" cy="271.27" r="8.0" fill="#1060d0" fill-opacity="0.13" stroke="none"/>
  <circle cx="850.77" cy="246.50" r="8.0" fill="#c00000" fill-opacity="0.13" stroke="none"/>
  <circle cx="853.10" cy="265.46" r="8.0" fill="#1060d0" fill-opacity="0.13" stroke="none"/>
  <circle cx="866.03" cy="242.71" r="8.0" fill="#c00000" fill-opacity="0.13" stroke="none"/>
  <circle cx="868.16" cy="260.08" r="8.0" fill="#1060d0" fill-opacity="0.13" stroke="none"/>
  <circle cx="880.85" cy="236.21" r="8.0" fill="#c00000" fill-opacity="0.13" stroke="none"/>
  <circle cx="882.85" cy="252.49" r="8.0" fill="#1060d0" fill-opacity="0.13" stroke="none"/>
  <circle cx="895.90" cy="232.20" r="8.0" fill="#c00000" fill-opacity="0.13" stroke="none"/>
  <circle cx="897.73" cy="247.09" r="8.0" fill="#1060d0" fill-opacity="0.13" stroke="none"/>
  <circle cx="910.91" cy="228.56" r="8.0" fill="#c00000" fill-opacity="0.13" stroke="none"/>
  <circle cx="912.56" cy="242.06" r="8.0" fill="#1060d0" fill-opacity="0.13" stroke="none"/>
  <circle cx="926.03" cy="226.33" r="8.0" fill="#c00000" fill-opacity="0.13" stroke="none"/>
  <circle cx="927.50" cy="238.34" r="8.0" fill="#1060d0" fill-opacity="0.13" stroke="none"/>
  <circle cx="941.12" cy="224.27" r="8.0" fill="#c00000" fill-opacity="0.13" stroke="none"/>
  <circle cx="942.42" cy="234.89" r="8.0" fill="#1060d0" fill-opacity="0.13" stroke="none"/>
  <circle cx="956.87" cy="227.79" r="8.0" fill="#c00000" fill-opacity="0.13" stroke="none"/>
  <circle cx="957.91" cy="236.33" r="8.0" fill="#1060d0" fill-opacity="0.13" stroke="none"/>
  <path d="M 323.13,1782.61 C 648.42,811.47 673.63,640.02 966.42,305.61" fill="none" stroke="#0a7" stroke-width="1.2"/>
  <line x1="966.42" y1="305.61" x2="995.48" y2="272.42" stroke="#0a7" stroke-width="0.9" stroke-dasharray="4,3"/>
  <line x1="323.13" y1="1782.61" x2="292.88" y2="1872.92" stroke="#0a7" stroke-width="0.9" stroke-dasharray="4,3"/>
  <path d="M 1054.19,271.35 C 1054.19,557.10 898.81,821.35 815.87,1094.80" fill="none" stroke="#a000a0" stroke-width="1.0" opacity="0.85"/>
  <path d="M 815.87,1094.80 C 727.43,1386.33 550.57,1664.74 550.57,1969.39" fill="none" stroke="#a000a0" stroke-width="1.0" opacity="0.85"/>
  <path d="M 550.57,1969.39 C 453.90,1969.39 357.23,1969.39 260.57,1969.39" fill="none" stroke="#a000a0" stroke-width="0.9" stroke-dasharray="4,3" opacity="0.75"/>
  <line x1="992.84" y1="275.43" x2="1070.36" y2="321.06" stroke="#cc0000" stroke-width="1.0" stroke-dasharray="4,3" opacity="0.7"/>
  <line x1="966.42" y1="305.61" x2="1036.39" y2="366.87" stroke="#cc0000" stroke-width="1.0" stroke-dasharray="4,3" opacity="0.7"/>
  <line x1="323.13" y1="1782.61" x2="598.15" y2="1874.73" stroke="#cc0000" stroke-width="1.0" stroke-dasharray="4,3" opacity="0.7"/>
  <line x1="313.97" y1="1808.61" x2="586.33" y2="1908.20" stroke="#cc0000" stroke-width="1.0" stroke-dasharray="4,3" opacity="0.7"/>
  <path d="M 323.13,1782.61 C 302.28,1844.87 260.57,1939.39 260.57,1969.39" fill="none" stroke="#0a7" stroke-width="0.9" opacity="0.7"/>
  <path id="neck_path" d="m 60,182.61 c -4.393903,-51.45235 71.91728,-70.41782 188.41721,-79.02873 116.49993,-8.610901 204.48291,66.60498 319.88811,76.04312 115.4052,9.43814 572.36508,-29.99593 495.91468,137.78561 -7.7891,18.62288 -27.92,49.38 -27.92,49.38 l -69.88,-61.18 c 0,0 45.4587,-56.55847 -0.99617,-56.16435 -46.45484,0.39413 -76.82324,32.41012 -129.04324,36.16012 -78.45,5.64 -198.56256,1.47156 -315.43184,12.91793 C 404.07948,309.97007 207.03693,369.89 120.42259,449.09066 110.75442,363.02684 101.76517,276.34015 87.99,182.61 c 0,0 -17.96973,0.1146 -27.99,0 z" fill="none" stroke="#1060d0" stroke-width="2.0" opacity="0.85"/>
  <text x="65.0" y="179.6" font-family="sans-serif" font-size="9" font-weight="600" fill="#cc0000">K1 col-top</text>
  <text x="419.2" y="80.4" font-family="sans-serif" font-size="9" font-weight="600" fill="#000000">K2</text>
  <text x="728.2" y="94.4" font-family="sans-serif" font-size="9" font-weight="600" fill="#000000">K3</text>
  <text x="941.2" y="154.9" font-family="sans-serif" font-size="9" font-weight="600" fill="#000000">K4 (above F7)</text>
  <text x="1059.2" y="268.3" font-family="sans-serif" font-size="9" font-weight="600" fill="#000000">K5/U1 BN shoulder</text>
  <text x="1075.4" y="318.1" font-family="sans-serif" font-size="9" font-weight="600" fill="#cc0000">U't</text>
  <text x="1014.4" y="375.9" font-family="sans-serif" font-size="9" font-weight="600" fill="#cc0000">Ut</text>
  <text x="944.4" y="302.6" font-family="sans-serif" font-size="9" font-weight="600" fill="#cc0000">St (G7g)</text>
  <text x="997.8" y="272.4" font-family="sans-serif" font-size="9" font-weight="600" fill="#cc0000">S't (phantom)</text>
  <text x="844.1" y="304.5" font-family="sans-serif" font-size="9" font-weight="600" fill="#000000">K7</text>
  <text x="608.1" y="300.4" font-family="sans-serif" font-size="9" font-weight="600" fill="#000000">K8</text>
  <text x="106.3" y="523.4" font-family="sans-serif" font-size="9" font-weight="600" fill="#cc0000">K9 col-bot</text>
</svg>
