<?xml version="1.0" encoding="UTF-8"?>
<svg xmlns="http://www.w3.org/2000/svg" viewBox="-317.2 -1956.8 634.3 2018.8" width="900" height="2864" font-family="sans-serif" font-size="12">
<rect x="-317.2" y="-1956.8" width="634.3" height="2018.8" fill="#fff"/>
<rect x="-305.2" y="-1916.8" width="610.3" height="1966.8" fill="none" stroke="#ccc" stroke-width="0.6"/>
<text x="-295.2" y="-1928.8" font-family="sans-serif" font-size="22" font-weight="bold" fill="#000">REAR (yz, look -x)</text>
<g transform="scale(1,-1)">
<g transform="scale(-1,1)">
<path d="M 139.87 34.95 L 186.31 48.93 L 224.09 62.92 L 251.83 76.90 L 268.85 90.88 L 275.16 104.86 L 274.50 118.84 L 272.43 132.82 L 270.37 146.80 L 268.30 160.79 L 266.23 174.77 L 264.17 188.75 L 262.10 202.73 L 260.03 216.71 L 257.97 230.69 L 255.90 244.67 L 253.83 258.65 L 251.77 272.64 L 249.70 286.62 L 247.63 300.60 L 245.57 314.58 L 242.02 328.56 L 239.94 342.54 L 237.87 356.52 L 235.80 370.51 L 233.73 384.49 L 231.66 398.47 L 229.59 412.45 L 227.51 426.43 L 225.44 440.41 L 223.37 454.39 L 221.30 468.37 L 219.23 482.36 L 217.15 496.34 L 215.08 510.32 L 213.01 524.30 L 210.43 538.28 L 208.36 552.26 L 206.30 566.24 L 204.23 580.23 L 202.16 594.21 L 200.10 608.19 L 198.03 622.17 L 195.96 636.15 L 193.90 650.13 L 191.83 664.11 L 189.76 678.09 L 186.08 692.08 L 184.01 706.06 L 181.93 720.04 L 179.86 734.02 L 177.79 748.00 L 175.72 761.98 L 173.65 775.96 L 171.58 789.95 L 169.50 803.93 L 167.43 817.91 L 165.36 831.89 L 163.29 845.87 L 161.22 859.85 L 159.14 873.83 L 156.69 887.81 L 154.63 901.80 L 152.56 915.78 L 150.49 929.76 L 148.43 943.74 L 146.36 957.72 L 142.70 971.70 L 140.65 985.68 L 138.61 999.67 L 136.57 1013.65 L 134.52 1027.63 L 132.21 1041.61 L 130.14 1055.59 L 128.07 1069.57 L 126.00 1083.55 L 123.92 1097.53 L 121.56 1111.52 L 119.49 1125.50 L 117.43 1139.48 L 114.08 1153.46 L 112.04 1167.44 L 110.00 1181.42 L 107.35 1195.40 L 105.28 1209.39 L 103.21 1223.37 L 101.13 1237.35 L 98.82 1251.33 L 96.76 1265.31 L 94.69 1279.29 L 91.60 1293.27 L 89.56 1307.25 L 86.63 1321.24 L 84.56 1335.22 L 82.49 1349.20 L 80.22 1363.18 L 77.29 1377.16 L 75.25 1391.14 L 72.13 1405.12 L 70.06 1419.11 L 67.99 1433.09 L 65.76 1447.07 L 62.99 1461.05 L 60.94 1475.03 L 57.76 1489.01 L 55.56 1502.99 L 53.36 1516.97 L 50.72 1530.96 L 47.74 1544.94 L 45.20 1558.92 L 43.13 1572.90 L 40.95 1586.88 L 38.46 1600.86 L 35.71 1614.84 L 32.77 1628.83 L 30.69 1642.81 L 28.24 1656.79 L -28.24 1656.79 L -30.69 1642.81 L -32.77 1628.83 L -35.71 1614.84 L -38.46 1600.86 L -40.95 1586.88 L -43.13 1572.90 L -45.20 1558.92 L -47.74 1544.94 L -50.72 1530.96 L -53.36 1516.97 L -55.56 1502.99 L -57.76 1489.01 L -60.94 1475.03 L -62.99 1461.05 L -65.76 1447.07 L -67.99 1433.09 L -70.06 1419.11 L -72.13 1405.12 L -75.25 1391.14 L -77.29 1377.16 L -80.22 1363.18 L -82.49 1349.20 L -84.56 1335.22 L -86.63 1321.24 L -89.56 1307.25 L -91.60 1293.27 L -94.69 1279.29 L -96.76 1265.31 L -98.82 1251.33 L -101.13 1237.35 L -103.21 1223.37 L -105.28 1209.39 L -107.35 1195.40 L -110.00 1181.42 L -112.04 1167.44 L -114.08 1153.46 L -117.43 1139.48 L -119.49 1125.50 L -121.56 1111.52 L -123.92 1097.53 L -126.00 1083.55 L -128.07 1069.57 L -130.14 1055.59 L -132.21 1041.61 L -134.52 1027.63 L -136.57 1013.65 L -138.61 999.67 L -140.65 985.68 L -142.70 971.70 L -146.36 957.72 L -148.43 943.74 L -150.49 929.76 L -152.56 915.78 L -154.63 901.80 L -156.69 887.81 L -159.14 873.83 L -161.22 859.85 L -163.29 845.87 L -165.36 831.89 L -167.43 817.91 L -169.50 803.93 L -171.58 789.95 L -173.65 775.96 L -175.72 761.98 L -177.79 748.00 L -179.86 734.02 L -181.93 720.04 L -184.01 706.06 L -186.08 692.08 L -189.76 678.09 L -191.83 664.11 L -193.90 650.13 L -195.96 636.15 L -198.03 622.17 L -200.10 608.19 L -202.16 594.21 L -204.23 580.23 L -206.30 566.24 L -208.36 552.26 L -210.43 538.28 L -213.01 524.30 L -215.08 510.32 L -217.15 496.34 L -219.23 482.36 L -221.30 468.37 L -223.37 454.39 L -225.44 440.41 L -227.51 426.43 L -229.59 412.45 L -231.66 398.47 L -233.73 384.49 L -235.80 370.51 L -237.87 356.52 L -239.94 342.54 L -242.02 328.56 L -245.57 314.58 L -247.63 300.60 L -249.70 286.62 L -251.77 272.64 L -253.83 258.65 L -255.90 244.67 L -257.97 230.69 L -260.03 216.71 L -262.10 202.73 L -264.17 188.75 L -266.23 174.77 L -268.30 160.79 L -270.37 146.80 L -272.43 132.82 L -274.50 118.84 L -275.16 104.86 L -268.85 90.88 L -251.83 76.90 L -224.09 62.92 L -186.31 48.93 L -139.87 34.95 L 139.87 34.95" fill="#e4d4b5" fill-opacity="0.7" stroke="#222" stroke-width="1.5"/>
<path d="M 0.00 -2.87 L 31.65 -2.87 L 62.92 -2.87 L 93.41 -2.87 L 122.76 -2.87 L 150.62 -2.87 L 176.68 -2.87 L 200.64 -2.87 L 222.26 -2.87 L 241.33 -2.87 L 257.68 -2.87 L 271.20 -2.87 L 281.82 -2.87 L 289.53 -2.87 L 294.34 -2.87 L 296.33 -2.87 L 295.62 -2.87 L 292.35 -2.87 L 286.71 -2.87 L 278.93 -2.87 L 269.23 -2.87 L 257.87 -2.87 L 245.12 -2.87 L 231.23 -2.87 L 216.49 -2.87 L 201.14 -2.87 L 185.43 -2.87 L 169.58 -2.87 L 153.80 -2.87 L 138.25 -2.87 L 123.07 -2.87 L 108.37 -2.87 L 94.24 -2.87 L 80.70 -2.87 L 67.77 -2.87 L 55.44 -2.87 L 43.63 -2.87 L 32.29 -2.87 L 21.32 -2.87 L 10.59 -2.87 L 0.00 -2.87 L -10.59 -2.87 L -21.32 -2.87 L -32.29 -2.87 L -43.63 -2.87 L -55.44 -2.87 L -67.77 -2.87 L -80.70 -2.87 L -94.24 -2.87 L -108.37 -2.87 L -123.07 -2.87 L -138.25 -2.87 L -153.80 -2.87 L -169.58 -2.87 L -185.43 -2.87 L -201.14 -2.87 L -216.49 -2.87 L -231.23 -2.87 L -245.12 -2.87 L -257.87 -2.87 L -269.23 -2.87 L -278.93 -2.87 L -286.71 -2.87 L -292.35 -2.87 L -295.62 -2.87 L -296.33 -2.87 L -294.34 -2.87 L -289.53 -2.87 L -281.82 -2.87 L -271.20 -2.87 L -257.68 -2.87 L -241.33 -2.87 L -222.26 -2.87 L -200.64 -2.87 L -176.68 -2.87 L -150.62 -2.87 L -122.76 -2.87 L -93.41 -2.87 L -62.92 -2.87 L -31.65 -2.87 L 0.00 -2.87" fill="none" stroke="#b8862b" stroke-width="1.0" stroke-dasharray="4,3"/>
<line x1="-305.2" y1="0" x2="305.2" y2="0" stroke="#888" stroke-width="0.6" stroke-dasharray="4,3" opacity="0.7"/>
<line x1="0" y1="186.78" x2="0" y2="1817.73" stroke="#c00000" stroke-width="2.550" opacity="0.6" stroke-linecap="round"/>
<line x1="0" y1="401.67" x2="0" y2="1758.18" stroke="#888" stroke-width="1.938" opacity="0.6" stroke-linecap="round"/>
<line x1="0" y1="614.27" x2="0" y2="1813.07" stroke="#1060d0" stroke-width="1.547" opacity="0.6" stroke-linecap="round"/>
<line x1="0" y1="832.56" x2="0" y2="1784.22" stroke="#888" stroke-width="2.700" opacity="0.6" stroke-linecap="round"/>
<line x1="0" y1="1039.66" x2="0" y2="1775.74" stroke="#888" stroke-width="2.023" opacity="0.6" stroke-linecap="round"/>
<line x1="0" y1="1218.38" x2="0" y2="1770.43" stroke="#888" stroke-width="1.649" opacity="0.6" stroke-linecap="round"/>
<line x1="0" y1="1361.30" x2="0" y2="1745.11" stroke="#888" stroke-width="1.292" opacity="0.6" stroke-linecap="round"/>
<line x1="0" y1="1473.74" x2="0" y2="1726.14" stroke="#c00000" stroke-width="1.207" opacity="0.6" stroke-linecap="round"/>
<line x1="0" y1="1566.88" x2="0" y2="1726.68" stroke="#888" stroke-width="0.935" opacity="0.6" stroke-linecap="round"/>
<line x1="0" y1="1648.35" x2="0" y2="1745.12" stroke="#1060d0" stroke-width="0.714" opacity="0.6" stroke-linecap="round"/>
</g>
</g>
</svg>