<?xml version="1.0" encoding="UTF-8"?>
<svg xmlns="http://www.w3.org/2000/svg" viewBox="-59.8 -259.1 795.6 490.1" width="900" height="554" font-family="sans-serif" font-size="12">
<rect x="-59.8" y="-259.1" width="795.6" height="490.1" fill="#fff"/>
<rect x="-47.8" y="-219.1" width="771.6" height="438.1" fill="none" stroke="#ccc" stroke-width="0.6"/>
<text x="-37.8" y="-231.1" font-family="sans-serif" font-size="22" font-weight="bold" fill="#000">TOP (xy, look -z)</text>
<g transform="scale(1,-1)">
<path d="M 146.45 189.07 L 146.39 189.07 L 146.41 189.07 L 146.57 189.07 L 146.90 189.07 L 147.41 189.07 L 148.13 189.07 L 149.06 189.07 L 150.20 189.07 L 151.54 189.07 L 153.02 189.07 L 154.28 188.81 L 154.86 188.18 L 158.35 187.46 L 162.63 186.70 L 166.88 185.88 L 171.09 185.04 L 175.27 184.17 L 179.43 183.27 L 183.57 182.36 L 187.69 181.42 L 191.79 180.47 L 195.88 179.51 L 199.95 178.53 L 204.00 177.54 L 208.05 176.54 L 212.08 175.52 L 216.09 174.50 L 220.10 173.46 L 224.09 172.42 L 228.08 171.37 L 232.05 170.30 L 236.01 169.23 L 239.96 168.15 L 243.90 167.06 L 247.83 165.96 L 251.76 164.85 L 255.67 163.73 L 259.58 162.61 L 263.47 161.47 L 267.36 160.33 L 271.24 159.17 L 275.12 158.01 L 278.98 156.84 L 282.84 155.66 L 286.69 154.47 L 290.54 153.26 L 294.37 152.04 L 298.19 150.81 L 302.01 149.57 L 305.82 148.31 L 309.63 147.04 L 313.43 145.76 L 317.23 144.46 L 321.03 143.16 L 324.83 141.85 L 328.63 140.53 L 332.43 139.20 L 336.24 137.87 L 340.06 136.52 L 343.88 135.17 L 347.71 133.82 L 351.56 132.45 L 355.42 131.08 L 359.29 129.71 L 363.18 128.33 L 367.09 126.94 L 371.02 125.55 L 374.98 124.16 L 378.96 122.76 L 382.97 121.35 L 387.01 119.95 L 391.09 118.54 L 395.21 117.12 L 399.37 115.70 L 403.57 114.28 L 407.82 112.86 L 412.13 111.43 L 416.49 110.00 L 420.92 108.57 L 425.41 107.14 L 429.97 105.71 L 434.61 104.27 L 439.32 102.83 L 444.13 101.39 L 449.02 99.95 L 454.01 98.51 L 459.11 97.06 L 464.31 95.62 L 469.62 94.17 L 475.06 92.73 L 480.62 91.28 L 486.31 89.84 L 492.14 88.39 L 498.10 86.94 L 504.21 85.49 L 510.47 84.05 L 516.88 82.60 L 523.44 81.16 L 530.16 79.71 L 537.04 78.27 L 544.07 76.82 L 551.26 75.38 L 558.60 73.94 L 566.10 72.50 L 573.74 71.06 L 581.53 69.63 L 589.47 68.19 L 597.54 66.76 L 605.74 65.33 L 614.07 63.90 L 622.51 62.47 L 631.08 61.05 L 639.75 59.63 L 648.52 58.21 L 657.39 56.80 L 666.35 55.39 L 675.39 53.98 L 684.60 52.58 L 693.86 51.18 L 693.86 -51.18 L 684.60 -52.58 L 675.39 -53.98 L 666.35 -55.39 L 657.39 -56.80 L 648.52 -58.21 L 639.75 -59.63 L 631.08 -61.05 L 622.51 -62.47 L 614.07 -63.90 L 605.74 -65.33 L 597.54 -66.76 L 589.47 -68.19 L 581.53 -69.63 L 573.74 -71.06 L 566.10 -72.50 L 558.60 -73.94 L 551.26 -75.38 L 544.07 -76.82 L 537.04 -78.27 L 530.16 -79.71 L 523.44 -81.16 L 516.88 -82.60 L 510.47 -84.05 L 504.21 -85.49 L 498.10 -86.94 L 492.14 -88.39 L 486.31 -89.84 L 480.62 -91.28 L 475.06 -92.73 L 469.62 -94.17 L 464.31 -95.62 L 459.11 -97.06 L 454.01 -98.51 L 449.02 -99.95 L 444.13 -101.39 L 439.32 -102.83 L 434.61 -104.27 L 429.97 -105.71 L 425.41 -107.14 L 420.92 -108.57 L 416.49 -110.00 L 412.13 -111.43 L 407.82 -112.86 L 403.57 -114.28 L 399.37 -115.70 L 395.21 -117.12 L 391.09 -118.54 L 387.01 -119.95 L 382.97 -121.35 L 378.96 -122.76 L 374.98 -124.16 L 371.02 -125.55 L 367.09 -126.94 L 363.18 -128.33 L 359.29 -129.71 L 355.42 -131.08 L 351.56 -132.45 L 347.71 -133.82 L 343.88 -135.17 L 340.06 -136.52 L 336.24 -137.87 L 332.43 -139.20 L 328.63 -140.53 L 324.83 -141.85 L 321.03 -143.16 L 317.23 -144.46 L 313.43 -145.76 L 309.63 -147.04 L 305.82 -148.31 L 302.01 -149.57 L 298.19 -150.81 L 294.37 -152.04 L 290.54 -153.26 L 286.69 -154.47 L 282.84 -155.66 L 278.98 -156.84 L 275.12 -158.01 L 271.24 -159.17 L 267.36 -160.33 L 263.47 -161.47 L 259.58 -162.61 L 255.67 -163.73 L 251.76 -164.85 L 247.83 -165.96 L 243.90 -167.06 L 239.96 -168.15 L 236.01 -169.23 L 232.05 -170.30 L 228.08 -171.37 L 224.09 -172.42 L 220.10 -173.46 L 216.09 -174.50 L 212.08 -175.52 L 208.05 -176.54 L 204.00 -177.54 L 199.95 -178.53 L 195.88 -179.51 L 191.79 -180.47 L 187.69 -181.42 L 183.57 -182.36 L 179.43 -183.27 L 175.27 -184.17 L 171.09 -185.04 L 166.88 -185.88 L 162.63 -186.70 L 158.35 -187.46 L 154.86 -188.18 L 154.28 -188.81 L 153.02 -189.07 L 151.54 -189.07 L 150.20 -189.07 L 149.06 -189.07 L 148.13 -189.07 L 147.41 -189.07 L 146.90 -189.07 L 146.57 -189.07 L 146.41 -189.07 L 146.39 -189.07 L 146.45 -189.07 L 146.45 189.07" fill="#e4d4b5" fill-opacity="0.7" stroke="#222" stroke-width="1.5"/>
<path d="M 237.44 0.00 L 236.65 15.00 L 234.31 29.82 L 230.43 44.27 L 225.10 58.18 L 218.38 71.38 L 210.38 83.73 L 201.22 95.09 L 191.03 105.34 L 179.96 114.37 L 168.17 122.12 L 155.82 128.53 L 143.08 133.57 L 130.13 137.22 L 117.12 139.50 L 104.21 140.44 L 91.56 140.10 L 79.31 138.55 L 67.56 135.88 L 56.45 132.19 L 46.04 127.60 L 36.42 122.21 L 27.64 116.17 L 19.73 109.59 L 12.71 102.60 L 6.56 95.33 L 1.26 87.88 L -3.21 80.37 L -6.91 72.89 L -9.92 65.52 L -12.28 58.33 L -14.09 51.36 L -15.43 44.66 L -16.37 38.25 L -17.00 32.12 L -17.39 26.27 L -17.60 20.68 L -17.71 15.30 L -17.75 10.10 L -17.75 5.02 L -17.75 0.00 L -17.75 -5.02 L -17.75 -10.10 L -17.71 -15.30 L -17.60 -20.68 L -17.39 -26.27 L -17.00 -32.12 L -16.37 -38.25 L -15.43 -44.66 L -14.09 -51.36 L -12.28 -58.33 L -9.92 -65.52 L -6.91 -72.89 L -3.21 -80.37 L 1.26 -87.88 L 6.56 -95.33 L 12.71 -102.60 L 19.73 -109.59 L 27.64 -116.17 L 36.42 -122.21 L 46.04 -127.60 L 56.45 -132.19 L 67.56 -135.88 L 79.31 -138.55 L 91.56 -140.10 L 104.21 -140.44 L 117.12 -139.50 L 130.13 -137.22 L 143.08 -133.57 L 155.82 -128.53 L 168.17 -122.12 L 179.96 -114.37 L 191.03 -105.34 L 201.22 -95.09 L 210.38 -83.73 L 218.38 -71.38 L 225.10 -58.18 L 230.43 -44.27 L 234.31 -29.82 L 236.65 -15.00 L 237.44 0.00" fill="none" stroke="#b8862b" stroke-width="1.0" stroke-dasharray="4,3"/>
<line x1="0.00" y1="0" x2="643.29" y2="0" stroke="#0a7" stroke-width="1.0"/>
<circle cx="0.00" cy="0" r="0.9" fill="#c00000"/>
<circle cx="14.45" cy="0" r="0.9" fill="#888"/>
<circle cx="28.81" cy="0" r="0.9" fill="#888"/>
<circle cx="43.10" cy="0" r="0.9" fill="#1060d0"/>
<circle cx="57.33" cy="0" r="0.9" fill="#888"/>
<circle cx="71.50" cy="0" r="0.9" fill="#888"/>
<circle cx="85.62" cy="0" r="0.9" fill="#888"/>
<circle cx="99.69" cy="0" r="0.9" fill="#c00000"/>
<circle cx="113.72" cy="0" r="0.9" fill="#888"/>
<circle cx="127.69" cy="0" r="0.9" fill="#888"/>
<circle cx="141.62" cy="0" r="0.9" fill="#1060d0"/>
<circle cx="155.50" cy="0" r="0.9" fill="#888"/>
<circle cx="169.86" cy="0" r="0.9" fill="#888"/>
<circle cx="184.66" cy="0" r="0.9" fill="#888"/>
<circle cx="199.41" cy="0" r="0.9" fill="#c00000"/>
<circle cx="214.11" cy="0" r="0.9" fill="#888"/>
<circle cx="228.67" cy="0" r="0.9" fill="#888"/>
<circle cx="243.14" cy="0" r="0.9" fill="#1060d0"/>
<circle cx="257.57" cy="0" r="0.9" fill="#888"/>
<circle cx="271.93" cy="0" r="0.9" fill="#888"/>
<circle cx="286.19" cy="0" r="0.9" fill="#888"/>
<circle cx="300.38" cy="0" r="0.9" fill="#c00000"/>
<circle cx="314.52" cy="0" r="0.9" fill="#888"/>
<circle cx="328.57" cy="0" r="0.9" fill="#888"/>
<circle cx="342.59" cy="0" r="0.9" fill="#1060d0"/>
<circle cx="356.58" cy="0" r="0.9" fill="#888"/>
<circle cx="370.52" cy="0" r="0.9" fill="#888"/>
<circle cx="384.40" cy="0" r="0.9" fill="#888"/>
<circle cx="398.23" cy="0" r="0.9" fill="#c00000"/>
<circle cx="412.04" cy="0" r="0.9" fill="#888"/>
<circle cx="425.83" cy="0" r="0.9" fill="#888"/>
<circle cx="439.59" cy="0" r="0.9" fill="#1060d0"/>
<circle cx="453.33" cy="0" r="0.9" fill="#888"/>
<circle cx="467.01" cy="0" r="0.9" fill="#888"/>
<circle cx="480.66" cy="0" r="0.9" fill="#888"/>
<circle cx="494.34" cy="0" r="0.9" fill="#c00000"/>
<circle cx="508.02" cy="0" r="0.9" fill="#888"/>
<circle cx="521.67" cy="0" r="0.9" fill="#888"/>
<circle cx="535.32" cy="0" r="0.9" fill="#1060d0"/>
<circle cx="548.94" cy="0" r="0.9" fill="#888"/>
<circle cx="562.52" cy="0" r="0.9" fill="#888"/>
<circle cx="576.05" cy="0" r="0.9" fill="#888"/>
<circle cx="589.55" cy="0" r="0.9" fill="#c00000"/>
<circle cx="603.01" cy="0" r="0.9" fill="#888"/>
<circle cx="616.45" cy="0" r="0.9" fill="#888"/>
<circle cx="629.87" cy="0" r="0.9" fill="#1060d0"/>
<circle cx="643.29" cy="0" r="0.9" fill="#888"/>
<rect x="-17.75" y="-16.00" width="32.00" height="32.00" fill="#666" fill-opacity="0.3" stroke="#5d4037" stroke-width="0.6"/>
<ellipse cx="144.55" cy="0" rx="146.40" ry="163.00" fill="none" stroke="#a000a0" stroke-width="0.9" stroke-dasharray="3,2" opacity="0.85"/>
</g>
</svg>