<?xml version="1.0" encoding="UTF-8"?>
<svg xmlns="http://www.w3.org/2000/svg" viewBox="136.2 -268.0 1728.0 508.1" width="900" height="264" font-family="sans-serif" font-size="12">
<rect x="136.2" y="-268.0" width="1728.0" height="508.1" fill="#fff"/>
<rect x="148.2" y="-228.0" width="1704.0" height="456.1" fill="none" stroke="#ccc" stroke-width="0.6"/>
<text x="158.2" y="-240.0" font-family="sans-serif" font-size="22" font-weight="bold" fill="#000">SBF (u,y soundboard)</text>
<g transform="scale(1,-1)">
<path d="M 188.23 188.04 L 197.30 187.63 L 206.37 187.19 L 215.45 186.73 L 224.52 186.26 L 233.59 185.78 L 242.66 185.28 L 251.74 184.78 L 260.81 184.27 L 269.88 183.74 L 278.95 183.22 L 288.03 182.68 L 297.10 182.14 L 306.17 181.59 L 315.24 181.03 L 324.32 180.47 L 333.39 179.91 L 342.46 179.34 L 351.53 178.77 L 360.60 178.19 L 369.68 177.61 L 378.75 177.02 L 387.82 176.43 L 396.89 175.83 L 405.97 175.23 L 415.04 174.63 L 424.11 174.03 L 433.18 173.42 L 442.26 172.81 L 451.33 172.19 L 460.40 171.57 L 469.47 170.95 L 478.55 170.32 L 487.62 169.69 L 496.69 169.06 L 505.76 168.43 L 514.83 167.79 L 523.91 167.15 L 532.98 166.50 L 542.05 165.86 L 551.12 165.21 L 560.20 164.55 L 569.27 163.90 L 578.34 163.24 L 587.41 162.58 L 596.49 161.91 L 605.56 161.24 L 614.63 160.57 L 623.70 159.90 L 632.78 159.22 L 641.85 158.54 L 650.92 157.85 L 659.99 157.17 L 669.07 156.47 L 678.14 155.78 L 687.21 155.08 L 696.28 154.38 L 705.35 153.67 L 714.43 152.96 L 723.50 152.25 L 732.57 151.53 L 741.64 150.80 L 750.72 150.07 L 759.79 149.34 L 768.86 148.60 L 777.93 147.85 L 787.01 147.11 L 796.08 146.36 L 805.15 145.60 L 814.22 144.84 L 823.30 144.08 L 832.37 143.32 L 841.44 142.55 L 850.51 141.78 L 859.58 141.00 L 868.66 140.22 L 877.73 139.44 L 886.80 138.66 L 895.87 137.88 L 904.95 137.09 L 914.02 136.30 L 923.09 135.50 L 932.16 134.71 L 941.24 133.91 L 950.31 133.11 L 959.38 132.31 L 968.45 131.51 L 977.53 130.70 L 986.60 129.89 L 995.67 129.08 L 1004.74 128.27 L 1013.81 127.46 L 1022.89 126.64 L 1031.96 125.82 L 1041.03 125.01 L 1050.10 124.19 L 1059.18 123.37 L 1068.25 122.54 L 1077.32 121.72 L 1086.39 120.89 L 1095.47 120.07 L 1104.54 119.24 L 1113.61 118.41 L 1122.68 117.58 L 1131.76 116.75 L 1140.83 115.91 L 1149.90 115.08 L 1158.97 114.25 L 1168.05 113.41 L 1177.12 112.57 L 1186.19 111.74 L 1195.26 110.90 L 1204.33 110.06 L 1213.41 109.22 L 1222.48 108.38 L 1231.55 107.54 L 1240.62 106.69 L 1249.70 105.85 L 1258.77 105.01 L 1267.84 104.16 L 1276.91 103.32 L 1285.99 102.47 L 1295.06 101.63 L 1304.13 100.78 L 1313.20 99.93 L 1322.28 99.09 L 1331.35 98.24 L 1340.42 97.39 L 1349.49 96.54 L 1358.56 95.69 L 1367.64 94.85 L 1376.71 94.00 L 1385.78 93.15 L 1394.85 92.30 L 1403.93 91.45 L 1413.00 90.60 L 1422.07 89.75 L 1431.14 88.90 L 1440.22 88.05 L 1449.29 87.20 L 1458.36 86.35 L 1467.43 85.50 L 1476.51 84.65 L 1485.58 83.80 L 1494.65 82.95 L 1503.72 82.10 L 1512.79 81.25 L 1521.87 80.40 L 1530.94 79.55 L 1540.01 78.71 L 1549.08 77.86 L 1558.16 77.01 L 1567.23 76.16 L 1576.30 75.32 L 1585.37 74.47 L 1594.45 73.62 L 1603.52 72.78 L 1612.59 71.93 L 1621.66 71.09 L 1630.74 70.24 L 1639.81 69.40 L 1648.88 68.56 L 1657.95 67.72 L 1667.02 66.87 L 1676.10 66.03 L 1685.17 65.19 L 1694.24 64.35 L 1703.31 63.52 L 1712.39 62.68 L 1721.46 61.84 L 1730.53 61.01 L 1739.60 60.17 L 1748.68 59.34 L 1757.75 58.51 L 1766.82 57.68 L 1775.89 56.85 L 1784.97 56.02 L 1794.04 55.19 L 1803.11 54.36 L 1812.18 53.54 L 1812.18 -53.54 L 1803.11 -54.36 L 1794.04 -55.19 L 1784.97 -56.02 L 1775.89 -56.85 L 1766.82 -57.68 L 1757.75 -58.51 L 1748.68 -59.34 L 1739.60 -60.17 L 1730.53 -61.01 L 1721.46 -61.84 L 1712.39 -62.68 L 1703.31 -63.52 L 1694.24 -64.35 L 1685.17 -65.19 L 1676.10 -66.03 L 1667.02 -66.87 L 1657.95 -67.72 L 1648.88 -68.56 L 1639.81 -69.40 L 1630.74 -70.24 L 1621.66 -71.09 L 1612.59 -71.93 L 1603.52 -72.78 L 1594.45 -73.62 L 1585.37 -74.47 L 1576.30 -75.32 L 1567.23 -76.16 L 1558.16 -77.01 L 1549.08 -77.86 L 1540.01 -78.71 L 1530.94 -79.55 L 1521.87 -80.40 L 1512.79 -81.25 L 1503.72 -82.10 L 1494.65 -82.95 L 1485.58 -83.80 L 1476.51 -84.65 L 1467.43 -85.50 L 1458.36 -86.35 L 1449.29 -87.20 L 1440.22 -88.05 L 1431.14 -88.90 L 1422.07 -89.75 L 1413.00 -90.60 L 1403.93 -91.45 L 1394.85 -92.30 L 1385.78 -93.15 L 1376.71 -94.00 L 1367.64 -94.85 L 1358.56 -95.69 L 1349.49 -96.54 L 1340.42 -97.39 L 1331.35 -98.24 L 1322.28 -99.09 L 1313.20 -99.93 L 1304.13 -100.78 L 1295.06 -101.63 L 1285.99 -102.47 L 1276.91 -103.32 L 1267.84 -104.16 L 1258.77 -105.01 L 1249.70 -105.85 L 1240.62 -106.69 L 1231.55 -107.54 L 1222.48 -108.38 L 1213.41 -109.22 L 1204.33 -110.06 L 1195.26 -110.90 L 1186.19 -111.74 L 1177.12 -112.57 L 1168.05 -113.41 L 1158.97 -114.25 L 1149.90 -115.08 L 1140.83 -115.91 L 1131.76 -116.75 L 1122.68 -117.58 L 1113.61 -118.41 L 1104.54 -119.24 L 1095.47 -120.07 L 1086.39 -120.89 L 1077.32 -121.72 L 1068.25 -122.54 L 1059.18 -123.37 L 1050.10 -124.19 L 1041.03 -125.01 L 1031.96 -125.82 L 1022.89 -126.64 L 1013.81 -127.46 L 1004.74 -128.27 L 995.67 -129.08 L 986.60 -129.89 L 977.53 -130.70 L 968.45 -131.51 L 959.38 -132.31 L 950.31 -133.11 L 941.24 -133.91 L 932.16 -134.71 L 923.09 -135.50 L 914.02 -136.30 L 904.95 -137.09 L 895.87 -137.88 L 886.80 -138.66 L 877.73 -139.44 L 868.66 -140.22 L 859.58 -141.00 L 850.51 -141.78 L 841.44 -142.55 L 832.37 -143.32 L 823.30 -144.08 L 814.22 -144.84 L 805.15 -145.60 L 796.08 -146.36 L 787.01 -147.11 L 777.93 -147.85 L 768.86 -148.60 L 759.79 -149.34 L 750.72 -150.07 L 741.64 -150.80 L 732.57 -151.53 L 723.50 -152.25 L 714.43 -152.96 L 705.35 -153.67 L 696.28 -154.38 L 687.21 -155.08 L 678.14 -155.78 L 669.07 -156.47 L 659.99 -157.17 L 650.92 -157.85 L 641.85 -158.54 L 632.78 -159.22 L 623.70 -159.90 L 614.63 -160.57 L 605.56 -161.24 L 596.49 -161.91 L 587.41 -162.58 L 578.34 -163.24 L 569.27 -163.90 L 560.20 -164.55 L 551.12 -165.21 L 542.05 -165.86 L 532.98 -166.50 L 523.91 -167.15 L 514.83 -167.79 L 505.76 -168.43 L 496.69 -169.06 L 487.62 -169.69 L 478.55 -170.32 L 469.47 -170.95 L 460.40 -171.57 L 451.33 -172.19 L 442.26 -172.81 L 433.18 -173.42 L 424.11 -174.03 L 415.04 -174.63 L 405.97 -175.23 L 396.89 -175.83 L 387.82 -176.43 L 378.75 -177.02 L 369.68 -177.61 L 360.60 -178.19 L 351.53 -178.77 L 342.46 -179.34 L 333.39 -179.91 L 324.32 -180.47 L 315.24 -181.03 L 306.17 -181.59 L 297.10 -182.14 L 288.03 -182.68 L 278.95 -183.22 L 269.88 -183.74 L 260.81 -184.27 L 251.74 -184.78 L 242.66 -185.28 L 233.59 -185.78 L 224.52 -186.26 L 215.45 -186.73 L 206.37 -187.19 L 197.30 -187.63 L 188.23 -188.04 L 188.23 188.04" fill="#e4d4b5" fill-opacity="0.7" stroke="#222" stroke-width="1.5"/>
<line x1="188.23" y1="0" x2="1812.18" y2="0" stroke="#0a7" stroke-width="1.0"/>
<circle cx="188.23" cy="0" r="0.9" fill="#c00000"/>
<circle cx="233.78" cy="0" r="0.9" fill="#888"/>
<circle cx="279.17" cy="0" r="0.9" fill="#888"/>
<circle cx="324.44" cy="0" r="0.9" fill="#1060d0"/>
<circle cx="369.62" cy="0" r="0.9" fill="#888"/>
<circle cx="414.70" cy="0" r="0.9" fill="#888"/>
<circle cx="459.70" cy="0" r="0.9" fill="#888"/>
<circle cx="504.60" cy="0" r="0.9" fill="#c00000"/>
<circle cx="549.42" cy="0" r="0.9" fill="#888"/>
<circle cx="594.06" cy="0" r="0.9" fill="#888"/>
<circle cx="638.57" cy="0" r="0.9" fill="#1060d0"/>
<circle cx="682.88" cy="0" r="0.9" fill="#888"/>
<circle cx="728.65" cy="0" r="0.9" fill="#888"/>
<circle cx="775.68" cy="0" r="0.9" fill="#888"/>
<circle cx="822.35" cy="0" r="0.9" fill="#c00000"/>
<circle cx="868.59" cy="0" r="0.9" fill="#888"/>
<circle cx="914.02" cy="0" r="0.9" fill="#888"/>
<circle cx="958.71" cy="0" r="0.9" fill="#1060d0"/>
<circle cx="1002.72" cy="0" r="0.9" fill="#888"/>
<circle cx="1045.84" cy="0" r="0.9" fill="#888"/>
<circle cx="1087.88" cy="0" r="0.9" fill="#888"/>
<circle cx="1128.80" cy="0" r="0.9" fill="#c00000"/>
<circle cx="1168.58" cy="0" r="0.9" fill="#888"/>
<circle cx="1206.99" cy="0" r="0.9" fill="#888"/>
<circle cx="1244.15" cy="0" r="0.9" fill="#1060d0"/>
<circle cx="1279.98" cy="0" r="0.9" fill="#888"/>
<circle cx="1314.42" cy="0" r="0.9" fill="#888"/>
<circle cx="1347.44" cy="0" r="0.9" fill="#888"/>
<circle cx="1379.12" cy="0" r="0.9" fill="#c00000"/>
<circle cx="1409.56" cy="0" r="0.9" fill="#888"/>
<circle cx="1438.85" cy="0" r="0.9" fill="#888"/>
<circle cx="1467.03" cy="0" r="0.9" fill="#1060d0"/>
<circle cx="1494.22" cy="0" r="0.9" fill="#888"/>
<circle cx="1520.43" cy="0" r="0.9" fill="#888"/>
<circle cx="1545.82" cy="0" r="0.9" fill="#888"/>
<circle cx="1570.57" cy="0" r="0.9" fill="#c00000"/>
<circle cx="1594.70" cy="0" r="0.9" fill="#888"/>
<circle cx="1618.24" cy="0" r="0.9" fill="#888"/>
<circle cx="1641.29" cy="0" r="0.9" fill="#1060d0"/>
<circle cx="1663.88" cy="0" r="0.9" fill="#888"/>
<circle cx="1686.02" cy="0" r="0.9" fill="#888"/>
<circle cx="1707.76" cy="0" r="0.9" fill="#888"/>
<circle cx="1729.17" cy="0" r="0.9" fill="#c00000"/>
<circle cx="1750.27" cy="0" r="0.9" fill="#888"/>
<circle cx="1771.11" cy="0" r="0.9" fill="#888"/>
<circle cx="1791.73" cy="0" r="0.9" fill="#1060d0"/>
<circle cx="1812.18" cy="0" r="0.9" fill="#888"/>
</g>
</svg>