<?xml version="1.0" encoding="UTF-8"?>
<svg xmlns="http://www.w3.org/2000/svg" viewBox="0 0 3567.9 4199.3" width="1600" height="1883" font-family="sans-serif" font-size="12">
<rect x="0" y="0" width="3567.9" height="4199.3" fill="#fff"/>
<g transform="translate(0.0, 0.0)">
<rect x="0" y="50.0" width="1784.0" height="2049.6" fill="none" stroke="#ccc" stroke-width="0.6"/>
<text x="10" y="32" font-family="sans-serif" font-size="22" font-weight="bold" fill="#000">Side view (xz, project along +y)</text>
<g transform="translate(642.1, 2006.8)">
<g transform="scale(1,-1)">
<line x1="-230.3" y1="0" x2="729.9" y2="0" stroke="#888" stroke-width="0.6" stroke-dasharray="4,3" opacity="0.7"/>
<path d="M 0.00 186.78 L 12.21 223.27 L 24.14 259.01 L 35.79 294.01 L 47.18 328.27 L 58.30 361.81 L 69.17 394.63 L 79.80 426.76 L 90.18 458.21 L 100.33 488.97 L 110.25 519.08 L 119.96 548.53 L 129.45 577.34 L 138.74 605.53 L 147.83 633.10 L 156.72 660.06 L 165.43 686.43 L 173.97 712.22 L 182.33 737.44 L 190.53 762.10 L 198.57 786.21 L 206.46 809.79 L 214.21 832.85 L 221.82 855.40 L 229.30 877.44 L 236.66 899.00 L 243.90 920.09 L 251.03 940.70 L 258.06 960.87 L 265.00 980.60 L 271.85 999.89 L 278.62 1018.77 L 285.31 1037.25 L 291.93 1055.33 L 298.50 1073.02 L 305.01 1090.35 L 311.47 1107.32 L 317.90 1123.94 L 324.29 1140.23 L 330.66 1156.19 L 337.00 1171.84 L 343.34 1187.19 L 349.67 1202.25 L 356.00 1217.04 L 362.34 1231.56 L 368.69 1245.82 L 375.07 1259.85 L 381.48 1273.64 L 387.92 1287.22 L 394.41 1300.59 L 400.94 1313.76 L 407.54 1326.76 L 414.19 1339.58 L 420.92 1352.24 L 427.72 1364.75 L 434.61 1377.13 L 441.60 1389.38 L 448.67 1401.52 L 455.86 1413.56 L 463.16 1425.51 L 470.57 1437.38 L 478.11 1449.19 L 485.79 1460.94 L 493.60 1472.65 L 501.57 1484.33 L 509.68 1495.99 L 517.96 1507.64 L 526.40 1519.30 L 535.02 1530.97 L 543.81 1542.67 L 552.80 1554.41 L 561.98 1566.20 L 571.37 1578.05 L 580.96 1589.98 L 590.77 1602.00 L 600.80 1614.11 L 611.06 1626.33 L 621.56 1638.68 L 632.30 1651.16 L 643.29 1663.78 L 682.42 1629.52 L 652.45 1564.42 L 625.24 1499.38 L 601.51 1434.56 L 581.69 1370.00 L 565.76 1305.53 L 553.24 1240.71 L 543.43 1175.09 L 535.64 1108.34 L 529.31 1040.41 L 524.00 971.35 L 519.40 901.33 L 515.27 830.51 L 511.44 759.05 L 507.79 687.08 L 504.23 614.70 L 500.70 541.99 L 497.15 469.02 L 493.55 395.84 L 489.87 322.49 L 486.10 249.01 L 482.22 175.41 L 478.22 101.73 L 474.11 27.97 L 474.94 0.00 L -63.52 0.00 Z" fill="#e4d4b5" stroke="#222" stroke-width="1.5" stroke-linejoin="round"/>
<path d="M 0.00 186.78 C 325.29 1157.92, 350.50 1329.37, 643.29 1663.78" fill="none" stroke="#0a7" stroke-width="1.5"/>
<path d="M 643.29 1663.78 C 670.20 1694.52, 684.14 1725.06, 643.29 1725.06" fill="none" stroke="#0a7" stroke-width="1.0" stroke-dasharray="4,3" opacity="0.7"/>
<path d="M 0.00 186.78 C -21.17 123.56, -63.52 27.13, -63.52 -2.87" fill="none" stroke="#222" stroke-width="1.0"/>
<line x1="-63.52" y1="0" x2="474.94" y2="0" stroke="#b8862b" stroke-width="1.2" stroke-dasharray="6,4" opacity="0.85"/>
<line x1="0.00" y1="186.78" x2="474.11" y2="27.97" stroke="#b8862b" stroke-width="0.4" opacity="0.35"/>
<line x1="22.38" y1="253.74" x2="478.22" y2="101.73" stroke="#b8862b" stroke-width="0.4" opacity="0.35"/>
<line x1="44.68" y1="320.74" x2="482.22" y2="175.41" stroke="#b8862b" stroke-width="0.4" opacity="0.35"/>
<line x1="66.90" y1="387.76" x2="486.10" y2="249.01" stroke="#b8862b" stroke-width="0.4" opacity="0.35"/>
<line x1="89.05" y1="454.80" x2="489.87" y2="322.49" stroke="#b8862b" stroke-width="0.4" opacity="0.35"/>
<line x1="111.17" y1="521.85" x2="493.55" y2="395.84" stroke="#b8862b" stroke-width="0.4" opacity="0.35"/>
<line x1="133.26" y1="588.91" x2="497.15" y2="469.02" stroke="#b8862b" stroke-width="0.4" opacity="0.35"/>
<line x1="155.37" y1="655.97" x2="500.70" y2="541.99" stroke="#b8862b" stroke-width="0.4" opacity="0.35"/>
<line x1="177.54" y1="723.00" x2="504.23" y2="614.70" stroke="#b8862b" stroke-width="0.4" opacity="0.35"/>
<line x1="199.83" y1="790.00" x2="507.79" y2="687.08" stroke="#b8862b" stroke-width="0.4" opacity="0.35"/>
<line x1="222.33" y1="856.92" x2="511.44" y2="759.05" stroke="#b8862b" stroke-width="0.4" opacity="0.35"/>
<line x1="245.16" y1="923.74" x2="515.27" y2="830.51" stroke="#b8862b" stroke-width="0.4" opacity="0.35"/>
<line x1="268.47" y1="990.39" x2="519.40" y2="901.33" stroke="#b8862b" stroke-width="0.4" opacity="0.35"/>
<line x1="292.47" y1="1056.79" x2="524.00" y2="971.35" stroke="#b8862b" stroke-width="0.4" opacity="0.35"/>
<line x1="317.46" y1="1122.82" x2="529.31" y2="1040.41" stroke="#b8862b" stroke-width="0.4" opacity="0.35"/>
<line x1="343.81" y1="1188.33" x2="535.64" y2="1108.34" stroke="#b8862b" stroke-width="0.4" opacity="0.35"/>
<line x1="371.97" y1="1253.07" x2="543.43" y2="1175.09" stroke="#b8862b" stroke-width="0.4" opacity="0.35"/>
<line x1="402.45" y1="1316.76" x2="553.24" y2="1240.71" stroke="#b8862b" stroke-width="0.4" opacity="0.35"/>
<line x1="435.69" y1="1379.04" x2="565.76" y2="1305.53" stroke="#b8862b" stroke-width="0.4" opacity="0.35"/>
<line x1="471.98" y1="1439.60" x2="581.69" y2="1370.00" stroke="#b8862b" stroke-width="0.4" opacity="0.35"/>
<line x1="511.28" y1="1498.25" x2="601.51" y2="1434.56" stroke="#b8862b" stroke-width="0.4" opacity="0.35"/>
<line x1="553.27" y1="1555.01" x2="625.24" y2="1499.38" stroke="#b8862b" stroke-width="0.4" opacity="0.35"/>
<line x1="597.45" y1="1610.08" x2="652.45" y2="1564.42" stroke="#b8862b" stroke-width="0.4" opacity="0.35"/>
<line x1="643.29" y1="1663.78" x2="682.42" y2="1629.52" stroke="#b8862b" stroke-width="0.4" opacity="0.35"/>
<path d="M -263.13 1786.78 C -269.51 1838.72, -191.00 1865.55, -139.22 1866.78" fill="none" stroke="#3a2a14" stroke-width="1.0"/>
<path d="M -139.22 1866.78 C -40.08 1869.13, 59.55 1816.81, 159.43 1796.78" fill="none" stroke="#3a2a14" stroke-width="1.0"/>
<path d="M 159.43 1796.78 C 248.76 1778.87, 339.09 1753.04, 428.04 1753.04" fill="none" stroke="#3a2a14" stroke-width="1.0"/>
<path d="M 431.48 1725.06 C 391.93 1712.30, 354.44 1693.79, 312.82 1686.78" fill="none" stroke="#3a2a14" stroke-width="1.0"/>
<path d="M 312.82 1686.78 C 228.68 1672.60, 139.51 1677.96, 55.97 1661.78" fill="none" stroke="#3a2a14" stroke-width="1.0"/>
<path d="M 55.97 1661.78 C -62.50 1638.83, -236.93 1573.43, -221.78 1450.00" fill="none" stroke="#3a2a14" stroke-width="1.0"/>
<path d="M -221.78 1450.00 C -235.56 1562.26, -249.35 1674.52, -263.13 1786.78" fill="none" stroke="#3a2a14" stroke-width="1.0"/>
<polygon points="-43.74,-2.87 -15.75,-2.87 -235.14,1786.78 -263.13,1786.78" fill="#666" fill-opacity="0.35" stroke="#3a2a14" stroke-width="0.8"/>
<line x1="0.00" y1="186.78" x2="-200.26" y2="1817.73" stroke="#c00000" stroke-width="2.550" stroke-linecap="round"/>
<line x1="14.45" y1="229.98" x2="-177.29" y2="1791.55" stroke="#888" stroke-width="2.380" stroke-linecap="round"/>
<line x1="28.81" y1="273.04" x2="-154.53" y2="1766.22" stroke="#888" stroke-width="2.244" stroke-linecap="round"/>
<line x1="43.10" y1="315.99" x2="-136.38" y2="1777.72" stroke="#1060d0" stroke-width="2.159" stroke-linecap="round"/>
<line x1="57.33" y1="358.87" x2="-115.69" y2="1767.99" stroke="#888" stroke-width="2.023" stroke-linecap="round"/>
<line x1="71.50" y1="401.67" x2="-95.06" y2="1758.18" stroke="#888" stroke-width="1.938" stroke-linecap="round"/>
<line x1="85.62" y1="444.39" x2="-83.52" y2="1821.95" stroke="#888" stroke-width="1.853" stroke-linecap="round"/>
<line x1="99.69" y1="487.03" x2="-68.16" y2="1854.07" stroke="#c00000" stroke-width="1.785" stroke-linecap="round"/>
<line x1="113.72" y1="529.59" x2="-45.73" y2="1828.24" stroke="#888" stroke-width="1.700" stroke-linecap="round"/>
<line x1="127.69" y1="572.00" x2="-23.38" y2="1802.36" stroke="#888" stroke-width="1.615" stroke-linecap="round"/>
<line x1="141.62" y1="614.27" x2="-5.57" y2="1813.07" stroke="#1060d0" stroke-width="1.547" stroke-linecap="round"/>
<line x1="155.50" y1="656.36" x2="14.76" y2="1802.55" stroke="#888" stroke-width="1.462" stroke-linecap="round"/>
<line x1="169.86" y1="699.81" x2="34.94" y2="1798.66" stroke="#888" stroke-width="2.700" stroke-linecap="round"/>
<line x1="184.66" y1="744.45" x2="55.54" y2="1796.06" stroke="#888" stroke-width="2.700" stroke-linecap="round"/>
<line x1="199.41" y1="788.73" x2="76.75" y2="1787.73" stroke="#c00000" stroke-width="2.700" stroke-linecap="round"/>
<line x1="214.11" y1="832.56" x2="97.26" y2="1784.22" stroke="#888" stroke-width="2.700" stroke-linecap="round"/>
<line x1="228.67" y1="875.60" x2="117.63" y2="1779.91" stroke="#888" stroke-width="2.499" stroke-linecap="round"/>
<line x1="243.14" y1="917.88" x2="137.91" y2="1774.95" stroke="#1060d0" stroke-width="2.499" stroke-linecap="round"/>
<line x1="257.57" y1="959.46" x2="158.15" y2="1769.18" stroke="#888" stroke-width="2.380" stroke-linecap="round"/>
<line x1="271.93" y1="1000.12" x2="177.68" y2="1767.76" stroke="#888" stroke-width="2.244" stroke-linecap="round"/>
<line x1="286.19" y1="1039.66" x2="195.81" y2="1775.74" stroke="#888" stroke-width="2.023" stroke-linecap="round"/>
<line x1="300.38" y1="1078.05" x2="215.17" y2="1772.04" stroke="#c00000" stroke-width="2.023" stroke-linecap="round"/>
<line x1="314.52" y1="1115.23" x2="233.82" y2="1772.49" stroke="#888" stroke-width="1.853" stroke-linecap="round"/>
<line x1="328.57" y1="1150.98" x2="252.39" y2="1771.43" stroke="#888" stroke-width="1.734" stroke-linecap="round"/>
<line x1="342.59" y1="1185.39" x2="270.93" y2="1769.01" stroke="#1060d0" stroke-width="1.734" stroke-linecap="round"/>
<line x1="356.58" y1="1218.38" x2="288.80" y2="1770.43" stroke="#888" stroke-width="1.649" stroke-linecap="round"/>
<line x1="370.52" y1="1249.87" x2="306.61" y2="1770.36" stroke="#888" stroke-width="1.547" stroke-linecap="round"/>
<line x1="384.40" y1="1279.84" x2="323.72" y2="1774.03" stroke="#888" stroke-width="1.462" stroke-linecap="round"/>
<line x1="398.23" y1="1308.33" x2="343.35" y2="1755.28" stroke="#c00000" stroke-width="1.377" stroke-linecap="round"/>
<line x1="412.04" y1="1335.46" x2="361.04" y2="1750.85" stroke="#888" stroke-width="1.377" stroke-linecap="round"/>
<line x1="425.83" y1="1361.30" x2="378.70" y2="1745.11" stroke="#888" stroke-width="1.292" stroke-linecap="round"/>
<line x1="439.59" y1="1385.89" x2="395.69" y2="1743.41" stroke="#1060d0" stroke-width="1.292" stroke-linecap="round"/>
<line x1="453.33" y1="1409.35" x2="412.02" y2="1745.83" stroke="#888" stroke-width="1.207" stroke-linecap="round"/>
<line x1="467.01" y1="1431.71" x2="428.93" y2="1741.88" stroke="#888" stroke-width="1.105" stroke-linecap="round"/>
<line x1="480.66" y1="1453.11" x2="445.79" y2="1737.08" stroke="#888" stroke-width="1.105" stroke-linecap="round"/>
<line x1="494.34" y1="1473.74" x2="463.35" y2="1726.14" stroke="#c00000" stroke-width="1.207" stroke-linecap="round"/>
<line x1="508.02" y1="1493.62" x2="480.26" y2="1719.72" stroke="#888" stroke-width="1.105" stroke-linecap="round"/>
<line x1="521.67" y1="1512.79" x2="496.49" y2="1717.85" stroke="#888" stroke-width="1.105" stroke-linecap="round"/>
<line x1="535.32" y1="1531.38" x2="512.34" y2="1718.57" stroke="#1060d0" stroke-width="1.105" stroke-linecap="round"/>
<line x1="548.94" y1="1549.39" x2="527.64" y2="1722.89" stroke="#888" stroke-width="1.020" stroke-linecap="round"/>
<line x1="562.52" y1="1566.88" x2="542.90" y2="1726.68" stroke="#888" stroke-width="0.935" stroke-linecap="round"/>
<line x1="576.05" y1="1583.90" x2="557.72" y2="1733.18" stroke="#888" stroke-width="0.867" stroke-linecap="round"/>
<line x1="589.55" y1="1600.51" x2="572.77" y2="1737.19" stroke="#c00000" stroke-width="0.816" stroke-linecap="round"/>
<line x1="603.01" y1="1616.76" x2="587.78" y2="1740.83" stroke="#888" stroke-width="0.765" stroke-linecap="round"/>
<line x1="616.45" y1="1632.69" x2="602.90" y2="1743.06" stroke="#888" stroke-width="0.714" stroke-linecap="round"/>
<line x1="629.87" y1="1648.35" x2="617.99" y2="1745.12" stroke="#1060d0" stroke-width="0.714" stroke-linecap="round"/>
<line x1="643.29" y1="1663.78" x2="633.74" y2="1741.59" stroke="#888" stroke-width="0.714" stroke-linecap="round"/>
<circle cx="-200.26" cy="1817.73" r="8.0" fill="#c00000" fill-opacity="0.13"/>
<circle cx="-178.41" cy="1639.77" r="8.0" fill="#1060d0" fill-opacity="0.13"/>
<circle cx="-177.29" cy="1791.55" r="8.0" fill="#c00000" fill-opacity="0.13"/>
<circle cx="-156.37" cy="1621.23" r="8.0" fill="#1060d0" fill-opacity="0.13"/>
<circle cx="-154.53" cy="1766.22" r="8.0" fill="#c00000" fill-opacity="0.13"/>
<circle cx="-134.53" cy="1603.34" r="8.0" fill="#1060d0" fill-opacity="0.13"/>
<circle cx="-136.38" cy="1777.72" r="8.0" fill="#c00000" fill-opacity="0.13"/>
<circle cx="-116.79" cy="1618.21" r="8.0" fill="#1060d0" fill-opacity="0.13"/>
<circle cx="-115.69" cy="1767.99" r="8.0" fill="#c00000" fill-opacity="0.13"/>
<circle cx="-96.81" cy="1614.25" r="8.0" fill="#1060d0" fill-opacity="0.13"/>
<circle cx="-95.06" cy="1758.18" r="8.0" fill="#c00000" fill-opacity="0.13"/>
<circle cx="-76.89" cy="1610.19" r="8.0" fill="#1060d0" fill-opacity="0.13"/>
<circle cx="-83.52" cy="1821.95" r="8.0" fill="#c00000" fill-opacity="0.13"/>
<circle cx="-65.07" cy="1671.68" r="8.0" fill="#1060d0" fill-opacity="0.13"/>
<circle cx="-68.16" cy="1854.07" r="8.0" fill="#c00000" fill-opacity="0.13"/>
<circle cx="-49.84" cy="1704.89" r="8.0" fill="#1060d0" fill-opacity="0.13"/>
<circle cx="-45.73" cy="1828.24" r="8.0" fill="#c00000" fill-opacity="0.13"/>
<circle cx="-28.34" cy="1686.60" r="8.0" fill="#1060d0" fill-opacity="0.13"/>
<circle cx="-23.38" cy="1802.36" r="8.0" fill="#c00000" fill-opacity="0.13"/>
<circle cx="-6.89" cy="1668.07" r="8.0" fill="#1060d0" fill-opacity="0.13"/>
<circle cx="-5.57" cy="1813.07" r="8.0" fill="#c00000" fill-opacity="0.13"/>
<circle cx="10.49" cy="1682.25" r="8.0" fill="#1060d0" fill-opacity="0.13"/>
<circle cx="14.76" cy="1802.55" r="8.0" fill="#c00000" fill-opacity="0.13"/>
<circle cx="30.12" cy="1677.49" r="8.0" fill="#1060d0" fill-opacity="0.13"/>
<circle cx="34.94" cy="1798.66" r="8.0" fill="#c00000" fill-opacity="0.13"/>
<circle cx="49.66" cy="1678.76" r="8.0" fill="#1060d0" fill-opacity="0.13"/>
<circle cx="55.54" cy="1796.06" r="8.0" fill="#c00000" fill-opacity="0.13"/>
<circle cx="69.63" cy="1681.32" r="8.0" fill="#1060d0" fill-opacity="0.13"/>
<circle cx="76.75" cy="1787.73" r="8.0" fill="#c00000" fill-opacity="0.13"/>
<circle cx="90.13" cy="1678.75" r="8.0" fill="#1060d0" fill-opacity="0.13"/>
<circle cx="97.26" cy="1784.22" r="8.0" fill="#c00000" fill-opacity="0.13"/>
<circle cx="110.01" cy="1680.40" r="8.0" fill="#1060d0" fill-opacity="0.13"/>
<circle cx="117.63" cy="1779.91" r="8.0" fill="#c00000" fill-opacity="0.13"/>
<circle cx="129.75" cy="1681.25" r="8.0" fill="#1060d0" fill-opacity="0.13"/>
<circle cx="137.91" cy="1774.95" r="8.0" fill="#c00000" fill-opacity="0.13"/>
<circle cx="149.39" cy="1681.45" r="8.0" fill="#1060d0" fill-opacity="0.13"/>
<circle cx="158.15" cy="1769.18" r="8.0" fill="#c00000" fill-opacity="0.13"/>
<circle cx="169.00" cy="1680.84" r="8.0" fill="#1060d0" fill-opacity="0.13"/>
<circle cx="177.68" cy="1767.76" r="8.0" fill="#c00000" fill-opacity="0.13"/>
<circle cx="187.96" cy="1683.99" r="8.0" fill="#1060d0" fill-opacity="0.13"/>
<circle cx="195.81" cy="1775.74" r="8.0" fill="#c00000" fill-opacity="0.13"/>
<circle cx="205.67" cy="1695.44" r="8.0" fill="#1060d0" fill-opacity="0.13"/>
<circle cx="215.17" cy="1772.04" r="8.0" fill="#c00000" fill-opacity="0.13"/>
<circle cx="224.45" cy="1696.41" r="8.0" fill="#1060d0" fill-opacity="0.13"/>
<circle cx="233.82" cy="1772.49" r="8.0" fill="#c00000" fill-opacity="0.13"/>
<circle cx="242.63" cy="1700.73" r="8.0" fill="#1060d0" fill-opacity="0.13"/>
<circle cx="252.39" cy="1771.43" r="8.0" fill="#c00000" fill-opacity="0.13"/>
<circle cx="260.70" cy="1703.73" r="8.0" fill="#1060d0" fill-opacity="0.13"/>
<circle cx="270.93" cy="1769.01" r="8.0" fill="#c00000" fill-opacity="0.13"/>
<circle cx="278.74" cy="1705.38" r="8.0" fill="#1060d0" fill-opacity="0.13"/>
<circle cx="288.80" cy="1770.43" r="8.0" fill="#c00000" fill-opacity="0.13"/>
<circle cx="296.19" cy="1710.19" r="8.0" fill="#1060d0" fill-opacity="0.13"/>
<circle cx="306.61" cy="1770.36" r="8.0" fill="#c00000" fill-opacity="0.13"/>
<circle cx="313.58" cy="1713.59" r="8.0" fill="#1060d0" fill-opacity="0.13"/>
<circle cx="323.72" cy="1774.03" r="8.0" fill="#c00000" fill-opacity="0.13"/>
<circle cx="330.34" cy="1720.13" r="8.0" fill="#1060d0" fill-opacity="0.13"/>
<circle cx="343.35" cy="1755.28" r="8.0" fill="#c00000" fill-opacity="0.13"/>
<circle cx="349.35" cy="1706.44" r="8.0" fill="#1060d0" fill-opacity="0.13"/>
<circle cx="361.04" cy="1750.85" r="8.0" fill="#c00000" fill-opacity="0.13"/>
<circle cx="366.61" cy="1705.49" r="8.0" fill="#1060d0" fill-opacity="0.13"/>
<circle cx="378.70" cy="1745.11" r="8.0" fill="#c00000" fill-opacity="0.13"/>
<circle cx="383.85" cy="1703.23" r="8.0" fill="#1060d0" fill-opacity="0.13"/>
<circle cx="395.69" cy="1743.41" r="8.0" fill="#c00000" fill-opacity="0.13"/>
<circle cx="400.48" cy="1704.40" r="8.0" fill="#1060d0" fill-opacity="0.13"/>
<circle cx="412.02" cy="1745.83" r="8.0" fill="#c00000" fill-opacity="0.13"/>
<circle cx="416.52" cy="1709.10" r="8.0" fill="#1060d0" fill-opacity="0.13"/>
<circle cx="428.93" cy="1741.88" r="8.0" fill="#c00000" fill-opacity="0.13"/>
<circle cx="433.08" cy="1708.04" r="8.0" fill="#1060d0" fill-opacity="0.13"/>
<circle cx="445.79" cy="1737.08" r="8.0" fill="#c00000" fill-opacity="0.13"/>
<circle cx="449.61" cy="1706.02" r="8.0" fill="#1060d0" fill-opacity="0.13"/>
<circle cx="463.35" cy="1726.14" r="8.0" fill="#c00000" fill-opacity="0.13"/>
<circle cx="466.74" cy="1698.55" r="8.0" fill="#1060d0" fill-opacity="0.13"/>
<circle cx="480.26" cy="1719.72" r="8.0" fill="#c00000" fill-opacity="0.13"/>
<circle cx="483.29" cy="1695.01" r="8.0" fill="#1060d0" fill-opacity="0.13"/>
<circle cx="496.49" cy="1717.85" r="8.0" fill="#c00000" fill-opacity="0.13"/>
<circle cx="499.23" cy="1695.52" r="8.0" fill="#1060d0" fill-opacity="0.13"/>
<circle cx="512.34" cy="1718.57" r="8.0" fill="#c00000" fill-opacity="0.13"/>
<circle cx="514.85" cy="1698.12" r="8.0" fill="#1060d0" fill-opacity="0.13"/>
<circle cx="527.64" cy="1722.89" r="8.0" fill="#c00000" fill-opacity="0.13"/>
<circle cx="529.97" cy="1703.93" r="8.0" fill="#1060d0" fill-opacity="0.13"/>
<circle cx="542.90" cy="1726.68" r="8.0" fill="#c00000" fill-opacity="0.13"/>
<circle cx="545.03" cy="1709.31" r="8.0" fill="#1060d0" fill-opacity="0.13"/>
<circle cx="557.72" cy="1733.18" r="8.0" fill="#c00000" fill-opacity="0.13"/>
<circle cx="559.72" cy="1716.90" r="8.0" fill="#1060d0" fill-opacity="0.13"/>
<circle cx="572.77" cy="1737.19" r="8.0" fill="#c00000" fill-opacity="0.13"/>
<circle cx="574.60" cy="1722.30" r="8.0" fill="#1060d0" fill-opacity="0.13"/>
<circle cx="587.78" cy="1740.83" r="8.0" fill="#c00000" fill-opacity="0.13"/>
<circle cx="589.43" cy="1727.33" r="8.0" fill="#1060d0" fill-opacity="0.13"/>
<circle cx="602.90" cy="1743.06" r="8.0" fill="#c00000" fill-opacity="0.13"/>
<circle cx="604.37" cy="1731.05" r="8.0" fill="#1060d0" fill-opacity="0.13"/>
<circle cx="617.99" cy="1745.12" r="8.0" fill="#c00000" fill-opacity="0.13"/>
<circle cx="619.29" cy="1734.50" r="8.0" fill="#1060d0" fill-opacity="0.13"/>
<circle cx="633.74" cy="1741.59" r="8.0" fill="#c00000" fill-opacity="0.13"/>
<circle cx="634.78" cy="1733.06" r="8.0" fill="#1060d0" fill-opacity="0.13"/>
<circle cx="0.00" cy="186.78" r="2.0" fill="#222"/>
<circle cx="643.29" cy="1663.78" r="2.0" fill="#222"/>
<circle cx="-63.52" cy="-2.87" r="2.0" fill="#222"/>
<circle cx="474.94" cy="-2.87" r="2.0" fill="#222"/>
<circle cx="-263.13" cy="1786.78" r="2.0" fill="#222"/>
<circle cx="-139.22" cy="1866.78" r="2.0" fill="#222"/>
<circle cx="159.43" cy="1796.78" r="2.0" fill="#222"/>
<circle cx="428.04" cy="1753.04" r="2.0" fill="#222"/>
<circle cx="489.76" cy="1711.78" r="2.0" fill="#222"/>
<circle cx="431.48" cy="1725.06" r="2.0" fill="#222"/>
<circle cx="312.82" cy="1686.78" r="2.0" fill="#222"/>
<circle cx="55.97" cy="1661.78" r="2.0" fill="#222"/>
<circle cx="-221.78" cy="1450.00" r="2.0" fill="#222"/>
</g></g></g>
<g transform="translate(1784.0, 0.0)">
<rect x="0" y="50.0" width="1784.0" height="2049.6" fill="none" stroke="#ccc" stroke-width="0.6"/>
<text x="10" y="32" font-family="sans-serif" font-size="22" font-weight="bold" fill="#000">Top view (xy, project along -z)</text>
<g transform="translate(592.7, 1074.8)">
<g transform="scale(1,-1)">
<path d="M 226.60 275.16 L 229.25 273.09 L 231.89 271.02 L 234.53 268.95 L 237.16 266.88 L 239.80 264.81 L 242.42 262.73 L 245.05 260.66 L 247.66 258.59 L 250.28 256.52 L 252.89 254.45 L 255.50 252.37 L 258.11 250.30 L 260.71 248.23 L 263.31 246.16 L 265.90 244.09 L 268.49 242.02 L 271.08 239.94 L 273.67 237.87 L 276.25 235.80 L 278.83 233.73 L 281.41 231.66 L 283.99 229.59 L 286.56 227.51 L 289.13 225.44 L 291.70 223.37 L 294.26 221.30 L 296.83 219.23 L 299.39 217.15 L 301.95 215.08 L 304.51 213.01 L 307.07 210.94 L 309.63 208.87 L 312.19 206.80 L 314.75 204.72 L 317.31 202.65 L 319.87 200.58 L 322.43 198.51 L 324.99 196.44 L 327.55 194.36 L 330.11 192.29 L 332.68 190.22 L 335.25 188.15 L 337.82 186.08 L 340.40 184.01 L 342.98 181.93 L 345.56 179.86 L 348.15 177.79 L 350.74 175.72 L 353.35 173.65 L 355.96 171.58 L 358.57 169.50 L 361.20 167.43 L 363.83 165.36 L 366.48 163.29 L 369.14 161.22 L 371.81 159.14 L 374.49 157.07 L 377.19 155.00 L 379.91 152.93 L 382.64 150.86 L 385.39 148.79 L 388.16 146.71 L 390.95 144.64 L 393.77 142.57 L 396.61 140.50 L 399.48 138.43 L 402.37 136.36 L 405.30 134.28 L 408.26 132.21 L 411.26 130.14 L 414.29 128.07 L 417.37 126.00 L 420.48 123.92 L 423.65 121.85 L 426.86 119.78 L 430.13 117.71 L 433.45 115.64 L 436.83 113.57 L 440.27 111.49 L 443.78 109.42 L 447.36 107.35 L 451.01 105.28 L 454.74 103.21 L 458.55 101.13 L 462.45 99.06 L 466.44 96.99 L 470.52 94.92 L 474.70 92.85 L 478.99 90.78 L 483.38 88.70 L 487.88 86.63 L 492.50 84.56 L 497.23 82.49 L 502.09 80.42 L 507.06 78.35 L 512.17 76.27 L 517.40 74.20 L 522.76 72.13 L 528.24 70.06 L 533.86 67.99 L 539.61 65.91 L 545.49 63.84 L 551.49 61.77 L 557.61 59.70 L 563.86 57.63 L 570.23 55.56 L 576.71 53.48 L 583.31 51.41 L 590.01 49.34 L 596.82 47.27 L 603.72 45.20 L 610.73 43.13 L 617.82 41.05 L 624.99 38.98 L 632.25 36.91 L 639.58 34.84 L 646.99 32.77 L 654.46 30.69 L 661.99 28.62 L 661.99 -28.62 L 654.46 -30.69 L 646.99 -32.77 L 639.58 -34.84 L 632.25 -36.91 L 624.99 -38.98 L 617.82 -41.05 L 610.73 -43.13 L 603.72 -45.20 L 596.82 -47.27 L 590.01 -49.34 L 583.31 -51.41 L 576.71 -53.48 L 570.23 -55.56 L 563.86 -57.63 L 557.61 -59.70 L 551.49 -61.77 L 545.49 -63.84 L 539.61 -65.91 L 533.86 -67.99 L 528.24 -70.06 L 522.76 -72.13 L 517.40 -74.20 L 512.17 -76.27 L 507.06 -78.35 L 502.09 -80.42 L 497.23 -82.49 L 492.50 -84.56 L 487.88 -86.63 L 483.38 -88.70 L 478.99 -90.78 L 474.70 -92.85 L 470.52 -94.92 L 466.44 -96.99 L 462.45 -99.06 L 458.55 -101.13 L 454.74 -103.21 L 451.01 -105.28 L 447.36 -107.35 L 443.78 -109.42 L 440.27 -111.49 L 436.83 -113.57 L 433.45 -115.64 L 430.13 -117.71 L 426.86 -119.78 L 423.65 -121.85 L 420.48 -123.92 L 417.37 -126.00 L 414.29 -128.07 L 411.26 -130.14 L 408.26 -132.21 L 405.30 -134.28 L 402.37 -136.36 L 399.48 -138.43 L 396.61 -140.50 L 393.77 -142.57 L 390.95 -144.64 L 388.16 -146.71 L 385.39 -148.79 L 382.64 -150.86 L 379.91 -152.93 L 377.19 -155.00 L 374.49 -157.07 L 371.81 -159.14 L 369.14 -161.22 L 366.48 -163.29 L 363.83 -165.36 L 361.20 -167.43 L 358.57 -169.50 L 355.96 -171.58 L 353.35 -173.65 L 350.74 -175.72 L 348.15 -177.79 L 345.56 -179.86 L 342.98 -181.93 L 340.40 -184.01 L 337.82 -186.08 L 335.25 -188.15 L 332.68 -190.22 L 330.11 -192.29 L 327.55 -194.36 L 324.99 -196.44 L 322.43 -198.51 L 319.87 -200.58 L 317.31 -202.65 L 314.75 -204.72 L 312.19 -206.80 L 309.63 -208.87 L 307.07 -210.94 L 304.51 -213.01 L 301.95 -215.08 L 299.39 -217.15 L 296.83 -219.23 L 294.26 -221.30 L 291.70 -223.37 L 289.13 -225.44 L 286.56 -227.51 L 283.99 -229.59 L 281.41 -231.66 L 278.83 -233.73 L 276.25 -235.80 L 273.67 -237.87 L 271.08 -239.94 L 268.49 -242.02 L 265.90 -244.09 L 263.31 -246.16 L 260.71 -248.23 L 258.11 -250.30 L 255.50 -252.37 L 252.89 -254.45 L 250.28 -256.52 L 247.66 -258.59 L 245.05 -260.66 L 242.42 -262.73 L 239.80 -264.81 L 237.16 -266.88 L 234.53 -268.95 L 231.89 -271.02 L 229.25 -273.09 L 226.60 -275.16 L 226.60 275.16" fill="#e4d4b5" fill-opacity="0.7" stroke="#222" stroke-width="1.5"/>
<path d="M 474.94 0.00 L 473.28 31.65 L 468.33 62.92 L 460.16 93.41 L 448.91 122.76 L 434.73 150.62 L 417.85 176.68 L 398.51 200.64 L 377.01 222.26 L 353.65 241.33 L 328.77 257.68 L 302.72 271.20 L 275.85 281.82 L 248.52 289.53 L 221.07 294.34 L 193.84 296.33 L 167.14 295.62 L 141.28 292.35 L 116.50 286.71 L 93.04 278.93 L 71.09 269.23 L 50.80 257.87 L 32.27 245.12 L 15.58 231.23 L 0.75 216.49 L -12.22 201.14 L -23.39 185.43 L -32.83 169.58 L -40.65 153.80 L -46.98 138.25 L -51.97 123.07 L -55.79 108.37 L -58.61 94.24 L -60.60 80.70 L -61.92 67.77 L -62.74 55.44 L -63.20 43.63 L -63.42 32.29 L -63.50 21.32 L -63.52 10.59 L -63.52 0.00 L -63.52 -10.59 L -63.50 -21.32 L -63.42 -32.29 L -63.20 -43.63 L -62.74 -55.44 L -61.92 -67.77 L -60.60 -80.70 L -58.61 -94.24 L -55.79 -108.37 L -51.97 -123.07 L -46.98 -138.25 L -40.65 -153.80 L -32.83 -169.58 L -23.39 -185.43 L -12.22 -201.14 L 0.75 -216.49 L 15.58 -231.23 L 32.27 -245.12 L 50.80 -257.87 L 71.09 -269.23 L 93.04 -278.93 L 116.50 -286.71 L 141.28 -292.35 L 167.14 -295.62 L 193.84 -296.33 L 221.07 -294.34 L 248.52 -289.53 L 275.85 -281.82 L 302.72 -271.20 L 328.77 -257.68 L 353.65 -241.33 L 377.01 -222.26 L 398.51 -200.64 L 417.85 -176.68 L 434.73 -150.62 L 448.91 -122.76 L 460.16 -93.41 L 468.33 -62.92 L 473.28 -31.65 L 474.94 0.00" fill="none" stroke="#b8862b" stroke-width="1.0" stroke-dasharray="4,3"/>
<line x1="0.00" y1="0" x2="643.29" y2="0" stroke="#0a7" stroke-width="1.0"/>
<circle cx="0.00" cy="0" r="0.9" fill="#c00000"/>
<circle cx="14.45" cy="0" r="0.9" fill="#888"/>
<circle cx="28.81" cy="0" r="0.9" fill="#888"/>
<circle cx="43.10" cy="0" r="0.9" fill="#1060d0"/>
<circle cx="57.33" cy="0" r="0.9" fill="#888"/>
<circle cx="71.50" cy="0" r="0.9" fill="#888"/>
<circle cx="85.62" cy="0" r="0.9" fill="#888"/>
<circle cx="99.69" cy="0" r="0.9" fill="#c00000"/>
<circle cx="113.72" cy="0" r="0.9" fill="#888"/>
<circle cx="127.69" cy="0" r="0.9" fill="#888"/>
<circle cx="141.62" cy="0" r="0.9" fill="#1060d0"/>
<circle cx="155.50" cy="0" r="0.9" fill="#888"/>
<circle cx="169.86" cy="0" r="0.9" fill="#888"/>
<circle cx="184.66" cy="0" r="0.9" fill="#888"/>
<circle cx="199.41" cy="0" r="0.9" fill="#c00000"/>
<circle cx="214.11" cy="0" r="0.9" fill="#888"/>
<circle cx="228.67" cy="0" r="0.9" fill="#888"/>
<circle cx="243.14" cy="0" r="0.9" fill="#1060d0"/>
<circle cx="257.57" cy="0" r="0.9" fill="#888"/>
<circle cx="271.93" cy="0" r="0.9" fill="#888"/>
<circle cx="286.19" cy="0" r="0.9" fill="#888"/>
<circle cx="300.38" cy="0" r="0.9" fill="#c00000"/>
<circle cx="314.52" cy="0" r="0.9" fill="#888"/>
<circle cx="328.57" cy="0" r="0.9" fill="#888"/>
<circle cx="342.59" cy="0" r="0.9" fill="#1060d0"/>
<circle cx="356.58" cy="0" r="0.9" fill="#888"/>
<circle cx="370.52" cy="0" r="0.9" fill="#888"/>
<circle cx="384.40" cy="0" r="0.9" fill="#888"/>
<circle cx="398.23" cy="0" r="0.9" fill="#c00000"/>
<circle cx="412.04" cy="0" r="0.9" fill="#888"/>
<circle cx="425.83" cy="0" r="0.9" fill="#888"/>
<circle cx="439.59" cy="0" r="0.9" fill="#1060d0"/>
<circle cx="453.33" cy="0" r="0.9" fill="#888"/>
<circle cx="467.01" cy="0" r="0.9" fill="#888"/>
<circle cx="480.66" cy="0" r="0.9" fill="#888"/>
<circle cx="494.34" cy="0" r="0.9" fill="#c00000"/>
<circle cx="508.02" cy="0" r="0.9" fill="#888"/>
<circle cx="521.67" cy="0" r="0.9" fill="#888"/>
<circle cx="535.32" cy="0" r="0.9" fill="#1060d0"/>
<circle cx="548.94" cy="0" r="0.9" fill="#888"/>
<circle cx="562.52" cy="0" r="0.9" fill="#888"/>
<circle cx="576.05" cy="0" r="0.9" fill="#888"/>
<circle cx="589.55" cy="0" r="0.9" fill="#c00000"/>
<circle cx="603.01" cy="0" r="0.9" fill="#888"/>
<circle cx="616.45" cy="0" r="0.9" fill="#888"/>
<circle cx="629.87" cy="0" r="0.9" fill="#1060d0"/>
<circle cx="643.29" cy="0" r="0.9" fill="#888"/>
<rect x="-43.74" y="-16.00" width="27.99" height="32.00" fill="#666" fill-opacity="0.3" stroke="#3a2a14" stroke-width="0.6"/>
</g></g></g>
<g transform="translate(0.0, 2099.6)">
<rect x="0" y="50.0" width="1784.0" height="2049.6" fill="none" stroke="#ccc" stroke-width="0.6"/>
<text x="10" y="32" font-family="sans-serif" font-size="22" font-weight="bold" fill="#000">Front view (yz, project along +x)</text>
<g transform="translate(892.0, 2008.2)">
<g transform="scale(1,-1)">
<path d="M 139.87 34.95 L 186.31 48.93 L 224.09 62.92 L 251.83 76.90 L 268.85 90.88 L 275.16 104.86 L 274.50 118.84 L 272.43 132.82 L 270.37 146.80 L 268.30 160.79 L 266.23 174.77 L 264.17 188.75 L 262.10 202.73 L 260.03 216.71 L 257.97 230.69 L 255.90 244.67 L 253.83 258.65 L 251.77 272.64 L 249.70 286.62 L 247.63 300.60 L 245.57 314.58 L 242.02 328.56 L 239.94 342.54 L 237.87 356.52 L 235.80 370.51 L 233.73 384.49 L 231.66 398.47 L 229.59 412.45 L 227.51 426.43 L 225.44 440.41 L 223.37 454.39 L 221.30 468.37 L 219.23 482.36 L 217.15 496.34 L 215.08 510.32 L 213.01 524.30 L 210.43 538.28 L 208.36 552.26 L 206.30 566.24 L 204.23 580.23 L 202.16 594.21 L 200.10 608.19 L 198.03 622.17 L 195.96 636.15 L 193.90 650.13 L 191.83 664.11 L 189.76 678.09 L 186.08 692.08 L 184.01 706.06 L 181.93 720.04 L 179.86 734.02 L 177.79 748.00 L 175.72 761.98 L 173.65 775.96 L 171.58 789.95 L 169.50 803.93 L 167.43 817.91 L 165.36 831.89 L 163.29 845.87 L 161.22 859.85 L 159.14 873.83 L 156.69 887.81 L 154.63 901.80 L 152.56 915.78 L 150.49 929.76 L 148.43 943.74 L 146.36 957.72 L 142.70 971.70 L 140.65 985.68 L 138.61 999.67 L 136.57 1013.65 L 134.52 1027.63 L 132.21 1041.61 L 130.14 1055.59 L 128.07 1069.57 L 126.00 1083.55 L 123.92 1097.53 L 121.56 1111.52 L 119.49 1125.50 L 117.43 1139.48 L 114.08 1153.46 L 112.04 1167.44 L 110.00 1181.42 L 107.35 1195.40 L 105.28 1209.39 L 103.21 1223.37 L 101.13 1237.35 L 98.82 1251.33 L 96.76 1265.31 L 94.69 1279.29 L 91.60 1293.27 L 89.56 1307.25 L 86.63 1321.24 L 84.56 1335.22 L 82.49 1349.20 L 80.22 1363.18 L 77.29 1377.16 L 75.25 1391.14 L 72.13 1405.12 L 70.06 1419.11 L 67.99 1433.09 L 65.76 1447.07 L 62.99 1461.05 L 60.94 1475.03 L 57.76 1489.01 L 55.56 1502.99 L 53.36 1516.97 L 50.72 1530.96 L 47.74 1544.94 L 45.20 1558.92 L 43.13 1572.90 L 40.95 1586.88 L 38.46 1600.86 L 35.71 1614.84 L 32.77 1628.83 L 30.69 1642.81 L 28.24 1656.79 L -28.24 1656.79 L -30.69 1642.81 L -32.77 1628.83 L -35.71 1614.84 L -38.46 1600.86 L -40.95 1586.88 L -43.13 1572.90 L -45.20 1558.92 L -47.74 1544.94 L -50.72 1530.96 L -53.36 1516.97 L -55.56 1502.99 L -57.76 1489.01 L -60.94 1475.03 L -62.99 1461.05 L -65.76 1447.07 L -67.99 1433.09 L -70.06 1419.11 L -72.13 1405.12 L -75.25 1391.14 L -77.29 1377.16 L -80.22 1363.18 L -82.49 1349.20 L -84.56 1335.22 L -86.63 1321.24 L -89.56 1307.25 L -91.60 1293.27 L -94.69 1279.29 L -96.76 1265.31 L -98.82 1251.33 L -101.13 1237.35 L -103.21 1223.37 L -105.28 1209.39 L -107.35 1195.40 L -110.00 1181.42 L -112.04 1167.44 L -114.08 1153.46 L -117.43 1139.48 L -119.49 1125.50 L -121.56 1111.52 L -123.92 1097.53 L -126.00 1083.55 L -128.07 1069.57 L -130.14 1055.59 L -132.21 1041.61 L -134.52 1027.63 L -136.57 1013.65 L -138.61 999.67 L -140.65 985.68 L -142.70 971.70 L -146.36 957.72 L -148.43 943.74 L -150.49 929.76 L -152.56 915.78 L -154.63 901.80 L -156.69 887.81 L -159.14 873.83 L -161.22 859.85 L -163.29 845.87 L -165.36 831.89 L -167.43 817.91 L -169.50 803.93 L -171.58 789.95 L -173.65 775.96 L -175.72 761.98 L -177.79 748.00 L -179.86 734.02 L -181.93 720.04 L -184.01 706.06 L -186.08 692.08 L -189.76 678.09 L -191.83 664.11 L -193.90 650.13 L -195.96 636.15 L -198.03 622.17 L -200.10 608.19 L -202.16 594.21 L -204.23 580.23 L -206.30 566.24 L -208.36 552.26 L -210.43 538.28 L -213.01 524.30 L -215.08 510.32 L -217.15 496.34 L -219.23 482.36 L -221.30 468.37 L -223.37 454.39 L -225.44 440.41 L -227.51 426.43 L -229.59 412.45 L -231.66 398.47 L -233.73 384.49 L -235.80 370.51 L -237.87 356.52 L -239.94 342.54 L -242.02 328.56 L -245.57 314.58 L -247.63 300.60 L -249.70 286.62 L -251.77 272.64 L -253.83 258.65 L -255.90 244.67 L -257.97 230.69 L -260.03 216.71 L -262.10 202.73 L -264.17 188.75 L -266.23 174.77 L -268.30 160.79 L -270.37 146.80 L -272.43 132.82 L -274.50 118.84 L -275.16 104.86 L -268.85 90.88 L -251.83 76.90 L -224.09 62.92 L -186.31 48.93 L -139.87 34.95 L 139.87 34.95" fill="#e4d4b5" fill-opacity="0.7" stroke="#222" stroke-width="1.5"/>
<path d="M 0.00 -2.87 L 31.65 -2.87 L 62.92 -2.87 L 93.41 -2.87 L 122.76 -2.87 L 150.62 -2.87 L 176.68 -2.87 L 200.64 -2.87 L 222.26 -2.87 L 241.33 -2.87 L 257.68 -2.87 L 271.20 -2.87 L 281.82 -2.87 L 289.53 -2.87 L 294.34 -2.87 L 296.33 -2.87 L 295.62 -2.87 L 292.35 -2.87 L 286.71 -2.87 L 278.93 -2.87 L 269.23 -2.87 L 257.87 -2.87 L 245.12 -2.87 L 231.23 -2.87 L 216.49 -2.87 L 201.14 -2.87 L 185.43 -2.87 L 169.58 -2.87 L 153.80 -2.87 L 138.25 -2.87 L 123.07 -2.87 L 108.37 -2.87 L 94.24 -2.87 L 80.70 -2.87 L 67.77 -2.87 L 55.44 -2.87 L 43.63 -2.87 L 32.29 -2.87 L 21.32 -2.87 L 10.59 -2.87 L 0.00 -2.87 L -10.59 -2.87 L -21.32 -2.87 L -32.29 -2.87 L -43.63 -2.87 L -55.44 -2.87 L -67.77 -2.87 L -80.70 -2.87 L -94.24 -2.87 L -108.37 -2.87 L -123.07 -2.87 L -138.25 -2.87 L -153.80 -2.87 L -169.58 -2.87 L -185.43 -2.87 L -201.14 -2.87 L -216.49 -2.87 L -231.23 -2.87 L -245.12 -2.87 L -257.87 -2.87 L -269.23 -2.87 L -278.93 -2.87 L -286.71 -2.87 L -292.35 -2.87 L -295.62 -2.87 L -296.33 -2.87 L -294.34 -2.87 L -289.53 -2.87 L -281.82 -2.87 L -271.20 -2.87 L -257.68 -2.87 L -241.33 -2.87 L -222.26 -2.87 L -200.64 -2.87 L -176.68 -2.87 L -150.62 -2.87 L -122.76 -2.87 L -93.41 -2.87 L -62.92 -2.87 L -31.65 -2.87 L 0.00 -2.87" fill="none" stroke="#b8862b" stroke-width="1.0" stroke-dasharray="4,3"/>
<line x1="-305.2" y1="0" x2="305.2" y2="0" stroke="#888" stroke-width="0.6" stroke-dasharray="4,3" opacity="0.7"/>
<line x1="0" y1="186.78" x2="0" y2="1817.73" stroke="#c00000" stroke-width="2.550" opacity="0.6" stroke-linecap="round"/>
<line x1="0" y1="401.67" x2="0" y2="1758.18" stroke="#888" stroke-width="1.938" opacity="0.6" stroke-linecap="round"/>
<line x1="0" y1="614.27" x2="0" y2="1813.07" stroke="#1060d0" stroke-width="1.547" opacity="0.6" stroke-linecap="round"/>
<line x1="0" y1="832.56" x2="0" y2="1784.22" stroke="#888" stroke-width="2.700" opacity="0.6" stroke-linecap="round"/>
<line x1="0" y1="1039.66" x2="0" y2="1775.74" stroke="#888" stroke-width="2.023" opacity="0.6" stroke-linecap="round"/>
<line x1="0" y1="1218.38" x2="0" y2="1770.43" stroke="#888" stroke-width="1.649" opacity="0.6" stroke-linecap="round"/>
<line x1="0" y1="1361.30" x2="0" y2="1745.11" stroke="#888" stroke-width="1.292" opacity="0.6" stroke-linecap="round"/>
<line x1="0" y1="1473.74" x2="0" y2="1726.14" stroke="#c00000" stroke-width="1.207" opacity="0.6" stroke-linecap="round"/>
<line x1="0" y1="1566.88" x2="0" y2="1726.68" stroke="#888" stroke-width="0.935" opacity="0.6" stroke-linecap="round"/>
<line x1="0" y1="1648.35" x2="0" y2="1745.12" stroke="#1060d0" stroke-width="0.714" opacity="0.6" stroke-linecap="round"/>
</g></g></g>
<g transform="translate(1784.0, 2099.6)">
<rect x="0" y="50.0" width="1784.0" height="2049.6" fill="none" stroke="#ccc" stroke-width="0.6"/>
<text x="10" y="32" font-family="sans-serif" font-size="22" font-weight="bold" fill="#000">Soundboard face-on (u, y)</text>
<g transform="translate(80.0, 1074.8)">
<g transform="scale(1,-1)">
<path d="M 0.00 275.16 L 9.07 273.79 L 18.14 272.41 L 27.22 271.03 L 36.29 269.65 L 45.36 268.28 L 54.43 266.90 L 63.51 265.52 L 72.58 264.15 L 81.65 262.77 L 90.72 261.39 L 99.80 260.01 L 108.87 258.64 L 117.94 257.26 L 127.01 255.88 L 136.09 254.50 L 145.16 253.13 L 154.23 251.75 L 163.30 250.37 L 172.37 248.99 L 181.45 247.62 L 190.52 246.24 L 199.59 244.86 L 208.66 243.49 L 217.74 242.11 L 226.81 240.73 L 235.88 239.35 L 244.95 237.98 L 254.03 236.60 L 263.10 235.22 L 272.17 233.84 L 281.24 232.47 L 290.32 231.09 L 299.39 229.71 L 308.46 228.34 L 317.53 226.96 L 326.61 225.58 L 335.68 224.20 L 344.75 222.83 L 353.82 221.45 L 362.89 220.07 L 371.97 218.69 L 381.04 217.32 L 390.11 215.94 L 399.18 214.56 L 408.26 213.18 L 417.33 211.81 L 426.40 210.43 L 435.47 209.05 L 444.55 207.68 L 453.62 206.30 L 462.69 204.92 L 471.76 203.54 L 480.84 202.17 L 489.91 200.79 L 498.98 199.41 L 508.05 198.03 L 517.12 196.66 L 526.20 195.28 L 535.27 193.90 L 544.34 192.52 L 553.41 191.15 L 562.49 189.77 L 571.56 188.39 L 580.63 187.02 L 589.70 185.64 L 598.78 184.26 L 607.85 182.88 L 616.92 181.51 L 625.99 180.13 L 635.07 178.75 L 644.14 177.37 L 653.21 176.00 L 662.28 174.62 L 671.35 173.24 L 680.43 171.86 L 689.50 170.49 L 698.57 169.11 L 707.64 167.73 L 716.72 166.36 L 725.79 164.98 L 734.86 163.60 L 743.93 162.22 L 753.01 160.85 L 762.08 159.47 L 771.15 158.09 L 780.22 156.71 L 789.30 155.34 L 798.37 153.96 L 807.44 152.58 L 816.51 151.20 L 825.58 149.83 L 834.66 148.45 L 843.73 147.07 L 852.80 145.70 L 861.87 144.32 L 870.95 142.94 L 880.02 141.56 L 889.09 140.19 L 898.16 138.81 L 907.24 137.43 L 916.31 136.05 L 925.38 134.68 L 934.45 133.30 L 943.53 131.92 L 952.60 130.54 L 961.67 129.17 L 970.74 127.79 L 979.82 126.41 L 988.89 125.04 L 997.96 123.66 L 1007.03 122.28 L 1016.10 120.90 L 1025.18 119.53 L 1034.25 118.15 L 1043.32 116.77 L 1052.39 115.39 L 1061.47 114.02 L 1070.54 112.64 L 1079.61 111.26 L 1088.68 109.89 L 1097.76 108.51 L 1106.83 107.13 L 1115.90 105.75 L 1124.97 104.38 L 1134.05 103.00 L 1143.12 101.62 L 1152.19 100.24 L 1161.26 98.87 L 1170.33 97.49 L 1179.41 96.11 L 1188.48 94.73 L 1197.55 93.36 L 1206.62 91.98 L 1215.70 90.60 L 1224.77 89.23 L 1233.84 87.85 L 1242.91 86.47 L 1251.99 85.09 L 1261.06 83.72 L 1270.13 82.34 L 1279.20 80.96 L 1288.28 79.58 L 1297.35 78.21 L 1306.42 76.83 L 1315.49 75.45 L 1324.56 74.07 L 1333.64 72.70 L 1342.71 71.32 L 1351.78 69.94 L 1360.85 68.57 L 1369.93 67.19 L 1379.00 65.81 L 1388.07 64.43 L 1397.14 63.06 L 1406.22 61.68 L 1415.29 60.30 L 1424.36 58.92 L 1433.43 57.55 L 1442.51 56.17 L 1451.58 54.79 L 1460.65 53.41 L 1469.72 52.04 L 1478.80 50.66 L 1487.87 49.28 L 1496.94 47.91 L 1506.01 46.53 L 1515.08 45.15 L 1524.16 43.77 L 1533.23 42.40 L 1542.30 41.02 L 1551.37 39.64 L 1560.45 38.26 L 1569.52 36.89 L 1578.59 35.51 L 1587.66 34.13 L 1596.74 32.75 L 1605.81 31.38 L 1614.88 30.00 L 1623.95 28.62 L 1623.95 -28.62 L 1614.88 -30.00 L 1605.81 -31.38 L 1596.74 -32.75 L 1587.66 -34.13 L 1578.59 -35.51 L 1569.52 -36.89 L 1560.45 -38.26 L 1551.37 -39.64 L 1542.30 -41.02 L 1533.23 -42.40 L 1524.16 -43.77 L 1515.08 -45.15 L 1506.01 -46.53 L 1496.94 -47.91 L 1487.87 -49.28 L 1478.80 -50.66 L 1469.72 -52.04 L 1460.65 -53.41 L 1451.58 -54.79 L 1442.51 -56.17 L 1433.43 -57.55 L 1424.36 -58.92 L 1415.29 -60.30 L 1406.22 -61.68 L 1397.14 -63.06 L 1388.07 -64.43 L 1379.00 -65.81 L 1369.93 -67.19 L 1360.85 -68.57 L 1351.78 -69.94 L 1342.71 -71.32 L 1333.64 -72.70 L 1324.56 -74.07 L 1315.49 -75.45 L 1306.42 -76.83 L 1297.35 -78.21 L 1288.28 -79.58 L 1279.20 -80.96 L 1270.13 -82.34 L 1261.06 -83.72 L 1251.99 -85.09 L 1242.91 -86.47 L 1233.84 -87.85 L 1224.77 -89.23 L 1215.70 -90.60 L 1206.62 -91.98 L 1197.55 -93.36 L 1188.48 -94.73 L 1179.41 -96.11 L 1170.33 -97.49 L 1161.26 -98.87 L 1152.19 -100.24 L 1143.12 -101.62 L 1134.05 -103.00 L 1124.97 -104.38 L 1115.90 -105.75 L 1106.83 -107.13 L 1097.76 -108.51 L 1088.68 -109.89 L 1079.61 -111.26 L 1070.54 -112.64 L 1061.47 -114.02 L 1052.39 -115.39 L 1043.32 -116.77 L 1034.25 -118.15 L 1025.18 -119.53 L 1016.10 -120.90 L 1007.03 -122.28 L 997.96 -123.66 L 988.89 -125.04 L 979.82 -126.41 L 970.74 -127.79 L 961.67 -129.17 L 952.60 -130.54 L 943.53 -131.92 L 934.45 -133.30 L 925.38 -134.68 L 916.31 -136.05 L 907.24 -137.43 L 898.16 -138.81 L 889.09 -140.19 L 880.02 -141.56 L 870.95 -142.94 L 861.87 -144.32 L 852.80 -145.70 L 843.73 -147.07 L 834.66 -148.45 L 825.58 -149.83 L 816.51 -151.20 L 807.44 -152.58 L 798.37 -153.96 L 789.30 -155.34 L 780.22 -156.71 L 771.15 -158.09 L 762.08 -159.47 L 753.01 -160.85 L 743.93 -162.22 L 734.86 -163.60 L 725.79 -164.98 L 716.72 -166.36 L 707.64 -167.73 L 698.57 -169.11 L 689.50 -170.49 L 680.43 -171.86 L 671.35 -173.24 L 662.28 -174.62 L 653.21 -176.00 L 644.14 -177.37 L 635.07 -178.75 L 625.99 -180.13 L 616.92 -181.51 L 607.85 -182.88 L 598.78 -184.26 L 589.70 -185.64 L 580.63 -187.02 L 571.56 -188.39 L 562.49 -189.77 L 553.41 -191.15 L 544.34 -192.52 L 535.27 -193.90 L 526.20 -195.28 L 517.12 -196.66 L 508.05 -198.03 L 498.98 -199.41 L 489.91 -200.79 L 480.84 -202.17 L 471.76 -203.54 L 462.69 -204.92 L 453.62 -206.30 L 444.55 -207.68 L 435.47 -209.05 L 426.40 -210.43 L 417.33 -211.81 L 408.26 -213.18 L 399.18 -214.56 L 390.11 -215.94 L 381.04 -217.32 L 371.97 -218.69 L 362.89 -220.07 L 353.82 -221.45 L 344.75 -222.83 L 335.68 -224.20 L 326.61 -225.58 L 317.53 -226.96 L 308.46 -228.34 L 299.39 -229.71 L 290.32 -231.09 L 281.24 -232.47 L 272.17 -233.84 L 263.10 -235.22 L 254.03 -236.60 L 244.95 -237.98 L 235.88 -239.35 L 226.81 -240.73 L 217.74 -242.11 L 208.66 -243.49 L 199.59 -244.86 L 190.52 -246.24 L 181.45 -247.62 L 172.37 -248.99 L 163.30 -250.37 L 154.23 -251.75 L 145.16 -253.13 L 136.09 -254.50 L 127.01 -255.88 L 117.94 -257.26 L 108.87 -258.64 L 99.80 -260.01 L 90.72 -261.39 L 81.65 -262.77 L 72.58 -264.15 L 63.51 -265.52 L 54.43 -266.90 L 45.36 -268.28 L 36.29 -269.65 L 27.22 -271.03 L 18.14 -272.41 L 9.07 -273.79 L 0.00 -275.16 L 0.00 275.16" fill="#e4d4b5" fill-opacity="0.7" stroke="#222" stroke-width="1.5"/>
<line x1="0.00" y1="0" x2="1623.95" y2="0" stroke="#0a7" stroke-width="1.0"/>
<circle cx="0.00" cy="0" r="0.9" fill="#c00000"/>
<circle cx="45.55" cy="0" r="0.9" fill="#888"/>
<circle cx="90.94" cy="0" r="0.9" fill="#888"/>
<circle cx="136.21" cy="0" r="0.9" fill="#1060d0"/>
<circle cx="181.39" cy="0" r="0.9" fill="#888"/>
<circle cx="226.47" cy="0" r="0.9" fill="#888"/>
<circle cx="271.47" cy="0" r="0.9" fill="#888"/>
<circle cx="316.37" cy="0" r="0.9" fill="#c00000"/>
<circle cx="361.19" cy="0" r="0.9" fill="#888"/>
<circle cx="405.83" cy="0" r="0.9" fill="#888"/>
<circle cx="450.34" cy="0" r="0.9" fill="#1060d0"/>
<circle cx="494.65" cy="0" r="0.9" fill="#888"/>
<circle cx="540.42" cy="0" r="0.9" fill="#888"/>
<circle cx="587.45" cy="0" r="0.9" fill="#888"/>
<circle cx="634.12" cy="0" r="0.9" fill="#c00000"/>
<circle cx="680.36" cy="0" r="0.9" fill="#888"/>
<circle cx="725.79" cy="0" r="0.9" fill="#888"/>
<circle cx="770.48" cy="0" r="0.9" fill="#1060d0"/>
<circle cx="814.49" cy="0" r="0.9" fill="#888"/>
<circle cx="857.61" cy="0" r="0.9" fill="#888"/>
<circle cx="899.65" cy="0" r="0.9" fill="#888"/>
<circle cx="940.57" cy="0" r="0.9" fill="#c00000"/>
<circle cx="980.35" cy="0" r="0.9" fill="#888"/>
<circle cx="1018.77" cy="0" r="0.9" fill="#888"/>
<circle cx="1055.92" cy="0" r="0.9" fill="#1060d0"/>
<circle cx="1091.75" cy="0" r="0.9" fill="#888"/>
<circle cx="1126.19" cy="0" r="0.9" fill="#888"/>
<circle cx="1159.21" cy="0" r="0.9" fill="#888"/>
<circle cx="1190.89" cy="0" r="0.9" fill="#c00000"/>
<circle cx="1221.33" cy="0" r="0.9" fill="#888"/>
<circle cx="1250.62" cy="0" r="0.9" fill="#888"/>
<circle cx="1278.80" cy="0" r="0.9" fill="#1060d0"/>
<circle cx="1305.99" cy="0" r="0.9" fill="#888"/>
<circle cx="1332.20" cy="0" r="0.9" fill="#888"/>
<circle cx="1357.59" cy="0" r="0.9" fill="#888"/>
<circle cx="1382.34" cy="0" r="0.9" fill="#c00000"/>
<circle cx="1406.47" cy="0" r="0.9" fill="#888"/>
<circle cx="1430.01" cy="0" r="0.9" fill="#888"/>
<circle cx="1453.06" cy="0" r="0.9" fill="#1060d0"/>
<circle cx="1475.65" cy="0" r="0.9" fill="#888"/>
<circle cx="1497.79" cy="0" r="0.9" fill="#888"/>
<circle cx="1519.53" cy="0" r="0.9" fill="#888"/>
<circle cx="1540.94" cy="0" r="0.9" fill="#c00000"/>
<circle cx="1562.04" cy="0" r="0.9" fill="#888"/>
<circle cx="1582.88" cy="0" r="0.9" fill="#888"/>
<circle cx="1603.50" cy="0" r="0.9" fill="#1060d0"/>
<circle cx="1623.95" cy="0" r="0.9" fill="#888"/>
</g></g></g>
</svg>