<?xml version="1.0" encoding="UTF-8"?>
<svg xmlns="http://www.w3.org/2000/svg" viewBox="-59.8 -295.6 790.9 563.3" width="900" height="640" font-family="sans-serif" font-size="12">
<rect x="-59.8" y="-295.6" width="790.9" height="563.3" fill="#fff"/>
<rect x="-47.8" y="-255.6" width="766.9" height="511.3" fill="none" stroke="#ccc" stroke-width="0.6"/>
<text x="-37.8" y="-267.6" font-family="sans-serif" font-size="22" font-weight="bold" fill="#000">TOP (xy, look -z)</text>
<g transform="scale(1,-1)">
<path d="M 178.21 225.63 L 177.70 225.63 L 177.17 225.63 L 176.73 225.63 L 176.41 225.63 L 176.22 225.63 L 176.18 225.63 L 176.30 225.63 L 176.60 225.63 L 177.08 225.63 L 177.75 225.63 L 178.63 225.63 L 179.72 225.63 L 181.00 225.63 L 182.43 225.63 L 183.91 225.63 L 185.05 225.44 L 186.36 225.24 L 191.36 225.06 L 196.35 224.89 L 201.34 224.70 L 206.30 224.50 L 211.24 224.28 L 216.16 224.03 L 221.04 223.75 L 225.89 223.43 L 230.71 223.08 L 235.50 222.70 L 240.24 222.27 L 244.95 221.80 L 249.62 221.29 L 254.24 220.73 L 258.82 220.13 L 263.36 219.47 L 267.85 218.76 L 272.29 218.00 L 276.68 217.18 L 281.02 216.30 L 285.30 215.35 L 289.53 214.35 L 293.70 213.27 L 297.81 212.12 L 301.85 210.90 L 305.83 209.59 L 309.74 208.21 L 313.59 206.75 L 317.38 205.23 L 321.13 203.66 L 324.84 202.03 L 328.50 200.34 L 332.13 198.62 L 335.73 196.85 L 339.29 195.04 L 342.83 193.19 L 346.34 191.30 L 349.83 189.38 L 353.31 187.43 L 356.76 185.45 L 360.20 183.45 L 363.63 181.42 L 367.05 179.36 L 370.47 177.28 L 373.87 175.18 L 377.28 173.06 L 380.69 170.92 L 384.10 168.76 L 387.51 166.58 L 390.94 164.39 L 394.37 162.19 L 397.82 159.96 L 401.29 157.73 L 404.78 155.48 L 408.30 153.22 L 411.84 150.95 L 415.41 148.67 L 419.02 146.38 L 422.67 144.08 L 426.36 141.77 L 430.10 139.45 L 433.90 137.13 L 437.76 134.79 L 441.68 132.46 L 445.67 130.11 L 449.73 127.77 L 453.88 125.41 L 458.12 123.06 L 462.45 120.69 L 466.88 118.33 L 471.43 115.96 L 476.09 113.60 L 480.87 111.23 L 485.79 108.85 L 490.84 106.48 L 496.04 104.11 L 501.38 101.74 L 506.89 99.37 L 512.56 97.00 L 518.40 94.63 L 524.42 92.26 L 530.61 89.90 L 536.98 87.54 L 543.53 85.18 L 550.27 82.83 L 557.19 80.48 L 564.29 78.14 L 571.57 75.80 L 579.02 73.47 L 586.64 71.15 L 594.43 68.83 L 602.37 66.52 L 610.47 64.22 L 618.72 61.93 L 627.10 59.65 L 635.61 57.38 L 644.25 55.12 L 653.01 52.88 L 661.87 50.64 L 670.84 48.42 L 679.98 46.22 L 689.19 44.03 L 689.19 -44.03 L 679.98 -46.22 L 670.84 -48.42 L 661.87 -50.64 L 653.01 -52.88 L 644.25 -55.12 L 635.61 -57.38 L 627.10 -59.65 L 618.72 -61.93 L 610.47 -64.22 L 602.37 -66.52 L 594.43 -68.83 L 586.64 -71.15 L 579.02 -73.47 L 571.57 -75.80 L 564.29 -78.14 L 557.19 -80.48 L 550.27 -82.83 L 543.53 -85.18 L 536.98 -87.54 L 530.61 -89.90 L 524.42 -92.26 L 518.40 -94.63 L 512.56 -97.00 L 506.89 -99.37 L 501.38 -101.74 L 496.04 -104.11 L 490.84 -106.48 L 485.79 -108.85 L 480.87 -111.23 L 476.09 -113.60 L 471.43 -115.96 L 466.88 -118.33 L 462.45 -120.69 L 458.12 -123.06 L 453.88 -125.41 L 449.73 -127.77 L 445.67 -130.11 L 441.68 -132.46 L 437.76 -134.79 L 433.90 -137.13 L 430.10 -139.45 L 426.36 -141.77 L 422.67 -144.08 L 419.02 -146.38 L 415.41 -148.67 L 411.84 -150.95 L 408.30 -153.22 L 404.78 -155.48 L 401.29 -157.73 L 397.82 -159.96 L 394.37 -162.19 L 390.94 -164.39 L 387.51 -166.58 L 384.10 -168.76 L 380.69 -170.92 L 377.28 -173.06 L 373.87 -175.18 L 370.47 -177.28 L 367.05 -179.36 L 363.63 -181.42 L 360.20 -183.45 L 356.76 -185.45 L 353.31 -187.43 L 349.83 -189.38 L 346.34 -191.30 L 342.83 -193.19 L 339.29 -195.04 L 335.73 -196.85 L 332.13 -198.62 L 328.50 -200.34 L 324.84 -202.03 L 321.13 -203.66 L 317.38 -205.23 L 313.59 -206.75 L 309.74 -208.21 L 305.83 -209.59 L 301.85 -210.90 L 297.81 -212.12 L 293.70 -213.27 L 289.53 -214.35 L 285.30 -215.35 L 281.02 -216.30 L 276.68 -217.18 L 272.29 -218.00 L 267.85 -218.76 L 263.36 -219.47 L 258.82 -220.13 L 254.24 -220.73 L 249.62 -221.29 L 244.95 -221.80 L 240.24 -222.27 L 235.50 -222.70 L 230.71 -223.08 L 225.89 -223.43 L 221.04 -223.75 L 216.16 -224.03 L 211.24 -224.28 L 206.30 -224.50 L 201.34 -224.70 L 196.35 -224.89 L 191.36 -225.06 L 186.36 -225.24 L 185.05 -225.44 L 183.91 -225.63 L 182.43 -225.63 L 181.00 -225.63 L 179.72 -225.63 L 178.63 -225.63 L 177.75 -225.63 L 177.08 -225.63 L 176.60 -225.63 L 176.30 -225.63 L 176.18 -225.63 L 176.22 -225.63 L 176.41 -225.63 L 176.73 -225.63 L 177.17 -225.63 L 177.70 -225.63 L 178.21 -225.63 L 178.21 225.63" fill="#e4d4b5" fill-opacity="0.7" stroke="#222" stroke-width="1.5"/>
<path d="M 319.56 0.00 L 318.52 19.83 L 315.42 39.41 L 310.31 58.51 L 303.25 76.90 L 294.37 94.36 L 283.80 110.68 L 271.69 125.69 L 258.22 139.24 L 243.58 151.18 L 228.00 161.42 L 211.68 169.89 L 194.84 176.55 L 177.72 181.37 L 160.52 184.39 L 143.47 185.63 L 126.75 185.19 L 110.54 183.14 L 95.02 179.61 L 80.33 174.73 L 66.57 168.66 L 53.86 161.54 L 42.25 153.55 L 31.80 144.86 L 22.51 135.62 L 14.38 126.01 L 7.39 116.16 L 1.47 106.24 L -3.43 96.35 L -7.39 86.60 L -10.52 77.09 L -12.91 67.89 L -14.68 59.03 L -15.92 50.55 L -16.75 42.46 L -17.27 34.73 L -17.55 27.33 L -17.69 20.23 L -17.74 13.35 L -17.75 6.64 L -17.75 0.00 L -17.75 -6.64 L -17.74 -13.35 L -17.69 -20.23 L -17.55 -27.33 L -17.27 -34.73 L -16.75 -42.46 L -15.92 -50.55 L -14.68 -59.03 L -12.91 -67.89 L -10.52 -77.09 L -7.39 -86.60 L -3.43 -96.35 L 1.47 -106.24 L 7.39 -116.16 L 14.38 -126.01 L 22.51 -135.62 L 31.80 -144.86 L 42.25 -153.55 L 53.86 -161.54 L 66.57 -168.66 L 80.33 -174.73 L 95.02 -179.61 L 110.54 -183.14 L 126.75 -185.19 L 143.47 -185.63 L 160.52 -184.39 L 177.72 -181.37 L 194.84 -176.55 L 211.68 -169.89 L 228.00 -161.42 L 243.58 -151.18 L 258.22 -139.24 L 271.69 -125.69 L 283.80 -110.68 L 294.37 -94.36 L 303.25 -76.90 L 310.31 -58.51 L 315.42 -39.41 L 318.52 -19.83 L 319.56 0.00" fill="none" stroke="#b8862b" stroke-width="1.0" stroke-dasharray="4,3"/>
<line x1="0.00" y1="0" x2="643.29" y2="0" stroke="#0a7" stroke-width="1.0"/>
<circle cx="0.00" cy="0" r="0.9" fill="#c00000"/>
<circle cx="14.45" cy="0" r="0.9" fill="#888"/>
<circle cx="28.81" cy="0" r="0.9" fill="#888"/>
<circle cx="43.10" cy="0" r="0.9" fill="#1060d0"/>
<circle cx="57.33" cy="0" r="0.9" fill="#888"/>
<circle cx="71.50" cy="0" r="0.9" fill="#888"/>
<circle cx="85.62" cy="0" r="0.9" fill="#888"/>
<circle cx="99.69" cy="0" r="0.9" fill="#c00000"/>
<circle cx="113.72" cy="0" r="0.9" fill="#888"/>
<circle cx="127.69" cy="0" r="0.9" fill="#888"/>
<circle cx="141.62" cy="0" r="0.9" fill="#1060d0"/>
<circle cx="155.50" cy="0" r="0.9" fill="#888"/>
<circle cx="169.86" cy="0" r="0.9" fill="#888"/>
<circle cx="184.66" cy="0" r="0.9" fill="#888"/>
<circle cx="199.41" cy="0" r="0.9" fill="#c00000"/>
<circle cx="214.11" cy="0" r="0.9" fill="#888"/>
<circle cx="228.67" cy="0" r="0.9" fill="#888"/>
<circle cx="243.14" cy="0" r="0.9" fill="#1060d0"/>
<circle cx="257.57" cy="0" r="0.9" fill="#888"/>
<circle cx="271.93" cy="0" r="0.9" fill="#888"/>
<circle cx="286.19" cy="0" r="0.9" fill="#888"/>
<circle cx="300.38" cy="0" r="0.9" fill="#c00000"/>
<circle cx="314.52" cy="0" r="0.9" fill="#888"/>
<circle cx="328.57" cy="0" r="0.9" fill="#888"/>
<circle cx="342.59" cy="0" r="0.9" fill="#1060d0"/>
<circle cx="356.58" cy="0" r="0.9" fill="#888"/>
<circle cx="370.52" cy="0" r="0.9" fill="#888"/>
<circle cx="384.40" cy="0" r="0.9" fill="#888"/>
<circle cx="398.23" cy="0" r="0.9" fill="#c00000"/>
<circle cx="412.04" cy="0" r="0.9" fill="#888"/>
<circle cx="425.83" cy="0" r="0.9" fill="#888"/>
<circle cx="439.59" cy="0" r="0.9" fill="#1060d0"/>
<circle cx="453.33" cy="0" r="0.9" fill="#888"/>
<circle cx="467.01" cy="0" r="0.9" fill="#888"/>
<circle cx="480.66" cy="0" r="0.9" fill="#888"/>
<circle cx="494.34" cy="0" r="0.9" fill="#c00000"/>
<circle cx="508.02" cy="0" r="0.9" fill="#888"/>
<circle cx="521.67" cy="0" r="0.9" fill="#888"/>
<circle cx="535.32" cy="0" r="0.9" fill="#1060d0"/>
<circle cx="548.94" cy="0" r="0.9" fill="#888"/>
<circle cx="562.52" cy="0" r="0.9" fill="#888"/>
<circle cx="576.05" cy="0" r="0.9" fill="#888"/>
<circle cx="589.55" cy="0" r="0.9" fill="#c00000"/>
<circle cx="603.01" cy="0" r="0.9" fill="#888"/>
<circle cx="616.45" cy="0" r="0.9" fill="#888"/>
<circle cx="629.87" cy="0" r="0.9" fill="#1060d0"/>
<circle cx="643.29" cy="0" r="0.9" fill="#888"/>
<rect x="-17.75" y="-16.00" width="32.00" height="32.00" fill="#666" fill-opacity="0.3" stroke="#5d4037" stroke-width="0.6"/>
<ellipse cx="147.08" cy="0" rx="149.11" ry="180.00" fill="none" stroke="#a000a0" stroke-width="0.9" stroke-dasharray="3,2" opacity="0.85"/>
</g>
</svg>