<?xml version="1.0" encoding="UTF-8"?>
<svg xmlns="http://www.w3.org/2000/svg" viewBox="-240.0 -1892.3 480.1 1756.0" width="900" height="3291" font-family="sans-serif" font-size="12">
<rect x="-240.0" y="-1892.3" width="480.1" height="1756.0" fill="#fff"/>
<rect x="-228.0" y="-1852.3" width="456.1" height="1704.0" fill="none" stroke="#ccc" stroke-width="0.6"/>
<text x="-218.0" y="-1864.3" font-family="sans-serif" font-size="22" font-weight="bold" fill="#000">SBF (u,y soundboard)</text>
<g transform="scale(1,-1)">
<path d="M 188.04 188.36 L 187.62 197.44 L 187.19 206.51 L 186.73 215.58 L 186.26 224.65 L 185.78 233.73 L 185.28 242.80 L 184.78 251.87 L 184.26 260.94 L 183.74 270.02 L 183.21 279.09 L 182.68 288.16 L 182.13 297.23 L 181.59 306.30 L 181.03 315.38 L 180.47 324.45 L 179.91 333.52 L 179.34 342.59 L 178.76 351.67 L 178.18 360.74 L 177.60 369.81 L 177.01 378.88 L 176.42 387.96 L 175.83 397.03 L 175.23 406.10 L 174.63 415.17 L 174.02 424.25 L 173.41 433.32 L 172.80 442.39 L 172.18 451.46 L 171.56 460.53 L 170.94 469.61 L 170.32 478.68 L 169.69 487.75 L 169.06 496.82 L 168.42 505.90 L 167.78 514.97 L 167.14 524.04 L 166.50 533.11 L 165.85 542.19 L 165.20 551.26 L 164.55 560.33 L 163.89 569.40 L 163.23 578.48 L 162.57 587.55 L 161.90 596.62 L 161.23 605.69 L 160.56 614.77 L 159.89 623.84 L 159.21 632.91 L 158.53 641.98 L 157.84 651.05 L 157.16 660.13 L 156.46 669.20 L 155.77 678.27 L 155.07 687.34 L 154.37 696.42 L 153.66 705.49 L 152.95 714.56 L 152.24 723.63 L 151.52 732.71 L 150.79 741.78 L 150.06 750.85 L 149.33 759.92 L 148.59 769.00 L 147.84 778.07 L 147.10 787.14 L 146.34 796.21 L 145.59 805.28 L 144.83 814.36 L 144.07 823.43 L 143.30 832.50 L 142.54 841.57 L 141.77 850.65 L 140.99 859.72 L 140.21 868.79 L 139.43 877.86 L 138.65 886.94 L 137.86 896.01 L 137.08 905.08 L 136.29 914.15 L 135.49 923.23 L 134.70 932.30 L 133.90 941.37 L 133.10 950.44 L 132.30 959.51 L 131.49 968.59 L 130.69 977.66 L 129.88 986.73 L 129.07 995.80 L 128.26 1004.88 L 127.45 1013.95 L 126.63 1023.02 L 125.81 1032.09 L 125.00 1041.17 L 124.18 1050.24 L 123.36 1059.31 L 122.53 1068.38 L 121.71 1077.46 L 120.88 1086.53 L 120.06 1095.60 L 119.23 1104.67 L 118.40 1113.75 L 117.57 1122.82 L 116.74 1131.89 L 115.90 1140.96 L 115.07 1150.03 L 114.24 1159.11 L 113.40 1168.18 L 112.56 1177.25 L 111.73 1186.32 L 110.89 1195.40 L 110.05 1204.47 L 109.21 1213.54 L 108.37 1222.61 L 107.53 1231.69 L 106.68 1240.76 L 105.84 1249.83 L 105.00 1258.90 L 104.15 1267.98 L 103.31 1277.05 L 102.46 1286.12 L 101.62 1295.19 L 100.77 1304.26 L 99.93 1313.34 L 99.08 1322.41 L 98.23 1331.48 L 97.38 1340.55 L 96.54 1349.63 L 95.69 1358.70 L 94.84 1367.77 L 93.99 1376.84 L 93.14 1385.92 L 92.29 1394.99 L 91.44 1404.06 L 90.59 1413.13 L 89.74 1422.21 L 88.89 1431.28 L 88.04 1440.35 L 87.19 1449.42 L 86.34 1458.49 L 85.49 1467.57 L 84.64 1476.64 L 83.80 1485.71 L 82.95 1494.78 L 82.10 1503.86 L 81.25 1512.93 L 80.40 1522.00 L 79.55 1531.07 L 78.70 1540.15 L 77.85 1549.22 L 77.01 1558.29 L 76.16 1567.36 L 75.31 1576.44 L 74.47 1585.51 L 73.62 1594.58 L 72.77 1603.65 L 71.93 1612.72 L 71.08 1621.80 L 70.24 1630.87 L 69.40 1639.94 L 68.56 1649.01 L 67.71 1658.09 L 66.87 1667.16 L 66.03 1676.23 L 65.19 1685.30 L 64.35 1694.38 L 63.51 1703.45 L 62.68 1712.52 L 61.84 1721.59 L 61.01 1730.67 L 60.17 1739.74 L 59.34 1748.81 L 58.51 1757.88 L 57.67 1766.96 L 56.85 1776.03 L 56.02 1785.10 L 55.19 1794.17 L 54.36 1803.24 L 53.54 1812.32 L -53.54 1812.32 L -54.36 1803.24 L -55.19 1794.17 L -56.02 1785.10 L -56.85 1776.03 L -57.67 1766.96 L -58.51 1757.88 L -59.34 1748.81 L -60.17 1739.74 L -61.01 1730.67 L -61.84 1721.59 L -62.68 1712.52 L -63.51 1703.45 L -64.35 1694.38 L -65.19 1685.30 L -66.03 1676.23 L -66.87 1667.16 L -67.71 1658.09 L -68.56 1649.01 L -69.40 1639.94 L -70.24 1630.87 L -71.08 1621.80 L -71.93 1612.72 L -72.77 1603.65 L -73.62 1594.58 L -74.47 1585.51 L -75.31 1576.44 L -76.16 1567.36 L -77.01 1558.29 L -77.85 1549.22 L -78.70 1540.15 L -79.55 1531.07 L -80.40 1522.00 L -81.25 1512.93 L -82.10 1503.86 L -82.95 1494.78 L -83.80 1485.71 L -84.64 1476.64 L -85.49 1467.57 L -86.34 1458.49 L -87.19 1449.42 L -88.04 1440.35 L -88.89 1431.28 L -89.74 1422.21 L -90.59 1413.13 L -91.44 1404.06 L -92.29 1394.99 L -93.14 1385.92 L -93.99 1376.84 L -94.84 1367.77 L -95.69 1358.70 L -96.54 1349.63 L -97.38 1340.55 L -98.23 1331.48 L -99.08 1322.41 L -99.93 1313.34 L -100.77 1304.26 L -101.62 1295.19 L -102.46 1286.12 L -103.31 1277.05 L -104.15 1267.98 L -105.00 1258.90 L -105.84 1249.83 L -106.68 1240.76 L -107.53 1231.69 L -108.37 1222.61 L -109.21 1213.54 L -110.05 1204.47 L -110.89 1195.40 L -111.73 1186.32 L -112.56 1177.25 L -113.40 1168.18 L -114.24 1159.11 L -115.07 1150.03 L -115.90 1140.96 L -116.74 1131.89 L -117.57 1122.82 L -118.40 1113.75 L -119.23 1104.67 L -120.06 1095.60 L -120.88 1086.53 L -121.71 1077.46 L -122.53 1068.38 L -123.36 1059.31 L -124.18 1050.24 L -125.00 1041.17 L -125.81 1032.09 L -126.63 1023.02 L -127.45 1013.95 L -128.26 1004.88 L -129.07 995.80 L -129.88 986.73 L -130.69 977.66 L -131.49 968.59 L -132.30 959.51 L -133.10 950.44 L -133.90 941.37 L -134.70 932.30 L -135.49 923.23 L -136.29 914.15 L -137.08 905.08 L -137.86 896.01 L -138.65 886.94 L -139.43 877.86 L -140.21 868.79 L -140.99 859.72 L -141.77 850.65 L -142.54 841.57 L -143.30 832.50 L -144.07 823.43 L -144.83 814.36 L -145.59 805.28 L -146.34 796.21 L -147.10 787.14 L -147.84 778.07 L -148.59 769.00 L -149.33 759.92 L -150.06 750.85 L -150.79 741.78 L -151.52 732.71 L -152.24 723.63 L -152.95 714.56 L -153.66 705.49 L -154.37 696.42 L -155.07 687.34 L -155.77 678.27 L -156.46 669.20 L -157.16 660.13 L -157.84 651.05 L -158.53 641.98 L -159.21 632.91 L -159.89 623.84 L -160.56 614.77 L -161.23 605.69 L -161.90 596.62 L -162.57 587.55 L -163.23 578.48 L -163.89 569.40 L -164.55 560.33 L -165.20 551.26 L -165.85 542.19 L -166.50 533.11 L -167.14 524.04 L -167.78 514.97 L -168.42 505.90 L -169.06 496.82 L -169.69 487.75 L -170.32 478.68 L -170.94 469.61 L -171.56 460.53 L -172.18 451.46 L -172.80 442.39 L -173.41 433.32 L -174.02 424.25 L -174.63 415.17 L -175.23 406.10 L -175.83 397.03 L -176.42 387.96 L -177.01 378.88 L -177.60 369.81 L -178.18 360.74 L -178.76 351.67 L -179.34 342.59 L -179.91 333.52 L -180.47 324.45 L -181.03 315.38 L -181.59 306.30 L -182.13 297.23 L -182.68 288.16 L -183.21 279.09 L -183.74 270.02 L -184.26 260.94 L -184.78 251.87 L -185.28 242.80 L -185.78 233.73 L -186.26 224.65 L -186.73 215.58 L -187.19 206.51 L -187.62 197.44 L -188.04 188.36 L 188.04 188.36" fill="#e4d4b5" fill-opacity="0.7" stroke="#222" stroke-width="1.5"/>
<line x1="0" y1="188.36" x2="0" y2="1812.32" stroke="#0a7" stroke-width="1.0"/>
<circle cx="0" cy="188.36" r="0.9" fill="#c00000"/>
<circle cx="0" cy="233.92" r="0.9" fill="#888"/>
<circle cx="0" cy="279.30" r="0.9" fill="#888"/>
<circle cx="0" cy="324.58" r="0.9" fill="#1060d0"/>
<circle cx="0" cy="369.76" r="0.9" fill="#888"/>
<circle cx="0" cy="414.84" r="0.9" fill="#888"/>
<circle cx="0" cy="459.83" r="0.9" fill="#888"/>
<circle cx="0" cy="504.73" r="0.9" fill="#c00000"/>
<circle cx="0" cy="549.55" r="0.9" fill="#888"/>
<circle cx="0" cy="594.19" r="0.9" fill="#888"/>
<circle cx="0" cy="638.70" r="0.9" fill="#1060d0"/>
<circle cx="0" cy="683.02" r="0.9" fill="#888"/>
<circle cx="0" cy="728.79" r="0.9" fill="#888"/>
<circle cx="0" cy="775.82" r="0.9" fill="#888"/>
<circle cx="0" cy="822.49" r="0.9" fill="#c00000"/>
<circle cx="0" cy="868.72" r="0.9" fill="#888"/>
<circle cx="0" cy="914.15" r="0.9" fill="#888"/>
<circle cx="0" cy="958.84" r="0.9" fill="#1060d0"/>
<circle cx="0" cy="1002.85" r="0.9" fill="#888"/>
<circle cx="0" cy="1045.98" r="0.9" fill="#888"/>
<circle cx="0" cy="1088.01" r="0.9" fill="#888"/>
<circle cx="0" cy="1128.94" r="0.9" fill="#c00000"/>
<circle cx="0" cy="1168.71" r="0.9" fill="#888"/>
<circle cx="0" cy="1207.13" r="0.9" fill="#888"/>
<circle cx="0" cy="1244.28" r="0.9" fill="#1060d0"/>
<circle cx="0" cy="1280.11" r="0.9" fill="#888"/>
<circle cx="0" cy="1314.55" r="0.9" fill="#888"/>
<circle cx="0" cy="1347.58" r="0.9" fill="#888"/>
<circle cx="0" cy="1379.25" r="0.9" fill="#c00000"/>
<circle cx="0" cy="1409.70" r="0.9" fill="#888"/>
<circle cx="0" cy="1438.98" r="0.9" fill="#888"/>
<circle cx="0" cy="1467.16" r="0.9" fill="#1060d0"/>
<circle cx="0" cy="1494.35" r="0.9" fill="#888"/>
<circle cx="0" cy="1520.57" r="0.9" fill="#888"/>
<circle cx="0" cy="1545.95" r="0.9" fill="#888"/>
<circle cx="0" cy="1570.70" r="0.9" fill="#c00000"/>
<circle cx="0" cy="1594.83" r="0.9" fill="#888"/>
<circle cx="0" cy="1618.37" r="0.9" fill="#888"/>
<circle cx="0" cy="1641.43" r="0.9" fill="#1060d0"/>
<circle cx="0" cy="1664.01" r="0.9" fill="#888"/>
<circle cx="0" cy="1686.16" r="0.9" fill="#888"/>
<circle cx="0" cy="1707.90" r="0.9" fill="#888"/>
<circle cx="0" cy="1729.30" r="0.9" fill="#c00000"/>
<circle cx="0" cy="1750.40" r="0.9" fill="#888"/>
<circle cx="0" cy="1771.25" r="0.9" fill="#888"/>
<circle cx="0" cy="1791.87" r="0.9" fill="#1060d0"/>
<circle cx="0" cy="1812.32" r="0.9" fill="#888"/>
</g>
</svg>