<?xml version="1.0" encoding="UTF-8" standalone="no"?>
<svg
   viewBox="-281.33 -1924.73 1158.05 460.24"
   width="1158mm"
   height="460mm"
   version="1.1"
   id="svg1407"
   sodipodi:docname="edit_paths.svg"
   inkscape:version="1.1.2 (0a00cf5339, 2022-02-04)"
   xmlns:inkscape="http://www.inkscape.org/namespaces/inkscape"
   xmlns:sodipodi="http://sodipodi.sourceforge.net/DTD/sodipodi-0.dtd"
   xmlns="http://www.w3.org/2000/svg"
   xmlns:svg="http://www.w3.org/2000/svg">
  <defs
     id="defs1411" />
  <sodipodi:namedview
     id="namedview1409"
     pagecolor="#ffffff"
     bordercolor="#666666"
     borderopacity="1.0"
     inkscape:pageshadow="2"
     inkscape:pageopacity="0.0"
     inkscape:pagecheckerboard="0"
     inkscape:document-units="mm"
     showgrid="false"
     inkscape:zoom="0.38727871"
     inkscape:cx="2221.914"
     inkscape:cy="774.63592"
     inkscape:window-width="1920"
     inkscape:window-height="1043"
     inkscape:window-x="1080"
     inkscape:window-y="598"
     inkscape:window-maximized="1"
     inkscape:current-layer="g1405" />
  <g
     transform="scale(1,-1)"
     id="g1405">
    <path
       id="buffer"
       d="M 647.299,1845.507 C 647.525,1849.556 644.69,1853.138 640.699,1853.912 C 629.118,1854.751 619.429,1846.786 605.113,1841.998 C 590.96,1837.266 576.733,1829.636 559.683,1823.456 C 541.942,1817.027 521.303,1811.996 502.876,1804.341 C 472.904,1791.890 440.838,1788.657 409.818,1777.861 C 360.636,1760.745 315.343,1757.541 274.31,1763.404 C 254.244,1766.247 233.91,1772.022 218.571,1787.220 C 201.486,1804.147 183.884,1809.847 176.086,1815.470 C 161.478,1827.780 143.393,1844.239 132.254,1861.739 C 116.897,1885.904 84.167,1894.750 63.932,1921.239 C 51.362,1937.566 31.457,1947.779 16.951,1965.337 C 14.24,1964.364 12.767,1964.221 11.409,1963.703 L -6.778,1956.707 C -7.205,1956.543 -7.618,1956.345 -8.016,1956.120 L -61.63,1924.090 C -61.807,1923.984 -61.98,1923.872 -62.148,1923.753 L -79.916,1911.197 L -79.93,1911.191 L -97.745,1898.544 C -97.743,1898.538 -97.743,1898.533 -97.745,1898.532 L -115.608,1885.814 C -115.611,1885.814 -115.615,1885.814 -115.618,1885.804 L -133.541,1872.998 C -133.932,1872.719 -134.297,1872.405 -134.632,1872.060 L -151.999,1854.161 C -152.0,1854.161 -152.002,1854.161 -152.003,1854.161 L -169.44,1836.167 C -169.443,1836.167 -169.446,1836.157 -169.448,1836.157 L -186.975,1818.013 C -188.249,1816.695 -189.031,1814.979 -189.191,1813.154 L -192.599,1774.342 C -192.65,1773.785 -192.641,1773.224 -192.571,1772.669 L -182.212,1688.275 L -182.212,1688.275 L -172.604,1608.459 C -172.156,1603.959 -165.867,1599.938 -161.362,1600.608 C -161.327,1600.654 -72.547,1712.260 -1.189,1746.418 C 28.542,1760.649 62.461,1758.849 88.335,1739.898 C 109.169,1725.758 134.736,1697.965 153.399,1693.759 C 177.488,1688.331 177.666,1670.474 197.015,1664.440 C 244.548,1649.617 276.896,1654.941 276.897,1654.935 C 276.937,1654.933 276.977,1654.943 277.016,1654.951 L 312.704,1659.814 C 312.943,1659.844 313.18,1659.887 313.414,1659.944 L 347.811,1667.835 C 347.961,1667.867 348.111,1667.906 348.259,1667.951 L 397.916,1682.413 C 398.137,1682.475 398.355,1682.549 398.569,1682.634 L 430.453,1694.979 C 430.549,1695.014 430.643,1695.053 430.743,1695.081 L 477.304,1718.364 L 537.86,1741.359 C 538.015,1741.424 538.166,1741.495 538.314,1741.573 L 640.341,1793.458 C 642.881,1794.747 644.542,1797.291 644.703,1800.135 Z"
       fill="none"
       stroke="#0a8"
       stroke-width="1.0"
       stroke-dasharray="4,3" />
    <path
       id="neck"
       d="m -225.34,1773.64 c -7.422,62.964 179.17,195.00 240.291,191.696 61.12,-3.30 94.31993,-85.5633 199.55142,-173.3561 105.23148,-87.7927 398.97426,69.4028 448.50507,70.3018 49.53082,0.899 129.56387,-79.684 57.60,-148.42 -14.62,12.80 -39.01,34.17 -60.19,52.70 -51.80,45.36 -58.16,11.44 -78.21,-0.65 -479.77,-278.49 -413.13,-4.77 -551.36,-12.96 -90.474523,-5.3586 -199.366303,-187.3312 -213.67835,-175.24 -4.02116,65.28019 -7.52527,130.59429 -10.51165,195.93 z"
       fill="none"
       stroke="#5d4037"
       stroke-width="1.4"
       sodipodi:nodetypes="czzzccssccc" />
  </g>
</svg>
