<?xml version="1.0" encoding="UTF-8" standalone="no"?>
<svg
   viewBox="-281.33 -1924.73 1158.05 460.24"
   width="1158mm"
   height="460mm"
   version="1.1"
   id="svg1407"
   sodipodi:docname="edit_paths.svg"
   inkscape:version="1.1.2 (0a00cf5339, 2022-02-04)"
   xmlns:inkscape="http://www.inkscape.org/namespaces/inkscape"
   xmlns:sodipodi="http://sodipodi.sourceforge.net/DTD/sodipodi-0.dtd"
   xmlns="http://www.w3.org/2000/svg"
   xmlns:svg="http://www.w3.org/2000/svg">
  <defs
     id="defs1411" />
  <sodipodi:namedview
     id="namedview1409"
     pagecolor="#ffffff"
     bordercolor="#666666"
     borderopacity="1.0"
     inkscape:pageshadow="2"
     inkscape:pageopacity="0.0"
     inkscape:pagecheckerboard="0"
     inkscape:document-units="mm"
     showgrid="false"
     inkscape:zoom="0.38727871"
     inkscape:cx="2221.914"
     inkscape:cy="774.63592"
     inkscape:window-width="1920"
     inkscape:window-height="1043"
     inkscape:window-x="1080"
     inkscape:window-y="598"
     inkscape:window-maximized="1"
     inkscape:current-layer="g1405" />
  <g
     transform="scale(1,-1)"
     id="g1405">
    <path
       id="buffer"
       d="M 647.299,1762.286 C 647.525,1766.335 644.690,1769.917 640.699,1770.691 C 629.118,1771.530 619.429,1763.565 605.113,1758.777 C 590.960,1754.045 576.733,1746.415 559.683,1740.235 C 541.942,1733.806 521.303,1728.775 502.876,1721.120 C 472.904,1708.669 440.838,1705.436 409.818,1694.640 C 360.636,1677.524 315.343,1674.320 274.310,1680.183 C 254.244,1683.026 233.910,1688.801 218.571,1703.999 C 201.486,1720.926 183.884,1726.626 176.086,1732.249 C 161.478,1744.559 143.393,1761.018 132.254,1778.518 C 116.897,1802.683 84.167,1811.529 63.932,1838.018 C 51.362,1854.345 31.457,1864.558 16.951,1882.116 C 14.240,1881.143 12.767,1881.000 11.409,1880.482 L -6.778,1873.486 C -7.205,1873.322 -7.618,1873.124 -8.016,1872.899 L -61.630,1840.869 C -61.807,1840.763 -61.980,1840.651 -62.148,1840.532 L -79.916,1827.976 L -79.930,1827.970 L -97.745,1815.323 C -97.743,1815.317 -97.743,1815.312 -97.745,1815.311 L -115.608,1802.593 C -115.611,1802.593 -115.615,1802.593 -115.618,1802.583 L -133.541,1789.777 C -133.932,1789.498 -134.297,1789.184 -134.632,1788.839 L -151.999,1770.940 C -152.000,1770.940 -152.002,1770.940 -152.003,1770.940 L -169.440,1752.946 C -169.443,1752.946 -169.446,1752.936 -169.448,1752.936 L -186.975,1734.792 C -188.249,1733.474 -189.031,1731.758 -189.191,1729.933 L -192.599,1691.121 C -192.650,1690.564 -192.641,1690.003 -192.571,1689.448 L -182.212,1605.054 L -182.212,1605.054 L -172.604,1525.238 C -172.156,1520.738 -165.867,1516.717 -161.362,1517.387 C -161.327,1517.433 -72.547,1629.039 -1.189,1663.197 C 28.542,1677.428 62.461,1675.628 88.335,1656.677 C 109.169,1642.537 134.736,1614.744 153.399,1610.538 C 177.488,1605.110 177.666,1587.253 197.015,1581.219 C 244.548,1566.396 276.896,1571.720 276.897,1571.714 C 276.937,1571.712 276.977,1571.722 277.016,1571.730 L 312.704,1576.593 C 312.943,1576.623 313.180,1576.666 313.414,1576.723 L 347.811,1584.614 C 347.961,1584.646 348.111,1584.685 348.259,1584.730 L 397.916,1599.192 C 398.137,1599.254 398.355,1599.328 398.569,1599.413 L 430.453,1611.758 C 430.549,1611.793 430.643,1611.832 430.743,1611.860 L 477.304,1635.143 L 537.860,1658.138 C 538.015,1658.203 538.166,1658.274 538.314,1658.352 L 640.341,1710.237 C 642.881,1711.526 644.542,1714.070 644.703,1716.914 Z"
       fill="none"
       stroke="#0a8"
       stroke-width="1.0"
       stroke-dasharray="4,3" />
    <path
       id="neck"
       d="m -225.34,1690.42 c -7.422,62.964 179.17,195.00 240.291,191.696 61.12,-3.30 94.31993,-85.5633 199.55142,-173.3561 105.23148,-87.7927 398.97426,69.4028 448.50507,70.3018 49.53082,0.899 129.56387,-79.684 67.38251,-156.9817 -24.4,21.36 -48.79,42.73 -69.97,61.26 52.07,45.07 -58.16,11.44 -78.21,-0.65 -479.77,-278.49 -413.13,-4.77 -551.36,-12.96 -90.474523,-5.3586 -199.366303,-187.3312 -213.67835,-175.24 -4.02116,65.28019 -7.52527,130.59429 -10.51165,195.93 z"
       fill="none"
       stroke="#5d4037"
       stroke-width="1.4"
       sodipodi:nodetypes="czzzccssccc" />
  </g>
</svg>
