<?xml version="1.0" encoding="UTF-8" standalone="no"?>
<svg
   viewBox="-281.33 -1924.73 1158.05 460.24"
   width="1158mm"
   height="460mm"
   version="1.1"
   id="svg1407"
   sodipodi:docname="edit_paths.svg"
   inkscape:version="1.1.2 (0a00cf5339, 2022-02-04)"
   xmlns:inkscape="http://www.inkscape.org/namespaces/inkscape"
   xmlns:sodipodi="http://sodipodi.sourceforge.net/DTD/sodipodi-0.dtd"
   xmlns="http://www.w3.org/2000/svg"
   xmlns:svg="http://www.w3.org/2000/svg">
  <defs
     id="defs1411" />
  <sodipodi:namedview
     id="namedview1409"
     pagecolor="#ffffff"
     bordercolor="#666666"
     borderopacity="1.0"
     inkscape:pageshadow="2"
     inkscape:pageopacity="0.0"
     inkscape:pagecheckerboard="0"
     inkscape:document-units="mm"
     showgrid="false"
     inkscape:zoom="0.38727871"
     inkscape:cx="2221.914"
     inkscape:cy="774.63592"
     inkscape:window-width="1920"
     inkscape:window-height="1043"
     inkscape:window-x="1080"
     inkscape:window-y="598"
     inkscape:window-maximized="1"
     inkscape:current-layer="g1405" />
  <g
     transform="scale(1,-1)"
     id="g1405">
    <path
       id="buffer"
       d="M 647.299,1832.936 C 647.525,1836.985 644.69,1840.567 640.699,1841.341 C 629.118,1842.180 619.429,1834.215 605.113,1829.427 C 590.96,1824.695 576.733,1817.065 559.683,1810.885 C 541.942,1804.456 521.303,1799.425 502.876,1791.770 C 472.904,1779.319 440.838,1776.086 409.818,1765.290 C 360.636,1748.174 315.343,1744.970 274.31,1750.833 C 254.244,1753.676 233.91,1759.451 218.571,1774.649 C 201.486,1791.576 183.884,1797.276 176.086,1802.899 C 161.478,1815.209 143.393,1831.668 132.254,1849.168 C 116.897,1873.333 84.167,1882.179 63.932,1908.668 C 51.362,1924.995 31.457,1935.208 16.951,1952.766 C 14.24,1951.793 12.767,1951.650 11.409,1951.132 L -6.778,1944.136 C -7.205,1943.972 -7.618,1943.774 -8.016,1943.549 L -61.63,1911.519 C -61.807,1911.413 -61.98,1911.301 -62.148,1911.182 L -79.916,1898.626 L -79.93,1898.620 L -97.745,1885.973 C -97.743,1885.967 -97.743,1885.962 -97.745,1885.961 L -115.608,1873.243 C -115.611,1873.243 -115.615,1873.243 -115.618,1873.233 L -133.541,1860.427 C -133.932,1860.148 -134.297,1859.834 -134.632,1859.489 L -151.999,1841.590 C -152.0,1841.590 -152.002,1841.590 -152.003,1841.590 L -169.44,1823.596 C -169.443,1823.596 -169.446,1823.586 -169.448,1823.586 L -186.975,1805.442 C -188.249,1804.124 -189.031,1802.408 -189.191,1800.583 L -192.599,1761.771 C -192.65,1761.214 -192.641,1760.653 -192.571,1760.098 L -182.212,1675.704 L -182.212,1675.704 L -172.604,1595.888 C -172.156,1591.388 -165.867,1587.367 -161.362,1588.037 C -161.327,1588.083 -72.547,1699.689 -1.189,1733.847 C 28.542,1748.078 62.461,1746.278 88.335,1727.327 C 109.169,1713.187 134.736,1685.394 153.399,1681.188 C 177.488,1675.760 177.666,1657.903 197.015,1651.869 C 244.548,1637.046 276.896,1642.370 276.897,1642.364 C 276.937,1642.362 276.977,1642.372 277.016,1642.380 L 312.704,1647.243 C 312.943,1647.273 313.18,1647.316 313.414,1647.373 L 347.811,1655.264 C 347.961,1655.296 348.111,1655.335 348.259,1655.380 L 397.916,1669.842 C 398.137,1669.904 398.355,1669.978 398.569,1670.063 L 430.453,1682.408 C 430.549,1682.443 430.643,1682.482 430.743,1682.510 L 477.304,1705.793 L 537.86,1728.788 C 538.015,1728.853 538.166,1728.924 538.314,1729.002 L 640.341,1780.887 C 642.881,1782.176 644.542,1784.720 644.703,1787.564 Z"
       fill="none"
       stroke="#0a8"
       stroke-width="1.0"
       stroke-dasharray="4,3" />
    <path
       id="neck"
       d="m -225.34,1761.07 c -7.422,62.964 179.17,195.00 240.291,191.696 61.12,-3.30 94.31993,-85.5633 199.55142,-173.3561 105.23148,-87.7927 398.97426,69.4028 448.50507,70.3018 49.53082,0.899 129.56387,-79.684 57.60,-148.42 -14.62,12.80 -39.01,34.17 -60.19,52.70 52.07,45.07 -58.16,11.44 -78.21,-0.65 -479.77,-278.49 -413.13,-4.77 -551.36,-12.96 -90.474523,-5.3586 -199.366303,-187.3312 -213.67835,-175.24 -4.02116,65.28019 -7.52527,130.59429 -10.51165,195.93 z"
       fill="none"
       stroke="#5d4037"
       stroke-width="1.4"
       sodipodi:nodetypes="czzzccssccc" />
  </g>
</svg>
