<?xml version="1.0" encoding="UTF-8"?>
<svg xmlns="http://www.w3.org/2000/svg" viewBox="-93.5 -1916.8 823.5 1969.6" width="800" height="1913" font-family="sans-serif" font-size="12">
<g transform="scale(1, -1)">
<line x1="-93.5" y1="-2.87" x2="729.9" y2="-2.87" stroke="brown" stroke-width="0.8" stroke-dasharray="6,4" opacity="0.6"/>
<polygon points="-43.74,-2.87 -43.74,1786.78 -43.74,1786.78 -43.70,1788.76 -43.58,1790.71 -43.39,1792.64 -43.11,1794.54 -42.77,1796.42 -42.35,1798.28 -41.86,1800.11 -41.30,1801.91 -40.67,1803.69 -39.97,1805.45 -39.21,1807.18 -38.38,1808.89 -37.49,1810.57 -36.53,1812.23 -35.52,1813.86 -34.45,1815.47 -33.31,1817.06 -32.13,1818.62 -30.89,1820.15 -29.59,1821.66 -28.24,1823.14 -26.84,1824.60 -25.40,1826.04 -23.90,1827.45 -22.36,1828.84 -20.77,1830.20 -19.14,1831.54 -17.46,1832.85 -15.75,1834.14 -15.75,-2.87" fill="gray" fill-opacity="0.4" stroke="gray" stroke-width="0.5"/>
<circle cx="0.00" cy="1817.73" r="8.0" fill="red" fill-opacity="0.13"/>
<circle cx="0.00" cy="1639.77" r="8.0" fill="blue" fill-opacity="0.13"/>
<circle cx="14.45" cy="1791.55" r="8.0" fill="red" fill-opacity="0.13"/>
<circle cx="14.45" cy="1621.23" r="8.0" fill="blue" fill-opacity="0.13"/>
<circle cx="28.81" cy="1766.22" r="8.0" fill="red" fill-opacity="0.13"/>
<circle cx="28.81" cy="1603.34" r="8.0" fill="blue" fill-opacity="0.13"/>
<circle cx="43.10" cy="1777.73" r="8.0" fill="red" fill-opacity="0.13"/>
<circle cx="43.10" cy="1618.23" r="8.0" fill="blue" fill-opacity="0.13"/>
<circle cx="57.33" cy="1768.01" r="8.0" fill="red" fill-opacity="0.13"/>
<circle cx="57.33" cy="1614.26" r="8.0" fill="blue" fill-opacity="0.13"/>
<circle cx="71.50" cy="1758.18" r="8.0" fill="red" fill-opacity="0.13"/>
<circle cx="71.50" cy="1610.19" r="8.0" fill="blue" fill-opacity="0.13"/>
<circle cx="85.61" cy="1821.93" r="8.0" fill="red" fill-opacity="0.13"/>
<circle cx="85.61" cy="1671.66" r="8.0" fill="blue" fill-opacity="0.13"/>
<circle cx="99.69" cy="1854.05" r="8.0" fill="red" fill-opacity="0.13"/>
<circle cx="99.69" cy="1704.87" r="8.0" fill="blue" fill-opacity="0.13"/>
<circle cx="113.71" cy="1828.21" r="8.0" fill="red" fill-opacity="0.13"/>
<circle cx="113.71" cy="1686.57" r="8.0" fill="blue" fill-opacity="0.13"/>
<circle cx="127.69" cy="1802.34" r="8.0" fill="red" fill-opacity="0.13"/>
<circle cx="127.69" cy="1668.05" r="8.0" fill="blue" fill-opacity="0.13"/>
<circle cx="141.62" cy="1813.05" r="8.0" fill="red" fill-opacity="0.13"/>
<circle cx="141.62" cy="1682.24" r="8.0" fill="blue" fill-opacity="0.13"/>
<circle cx="155.50" cy="1802.55" r="8.0" fill="red" fill-opacity="0.13"/>
<circle cx="155.50" cy="1677.49" r="8.0" fill="blue" fill-opacity="0.13"/>
<circle cx="169.85" cy="1798.64" r="8.0" fill="red" fill-opacity="0.13"/>
<circle cx="169.85" cy="1678.74" r="8.0" fill="blue" fill-opacity="0.13"/>
<circle cx="184.66" cy="1796.04" r="8.0" fill="red" fill-opacity="0.13"/>
<circle cx="184.66" cy="1681.30" r="8.0" fill="blue" fill-opacity="0.13"/>
<circle cx="199.41" cy="1787.71" r="8.0" fill="red" fill-opacity="0.13"/>
<circle cx="199.41" cy="1678.73" r="8.0" fill="blue" fill-opacity="0.13"/>
<circle cx="214.10" cy="1784.20" r="8.0" fill="red" fill-opacity="0.13"/>
<circle cx="214.10" cy="1680.38" r="8.0" fill="blue" fill-opacity="0.13"/>
<circle cx="228.66" cy="1779.89" r="8.0" fill="red" fill-opacity="0.13"/>
<circle cx="228.66" cy="1681.23" r="8.0" fill="blue" fill-opacity="0.13"/>
<circle cx="243.13" cy="1774.93" r="8.0" fill="red" fill-opacity="0.13"/>
<circle cx="243.13" cy="1681.44" r="8.0" fill="blue" fill-opacity="0.13"/>
<circle cx="257.57" cy="1769.18" r="8.0" fill="red" fill-opacity="0.13"/>
<circle cx="257.57" cy="1680.84" r="8.0" fill="blue" fill-opacity="0.13"/>
<circle cx="271.93" cy="1767.76" r="8.0" fill="red" fill-opacity="0.13"/>
<circle cx="271.93" cy="1683.99" r="8.0" fill="blue" fill-opacity="0.13"/>
<circle cx="286.19" cy="1775.72" r="8.0" fill="red" fill-opacity="0.13"/>
<circle cx="286.19" cy="1695.43" r="8.0" fill="blue" fill-opacity="0.13"/>
<circle cx="300.38" cy="1772.03" r="8.0" fill="red" fill-opacity="0.13"/>
<circle cx="300.38" cy="1696.40" r="8.0" fill="blue" fill-opacity="0.13"/>
<circle cx="314.51" cy="1772.48" r="8.0" fill="red" fill-opacity="0.13"/>
<circle cx="314.51" cy="1700.72" r="8.0" fill="blue" fill-opacity="0.13"/>
<circle cx="328.57" cy="1771.43" r="8.0" fill="red" fill-opacity="0.13"/>
<circle cx="328.57" cy="1703.73" r="8.0" fill="blue" fill-opacity="0.13"/>
<circle cx="342.59" cy="1769.01" r="8.0" fill="red" fill-opacity="0.13"/>
<circle cx="342.59" cy="1705.38" r="8.0" fill="blue" fill-opacity="0.13"/>
<circle cx="356.58" cy="1770.44" r="8.0" fill="red" fill-opacity="0.13"/>
<circle cx="356.58" cy="1710.20" r="8.0" fill="blue" fill-opacity="0.13"/>
<circle cx="370.52" cy="1770.37" r="8.0" fill="red" fill-opacity="0.13"/>
<circle cx="370.52" cy="1713.60" r="8.0" fill="blue" fill-opacity="0.13"/>
<circle cx="384.41" cy="1774.05" r="8.0" fill="red" fill-opacity="0.13"/>
<circle cx="384.41" cy="1720.15" r="8.0" fill="blue" fill-opacity="0.13"/>
<circle cx="398.24" cy="1755.31" r="8.0" fill="red" fill-opacity="0.13"/>
<circle cx="398.24" cy="1706.47" r="8.0" fill="blue" fill-opacity="0.13"/>
<circle cx="412.05" cy="1750.87" r="8.0" fill="red" fill-opacity="0.13"/>
<circle cx="412.05" cy="1705.51" r="8.0" fill="blue" fill-opacity="0.13"/>
<circle cx="425.84" cy="1745.13" r="8.0" fill="red" fill-opacity="0.13"/>
<circle cx="425.84" cy="1703.25" r="8.0" fill="blue" fill-opacity="0.13"/>
<circle cx="439.60" cy="1743.42" r="8.0" fill="red" fill-opacity="0.13"/>
<circle cx="439.60" cy="1704.42" r="8.0" fill="blue" fill-opacity="0.13"/>
<circle cx="453.33" cy="1745.83" r="8.0" fill="red" fill-opacity="0.13"/>
<circle cx="453.33" cy="1709.11" r="8.0" fill="blue" fill-opacity="0.13"/>
<circle cx="467.01" cy="1741.89" r="8.0" fill="red" fill-opacity="0.13"/>
<circle cx="467.01" cy="1708.05" r="8.0" fill="blue" fill-opacity="0.13"/>
<circle cx="480.66" cy="1737.09" r="8.0" fill="red" fill-opacity="0.13"/>
<circle cx="480.66" cy="1706.02" r="8.0" fill="blue" fill-opacity="0.13"/>
<circle cx="494.34" cy="1726.15" r="8.0" fill="red" fill-opacity="0.13"/>
<circle cx="494.34" cy="1698.56" r="8.0" fill="blue" fill-opacity="0.13"/>
<circle cx="508.02" cy="1719.73" r="8.0" fill="red" fill-opacity="0.13"/>
<circle cx="508.02" cy="1695.02" r="8.0" fill="blue" fill-opacity="0.13"/>
<circle cx="521.67" cy="1717.86" r="8.0" fill="red" fill-opacity="0.13"/>
<circle cx="521.67" cy="1695.53" r="8.0" fill="blue" fill-opacity="0.13"/>
<circle cx="535.32" cy="1718.58" r="8.0" fill="red" fill-opacity="0.13"/>
<circle cx="535.32" cy="1698.13" r="8.0" fill="blue" fill-opacity="0.13"/>
<circle cx="548.95" cy="1722.90" r="8.0" fill="red" fill-opacity="0.13"/>
<circle cx="548.95" cy="1703.94" r="8.0" fill="blue" fill-opacity="0.13"/>
<circle cx="562.52" cy="1726.69" r="8.0" fill="red" fill-opacity="0.13"/>
<circle cx="562.52" cy="1709.32" r="8.0" fill="blue" fill-opacity="0.13"/>
<circle cx="576.05" cy="1733.18" r="8.0" fill="red" fill-opacity="0.13"/>
<circle cx="576.05" cy="1716.91" r="8.0" fill="blue" fill-opacity="0.13"/>
<circle cx="589.55" cy="1737.19" r="8.0" fill="red" fill-opacity="0.13"/>
<circle cx="589.55" cy="1722.30" r="8.0" fill="blue" fill-opacity="0.13"/>
<circle cx="603.01" cy="1740.83" r="8.0" fill="red" fill-opacity="0.13"/>
<circle cx="603.01" cy="1727.33" r="8.0" fill="blue" fill-opacity="0.13"/>
<circle cx="616.45" cy="1743.06" r="8.0" fill="red" fill-opacity="0.13"/>
<circle cx="616.45" cy="1731.05" r="8.0" fill="blue" fill-opacity="0.13"/>
<circle cx="629.87" cy="1745.12" r="8.0" fill="red" fill-opacity="0.13"/>
<circle cx="629.87" cy="1734.50" r="8.0" fill="blue" fill-opacity="0.13"/>
<circle cx="643.29" cy="1741.59" r="8.0" fill="red" fill-opacity="0.13"/>
<circle cx="643.29" cy="1733.06" r="8.0" fill="blue" fill-opacity="0.13"/>
<line x1="0.00" y1="186.78" x2="0.00" y2="1817.73" stroke="red" stroke-width="0.3" opacity="0.4"/>
<line x1="14.45" y1="229.98" x2="14.45" y2="1791.55" stroke="red" stroke-width="0.3" opacity="0.4"/>
<line x1="28.81" y1="273.04" x2="28.81" y2="1766.22" stroke="red" stroke-width="0.3" opacity="0.4"/>
<line x1="43.10" y1="316.01" x2="43.10" y2="1777.73" stroke="red" stroke-width="0.3" opacity="0.4"/>
<line x1="57.33" y1="358.89" x2="57.33" y2="1768.01" stroke="red" stroke-width="0.3" opacity="0.4"/>
<line x1="71.50" y1="401.67" x2="71.50" y2="1758.18" stroke="red" stroke-width="0.3" opacity="0.4"/>
<line x1="85.61" y1="444.38" x2="85.61" y2="1821.93" stroke="red" stroke-width="0.3" opacity="0.4"/>
<line x1="99.69" y1="487.02" x2="99.69" y2="1854.05" stroke="red" stroke-width="0.3" opacity="0.4"/>
<line x1="113.71" y1="529.56" x2="113.71" y2="1828.21" stroke="red" stroke-width="0.3" opacity="0.4"/>
<line x1="127.69" y1="571.98" x2="127.69" y2="1802.34" stroke="red" stroke-width="0.3" opacity="0.4"/>
<line x1="141.62" y1="614.26" x2="141.62" y2="1813.05" stroke="red" stroke-width="0.3" opacity="0.4"/>
<line x1="155.50" y1="656.36" x2="155.50" y2="1802.55" stroke="red" stroke-width="0.3" opacity="0.4"/>
<line x1="169.85" y1="699.80" x2="169.85" y2="1798.64" stroke="red" stroke-width="0.3" opacity="0.4"/>
<line x1="184.66" y1="744.44" x2="184.66" y2="1796.04" stroke="red" stroke-width="0.3" opacity="0.4"/>
<line x1="199.41" y1="788.72" x2="199.41" y2="1787.71" stroke="red" stroke-width="0.3" opacity="0.4"/>
<line x1="214.10" y1="832.55" x2="214.10" y2="1784.20" stroke="red" stroke-width="0.3" opacity="0.4"/>
<line x1="228.66" y1="875.58" x2="228.66" y2="1779.89" stroke="red" stroke-width="0.3" opacity="0.4"/>
<line x1="243.13" y1="917.87" x2="243.13" y2="1774.93" stroke="red" stroke-width="0.3" opacity="0.4"/>
<line x1="257.57" y1="959.46" x2="257.57" y2="1769.18" stroke="red" stroke-width="0.3" opacity="0.4"/>
<line x1="271.93" y1="1000.12" x2="271.93" y2="1767.76" stroke="red" stroke-width="0.3" opacity="0.4"/>
<line x1="286.19" y1="1039.65" x2="286.19" y2="1775.72" stroke="red" stroke-width="0.3" opacity="0.4"/>
<line x1="300.38" y1="1078.04" x2="300.38" y2="1772.03" stroke="red" stroke-width="0.3" opacity="0.4"/>
<line x1="314.51" y1="1115.22" x2="314.51" y2="1772.48" stroke="red" stroke-width="0.3" opacity="0.4"/>
<line x1="328.57" y1="1150.98" x2="328.57" y2="1771.43" stroke="red" stroke-width="0.3" opacity="0.4"/>
<line x1="342.59" y1="1185.39" x2="342.59" y2="1769.01" stroke="red" stroke-width="0.3" opacity="0.4"/>
<line x1="356.58" y1="1218.39" x2="356.58" y2="1770.44" stroke="red" stroke-width="0.3" opacity="0.4"/>
<line x1="370.52" y1="1249.88" x2="370.52" y2="1770.37" stroke="red" stroke-width="0.3" opacity="0.4"/>
<line x1="384.41" y1="1279.86" x2="384.41" y2="1774.05" stroke="red" stroke-width="0.3" opacity="0.4"/>
<line x1="398.24" y1="1308.36" x2="398.24" y2="1755.31" stroke="red" stroke-width="0.3" opacity="0.4"/>
<line x1="412.05" y1="1335.49" x2="412.05" y2="1750.87" stroke="red" stroke-width="0.3" opacity="0.4"/>
<line x1="425.84" y1="1361.32" x2="425.84" y2="1745.13" stroke="red" stroke-width="0.3" opacity="0.4"/>
<line x1="439.60" y1="1385.91" x2="439.60" y2="1743.42" stroke="red" stroke-width="0.3" opacity="0.4"/>
<line x1="453.33" y1="1409.36" x2="453.33" y2="1745.83" stroke="red" stroke-width="0.3" opacity="0.4"/>
<line x1="467.01" y1="1431.72" x2="467.01" y2="1741.89" stroke="red" stroke-width="0.3" opacity="0.4"/>
<line x1="480.66" y1="1453.12" x2="480.66" y2="1737.09" stroke="red" stroke-width="0.3" opacity="0.4"/>
<line x1="494.34" y1="1473.75" x2="494.34" y2="1726.15" stroke="red" stroke-width="0.3" opacity="0.4"/>
<line x1="508.02" y1="1493.63" x2="508.02" y2="1719.73" stroke="red" stroke-width="0.3" opacity="0.4"/>
<line x1="521.67" y1="1512.80" x2="521.67" y2="1717.86" stroke="red" stroke-width="0.3" opacity="0.4"/>
<line x1="535.32" y1="1531.38" x2="535.32" y2="1718.58" stroke="red" stroke-width="0.3" opacity="0.4"/>
<line x1="548.95" y1="1549.40" x2="548.95" y2="1722.90" stroke="red" stroke-width="0.3" opacity="0.4"/>
<line x1="562.52" y1="1566.89" x2="562.52" y2="1726.69" stroke="red" stroke-width="0.3" opacity="0.4"/>
<line x1="576.05" y1="1583.91" x2="576.05" y2="1733.18" stroke="red" stroke-width="0.3" opacity="0.4"/>
<line x1="589.55" y1="1600.51" x2="589.55" y2="1737.19" stroke="red" stroke-width="0.3" opacity="0.4"/>
<line x1="603.01" y1="1616.76" x2="603.01" y2="1740.83" stroke="red" stroke-width="0.3" opacity="0.4"/>
<line x1="616.45" y1="1632.69" x2="616.45" y2="1743.06" stroke="red" stroke-width="0.3" opacity="0.4"/>
<line x1="629.87" y1="1648.35" x2="629.87" y2="1745.12" stroke="red" stroke-width="0.3" opacity="0.4"/>
<line x1="643.29" y1="1663.78" x2="643.29" y2="1741.59" stroke="red" stroke-width="0.3" opacity="0.4"/>
<line x1="-27.50" y1="104.68" x2="0.00" y2="186.78" stroke="lightblue" stroke-width="1" stroke-dasharray="3,3"/>
<line x1="643.29" y1="1663.78" x2="669.71" y2="1693.95" stroke="lightblue" stroke-width="1" stroke-dasharray="3,3"/>
<path d="M 0.00 186.78 C 325.29 1157.92, 350.50 1329.37, 643.29 1663.78" fill="none" stroke="blue" stroke-width="1.2"/>
<path d="M 643.29 1663.78 C 670.20 1694.52, 684.14 1725.06, 643.29 1725.06" fill="none" stroke="blue" stroke-width="1.2"/>
<path d="M 0.00 186.78 C -21.17 123.56, -63.52 27.13, -63.52 -2.87" fill="none" stroke="blue" stroke-width="1.2"/>
<path d="M 474.94 0.00 L 474.94 -2.87 L 470.72 -67.46 L 465.92 -96.36 L 462.56 -111.50 L 460.42 -119.82 L 459.17 -124.19 L 458.61 -126.07 L 458.55 -126.23 L 458.91 -125.17 L 459.58 -123.19 L 460.52 -120.50 L 461.69 -117.24 L 463.04 -113.50 L 464.55 -109.38 L 466.20 -104.91 L 467.98 -100.14 L 469.88 -95.11 L 471.87 -89.83 L 473.96 -84.31 L 476.14 -78.57 L 478.40 -72.62 L 480.75 -66.44 L 483.18 -60.04 L 485.68 -53.40 L 488.27 -46.51 L 490.95 -39.35 L 493.72 -31.88 L 496.59 -24.07 L 499.57 -15.86 L 502.67 -7.17 L 505.92 2.10 L 509.34 12.08 L 511.92 19.75 L 513.97 25.87 L 516.02 32.00 L 518.06 38.12 L 520.11 44.25 L 522.16 50.37 L 524.21 56.50 L 526.25 62.62 L 528.30 68.74 L 530.34 74.87 L 532.38 80.99 L 534.42 87.12 L 536.47 93.24 L 538.30 99.43 L 538.39 106.20 L 538.48 112.97 L 538.57 119.74 L 538.66 126.51 L 538.75 133.28 L 538.83 140.05 L 538.92 146.81 L 539.00 153.58 L 539.09 160.34 L 539.17 167.10 L 539.25 173.87 L 539.33 180.63 L 539.41 187.39 L 539.49 194.15 L 539.57 200.91 L 539.65 207.67 L 539.73 214.42 L 539.80 221.18 L 539.88 227.94 L 539.95 234.69 L 540.02 241.44 L 540.09 248.19 L 540.16 254.95 L 540.23 261.70 L 540.30 268.44 L 540.37 275.19 L 540.44 281.94 L 540.50 288.68 L 540.57 295.43 L 540.64 302.17 L 540.70 308.91 L 540.76 315.65 L 540.82 322.39 L 540.89 329.13 L 540.95 335.86 L 541.01 342.60 L 541.07 349.33 L 541.12 356.06 L 541.18 362.79 L 541.24 369.52 L 541.29 376.25 L 541.35 382.98 L 541.40 389.70 L 541.46 396.42 L 541.51 403.14 L 541.57 409.86 L 541.62 416.58 L 541.67 423.30 L 541.72 430.01 L 541.77 436.72 L 541.82 443.43 L 541.87 450.14 L 541.92 456.85 L 541.97 463.55 L 542.01 470.26 L 542.06 476.96 L 542.11 483.66 L 542.16 490.35 L 542.20 497.05 L 542.25 503.74 L 542.29 510.43 L 542.34 517.12 L 542.38 523.81 L 542.43 530.49 L 542.47 537.17 L 542.52 543.85 L 542.56 550.53 L 542.60 557.20 L 542.65 563.87 L 542.69 570.54 L 542.73 577.21 L 542.78 583.87 L 542.82 590.53 L 542.86 597.19 L 542.91 603.84 L 542.95 610.49 L 543.00 617.14 L 543.04 623.79 L 543.08 630.43 L 543.13 637.07 L 543.17 643.71 L 543.22 650.34 L 543.27 656.97 L 543.31 663.60 L 543.36 670.22 L 543.41 676.84 L 543.46 683.45 L 543.50 690.07 L 543.55 696.67 L 543.60 703.28 L 543.66 709.88 L 543.71 716.47 L 543.76 723.07 L 543.82 729.65 L 543.87 736.24 L 543.93 742.82 L 543.99 749.39 L 544.05 755.96 L 544.11 762.53 L 544.17 769.09 L 544.23 775.65 L 544.30 782.20 L 544.37 788.74 L 544.44 795.29 L 544.51 801.82 L 544.58 808.35 L 544.66 814.88 L 544.73 821.40 L 544.81 827.91 L 544.90 834.42 L 544.98 840.93 L 545.07 847.42 L 545.16 853.91 L 545.25 860.40 L 545.35 866.88 L 545.45 873.35 L 545.55 879.82 L 545.66 886.28 L 545.77 892.73 L 545.88 899.17 L 546.00 905.61 L 546.12 912.04 L 546.25 918.47 L 546.38 924.89 L 546.51 931.30 L 546.65 937.70 L 546.79 944.09 L 546.94 950.48 L 547.10 956.86 L 547.26 963.23 L 547.42 969.59 L 547.59 975.95 L 547.77 982.29 L 547.95 988.63 L 548.14 994.96 L 548.34 1001.28 L 548.54 1007.59 L 548.75 1013.90 L 548.97 1020.19 L 549.20 1026.48 L 549.43 1032.75 L 549.67 1039.02 L 549.92 1045.27 L 550.18 1051.52 L 550.45 1057.76 L 550.73 1063.99 L 551.01 1070.21 L 551.31 1076.42 L 551.62 1082.62 L 551.94 1088.81 L 552.27 1094.99 L 552.61 1101.16 L 552.96 1107.32 L 553.33 1113.47 L 553.71 1119.61 L 554.10 1125.75 L 554.50 1131.87 L 554.92 1137.98 L 555.35 1144.09 L 555.80 1150.18 L 556.26 1156.27 L 556.74 1162.35 L 557.23 1168.42 L 557.74 1174.48 L 558.27 1180.53 L 558.82 1186.57 L 559.38 1192.61 L 559.96 1198.64 L 560.57 1204.66 L 561.19 1210.67 L 561.83 1216.68 L 562.49 1222.68 L 563.18 1228.68 L 563.88 1234.67 L 564.61 1240.65 L 565.37 1246.63 L 566.14 1252.60 L 566.94 1258.58 L 567.77 1264.54 L 568.62 1270.51 L 569.50 1276.47 L 570.40 1282.43 L 571.33 1288.38 L 572.29 1294.34 L 573.28 1300.29 L 574.30 1306.24 L 575.35 1312.20 L 576.42 1318.15 L 577.53 1324.10 L 578.67 1330.06 L 579.84 1336.01 L 581.04 1341.97 L 582.28 1347.93 L 583.54 1353.89 L 584.84 1359.85 L 586.18 1365.82 L 587.54 1371.79 L 588.94 1377.76 L 590.38 1383.74 L 591.84 1389.72 L 593.35 1395.71 L 594.88 1401.70 L 596.45 1407.69 L 598.06 1413.69 L 599.70 1419.69 L 601.37 1425.70 L 603.08 1431.71 L 604.82 1437.73 L 606.60 1443.75 L 608.41 1449.77 L 610.25 1455.80 L 612.13 1461.83 L 614.04 1467.87 L 615.98 1473.91 L 617.95 1479.96 L 619.95 1486.01 L 621.99 1492.06 L 624.05 1498.12 L 626.15 1504.18 L 628.28 1510.24 L 630.43 1516.31 L 632.61 1522.38 L 634.82 1528.45 L 637.06 1534.53 L 639.32 1540.61 L 641.61 1546.68 L 643.93 1552.77 L 646.27 1558.85 L 648.64 1564.94 L 651.03 1571.02 L 653.44 1577.11 L 655.87 1583.20 L 658.33 1589.29 L 660.80 1595.38 L 663.30 1601.47 L 665.82 1607.57 L 668.36 1613.66 L 670.91 1619.75 L 673.49 1625.85 L 676.08 1631.94 L 679.16 1638.63 L 682.42 1645.82 L 685.55 1653.23 L 688.54 1660.96 L 691.33 1669.11 L 693.88 1677.90 L 696.50 1687.56 L 699.24 1699.09 L 699.35 1714.91 L 691.47 1734.42 L 676.46 1747.25 L 663.09 1751.91 L 652.40 1753.17 L 643.29 1753.04" fill="none" stroke="magenta" stroke-width="1.2"/>
<line x1="-63.52" y1="-2.87" x2="474.94" y2="0" stroke="magenta" stroke-width="1.5"/>
<line x1="-63.52" y1="-2.87" x2="474.94" y2="-2.87" stroke="orange" stroke-width="1.2" opacity="0.7"/>
<circle cx="-63.52" cy="-2.87" r="2" fill="darkorange"/>
<circle cx="71.09" cy="-2.87" r="1.5" fill="darkorange"/>
<circle cx="474.94" cy="-2.87" r="2" fill="darkorange"/>
<line x1="-34.60" y1="93.17" x2="469.37" y2="-96.46" stroke="orange" stroke-width="1.2" opacity="0.7"/>
<circle cx="-34.60" cy="93.17" r="2" fill="darkorange"/>
<circle cx="91.39" cy="45.76" r="1.5" fill="darkorange"/>
<circle cx="469.37" cy="-96.46" r="2" fill="darkorange"/>
<line x1="0.25" y1="187.54" x2="510.84" y2="16.52" stroke="orange" stroke-width="1.2" opacity="0.7"/>
<circle cx="0.25" cy="187.54" r="2" fill="darkorange"/>
<circle cx="127.90" cy="144.78" r="1.5" fill="darkorange"/>
<circle cx="510.84" cy="16.52" r="2" fill="darkorange"/>
<line x1="32.12" y1="282.96" x2="538.50" y2="114.40" stroke="orange" stroke-width="1.2" opacity="0.7"/>
<circle cx="32.12" cy="282.96" r="2" fill="darkorange"/>
<circle cx="158.71" cy="240.82" r="1.5" fill="darkorange"/>
<circle cx="538.50" cy="114.40" r="2" fill="darkorange"/>
<line x1="63.81" y1="378.44" x2="539.80" y2="220.83" stroke="orange" stroke-width="1.2" opacity="0.7"/>
<circle cx="63.81" cy="378.44" r="2" fill="darkorange"/>
<circle cx="182.81" cy="339.04" r="1.5" fill="darkorange"/>
<circle cx="539.80" cy="220.83" r="2" fill="darkorange"/>
<line x1="95.38" y1="473.97" x2="540.87" y2="327.00" stroke="orange" stroke-width="1.2" opacity="0.7"/>
<circle cx="95.38" cy="473.97" r="2" fill="darkorange"/>
<circle cx="206.75" cy="437.22" r="1.5" fill="darkorange"/>
<circle cx="540.87" cy="327.00" r="2" fill="darkorange"/>
<line x1="126.87" y1="569.51" x2="541.74" y2="432.84" stroke="orange" stroke-width="1.2" opacity="0.7"/>
<circle cx="126.87" cy="569.51" r="2" fill="darkorange"/>
<circle cx="230.59" cy="535.34" r="1.5" fill="darkorange"/>
<circle cx="541.74" cy="432.84" r="2" fill="darkorange"/>
<line x1="158.37" y1="665.06" x2="542.48" y2="538.23" stroke="orange" stroke-width="1.2" opacity="0.7"/>
<circle cx="158.37" cy="665.06" r="2" fill="darkorange"/>
<circle cx="254.40" cy="633.35" r="1.5" fill="darkorange"/>
<circle cx="542.48" cy="538.23" r="2" fill="darkorange"/>
<line x1="190.01" y1="760.56" x2="543.17" y2="643.01" stroke="orange" stroke-width="1.2" opacity="0.7"/>
<circle cx="190.01" cy="760.56" r="2" fill="darkorange"/>
<circle cx="278.30" cy="731.17" r="1.5" fill="darkorange"/>
<circle cx="543.17" cy="643.01" r="2" fill="darkorange"/>
<line x1="222.00" y1="855.94" x2="543.96" y2="746.97" stroke="orange" stroke-width="1.2" opacity="0.7"/>
<circle cx="222.00" cy="855.94" r="2" fill="darkorange"/>
<circle cx="302.49" cy="828.70" r="1.5" fill="darkorange"/>
<circle cx="543.96" cy="746.97" r="2" fill="darkorange"/>
<line x1="254.65" y1="951.10" x2="545.10" y2="849.81" stroke="orange" stroke-width="1.2" opacity="0.7"/>
<circle cx="254.65" cy="951.10" r="2" fill="darkorange"/>
<circle cx="327.26" cy="925.78" r="1.5" fill="darkorange"/>
<circle cx="545.10" cy="849.81" r="2" fill="darkorange"/>
<line x1="288.45" y1="1045.85" x2="546.96" y2="951.15" stroke="orange" stroke-width="1.2" opacity="0.7"/>
<circle cx="288.45" cy="1045.85" r="2" fill="darkorange"/>
<circle cx="353.08" cy="1022.18" r="1.5" fill="darkorange"/>
<circle cx="546.96" cy="951.15" r="2" fill="darkorange"/>
<line x1="324.16" y1="1139.90" x2="550.14" y2="1050.54" stroke="orange" stroke-width="1.2" opacity="0.7"/>
<circle cx="324.16" cy="1139.90" r="2" fill="darkorange"/>
<circle cx="380.66" cy="1117.56" r="1.5" fill="darkorange"/>
<circle cx="550.14" cy="1050.54" r="2" fill="darkorange"/>
<line x1="362.87" y1="1232.75" x2="555.61" y2="1147.62" stroke="orange" stroke-width="1.2" opacity="0.7"/>
<circle cx="362.87" cy="1232.75" r="2" fill="darkorange"/>
<circle cx="411.05" cy="1211.47" r="1.5" fill="darkorange"/>
<circle cx="555.61" cy="1147.62" r="2" fill="darkorange"/>
<line x1="405.95" y1="1323.65" x2="564.85" y2="1242.54" stroke="orange" stroke-width="1.2" opacity="0.7"/>
<circle cx="405.95" cy="1323.65" r="2" fill="darkorange"/>
<circle cx="445.67" cy="1303.37" r="1.5" fill="darkorange"/>
<circle cx="564.85" cy="1242.54" r="2" fill="darkorange"/>
<line x1="454.70" y1="1411.63" x2="579.90" y2="1336.33" stroke="orange" stroke-width="1.2" opacity="0.7"/>
<circle cx="454.70" cy="1411.63" r="2" fill="darkorange"/>
<circle cx="486.00" cy="1392.81" r="1.5" fill="darkorange"/>
<circle cx="579.90" cy="1336.33" r="2" fill="darkorange"/>
<line x1="509.62" y1="1495.90" x2="602.72" y2="1430.44" stroke="orange" stroke-width="1.2" opacity="0.7"/>
<circle cx="509.62" cy="1495.90" r="2" fill="darkorange"/>
<circle cx="532.89" cy="1479.53" r="1.5" fill="darkorange"/>
<circle cx="602.72" cy="1430.44" r="2" fill="darkorange"/>
<line x1="570.00" y1="1576.34" x2="633.77" y2="1525.58" stroke="orange" stroke-width="1.2" opacity="0.7"/>
<circle cx="570.00" cy="1576.34" r="2" fill="darkorange"/>
<circle cx="585.95" cy="1563.65" r="1.5" fill="darkorange"/>
<circle cx="633.77" cy="1525.58" r="2" fill="darkorange"/>
<line x1="634.42" y1="1653.61" x2="671.59" y2="1621.36" stroke="orange" stroke-width="1.2" opacity="0.7"/>
<circle cx="634.42" cy="1653.61" r="2" fill="darkorange"/>
<circle cx="643.72" cy="1645.54" r="1.5" fill="darkorange"/>
<circle cx="671.59" cy="1621.36" r="2" fill="darkorange"/>
<line x1="643.29" y1="1725.06" x2="643.29" y2="1753.04" stroke="orange" stroke-width="1.2" opacity="0.7"/>
<circle cx="643.29" cy="1725.06" r="2" fill="darkorange"/>
<circle cx="643.29" cy="1732.05" r="1.5" fill="darkorange"/>
<circle cx="643.29" cy="1753.04" r="2" fill="darkorange"/>
<line x1="-63.52" y1="0" x2="474.94" y2="0" stroke="orange" stroke-width="2"/>
<circle cx="-63.52" cy="0.00" r="2.5" fill="darkorange"/>
<circle cx="71.09" cy="0.00" r="2.5" fill="darkorange"/>
<circle cx="474.94" cy="0.00" r="2.5" fill="darkorange"/>
<path d="M -43.74 1786.78 C -43.74 1838.72, 38.06 1865.55, 89.99 1866.78" fill="none" stroke="black" stroke-width="0.8"/>
<path d="M 89.99 1866.78 C 189.42 1869.13, 282.62 1816.81, 380.05 1796.78" fill="none" stroke="black" stroke-width="0.8"/>
<path d="M 380.05 1796.78 C 467.18 1778.87, 554.34 1753.04, 643.29 1753.04" fill="none" stroke="black" stroke-width="0.8"/>
<path d="M 643.29 1725.06 C 602.17 1712.30, 562.41 1693.79, 519.93 1686.78" fill="none" stroke="black" stroke-width="0.8"/>
<path d="M 519.93 1686.78 C 434.05 1672.60, 345.54 1677.96, 260.01 1661.78" fill="none" stroke="black" stroke-width="0.8"/>
<path d="M 260.01 1661.78 C 138.73 1638.83, -43.74 1573.43, -43.74 1450.00" fill="none" stroke="black" stroke-width="0.8"/>
<path d="M -43.74 1450.00 C -43.74 1562.26, -43.74 1674.52, -43.74 1786.78" fill="none" stroke="black" stroke-width="0.8"/>
<circle cx="0.00" cy="1817.73" r="1.5" fill="red"/>
<circle cx="0.00" cy="1639.77" r="1.5" fill="blue"/>
<circle cx="14.45" cy="1791.55" r="1.5" fill="red"/>
<circle cx="14.45" cy="1621.23" r="1.5" fill="blue"/>
<circle cx="28.81" cy="1766.22" r="1.5" fill="red"/>
<circle cx="28.81" cy="1603.34" r="1.5" fill="blue"/>
<circle cx="43.10" cy="1777.73" r="1.5" fill="red"/>
<circle cx="43.10" cy="1618.23" r="1.5" fill="blue"/>
<circle cx="57.33" cy="1768.01" r="1.5" fill="red"/>
<circle cx="57.33" cy="1614.26" r="1.5" fill="blue"/>
<circle cx="71.50" cy="1758.18" r="1.5" fill="red"/>
<circle cx="71.50" cy="1610.19" r="1.5" fill="blue"/>
<circle cx="85.61" cy="1821.93" r="1.5" fill="red"/>
<circle cx="85.61" cy="1671.66" r="1.5" fill="blue"/>
<circle cx="99.69" cy="1854.05" r="1.5" fill="red"/>
<circle cx="99.69" cy="1704.87" r="1.5" fill="blue"/>
<circle cx="113.71" cy="1828.21" r="1.5" fill="red"/>
<circle cx="113.71" cy="1686.57" r="1.5" fill="blue"/>
<circle cx="127.69" cy="1802.34" r="1.5" fill="red"/>
<circle cx="127.69" cy="1668.05" r="1.5" fill="blue"/>
<circle cx="141.62" cy="1813.05" r="1.5" fill="red"/>
<circle cx="141.62" cy="1682.24" r="1.5" fill="blue"/>
<circle cx="155.50" cy="1802.55" r="1.5" fill="red"/>
<circle cx="155.50" cy="1677.49" r="1.5" fill="blue"/>
<circle cx="169.85" cy="1798.64" r="1.5" fill="red"/>
<circle cx="169.85" cy="1678.74" r="1.5" fill="blue"/>
<circle cx="184.66" cy="1796.04" r="1.5" fill="red"/>
<circle cx="184.66" cy="1681.30" r="1.5" fill="blue"/>
<circle cx="199.41" cy="1787.71" r="1.5" fill="red"/>
<circle cx="199.41" cy="1678.73" r="1.5" fill="blue"/>
<circle cx="214.10" cy="1784.20" r="1.5" fill="red"/>
<circle cx="214.10" cy="1680.38" r="1.5" fill="blue"/>
<circle cx="228.66" cy="1779.89" r="1.5" fill="red"/>
<circle cx="228.66" cy="1681.23" r="1.5" fill="blue"/>
<circle cx="243.13" cy="1774.93" r="1.5" fill="red"/>
<circle cx="243.13" cy="1681.44" r="1.5" fill="blue"/>
<circle cx="257.57" cy="1769.18" r="1.5" fill="red"/>
<circle cx="257.57" cy="1680.84" r="1.5" fill="blue"/>
<circle cx="271.93" cy="1767.76" r="1.5" fill="red"/>
<circle cx="271.93" cy="1683.99" r="1.5" fill="blue"/>
<circle cx="286.19" cy="1775.72" r="1.5" fill="red"/>
<circle cx="286.19" cy="1695.43" r="1.5" fill="blue"/>
<circle cx="300.38" cy="1772.03" r="1.5" fill="red"/>
<circle cx="300.38" cy="1696.40" r="1.5" fill="blue"/>
<circle cx="314.51" cy="1772.48" r="1.5" fill="red"/>
<circle cx="314.51" cy="1700.72" r="1.5" fill="blue"/>
<circle cx="328.57" cy="1771.43" r="1.5" fill="red"/>
<circle cx="328.57" cy="1703.73" r="1.5" fill="blue"/>
<circle cx="342.59" cy="1769.01" r="1.5" fill="red"/>
<circle cx="342.59" cy="1705.38" r="1.5" fill="blue"/>
<circle cx="356.58" cy="1770.44" r="1.5" fill="red"/>
<circle cx="356.58" cy="1710.20" r="1.5" fill="blue"/>
<circle cx="370.52" cy="1770.37" r="1.5" fill="red"/>
<circle cx="370.52" cy="1713.60" r="1.5" fill="blue"/>
<circle cx="384.41" cy="1774.05" r="1.5" fill="red"/>
<circle cx="384.41" cy="1720.15" r="1.5" fill="blue"/>
<circle cx="398.24" cy="1755.31" r="1.5" fill="red"/>
<circle cx="398.24" cy="1706.47" r="1.5" fill="blue"/>
<circle cx="412.05" cy="1750.87" r="1.5" fill="red"/>
<circle cx="412.05" cy="1705.51" r="1.5" fill="blue"/>
<circle cx="425.84" cy="1745.13" r="1.5" fill="red"/>
<circle cx="425.84" cy="1703.25" r="1.5" fill="blue"/>
<circle cx="439.60" cy="1743.42" r="1.5" fill="red"/>
<circle cx="439.60" cy="1704.42" r="1.5" fill="blue"/>
<circle cx="453.33" cy="1745.83" r="1.5" fill="red"/>
<circle cx="453.33" cy="1709.11" r="1.5" fill="blue"/>
<circle cx="467.01" cy="1741.89" r="1.5" fill="red"/>
<circle cx="467.01" cy="1708.05" r="1.5" fill="blue"/>
<circle cx="480.66" cy="1737.09" r="1.5" fill="red"/>
<circle cx="480.66" cy="1706.02" r="1.5" fill="blue"/>
<circle cx="494.34" cy="1726.15" r="1.5" fill="red"/>
<circle cx="494.34" cy="1698.56" r="1.5" fill="blue"/>
<circle cx="508.02" cy="1719.73" r="1.5" fill="red"/>
<circle cx="508.02" cy="1695.02" r="1.5" fill="blue"/>
<circle cx="521.67" cy="1717.86" r="1.5" fill="red"/>
<circle cx="521.67" cy="1695.53" r="1.5" fill="blue"/>
<circle cx="535.32" cy="1718.58" r="1.5" fill="red"/>
<circle cx="535.32" cy="1698.13" r="1.5" fill="blue"/>
<circle cx="548.95" cy="1722.90" r="1.5" fill="red"/>
<circle cx="548.95" cy="1703.94" r="1.5" fill="blue"/>
<circle cx="562.52" cy="1726.69" r="1.5" fill="red"/>
<circle cx="562.52" cy="1709.32" r="1.5" fill="blue"/>
<circle cx="576.05" cy="1733.18" r="1.5" fill="red"/>
<circle cx="576.05" cy="1716.91" r="1.5" fill="blue"/>
<circle cx="589.55" cy="1737.19" r="1.5" fill="red"/>
<circle cx="589.55" cy="1722.30" r="1.5" fill="blue"/>
<circle cx="603.01" cy="1740.83" r="1.5" fill="red"/>
<circle cx="603.01" cy="1727.33" r="1.5" fill="blue"/>
<circle cx="616.45" cy="1743.06" r="1.5" fill="red"/>
<circle cx="616.45" cy="1731.05" r="1.5" fill="blue"/>
<circle cx="629.87" cy="1745.12" r="1.5" fill="red"/>
<circle cx="629.87" cy="1734.50" r="1.5" fill="blue"/>
<circle cx="643.29" cy="1741.59" r="1.5" fill="red"/>
<circle cx="643.29" cy="1733.06" r="1.5" fill="blue"/>
</g>
<circle cx="-43.74" cy="-1786.78" r="1.5" fill="black"/>
<text x="-43.74" y="-1794.78" font-size="9" text-anchor="middle">K1</text>
<circle cx="89.99" cy="-1866.78" r="1.5" fill="black"/>
<text x="89.99" y="-1874.78" font-size="9" text-anchor="middle">K2</text>
<circle cx="380.05" cy="-1796.78" r="1.5" fill="black"/>
<text x="380.05" y="-1804.78" font-size="9" text-anchor="middle">K3</text>
<circle cx="643.29" cy="-1753.04" r="1.5" fill="black"/>
<text x="643.29" y="-1761.04" font-size="9" text-anchor="middle">K4</text>
<circle cx="699.94" cy="-1711.78" r="1.5" fill="black"/>
<text x="699.94" y="-1719.78" font-size="9" text-anchor="middle">K5</text>
<circle cx="643.29" cy="-1725.06" r="1.5" fill="black"/>
<text x="643.29" y="-1733.06" font-size="9" text-anchor="middle">K6</text>
<circle cx="519.93" cy="-1686.78" r="1.5" fill="black"/>
<text x="519.93" y="-1694.78" font-size="9" text-anchor="middle">K7</text>
<circle cx="260.01" cy="-1661.78" r="1.5" fill="black"/>
<text x="260.01" y="-1669.78" font-size="9" text-anchor="middle">K8</text>
<circle cx="-43.74" cy="-1450.00" r="1.5" fill="black"/>
<text x="-43.74" y="-1438.00" font-size="9" text-anchor="middle">K9</text>
<circle cx="0.00" cy="-186.78" r="1.5" fill="black"/>
<text x="5.00" y="-191.78" fill="black" font-size="10">SBB</text>
<circle cx="643.29" cy="-1725.06" r="1.5" fill="black"/>
<text x="648.29" y="-1730.06" fill="black" font-size="10">SBN</text>
<circle cx="-63.52" cy="2.87" r="1.5" fill="darkred"/>
<text x="-58.52" y="-2.13" fill="darkred" font-size="10">SF</text>
<circle cx="-27.50" cy="-104.68" r="1.5" fill="steelblue"/>
<text x="-22.50" y="-109.68" fill="steelblue" font-size="10">S'_b</text>
<circle cx="669.71" cy="-1693.95" r="1.5" fill="steelblue"/>
<text x="674.71" y="-1698.95" fill="steelblue" font-size="10">S'_t</text>
<circle cx="-43.74" cy="2.87" r="1.5" fill="darkred"/>
<text x="-38.74" y="-2.13" fill="darkred" font-size="10">CF_l</text>
<circle cx="-15.75" cy="2.87" r="1.5" fill="darkred"/>
<text x="-10.75" y="-2.13" fill="darkred" font-size="10">CF_r</text>
<circle cx="474.94" cy="-0.00" r="1.5" fill="darkorange"/>
<text x="479.94" y="-5.00" fill="darkorange" font-size="10">B_floor</text>
<circle cx="474.94" cy="-0.00" r="1.5" fill="magenta"/>
<text x="479.94" y="-5.00" fill="magenta" font-size="10">floor_end</text>
<circle cx="474.11" cy="-27.97" r="1.5" fill="darkorange"/>
<text x="479.11" y="-32.97" fill="darkorange" font-size="10">B1</text>
</svg>