<svg xmlns="http://www.w3.org/2000/svg" width="761" height="1246" viewBox="0 0 761 1246">
<rect width="100%" height="100%" fill="white"/>
<line x1="80" y1="137" x2="681" y2="137" stroke="#eee" stroke-width="1" stroke-dasharray="4,4"/>
<line x1="170.0" y1="136.6" x2="170.0" y2="1031.3" stroke="#999" stroke-width="0.7"/>
<circle cx="170.0" cy="136.6" r="1.5" fill="#666"/>
<line x1="180.6" y1="136.1" x2="180.6" y2="1015.4" stroke="#999" stroke-width="0.7"/>
<circle cx="180.6" cy="136.1" r="1.5" fill="#666"/>
<line x1="191.2" y1="134.1" x2="191.2" y2="999.6" stroke="#999" stroke-width="0.7"/>
<circle cx="191.2" cy="134.1" r="1.5" fill="#666"/>
<line x1="201.8" y1="134.2" x2="201.8" y2="983.8" stroke="#999" stroke-width="0.7"/>
<circle cx="201.8" cy="134.2" r="1.5" fill="#666"/>
<line x1="212.4" y1="135.7" x2="212.4" y2="967.6" stroke="#999" stroke-width="0.7"/>
<circle cx="212.4" cy="135.7" r="1.5" fill="#666"/>
<line x1="223.0" y1="137.1" x2="223.0" y2="951.0" stroke="#999" stroke-width="0.7"/>
<circle cx="223.0" cy="137.1" r="1.5" fill="#666"/>
<line x1="233.6" y1="136.8" x2="233.6" y2="933.7" stroke="#999" stroke-width="0.7"/>
<circle cx="233.6" cy="136.8" r="1.5" fill="#666"/>
<line x1="244.1" y1="136.6" x2="244.1" y2="915.1" stroke="#999" stroke-width="0.7"/>
<circle cx="244.1" cy="136.6" r="1.5" fill="#666"/>
<line x1="254.8" y1="139.0" x2="254.8" y2="894.7" stroke="#999" stroke-width="0.7"/>
<circle cx="254.8" cy="139.0" r="1.5" fill="#666"/>
<line x1="265.3" y1="136.6" x2="265.3" y2="872.4" stroke="#999" stroke-width="0.7"/>
<circle cx="265.3" cy="136.6" r="1.5" fill="#666"/>
<line x1="275.9" y1="125.0" x2="275.9" y2="847.7" stroke="#999" stroke-width="0.7"/>
<circle cx="275.9" cy="125.0" r="1.5" fill="#666"/>
<line x1="286.5" y1="125.4" x2="286.5" y2="820.3" stroke="#999" stroke-width="0.7"/>
<circle cx="286.5" cy="125.4" r="1.5" fill="#666"/>
<line x1="296.8" y1="130.4" x2="296.8" y2="790.6" stroke="#999" stroke-width="0.7"/>
<circle cx="296.8" cy="130.4" r="1.5" fill="#666"/>
<line x1="307.1" y1="133.8" x2="307.1" y2="757.7" stroke="#999" stroke-width="0.7"/>
<circle cx="307.1" cy="133.8" r="1.5" fill="#666"/>
<line x1="317.4" y1="135.8" x2="317.4" y2="721.4" stroke="#999" stroke-width="0.7"/>
<circle cx="317.4" cy="135.8" r="1.5" fill="#666"/>
<line x1="327.7" y1="136.6" x2="327.7" y2="682.1" stroke="#999" stroke-width="0.7"/>
<circle cx="327.7" cy="136.6" r="1.5" fill="#666"/>
<line x1="337.4" y1="136.8" x2="337.4" y2="643.6" stroke="#999" stroke-width="0.7"/>
<circle cx="337.4" cy="136.8" r="1.5" fill="#666"/>
<line x1="347.1" y1="136.4" x2="347.1" y2="604.6" stroke="#999" stroke-width="0.7"/>
<circle cx="347.1" cy="136.4" r="1.5" fill="#666"/>
<line x1="356.7" y1="136.0" x2="356.7" y2="566.9" stroke="#999" stroke-width="0.7"/>
<circle cx="356.7" cy="136.0" r="1.5" fill="#666"/>
<line x1="365.8" y1="135.9" x2="365.8" y2="533.3" stroke="#999" stroke-width="0.7"/>
<circle cx="365.8" cy="135.9" r="1.5" fill="#666"/>
<line x1="374.9" y1="135.9" x2="374.9" y2="502.2" stroke="#999" stroke-width="0.7"/>
<circle cx="374.9" cy="135.9" r="1.5" fill="#666"/>
<line x1="384.0" y1="136.1" x2="384.0" y2="473.5" stroke="#999" stroke-width="0.7"/>
<circle cx="384.0" cy="136.1" r="1.5" fill="#666"/>
<line x1="393.1" y1="136.3" x2="393.1" y2="447.1" stroke="#999" stroke-width="0.7"/>
<circle cx="393.1" cy="136.3" r="1.5" fill="#666"/>
<line x1="402.1" y1="136.6" x2="402.1" y2="423.0" stroke="#999" stroke-width="0.7"/>
<circle cx="402.1" cy="136.6" r="1.5" fill="#666"/>
<line x1="411.2" y1="137.0" x2="411.2" y2="401.0" stroke="#999" stroke-width="0.7"/>
<circle cx="411.2" cy="137.0" r="1.5" fill="#666"/>
<line x1="420.3" y1="137.2" x2="420.3" y2="380.6" stroke="#999" stroke-width="0.7"/>
<circle cx="420.3" cy="137.2" r="1.5" fill="#666"/>
<line x1="428.8" y1="137.3" x2="428.8" y2="363.0" stroke="#999" stroke-width="0.7"/>
<circle cx="428.8" cy="137.3" r="1.5" fill="#666"/>
<line x1="437.2" y1="137.3" x2="437.2" y2="346.5" stroke="#999" stroke-width="0.7"/>
<circle cx="437.2" cy="137.3" r="1.5" fill="#666"/>
<line x1="445.7" y1="137.2" x2="445.7" y2="331.1" stroke="#999" stroke-width="0.7"/>
<circle cx="445.7" cy="137.2" r="1.5" fill="#666"/>
<line x1="454.2" y1="137.1" x2="454.2" y2="316.7" stroke="#999" stroke-width="0.7"/>
<circle cx="454.2" cy="137.1" r="1.5" fill="#666"/>
<line x1="462.7" y1="136.8" x2="462.7" y2="303.0" stroke="#999" stroke-width="0.7"/>
<circle cx="462.7" cy="136.8" r="1.5" fill="#666"/>
<line x1="471.1" y1="136.6" x2="471.1" y2="290.3" stroke="#999" stroke-width="0.7"/>
<circle cx="471.1" cy="136.6" r="1.5" fill="#666"/>
<line x1="479.6" y1="136.5" x2="479.6" y2="278.2" stroke="#999" stroke-width="0.7"/>
<circle cx="479.6" cy="136.5" r="1.5" fill="#666"/>
<line x1="487.5" y1="136.3" x2="487.5" y2="267.7" stroke="#999" stroke-width="0.7"/>
<circle cx="487.5" cy="136.3" r="1.5" fill="#666"/>
<line x1="495.4" y1="136.3" x2="495.4" y2="257.8" stroke="#999" stroke-width="0.7"/>
<circle cx="495.4" cy="136.3" r="1.5" fill="#666"/>
<line x1="503.2" y1="136.2" x2="503.2" y2="248.4" stroke="#999" stroke-width="0.7"/>
<circle cx="503.2" cy="136.2" r="1.5" fill="#666"/>
<line x1="511.1" y1="136.2" x2="511.1" y2="239.5" stroke="#999" stroke-width="0.7"/>
<circle cx="511.1" cy="136.2" r="1.5" fill="#666"/>
<line x1="519.0" y1="136.4" x2="519.0" y2="231.2" stroke="#999" stroke-width="0.7"/>
<circle cx="519.0" cy="136.4" r="1.5" fill="#666"/>
<line x1="526.8" y1="136.5" x2="526.8" y2="223.3" stroke="#999" stroke-width="0.7"/>
<circle cx="526.8" cy="136.5" r="1.5" fill="#666"/>
<line x1="534.7" y1="136.6" x2="534.7" y2="215.9" stroke="#999" stroke-width="0.7"/>
<circle cx="534.7" cy="136.6" r="1.5" fill="#666"/>
<line x1="542.6" y1="136.8" x2="542.6" y2="209.0" stroke="#999" stroke-width="0.7"/>
<circle cx="542.6" cy="136.8" r="1.5" fill="#666"/>
<line x1="550.4" y1="136.8" x2="550.4" y2="202.3" stroke="#999" stroke-width="0.7"/>
<circle cx="550.4" cy="136.8" r="1.5" fill="#666"/>
<line x1="558.3" y1="136.7" x2="558.3" y2="195.9" stroke="#999" stroke-width="0.7"/>
<circle cx="558.3" cy="136.7" r="1.5" fill="#666"/>
<line x1="566.2" y1="136.6" x2="566.2" y2="189.9" stroke="#999" stroke-width="0.7"/>
<circle cx="566.2" cy="136.6" r="1.5" fill="#666"/>
<line x1="574.0" y1="136.4" x2="574.0" y2="183.9" stroke="#999" stroke-width="0.7"/>
<circle cx="574.0" cy="136.4" r="1.5" fill="#666"/>
<line x1="581.9" y1="136.4" x2="581.9" y2="178.2" stroke="#999" stroke-width="0.7"/>
<circle cx="581.9" cy="136.4" r="1.5" fill="#666"/>
<line x1="589.8" y1="136.6" x2="589.8" y2="172.6" stroke="#999" stroke-width="0.7"/>
<circle cx="589.8" cy="136.6" r="1.5" fill="#666"/>
<path d="M 170.0 136.6 L 180.6 136.1 L 191.2 134.1 L 201.8 134.2 L 212.4 135.7 L 223.0 137.1 L 233.6 136.8 L 244.1 136.6 L 254.8 139.0 L 265.3 136.6 L 275.9 125.0 L 286.5 125.4 L 296.8 130.4 L 307.1 133.8 L 317.4 135.8 L 327.7 136.6 L 337.4 136.8 L 347.1 136.4 L 356.7 136.0 L 365.8 135.9 L 374.9 135.9 L 384.0 136.1 L 393.1 136.3 L 402.1 136.6 L 411.2 137.0 L 420.3 137.2 L 428.8 137.3 L 437.2 137.3 L 445.7 137.2 L 454.2 137.1 L 462.7 136.8 L 471.1 136.6 L 479.6 136.5 L 487.5 136.3 L 495.4 136.3 L 503.2 136.2 L 511.1 136.2 L 519.0 136.4 L 526.8 136.5 L 534.7 136.6 L 542.6 136.8 L 550.4 136.8 L 558.3 136.7 L 566.2 136.6 L 574.0 136.4 L 581.9 136.4 L 589.8 136.6" fill="none" stroke="#c66" stroke-width="1" stroke-dasharray="2,2"/>
<path d="M 125.0 1121.4 L 125.0 1120.6 L 125.0 1119.8 L 125.1 1119.0 L 125.2 1118.2 L 125.3 1117.4 L 125.4 1116.6 L 125.6 1115.7 L 125.7 1114.8 L 125.9 1114.0 L 126.1 1113.1 L 126.3 1112.1 L 126.6 1111.2 L 126.8 1110.3 L 127.1 1109.3 L 127.4 1108.4 L 127.7 1107.4 L 128.1 1106.4 L 128.4 1105.4 L 128.8 1104.4 L 129.2 1103.4 L 129.5 1102.4 L 130.0 1101.3 L 130.4 1100.3 L 130.8 1099.2 L 131.3 1098.2 L 131.7 1097.1 L 132.2 1096.1 L 132.7 1095.0 L 133.2 1093.9 L 133.7 1092.8 L 134.2 1091.7 L 134.8 1090.6 L 135.3 1089.5 L 135.8 1088.4 L 136.4 1087.3 L 137.0 1086.2 L 137.5 1085.1 L 138.1 1084.0 L 138.7 1082.8 L 139.3 1081.7 L 139.9 1080.6 L 140.5 1079.5 L 141.1 1078.4 L 141.8 1077.2 L 142.4 1076.1 L 143.0 1075.0 L 143.6 1073.9 L 144.3 1072.8 L 144.9 1071.7 L 145.6 1070.5 L 146.2 1069.4 L 146.8 1068.3 L 147.5 1067.2 L 148.1 1066.2 L 148.8 1065.1 L 149.4 1064.0 L 150.1 1062.9 L 150.7 1061.8 L 151.4 1060.8 L 152.0 1059.7 L 152.6 1058.7 L 153.3 1057.6 L 153.9 1056.6 L 154.5 1055.6 L 155.2 1054.6 L 155.8 1053.6 L 156.4 1052.6 L 157.0 1051.6 L 157.6 1050.6 L 158.3 1049.6 L 158.9 1048.7 L 159.5 1047.7 L 160.1 1046.7 L 160.7 1045.8 L 161.3 1044.8 L 161.9 1043.9 L 162.5 1043.0 L 163.1 1042.0 L 163.7 1041.1 L 164.3 1040.2 L 164.9 1039.2 L 165.5 1038.3 L 166.1 1037.4 L 166.7 1036.5 L 167.3 1035.6 L 167.9 1034.7 L 168.5 1033.7 L 169.1 1032.8 L 169.7 1031.9 L 170.2 1031.0 L 170.9 1030.1 L 171.5 1029.2 L 172.1 1028.3 L 172.7 1027.3 L 173.3 1026.4 L 173.9 1025.5 L 174.5 1024.6 L 175.1 1023.7 L 175.7 1022.8 L 176.3 1021.8 L 176.9 1020.9 L 177.5 1020.0 L 178.1 1019.1 L 178.8 1018.2 L 179.4 1017.2 L 180.0 1016.3 L 180.6 1015.4 L 181.2 1014.5 L 181.8 1013.6 L 182.4 1012.6 L 183.1 1011.7 L 183.7 1010.8 L 184.3 1009.9 L 184.9 1008.9 L 185.5 1008.0 L 186.2 1007.1 L 186.8 1006.2 L 187.4 1005.2 L 188.0 1004.3 L 188.7 1003.4 L 189.3 1002.4 L 189.9 1001.5 L 190.5 1000.6 L 191.2 999.7 L 191.8 998.7 L 192.4 997.8 L 193.0 996.9 L 193.7 995.9 L 194.3 995.0 L 194.9 994.1 L 195.5 993.1 L 196.2 992.2 L 196.8 991.3 L 197.4 990.3 L 198.0 989.4 L 198.7 988.4 L 199.3 987.5 L 199.9 986.6 L 200.5 985.6 L 201.2 984.7 L 201.8 983.7 L 202.4 982.8 L 203.0 981.9 L 203.7 980.9 L 204.3 980.0 L 204.9 979.0 L 205.5 978.1 L 206.2 977.1 L 206.8 976.2 L 207.4 975.3 L 208.0 974.3 L 208.6 973.4 L 209.3 972.4 L 209.9 971.5 L 210.5 970.5 L 211.1 969.6 L 211.7 968.6 L 212.4 967.7 L 213.0 966.7 L 213.6 965.8 L 214.2 964.8 L 214.8 963.8 L 215.4 962.9 L 216.1 961.9 L 216.7 961.0 L 217.3 960.0 L 217.9 959.1 L 218.5 958.1 L 219.1 957.1 L 219.7 956.2 L 220.3 955.2 L 220.9 954.3 L 221.5 953.3 L 222.1 952.3 L 222.7 951.4 L 223.3 950.4 L 223.9 949.4 L 224.5 948.5 L 225.1 947.5 L 225.7 946.5 L 226.3 945.6 L 226.9 944.6 L 227.5 943.6 L 228.1 942.7 L 228.7 941.7 L 229.3 940.7 L 229.9 939.8 L 230.5 938.8 L 231.1 937.8 L 231.7 936.8 L 232.2 935.9 L 232.8 934.9 L 233.4 933.9 L 234.0 932.9 L 234.6 931.9 L 235.1 931.0 L 235.7 930.0 L 236.3 929.0 L 236.8 928.0 L 237.4 927.0 L 238.0 926.1 L 238.5 925.1 L 239.1 924.1 L 239.7 923.1 L 240.2 922.1 L 240.8 921.1 L 241.3 920.1 L 241.9 919.1 L 242.4 918.1 L 243.0 917.2 L 243.5 916.2 L 244.1 915.2 L 244.6 914.2 L 245.2 913.2 L 245.7 912.2 L 246.3 911.2 L 246.8 910.2 L 247.3 909.2 L 247.8 908.2 L 248.4 907.2 L 248.9 906.2 L 249.4 905.2 L 250.0 904.2 L 250.5 903.2 L 251.0 902.2 L 251.5 901.2 L 252.0 900.2 L 252.5 899.2 L 253.1 898.2 L 253.6 897.1 L 254.1 896.1 L 254.6 895.1 L 255.1 894.1 L 255.6 893.1 L 256.1 892.1 L 256.6 891.1 L 257.1 890.1 L 257.6 889.0 L 258.1 888.0 L 258.6 887.0 L 259.0 886.0 L 259.5 885.0 L 260.0 884.0 L 260.5 882.9 L 261.0 881.9 L 261.5 880.9 L 261.9 879.9 L 262.4 878.9 L 262.9 877.8 L 263.4 876.8 L 263.8 875.8 L 264.3 874.8 L 264.8 873.7 L 265.2 872.7 L 265.7 871.7 L 266.2 870.7 L 266.6 869.6 L 267.1 868.6 L 267.5 867.6 L 268.0 866.5 L 268.4 865.5 L 268.9 864.5 L 269.3 863.4 L 269.8 862.4 L 270.2 861.4 L 270.7 860.3 L 271.1 859.3 L 271.6 858.3 L 272.0 857.2 L 272.4 856.2 L 272.9 855.1 L 273.3 854.1 L 273.7 853.1 L 274.2 852.0 L 274.6 851.0 L 275.0 849.9 L 275.5 848.9 L 275.9 847.9 L 276.3 846.8 L 276.7 845.8 L 277.2 844.7 L 277.6 843.7 L 278.0 842.6 L 278.4 841.6 L 278.8 840.5 L 279.2 839.5 L 279.6 838.4 L 280.1 837.4 L 280.5 836.3 L 280.9 835.3 L 281.3 834.2 L 281.7 833.2 L 282.1 832.1 L 282.5 831.1 L 282.9 830.0 L 283.3 829.0 L 283.7 827.9 L 284.1 826.9 L 284.5 825.8 L 284.9 824.8 L 285.3 823.7 L 285.7 822.6 L 286.0 821.6 L 286.4 820.5 L 286.8 819.5 L 287.2 818.4 L 287.6 817.4 L 288.0 816.3 L 288.3 815.2 L 288.7 814.2 L 289.1 813.1 L 289.5 812.0 L 289.9 811.0 L 290.2 809.9 L 290.6 808.9 L 291.0 807.8 L 291.3 806.7 L 291.7 805.7 L 292.1 804.6 L 292.5 803.5 L 292.8 802.5 L 293.2 801.4 L 293.5 800.3 L 293.9 799.3 L 294.3 798.2 L 294.6 797.1 L 295.0 796.1 L 295.3 795.0 L 295.7 793.9 L 296.1 792.8 L 296.4 791.8 L 296.8 790.7 L 297.1 789.6 L 297.5 788.6 L 297.8 787.5 L 298.2 786.4 L 298.5 785.3 L 298.9 784.3 L 299.2 783.2 L 299.6 782.1 L 299.9 781.0 L 300.2 780.0 L 300.6 778.9 L 300.9 777.8 L 301.3 776.7 L 301.6 775.7 L 301.9 774.6 L 302.3 773.5 L 302.6 772.4 L 302.9 771.4 L 303.3 770.3 L 303.6 769.2 L 303.9 768.1 L 304.3 767.0 L 304.6 766.0 L 304.9 764.9 L 305.2 763.8 L 305.6 762.7 L 305.9 761.6 L 306.2 760.5 L 306.5 759.5 L 306.9 758.4 L 307.2 757.3 L 307.5 756.2 L 307.8 755.1 L 308.2 754.0 L 308.5 753.0 L 308.8 751.9 L 309.1 750.8 L 309.4 749.7 L 309.7 748.6 L 310.1 747.5 L 310.4 746.5 L 310.7 745.4 L 311.0 744.3 L 311.3 743.2 L 311.6 742.1 L 311.9 741.0 L 312.2 739.9 L 312.5 738.8 L 312.8 737.8 L 313.1 736.7 L 313.5 735.6 L 313.8 734.5 L 314.1 733.4 L 314.4 732.3 L 314.7 731.2 L 315.0 730.1 L 315.3 729.0 L 315.6 728.0 L 315.9 726.9 L 316.2 725.8 L 316.5 724.7 L 316.8 723.6 L 317.1 722.5 L 317.4 721.4 L 317.7 720.3 L 318.0 719.2 L 318.3 718.1 L 318.5 717.0 L 318.8 716.0 L 319.1 714.9 L 319.4 713.8 L 319.7 712.7 L 320.0 711.6 L 320.3 710.5 L 320.6 709.4 L 320.9 708.3 L 321.2 707.2 L 321.5 706.1 L 321.8 705.0 L 322.0 703.9 L 322.3 702.8 L 322.6 701.7 L 322.9 700.7 L 323.2 699.6 L 323.5 698.5 L 323.8 697.4 L 324.0 696.3 L 324.3 695.2 L 324.6 694.1 L 324.9 693.0 L 325.2 691.9 L 325.5 690.8 L 325.7 689.7 L 326.0 688.6 L 326.3 687.5 L 326.6 686.4 L 326.9 685.3 L 327.2 684.2 L 327.4 683.1 L 327.7 682.0 L 328.0 680.9 L 328.3 679.8 L 328.5 678.8 L 328.8 677.7 L 329.1 676.6 L 329.4 675.5 L 329.7 674.4 L 329.9 673.3 L 330.2 672.2 L 330.5 671.1 L 330.8 670.0 L 331.0 668.9 L 331.3 667.8 L 331.6 666.7 L 331.9 665.6 L 332.1 664.5 L 332.4 663.4 L 332.7 662.3 L 333.0 661.2 L 333.2 660.1 L 333.5 659.0 L 333.8 657.9 L 334.1 656.8 L 334.3 655.7 L 334.6 654.6 L 334.9 653.5 L 335.2 652.5 L 335.4 651.4 L 335.7 650.3 L 336.0 649.2 L 336.3 648.1 L 336.5 647.0 L 336.8 645.9 L 337.1 644.8 L 337.3 643.7 L 337.6 642.6 L 337.9 641.5 L 338.2 640.4 L 338.4 639.3 L 338.7 638.2 L 339.0 637.1 L 339.3 636.0 L 339.5 634.9 L 339.8 633.8 L 340.1 632.7 L 340.3 631.6 L 340.6 630.5 L 340.9 629.4 L 341.2 628.3 L 341.4 627.2 L 341.7 626.2 L 342.0 625.1 L 342.2 624.0 L 342.5 622.9 L 342.8 621.8 L 343.1 620.7 L 343.3 619.6 L 343.6 618.5 L 343.9 617.4 L 344.2 616.3 L 344.4 615.2 L 344.7 614.1 L 345.0 613.0 L 345.2 611.9 L 345.5 610.8 L 345.8 609.7 L 346.1 608.6 L 346.3 607.5 L 346.6 606.4 L 346.9 605.3 L 347.2 604.3 L 347.4 603.2 L 347.7 602.1 L 348.0 601.0 L 348.3 599.9 L 348.5 598.8 L 348.8 597.7 L 349.1 596.6 L 349.4 595.5 L 349.7 594.4 L 349.9 593.3 L 350.2 592.2 L 350.5 591.1 L 350.8 590.0 L 351.0 589.0 L 351.3 587.9 L 351.6 586.8 L 351.9 585.7 L 352.2 584.6 L 352.4 583.5 L 352.7 582.4 L 353.0 581.3 L 353.3 580.2 L 353.6 579.1 L 353.8 578.0 L 354.1 576.9 L 354.4 575.9 L 354.7 574.8 L 355.0 573.7 L 355.3 572.6 L 355.5 571.5 L 355.8 570.4 L 356.1 569.3 L 356.4 568.2 L 356.7 567.1 L 357.0 566.0 L 357.2 565.0 L 357.5 563.9 L 357.8 562.8 L 358.1 561.7 L 358.4 560.6 L 358.7 559.5 L 359.0 558.4 L 359.3 557.3 L 359.6 556.2 L 359.8 555.2 L 360.1 554.1 L 360.4 553.0 L 360.7 551.9 L 361.0 550.8 L 361.3 549.7 L 361.6 548.6 L 361.9 547.5 L 362.2 546.5 L 362.5 545.4 L 362.8 544.3 L 363.1 543.2 L 363.4 542.1 L 363.7 541.0 L 364.0 539.9 L 364.3 538.9 L 364.6 537.8 L 364.9 536.7 L 365.2 535.6 L 365.5 534.5 L 365.8 533.4 L 366.1 532.4 L 366.4 531.3 L 366.7 530.2 L 367.0 529.1 L 367.3 528.0 L 367.6 526.9 L 367.9 525.9 L 368.2 524.8 L 368.5 523.7 L 368.9 522.6 L 369.2 521.5 L 369.5 520.5 L 369.8 519.4 L 370.1 518.3 L 370.4 517.2 L 370.7 516.1 L 371.0 515.1 L 371.4 514.0 L 371.7 512.9 L 372.0 511.8 L 372.3 510.7 L 372.6 509.7 L 373.0 508.6 L 373.3 507.5 L 373.6 506.4 L 373.9 505.4 L 374.2 504.3 L 374.6 503.2 L 374.9 502.1 L 375.2 501.1 L 375.6 500.0 L 375.9 498.9 L 376.2 497.8 L 376.5 496.8 L 376.9 495.7 L 377.2 494.6 L 377.5 493.5 L 377.9 492.5 L 378.2 491.4 L 378.5 490.3 L 378.9 489.2 L 379.2 488.2 L 379.6 487.1 L 379.9 486.0 L 380.2 485.0 L 380.6 483.9 L 380.9 482.8 L 381.3 481.7 L 381.6 480.7 L 382.0 479.6 L 382.3 478.5 L 382.7 477.5 L 383.0 476.4 L 383.4 475.3 L 383.7 474.3 L 384.1 473.2 L 384.4 472.1 L 384.8 471.1 L 385.1 470.0 L 385.5 468.9 L 385.8 467.9 L 386.2 466.8 L 386.6 465.7 L 386.9 464.7 L 387.3 463.6 L 387.6 462.5 L 388.0 461.5 L 388.4 460.4 L 388.7 459.3 L 389.1 458.3 L 389.5 457.2 L 389.9 456.2 L 390.2 455.1 L 390.6 454.0 L 391.0 453.0 L 391.3 451.9 L 391.7 450.8 L 392.1 449.8 L 392.5 448.7 L 392.9 447.7 L 393.2 446.6 L 393.6 445.6 L 394.0 444.5 L 394.4 443.4 L 394.8 442.4 L 395.2 441.3 L 395.6 440.3 L 396.0 439.2 L 396.4 438.2 L 396.7 437.1 L 397.1 436.1 L 397.5 435.0 L 397.9 433.9 L 398.3 432.9 L 398.7 431.8 L 399.1 430.8 L 399.5 429.7 L 399.9 428.7 L 400.4 427.6 L 400.8 426.6 L 401.2 425.5 L 401.6 424.5 L 402.0 423.4 L 402.4 422.4 L 402.8 421.3 L 403.2 420.3 L 403.7 419.2 L 404.1 418.2 L 404.5 417.1 L 404.9 416.1 L 405.3 415.1 L 405.8 414.0 L 406.2 413.0 L 406.6 411.9 L 407.1 410.9 L 407.5 409.8 L 407.9 408.8 L 408.4 407.7 L 408.8 406.7 L 409.2 405.7 L 409.7 404.6 L 410.1 403.6 L 410.5 402.5 L 411.0 401.5 L 411.4 400.5 L 411.9 399.4 L 412.3 398.4 L 412.8 397.4 L 413.2 396.3 L 413.7 395.3 L 414.1 394.3 L 414.6 393.2 L 415.0 392.2 L 415.5 391.2 L 416.0 390.1 L 416.4 389.1 L 416.9 388.1 L 417.4 387.0 L 417.8 386.0 L 418.3 385.0 L 418.8 383.9 L 419.2 382.9 L 419.7 381.9 L 420.2 380.9 L 420.7 379.8 L 421.1 378.8 L 421.6 377.8 L 422.1 376.8 L 422.6 375.7 L 423.1 374.7 L 423.5 373.7 L 424.0 372.7 L 424.5 371.7 L 425.0 370.6 L 425.5 369.6 L 426.0 368.6 L 426.5 367.6 L 427.0 366.6 L 427.5 365.6 L 428.0 364.6 L 428.5 363.5 L 429.0 362.5 L 429.5 361.5 L 430.0 360.5 L 430.5 359.5 L 431.0 358.5 L 431.5 357.5 L 432.0 356.5 L 432.6 355.5 L 433.1 354.5 L 433.6 353.5 L 434.1 352.5 L 434.6 351.5 L 435.2 350.5 L 435.7 349.5 L 436.2 348.5 L 436.7 347.5 L 437.3 346.5 L 437.8 345.5 L 438.3 344.5 L 438.9 343.5 L 439.4 342.5 L 439.9 341.5 L 440.5 340.5 L 441.0 339.5 L 441.6 338.5 L 442.1 337.5 L 442.6 336.6 L 443.2 335.6 L 443.7 334.6 L 444.3 333.6 L 444.9 332.6 L 445.4 331.6 L 446.0 330.7 L 446.5 329.7 L 447.1 328.7 L 447.6 327.7 L 448.2 326.7 L 448.8 325.8 L 449.3 324.8 L 449.9 323.8 L 450.5 322.8 L 451.1 321.9 L 451.6 320.9 L 452.2 319.9 L 452.8 319.0 L 453.4 318.0 L 453.9 317.0 L 454.5 316.1 L 455.1 315.1 L 455.7 314.2 L 456.3 313.2 L 456.9 312.2 L 457.5 311.3 L 458.1 310.3 L 458.7 309.4 L 459.3 308.4 L 459.9 307.5 L 460.5 306.5 L 461.1 305.6 L 461.7 304.6 L 462.3 303.7 L 462.9 302.7 L 463.5 301.8 L 464.1 300.8 L 464.7 299.9 L 465.3 298.9 L 466.0 298.0 L 466.6 297.1 L 467.2 296.1 L 467.8 295.2 L 468.4 294.3 L 469.1 293.3 L 469.7 292.4 L 470.3 291.5 L 471.0 290.5 L 471.6 289.6 L 472.2 288.7 L 472.9 287.7 L 473.5 286.8 L 474.2 285.9 L 474.8 285.0 L 475.4 284.1 L 476.1 283.1 L 476.7 282.2 L 477.4 281.3 L 478.0 280.4 L 478.7 279.5 L 479.4 278.6 L 480.0 277.7 L 480.7 276.8 L 481.3 275.9 L 482.0 275.0 L 482.7 274.0 L 483.4 273.1 L 484.0 272.2 L 484.7 271.3 L 485.4 270.5 L 486.1 269.6 L 486.7 268.7 L 487.4 267.8 L 488.1 266.9 L 488.8 266.0 L 489.5 265.1 L 490.2 264.2 L 490.9 263.3 L 491.6 262.5 L 492.3 261.6 L 493.0 260.7 L 493.7 259.8 L 494.4 258.9 L 495.1 258.1 L 495.8 257.2 L 496.5 256.3 L 497.2 255.5 L 497.9 254.6 L 498.7 253.7 L 499.4 252.9 L 500.1 252.0 L 500.8 251.1 L 501.6 250.3 L 502.3 249.4 L 503.0 248.6 L 503.8 247.7 L 504.5 246.9 L 505.2 246.0 L 506.0 245.2 L 506.7 244.3 L 507.5 243.5 L 508.2 242.7 L 509.0 241.8 L 509.7 241.0 L 510.5 240.1 L 511.3 239.3 L 512.0 238.5 L 512.8 237.7 L 513.6 236.8 L 514.3 236.0 L 515.1 235.2 L 515.9 234.4 L 516.7 233.5 L 517.5 232.7 L 518.2 231.9 L 519.0 231.1 L 519.8 230.3 L 520.6 229.5 L 521.4 228.7 L 522.2 227.9 L 523.0 227.1 L 523.8 226.3 L 524.6 225.5 L 525.4 224.7 L 526.3 223.9 L 527.1 223.1 L 527.9 222.3 L 528.7 221.5 L 529.5 220.7 L 530.4 219.9 L 531.2 219.1 L 532.0 218.4 L 532.9 217.6 L 533.7 216.8 L 534.6 216.0 L 535.4 215.3 L 536.3 214.5 L 537.1 213.7 L 538.0 213.0 L 538.8 212.2 L 539.7 211.5 L 540.5 210.7 L 541.4 209.9 L 542.3 209.2 L 543.1 208.4 L 544.0 207.7 L 544.9 207.0 L 545.8 206.2 L 546.6 205.5 L 547.5 204.7 L 548.4 204.0 L 549.3 203.3 L 550.2 202.5 L 551.1 201.8 L 551.9 201.1 L 552.8 200.4 L 553.7 199.6 L 554.6 198.9 L 555.5 198.2 L 556.4 197.5 L 557.3 196.8 L 558.2 196.1 L 559.1 195.4 L 560.0 194.7 L 560.9 194.0 L 561.8 193.3 L 562.7 192.6 L 563.6 191.9 L 564.5 191.2 L 565.4 190.5 L 566.3 189.8 L 567.2 189.1 L 568.1 188.4 L 569.0 187.7 L 569.9 187.1 L 570.8 186.4 L 571.7 185.7 L 572.6 185.1 L 573.5 184.4 L 574.4 183.7 L 575.3 183.1 L 576.1 182.4 L 577.0 181.7 L 577.9 181.1 L 578.8 180.4 L 579.7 179.8 L 580.6 179.1 L 581.5 178.5 L 582.4 177.9 L 583.3 177.2 L 584.1 176.6 L 585.0 176.0 L 585.9 175.3 L 586.8 174.7 L 587.7 174.1 L 588.5 173.4 L 589.4 172.8 L 590.3 172.2 L 591.1 171.6 L 592.0 171.0 L 592.9 170.4 L 593.7 169.8 L 594.6 169.1 L 595.5 168.5 L 596.3 167.9 L 597.2 167.3 L 598.1 166.6 L 598.9 166.0 L 599.8 165.4 L 600.7 164.7 L 601.5 164.0 L 602.4 163.4 L 603.3 162.7 L 604.2 162.0 L 605.1 161.3 L 606.0 160.5 L 606.9 159.8 L 607.8 159.0 L 608.7 158.3 L 609.6 157.5 L 610.5 156.6 L 611.4 155.8 L 612.3 155.0 L 613.3 154.1 L 614.2 153.2 L 615.2 152.3 L 616.1 151.3 L 617.1 150.4 L 618.0 149.4 L 618.9 148.4 L 619.7 147.5 L 620.6 146.5 L 621.4 145.5 L 622.1 144.6 L 622.8 143.6 L 623.4 142.7 L 624.0 141.7 L 624.5 140.8 L 624.9 139.9 L 625.2 139.1 L 625.5 138.2 L 625.7 137.4 L 625.7 136.6" fill="none" stroke="blue" stroke-width="2"/>
<path d="M 170.0 1121.4 L 170.0 1120.6 L 170.0 1119.9 L 170.1 1119.1 L 170.1 1118.3 L 170.2 1117.6 L 170.2 1116.8 L 170.3 1116.0 L 170.4 1115.2 L 170.5 1114.4 L 170.7 1113.6 L 170.8 1112.8 L 171.0 1112.0 L 171.1 1111.2 L 171.3 1110.4 L 171.5 1109.6 L 171.7 1108.7 L 171.9 1107.9 L 172.1 1107.1 L 172.4 1106.2 L 172.6 1105.4 L 172.9 1104.5 L 173.1 1103.7 L 173.4 1102.8 L 173.7 1102.0 L 174.0 1101.1 L 174.3 1100.2 L 174.6 1099.3 L 175.0 1098.5 L 175.3 1097.6 L 175.7 1096.7 L 176.0 1095.8 L 176.4 1094.9 L 176.8 1094.0 L 177.2 1093.1 L 177.6 1092.2 L 178.0 1091.3 L 178.4 1090.4 L 178.8 1089.5 L 179.3 1088.6 L 179.7 1087.6 L 180.2 1086.7 L 180.6 1085.8 L 181.1 1084.9 L 181.6 1083.9 L 182.1 1083.0 L 182.6 1082.0 L 183.1 1081.1 L 183.6 1080.2 L 184.1 1079.2 L 184.6 1078.3 L 185.2 1077.3 L 185.7 1076.3 L 186.3 1075.4 L 186.8 1074.4 L 187.4 1073.4 L 188.0 1072.5 L 188.5 1071.5 L 189.1 1070.5 L 189.7 1069.6 L 190.3 1068.6 L 190.9 1067.6 L 191.5 1066.6 L 192.1 1065.6 L 192.8 1064.6 L 193.4 1063.6 L 194.0 1062.6 L 194.6 1061.6 L 195.3 1060.6 L 195.9 1059.6 L 196.6 1058.6 L 197.2 1057.6 L 197.9 1056.6 L 198.6 1055.6 L 199.2 1054.6 L 199.9 1053.6 L 200.6 1052.6 L 201.3 1051.6 L 202.0 1050.6 L 202.6 1049.5 L 203.3 1048.5 L 204.0 1047.5 L 204.7 1046.5 L 205.4 1045.5 L 206.1 1044.4 L 206.9 1043.4 L 207.6 1042.4 L 208.3 1041.4 L 209.0 1040.3 L 209.7 1039.3 L 210.4 1038.3 L 211.2 1037.2 L 211.9 1036.2 L 212.6 1035.2 L 213.3 1034.1 L 214.1 1033.1 L 214.8 1032.0 L 215.5 1031.0 L 216.3 1030.0 L 217.0 1028.9 L 217.8 1027.9 L 218.5 1026.8 L 219.2 1025.8 L 220.0 1024.8 L 220.7 1023.7 L 221.5 1022.7 L 222.2 1021.6 L 222.9 1020.6 L 223.7 1019.6 L 224.4 1018.5 L 225.2 1017.5 L 225.9 1016.4 L 226.6 1015.4 L 227.4 1014.3 L 228.1 1013.3 L 228.9 1012.2 L 229.6 1011.2 L 230.3 1010.2 L 231.1 1009.1 L 231.8 1008.1 L 232.5 1007.0 L 233.3 1006.0 L 234.0 1005.0 L 234.7 1003.9 L 235.4 1002.9 L 236.2 1001.8 L 236.9 1000.8 L 237.6 999.8 L 238.3 998.7 L 239.0 997.7 L 239.7 996.6 L 240.4 995.6 L 241.1 994.6 L 241.8 993.5 L 242.5 992.5 L 243.2 991.5 L 243.9 990.4 L 244.6 989.4 L 245.3 988.4 L 245.9 987.4 L 246.6 986.3 L 247.3 985.3 L 247.9 984.3 L 248.6 983.3 L 249.3 982.2 L 249.9 981.2 L 250.6 980.2 L 251.2 979.2 L 251.9 978.2 L 252.5 977.2 L 253.1 976.1 L 253.8 975.1 L 254.4 974.1 L 255.0 973.1 L 255.6 972.1 L 256.2 971.1 L 256.9 970.1 L 257.5 969.1 L 258.1 968.1 L 258.7 967.1 L 259.3 966.1 L 259.9 965.1 L 260.5 964.1 L 261.0 963.1 L 261.6 962.1 L 262.2 961.1 L 262.8 960.1 L 263.4 959.1 L 263.9 958.1 L 264.5 957.1 L 265.1 956.1 L 265.6 955.1 L 266.2 954.1 L 266.7 953.1 L 267.3 952.1 L 267.8 951.1 L 268.4 950.1 L 268.9 949.1 L 269.5 948.1 L 270.0 947.1 L 270.5 946.1 L 271.1 945.1 L 271.6 944.2 L 272.1 943.2 L 272.6 942.2 L 273.1 941.2 L 273.7 940.2 L 274.2 939.2 L 274.7 938.2 L 275.2 937.2 L 275.7 936.3 L 276.2 935.3 L 276.7 934.3 L 277.2 933.3 L 277.7 932.3 L 278.2 931.3 L 278.7 930.3 L 279.1 929.4 L 279.6 928.4 L 280.1 927.4 L 280.6 926.4 L 281.1 925.4 L 281.5 924.4 L 282.0 923.5 L 282.5 922.5 L 282.9 921.5 L 283.4 920.5 L 283.9 919.5 L 284.3 918.6 L 284.8 917.6 L 285.2 916.6 L 285.7 915.6 L 286.1 914.6 L 286.6 913.6 L 287.0 912.7 L 287.5 911.7 L 287.9 910.7 L 288.3 909.7 L 288.8 908.7 L 289.2 907.8 L 289.6 906.8 L 290.1 905.8 L 290.5 904.8 L 290.9 903.8 L 291.3 902.8 L 291.8 901.9 L 292.2 900.9 L 292.6 899.9 L 293.0 898.9 L 293.4 897.9 L 293.8 896.9 L 294.3 896.0 L 294.7 895.0 L 295.1 894.0 L 295.5 893.0 L 295.9 892.0 L 296.3 891.0 L 296.7 890.0 L 297.1 889.1 L 297.5 888.1 L 297.9 887.1 L 298.3 886.1 L 298.7 885.1 L 299.1 884.1 L 299.4 883.1 L 299.8 882.1 L 300.2 881.2 L 300.6 880.2 L 301.0 879.2 L 301.4 878.2 L 301.7 877.2 L 302.1 876.2 L 302.5 875.2 L 302.9 874.2 L 303.3 873.2 L 303.6 872.2 L 304.0 871.2 L 304.4 870.2 L 304.7 869.2 L 305.1 868.2 L 305.5 867.2 L 305.9 866.2 L 306.2 865.2 L 306.6 864.2 L 306.9 863.2 L 307.3 862.2 L 307.7 861.2 L 308.0 860.2 L 308.4 859.2 L 308.8 858.2 L 309.1 857.2 L 309.5 856.2 L 309.8 855.2 L 310.2 854.1 L 310.5 853.1 L 310.9 852.1 L 311.2 851.1 L 311.6 850.1 L 311.9 849.1 L 312.3 848.1 L 312.6 847.0 L 313.0 846.0 L 313.3 845.0 L 313.7 844.0 L 314.0 843.0 L 314.4 841.9 L 314.7 840.9 L 315.1 839.9 L 315.4 838.9 L 315.8 837.8 L 316.1 836.8 L 316.4 835.8 L 316.8 834.8 L 317.1 833.7 L 317.5 832.7 L 317.8 831.7 L 318.1 830.7 L 318.5 829.6 L 318.8 828.6 L 319.1 827.6 L 319.5 826.5 L 319.8 825.5 L 320.1 824.5 L 320.5 823.4 L 320.8 822.4 L 321.1 821.4 L 321.4 820.3 L 321.8 819.3 L 322.1 818.2 L 322.4 817.2 L 322.7 816.2 L 323.1 815.1 L 323.4 814.1 L 323.7 813.0 L 324.0 812.0 L 324.4 811.0 L 324.7 809.9 L 325.0 808.9 L 325.3 807.8 L 325.6 806.8 L 326.0 805.7 L 326.3 804.7 L 326.6 803.6 L 326.9 802.6 L 327.2 801.5 L 327.5 800.5 L 327.9 799.4 L 328.2 798.4 L 328.5 797.3 L 328.8 796.3 L 329.1 795.2 L 329.4 794.2 L 329.7 793.1 L 330.0 792.1 L 330.3 791.0 L 330.6 789.9 L 330.9 788.9 L 331.3 787.8 L 331.6 786.8 L 331.9 785.7 L 332.2 784.7 L 332.5 783.6 L 332.8 782.5 L 333.1 781.5 L 333.4 780.4 L 333.7 779.4 L 334.0 778.3 L 334.3 777.2 L 334.6 776.2 L 334.9 775.1 L 335.2 774.0 L 335.5 773.0 L 335.8 771.9 L 336.1 770.8 L 336.4 769.8 L 336.7 768.7 L 337.0 767.6 L 337.3 766.6 L 337.5 765.5 L 337.8 764.4 L 338.1 763.4 L 338.4 762.3 L 338.7 761.2 L 339.0 760.2 L 339.3 759.1 L 339.6 758.0 L 339.9 757.0 L 340.2 755.9 L 340.5 754.8 L 340.7 753.7 L 341.0 752.7 L 341.3 751.6 L 341.6 750.5 L 341.9 749.4 L 342.2 748.4 L 342.5 747.3 L 342.8 746.2 L 343.0 745.1 L 343.3 744.1 L 343.6 743.0 L 343.9 741.9 L 344.2 740.8 L 344.5 739.7 L 344.7 738.7 L 345.0 737.6 L 345.3 736.5 L 345.6 735.4 L 345.9 734.4 L 346.1 733.3 L 346.4 732.2 L 346.7 731.1 L 347.0 730.0 L 347.2 729.0 L 347.5 727.9 L 347.8 726.8 L 348.1 725.7 L 348.4 724.6 L 348.6 723.5 L 348.9 722.5 L 349.2 721.4 L 349.5 720.3 L 349.7 719.2 L 350.0 718.1 L 350.3 717.0 L 350.6 716.0 L 350.8 714.9 L 351.1 713.8 L 351.4 712.7 L 351.6 711.6 L 351.9 710.5 L 352.2 709.4 L 352.5 708.3 L 352.7 707.3 L 353.0 706.2 L 353.3 705.1 L 353.5 704.0 L 353.8 702.9 L 354.1 701.8 L 354.3 700.7 L 354.6 699.6 L 354.9 698.6 L 355.1 697.5 L 355.4 696.4 L 355.7 695.3 L 355.9 694.2 L 356.2 693.1 L 356.5 692.0 L 356.7 690.9 L 357.0 689.8 L 357.3 688.8 L 357.5 687.7 L 357.8 686.6 L 358.1 685.5 L 358.3 684.4 L 358.6 683.3 L 358.9 682.2 L 359.1 681.1 L 359.4 680.0 L 359.7 678.9 L 359.9 677.9 L 360.2 676.8 L 360.5 675.7 L 360.7 674.6 L 361.0 673.5 L 361.2 672.4 L 361.5 671.3 L 361.8 670.2 L 362.0 669.1 L 362.3 668.0 L 362.6 666.9 L 362.8 665.8 L 363.1 664.8 L 363.3 663.7 L 363.6 662.6 L 363.9 661.5 L 364.1 660.4 L 364.4 659.3 L 364.6 658.2 L 364.9 657.1 L 365.2 656.0 L 365.4 654.9 L 365.7 653.8 L 365.9 652.7 L 366.2 651.6 L 366.5 650.6 L 366.7 649.5 L 367.0 648.4 L 367.2 647.3 L 367.5 646.2 L 367.8 645.1 L 368.0 644.0 L 368.3 642.9 L 368.5 641.8 L 368.8 640.7 L 369.1 639.6 L 369.3 638.5 L 369.6 637.5 L 369.8 636.4 L 370.1 635.3 L 370.3 634.2 L 370.6 633.1 L 370.9 632.0 L 371.1 630.9 L 371.4 629.8 L 371.6 628.7 L 371.9 627.6 L 372.2 626.5 L 372.4 625.5 L 372.7 624.4 L 372.9 623.3 L 373.2 622.2 L 373.5 621.1 L 373.7 620.0 L 374.0 618.9 L 374.2 617.8 L 374.5 616.7 L 374.7 615.7 L 375.0 614.6 L 375.3 613.5 L 375.5 612.4 L 375.8 611.3 L 376.0 610.2 L 376.3 609.1 L 376.6 608.0 L 376.8 606.9 L 377.1 605.9 L 377.3 604.8 L 377.6 603.7 L 377.9 602.6 L 378.1 601.5 L 378.4 600.4 L 378.6 599.3 L 378.9 598.3 L 379.2 597.2 L 379.4 596.1 L 379.7 595.0 L 379.9 593.9 L 380.2 592.8 L 380.5 591.7 L 380.7 590.7 L 381.0 589.6 L 381.3 588.5 L 381.5 587.4 L 381.8 586.3 L 382.0 585.2 L 382.3 584.2 L 382.6 583.1 L 382.8 582.0 L 383.1 580.9 L 383.4 579.8 L 383.6 578.7 L 383.9 577.7 L 384.2 576.6 L 384.4 575.5 L 384.7 574.4 L 384.9 573.3 L 385.2 572.3 L 385.5 571.2 L 385.7 570.1 L 386.0 569.0 L 386.3 567.9 L 386.6 566.9 L 386.8 565.8 L 387.1 564.7 L 387.4 563.6 L 387.6 562.5 L 387.9 561.5 L 388.2 560.4 L 388.4 559.3 L 388.7 558.2 L 389.0 557.1 L 389.2 556.1 L 389.5 555.0 L 389.8 553.9 L 390.1 552.8 L 390.3 551.8 L 390.6 550.7 L 390.9 549.6 L 391.2 548.5 L 391.4 547.5 L 391.7 546.4 L 392.0 545.3 L 392.3 544.2 L 392.5 543.2 L 392.8 542.1 L 393.1 541.0 L 393.4 540.0 L 393.7 538.9 L 393.9 537.8 L 394.2 536.7 L 394.5 535.7 L 394.8 534.6 L 395.1 533.5 L 395.4 532.4 L 395.6 531.4 L 395.9 530.3 L 396.2 529.2 L 396.5 528.2 L 396.8 527.1 L 397.1 526.0 L 397.4 525.0 L 397.6 523.9 L 397.9 522.8 L 398.2 521.8 L 398.5 520.7 L 398.8 519.6 L 399.1 518.6 L 399.4 517.5 L 399.7 516.4 L 400.0 515.4 L 400.3 514.3 L 400.6 513.2 L 400.9 512.2 L 401.2 511.1 L 401.4 510.0 L 401.7 509.0 L 402.0 507.9 L 402.3 506.8 L 402.6 505.8 L 402.9 504.7 L 403.2 503.7 L 403.6 502.6 L 403.9 501.5 L 404.2 500.5 L 404.5 499.4 L 404.8 498.3 L 405.1 497.3 L 405.4 496.2 L 405.7 495.2 L 406.0 494.1 L 406.3 493.0 L 406.6 492.0 L 406.9 490.9 L 407.3 489.9 L 407.6 488.8 L 407.9 487.8 L 408.2 486.7 L 408.5 485.6 L 408.8 484.6 L 409.1 483.5 L 409.5 482.5 L 409.8 481.4 L 410.1 480.4 L 410.4 479.3 L 410.8 478.3 L 411.1 477.2 L 411.4 476.1 L 411.7 475.1 L 412.1 474.0 L 412.4 473.0 L 412.7 471.9 L 413.0 470.9 L 413.4 469.8 L 413.7 468.8 L 414.0 467.7 L 414.4 466.7 L 414.7 465.6 L 415.0 464.6 L 415.4 463.5 L 415.7 462.5 L 416.1 461.4 L 416.4 460.4 L 416.7 459.3 L 417.1 458.3 L 417.4 457.2 L 417.8 456.2 L 418.1 455.2 L 418.5 454.1 L 418.8 453.1 L 419.2 452.0 L 419.5 451.0 L 419.9 449.9 L 420.2 448.9 L 420.6 447.8 L 420.9 446.8 L 421.3 445.8 L 421.7 444.7 L 422.0 443.7 L 422.4 442.6 L 422.7 441.6 L 423.1 440.6 L 423.5 439.5 L 423.8 438.5 L 424.2 437.4 L 424.6 436.4 L 424.9 435.4 L 425.3 434.3 L 425.7 433.3 L 426.1 432.3 L 426.4 431.2 L 426.8 430.2 L 427.2 429.1 L 427.6 428.1 L 427.9 427.1 L 428.3 426.0 L 428.7 425.0 L 429.1 424.0 L 429.5 422.9 L 429.9 421.9 L 430.3 420.9 L 430.6 419.8 L 431.0 418.8 L 431.4 417.8 L 431.8 416.8 L 432.2 415.7 L 432.6 414.7 L 433.0 413.7 L 433.4 412.6 L 433.8 411.6 L 434.2 410.6 L 434.6 409.6 L 435.0 408.5 L 435.4 407.5 L 435.8 406.5 L 436.2 405.5 L 436.7 404.4 L 437.1 403.4 L 437.5 402.4 L 437.9 401.4 L 438.3 400.3 L 438.7 399.3 L 439.2 398.3 L 439.6 397.3 L 440.0 396.3 L 440.4 395.2 L 440.9 394.2 L 441.3 393.2 L 441.7 392.2 L 442.1 391.2 L 442.6 390.1 L 443.0 389.1 L 443.4 388.1 L 443.9 387.1 L 444.3 386.1 L 444.8 385.1 L 445.2 384.1 L 445.7 383.0 L 446.1 382.0 L 446.5 381.0 L 447.0 380.0 L 447.4 379.0 L 447.9 378.0 L 448.4 377.0 L 448.8 376.0 L 449.3 375.0 L 449.7 374.0 L 450.2 372.9 L 450.7 371.9 L 451.1 370.9 L 451.6 369.9 L 452.1 368.9 L 452.5 367.9 L 453.0 366.9 L 453.5 365.9 L 453.9 364.9 L 454.4 363.9 L 454.9 362.9 L 455.4 361.9 L 455.9 360.9 L 456.3 359.9 L 456.8 358.9 L 457.3 357.9 L 457.8 356.9 L 458.3 355.9 L 458.8 354.9 L 459.3 353.9 L 459.8 352.9 L 460.3 351.9 L 460.8 350.9 L 461.3 349.9 L 461.8 349.0 L 462.3 348.0 L 462.8 347.0 L 463.3 346.0 L 463.8 345.0 L 464.4 344.0 L 464.9 343.0 L 465.4 342.0 L 465.9 341.0 L 466.4 340.1 L 467.0 339.1 L 467.5 338.1 L 468.0 337.1 L 468.5 336.1 L 469.1 335.1 L 469.6 334.2 L 470.1 333.2 L 470.7 332.2 L 471.2 331.2 L 471.8 330.2 L 472.3 329.3 L 472.9 328.3 L 473.4 327.3 L 474.0 326.3 L 474.5 325.4 L 475.1 324.4 L 475.6 323.4 L 476.2 322.4 L 476.7 321.5 L 477.3 320.5 L 477.9 319.5 L 478.4 318.5 L 479.0 317.6 L 479.6 316.6 L 480.1 315.6 L 480.7 314.7 L 481.3 313.7 L 481.9 312.8 L 482.5 311.8 L 483.0 310.8 L 483.6 309.9 L 484.2 308.9 L 484.8 308.0 L 485.4 307.0 L 486.0 306.0 L 486.6 305.1 L 487.2 304.1 L 487.8 303.2 L 488.4 302.2 L 489.0 301.3 L 489.6 300.3 L 490.2 299.4 L 490.8 298.5 L 491.4 297.5 L 492.0 296.6 L 492.6 295.6 L 493.2 294.7 L 493.8 293.8 L 494.4 292.8 L 495.0 291.9 L 495.7 291.0 L 496.3 290.0 L 496.9 289.1 L 497.5 288.2 L 498.1 287.3 L 498.8 286.3 L 499.4 285.4 L 500.0 284.5 L 500.6 283.6 L 501.3 282.7 L 501.9 281.7 L 502.5 280.8 L 503.2 279.9 L 503.8 279.0 L 504.4 278.1 L 505.1 277.2 L 505.7 276.3 L 506.4 275.4 L 507.0 274.5 L 507.6 273.6 L 508.3 272.7 L 508.9 271.8 L 509.6 270.9 L 510.2 270.1 L 510.9 269.2 L 511.5 268.3 L 512.2 267.4 L 512.8 266.5 L 513.5 265.7 L 514.2 264.8 L 514.8 263.9 L 515.5 263.0 L 516.1 262.2 L 516.8 261.3 L 517.4 260.5 L 518.1 259.6 L 518.8 258.7 L 519.4 257.9 L 520.1 257.0 L 520.8 256.2 L 521.4 255.4 L 522.1 254.5 L 522.8 253.7 L 523.4 252.8 L 524.1 252.0 L 524.8 251.2 L 525.5 250.3 L 526.1 249.5 L 526.8 248.7 L 527.5 247.9 L 528.2 247.0 L 528.8 246.2 L 529.5 245.4 L 530.2 244.6 L 530.9 243.8 L 531.6 243.0 L 532.3 242.2 L 533.0 241.4 L 533.7 240.6 L 534.4 239.8 L 535.1 239.0 L 535.8 238.2 L 536.5 237.4 L 537.2 236.6 L 537.9 235.8 L 538.6 235.0 L 539.3 234.2 L 540.1 233.4 L 540.8 232.6 L 541.5 231.9 L 542.3 231.1 L 543.0 230.3 L 543.8 229.5 L 544.5 228.7 L 545.3 227.9 L 546.1 227.2 L 546.8 226.4 L 547.6 225.6 L 548.4 224.8 L 549.2 224.0 L 550.0 223.3 L 550.8 222.5 L 551.6 221.7 L 552.4 220.9 L 553.2 220.1 L 554.0 219.4 L 554.9 218.6 L 555.7 217.8 L 556.5 217.0 L 557.4 216.2 L 558.3 215.5 L 559.1 214.7 L 560.0 213.9 L 560.9 213.1 L 561.8 212.3 L 562.7 211.5 L 563.6 210.8 L 564.5 210.0 L 565.4 209.2 L 566.4 208.4 L 567.3 207.6 L 568.3 206.8 L 569.2 206.0 L 570.2 205.2 L 571.2 204.4 L 572.2 203.6 L 573.2 202.8 L 574.2 202.0 L 575.2 201.2 L 576.2 200.4 L 577.2 199.6 L 578.2 198.8 L 579.2 198.0 L 580.3 197.2 L 581.3 196.4 L 582.3 195.6 L 583.4 194.8 L 584.4 194.0 L 585.5 193.2 L 586.5 192.4 L 587.5 191.6 L 588.6 190.8 L 589.6 190.0 L 590.7 189.1 L 591.7 188.3 L 592.7 187.5 L 593.8 186.7 L 594.8 185.9 L 595.8 185.1 L 596.9 184.3 L 597.9 183.5 L 598.9 182.6 L 599.9 181.8 L 601.0 181.0 L 602.0 180.2 L 603.0 179.4 L 603.9 178.6 L 604.9 177.8 L 605.9 177.0 L 606.9 176.1 L 607.8 175.3 L 608.8 174.5 L 609.7 173.7 L 610.7 172.9 L 611.6 172.1 L 612.5 171.3 L 613.4 170.5 L 614.3 169.7 L 615.2 168.8 L 616.1 168.0 L 616.9 167.2 L 617.8 166.4 L 618.6 165.6 L 619.4 164.8 L 620.2 164.0 L 621.0 163.2 L 621.8 162.4 L 622.5 161.6 L 623.3 160.8 L 624.0 160.0 L 624.7 159.2 L 625.4 158.4 L 626.1 157.6 L 626.7 156.8 L 627.3 156.0 L 628.0 155.2 L 628.5 154.4 L 629.1 153.6 L 629.7 152.8 L 630.2 152.1 L 630.7 151.3 L 631.2 150.5 L 631.7 149.7 L 632.1 148.9 L 632.5 148.1 L 632.9 147.4 L 633.3 146.6 L 633.6 145.8 L 634.0 145.0 L 634.3 144.3 L 634.5 143.5 L 634.8 142.7 L 635.0 142.0 L 635.2 141.2 L 635.3 140.4 L 635.5 139.7 L 635.6 138.9 L 635.6 138.2 L 635.7 137.4 L 635.7 136.6" fill="none" stroke="purple" stroke-width="2"/>
<circle cx="170.0" cy="1031.3" r="2" fill="red"/>
<circle cx="180.6" cy="1015.4" r="2" fill="red"/>
<circle cx="191.2" cy="999.6" r="2" fill="red"/>
<circle cx="201.8" cy="983.8" r="2" fill="red"/>
<circle cx="212.4" cy="967.6" r="2" fill="red"/>
<circle cx="223.0" cy="951.0" r="2" fill="red"/>
<circle cx="233.6" cy="933.7" r="2" fill="red"/>
<circle cx="244.1" cy="915.1" r="2" fill="red"/>
<circle cx="254.8" cy="894.7" r="2" fill="red"/>
<circle cx="265.3" cy="872.4" r="2" fill="red"/>
<circle cx="275.9" cy="847.7" r="2" fill="red"/>
<circle cx="286.5" cy="820.3" r="2" fill="red"/>
<circle cx="296.8" cy="790.6" r="2" fill="red"/>
<circle cx="307.1" cy="757.7" r="2" fill="red"/>
<circle cx="317.4" cy="721.4" r="2" fill="red"/>
<circle cx="327.7" cy="682.1" r="2" fill="red"/>
<circle cx="337.4" cy="643.6" r="2" fill="red"/>
<circle cx="347.1" cy="604.6" r="2" fill="red"/>
<circle cx="356.7" cy="566.9" r="2" fill="red"/>
<circle cx="365.8" cy="533.3" r="2" fill="red"/>
<circle cx="374.9" cy="502.2" r="2" fill="red"/>
<circle cx="384.0" cy="473.5" r="2" fill="red"/>
<circle cx="393.1" cy="447.1" r="2" fill="red"/>
<circle cx="402.1" cy="423.0" r="2" fill="red"/>
<circle cx="411.2" cy="401.0" r="2" fill="red"/>
<circle cx="420.3" cy="380.6" r="2" fill="red"/>
<circle cx="428.8" cy="363.0" r="2" fill="red"/>
<circle cx="437.2" cy="346.5" r="2" fill="red"/>
<circle cx="445.7" cy="331.1" r="2" fill="red"/>
<circle cx="454.2" cy="316.7" r="2" fill="red"/>
<circle cx="462.7" cy="303.0" r="2" fill="red"/>
<circle cx="471.1" cy="290.3" r="2" fill="red"/>
<circle cx="479.6" cy="278.2" r="2" fill="red"/>
<circle cx="487.5" cy="267.7" r="2" fill="red"/>
<circle cx="495.4" cy="257.8" r="2" fill="red"/>
<circle cx="503.2" cy="248.4" r="2" fill="red"/>
<circle cx="511.1" cy="239.5" r="2" fill="red"/>
<circle cx="519.0" cy="231.2" r="2" fill="red"/>
<circle cx="526.8" cy="223.3" r="2" fill="red"/>
<circle cx="534.7" cy="215.9" r="2" fill="red"/>
<circle cx="542.6" cy="209.0" r="2" fill="red"/>
<circle cx="550.4" cy="202.3" r="2" fill="red"/>
<circle cx="558.3" cy="195.9" r="2" fill="red"/>
<circle cx="566.2" cy="189.9" r="2" fill="red"/>
<circle cx="574.0" cy="183.9" r="2" fill="red"/>
<circle cx="581.9" cy="178.2" r="2" fill="red"/>
<circle cx="589.8" cy="172.6" r="2" fill="red"/>
<circle cx="207.6" cy="1056.0" r="2" fill="purple"/>
<circle cx="217.4" cy="1040.0" r="2" fill="purple"/>
<circle cx="227.3" cy="1023.8" r="2" fill="purple"/>
<circle cx="237.4" cy="1007.4" r="2" fill="purple"/>
<circle cx="247.6" cy="990.4" r="2" fill="purple"/>
<circle cx="257.9" cy="972.9" r="2" fill="purple"/>
<circle cx="268.4" cy="954.3" r="2" fill="purple"/>
<circle cx="278.9" cy="934.1" r="2" fill="purple"/>
<circle cx="289.6" cy="912.1" r="2" fill="purple"/>
<circle cx="300.1" cy="888.1" r="2" fill="purple"/>
<circle cx="310.6" cy="861.8" r="2" fill="purple"/>
<circle cx="320.9" cy="832.9" r="2" fill="purple"/>
<circle cx="330.9" cy="801.8" r="2" fill="purple"/>
<circle cx="340.8" cy="767.6" r="2" fill="purple"/>
<circle cx="350.5" cy="730.4" r="2" fill="purple"/>
<circle cx="360.2" cy="690.4" r="2" fill="purple"/>
<circle cx="369.2" cy="651.5" r="2" fill="purple"/>
<circle cx="378.2" cy="612.5" r="2" fill="purple"/>
<circle cx="387.0" cy="574.8" r="2" fill="purple"/>
<circle cx="395.2" cy="541.6" r="2" fill="purple"/>
<circle cx="403.4" cy="510.8" r="2" fill="purple"/>
<circle cx="411.5" cy="482.6" r="2" fill="purple"/>
<circle cx="419.6" cy="456.7" r="2" fill="purple"/>
<circle cx="427.7" cy="433.1" r="2" fill="purple"/>
<circle cx="435.8" cy="411.5" r="2" fill="purple"/>
<circle cx="443.9" cy="391.5" r="2" fill="purple"/>
<circle cx="451.3" cy="374.2" r="2" fill="purple"/>
<circle cx="458.8" cy="358.0" r="2" fill="purple"/>
<circle cx="466.3" cy="342.8" r="2" fill="purple"/>
<circle cx="473.8" cy="328.5" r="2" fill="purple"/>
<circle cx="481.3" cy="315.0" r="2" fill="purple"/>
<circle cx="488.8" cy="302.4" r="2" fill="purple"/>
<circle cx="496.3" cy="290.4" r="2" fill="purple"/>
<circle cx="503.3" cy="279.8" r="2" fill="purple"/>
<circle cx="510.2" cy="269.9" r="2" fill="purple"/>
<circle cx="517.1" cy="260.4" r="2" fill="purple"/>
<circle cx="524.1" cy="251.4" r="2" fill="purple"/>
<circle cx="531.0" cy="242.9" r="2" fill="purple"/>
<circle cx="538.0" cy="234.9" r="2" fill="purple"/>
<circle cx="545.0" cy="227.2" r="2" fill="purple"/>
<circle cx="552.1" cy="220.0" r="2" fill="purple"/>
<circle cx="559.2" cy="213.0" r="2" fill="purple"/>
<circle cx="566.4" cy="206.2" r="2" fill="purple"/>
<circle cx="573.6" cy="199.6" r="2" fill="purple"/>
<circle cx="580.9" cy="193.2" r="2" fill="purple"/>
<circle cx="588.2" cy="186.9" r="2" fill="purple"/>
<circle cx="595.6" cy="180.7" r="2" fill="purple"/>
<line x1="170.0" y1="1031.3" x2="207.6" y2="1056.0" stroke="purple" stroke-width="0.5" stroke-dasharray="2,2"/>
<line x1="233.6" y1="933.7" x2="268.4" y2="954.3" stroke="purple" stroke-width="0.5" stroke-dasharray="2,2"/>
<line x1="296.8" y1="790.6" x2="330.9" y2="801.8" stroke="purple" stroke-width="0.5" stroke-dasharray="2,2"/>
<line x1="356.7" y1="566.9" x2="387.0" y2="574.8" stroke="purple" stroke-width="0.5" stroke-dasharray="2,2"/>
<line x1="411.2" y1="401.0" x2="435.8" y2="411.5" stroke="purple" stroke-width="0.5" stroke-dasharray="2,2"/>
<line x1="462.7" y1="303.0" x2="481.3" y2="315.0" stroke="purple" stroke-width="0.5" stroke-dasharray="2,2"/>
<line x1="511.1" y1="239.5" x2="524.1" y2="251.4" stroke="purple" stroke-width="0.5" stroke-dasharray="2,2"/>
<line x1="558.3" y1="195.9" x2="566.4" y2="206.2" stroke="purple" stroke-width="0.5" stroke-dasharray="2,2"/>
<circle cx="170.0" cy="1031.4" r="4" fill="none" stroke="blue" stroke-width="1.5"/>
<circle cx="244.1" cy="915.1" r="4" fill="none" stroke="blue" stroke-width="1.5"/>
<circle cx="327.7" cy="682.2" r="4" fill="none" stroke="blue" stroke-width="1.5"/>
<circle cx="402.1" cy="423.1" r="4" fill="none" stroke="blue" stroke-width="1.5"/>
<circle cx="471.1" cy="290.3" r="4" fill="none" stroke="blue" stroke-width="1.5"/>
<circle cx="534.7" cy="215.9" r="4" fill="none" stroke="blue" stroke-width="1.5"/>
<circle cx="589.8" cy="172.6" r="4" fill="none" stroke="blue" stroke-width="1.5"/>
<circle cx="170.0" cy="1121.4" r="4" fill="none" stroke="purple" stroke-width="1.5"/>
<circle cx="245.0" cy="988.8" r="4" fill="none" stroke="purple" stroke-width="1.5"/>
<circle cx="307.9" cy="860.7" r="4" fill="none" stroke="purple" stroke-width="1.5"/>
<circle cx="375.7" cy="611.8" r="4" fill="none" stroke="purple" stroke-width="1.5"/>
<circle cx="426.0" cy="432.4" r="4" fill="none" stroke="purple" stroke-width="1.5"/>
<circle cx="473.0" cy="328.0" r="4" fill="none" stroke="purple" stroke-width="1.5"/>
<circle cx="524.4" cy="251.6" r="4" fill="none" stroke="purple" stroke-width="1.5"/>
<circle cx="567.5" cy="207.5" r="4" fill="none" stroke="purple" stroke-width="1.5"/>
<circle cx="635.7" cy="136.6" r="4" fill="none" stroke="purple" stroke-width="1.5"/>
<circle cx="125.0" cy="1121.4" r="4" fill="green"/>
<circle cx="625.7" cy="136.6" r="4" fill="green"/>
<circle cx="153.9" cy="1056.7" r="3" fill="none" stroke="green" stroke-width="1"/>
<circle cx="613.4" cy="154.0" r="3" fill="none" stroke="green" stroke-width="1"/>
<line x1="170.0" y1="1121.4" x2="170.0" y2="1076.4" stroke="orange" stroke-width="2"/>
<line x1="635.7" y1="136.6" x2="635.7" y2="91.6" stroke="orange" stroke-width="2"/>
<line x1="125.0" y1="1121.4" x2="125.0" y2="1076.4" stroke="orange" stroke-width="2"/>
<line x1="625.7" y1="136.6" x2="625.7" y2="91.6" stroke="orange" stroke-width="2"/>
<text x="175" y="1043" font-size="11" fill="red">C1</text>
<text x="595" y="168" font-size="11" fill="red">G7</text>
<text x="131" y="1135" font-size="10" fill="green">base (18")</text>
<text x="632" y="151" font-size="10" fill="green">neck (4")</text>
<text x="10" y="20" font-size="12" fill="black" font-weight="bold">Erard harp: soundboard (11 nodes) + cusp curve (9 nodes, clamped vertical)</text>
<text x="10" y="35" font-size="11" fill="blue">Blue: soundboard | Purple: cusp curve | Both vertical takeoff at base &amp; neck</text>
<text x="10" y="50" font-size="11" fill="purple">Cusp: base 90° / neck 90° | Max fit error: 0.370" | 18"→4" dia</text>
<text x="10" y="65" font-size="11" fill="#c66">Pin line spread: 0.933"</text>
</svg>