<svg xmlns="http://www.w3.org/2000/svg" width="490" height="741" viewBox="0 0 490 741">
  <path d="M 150.00,711.02 C 150.00,692.15 166.51,676.98 176.73,661.13 C 187.02,645.17 197.14,629.09 206.53,612.58 C 215.89,596.11 224.53,579.19 232.20,561.87 C 239.85,544.60 246.57,526.89 252.44,508.94 C 258.33,490.95 263.41,472.69 268.01,454.33 C 272.63,435.93 276.79,417.41 280.93,398.89 C 285.07,380.38 289.21,361.87 293.70,343.45 C 298.18,325.05 303.03,306.73 308.48,288.59 C 313.94,270.44 320.02,252.44 327.02,234.82 C 334.01,217.23 341.96,199.95 351.17,183.41 C 360.35,166.91 370.87,151.07 382.72,136.37 C 394.59,121.63 407.88,107.97 421.99,95.36 C 435.91,82.92 460.39,73.26 460.39,54.59" fill="none" stroke="purple" stroke-width="0.7"/>
  <path d="M 30.0,711.0 L 30.7,711.0 L 32.6,711.0 L 35.8,711.0 L 40.2,711.0 L 45.5,711.0 L 51.8,711.0 L 58.8,711.0 L 66.4,711.0 L 74.4,711.0 L 82.5,711.0 L 90.6,711.0 L 98.6,711.0 L 106.2,711.0 L 113.4,711.0 L 120.0,711.0 L 125.9,711.0 L 131.2,711.0 L 135.7,711.0 L 139.4,711.0 L 142.5,711.0 L 144.9,711.0 L 146.7,711.0 L 148.0,711.0 L 148.9,711.0 L 149.5,711.0 L 149.8,711.0 L 149.9,711.0 L 150.0,711.0 L 150.0,711.0 L 150.0,711.0 L 150.0,711.0 L 150.0,711.0 L 149.9,711.0 L 149.8,711.0 L 149.5,711.0 L 148.9,711.0 L 148.0,711.0 L 146.7,711.0 L 144.9,711.0 L 142.5,711.0 L 139.4,711.0 L 135.7,711.0 L 131.2,711.0 L 125.9,711.0 L 120.0,711.0 L 113.4,711.0 L 106.2,711.0 L 98.6,711.0 L 90.6,711.0 L 82.5,711.0 L 74.4,711.0 L 66.4,711.0 L 58.8,711.0 L 51.8,711.0 L 45.5,711.0 L 40.2,711.0 L 35.8,711.0 L 32.6,711.0 L 30.7,711.0 L 30.0,711.0" fill="none" stroke="purple" stroke-width="0.6"/>
  <path d="M 433.7,54.6 L 433.9,54.6 L 434.3,54.6 L 435.0,54.6 L 436.0,54.6 L 437.2,54.6 L 438.6,54.6 L 440.1,54.6 L 441.8,54.6 L 443.6,54.6 L 445.4,54.6 L 447.2,54.6 L 449.0,54.6 L 450.7,54.6 L 452.3,54.6 L 453.7,54.6 L 455.0,54.6 L 456.2,54.6 L 457.2,54.6 L 458.0,54.6 L 458.7,54.6 L 459.3,54.6 L 459.7,54.6 L 459.9,54.6 L 460.1,54.6 L 460.3,54.6 L 460.3,54.6 L 460.4,54.6 L 460.4,54.6 L 460.4,54.6 L 460.4,54.6 L 460.4,54.6 L 460.4,54.6 L 460.4,54.6 L 460.3,54.6 L 460.3,54.6 L 460.1,54.6 L 459.9,54.6 L 459.7,54.6 L 459.3,54.6 L 458.7,54.6 L 458.0,54.6 L 457.2,54.6 L 456.2,54.6 L 455.0,54.6 L 453.7,54.6 L 452.3,54.6 L 450.7,54.6 L 449.0,54.6 L 447.2,54.6 L 445.4,54.6 L 443.6,54.6 L 441.8,54.6 L 440.1,54.6 L 438.6,54.6 L 437.2,54.6 L 436.0,54.6 L 435.0,54.6 L 434.3,54.6 L 433.9,54.6 L 433.7,54.6" fill="none" stroke="purple" stroke-width="0.6"/>
  <path d="M 84.4,597.0 L 84.9,597.3 L 86.3,598.5 L 88.7,600.3 L 91.8,602.8 L 95.8,605.9 L 100.4,609.5 L 105.5,613.5 L 111.0,617.9 L 116.9,622.4 L 122.8,627.1 L 128.8,631.8 L 134.6,636.3 L 140.2,640.7 L 145.4,644.8 L 150.2,648.6 L 154.6,652.0 L 158.4,655.0 L 161.7,657.6 L 164.4,659.8 L 166.7,661.5 L 168.4,662.9 L 169.8,663.9 L 170.7,664.7 L 171.4,665.2 L 171.8,665.5 L 172.0,665.7 L 172.1,665.8 L 172.2,665.8 L 172.2,665.8 L 172.2,665.8 L 172.2,665.8 L 172.2,665.8 L 172.1,665.8 L 172.0,665.7 L 171.8,665.5 L 171.4,665.2 L 170.7,664.7 L 169.8,663.9 L 168.4,662.9 L 166.7,661.5 L 164.4,659.8 L 161.7,657.6 L 158.4,655.0 L 154.6,652.0 L 150.2,648.6 L 145.4,644.8 L 140.2,640.7 L 134.6,636.3 L 128.8,631.8 L 122.8,627.1 L 116.9,622.4 L 111.0,617.9 L 105.5,613.5 L 100.4,609.5 L 95.8,605.9 L 91.8,602.8 L 88.7,600.3 L 86.3,598.5 L 84.9,597.3 L 84.4,597.0" fill="none" stroke="purple" stroke-width="0.4" opacity="0.5"/>
  <path d="M 128.0,549.2 L 128.4,549.5 L 129.8,550.3 L 132.1,551.6 L 135.2,553.5 L 139.1,555.7 L 143.6,558.4 L 148.6,561.3 L 154.1,564.5 L 159.7,567.9 L 165.6,571.3 L 171.4,574.7 L 177.1,578.1 L 182.6,581.3 L 187.7,584.3 L 192.4,587.1 L 196.7,589.6 L 200.4,591.8 L 203.7,593.7 L 206.4,595.3 L 208.6,596.6 L 210.3,597.6 L 211.6,598.4 L 212.5,598.9 L 213.1,599.3 L 213.5,599.5 L 213.8,599.7 L 213.9,599.7 L 213.9,599.8 L 213.9,599.8 L 213.9,599.8 L 213.9,599.8 L 213.9,599.8 L 213.9,599.7 L 213.8,599.7 L 213.5,599.5 L 213.1,599.3 L 212.5,598.9 L 211.6,598.4 L 210.3,597.6 L 208.6,596.6 L 206.4,595.3 L 203.7,593.7 L 200.4,591.8 L 196.7,589.6 L 192.4,587.1 L 187.7,584.3 L 182.6,581.3 L 177.1,578.1 L 171.4,574.7 L 165.6,571.3 L 159.7,567.9 L 154.1,564.5 L 148.6,561.3 L 143.6,558.4 L 139.1,555.7 L 135.2,553.5 L 132.1,551.6 L 129.8,550.3 L 128.4,549.5 L 128.0,549.2" fill="none" stroke="purple" stroke-width="0.4" opacity="0.5"/>
  <path d="M 171.8,471.8 L 172.3,471.9 L 173.6,472.4 L 175.9,473.1 L 178.9,474.1 L 182.7,475.3 L 187.0,476.8 L 191.9,478.4 L 197.2,480.1 L 202.7,482.0 L 208.4,483.8 L 214.1,485.7 L 219.6,487.5 L 224.9,489.3 L 229.9,490.9 L 234.5,492.4 L 238.6,493.8 L 242.3,495.0 L 245.4,496.0 L 248.0,496.9 L 250.2,497.6 L 251.8,498.1 L 253.1,498.5 L 254.0,498.8 L 254.6,499.0 L 255.0,499.2 L 255.2,499.2 L 255.3,499.3 L 255.4,499.3 L 255.4,499.3 L 255.4,499.3 L 255.4,499.3 L 255.4,499.3 L 255.3,499.3 L 255.2,499.2 L 255.0,499.2 L 254.6,499.0 L 254.0,498.8 L 253.1,498.5 L 251.8,498.1 L 250.2,497.6 L 248.0,496.9 L 245.4,496.0 L 242.3,495.0 L 238.6,493.8 L 234.5,492.4 L 229.9,490.9 L 224.9,489.3 L 219.6,487.5 L 214.1,485.7 L 208.4,483.8 L 202.7,482.0 L 197.2,480.1 L 191.9,478.4 L 187.0,476.8 L 182.7,475.3 L 178.9,474.1 L 175.9,473.1 L 173.6,472.4 L 172.3,471.9 L 171.8,471.8" fill="none" stroke="purple" stroke-width="0.4" opacity="0.5"/>
  <path d="M 218.8,326.7 L 219.2,326.8 L 220.4,327.1 L 222.4,327.7 L 225.1,328.4 L 228.4,329.2 L 232.3,330.3 L 236.6,331.4 L 241.3,332.6 L 246.3,333.9 L 251.3,335.2 L 256.3,336.5 L 261.3,337.8 L 266.0,339.1 L 270.4,340.2 L 274.5,341.3 L 278.2,342.2 L 281.4,343.1 L 284.2,343.8 L 286.5,344.4 L 288.4,344.9 L 289.9,345.3 L 291.0,345.6 L 291.9,345.8 L 292.4,346.0 L 292.7,346.1 L 292.9,346.1 L 293.0,346.1 L 293.1,346.1 L 293.1,346.1 L 293.1,346.1 L 293.1,346.1 L 293.1,346.1 L 293.0,346.1 L 292.9,346.1 L 292.7,346.1 L 292.4,346.0 L 291.9,345.8 L 291.0,345.6 L 289.9,345.3 L 288.4,344.9 L 286.5,344.4 L 284.2,343.8 L 281.4,343.1 L 278.2,342.2 L 274.5,341.3 L 270.4,340.2 L 266.0,339.1 L 261.3,337.8 L 256.3,336.5 L 251.3,335.2 L 246.3,333.9 L 241.3,332.6 L 236.6,331.4 L 232.3,330.3 L 228.4,329.2 L 225.1,328.4 L 222.4,327.7 L 220.4,327.1 L 219.2,326.8 L 218.8,326.7" fill="none" stroke="purple" stroke-width="0.4" opacity="0.5"/>
  <path d="M 264.8,211.6 L 265.1,211.8 L 266.1,212.2 L 267.7,212.9 L 269.9,213.8 L 272.7,215.0 L 275.9,216.4 L 279.5,217.9 L 283.4,219.5 L 287.4,221.3 L 291.6,223.0 L 295.8,224.8 L 299.8,226.5 L 303.7,228.2 L 307.4,229.7 L 310.8,231.2 L 313.8,232.5 L 316.5,233.6 L 318.8,234.6 L 320.7,235.4 L 322.3,236.0 L 323.5,236.6 L 324.4,237.0 L 325.1,237.2 L 325.5,237.4 L 325.8,237.6 L 326.0,237.6 L 326.1,237.7 L 326.1,237.7 L 326.1,237.7 L 326.1,237.7 L 326.1,237.7 L 326.1,237.7 L 326.1,237.7 L 326.0,237.6 L 325.8,237.6 L 325.5,237.4 L 325.1,237.2 L 324.4,237.0 L 323.5,236.6 L 322.3,236.0 L 320.7,235.4 L 318.8,234.6 L 316.5,233.6 L 313.8,232.5 L 310.8,231.2 L 307.4,229.7 L 303.7,228.2 L 299.8,226.5 L 295.8,224.8 L 291.6,223.0 L 287.4,221.3 L 283.4,219.5 L 279.5,217.9 L 275.9,216.4 L 272.7,215.0 L 269.9,213.8 L 267.7,212.9 L 266.1,212.2 L 265.1,211.8 L 264.8,211.6" fill="none" stroke="purple" stroke-width="0.4" opacity="0.5"/>
  <path d="M 309.1,141.8 L 309.4,142.0 L 310.2,142.5 L 311.5,143.3 L 313.2,144.4 L 315.3,145.8 L 317.8,147.4 L 320.6,149.3 L 323.7,151.2 L 326.8,153.3 L 330.1,155.4 L 333.3,157.5 L 336.5,159.6 L 339.5,161.5 L 342.4,163.4 L 345.0,165.1 L 347.4,166.7 L 349.5,168.0 L 351.3,169.2 L 352.8,170.2 L 354.0,170.9 L 355.0,171.6 L 355.7,172.0 L 356.2,172.4 L 356.6,172.6 L 356.8,172.7 L 356.9,172.8 L 357.0,172.9 L 357.0,172.9 L 357.0,172.9 L 357.0,172.9 L 357.0,172.9 L 357.0,172.9 L 357.0,172.9 L 356.9,172.8 L 356.8,172.7 L 356.6,172.6 L 356.2,172.4 L 355.7,172.0 L 355.0,171.6 L 354.0,170.9 L 352.8,170.2 L 351.3,169.2 L 349.5,168.0 L 347.4,166.7 L 345.0,165.1 L 342.4,163.4 L 339.5,161.5 L 336.5,159.6 L 333.3,157.5 L 330.1,155.4 L 326.8,153.3 L 323.7,151.2 L 320.6,149.3 L 317.8,147.4 L 315.3,145.8 L 313.2,144.4 L 311.5,143.3 L 310.2,142.5 L 309.4,142.0 L 309.1,141.8" fill="none" stroke="purple" stroke-width="0.4" opacity="0.5"/>
  <path d="M 350.8,99.5 L 351.0,99.6 L 351.6,100.2 L 352.5,101.0 L 353.8,102.2 L 355.4,103.6 L 357.3,105.3 L 359.4,107.2 L 361.6,109.2 L 364.0,111.3 L 366.4,113.5 L 368.8,115.7 L 371.2,117.8 L 373.4,119.9 L 375.6,121.8 L 377.5,123.5 L 379.3,125.1 L 380.9,126.5 L 382.2,127.7 L 383.3,128.7 L 384.2,129.6 L 384.9,130.2 L 385.5,130.7 L 385.9,131.0 L 386.1,131.3 L 386.3,131.4 L 386.4,131.5 L 386.4,131.6 L 386.4,131.6 L 386.4,131.6 L 386.4,131.6 L 386.4,131.6 L 386.4,131.6 L 386.4,131.6 L 386.4,131.5 L 386.3,131.4 L 386.1,131.3 L 385.9,131.0 L 385.5,130.7 L 384.9,130.2 L 384.2,129.6 L 383.3,128.7 L 382.2,127.7 L 380.9,126.5 L 379.3,125.1 L 377.5,123.5 L 375.6,121.8 L 373.4,119.9 L 371.2,117.8 L 368.8,115.7 L 366.4,113.5 L 364.0,111.3 L 361.6,109.2 L 359.4,107.2 L 357.3,105.3 L 355.4,103.6 L 353.8,102.2 L 352.5,101.0 L 351.6,100.2 L 351.0,99.6 L 350.8,99.5" fill="none" stroke="purple" stroke-width="0.4" opacity="0.5"/>
  <path d="M 391.0,70.6 L 391.1,70.8 L 391.5,71.3 L 392.1,72.1 L 393.0,73.3 L 394.1,74.7 L 395.3,76.3 L 396.7,78.1 L 398.2,80.1 L 399.8,82.1 L 401.4,84.2 L 403.0,86.3 L 404.6,88.4 L 406.1,90.4 L 407.6,92.2 L 408.9,93.9 L 410.1,95.5 L 411.1,96.8 L 412.0,98.0 L 412.8,99.0 L 413.4,99.8 L 413.8,100.4 L 414.2,100.9 L 414.5,101.2 L 414.6,101.4 L 414.8,101.6 L 414.8,101.7 L 414.8,101.7 L 414.9,101.7 L 414.9,101.7 L 414.9,101.7 L 414.9,101.7 L 414.9,101.7 L 414.8,101.7 L 414.8,101.7 L 414.8,101.6 L 414.6,101.4 L 414.5,101.2 L 414.2,100.9 L 413.8,100.4 L 413.4,99.8 L 412.8,99.0 L 412.0,98.0 L 411.1,96.8 L 410.1,95.5 L 408.9,93.9 L 407.6,92.2 L 406.1,90.4 L 404.6,88.4 L 403.0,86.3 L 401.4,84.2 L 399.8,82.1 L 398.2,80.1 L 396.7,78.1 L 395.3,76.3 L 394.1,74.7 L 393.0,73.3 L 392.1,72.1 L 391.5,71.3 L 391.1,70.8 L 391.0,70.6" fill="none" stroke="purple" stroke-width="0.4" opacity="0.5"/>
  <line x1="150.0" y1="52.2" x2="150.0" y2="648.6" stroke="#666" stroke-width="0.5"/>
  <line x1="157.1" y1="53.7" x2="157.1" y2="640.2" stroke="#0044cc" stroke-width="0.5"/>
  <line x1="164.1" y1="53.7" x2="164.1" y2="630.3" stroke="#666" stroke-width="0.5"/>
  <line x1="171.2" y1="53.5" x2="171.2" y2="620.1" stroke="#666" stroke-width="0.5"/>
  <line x1="178.2" y1="55.1" x2="178.2" y2="609.7" stroke="#cc0000" stroke-width="0.5"/>
  <line x1="185.3" y1="56.2" x2="185.3" y2="598.9" stroke="#666" stroke-width="0.5"/>
  <line x1="192.4" y1="56.3" x2="192.4" y2="587.1" stroke="#666" stroke-width="0.5"/>
  <line x1="199.4" y1="55.9" x2="199.4" y2="574.8" stroke="#666" stroke-width="0.5"/>
  <line x1="206.5" y1="56.4" x2="206.5" y2="561.4" stroke="#0044cc" stroke-width="0.5"/>
  <line x1="213.6" y1="57.5" x2="213.6" y2="546.5" stroke="#666" stroke-width="0.5"/>
  <line x1="220.6" y1="49.1" x2="220.6" y2="530.2" stroke="#666" stroke-width="0.5"/>
  <line x1="227.7" y1="44.7" x2="227.7" y2="511.9" stroke="#cc0000" stroke-width="0.5"/>
  <line x1="234.5" y1="55.0" x2="234.5" y2="492.4" stroke="#666" stroke-width="0.5"/>
  <line x1="241.4" y1="54.6" x2="241.4" y2="470.1" stroke="#666" stroke-width="0.5"/>
  <line x1="248.3" y1="56.1" x2="248.3" y2="445.8" stroke="#666" stroke-width="0.5"/>
  <line x1="255.1" y1="55.7" x2="255.1" y2="419.6" stroke="#0044cc" stroke-width="0.5"/>
  <line x1="261.6" y1="53.2" x2="261.6" y2="393.2" stroke="#666" stroke-width="0.5"/>
  <line x1="268.0" y1="54.6" x2="268.0" y2="366.8" stroke="#666" stroke-width="0.5"/>
  <line x1="274.5" y1="53.0" x2="274.5" y2="341.3" stroke="#cc0000" stroke-width="0.5"/>
  <line x1="280.6" y1="56.6" x2="280.6" y2="319.0" stroke="#666" stroke-width="0.5"/>
  <line x1="286.6" y1="53.7" x2="286.6" y2="298.3" stroke="#666" stroke-width="0.5"/>
  <line x1="292.6" y1="54.8" x2="292.6" y2="279.4" stroke="#666" stroke-width="0.5"/>
  <line x1="298.7" y1="55.3" x2="298.7" y2="262.0" stroke="#0044cc" stroke-width="0.5"/>
  <line x1="304.8" y1="55.2" x2="304.8" y2="246.1" stroke="#666" stroke-width="0.5"/>
  <line x1="310.8" y1="54.2" x2="310.8" y2="231.2" stroke="#666" stroke-width="0.5"/>
  <line x1="316.9" y1="54.2" x2="316.9" y2="217.3" stroke="#cc0000" stroke-width="0.5"/>
  <line x1="322.5" y1="54.1" x2="322.5" y2="205.2" stroke="#666" stroke-width="0.5"/>
  <line x1="328.2" y1="55.0" x2="328.2" y2="194.1" stroke="#666" stroke-width="0.5"/>
  <line x1="333.8" y1="54.4" x2="333.8" y2="183.6" stroke="#666" stroke-width="0.5"/>
  <line x1="339.5" y1="54.8" x2="339.5" y2="174.1" stroke="#0044cc" stroke-width="0.5"/>
  <line x1="345.1" y1="55.8" x2="345.1" y2="165.1" stroke="#666" stroke-width="0.5"/>
  <line x1="350.8" y1="53.4" x2="350.8" y2="156.7" stroke="#666" stroke-width="0.5"/>
  <line x1="356.4" y1="55.5" x2="356.4" y2="149.0" stroke="#cc0000" stroke-width="0.5"/>
  <line x1="361.7" y1="54.6" x2="361.7" y2="142.1" stroke="#666" stroke-width="0.5"/>
  <line x1="366.9" y1="54.2" x2="366.9" y2="135.7" stroke="#666" stroke-width="0.5"/>
  <line x1="372.2" y1="54.2" x2="372.2" y2="129.7" stroke="#666" stroke-width="0.5"/>
  <line x1="377.4" y1="54.0" x2="377.4" y2="123.5" stroke="#0044cc" stroke-width="0.5"/>
  <line x1="382.6" y1="54.5" x2="382.6" y2="118.1" stroke="#666" stroke-width="0.5"/>
  <line x1="387.9" y1="54.9" x2="387.9" y2="112.5" stroke="#666" stroke-width="0.5"/>
  <line x1="393.1" y1="55.7" x2="393.1" y2="107.4" stroke="#cc0000" stroke-width="0.5"/>
  <line x1="398.4" y1="55.0" x2="398.4" y2="102.7" stroke="#666" stroke-width="0.5"/>
  <line x1="403.6" y1="54.5" x2="403.6" y2="98.2" stroke="#666" stroke-width="0.5"/>
  <line x1="408.9" y1="54.2" x2="408.9" y2="93.9" stroke="#666" stroke-width="0.5"/>
  <line x1="414.1" y1="54.6" x2="414.1" y2="90.4" stroke="#0044cc" stroke-width="0.5"/>
  <line x1="419.4" y1="55.3" x2="419.4" y2="87.1" stroke="#666" stroke-width="0.5"/>
  <line x1="424.6" y1="56.7" x2="424.6" y2="84.5" stroke="#666" stroke-width="0.5"/>
  <line x1="429.9" y1="57.7" x2="429.9" y2="81.6" stroke="#cc0000" stroke-width="0.5"/>
  <line x1="150.0" y1="52.2" x2="153.1" y2="37.5" stroke="#666" stroke-width="0.5"/>
  <line x1="157.1" y1="53.7" x2="160.2" y2="39.0" stroke="#0044cc" stroke-width="0.5"/>
  <line x1="164.1" y1="53.7" x2="167.2" y2="39.1" stroke="#666" stroke-width="0.5"/>
  <line x1="171.2" y1="53.5" x2="174.3" y2="38.8" stroke="#666" stroke-width="0.5"/>
  <line x1="178.2" y1="55.1" x2="181.4" y2="40.4" stroke="#cc0000" stroke-width="0.5"/>
  <line x1="185.3" y1="56.2" x2="188.4" y2="41.5" stroke="#666" stroke-width="0.5"/>
  <line x1="192.4" y1="56.3" x2="195.5" y2="41.6" stroke="#666" stroke-width="0.5"/>
  <line x1="199.4" y1="55.9" x2="202.5" y2="41.2" stroke="#666" stroke-width="0.5"/>
  <line x1="206.5" y1="56.4" x2="209.6" y2="41.8" stroke="#0044cc" stroke-width="0.5"/>
  <line x1="213.6" y1="57.5" x2="216.7" y2="42.8" stroke="#666" stroke-width="0.5"/>
  <line x1="220.6" y1="49.1" x2="223.7" y2="34.4" stroke="#666" stroke-width="0.5"/>
  <line x1="227.7" y1="44.7" x2="230.8" y2="30.0" stroke="#cc0000" stroke-width="0.5"/>
  <line x1="234.5" y1="55.0" x2="237.7" y2="40.4" stroke="#666" stroke-width="0.5"/>
  <line x1="241.4" y1="54.6" x2="244.5" y2="39.9" stroke="#666" stroke-width="0.5"/>
  <line x1="248.3" y1="56.1" x2="251.4" y2="41.5" stroke="#666" stroke-width="0.5"/>
  <line x1="255.1" y1="55.7" x2="258.2" y2="41.1" stroke="#0044cc" stroke-width="0.5"/>
  <line x1="261.6" y1="53.2" x2="264.7" y2="38.5" stroke="#666" stroke-width="0.5"/>
  <line x1="268.0" y1="54.6" x2="271.2" y2="40.0" stroke="#666" stroke-width="0.5"/>
  <line x1="274.5" y1="53.0" x2="277.6" y2="38.3" stroke="#cc0000" stroke-width="0.5"/>
  <line x1="280.6" y1="56.6" x2="283.7" y2="41.9" stroke="#666" stroke-width="0.5"/>
  <line x1="286.6" y1="53.7" x2="289.7" y2="39.1" stroke="#666" stroke-width="0.5"/>
  <line x1="292.6" y1="54.8" x2="295.8" y2="40.1" stroke="#666" stroke-width="0.5"/>
  <line x1="298.7" y1="55.3" x2="301.8" y2="40.6" stroke="#0044cc" stroke-width="0.5"/>
  <line x1="304.8" y1="55.2" x2="307.9" y2="40.5" stroke="#666" stroke-width="0.5"/>
  <line x1="310.8" y1="54.2" x2="313.9" y2="39.6" stroke="#666" stroke-width="0.5"/>
  <line x1="316.9" y1="54.2" x2="320.0" y2="39.6" stroke="#cc0000" stroke-width="0.5"/>
  <line x1="322.5" y1="54.1" x2="325.6" y2="39.4" stroke="#666" stroke-width="0.5"/>
  <line x1="328.2" y1="55.0" x2="331.3" y2="40.3" stroke="#666" stroke-width="0.5"/>
  <line x1="333.8" y1="54.4" x2="336.9" y2="39.7" stroke="#666" stroke-width="0.5"/>
  <line x1="339.5" y1="54.8" x2="342.6" y2="40.1" stroke="#0044cc" stroke-width="0.5"/>
  <line x1="345.1" y1="55.8" x2="348.2" y2="41.1" stroke="#666" stroke-width="0.5"/>
  <line x1="350.8" y1="53.4" x2="353.9" y2="38.7" stroke="#666" stroke-width="0.5"/>
  <line x1="356.4" y1="55.5" x2="359.5" y2="40.9" stroke="#cc0000" stroke-width="0.5"/>
  <line x1="361.7" y1="54.6" x2="364.8" y2="39.9" stroke="#666" stroke-width="0.5"/>
  <line x1="366.9" y1="54.2" x2="370.0" y2="39.5" stroke="#666" stroke-width="0.5"/>
  <line x1="372.2" y1="54.2" x2="375.3" y2="39.5" stroke="#666" stroke-width="0.5"/>
  <line x1="377.4" y1="54.0" x2="380.5" y2="39.3" stroke="#0044cc" stroke-width="0.5"/>
  <line x1="382.6" y1="54.5" x2="385.8" y2="39.8" stroke="#666" stroke-width="0.5"/>
  <line x1="387.9" y1="54.9" x2="391.0" y2="40.2" stroke="#666" stroke-width="0.5"/>
  <line x1="393.1" y1="55.7" x2="396.2" y2="41.0" stroke="#cc0000" stroke-width="0.5"/>
  <line x1="398.4" y1="55.0" x2="401.5" y2="40.4" stroke="#666" stroke-width="0.5"/>
  <line x1="403.6" y1="54.5" x2="406.7" y2="39.8" stroke="#666" stroke-width="0.5"/>
  <line x1="408.9" y1="54.2" x2="412.0" y2="39.5" stroke="#666" stroke-width="0.5"/>
  <line x1="414.1" y1="54.6" x2="417.2" y2="40.0" stroke="#0044cc" stroke-width="0.5"/>
  <line x1="419.4" y1="55.3" x2="422.5" y2="40.6" stroke="#666" stroke-width="0.5"/>
  <line x1="424.6" y1="56.7" x2="427.7" y2="42.0" stroke="#666" stroke-width="0.5"/>
  <line x1="429.9" y1="57.7" x2="433.0" y2="43.0" stroke="#cc0000" stroke-width="0.5"/>
  <circle cx="150.0" cy="85.7" r="0.7" fill="#00aa00"/>
  <circle cx="150.0" cy="117.2" r="0.7" fill="#8800aa"/>
  <circle cx="150.0" cy="648.6" r="0.7" fill="#ddaa00"/>
  <circle cx="157.1" cy="86.6" r="0.7" fill="#00aa00"/>
  <circle cx="157.1" cy="117.7" r="0.7" fill="#8800aa"/>
  <circle cx="157.1" cy="640.2" r="0.7" fill="#ddaa00"/>
  <circle cx="164.1" cy="86.1" r="0.7" fill="#00aa00"/>
  <circle cx="164.1" cy="116.6" r="0.7" fill="#8800aa"/>
  <circle cx="164.1" cy="630.3" r="0.7" fill="#ddaa00"/>
  <circle cx="171.2" cy="85.3" r="0.7" fill="#00aa00"/>
  <circle cx="171.2" cy="115.3" r="0.7" fill="#8800aa"/>
  <circle cx="171.2" cy="620.1" r="0.7" fill="#ddaa00"/>
  <circle cx="178.2" cy="86.2" r="0.7" fill="#00aa00"/>
  <circle cx="178.2" cy="115.6" r="0.7" fill="#8800aa"/>
  <circle cx="178.2" cy="609.7" r="0.7" fill="#ddaa00"/>
  <circle cx="185.3" cy="86.6" r="0.7" fill="#00aa00"/>
  <circle cx="185.3" cy="115.4" r="0.7" fill="#8800aa"/>
  <circle cx="185.3" cy="598.9" r="0.7" fill="#ddaa00"/>
  <circle cx="192.4" cy="86.1" r="0.7" fill="#00aa00"/>
  <circle cx="192.4" cy="114.2" r="0.7" fill="#8800aa"/>
  <circle cx="192.4" cy="587.1" r="0.7" fill="#ddaa00"/>
  <circle cx="199.4" cy="85.0" r="0.7" fill="#00aa00"/>
  <circle cx="199.4" cy="112.5" r="0.7" fill="#8800aa"/>
  <circle cx="199.4" cy="574.8" r="0.7" fill="#ddaa00"/>
  <circle cx="206.5" cy="84.8" r="0.7" fill="#00aa00"/>
  <circle cx="206.5" cy="111.5" r="0.7" fill="#8800aa"/>
  <circle cx="206.5" cy="561.4" r="0.7" fill="#ddaa00"/>
  <circle cx="213.6" cy="84.9" r="0.7" fill="#00aa00"/>
  <circle cx="213.6" cy="110.8" r="0.7" fill="#8800aa"/>
  <circle cx="213.6" cy="546.5" r="0.7" fill="#ddaa00"/>
  <circle cx="220.6" cy="76.1" r="0.7" fill="#00aa00"/>
  <circle cx="220.6" cy="101.6" r="0.7" fill="#8800aa"/>
  <circle cx="220.6" cy="530.2" r="0.7" fill="#ddaa00"/>
  <circle cx="227.7" cy="70.9" r="0.7" fill="#00aa00"/>
  <circle cx="227.7" cy="95.6" r="0.7" fill="#8800aa"/>
  <circle cx="227.7" cy="511.9" r="0.7" fill="#ddaa00"/>
  <circle cx="234.5" cy="79.6" r="0.7" fill="#00aa00"/>
  <circle cx="234.5" cy="102.8" r="0.7" fill="#8800aa"/>
  <circle cx="234.5" cy="492.4" r="0.7" fill="#ddaa00"/>
  <circle cx="241.4" cy="77.9" r="0.7" fill="#00aa00"/>
  <circle cx="241.4" cy="99.9" r="0.7" fill="#8800aa"/>
  <circle cx="241.4" cy="470.1" r="0.7" fill="#ddaa00"/>
  <circle cx="248.3" cy="78.0" r="0.7" fill="#00aa00"/>
  <circle cx="248.3" cy="98.7" r="0.7" fill="#8800aa"/>
  <circle cx="248.3" cy="445.8" r="0.7" fill="#ddaa00"/>
  <circle cx="255.1" cy="76.2" r="0.7" fill="#00aa00"/>
  <circle cx="255.1" cy="95.4" r="0.7" fill="#8800aa"/>
  <circle cx="255.1" cy="419.6" r="0.7" fill="#ddaa00"/>
  <circle cx="261.6" cy="72.3" r="0.7" fill="#00aa00"/>
  <circle cx="261.6" cy="90.3" r="0.7" fill="#8800aa"/>
  <circle cx="261.6" cy="393.2" r="0.7" fill="#ddaa00"/>
  <circle cx="268.0" cy="72.1" r="0.7" fill="#00aa00"/>
  <circle cx="268.0" cy="88.7" r="0.7" fill="#8800aa"/>
  <circle cx="268.0" cy="366.8" r="0.7" fill="#ddaa00"/>
  <circle cx="274.5" cy="69.2" r="0.7" fill="#00aa00"/>
  <circle cx="274.5" cy="84.5" r="0.7" fill="#8800aa"/>
  <circle cx="274.5" cy="341.3" r="0.7" fill="#ddaa00"/>
  <circle cx="280.6" cy="71.3" r="0.7" fill="#00aa00"/>
  <circle cx="280.6" cy="85.2" r="0.7" fill="#8800aa"/>
  <circle cx="280.6" cy="319.0" r="0.7" fill="#ddaa00"/>
  <circle cx="286.6" cy="67.5" r="0.7" fill="#00aa00"/>
  <circle cx="286.6" cy="80.4" r="0.7" fill="#8800aa"/>
  <circle cx="286.6" cy="298.3" r="0.7" fill="#ddaa00"/>
  <circle cx="292.6" cy="67.4" r="0.7" fill="#00aa00"/>
  <circle cx="292.6" cy="79.3" r="0.7" fill="#8800aa"/>
  <circle cx="292.6" cy="279.4" r="0.7" fill="#ddaa00"/>
  <circle cx="298.7" cy="66.9" r="0.7" fill="#00aa00"/>
  <circle cx="298.7" cy="77.8" r="0.7" fill="#8800aa"/>
  <circle cx="298.7" cy="262.0" r="0.7" fill="#ddaa00"/>
  <circle cx="304.8" cy="65.9" r="0.7" fill="#00aa00"/>
  <circle cx="304.8" cy="76.0" r="0.7" fill="#8800aa"/>
  <circle cx="304.8" cy="246.1" r="0.7" fill="#ddaa00"/>
  <circle cx="310.8" cy="64.2" r="0.7" fill="#00aa00"/>
  <circle cx="310.8" cy="73.5" r="0.7" fill="#8800aa"/>
  <circle cx="310.8" cy="231.2" r="0.7" fill="#ddaa00"/>
  <circle cx="316.9" cy="63.4" r="0.7" fill="#00aa00"/>
  <circle cx="316.9" cy="72.0" r="0.7" fill="#8800aa"/>
  <circle cx="316.9" cy="217.3" r="0.7" fill="#ddaa00"/>
  <circle cx="322.5" cy="62.6" r="0.7" fill="#00aa00"/>
  <circle cx="322.5" cy="70.6" r="0.7" fill="#8800aa"/>
  <circle cx="322.5" cy="205.2" r="0.7" fill="#ddaa00"/>
  <circle cx="328.2" cy="62.8" r="0.7" fill="#00aa00"/>
  <circle cx="328.2" cy="70.1" r="0.7" fill="#8800aa"/>
  <circle cx="328.2" cy="194.1" r="0.7" fill="#ddaa00"/>
  <circle cx="333.8" cy="61.6" r="0.7" fill="#00aa00"/>
  <circle cx="333.8" cy="68.5" r="0.7" fill="#8800aa"/>
  <circle cx="333.8" cy="183.6" r="0.7" fill="#ddaa00"/>
  <circle cx="339.5" cy="61.5" r="0.7" fill="#00aa00"/>
  <circle cx="339.5" cy="67.8" r="0.7" fill="#8800aa"/>
  <circle cx="339.5" cy="174.1" r="0.7" fill="#ddaa00"/>
  <circle cx="345.1" cy="61.9" r="0.7" fill="#00aa00"/>
  <circle cx="345.1" cy="67.7" r="0.7" fill="#8800aa"/>
  <circle cx="345.1" cy="165.1" r="0.7" fill="#ddaa00"/>
  <circle cx="350.8" cy="59.2" r="0.7" fill="#00aa00"/>
  <circle cx="350.8" cy="64.6" r="0.7" fill="#8800aa"/>
  <circle cx="350.8" cy="156.7" r="0.7" fill="#ddaa00"/>
  <circle cx="356.4" cy="60.8" r="0.7" fill="#00aa00"/>
  <circle cx="356.4" cy="65.7" r="0.7" fill="#8800aa"/>
  <circle cx="356.4" cy="149.0" r="0.7" fill="#ddaa00"/>
  <circle cx="361.7" cy="59.5" r="0.7" fill="#00aa00"/>
  <circle cx="361.7" cy="64.1" r="0.7" fill="#8800aa"/>
  <circle cx="361.7" cy="142.1" r="0.7" fill="#ddaa00"/>
  <circle cx="366.9" cy="58.7" r="0.7" fill="#00aa00"/>
  <circle cx="366.9" cy="63.1" r="0.7" fill="#8800aa"/>
  <circle cx="366.9" cy="135.7" r="0.7" fill="#ddaa00"/>
  <circle cx="372.2" cy="58.4" r="0.7" fill="#00aa00"/>
  <circle cx="372.2" cy="62.4" r="0.7" fill="#8800aa"/>
  <circle cx="372.2" cy="129.7" r="0.7" fill="#ddaa00"/>
  <circle cx="377.4" cy="57.9" r="0.7" fill="#00aa00"/>
  <circle cx="377.4" cy="61.6" r="0.7" fill="#8800aa"/>
  <circle cx="377.4" cy="123.5" r="0.7" fill="#ddaa00"/>
  <circle cx="382.6" cy="58.1" r="0.7" fill="#00aa00"/>
  <circle cx="382.6" cy="61.5" r="0.7" fill="#8800aa"/>
  <circle cx="382.6" cy="118.1" r="0.7" fill="#ddaa00"/>
  <circle cx="387.9" cy="58.1" r="0.7" fill="#00aa00"/>
  <circle cx="387.9" cy="61.2" r="0.7" fill="#8800aa"/>
  <circle cx="387.9" cy="112.5" r="0.7" fill="#ddaa00"/>
  <circle cx="393.1" cy="58.6" r="0.7" fill="#00aa00"/>
  <circle cx="393.1" cy="61.3" r="0.7" fill="#8800aa"/>
  <circle cx="393.1" cy="107.4" r="0.7" fill="#ddaa00"/>
  <circle cx="398.4" cy="57.7" r="0.7" fill="#00aa00"/>
  <circle cx="398.4" cy="60.2" r="0.7" fill="#8800aa"/>
  <circle cx="398.4" cy="102.7" r="0.7" fill="#ddaa00"/>
  <circle cx="403.6" cy="57.0" r="0.7" fill="#00aa00"/>
  <circle cx="403.6" cy="59.3" r="0.7" fill="#8800aa"/>
  <circle cx="403.6" cy="98.2" r="0.7" fill="#ddaa00"/>
  <circle cx="408.9" cy="56.4" r="0.7" fill="#00aa00"/>
  <circle cx="408.9" cy="58.5" r="0.7" fill="#8800aa"/>
  <circle cx="408.9" cy="93.9" r="0.7" fill="#ddaa00"/>
  <circle cx="414.1" cy="56.7" r="0.7" fill="#00aa00"/>
  <circle cx="414.1" cy="58.6" r="0.7" fill="#8800aa"/>
  <circle cx="414.1" cy="90.4" r="0.7" fill="#ddaa00"/>
  <circle cx="419.4" cy="57.1" r="0.7" fill="#00aa00"/>
  <circle cx="419.4" cy="58.8" r="0.7" fill="#8800aa"/>
  <circle cx="419.4" cy="87.1" r="0.7" fill="#ddaa00"/>
  <circle cx="424.6" cy="58.2" r="0.7" fill="#00aa00"/>
  <circle cx="424.6" cy="59.7" r="0.7" fill="#8800aa"/>
  <circle cx="424.6" cy="84.5" r="0.7" fill="#ddaa00"/>
  <circle cx="429.9" cy="59.1" r="0.7" fill="#00aa00"/>
  <circle cx="429.9" cy="60.3" r="0.7" fill="#8800aa"/>
  <circle cx="429.9" cy="81.6" r="0.7" fill="#ddaa00"/>
  <path d="M 120.00,711.02 C 120.00,680.03 146.92,654.89 164.73,629.53 C 173.56,616.96 182.17,604.22 190.09,591.06 C 197.96,577.99 205.18,564.50 211.64,550.69 C 218.09,536.90 223.83,522.76 228.99,508.44 C 234.16,494.08 238.76,479.51 242.99,464.85 C 247.23,450.13 251.11,435.31 254.84,420.45 C 258.58,405.55 262.17,390.62 265.83,375.71 C 269.49,360.78 273.22,345.88 277.22,331.04 C 281.22,316.22 285.49,301.46 290.19,286.84 C 294.88,272.24 300.02,257.76 305.69,243.51 C 311.37,229.26 317.58,215.21 324.44,201.49 C 331.28,187.80 338.78,174.38 347.31,161.66 C 355.83,148.96 365.54,137.04 375.70,125.60 C 385.84,114.16 396.77,103.27 408.89,93.95 C 424.65,81.82 453.72,74.48 453.72,54.59" fill="none" stroke="black" stroke-width="0.7"/>
  <path d="M 150.0,52.2 L 157.1,53.7 L 164.1,53.8 L 171.2,53.5 L 178.2,55.1 L 185.3,56.2 L 192.4,56.3 L 199.4,55.9 L 206.5,56.4 L 213.6,57.5 L 220.6,49.1 L 227.7,44.7 L 234.5,55.1 L 241.4,54.6 L 248.3,56.2 L 255.1,55.8 L 261.6,53.2 L 268.0,54.7 L 274.5,53.0 L 280.6,56.6 L 286.6,53.8 L 292.6,54.8 L 298.7,55.3 L 304.8,55.2 L 310.8,54.3 L 316.9,54.3 L 322.5,54.1 L 328.2,55.0 L 333.8,54.4 L 339.5,54.8 L 345.1,55.8 L 350.8,53.4 L 356.4,55.5 L 361.7,54.6 L 366.9,54.2 L 372.2,54.2 L 377.4,54.0 L 382.6,54.5 L 387.9,54.9 L 393.1,55.7 L 398.4,55.0 L 403.6,54.5 L 408.9,54.2 L 414.1,54.7 L 419.4,55.3 L 424.6,56.7 L 429.9,57.7" fill="none" stroke="#aaa" stroke-width="0.4" stroke-dasharray="2,2"/>
  <circle cx="150.0" cy="52.2" r="0.8" fill="#cc0000"/>
  <circle cx="157.1" cy="53.7" r="0.8" fill="#cc0000"/>
  <circle cx="164.1" cy="53.7" r="0.8" fill="#cc0000"/>
  <circle cx="171.2" cy="53.5" r="0.8" fill="#cc0000"/>
  <circle cx="178.2" cy="55.1" r="0.8" fill="#cc0000"/>
  <circle cx="185.3" cy="56.2" r="0.8" fill="#cc0000"/>
  <circle cx="192.4" cy="56.3" r="0.8" fill="#cc0000"/>
  <circle cx="199.4" cy="55.9" r="0.8" fill="#cc0000"/>
  <circle cx="206.5" cy="56.4" r="0.8" fill="#cc0000"/>
  <circle cx="213.6" cy="57.5" r="0.8" fill="#cc0000"/>
  <circle cx="220.6" cy="49.1" r="0.8" fill="#cc0000"/>
  <circle cx="227.7" cy="44.7" r="0.8" fill="#cc0000"/>
  <circle cx="234.5" cy="55.0" r="0.8" fill="#cc0000"/>
  <circle cx="241.4" cy="54.6" r="0.8" fill="#cc0000"/>
  <circle cx="248.3" cy="56.1" r="0.8" fill="#cc0000"/>
  <circle cx="255.1" cy="55.7" r="0.8" fill="#cc0000"/>
  <circle cx="261.6" cy="53.2" r="0.8" fill="#cc0000"/>
  <circle cx="268.0" cy="54.6" r="0.8" fill="#cc0000"/>
  <circle cx="274.5" cy="53.0" r="0.8" fill="#cc0000"/>
  <circle cx="280.6" cy="56.6" r="0.8" fill="#cc0000"/>
  <circle cx="286.6" cy="53.7" r="0.8" fill="#cc0000"/>
  <circle cx="292.6" cy="54.8" r="0.8" fill="#cc0000"/>
  <circle cx="298.7" cy="55.3" r="0.8" fill="#cc0000"/>
  <circle cx="304.8" cy="55.2" r="0.8" fill="#cc0000"/>
  <circle cx="310.8" cy="54.2" r="0.8" fill="#cc0000"/>
  <circle cx="316.9" cy="54.2" r="0.8" fill="#cc0000"/>
  <circle cx="322.5" cy="54.1" r="0.8" fill="#cc0000"/>
  <circle cx="328.2" cy="55.0" r="0.8" fill="#cc0000"/>
  <circle cx="333.8" cy="54.4" r="0.8" fill="#cc0000"/>
  <circle cx="339.5" cy="54.8" r="0.8" fill="#cc0000"/>
  <circle cx="345.1" cy="55.8" r="0.8" fill="#cc0000"/>
  <circle cx="350.8" cy="53.4" r="0.8" fill="#cc0000"/>
  <circle cx="356.4" cy="55.5" r="0.8" fill="#cc0000"/>
  <circle cx="361.7" cy="54.6" r="0.8" fill="#cc0000"/>
  <circle cx="366.9" cy="54.2" r="0.8" fill="#cc0000"/>
  <circle cx="372.2" cy="54.2" r="0.8" fill="#cc0000"/>
  <circle cx="377.4" cy="54.0" r="0.8" fill="#cc0000"/>
  <circle cx="382.6" cy="54.5" r="0.8" fill="#cc0000"/>
  <circle cx="387.9" cy="54.9" r="0.8" fill="#cc0000"/>
  <circle cx="393.1" cy="55.7" r="0.8" fill="#cc0000"/>
  <circle cx="398.4" cy="55.0" r="0.8" fill="#cc0000"/>
  <circle cx="403.6" cy="54.5" r="0.8" fill="#cc0000"/>
  <circle cx="408.9" cy="54.2" r="0.8" fill="#cc0000"/>
  <circle cx="414.1" cy="54.6" r="0.8" fill="#cc0000"/>
  <circle cx="419.4" cy="55.3" r="0.8" fill="#cc0000"/>
  <circle cx="424.6" cy="56.7" r="0.8" fill="#cc0000"/>
  <circle cx="429.9" cy="57.7" r="0.8" fill="#cc0000"/>
</svg>