<svg xmlns="http://www.w3.org/2000/svg" width="394" height="724" viewBox="0 0 394 724">
  <line x1="60.0" y1="37.4" x2="60.0" y2="633.9" stroke="#999" stroke-width="0.5"/>
  <line x1="67.1" y1="38.0" x2="67.1" y2="624.3" stroke="#999" stroke-width="0.5"/>
  <line x1="74.1" y1="37.4" x2="74.1" y2="614.4" stroke="#999" stroke-width="0.5"/>
  <line x1="81.2" y1="37.8" x2="81.2" y2="604.2" stroke="#999" stroke-width="0.5"/>
  <line x1="88.2" y1="38.9" x2="88.2" y2="593.5" stroke="#999" stroke-width="0.5"/>
  <line x1="95.3" y1="39.5" x2="95.3" y2="582.2" stroke="#999" stroke-width="0.5"/>
  <line x1="102.4" y1="39.0" x2="102.4" y2="570.2" stroke="#999" stroke-width="0.5"/>
  <line x1="109.4" y1="38.4" x2="109.4" y2="557.3" stroke="#999" stroke-width="0.5"/>
  <line x1="116.5" y1="39.6" x2="116.5" y2="543.4" stroke="#999" stroke-width="0.5"/>
  <line x1="123.6" y1="37.8" x2="123.6" y2="528.4" stroke="#999" stroke-width="0.5"/>
  <line x1="130.6" y1="30.0" x2="130.6" y2="511.8" stroke="#999" stroke-width="0.5"/>
  <line x1="137.7" y1="30.3" x2="137.7" y2="493.6" stroke="#999" stroke-width="0.5"/>
  <line x1="144.5" y1="33.9" x2="144.5" y2="474.1" stroke="#999" stroke-width="0.5"/>
  <line x1="151.4" y1="36.5" x2="151.4" y2="452.5" stroke="#999" stroke-width="0.5"/>
  <line x1="158.3" y1="38.3" x2="158.3" y2="428.7" stroke="#999" stroke-width="0.5"/>
  <line x1="165.1" y1="39.1" x2="165.1" y2="402.8" stroke="#999" stroke-width="0.5"/>
  <line x1="171.6" y1="39.2" x2="171.6" y2="377.1" stroke="#999" stroke-width="0.5"/>
  <line x1="178.0" y1="38.7" x2="178.0" y2="350.8" stroke="#999" stroke-width="0.5"/>
  <line x1="184.5" y1="37.9" x2="184.5" y2="325.2" stroke="#999" stroke-width="0.5"/>
  <line x1="190.6" y1="37.3" x2="190.6" y2="302.3" stroke="#999" stroke-width="0.5"/>
  <line x1="196.6" y1="36.8" x2="196.6" y2="281.0" stroke="#999" stroke-width="0.5"/>
  <line x1="202.7" y1="36.6" x2="202.7" y2="261.5" stroke="#999" stroke-width="0.5"/>
  <line x1="208.7" y1="36.5" x2="208.7" y2="243.7" stroke="#999" stroke-width="0.5"/>
  <line x1="214.8" y1="36.5" x2="214.8" y2="227.5" stroke="#999" stroke-width="0.5"/>
  <line x1="220.8" y1="36.6" x2="220.8" y2="212.6" stroke="#999" stroke-width="0.5"/>
  <line x1="226.9" y1="36.7" x2="226.9" y2="199.0" stroke="#999" stroke-width="0.5"/>
  <line x1="232.5" y1="36.7" x2="232.5" y2="187.2" stroke="#999" stroke-width="0.5"/>
  <line x1="238.2" y1="36.8" x2="238.2" y2="176.3" stroke="#999" stroke-width="0.5"/>
  <line x1="243.8" y1="36.9" x2="243.8" y2="166.2" stroke="#999" stroke-width="0.5"/>
  <line x1="249.5" y1="37.0" x2="249.5" y2="156.7" stroke="#999" stroke-width="0.5"/>
  <line x1="255.1" y1="37.0" x2="255.1" y2="147.8" stroke="#999" stroke-width="0.5"/>
  <line x1="260.8" y1="37.1" x2="260.8" y2="139.5" stroke="#999" stroke-width="0.5"/>
  <line x1="266.4" y1="37.1" x2="266.4" y2="131.7" stroke="#999" stroke-width="0.5"/>
  <line x1="271.7" y1="37.2" x2="271.7" y2="124.8" stroke="#999" stroke-width="0.5"/>
  <line x1="276.9" y1="37.3" x2="276.9" y2="118.3" stroke="#999" stroke-width="0.5"/>
  <line x1="282.2" y1="37.4" x2="282.2" y2="112.1" stroke="#999" stroke-width="0.5"/>
  <line x1="287.4" y1="37.5" x2="287.4" y2="106.3" stroke="#999" stroke-width="0.5"/>
  <line x1="292.6" y1="37.5" x2="292.6" y2="100.7" stroke="#999" stroke-width="0.5"/>
  <line x1="297.9" y1="37.5" x2="297.9" y2="95.4" stroke="#999" stroke-width="0.5"/>
  <line x1="303.1" y1="37.5" x2="303.1" y2="90.3" stroke="#999" stroke-width="0.5"/>
  <line x1="308.4" y1="37.3" x2="308.4" y2="85.4" stroke="#999" stroke-width="0.5"/>
  <line x1="313.6" y1="37.1" x2="313.6" y2="80.8" stroke="#999" stroke-width="0.5"/>
  <line x1="318.9" y1="36.9" x2="318.9" y2="76.4" stroke="#999" stroke-width="0.5"/>
  <line x1="324.1" y1="36.6" x2="324.1" y2="72.2" stroke="#999" stroke-width="0.5"/>
  <line x1="329.4" y1="36.4" x2="329.4" y2="68.1" stroke="#999" stroke-width="0.5"/>
  <line x1="334.6" y1="36.4" x2="334.6" y2="64.2" stroke="#999" stroke-width="0.5"/>
  <line x1="339.9" y1="36.5" x2="339.9" y2="60.5" stroke="#999" stroke-width="0.5"/>
  <path d="M 60.0,37.4 L 67.1,38.0 L 74.1,37.4 L 81.2,37.8 L 88.2,38.9 L 95.3,39.5 L 102.4,39.0 L 109.4,38.4 L 116.5,39.6 L 123.6,37.8 L 130.6,30.0 L 137.7,30.3 L 144.5,33.9 L 151.4,36.5 L 158.3,38.3 L 165.1,39.1 L 171.6,39.2 L 178.0,38.7 L 184.5,37.9 L 190.6,37.3 L 196.6,36.8 L 202.7,36.6 L 208.7,36.5 L 214.8,36.5 L 220.8,36.6 L 226.9,36.7 L 232.5,36.7 L 238.2,36.8 L 243.8,36.9 L 249.5,37.0 L 255.1,37.0 L 260.8,37.1 L 266.4,37.1 L 271.7,37.2 L 276.9,37.3 L 282.2,37.4 L 287.4,37.5 L 292.6,37.5 L 297.9,37.5 L 303.1,37.5 L 308.4,37.3 L 313.6,37.1 L 318.9,36.9 L 324.1,36.6 L 329.4,36.4 L 334.6,36.4 L 339.9,36.5" fill="none" stroke="#c66" stroke-width="0.5" stroke-dasharray="2,2"/>
  <path d="M 30.00,693.56 C 30.00,662.64 57.64,637.98 75.36,612.64 C 84.16,600.04 92.54,587.12 100.27,573.83 C 107.96,560.60 115.02,546.98 121.42,533.07 C 127.80,519.20 133.54,505.04 138.75,490.69 C 143.96,476.36 148.65,461.83 152.97,447.20 C 157.30,432.56 161.27,417.81 165.07,403.02 C 168.87,388.19 172.50,373.32 176.16,358.45 C 179.83,343.55 183.52,328.66 187.44,313.82 C 191.37,298.97 195.53,284.16 200.12,269.50 C 204.70,254.83 209.72,240.28 215.34,225.97 C 220.95,211.68 227.18,197.62 234.16,183.95 C 241.12,170.31 248.86,157.03 257.43,144.35 C 265.99,131.67 275.42,119.54 285.66,108.18 C 295.93,96.81 307.05,86.16 318.87,76.40 C 334.22,63.73 363.80,56.98 363.80,37.07" fill="none" stroke="black" stroke-width="1.5"/>
</svg>