<svg xmlns="http://www.w3.org/2000/svg" width="394" height="726" viewBox="0 0 394 726">
  <line x1="60.0" y1="39.2" x2="60.0" y2="635.6" stroke="#666" stroke-width="0.5"/>
  <line x1="67.1" y1="39.1" x2="67.1" y2="625.6" stroke="#0044cc" stroke-width="0.5"/>
  <line x1="74.1" y1="39.1" x2="74.1" y2="615.6" stroke="#666" stroke-width="0.5"/>
  <line x1="81.2" y1="38.8" x2="81.2" y2="605.4" stroke="#666" stroke-width="0.5"/>
  <line x1="88.2" y1="40.3" x2="88.2" y2="595.0" stroke="#cc0000" stroke-width="0.5"/>
  <line x1="95.3" y1="41.3" x2="95.3" y2="584.0" stroke="#666" stroke-width="0.5"/>
  <line x1="102.4" y1="41.6" x2="102.4" y2="572.4" stroke="#666" stroke-width="0.5"/>
  <line x1="109.4" y1="41.1" x2="109.4" y2="560.0" stroke="#666" stroke-width="0.5"/>
  <line x1="116.5" y1="41.5" x2="116.5" y2="546.5" stroke="#0044cc" stroke-width="0.5"/>
  <line x1="123.6" y1="42.6" x2="123.6" y2="531.7" stroke="#666" stroke-width="0.5"/>
  <line x1="130.6" y1="34.3" x2="130.6" y2="515.4" stroke="#666" stroke-width="0.5"/>
  <line x1="137.7" y1="30.0" x2="137.7" y2="497.2" stroke="#cc0000" stroke-width="0.5"/>
  <line x1="144.5" y1="40.1" x2="144.5" y2="477.5" stroke="#666" stroke-width="0.5"/>
  <line x1="151.4" y1="39.9" x2="151.4" y2="455.5" stroke="#666" stroke-width="0.5"/>
  <line x1="158.3" y1="41.4" x2="158.3" y2="431.1" stroke="#666" stroke-width="0.5"/>
  <line x1="165.1" y1="40.7" x2="165.1" y2="404.5" stroke="#0044cc" stroke-width="0.5"/>
  <line x1="171.6" y1="38.3" x2="171.6" y2="378.3" stroke="#666" stroke-width="0.5"/>
  <line x1="178.0" y1="39.8" x2="178.0" y2="351.9" stroke="#666" stroke-width="0.5"/>
  <line x1="184.5" y1="38.2" x2="184.5" y2="326.5" stroke="#cc0000" stroke-width="0.5"/>
  <line x1="190.6" y1="41.7" x2="190.6" y2="304.2" stroke="#666" stroke-width="0.5"/>
  <line x1="196.6" y1="38.9" x2="196.6" y2="283.5" stroke="#666" stroke-width="0.5"/>
  <line x1="202.7" y1="39.9" x2="202.7" y2="264.5" stroke="#666" stroke-width="0.5"/>
  <line x1="208.7" y1="40.3" x2="208.7" y2="247.1" stroke="#0044cc" stroke-width="0.5"/>
  <line x1="214.8" y1="40.2" x2="214.8" y2="231.1" stroke="#666" stroke-width="0.5"/>
  <line x1="220.8" y1="39.3" x2="220.8" y2="216.2" stroke="#666" stroke-width="0.5"/>
  <line x1="226.9" y1="39.5" x2="226.9" y2="202.5" stroke="#cc0000" stroke-width="0.5"/>
  <line x1="232.5" y1="39.5" x2="232.5" y2="190.6" stroke="#666" stroke-width="0.5"/>
  <line x1="238.2" y1="40.2" x2="238.2" y2="179.4" stroke="#666" stroke-width="0.5"/>
  <line x1="243.8" y1="39.7" x2="243.8" y2="169.0" stroke="#666" stroke-width="0.5"/>
  <line x1="249.5" y1="39.9" x2="249.5" y2="159.2" stroke="#0044cc" stroke-width="0.5"/>
  <line x1="255.1" y1="40.9" x2="255.1" y2="150.2" stroke="#666" stroke-width="0.5"/>
  <line x1="260.8" y1="38.4" x2="260.8" y2="141.8" stroke="#666" stroke-width="0.5"/>
  <line x1="266.4" y1="40.7" x2="266.4" y2="134.1" stroke="#cc0000" stroke-width="0.5"/>
  <line x1="271.7" y1="39.9" x2="271.7" y2="127.4" stroke="#666" stroke-width="0.5"/>
  <line x1="276.9" y1="39.5" x2="276.9" y2="121.0" stroke="#666" stroke-width="0.5"/>
  <line x1="282.2" y1="39.3" x2="282.2" y2="114.8" stroke="#666" stroke-width="0.5"/>
  <line x1="287.4" y1="39.3" x2="287.4" y2="108.9" stroke="#0044cc" stroke-width="0.5"/>
  <line x1="292.6" y1="39.5" x2="292.6" y2="103.2" stroke="#666" stroke-width="0.5"/>
  <line x1="297.9" y1="40.1" x2="297.9" y2="97.7" stroke="#666" stroke-width="0.5"/>
  <line x1="303.1" y1="40.9" x2="303.1" y2="92.6" stroke="#cc0000" stroke-width="0.5"/>
  <line x1="308.4" y1="40.1" x2="308.4" y2="87.8" stroke="#666" stroke-width="0.5"/>
  <line x1="313.6" y1="39.6" x2="313.6" y2="83.3" stroke="#666" stroke-width="0.5"/>
  <line x1="318.9" y1="39.4" x2="318.9" y2="79.2" stroke="#666" stroke-width="0.5"/>
  <line x1="324.1" y1="39.4" x2="324.1" y2="75.2" stroke="#0044cc" stroke-width="0.5"/>
  <line x1="329.4" y1="39.6" x2="329.4" y2="71.4" stroke="#666" stroke-width="0.5"/>
  <line x1="334.6" y1="39.9" x2="334.6" y2="67.7" stroke="#666" stroke-width="0.5"/>
  <line x1="339.9" y1="40.1" x2="339.9" y2="64.0" stroke="#cc0000" stroke-width="0.5"/>
  <path d="M 60.0,39.2 L 67.1,39.1 L 74.1,39.1 L 81.2,38.8 L 88.2,40.3 L 95.3,41.3 L 102.4,41.6 L 109.4,41.1 L 116.5,41.5 L 123.6,42.6 L 130.6,34.3 L 137.7,30.0 L 144.5,40.1 L 151.4,39.9 L 158.3,41.4 L 165.1,40.7 L 171.6,38.3 L 178.0,39.8 L 184.5,38.2 L 190.6,41.7 L 196.6,38.9 L 202.7,39.9 L 208.7,40.3 L 214.8,40.2 L 220.8,39.3 L 226.9,39.5 L 232.5,39.5 L 238.2,40.2 L 243.8,39.7 L 249.5,39.9 L 255.1,40.9 L 260.8,38.4 L 266.4,40.7 L 271.7,39.9 L 276.9,39.5 L 282.2,39.3 L 287.4,39.3 L 292.6,39.5 L 297.9,40.1 L 303.1,40.9 L 308.4,40.1 L 313.6,39.6 L 318.9,39.4 L 324.1,39.4 L 329.4,39.6 L 334.6,39.9 L 339.9,40.1" fill="none" stroke="#c66" stroke-width="0.5" stroke-dasharray="2,2"/>
  <path d="M 30.00,696.21 C 30.00,665.23 56.92,640.08 74.73,614.73 C 83.56,602.16 92.17,589.41 100.09,576.25 C 107.96,563.18 115.18,549.69 121.64,535.88 C 128.09,522.09 133.83,507.95 138.99,493.63 C 144.16,479.27 148.76,464.70 152.99,450.04 C 157.23,435.32 161.11,420.50 164.84,405.64 C 168.58,390.75 172.17,375.81 175.83,360.90 C 179.49,345.98 183.22,331.07 187.22,316.23 C 191.22,301.41 195.49,286.65 200.19,272.03 C 204.88,257.43 210.02,242.95 215.69,228.70 C 221.37,214.45 227.58,200.40 234.44,186.68 C 241.28,172.99 248.78,159.57 257.31,146.85 C 265.83,134.15 275.54,122.23 285.70,110.79 C 295.84,99.35 306.77,88.46 318.89,79.14 C 334.65,67.01 363.72,59.67 363.72,39.78" fill="none" stroke="black" stroke-width="1.5"/>
</svg>